<?xml version="1.0" encoding="utf-8"?>
<!-- Generator: Adobe Illustrator 16.0.4, SVG Export Plug-In . SVG Version: 6.00 Build 0)  -->
<!DOCTYPE svg PUBLIC "-//W3C//DTD SVG 1.1//EN" "http://www.w3.org/Graphics/SVG/1.1/DTD/svg11.dtd">
<svg version="1.1" id="Layer_1" xmlns="http://www.w3.org/2000/svg" xmlns:xlink="http://www.w3.org/1999/xlink" x="0px" y="0px"
	 width="53.833px" height="56.5px" viewBox="0 0 53.833 56.5" enable-background="new 0 0 53.833 56.5" xml:space="preserve">
<path fill-rule="evenodd" clip-rule="evenodd" stroke="#000000" stroke-width="0.25" stroke-miterlimit="10" d="M25.39,6.173
	c0.005-0.12,0.011-0.237,0.016-0.354c0.003-0.072,0.03-0.147-0.053-0.201c-0.019-0.013-0.019-0.057-0.028-0.089
	c0.04-0.014,0.071-0.025,0.111-0.038c-0.016-0.202,0.071-0.368,0.214-0.494c0.116-0.104,0.25-0.198,0.414-0.229
	c0.027-0.005,0.061-0.042,0.067-0.07c0.017-0.071,0.02-0.146,0.029-0.218c0.021-0.183,0.172-0.257,0.292-0.357
	c0.019-0.016,0.054-0.031,0.054-0.047c0.001-0.097,0.019-0.204-0.018-0.287c-0.036-0.079-0.053-0.152-0.054-0.235
	c-0.001-0.061,0.019-0.126-0.064-0.157c-0.015-0.004-0.024-0.042-0.025-0.065c-0.003-0.218,0.002-0.436,0.058-0.65
	c0.015-0.061,0.014-0.125,0.014-0.188c-0.001-0.132,0.053-0.239,0.138-0.335c0.035-0.04,0.043-0.075,0.004-0.126
	c-0.017-0.022,0.007-0.079,0.02-0.116c0.01-0.028,0.033-0.054,0.051-0.08c-0.007-0.007-0.015-0.013-0.023-0.02
	c-0.032,0.017-0.065,0.035-0.081,0.043c-0.042-0.024-0.074-0.045-0.11-0.062c-0.153-0.071-0.315-0.13-0.374-0.315
	c-0.006-0.021-0.039-0.036-0.062-0.049c-0.106-0.056-0.146-0.213-0.06-0.287c0.124-0.108,0.109-0.251,0.124-0.39
	c0.009-0.074,0.022-0.148,0.043-0.219c0.005-0.018,0.043-0.041,0.062-0.038c0.02,0.003,0.044,0.036,0.046,0.059
	c0.012,0.141,0.014,0.284,0.026,0.425c0.005,0.051,0.029,0.1,0.037,0.151c0.005,0.032,0.007,0.067-0.001,0.098
	c-0.032,0.128,0.026,0.211,0.124,0.28c0.042,0.029,0.081,0.061,0.137,0.1c0-0.069-0.001-0.118,0-0.167
	c0.001-0.099,0.034-0.179,0.133-0.217c0.023-0.009,0.062-0.017,0.075-0.004c0.02,0.02,0.036,0.057,0.031,0.083
	c-0.01,0.06-0.037,0.117-0.049,0.177c-0.007,0.031,0.005,0.064,0.008,0.098c0.009,0.098,0.025,0.195,0.025,0.293
	c-0.001,0.115,0.01,0.231-0.056,0.342c-0.041,0.069-0.045,0.161-0.067,0.242c-0.026,0.097-0.059,0.193-0.079,0.292
	c-0.026,0.129-0.044,0.26-0.063,0.392c-0.01,0.055,0.094,0.165,0.143,0.157c0.017-0.002,0.037-0.008,0.045-0.02
	c0.033-0.046,0.06-0.096,0.092-0.14c0.085-0.117,0.153-0.231,0.136-0.392c-0.009-0.095,0.047-0.198,0.071-0.297
	c0.038-0.158,0.03-0.31-0.041-0.462c-0.034-0.073-0.046-0.166-0.037-0.247c0.007-0.066,0.056-0.109,0.147-0.076
	c0.173,0.064,0.312,0.007,0.435-0.144c-0.028-0.072-0.051-0.133-0.067-0.173c-0.104,0.035-0.218,0.066-0.327,0.11
	c-0.074,0.03-0.138,0.078-0.219,0.125c-0.017-0.02-0.047-0.05-0.069-0.087c-0.029-0.051-0.019-0.091,0.043-0.115
	c0.107-0.04,0.216-0.079,0.319-0.128c0.059-0.028,0.111-0.07,0.162-0.112c0.092-0.074,0.181-0.155,0.275-0.228
	c0.019-0.015,0.058-0.023,0.079-0.014c0.02,0.009,0.042,0.05,0.036,0.068c-0.029,0.095-0.067,0.188-0.089,0.296
	c0.15-0.139,0.3-0.278,0.461-0.429c0.035,0.059,0.069,0.114,0.1,0.162c-0.042,0.065-0.079,0.126-0.119,0.186
	c-0.073,0.106-0.168,0.185-0.275,0.264c-0.112,0.082-0.197,0.208-0.281,0.323c-0.062,0.087-0.191,0.146-0.295,0.116
	c-0.025-0.008-0.052-0.017-0.077-0.014c-0.07,0.01-0.057,0.019-0.036,0.085c0.029,0.09,0.037,0.19,0.041,0.287
	c0.004,0.154-0.037,0.297-0.094,0.44c-0.023,0.058,0,0.131-0.003,0.197c-0.003,0.087-0.008,0.173-0.02,0.259
	c-0.003,0.024-0.028,0.063-0.045,0.065c-0.12,0.007-0.136,0.127-0.163,0.189c-0.049,0.111-0.091,0.244-0.023,0.378
	c0.035,0.067-0.032,0.147-0.137,0.151c0.043,0.042,0.066,0.079,0.1,0.095c0.115,0.053,0.177,0.159,0.258,0.245
	c0.084,0.089,0.122,0.202,0.146,0.317c0.011,0.055,0.044,0.116-0.038,0.154c-0.018,0.007-0.016,0.07-0.01,0.105
	c0.003,0.014,0.044,0.036,0.059,0.03c0.154-0.05,0.227,0.063,0.287,0.161c0.094,0.153,0.174,0.317,0.243,0.484
	c0.025,0.06,0.018,0.142,0.001,0.208c-0.048,0.183,0.118,0.466,0.272,0.579c0.3,0.217,0.656,0.266,0.989,0.389
	c0.332,0.122,0.675,0.209,1.013,0.315c0.053,0.016,0.106,0.041,0.149,0.074c0.05,0.041,0.033,0.141-0.027,0.143
	c-0.142,0.005-0.182,0.125-0.217,0.208c-0.084,0.198-0.138,0.41-0.197,0.618c-0.016,0.059,0.013,0.139-0.017,0.182
	c-0.046,0.063-0.124,0.105-0.193,0.15c-0.02,0.012-0.054-0.001-0.086-0.004c-0.116,0.286-0.345,0.452-0.61,0.59
	c-0.168,0.087-0.266,0.251-0.306,0.433c-0.021,0.094-0.072,0.123-0.156,0.144c-0.004-0.045-0.007-0.084-0.01-0.123
	c-0.008-0.001-0.019-0.003-0.028-0.005c-0.032,0.126-0.107,0.261-0.088,0.377c0.094,0.545,0.023,1.09,0.031,1.635
	c0.011,0.927-0.004,1.857-0.004,2.786c-0.002,2.958-0.008,5.917,0,8.875c0.011,4.742,0.03,9.485,0.047,14.228
	c0.001,0.262-0.002,0.524,0.017,0.785c0.01,0.148,0.063,0.295,0.091,0.443c0.007,0.037-0.006,0.079-0.01,0.118
	c-0.01,0-0.019,0-0.028,0c-0.014-0.022-0.026-0.043-0.039-0.065c-0.005,0.001-0.01,0.003-0.015,0.004
	c0.02,0.117,0.039,0.233,0.059,0.357c0.037,0.004,0.075,0.01,0.125,0.017c0,0.077-0.011,0.16,0.003,0.237
	c0.028,0.152,0.065,0.301,0.109,0.447c0.059,0.199,0.135,0.392,0.19,0.591c0.029,0.105,0.025,0.219,0.044,0.327
	c0.014,0.084,0.043,0.166,0.067,0.251c-0.088,0.02-0.056,0.096-0.045,0.158c0.026,0.141,0.066,0.28,0.084,0.421
	c0.007,0.058-0.026,0.12-0.041,0.182c-0.012-0.002-0.023-0.003-0.035-0.004c-0.017-0.02-0.032-0.041-0.047-0.061
	c-0.004,0.001-0.009,0.003-0.013,0.004c0.009,0.026,0.012,0.066,0.03,0.074c0.125,0.061,0.251,0.122,0.382,0.168
	c0.135,0.049,0.277,0.077,0.414,0.124c0.125,0.041,0.244,0.1,0.369,0.138c0.123,0.038,0.251,0.056,0.376,0.089
	c0.046,0.011,0.088,0.039,0.13,0.062c0.035,0.018,0.066,0.045,0.102,0.055c0.088,0.025,0.12,0.1,0.114,0.17
	c-0.014,0.141-0.051,0.282-0.076,0.422c-0.012,0.059-0.013,0.12-0.027,0.177c-0.033,0.134-0.054,0.272-0.164,0.376
	c-0.062,0.058-0.029,0.236,0.04,0.267c0.126,0.056,0.168,0.192,0.111,0.321c-0.022,0.05-0.028,0.111-0.028,0.167
	c0.001,0.23,0.005,0.46-0.044,0.688c-0.03,0.137-0.042,0.279-0.054,0.42c-0.021,0.262-0.04,0.525-0.051,0.789
	c-0.011,0.276-0.019,0.553-0.016,0.828c0.003,0.252,0.041,0.502-0.021,0.753c-0.033,0.136-0.032,0.279-0.043,0.388
	c0.126,0.1,0.236,0.187,0.346,0.274c0.039,0.031,0.077,0.064,0.118,0.089c0.166,0.102,0.296,0.215,0.263,0.445
	c-0.012,0.087-0.029,0.195,0.052,0.282c0.019,0.021-0.012,0.088-0.022,0.147c0.083,0.007,0.156,0.014,0.237,0.021
	c0.054-0.005,0.124-0.012,0.194-0.017c0.188-0.014,0.376-0.026,0.565-0.037c0.104-0.006,0.209-0.01,0.314-0.01
	c0.229,0.001,0.459,0.01,0.688,0.008c0.069,0,0.076,0.033,0.072,0.083c-0.013,0.187-0.037,0.374-0.04,0.56
	c-0.007,0.318-0.002,0.636-0.002,0.959c0.166,0.056,0.31,0.114,0.458,0.151c0.065,0.016,0.143-0.027,0.211-0.017
	c0.169,0.027,0.335,0.095,0.503,0.096c0.276,0.001,0.505,0.117,0.738,0.236c0.033,0.017,0.072,0.045,0.083,0.076
	c0.072,0.202,0.176,0.394,0.187,0.617c0.014,0.293,0.032,0.587,0.072,0.877c0.016,0.12-1.074,0.894-1.248,0.926
	c-0.342,0.068-0.685,0.128-1.026,0.199c-0.274,0.058-0.545,0.135-0.821,0.186c-0.264,0.05-0.533,0.078-0.8,0.111
	c-0.217,0.027-0.434,0.043-0.651,0.068c-0.186,0.022-0.37,0.048-0.554,0.072c-0.217,0.029-0.433,0.07-0.651,0.083
	c-0.454,0.028-0.91,0.038-1.364,0.06c-0.122,0.006-0.243,0.023-0.363,0.037c-0.125,0.012-0.248-0.002-0.375,0.012
	c-0.43,0.05-0.861,0.081-1.294,0.108c-0.388,0.024-0.776,0.044-1.165,0.045c-0.279,0-0.557-0.042-0.836-0.052
	c-0.185-0.006-0.37,0.017-0.556,0.021c-0.21,0.005-0.421,0.003-0.631,0.006c-0.16,0.001-0.32-0.003-0.478,0.008
	c-0.335,0.023-0.663-0.021-0.989-0.084c-0.225-0.044-0.449-0.092-0.677-0.126c-0.178-0.026-0.361-0.033-0.541-0.052
	c-0.25-0.026-0.498-0.056-0.747-0.083c-0.196-0.021-0.392-0.042-0.588-0.064c-0.01,0-0.02-0.008-0.029-0.013
	c-0.149-0.079-0.726-2.117-0.744-2.215c-0.021-0.111,0.04-0.195,0.112-0.272c0.015-0.017,0.019-0.043,0.015-0.038
	c0.083-0.011,0.156-0.008,0.218-0.033c0.125-0.052,0.236-0.129,0.375-0.154c0.047-0.009,0.085-0.064,0.131-0.094
	c0.081-0.052,0.16-0.111,0.248-0.146c0.163-0.066,0.332-0.115,0.498-0.172c0.049-0.017,0.095-0.042,0.142-0.061
	c0.125-0.054,0.251-0.106,0.391-0.166c-0.009-0.136-0.021-0.29-0.029-0.445c-0.006-0.096,0.049-0.374,0.076-0.417
	c0.018-0.031,0.34-0.549,0.48-0.56c0.131-0.01,0.262,0.02,0.394-0.016c0.059-0.016,0.101-0.027,0.106-0.101
	c0.015-0.192,0.061-0.39-0.004-0.572c-0.045-0.123-0.071-0.243-0.066-0.37c0.004-0.089,0.018-0.179,0.045-0.263
	c0.011-0.036,0.072-0.055,0.119-0.087c-0.041-0.08,0.011-0.103,0.097-0.105c0.248-0.009,0.496-0.022,0.751-0.034
	c0-0.114,0.005-0.227-0.001-0.339c-0.008-0.196-0.022-0.394-0.035-0.59c-0.039-0.537-0.079-1.074-0.119-1.61
	c-0.008-0.106-0.013-0.213-0.029-0.317c-0.004-0.03-0.042-0.059-0.068-0.083c-0.046-0.044-0.095-0.087-0.145-0.132
	c0.15-0.134,0.316-0.227,0.396-0.369c0.079-0.14,0.214-0.304,0.093-0.5c-0.054-0.085-0.1-0.181-0.122-0.278
	c-0.026-0.112-0.019-0.232-0.032-0.347c-0.024-0.195-0.063-0.389-0.077-0.586c-0.014-0.21-0.012-0.423-0.005-0.634
	c0.003-0.088,0.055-0.138,0.159-0.165c0.154-0.037,0.296-0.119,0.442-0.181c0.027-0.01,0.06-0.026,0.081-0.019
	c0.117,0.042,0.176-0.038,0.261-0.097c0.154-0.109,0.328-0.188,0.494-0.284c0.034-0.02,0.075-0.048,0.092-0.083
	c0.063-0.131,0.114-0.267,0.177-0.397c0.11-0.221,0.223-0.441,0.34-0.658c0.053-0.102,0.122-0.194,0.178-0.293
	c0.025-0.044,0.05-0.096,0.05-0.144c0.014-1.301,0.023-2.603,0.033-3.905c0.008-0.972,0.015-1.944,0.023-2.916
	c0.009-1.131,0.021-2.262,0.031-3.393c0.004-0.553,0.003-1.105,0.004-1.659c0.001-0.48-0.002-0.961,0.001-1.443
	c0.01-1.014,0.025-2.028,0.036-3.043c0.013-1.322,0.027-2.644,0.04-3.964c0.011-1.022,0.027-2.043,0.032-3.063
	c0.01-1.965,0.014-3.929,0.02-5.895c0-0.074,0.025-0.153,0.004-0.221c-0.026-0.087-0.085-0.164-0.131-0.246
	c-0.169-0.302-0.353-0.599-0.507-0.909c-0.052-0.106-0.038-0.246-0.049-0.37c-0.007-0.088-0.095-0.18-0.182-0.187
	c-0.11-0.009-0.223-0.011-0.329-0.042c-0.09-0.025-0.187-0.071-0.254-0.137c-0.083-0.08-0.141-0.188-0.208-0.285
	C23.005,8.202,23.009,8.179,23,8.165c-0.128-0.205-0.013-0.363,0.098-0.522c0.013-0.018,0.036-0.038,0.033-0.053
	c-0.022-0.11,0.051-0.181,0.102-0.259c0.051-0.08,0.042-0.158,0.015-0.239c-0.059-0.181,0.017-0.24,0.185-0.273
	c0.233-0.047,0.466-0.09,0.7-0.124c0.215-0.031,0.433-0.046,0.649-0.07c0.093-0.011,0.187-0.026,0.28-0.045
	c0.025-0.004,0.059-0.022,0.066-0.042c0.037-0.096,0.067-0.194,0.097-0.293C25.251,6.161,25.3,6.139,25.39,6.173z M24.215,49.246
	c-0.086,0.011-0.174,0.018-0.261,0.032c-0.235,0.038-0.47,0.079-0.706,0.12c-0.119,0.021-0.237,0.048-0.355,0.072
	c0.001,0.009,0.004,0.02,0.005,0.029c0.074-0.013,0.147-0.027,0.222-0.037c0.217-0.029,0.436-0.054,0.654-0.084
	c0.165-0.022,0.333-0.038,0.495-0.079c0.091-0.021,0.218,0.049,0.272-0.084c-0.109,0.01-0.219,0.021-0.331,0.032
	c-0.012-0.021-0.024-0.041-0.032-0.055c0.046,0,0.083,0.005,0.117-0.001c0.054-0.012,0.107-0.032,0.161-0.048
	c0.099-0.026,0.206-0.041,0.299-0.084c0.08-0.038,0.167-0.092,0.148-0.213c-0.014-0.096-0.013-0.195-0.023-0.292
	c-0.018-0.153-0.04-0.307-0.059-0.465c-0.095,0.023-0.239-0.025-0.157,0.15c0.004,0.008-0.007,0.026-0.014,0.038
	c-0.043,0.095,0.012,0.194-0.025,0.302c-0.04,0.113,0.019,0.258,0.011,0.386c-0.003,0.042-0.082,0.079-0.125,0.118
	c-0.02-0.039-0.05-0.075-0.056-0.115c-0.015-0.104-0.027-0.211-0.027-0.316c0-0.148-0.011-0.299,0.062-0.44
	c0.03-0.057-0.013-0.086-0.069-0.082c-0.128,0.01-0.256,0.02-0.384,0.04c-0.034,0.004-0.087,0.044-0.089,0.073
	c-0.014,0.142-0.011,0.284-0.022,0.425c-0.012,0.154,0.041,0.31-0.008,0.461c-0.014,0.047-0.05,0.088-0.078,0.136
	c0.065-0.021,0.125-0.032,0.174-0.06C24.098,49.158,24.147,49.245,24.215,49.246z M26.16,49.334
	c-0.021,0.014-0.041,0.037-0.062,0.039c-0.124,0.012-0.244-0.01-0.371,0.008c-0.262,0.039-0.529,0.042-0.793,0.068
	c-0.227,0.021-0.453,0.052-0.68,0.082c-0.102,0.013-0.204,0.032-0.306,0.048c0.001,0.01,0.001,0.02,0.002,0.029
	c0.029,0.003,0.059,0.01,0.088,0.008c0.092-0.007,0.183-0.023,0.275-0.028c0.106-0.005,0.213-0.004,0.319-0.005
	c0.165-0.002,0.329-0.001,0.493-0.004c0.112-0.002,0.233,0.017,0.331-0.023c0.132-0.053,0.264-0.03,0.395-0.045
	c0.077-0.009,0.156,0,0.23-0.015c0.138-0.026,0.274-0.061,0.411-0.097c0.033-0.008,0.062-0.031,0.093-0.047
	c-0.003-0.01-0.007-0.021-0.01-0.031c-0.045,0.006-0.088,0.014-0.117,0.018c-0.035-0.017-0.063-0.029-0.089-0.041
	c0.028-0.01,0.056-0.028,0.084-0.03c0.044-0.001,0.09,0.018,0.133,0.012c0.125-0.018,0.25-0.046,0.375-0.067
	c0.054-0.01,0.108-0.016,0.192-0.027c-0.051,0.037-0.079,0.057-0.134,0.098c0.203-0.018,0.375-0.032,0.525-0.044
	c0.04-0.047,0.067-0.082,0.101-0.124c0.001,0-0.008-0.007-0.018-0.009c-0.181-0.043-0.216-0.129-0.118-0.289
	c0.006-0.01,0.012-0.025,0.012-0.038c0.001-0.161,0.005-0.321-0.001-0.483c-0.01-0.199-0.115-0.292-0.333-0.298
	c0,0.125,0.001,0.25,0,0.374c-0.001,0.131-0.003,0.262-0.01,0.392c-0.001,0.027-0.022,0.053-0.034,0.08
	c-0.017-0.021-0.041-0.04-0.048-0.063c-0.016-0.041-0.03-0.084-0.033-0.127c-0.011-0.193-0.016-0.387-0.025-0.579
	c-0.004-0.096-0.151-0.249-0.245-0.243c-0.146,0.007-0.29,0.024-0.434,0.043c-0.027,0.004-0.061,0.038-0.071,0.066
	c-0.104,0.291-0.055,0.585-0.006,0.875c0.015,0.096,0.066,0.17-0.025,0.253c0.119-0.019,0.239-0.037,0.366-0.057
	c-0.014-0.03-0.023-0.042-0.025-0.055c-0.021-0.322-0.046-0.644-0.063-0.966c-0.004-0.082,0.091-0.128,0.171-0.095
	c0,0.152,0.013,0.307-0.004,0.458c-0.017,0.141,0.054,0.29-0.019,0.422c0.015,0.039,0.041,0.084,0.048,0.133
	c0.009,0.063,0.013,0.102,0.096,0.067c0.061-0.025,0.13-0.032,0.195-0.035c0.052-0.002,0.105,0.015,0.158,0.024
	c-0.001,0.015-0.002,0.029-0.004,0.045c-0.062,0-0.123,0-0.194,0c-0.006,0.006-0.023,0.042-0.046,0.046
	c-0.207,0.035-0.415,0.062-0.623,0.093c-0.104,0.016-0.208,0.03-0.312,0.049c-0.122,0.022-0.242,0.061-0.364,0.071
	c-0.172,0.015-0.347,0.014-0.518,0.015c-0.047,0-0.115-0.034-0.136-0.014c-0.101,0.097-0.224,0.043-0.334,0.065
	c-0.262,0.051-0.53,0.075-0.795,0.109c0.002,0.018,0.005,0.037,0.007,0.055c0.172-0.025,0.345-0.051,0.518-0.075
	c0.127-0.017,0.256-0.035,0.384-0.048c0.174-0.018,0.349-0.036,0.523-0.048c0.154-0.011,0.309-0.011,0.462-0.018
	c0.12-0.005,0.24-0.015,0.344-0.021C26.117,49.306,26.139,49.32,26.16,49.334z M26.117,41.761c-0.043,0.008-0.086,0.022-0.13,0.023
	c-0.093,0.002-0.187-0.004-0.279-0.002c-0.267,0.005-0.533,0.012-0.799,0.022c-0.126,0.005-0.253,0.016-0.379,0.024
	c0,0.01-0.001,0.019-0.001,0.027c0.137,0.021,0.273,0.048,0.41,0.06c0.162,0.015,0.327,0.001,0.486,0.027
	c0.254,0.042,0.51,0.036,0.764,0.034c0.06,0,0.117-0.009,0.175-0.02c0.202-0.036,0.403-0.073,0.604-0.11
	c0.004-0.001,0.006-0.01,0.007-0.014c-0.023-0.01-0.048-0.02-0.055-0.023c0.268,0,0.549,0.006,0.832-0.001
	c0.283-0.009,0.566-0.028,0.848-0.042c-0.062-0.079-0.139-0.111-0.243-0.092c-0.058,0.009-0.119,0.001-0.179,0.001
	c0-0.015-0.002-0.029-0.003-0.044c0.117-0.117,0.273-0.1,0.421-0.106c0.077-0.229,0.08-0.451-0.005-0.683
	c-0.241,0-0.483-0.006-0.724,0.001c-0.339,0.011-0.677,0.038-1.016,0.046c-0.172,0.004-0.344-0.016-0.516-0.026
	c-0.147-0.009-0.293-0.024-0.439-0.03c-0.26-0.012-0.52-0.021-0.778-0.031c-0.1-0.003-0.2-0.01-0.299-0.016
	c-0.157-0.009-0.309-0.011-0.458,0.064c-0.111,0.056-0.173,0.109-0.159,0.224c0.007,0.059,0.019,0.116,0.028,0.176
	c0.032,0,0.062,0,0.09,0c0.007,0.008,0.015,0.015,0.021,0.021c-0.034,0.034-0.062,0.085-0.104,0.102
	c-0.169,0.07-0.227-0.024-0.224-0.198c-0.024,0.032-0.037,0.042-0.041,0.055c-0.047,0.141-0.094,0.283-0.135,0.425
	c-0.004,0.016,0.02,0.05,0.04,0.06c0.085,0.045,0.152,0.015,0.189-0.051c0.05,0.033,0.093,0.084,0.138,0.085
	c0.214,0.004,0.428-0.006,0.642-0.011c0.17-0.005,0.34-0.013,0.51-0.015c0.039-0.001,0.078,0.029,0.116,0.027
	c0.157-0.008,0.313-0.028,0.471-0.032c0.057-0.001,0.116,0.028,0.173,0.043L26.117,41.761z M32.494,53.824
	c0.006-0.019,0.007-0.052,0.02-0.056c0.051-0.02,0.104-0.04,0.16-0.044c0.226-0.017,0.453-0.025,0.68-0.044
	c0.161-0.014,0.323-0.033,0.483-0.064c0.219-0.042,0.436-0.094,0.652-0.148c0.108-0.028,0.642-0.629,0.626-0.874
	c-0.003-0.057-0.043-0.111-0.064-0.167c-0.009-0.024-0.021-0.051-0.023-0.076c-0.008-0.15-0.006-0.302-0.021-0.452
	c-0.006-0.056-0.04-0.116-0.078-0.161c-0.057-0.066-0.124-0.128-0.194-0.18c-0.132-0.098-0.253-0.218-0.438-0.226
	c-0.09-0.004-0.179-0.041-0.274-0.064c-0.004,0.011-0.007,0.029-0.016,0.032c-0.158,0.067-0.312,0.16-0.477,0.188
	c-0.106,0.018-0.262,0.049-0.347-0.086c0.038-0.071,0.072-0.136,0.114-0.215c-0.06,0.009-0.102,0.017-0.149,0.023
	c0.006,0.037,0.011,0.067,0.019,0.126c-0.148-0.049-0.266,0.095-0.414,0.038c0,0.001,0.001,0.027-0.003,0.028
	c-0.078,0.016-0.156,0.027-0.233,0.042c-0.021,0.003-0.056,0.009-0.056,0.016c-0.009,0.107-0.101,0.085-0.162,0.097
	c-0.149,0.028-0.302,0.047-0.454,0.064c-0.242,0.028-0.485,0.069-0.728,0.073c-0.243,0.004-0.493,0.047-0.723-0.099
	c-0.063-0.04-0.176-0.013-0.264-0.004c-0.302,0.024-0.604,0.056-0.905,0.082c-0.163,0.013-0.325,0.05-0.494,0.02
	c-0.135-0.023-0.278-0.019-0.417-0.009c-0.121,0.009-0.24,0.045-0.362,0.061c-0.13,0.018-0.261,0.024-0.393,0.033
	c-0.069,0.005-0.171,0.046-0.181-0.06c-0.009-0.096,0.095-0.098,0.166-0.099c0.129-0.001,0.26,0.017,0.389,0.013
	c0.259-0.009,0.517-0.027,0.775-0.041c0.021-0.002,0.047,0.005,0.061-0.006c0.142-0.107,0.304-0.086,0.463-0.075
	c0.061,0.004,0.123,0.026,0.182,0.022c0.206-0.015,0.41-0.037,0.615-0.057c0.31-0.031,0.621-0.06,0.929-0.093
	c0.162-0.017,0.323-0.043,0.485-0.062c0.05-0.006,0.1-0.007,0.15-0.011c0.001,0.008,0.002,0.015,0.004,0.022
	c0.026-0.02,0.052-0.04,0.078-0.062c-0.003,0.012-0.006,0.024-0.01,0.034c0.036,0.023,0.07,0.054,0.11,0.066
	c0.034,0.011,0.075,0.001,0.113-0.001c0.166-0.01,0.332-0.018,0.497-0.031c0.123-0.009,0.245-0.021,0.367-0.037
	c0.108-0.014,0.217-0.035,0.325-0.054c-0.002-0.013-0.004-0.024-0.006-0.037c-0.104,0.004-0.209,0.01-0.326,0.015
	c0.004,0.006-0.006-0.004-0.01-0.017c-0.033-0.144-0.033-0.144-0.168-0.094c-0.019,0.007-0.041,0.01-0.062,0.011
	c-0.161,0.01-0.321,0.018-0.481,0.026c0,0.009,0,0.019,0,0.028c0.043,0.01,0.088,0.02,0.153,0.033
	c-0.09,0.038-0.153,0.079-0.221,0.09c-0.065,0.011-0.136-0.01-0.218-0.019c0.058-0.026,0.098-0.043,0.137-0.061
	c-0.004-0.011-0.008-0.021-0.012-0.031c-0.016-0.001-0.034-0.007-0.051-0.005c-0.276,0.029-0.553,0.061-0.831,0.086
	c-0.099,0.01-0.2-0.002-0.299,0.006c-0.236,0.015-0.472,0.036-0.707,0.053c-0.175,0.015-0.349,0.028-0.524,0.041
	c-0.142,0.011-0.284,0.02-0.426,0.029c-0.182,0.012-0.366,0.017-0.546,0.037c-0.124,0.014-0.245,0.052-0.369,0.07
	c-0.132,0.017-0.265,0.021-0.398,0.033c-0.252,0.022-0.504,0.046-0.756,0.068c-0.202,0.016-0.403,0.025-0.603,0.044
	c-0.293,0.028-0.586,0.065-0.879,0.088c-0.293,0.023-0.588,0.032-0.883,0.05c-0.062,0.003-0.123,0.025-0.186,0.03
	c-0.089,0.006-0.178-0.005-0.267,0.003c-0.191,0.017-0.381,0.042-0.572,0.06c-0.169,0.015-0.338,0.023-0.507,0.033
	c-0.32,0.017-0.641,0.038-0.962,0.05c-0.283,0.009-0.565,0.005-0.848,0.016c-0.121,0.003-0.243,0.039-0.363,0.036
	c-0.164-0.005-0.341-0.008-0.406-0.212c-0.037-0.117-0.076-0.232-0.108-0.35c-0.015-0.056-0.029-0.161-0.016-0.166
	c0.076-0.028,0.043-0.072,0.037-0.133c-0.09,0.024-0.172,0.047-0.245,0.067c0.013,0.039,0.042,0.085,0.032,0.095
	c-0.035,0.037-0.082,0.084-0.126,0.088c-0.093,0.006-0.151,0.051-0.212,0.113c-0.104,0.103-0.212,0.203-0.324,0.296
	c-0.132,0.113-0.277,0.208-0.403,0.328c-0.11,0.104-0.208,0.214-0.376,0.22c-0.017,0-0.048,0.034-0.049,0.053
	c-0.002,0.075,0.003,0.149,0.008,0.223c0.006,0.076,0.015,0.153,0.023,0.241c-0.024-0.021-0.034-0.028-0.069-0.06
	c0.022,0.112,0.042,0.194,0.056,0.278c0.01,0.069,0.014,0.139,0.017,0.207c0.005,0.078-0.013,0.16-0.034,0.235
	c-0.021,0.081,0.093,0.317,0.187,0.341c0.343,0.09,0.687,0.178,1.031,0.265c0.064,0.016,0.129,0.033,0.168-0.051
	c0.007-0.013,0.05-0.008,0.097-0.014c-0.04,0.046-0.06,0.071-0.096,0.114c0.096,0.015,0.176,0.017,0.25,0.042
	c0.091,0.031,0.132,0.006,0.135-0.08c0.072,0.011,0.136,0.022,0.2,0.03c0.187,0.022,0.373,0.038,0.558,0.066
	c0.2,0.03,0.397,0.087,0.597,0.104c0.336,0.029,0.674,0.039,1.012,0.052c0.125,0.005,0.251-0.004,0.378-0.001
	c0.063,0.001,0.126,0.013,0.19,0.02c0.053,0.006,0.107,0.02,0.158,0.012c0.088-0.014,0.172-0.051,0.261-0.066
	c0.129-0.021,0.262-0.032,0.392-0.048c0.09-0.011,0.179-0.03,0.27-0.037c0.027-0.002,0.058,0.027,0.102,0.049
	c-0.336,0.041-0.645,0.079-0.955,0.117c0.001,0.013,0.002,0.025,0.004,0.039c0.205,0,0.41,0.005,0.614-0.002
	c0.304-0.012,0.609-0.033,0.913-0.047c0.171-0.007,0.344-0.015,0.514-0.008c0.056,0.002,0.104,0.038,0.171,0.01
	c0.083-0.035,0.177-0.056,0.268-0.065c0.1-0.01,0.203,0.005,0.305-0.001c0.188-0.013,0.375-0.041,0.563-0.047
	c0.188-0.007,0.377,0.007,0.566,0.007c0.06,0,0.102,0.067,0.17,0.036c0.037-0.017,0.08-0.017,0.122-0.021
	c0.235-0.023,0.471-0.045,0.707-0.069c0.164-0.017,0.327-0.042,0.491-0.058c0.167-0.015,0.336-0.013,0.504-0.031
	c0.259-0.026,0.517-0.067,0.776-0.095c0.183-0.02,0.367-0.019,0.548-0.046c0.316-0.048,0.628-0.118,0.944-0.165
	C32.038,53.858,32.274,53.845,32.494,53.824z M24.944,27.531c0.012,0.003,0.021,0.006,0.032,0.006c0.011,0,0.023,0.001,0.03-0.005
	c0.115-0.082,0.243-0.107,0.383-0.103c0.083,0.002,0.167-0.01,0.249-0.025c0.111-0.021,0.219-0.063,0.33-0.076
	c0.3-0.034,0.601-0.051,0.901-0.081c0.276-0.029,0.54,0.022,0.801,0.102c0.08,0.025,0.157,0.054,0.251,0.086
	c0-0.067,0-0.116,0-0.165c0.02-2.23,0.038-4.46,0.058-6.69c0.001-0.171,0.001-0.171-0.159-0.224
	c-0.017-0.005-0.031-0.018-0.047-0.023c-0.114-0.036-0.227-0.09-0.343-0.103c-0.253-0.026-0.508-0.039-0.762-0.045
	c-0.13-0.003-0.259,0.021-0.39,0.028c-0.133,0.007-0.266,0.015-0.398,0.013c-0.23-0.005-0.46-0.032-0.691,0.014
	c-0.215,0.043-0.229,0.053-0.231,0.274c0,0.012,0,0.021,0,0.032c-0.002,0.793-0.006,1.587-0.007,2.38
	c-0.002,1.103-0.004,2.206-0.004,3.308C24.943,26.666,24.944,27.098,24.944,27.531z M27.723,49.714c-0.011,0-0.023,0-0.034,0
	c0.006,0.078,0.014,0.156,0.017,0.234c0.006,0.109,0.006,0.219,0.012,0.328c0.008,0.169,0.022,0.338,0.029,0.508
	c0,0.027-0.035,0.056-0.054,0.083c-0.015-0.027-0.043-0.053-0.045-0.082c-0.011-0.178-0.013-0.357-0.026-0.536
	c-0.012-0.157-0.027-0.314-0.057-0.469c-0.032-0.167-0.04-0.166,0.109-0.25c0.002-0.095-0.049-0.121-0.136-0.109
	c-0.048,0.006-0.1-0.007-0.146,0.001c-0.075,0.013-0.153-0.012-0.211,0.079c-0.028,0.044-0.126,0.101-0.212,0.029
	c-0.025-0.021-0.073-0.021-0.109-0.017c-0.267,0.023-0.533,0.049-0.8,0.076c-0.374,0.04-0.747,0.082-1.121,0.118
	c-0.421,0.042-0.843,0.074-1.263,0.118c-0.386,0.038-0.771,0.082-1.156,0.131c-0.222,0.027-0.44,0.07-0.66,0.102
	c-0.097,0.015-0.206,0.05-0.291,0.021c-0.128-0.044-0.237-0.014-0.356,0.01c-0.08,0.017-0.165,0.003-0.248,0.003
	c0-0.014,0-0.029,0-0.042c0.135-0.081,0.29-0.069,0.437-0.089c0.013-0.033,0.027-0.07,0.034-0.09
	c-0.043-0.058-0.083-0.108-0.136-0.174c-0.073,0.065-0.157,0.145-0.248,0.215c-0.027,0.021-0.076,0.025-0.112,0.021
	c-0.049-0.005-0.116,0.117-0.13,0.183c-0.051,0.235,0.098,0.41,0.171,0.606c0.031,0.083,0.054,0.167,0.08,0.25
	c-0.014,0.009-0.026,0.018-0.04,0.027c-0.04-0.026-0.097-0.045-0.116-0.083c-0.056-0.108-0.097-0.224-0.155-0.363
	c-0.007,0.215,0.088,0.396,0.03,0.596c-0.047-0.016-0.084-0.029-0.117-0.041c0,0.178,0,0.357,0,0.534
	c0.042-0.004,0.073-0.008,0.12-0.012c-0.034,0.044-0.058,0.076-0.092,0.121c0.134,0.05,0.252,0.125,0.376,0.133
	c0.219,0.014,0.438-0.012,0.659-0.024c0.2-0.01,0.399-0.018,0.598-0.035c0.334-0.029,0.667-0.064,1.001-0.092
	c0.074-0.007,0.149,0.005,0.232,0.009c0.003-0.004,0.018-0.035,0.035-0.037c0.098-0.012,0.197-0.018,0.295-0.026
	c0.139-0.014,0.277-0.031,0.415-0.044c0.239-0.022,0.479-0.047,0.718-0.064c0.135-0.009,0.27,0,0.404-0.009
	c0.156-0.01,0.311-0.035,0.467-0.046c0.128-0.01,0.257-0.003,0.386-0.016c0.204-0.019,0.404-0.053,0.608-0.073
	c0.19-0.017,0.382-0.024,0.572-0.034c0.106-0.006,0.212-0.009,0.319-0.013c0.212-0.011,0.423-0.023,0.636-0.032
	c0.075-0.003,0.149,0.007,0.224,0.001c0.167-0.014,0.335-0.039,0.503-0.049c0.167-0.009,0.334,0.001,0.5-0.005
	c0.204-0.01,0.407-0.029,0.611-0.042c0.131-0.008,0.263-0.005,0.396-0.018c0.193-0.016,0.385-0.044,0.579-0.061
	c0.093-0.007,0.19,0.01,0.284-0.001c0.115-0.014,0.227-0.053,0.342-0.067c0.18-0.022,0.363-0.035,0.544-0.044
	c0.103-0.006,0.208-0.002,0.323-0.002c-0.06-0.131-0.104-0.253-0.059-0.351c-0.014-0.067-0.028-0.108-0.031-0.149
	c-0.009-0.125-0.007-0.252-0.087-0.359c-0.016-0.022-0.04-0.05-0.039-0.074c0.006-0.27,0.018-0.538,0.027-0.805
	c-0.027,0.003-0.081,0.021-0.13,0.012c-0.155-0.028-0.294,0.025-0.436,0.068c-0.017,0.004-0.033,0.021-0.04,0.038
	c-0.034,0.078-0.242,0.163-0.328,0.135c-0.05-0.014-0.103-0.026-0.153-0.024c-0.217,0.007-0.437,0.019-0.654,0.029
	c-0.177,0.008-0.355,0.019-0.532,0.023c-0.177,0.004-0.354,0.001-0.531,0.001c-0.127,0-0.253-0.009-0.379,0
	c-0.26,0.021-0.518,0.049-0.778,0.076c-0.15,0.016-0.301,0.037-0.455,0.055c0.115,0.348,0.076,0.703,0.046,1.056
	c-0.004,0.045-0.012,0.099-0.04,0.13c-0.062,0.07-0.094,0.139-0.072,0.234c0.013,0.059-0.015,0.083-0.081,0.053
	c-0.053-0.025-0.114-0.031-0.185-0.046c0.057-0.011,0.108-0.023,0.146-0.031C27.981,50.64,27.891,50.17,27.723,49.714z
	 M26.25,13.737c-0.023,0.032-0.039,0.08-0.067,0.087c-0.189,0.049-0.379,0.097-0.573,0.132c-0.182,0.032-0.367,0.044-0.552,0.071
	c-0.021,0.003-0.055,0.035-0.055,0.055c-0.015,0.246-0.033,0.493-0.033,0.74c0,0.535,0.012,1.071,0.014,1.606
	c0,0.234-0.017,0.467-0.019,0.701c-0.003,0.702-0.003,1.404-0.004,2.106c0,0.03,0.004,0.061,0.007,0.103
	c0.13-0.027,0.247-0.06,0.365-0.074c0.383-0.047,0.763-0.101,1.149-0.108c0.279-0.006,0.539,0.073,0.808,0.102
	c0.013,0.001,0.024,0.01,0.035,0.017c0.042,0.026,0.079,0.072,0.123,0.077c0.175,0.021,0.352,0.032,0.54,0.046
	c0-0.051,0-0.09,0-0.127c0.006-0.858,0.015-1.716,0.018-2.574c0.002-0.596-0.001-1.19-0.006-1.786
	c-0.001-0.083-0.032-0.165-0.033-0.247c-0.005-0.224-0.001-0.448-0.001-0.667c-0.104-0.04-0.246,0.074-0.292-0.1
	c-0.002-0.005-0.019-0.006-0.03-0.009c-0.064-0.016-0.127-0.042-0.193-0.049C27.051,13.801,26.648,13.77,26.25,13.737z
	 M27.799,34.252c0.009-0.004,0.017-0.011,0.024-0.016c-0.01-0.045-0.044-0.112-0.027-0.132c0.106-0.117,0.064-0.257,0.066-0.387
	c0.015-1.159,0.023-2.318,0.033-3.477c0.003-0.394,0.008-0.788,0.008-1.181c0-0.042-0.023-0.111-0.053-0.122
	c-0.215-0.082-0.425-0.198-0.67-0.145c-0.016,0.004-0.037,0.004-0.049-0.005c-0.154-0.111-0.334-0.081-0.499-0.064
	c-0.185,0.019-0.374,0.024-0.551,0.109c-0.111,0.053-0.24,0.075-0.364,0.095c-0.234,0.039-0.454,0.114-0.663,0.224
	c-0.03,0.016-0.068,0.051-0.073,0.082c-0.016,0.113-0.028,0.23-0.028,0.344c0,0.26,0.01,0.52,0.014,0.779
	c0.001,0.138-0.004,0.276,0,0.415c0.007,0.164,0.025,0.329,0.031,0.494c0.013,0.327,0.023,0.653,0.029,0.98
	c0.009,0.426,0.013,0.852,0.02,1.277c0.002,0.142,0,0.284,0.006,0.425c0.002,0.057-0.005,0.132,0.087,0.142
	c0.112,0.01,0.224,0.037,0.335,0.032c0.204-0.008,0.406-0.04,0.608-0.053c0.162-0.011,0.325,0.004,0.484-0.017
	c0.231-0.029,0.458-0.099,0.685,0.022c0.049,0.025,0.116,0.02,0.123,0.098c0,0.004,0.03,0.006,0.048,0.01
	c-0.002-0.028-0.003-0.049-0.004-0.062c0.059,0.01,0.118,0.036,0.166,0.023C27.691,34.115,27.767,34.127,27.799,34.252z
	 M22.563,46.982c0.12,0.106,0.045,0.26,0.061,0.394c0.017,0.147,0.025,0.296,0.038,0.448c0.245-0.015,0.494-0.029,0.745-0.046
	c0.182-0.012,0.362-0.024,0.544-0.041c0.143-0.011,0.286-0.025,0.428-0.042c0.114-0.014,0.251-0.079,0.336-0.036
	c0.112,0.057,0.224-0.084,0.312,0.034c0.005,0.007,0.033,0.001,0.05,0c0.204-0.013,0.407-0.03,0.611-0.037
	c0.137-0.005,0.276,0.01,0.413,0.002c0.048-0.002,0.104-0.038,0.141-0.076c0.083-0.084,0.25-0.109,0.341-0.041
	c0.009,0.007,0.037,0.003,0.045-0.005c0.055-0.061,0.21-0.061,0.27,0.008c0.011-0.025,0.027-0.046,0.03-0.07
	c0.013-0.159,0.043-0.321,0.03-0.479c-0.023-0.258,0.008-0.516-0.02-0.773c-0.015-0.141,0.009-0.286,0.014-0.429
	c0.009-0.24,0.02-0.481,0.024-0.722c0.003-0.148,0-0.296-0.005-0.444c-0.002-0.062-0.03-0.1-0.108-0.084
	c-0.053,0.008-0.111-0.011-0.166-0.017c-0.069-0.008-0.14-0.028-0.208-0.021c-0.294,0.027-0.588,0.066-0.884,0.093
	c-0.201,0.018-0.404,0.019-0.605,0.038c-0.289,0.025-0.579,0.057-0.867,0.089c-0.209,0.022-0.418,0.042-0.625,0.077
	c-0.27,0.044-0.536,0.1-0.804,0.156c-0.024,0.005-0.054,0.048-0.057,0.078c-0.022,0.162-0.084,0.32-0.056,0.489
	c0.001,0.009-0.033,0.025-0.05,0.038c0.011,0.003,0.023,0.007,0.034,0.01c-0.009,0.049-0.029,0.098-0.027,0.147
	c0.007,0.268,0.021,0.537,0.033,0.805c0.004,0.109,0.017,0.217,0.018,0.324C22.598,46.895,22.575,46.938,22.563,46.982z
	 M26.227,39.213c0.017,0.007,0.046,0.029,0.074,0.028c0.134-0.006,0.269-0.018,0.401-0.033c0.02-0.003,0.047-0.033,0.049-0.054
	c0.012-0.079,0.019-0.16,0.019-0.239c0-0.092-0.01-0.183-0.016-0.274c-0.007-0.123-0.001-0.248-0.022-0.367
	c-0.035-0.192-0.015-0.386-0.05-0.58c-0.031-0.174-0.005-0.36-0.002-0.541c0.001-0.065,0.007-0.132,0.011-0.198
	c0.014-0.017-0.016-0.031-0.015-0.043c0.003-0.174,0.012-0.348,0.019-0.522c0.01-0.27,0.021-0.542,0.026-0.811
	c0.005-0.209,0.003-0.416-0.002-0.625c-0.001-0.061,0.012-0.111,0.077-0.104c0.019,0.001,0.035,0.068,0.049,0.106
	c0.003,0.008-0.005,0.02-0.006,0.03c-0.014,0.263-0.043,0.524-0.039,0.786c0.003,0.234-0.022,0.469-0.015,0.705
	c0.007,0.179-0.009,0.362-0.024,0.542c-0.018,0.2,0.017,0.405,0.028,0.607c0.012,0.2,0.023,0.398,0.036,0.597
	c0.009,0.144,0.025,0.287,0.029,0.431c0.005,0.182,0.001,0.363,0.001,0.55c0.019,0.006,0.052,0.026,0.083,0.025
	c0.175-0.006,0.348-0.017,0.52-0.027c0.028-0.002,0.063-0.003,0.081-0.02c0.131-0.123,0.281-0.119,0.439-0.069
	c0.002-0.012,0.004-0.019,0.004-0.026c0-0.667-0.001-1.333,0.002-1.999c0.002-0.564,0.012-1.129,0.015-1.694
	c0-0.078-0.021-0.156-0.032-0.233c-0.023,0.169-0.023,0.336-0.023,0.503c0,0.308,0.003,0.616-0.002,0.924
	c-0.01,0.51-0.03,1.02-0.038,1.53c-0.004,0.251,0.013,0.501,0.016,0.751c0,0.032-0.02,0.067-0.039,0.094
	c-0.006,0.009-0.055,0.005-0.057-0.001c-0.009-0.029-0.011-0.062-0.011-0.094c0-0.035,0.006-0.07,0.004-0.104
	c-0.008-0.136-0.006-0.271-0.017-0.409c-0.016-0.217,0.008-0.438,0.018-0.658c0.001-0.023,0.017-0.046,0.026-0.068
	c-0.009-0.046-0.026-0.099-0.026-0.15c-0.001-0.09,0.012-0.18,0.014-0.271c0.004-0.377,0.004-0.754,0.005-1.133
	c0-0.326-0.001-0.651,0-0.976c0-0.106,0.039-0.129,0.137-0.081c0.006-0.037,0.012-0.072,0.018-0.104
	c-0.222-0.013-0.437-0.026-0.649-0.039c0,0.166,0.002,0.325-0.001,0.483c-0.012,0.612-0.029,1.224-0.039,1.837
	c-0.004,0.193-0.007,0.388,0.006,0.582c0.016,0.255,0.053,0.51,0.067,0.766c0.003,0.068,0.053,0.184-0.063,0.193
	c-0.008-0.089-0.012-0.177-0.024-0.266c-0.009-0.06-0.038-0.119-0.044-0.178c-0.017-0.155-0.011-0.313-0.04-0.464
	c-0.03-0.16,0.068-0.324-0.027-0.479c-0.006-0.011,0.003-0.033,0.007-0.05c0.049-0.258-0.016-0.521,0.049-0.78
	c0.032-0.133,0.005-0.28,0.006-0.42c0-0.008,0.01-0.014,0.016-0.024c0.016,0.016,0.026,0.029,0.033,0.035
	c-0.107-0.404-0.039-0.828-0.106-1.247c-0.248-0.034-0.502-0.069-0.756-0.102c-0.02-0.002-0.042,0.004-0.062,0.007
	c-0.201,0.023-0.402,0.045-0.604,0.071c-0.082,0.011-0.163,0.031-0.245,0.047c-0.202,0.039-0.368,0.201-0.594,0.16
	c0,0.137,0,0.265,0,0.394c0.025-0.058,0.049-0.113,0.073-0.168c0.015,0.001,0.027,0.002,0.04,0.003
	c0.021,0.038,0.056,0.073,0.061,0.112c0.024,0.162,0.052,0.326,0.055,0.489c0.004,0.222-0.009,0.443,0.127,0.637
	c0.002,0.004-0.006,0.018-0.01,0.027c-0.027-0.017-0.054-0.033-0.093-0.057c0,0.221-0.003,0.425,0,0.63
	c0.003,0.232,0.01,0.464,0.021,0.696c0.006,0.125,0.027,0.249,0.039,0.374c0.009,0.102,0.015,0.204,0.021,0.306
	c0.012,0.191,0.021,0.379,0.032,0.564c0.006-0.001,0.036-0.022,0.061-0.018c0.219,0.034,0.451,0.002,0.657,0.118
	c0.077,0.042,0.136-0.014,0.135-0.109c0-0.265,0.002-0.529,0.002-0.792c0-0.162,0.006-0.324-0.003-0.485
	c-0.009-0.172-0.034-0.343-0.048-0.515c-0.005-0.068-0.005-0.137,0-0.204c0.002-0.033,0.031-0.065,0.031-0.096
	c-0.001-0.041-0.026-0.08-0.029-0.121c-0.018-0.268-0.033-0.536-0.045-0.803c-0.005-0.103-0.001-0.206,0.003-0.308
	c0.004-0.088,0.016-0.176,0.024-0.264c0.012-0.123,0.025-0.245,0.031-0.366c0.003-0.067,0.053-0.063,0.093-0.065
	c0.007-0.001,0.025,0.054,0.023,0.082c-0.006,0.048-0.032,0.094-0.035,0.143c-0.014,0.232-0.03,0.465-0.032,0.698
	c-0.002,0.234,0.012,0.469,0.018,0.704c0.004,0.145,0.001,0.29,0.009,0.435c0.015,0.301,0.042,0.602,0.052,0.903
	c0.007,0.202-0.009,0.407-0.011,0.61C26.225,38.805,26.227,39.006,26.227,39.213z M27.049,47.494
	c0.014,0.008,0.027,0.017,0.04,0.026c0.051-0.011,0.101-0.024,0.151-0.032c0.026-0.004,0.072-0.008,0.078,0.004
	c0.055,0.112,0.158,0.079,0.243,0.078c0.089-0.001,0.129,0.028,0.146,0.113c0.008,0.033,0.043,0.078,0.073,0.085
	c0.167,0.038,0.334,0.073,0.503,0.099c0.22,0.033,0.443,0.06,0.666,0.082c0.266,0.026,0.533,0.044,0.8,0.065
	c0.114,0.009,0.229,0.016,0.345,0.023c0.047,0.002,0.086,0.005,0.06-0.067c-0.018-0.053-0.03-0.123-0.01-0.171
	c0.06-0.144-0.001-0.289,0.019-0.432c0.015-0.118,0.026-0.237,0.032-0.356c0.011-0.274,0.015-0.549,0.024-0.824
	c0.006-0.181,0.025-0.362,0.024-0.542c0-0.132-0.027-0.263-0.036-0.394c-0.001-0.027,0.022-0.079,0.036-0.079
	c0.085,0,0.072-0.075,0.079-0.114c0.015-0.112,0.016-0.225,0.021-0.323c-0.064,0.021-0.129,0.04-0.209,0.065
	c0.018-0.128-0.046-0.144-0.123-0.146c-0.183-0.003-0.363-0.005-0.544-0.014c-0.183-0.007-0.366-0.019-0.549-0.033
	c-0.209-0.016-0.419-0.041-0.629-0.054c-0.187-0.011-0.375-0.021-0.563-0.018c-0.174,0.003-0.347,0.025-0.514,0.038
	c-0.018,0.179-0.036,0.346-0.052,0.512c-0.015,0.162-0.033,0.324-0.04,0.485c-0.004,0.097,0.015,0.195,0.013,0.292
	c-0.007,0.356-0.024,0.711,0.044,1.063c0.01,0.046,0.002,0.098-0.009,0.146C27.131,47.215,27.088,47.354,27.049,47.494z
	 M30.46,42.32c-0.041-0.017-0.078-0.043-0.117-0.047c-0.143-0.014-0.269-0.082-0.403-0.118c-0.274-0.075-0.54-0.175-0.81-0.264
	c-0.036-0.012-0.075-0.02-0.113-0.019c-0.337,0.01-0.674,0.027-1.01,0.033c-0.5,0.008-0.996,0.052-1.487,0.147
	c-0.103,0.021-0.208,0.051-0.312,0.051c-0.27,0.004-0.542-0.006-0.812-0.014c-0.204-0.007-0.406-0.022-0.609-0.027
	c-0.181-0.005-0.362-0.002-0.542-0.001c-0.062,0-0.125,0.001-0.187,0.005c-0.046,0.003-0.091,0.013-0.149,0.023
	c0.019-0.076,0.03-0.125,0.041-0.169c0.085,0.005,0.164,0.009,0.244,0.014c0.001-0.014,0.003-0.028,0.006-0.042
	c-0.053-0.01-0.107-0.025-0.162-0.031c-0.139-0.014-0.281-0.017-0.353-0.17c-0.002-0.005-0.016-0.005-0.031-0.009
	c0.007,0.032,0.015,0.059,0.024,0.098c-0.15-0.005-0.246,0.066-0.361,0.144c-0.157,0.106-0.051,0.242-0.124,0.346
	c0.449-0.024,0.88,0.007,1.311,0.067c-0.195,0.017-0.392,0.016-0.587,0.017c-0.2,0.001-0.402-0.012-0.602,0.011
	c-0.185,0.021-0.366,0.08-0.549,0.122c0.003,0.016,0.005,0.033,0.008,0.049c0.225-0.017,0.448-0.034,0.673-0.049
	c0.215-0.015,0.432-0.025,0.648-0.036c0.204-0.011,0.408-0.032,0.612-0.027c0.326,0.008,0.653,0.035,0.978,0.046
	c0.179,0.006,0.358-0.014,0.536-0.004c0.347,0.019,0.692,0.034,1.038,0c0.189-0.019,0.377-0.043,0.567-0.062
	c0.136-0.013,0.274-0.022,0.41-0.033c0.007,0.011,0.013,0.023,0.019,0.035c-0.031,0.033-0.057,0.077-0.095,0.099
	c-0.051,0.029-0.11,0.04-0.165,0.058c-0.071,0.027-0.141,0.053-0.211,0.08c-0.003-0.009-0.006-0.019-0.009-0.028
	c0.017-0.02,0.035-0.041,0.051-0.061c-0.015-0.01-0.032-0.03-0.048-0.028c-0.22,0.009-0.438,0.018-0.659,0.028
	c-0.16,0.008-0.32,0.026-0.479,0.024c-0.23-0.002-0.459-0.02-0.688-0.027c-0.23-0.008-0.461-0.011-0.691-0.019
	c-0.19-0.006-0.384-0.025-0.575-0.02c-0.134,0.002-0.267,0.042-0.4,0.054c-0.178,0.014-0.356,0.012-0.533,0.026
	c-0.201,0.015-0.403,0.037-0.604,0.058c-0.12,0.015-0.238,0.042-0.358,0.048c-0.259,0.014-0.302-0.051-0.225,0.283
	c0.026,0.113,0.017,0.234,0.023,0.352c0.006,0.16-0.065,0.332,0.079,0.471c0.066-0.01,0.138-0.024,0.211-0.029
	c0.069-0.005,0.14,0.011,0.209,0.002c0.133-0.016,0.265-0.049,0.397-0.061c0.231-0.023,0.463-0.037,0.694-0.052
	c0.188-0.012,0.375-0.018,0.562-0.032c0.235-0.018,0.469-0.042,0.704-0.059c0.327-0.023,0.651-0.042,0.977-0.061
	c0.105-0.005,0.212,0,0.337,0c0.008-0.004,0.039-0.025,0.071-0.029c0.143-0.015,0.286-0.024,0.43-0.039
	c0.275-0.024,0.549-0.049,0.824-0.077c0.025-0.002,0.063-0.018,0.073-0.038c0.024-0.057,0.03-0.121,0.057-0.176
	c0.015-0.031,0.057-0.048,0.084-0.069c-0.005-0.023-0.03-0.067-0.021-0.103c0.008-0.035,0.051-0.061,0.082-0.096
	c-0.075,0.008-0.144,0.017-0.212,0.023c-0.14,0.015-0.28,0.027-0.417,0.046c-0.095,0.012-0.187,0.047-0.28,0.05
	c-0.183,0.01-0.366,0.003-0.548,0.002c-0.058,0-0.116-0.007-0.172-0.004c-0.207,0.012-0.412,0.029-0.618,0.037
	c-0.233,0.011-0.466,0.007-0.7,0.022c-0.409,0.025-0.816,0.06-1.225,0.091c-0.231,0.018-0.465,0.026-0.695,0.056
	c-0.125,0.016-0.246,0.07-0.369,0.1c-0.114,0.026-0.224,0.097-0.349,0.04c0-0.04,0-0.077,0-0.118
	c0.072-0.018,0.139-0.038,0.206-0.051c0.232-0.048,0.465-0.095,0.699-0.14c0.062-0.011,0.125-0.01,0.188-0.016
	c0.16-0.014,0.32-0.031,0.48-0.042c0.039-0.002,0.079,0.018,0.119,0.028c0.019,0.007,0.043-0.022,0.069-0.023
	c0.139-0.002,0.276,0.001,0.414,0.004c0.13,0.001,0.259,0.009,0.389,0.003c0.202-0.009,0.404-0.034,0.607-0.043
	c0.307-0.014,0.614-0.018,0.921-0.031c0.2-0.01,0.401-0.031,0.602-0.049c0.072-0.006,0.143-0.018,0.216-0.028
	c0.194-0.026,0.389-0.06,0.585-0.075c0.068-0.004,0.108-0.01,0.1-0.083c-0.013-0.128-0.026-0.257-0.051-0.382
	c-0.018-0.089-0.021-0.167,0.06-0.225c0.094-0.067,0.184-0.043,0.269,0.06c0.027,0.031,0.068,0.061,0.108,0.069
	c0.217,0.047,0.438,0.083,0.655,0.133c0.081,0.02,0.159,0.042,0.242,0.054c0.101,0.015,0.2,0.058,0.297,0.096
	c0.068,0.028,0.131,0.069,0.195,0.104c0.059-0.039,0.109,0.004,0.163,0.037c-0.068,0.102-0.138,0.047-0.215,0.026
	c-0.252-0.068-0.506-0.133-0.761-0.19c-0.176-0.04-0.354-0.062-0.531-0.092c0.023,0.107,0.037,0.198,0.062,0.285
	c0.008,0.026,0.045,0.056,0.072,0.059c0.225,0.026,0.451,0.043,0.676,0.07c0.109,0.013,0.217,0.042,0.326,0.068
	c0.012,0.003,0.019,0.03,0.042,0.069c-0.188-0.017-0.352-0.032-0.517-0.046c-0.15-0.011-0.301-0.036-0.45-0.029
	c-0.075,0.004-0.186-0.023-0.225,0.097c-0.03,0.091-0.072,0.178-0.105,0.27c-0.012,0.033-0.016,0.07-0.022,0.101
	c0.067,0.02,0.12,0.045,0.173,0.049c0.344,0.022,0.687,0.037,1.031,0.06c0.038,0.003,0.075,0.035,0.12,0.058
	c0.026,0.006,0.069,0.014,0.113,0.022c-0.001,0.017-0.001,0.034-0.002,0.052c-0.035,0.004-0.069,0.014-0.103,0.012
	c-0.041-0.002-0.082-0.021-0.124-0.023c-0.276-0.017-0.552-0.038-0.829-0.042c-0.157-0.001-0.316,0.02-0.47,0.051
	c-0.111,0.022-0.122,0.03-0.15-0.087c-0.024,0-0.048,0-0.073,0c-0.098,0.001-0.226,0.158-0.203,0.25
	c0.003,0.017,0.032,0.039,0.052,0.042c0.137,0.027,0.275,0.05,0.413,0.069c0.024,0.003,0.05-0.007,0.065-0.009
	c-0.021-0.048-0.039-0.088-0.057-0.129c0.047-0.021,0.092-0.043,0.14-0.06c0.019-0.005,0.042,0.001,0.062,0.003
	c0.085,0.012,0.17,0.024,0.254,0.036c0.293,0.042,0.586,0.081,0.878,0.128c0.075,0.013,0.145,0.055,0.232,0.09
	c-0.041,0.039-0.056,0.053-0.074,0.07c0.091,0.016,0.174,0.031,0.262,0.047c0.018-0.013,0.049-0.03,0.076-0.052
	c0.047-0.038,0.04-0.169-0.015-0.179c-0.176-0.034-0.158-0.164-0.158-0.289c0-0.033-0.006-0.066-0.009-0.108
	c0.197-0.251,0.177-0.573,0.253-0.895c-0.059,0.042-0.091,0.066-0.123,0.089C30.293,42.488,30.293,42.488,30.46,42.32z
	 M29.657,7.271c-0.06,0.074-0.172,0.084-0.229,0.028c-0.087-0.083-0.164-0.175-0.246-0.262c-0.019-0.02-0.036-0.042-0.059-0.054
	c-0.155-0.071-0.311-0.141-0.466-0.21c-0.061-0.027-0.138-0.089-0.179-0.071c-0.069,0.031-0.092-0.011-0.138-0.027
	c-0.147-0.056-0.298-0.105-0.456-0.16c0.017,0.062,0.027,0.102,0.037,0.141c0.027,0.108,0.05,0.216,0.082,0.323
	c0.048,0.159,0.003,0.3-0.142,0.365c-0.017-0.206,0.03-0.416-0.065-0.6c-0.041,0.032-0.074,0.075-0.116,0.087
	c-0.102,0.032-0.12,0.12-0.125,0.197c-0.008,0.088-0.047,0.135-0.116,0.174c-0.02,0.011-0.037,0.027-0.058,0.043
	c0.152,0.059,0.231,0.189,0.187,0.337c-0.051,0.17-0.092,0.347-0.241,0.472c-0.048,0.042-0.088,0.11-0.102,0.173
	c-0.022,0.102-0.037,0.209,0.041,0.306c0.018,0.022-0.003,0.075-0.005,0.114c-0.014,0.002-0.026,0.005-0.04,0.007
	c-0.047-0.065-0.09-0.134-0.144-0.194c-0.063-0.07-0.087-0.15-0.05-0.231c0.042-0.091,0.095-0.183,0.163-0.255
	c0.116-0.122,0.207-0.256,0.24-0.421c0.007-0.035-0.036-0.112-0.065-0.118c-0.087-0.019-0.181-0.022-0.27-0.009
	c-0.196,0.029-0.31,0.191-0.45,0.306c-0.04,0.032-0.064,0.088-0.118,0.04c-0.044-0.042-0.079-0.106-0.012-0.155
	c0.087-0.064,0.106-0.144,0.089-0.242c-0.003-0.016,0.008-0.033,0.009-0.05c0.01-0.098,0.02-0.196,0.026-0.293
	c0.005-0.083-0.027-0.107-0.117-0.095c-0.193,0.029-0.22,0.062-0.22,0.26c0.001,0.11-0.01,0.225-0.099,0.314
	c-0.015,0.016-0.012,0.06-0.002,0.085c0.025,0.062,0.073,0.119,0.088,0.184c0.031,0.137,0.039,0.28,0.071,0.415
	c0.025,0.104-0.022,0.148-0.124,0.208c-0.016-0.086-0.034-0.151-0.039-0.217c-0.009-0.118-0.049-0.232-0.141-0.295
	c-0.092-0.061-0.21-0.088-0.32-0.114c-0.154-0.037-0.312-0.071-0.467-0.077c-0.066-0.003-0.134,0.07-0.201,0.108
	c0.044,0.045,0.084,0.124,0.134,0.13c0.128,0.016,0.09,0.091,0.098,0.172c-0.04-0.012-0.06-0.019-0.102-0.032
	c0.055,0.098,0.038,0.185-0.048,0.202c-0.11,0.022-0.066-0.115-0.129-0.147c-0.037-0.003-0.065-0.018-0.092-0.035
	c-0.057-0.038-0.108-0.087-0.17-0.113c-0.066-0.028-0.154-0.015-0.209-0.053c-0.103-0.074-0.191-0.036-0.285,0.001
	C24.25,8.09,24.28,8.141,24.425,8.19c0.037,0.013,0.077,0.015,0.111,0.032c0.026,0.013,0.056,0.039,0.066,0.065
	c0.036,0.107-0.036,0.158-0.091,0.189c-0.076-0.048-0.134-0.097-0.201-0.123c-0.073-0.027-0.178-0.14-0.194-0.246
	c-0.005-0.041-0.029-0.088-0.06-0.111c-0.034-0.027-0.084-0.034-0.127-0.044c-0.056-0.012-0.111-0.018-0.166-0.027
	c-0.007,0.056-0.013,0.11-0.024,0.165c-0.006,0.023-0.023,0.049-0.042,0.062c-0.008,0.005-0.042-0.019-0.056-0.035
	c-0.046-0.051-0.089-0.106-0.147-0.176c-0.076,0.08-0.146,0.153-0.216,0.227c0.261,0.134,0.502,0.249,0.734,0.38
	c0.142,0.081,0.257,0.2,0.312,0.359c0.075,0.221,0.136,0.446,0.206,0.668c0.012,0.04,0.033,0.077,0.053,0.121
	c0.03-0.055,0.045-0.123,0.083-0.14c0.043-0.02,0.11-0.003,0.159,0.016c0.043,0.017,0.073,0.083,0.112,0.086
	c0.042,0.002,0.085-0.05,0.132-0.066c0.068-0.024,0.139-0.038,0.209-0.057c-0.095-0.035-0.19-0.071-0.284-0.069
	c-0.097,0.001-0.157-0.05-0.159-0.119c-0.003-0.083-0.08-0.19,0.037-0.254c0.065-0.036,0.139-0.06,0.206-0.09
	c0.082-0.039,0.16-0.1,0.245-0.113c0.125-0.019,0.256-0.003,0.401-0.002c0.108-0.163-0.025-0.342-0.208-0.448
	c-0.03,0.049-0.06,0.099-0.09,0.147c-0.011-0.004-0.021-0.008-0.033-0.014c0.026-0.11,0.047-0.215-0.072-0.292
	c-0.021-0.015-0.005-0.091,0.004-0.136c0.003-0.013,0.054-0.032,0.066-0.024c0.097,0.07,0.207,0.131,0.28,0.222
	c0.105,0.128,0.194,0.273,0.157,0.458C25.821,8.839,25.85,8.88,25.863,8.92c-0.017,0.019-0.042,0.048-0.062,0.072
	c0.083,0.07,0.155,0.132,0.233,0.198c-0.028,0.072-0.056,0.141-0.079,0.201c0.114,0,0.227,0,0.329,0
	c-0.039-0.3-0.098-0.586,0.027-0.888c0.049,0.042,0.077,0.066,0.101,0.086c-0.104,0.275-0.015,0.533,0.011,0.771
	c0.126,0.027,0.233,0.053,0.354,0.079c0.021-0.057,0.039-0.12,0.066-0.179c0.044-0.09,0.096-0.177,0.139-0.268
	c0.032-0.067-0.004-0.164-0.062-0.186c-0.047-0.017-0.187,0.048-0.182,0.095c0.013,0.116-0.085,0.111-0.142,0.144
	c-0.044,0.024-0.118,0.05-0.139-0.028c-0.01-0.039,0.012-0.106,0.043-0.132c0.094-0.083,0.196-0.159,0.303-0.225
	c0.042-0.026,0.115-0.04,0.158-0.022c0.1,0.04,0.189,0.257,0.151,0.36c-0.057,0.149-0.127,0.294-0.189,0.437
	c0.248,0.04,0.506,0.081,0.757,0.122c0.051-0.206,0.063-0.397-0.015-0.587c-0.017-0.039-0.023-0.095-0.007-0.133
	c0.094-0.228,0.255-0.406,0.446-0.559c0.056-0.043,0.119-0.088,0.153-0.148c0.061-0.105,0.106-0.22,0.146-0.335
	c0.023-0.066,0.04-0.143,0.028-0.21c-0.012-0.087-0.072-0.14-0.173-0.13C28.167,7.46,28.025,7.543,28.003,7.6
	c-0.008,0.021-0.044,0.043-0.067,0.043c-0.043-0.003-0.086-0.02-0.128-0.031c-0.046-0.086-0.012-0.147,0.064-0.189
	c0.049-0.027,0.105-0.043,0.153-0.071c0.041-0.023,0.073-0.058,0.121-0.098c0.019,0.004,0.066,0.027,0.109,0.023
	c0.17-0.016,0.331,0.127,0.325,0.3c-0.006,0.198-0.069,0.381-0.168,0.549c-0.062,0.104-0.143,0.198-0.223,0.289
	c-0.05,0.056-0.126,0.089-0.173,0.146c-0.124,0.153-0.267,0.303-0.182,0.532c0.044-0.027,0.086-0.071,0.133-0.076
	c0.142-0.018,0.177-0.134,0.236-0.23c0.02-0.034,0.024-0.075,0.046-0.106c0.156-0.218,0.318-0.432,0.47-0.653
	c0.057-0.084,0.116-0.178,0.082-0.271c-0.054-0.025-0.104-0.031-0.12-0.058c-0.016-0.03-0.016-0.1,0.004-0.114
	c0.038-0.026,0.1-0.042,0.143-0.029c0.045,0.013,0.079,0.064,0.119,0.098c0.018,0.016,0.039,0.028,0.056,0.039
	c-0.01,0.018-0.019,0.035-0.029,0.053c0.049-0.004,0.078-0.029,0.111-0.047c0.015-0.008,0.038,0.001,0.059,0.003
	c-0.054,0.107,0.048,0.061,0.08,0.079c0.077,0.042,0.154,0.076,0.163,0.181c0.008,0.101,0.025,0.201,0.038,0.301
	c0.097-0.02,0.125-0.089,0.15-0.239c0.032-0.187,0.08-0.371,0.139-0.551c0.033-0.103,0.102-0.195,0.148-0.28
	c-0.183-0.057-0.371-0.117-0.569-0.178C29.402,7.119,29.462,7.272,29.657,7.271z M27.698,49.149c0.549,0.021,1.08,0.043,1.611,0.061
	c0.53,0.018,1.06,0.076,1.611,0.057c-0.139-0.225-0.265-0.423-0.385-0.626c-0.06-0.101-0.109-0.207-0.222-0.232
	c-0.03,0.087-0.053,0.169-0.088,0.245c-0.01,0.02-0.054,0.023-0.083,0.034c0.011-0.027,0.022-0.055,0.032-0.083
	c0.002-0.006,0.001-0.013,0.002-0.023c-0.018,0.002-0.036,0.003-0.057,0.006c0.053-0.095,0.009-0.245-0.073-0.269
	c-0.011,0.03-0.037,0.063-0.031,0.088c0.056,0.209,0.029,0.417-0.003,0.624c-0.006,0.038-0.065,0.067-0.101,0.101
	c-0.018-0.025-0.056-0.068-0.052-0.073c0.057-0.062,0-0.124,0.001-0.184c0.007-0.206,0.002-0.411,0.002-0.611
	c-0.136-0.021-0.255-0.041-0.406-0.063c0.01,0.242,0.021,0.466,0.024,0.692c0.001,0.078-0.022,0.152-0.143,0.165
	c-0.025-0.29-0.113-0.572-0.011-0.868c-0.143-0.011-0.284-0.021-0.431-0.033c-0.001,0.335,0.006,0.661-0.137,0.979
	c-0.122-0.125-0.128-0.278-0.097-0.394c0.03-0.111-0.008-0.201-0.012-0.3c-0.004-0.104-0.042-0.205-0.068-0.323
	c-0.021,0.001-0.063,0.003-0.086,0.003c0,0.278,0,0.54,0,0.801c0,0.088-0.009,0.098-0.075,0.082
	c-0.015-0.054-0.027-0.094-0.036-0.133c-0.013-0.052-0.057-0.115,0.039-0.135c-0.077-0.071-0.082-0.176-0.03-0.644
	c-0.184-0.021-0.367-0.043-0.543-0.064C27.923,48.418,27.977,48.796,27.698,49.149z M28.092,43.479
	c-0.316,0.016-0.618,0.025-0.918,0.049c-0.244,0.019-0.485,0.059-0.728,0.085c-0.11,0.012-0.222,0.005-0.333,0.013
	c-0.212,0.014-0.425,0.035-0.637,0.048c-0.2,0.014-0.4,0.015-0.6,0.03c-0.277,0.022-0.553,0.052-0.831,0.082
	c-0.216,0.021-0.433,0.043-0.649,0.073c-0.165,0.023-0.327,0.066-0.492,0.084c-0.163,0.019-0.215,0.03-0.159,0.222
	c0.089-0.01,0.178-0.025,0.268-0.031c0.087-0.006,0.174-0.004,0.262-0.009c0.108-0.005,0.216-0.016,0.325-0.019
	c0.033,0,0.068,0.031,0.099,0.028c0.16-0.018,0.318-0.047,0.478-0.062c0.123-0.011,0.247-0.005,0.37-0.008
	c0.129-0.003,0.257-0.011,0.386-0.013c0.139-0.002,0.277,0.002,0.415-0.002c0.192-0.005,0.382-0.016,0.572-0.022
	c0.046-0.002,0.099,0.022,0.135,0.006c0.186-0.086,0.381-0.036,0.572-0.047c0.154-0.008,0.308-0.02,0.461-0.034
	c0.077-0.005,0.153-0.016,0.266-0.028c-0.077,0.094-0.068,0.112,0.017,0.121c0.186,0.019,0.37,0.053,0.554,0.088
	c0.085,0.017,0.167,0.054,0.25,0.081c-0.036-0.074-0.1-0.121-0.125-0.182c-0.062-0.156-0.055-0.159-0.226-0.163
	c-0.006,0-0.013-0.001-0.021-0.001c-0.314-0.013-0.629-0.028-0.946-0.037c-0.059-0.002-0.119-0.002-0.116-0.066
	c0.003-0.05,0.031-0.116,0.115-0.107c0.105,0.011,0.211,0.021,0.317,0.023c0.111,0.003,0.224-0.011,0.335-0.005
	c0.136,0.007,0.273,0.029,0.409,0.037c0.035,0.002,0.09,0.012,0.097-0.063C28.018,43.597,28.059,43.548,28.092,43.479z
	 M26.958,9.979c-0.006,0.034-0.014,0.055-0.014,0.075c0.001,0.273,0.005,0.547,0.005,0.82c0,0.179,0.001,0.356-0.007,0.534
	c-0.005,0.148-0.03,0.294-0.033,0.442c-0.005,0.252-0.001,0.505,0.004,0.758c0.002,0.041,0.029,0.108,0.06,0.116
	c0.193,0.054,0.39,0.094,0.577,0.138c0.006-0.074,0.011-0.124,0.011-0.175c0-0.244,0-0.489-0.003-0.734
	c-0.002-0.252-0.002-0.505-0.012-0.758c-0.008-0.206-0.03-0.412-0.041-0.618c-0.009-0.152-0.01-0.306-0.02-0.458
	c-0.001-0.026-0.029-0.068-0.05-0.072C27.278,10.019,27.119,10,26.958,9.979z M26.471,12.65c0.014-0.353,0.026-0.694,0.04-1.035
	c0.005-0.144,0.013-0.289,0.018-0.433c0.004-0.149,0.025-0.302,0.002-0.448c-0.037-0.235-0.057-0.466-0.038-0.702
	c0.003-0.044-0.018-0.093-0.092-0.081c-0.151,0.026-0.306,0.039-0.458,0.067c-0.032,0.007-0.082,0.05-0.081,0.076
	c0.002,0.118,0.021,0.237,0.03,0.356c0.016,0.212,0.043,0.424,0.044,0.637c0,0.272-0.032,0.546-0.028,0.819
	c0.003,0.255,0.033,0.51,0.052,0.773C26.14,12.67,26.303,12.66,26.471,12.65z M24.782,39.841c0.07-0.007,0.127-0.021,0.184-0.018
	c0.269,0.019,0.537,0.054,0.807,0.063c0.342,0.013,0.687,0.002,1.031,0.009c0.281,0.006,0.562,0.029,0.844,0.032
	c0.162,0.001,0.326-0.018,0.489-0.036c0.087-0.01,0.171-0.039,0.258-0.058c-0.137-0.104-0.159-0.142-0.095-0.221
	c0.089-0.109,0.006-0.192-0.041-0.272c-0.024-0.042-0.101-0.054-0.153-0.079c-0.02,0.009-0.027-0.003-0.031-0.016
	c-0.041-0.106-0.061-0.108-0.134-0.027c-0.023,0.025-0.058,0.046-0.091,0.054c-0.098,0.024-0.197,0.049-0.298,0.058
	c-0.244,0.024-0.489,0.046-0.734,0.055c-0.194,0.006-0.388-0.005-0.581-0.017c-0.118-0.009-0.234-0.055-0.351-0.054
	c-0.241,0.004-0.482,0.027-0.723,0.044c0.026,0.081,0.083,0.153,0.182,0.165c0.243,0.031,0.486,0.069,0.731,0.075
	c0.171,0.003,0.344-0.045,0.515-0.063c0.162-0.017,0.326-0.03,0.489-0.035c0.234-0.007,0.467-0.007,0.703-0.01
	c0.144-0.002,0.288-0.007,0.432-0.004c0.021,0,0.062,0.041,0.059,0.056c-0.007,0.032-0.03,0.077-0.058,0.085
	c-0.073,0.024-0.152,0.044-0.229,0.044c-0.144,0.001-0.288-0.013-0.432-0.016c-0.206-0.004-0.412-0.005-0.618-0.008
	c-0.079-0.001-0.162-0.016-0.238-0.004c-0.179,0.026-0.357,0.09-0.536,0.09c-0.296,0-0.593-0.037-0.889-0.064
	c-0.097-0.009-0.178-0.072-0.217-0.158c-0.039-0.088-0.073-0.066-0.104-0.01C24.889,39.614,24.836,39.731,24.782,39.841z
	 M25.571,10.123c-0.147,0.055-0.291,0.11-0.455,0.173c0.075,0.06,0.048,0.089,0.012,0.148c-0.044,0.073-0.038,0.183-0.036,0.277
	c0.012,0.584,0.026,1.168,0.046,1.753c0.005,0.157,0.03,0.312,0.046,0.479c0.154-0.078,0.301-0.152,0.468-0.236
	C25.626,11.876,25.599,11.008,25.571,10.123z M22.289,48.503c-0.006-0.046-0.005-0.068-0.011-0.085
	c-0.044-0.125-0.055-0.126-0.176-0.072c-0.059,0.026-0.126,0.038-0.209,0.059c-0.079,0.074-0.124,0.179-0.101,0.317
	c0.021,0.114,0.024,0.231,0.021,0.348c-0.001,0.046-0.029,0.111-0.065,0.129c-0.033,0.018-0.092-0.013-0.153-0.025
	c-0.068,0.074,0.091,0.241-0.084,0.305c0.163-0.013,0.325-0.025,0.494-0.04c-0.01,0.057-0.016,0.089-0.023,0.128
	c0.115-0.056,0.182-0.058,0.224-0.021c0.049-0.028,0.09-0.06,0.137-0.074c0.043-0.014,0.094-0.005,0.14-0.014
	c0.132-0.023,0.264-0.052,0.396-0.078c0.044-0.008,0.09-0.018,0.135-0.023c0.033-0.003,0.065,0,0.097,0
	c0.148-0.019,0.143-0.173,0.216-0.278c-0.027-0.016-0.053-0.033-0.083-0.05c0.009-0.021,0.017-0.04,0.025-0.06
	c0.052,0.023,0.054-0.027,0.04-0.04c-0.076-0.068-0.041-0.149-0.036-0.227c0.002-0.063-0.012-0.156,0.025-0.185
	c0.092-0.073,0.053-0.163,0.058-0.244c0.004-0.076-0.036-0.139-0.128-0.132c-0.162,0.014-0.322,0.026-0.483,0.047
	c-0.042,0.005-0.081,0.046-0.122,0.071c0.006,0.01,0.011,0.02,0.016,0.03c0.018,0.006,0.036,0.014,0.045,0.016
	c-0.028,0.197-0.008,0.384,0.063,0.568c0.014-0.172-0.013-0.354,0.146-0.489c0.015,0.098,0.029,0.196,0.012,0.291
	c-0.028,0.148-0.072,0.292-0.049,0.448c0.005,0.031-0.035,0.092-0.065,0.1c-0.033,0.009-0.095-0.016-0.116-0.045
	c-0.066-0.092-0.147-0.133-0.249-0.113c-0.099,0.104-0.076,0.264-0.19,0.341c-0.009-0.004-0.019-0.01-0.028-0.016
	c0.004-0.032,0.009-0.062,0.016-0.106c-0.097,0.043-0.176,0.046-0.222-0.054c-0.03-0.067,0.022-0.16,0.109-0.219
	c0.027-0.019,0.048-0.063,0.052-0.098c0.006-0.064-0.015-0.136,0.004-0.195c0.022-0.07,0.069-0.133,0.114-0.194
	c0.009-0.012,0.056,0.003,0.07,0.004c-0.007,0.14-0.013,0.269-0.02,0.398c0.011,0.002,0.021,0.003,0.031,0.005
	c0.008-0.016,0.021-0.032,0.024-0.05c0.035-0.161,0.055-0.326,0.104-0.483c0.021-0.067,0.012-0.083-0.053-0.107
	c-0.016,0.054-0.032,0.101-0.049,0.16c-0.013-0.028-0.021-0.042-0.023-0.049C22.342,48.429,22.322,48.457,22.289,48.503z
	 M27.963,34.2c-0.009-0.001-0.018-0.001-0.027-0.003c-0.013,0.094-0.027,0.188-0.04,0.283c-0.014,0.109-0.061,0.145-0.154,0.112
	c0.011-0.095,0.022-0.19,0.032-0.275c-0.062-0.012-0.111-0.022-0.186-0.039c0.015,0.077,0.027,0.14,0.04,0.203
	c-0.01,0.019-0.025,0.045-0.056,0.104c-0.041-0.083-0.076-0.131-0.09-0.187c-0.04-0.152-0.043-0.157-0.207-0.167
	c-0.048-0.003-0.104-0.011-0.141-0.038c-0.109-0.082-0.229-0.073-0.352-0.061c-0.173,0.017-0.348,0.035-0.521,0.058
	c-0.036,0.005-0.08,0.032-0.1,0.063c-0.072,0.108-0.022,0.208,0.146,0.25c-0.042,0.035-0.075,0.082-0.106,0.083
	c-0.119,0.001-0.199-0.113-0.177-0.232c0.01-0.053,0.014-0.107,0.02-0.163c-0.233,0.022-0.46,0.038-0.686,0.066
	c-0.084,0.011-0.058,0.085-0.04,0.136c0.014,0.033,0.047,0.059,0.063,0.077c0.054,0.005,0.095,0.007,0.147,0.012
	c-0.073,0.135-0.188,0.095-0.24,0.057c-0.09-0.067-0.18-0.165-0.097-0.309c-0.063,0.017-0.109,0.028-0.164,0.042
	c0.026,0.103,0.118,0.201-0.01,0.31c-0.033-0.064-0.064-0.125-0.097-0.191c0,0.087-0.002,0.168,0,0.249
	c0.002,0.07,0.04,0.086,0.106,0.072c0.066-0.015,0.135-0.018,0.203-0.026c0.003,0.017,0.007,0.035,0.01,0.051
	c-0.085,0.023-0.168,0.05-0.255,0.063c-0.065,0.01-0.077,0.033-0.057,0.081c0.069-0.012,0.13-0.022,0.192-0.033
	c0.077-0.014,0.158-0.017,0.228-0.043c0.194-0.076,0.395-0.11,0.6-0.128c0.2-0.018,0.4-0.044,0.6-0.042
	c0.157,0,0.312,0.048,0.47,0.06c0.319,0.028,0.641,0.046,0.992,0.07C27.994,34.576,27.979,34.39,27.963,34.2z M28.535,40.436
	c-0.036,0.006-0.063,0.016-0.091,0.016c-0.114,0.004-0.23,0.005-0.344,0.011c-0.039,0.001-0.077,0.016-0.114,0.015
	c-0.236-0.009-0.473-0.017-0.709-0.03c-0.349-0.021-0.698-0.048-1.046-0.072c-0.289-0.021-0.577-0.048-0.865-0.062
	c-0.218-0.01-0.439,0.01-0.657-0.01c-0.17-0.015-0.285,0.027-0.354,0.185c-0.02,0.044-0.053,0.082-0.074,0.125
	c-0.024,0.051-0.043,0.106-0.067,0.17c0.042-0.014,0.069-0.023,0.097-0.031c-0.042-0.101-0.007-0.149,0.089-0.144
	c0.104,0.004,0.209-0.002,0.313,0.002c0.24,0.011,0.481,0.026,0.721,0.043c0.137,0.011,0.274,0.035,0.411,0.042
	c0.203,0.007,0.407,0.003,0.61,0.007c0.174,0.003,0.347,0.017,0.521,0.015c0.299-0.001,0.598,0.005,0.893-0.041
	c0.011-0.002,0.022,0.002,0.033,0.002c0.218,0,0.437,0,0.665,0C28.554,40.593,28.545,40.516,28.535,40.436z M25.321,13.278
	c-0.118,0.021-0.175,0.093-0.201,0.206c-0.025,0.111-0.066,0.217-0.101,0.329c0.454-0.083,0.886-0.162,1.317-0.241
	c-0.059-0.062-0.02-0.131,0.004-0.211c0.05-0.167,0.042-0.17,0.07-0.17c0.014,0.095,0.026,0.184,0.042,0.285
	c-0.018,0.014-0.057,0.045-0.104,0.084c0.047,0.035,0.074,0.069,0.103,0.072c0.1,0.011,0.201,0.011,0.301,0.015
	c0.133,0.006,0.267,0,0.397,0.021c0.12,0.021,0.224,0.038,0.304-0.104c-0.026,0.163,0.105,0.135,0.182,0.196
	c0.019-0.143,0.035-0.27,0.054-0.416c-0.004-0.002-0.049-0.012-0.063-0.037c-0.083-0.141-0.215-0.154-0.354-0.148
	c-0.06,0.003-0.12,0.022-0.159-0.047c-0.008-0.013-0.038-0.015-0.058-0.017c-0.109-0.01-0.221-0.041-0.326-0.023
	c-0.115,0.019-0.224-0.091-0.351,0.028c-0.089,0.083-0.249,0.089-0.392,0.134c-0.054,0.205-0.054,0.205,0.062,0.191
	c0.027,0.056,0.02,0.097-0.052,0.097c-0.062,0-0.158,0.039-0.163-0.064c-0.003-0.086,0.034-0.172,0.058-0.276
	c-0.145,0.022-0.287,0.045-0.427,0.067c-0.016,0.103-0.029,0.204-0.044,0.309c0.066-0.008,0.125-0.015,0.181-0.021
	c0.003,0.013,0.007,0.027,0.01,0.04c-0.069,0.026-0.137,0.059-0.208,0.077c-0.056,0.012-0.095-0.016-0.093-0.082
	C25.312,13.475,25.316,13.375,25.321,13.278z M26.812,44.112c0.001-0.007,0.003-0.015,0.005-0.021c-0.098,0-0.196-0.003-0.294,0
	c-0.376,0.01-0.753,0.022-1.131,0.033c-0.216,0.005-0.434,0.003-0.651,0.016c-0.258,0.017-0.515,0.047-0.773,0.065
	c-0.239,0.017-0.477,0.025-0.715,0.039c-0.072,0.005-0.146,0.003-0.212,0.024c-0.141,0.045-0.275,0.103-0.411,0.156
	c0,0.046,0,0.085,0,0.136c0.139-0.009,0.271-0.017,0.403-0.028c0.249-0.02,0.498-0.061,0.748-0.058
	c0.208,0.002,0.409-0.027,0.614-0.047c0.193-0.018,0.389-0.021,0.584-0.029c0.234-0.011,0.47-0.017,0.706-0.033
	c0.216-0.013,0.432-0.034,0.647-0.06c0.087-0.01,0.167-0.037,0.26-0.019c0.063,0.013,0.138-0.03,0.208-0.045
	c0.063-0.014,0.127-0.024,0.184-0.034C26.923,44.173,26.869,44.143,26.812,44.112z M25.209,7.134c-0.137,0-0.266,0.002-0.393,0
	c-0.228-0.007-0.45-0.075-0.683,0.021c-0.15,0.062-0.322,0.127-0.498,0.052c-0.03-0.014-0.078,0.002-0.113,0.016
	c-0.021,0.008-0.049,0.041-0.047,0.058c0.026,0.156,0.057,0.312,0.083,0.447c0.122,0.023,0.224,0.044,0.326,0.06
	c0.109,0.018,0.212,0.021,0.323-0.023c0.178-0.071,0.362-0.151,0.566-0.096c0.102,0.027,0.192-0.001,0.271-0.074
	c0.062-0.058,0.061-0.126,0.05-0.199c0-0.006,0.001-0.018,0.006-0.02C25.194,7.319,25.161,7.208,25.209,7.134z M25.133,48.911
	c-0.049,0.058-0.091,0.108-0.124,0.149c0.039,0.029,0.069,0.05,0.1,0.072c-0.005,0.011-0.013,0.022-0.02,0.033
	c-0.064-0.007-0.127-0.016-0.204-0.024c-0.032,0.02-0.08,0.048-0.126,0.076c0.002,0.01,0.007,0.019,0.009,0.029
	c0.078-0.013,0.158-0.037,0.236-0.034c0.146,0.003,0.29,0.014,0.43-0.04c0.022-0.009,0.049-0.007,0.073-0.012
	c0.052-0.014,0.104-0.028,0.156-0.042c-0.003-0.01-0.006-0.02-0.009-0.029c-0.045-0.006-0.091-0.011-0.136-0.017
	c0.002-0.009,0.004-0.02,0.006-0.03c0.025,0.004,0.051,0.01,0.075,0.014c0-0.104,0.001-0.205-0.001-0.306
	c0-0.07-0.003-0.142-0.013-0.212c-0.017-0.117-0.042-0.232-0.057-0.35c-0.006-0.053,0.004-0.108,0.007-0.163
	c-0.188,0.019-0.357,0.036-0.542,0.055c0.012,0.194,0.029,0.385,0.037,0.575C25.034,48.755,25.017,48.859,25.133,48.911z
	 M27.765,27.597c0.002-0.011,0.005-0.021,0.008-0.032c-0.025-0.021-0.049-0.051-0.079-0.061c-0.101-0.032-0.203-0.069-0.307-0.082
	c-0.213-0.023-0.428-0.047-0.643-0.045c-0.185,0.002-0.37,0.037-0.554,0.063c-0.331,0.048-0.665,0.088-0.992,0.157
	c-0.221,0.046-0.298,0.114-0.24,0.324c0.126-0.029,0.26-0.042,0.38-0.092c0.219-0.087,0.426-0.185,0.671-0.186
	c0.197-0.001,0.396-0.042,0.594-0.053c0.063-0.004,0.129,0.027,0.195,0.037c0.106,0.017,0.214,0.037,0.321,0.041
	c0.087,0.005,0.175-0.008,0.262-0.019C27.51,27.636,27.636,27.615,27.765,27.597z M24.798,40.026
	c-0.007,0.018-0.014,0.036-0.021,0.053c0.033,0.022,0.066,0.06,0.1,0.062c0.118,0.005,0.235-0.008,0.352-0.003
	c0.322,0.014,0.646-0.003,0.962,0.077c0.03,0.008,0.063,0.008,0.096,0.01c0.089,0.002,0.18,0.001,0.271,0.006
	c0.187,0.014,0.374,0.036,0.562,0.044c0.197,0.007,0.395-0.005,0.593,0.005c0.264,0.014,0.526,0.032,0.793-0.064
	c-0.021-0.055-0.042-0.113-0.071-0.19c-0.138,0.015-0.281,0.03-0.424,0.046c-0.094,0.012-0.188,0.038-0.283,0.036
	c-0.213-0.003-0.425-0.02-0.64-0.03c-0.18-0.008-0.361-0.016-0.542-0.022c-0.312-0.011-0.624-0.021-0.936-0.029
	c-0.205-0.005-0.41-0.007-0.615-0.008C24.93,40.017,24.864,40.024,24.798,40.026z M24.913,35.589c0,1.201,0,2.375,0,3.556
	c0.041-0.027,0.08-0.041,0.102-0.069c0.044-0.058,0.154-0.058,0.146-0.169c-0.01-0.152-0.001-0.308-0.012-0.461
	c-0.021-0.264-0.057-0.525-0.074-0.789c-0.017-0.25-0.018-0.5-0.023-0.749c-0.007-0.321-0.018-0.643-0.021-0.964
	C25.028,35.822,24.997,35.713,24.913,35.589z M26.817,12.708c0-0.173-0.001-0.335,0.001-0.498c0.002-0.15,0.013-0.3,0.013-0.451
	c0-0.202-0.012-0.403-0.013-0.605c-0.001-0.201,0.015-0.404,0.007-0.605c-0.006-0.174-0.029-0.347-0.054-0.519
	c-0.004-0.035-0.038-0.089-0.063-0.092c-0.058-0.009-0.087,0.027-0.085,0.098c0.007,0.323,0.011,0.648,0.006,0.972
	c-0.004,0.306-0.021,0.613-0.026,0.919c-0.004,0.253-0.001,0.508-0.001,0.764C26.678,12.696,26.741,12.702,26.817,12.708z
	 M27.681,10.104c-0.018,0.175-0.047,0.34-0.05,0.505c-0.003,0.246,0.013,0.492,0.018,0.739c0.004,0.245-0.002,0.489,0.004,0.733
	c0.008,0.259,0.024,0.519,0.037,0.778c0.004,0.102,0.075,0.128,0.152,0.14c0-0.198-0.002-0.392,0-0.587
	c0.004-0.317,0.016-0.633,0.017-0.951c0.001-0.376-0.01-0.753-0.011-1.129C27.848,10.151,27.853,10.151,27.681,10.104z
	 M28.294,44.24c0.088,0.017,0.197,0.031,0.304,0.058c0.148,0.037,0.293,0.094,0.453,0.079c0.13-0.013,0.262-0.013,0.393-0.019
	c0.298-0.016,0.595-0.031,0.892-0.047c0.026-0.185,0.027-0.182-0.152-0.148c-0.053,0.009-0.112-0.002-0.168-0.01
	c-0.057-0.007-0.113-0.026-0.169-0.029c-0.163-0.009-0.327-0.007-0.489-0.02c-0.181-0.015-0.361-0.035-0.535,0.049
	c-0.085,0.042-0.163-0.011-0.191-0.111c0.02-0.011,0.04-0.023,0.075-0.044c-0.101-0.018-0.181-0.032-0.261-0.044
	c-0.086-0.012-0.173-0.022-0.264-0.034C28.22,44.028,28.254,44.127,28.294,44.24z M25.97,28.433c-0.003-0.016,0-0.056-0.018-0.081
	c-0.093-0.141-0.092-0.306-0.114-0.462c-0.012-0.079-0.025-0.103-0.1-0.073c-0.12,0.047-0.241,0.095-0.362,0.141
	c-0.119,0.046-0.153,0.18-0.066,0.279c0.018,0.021,0.04,0.036,0.076,0.068c-0.068,0.023-0.121,0.041-0.17,0.057
	c-0.072,0.129-0.145,0.259-0.223,0.398C25.329,28.648,25.641,28.543,25.97,28.433z M25.185,28.902
	c0.008,0.013,0.019,0.025,0.027,0.038c0.289-0.075,0.579-0.146,0.866-0.227c0.211-0.058,0.419-0.105,0.641-0.107
	c0.13-0.001,0.259,0.046,0.394,0.006c0.06-0.017,0.135-0.009,0.197,0.011c0.196,0.061,0.39,0.132,0.59,0.204
	c0-0.087,0-0.156,0-0.223c-0.008-0.001-0.463-0.089-0.463-0.089c0.012-0.005,0.023-0.012,0.062-0.031
	c-0.122-0.01-0.215-0.02-0.308-0.028c-0.153-0.013-0.305-0.034-0.458-0.037c-0.104-0.001-0.217-0.003-0.277,0.116
	c-0.004,0.011-0.023,0.013-0.036,0.02c-0.039-0.035-0.083-0.059-0.123-0.052c-0.129,0.023-0.256,0.06-0.385,0.086
	c-0.232,0.047-0.451,0.133-0.66,0.244C25.223,28.847,25.206,28.879,25.185,28.902z M28.254,9.014
	c0.028,0.086,0.05,0.154,0.077,0.235c0.005-0.013,0.01-0.022,0.014-0.032c0.078-0.223,0.224-0.375,0.439-0.479
	c0.176-0.085,0.355-0.188,0.43-0.391c0.04-0.109,0.086-0.217,0.033-0.34c-0.033-0.076-0.088-0.045-0.133-0.042
	c-0.024,0.001-0.052,0.033-0.07,0.056c-0.039,0.052-0.073,0.108-0.108,0.163c-0.011-0.001-0.022-0.002-0.034-0.004
	c-0.012-0.047-0.025-0.094-0.036-0.136c-0.055,0.092-0.099,0.195-0.168,0.281C28.521,8.543,28.336,8.756,28.254,9.014z
	 M27.576,19.496c-0.063,0-0.122,0.007-0.179-0.002c-0.041-0.006-0.105-0.026-0.112-0.051c-0.017-0.068-0.056-0.072-0.109-0.071
	c-0.056,0.002-0.113,0.006-0.167-0.004c-0.307-0.059-0.613-0.077-0.928-0.054c-0.273,0.02-0.542,0.045-0.806,0.116
	c-0.014,0.003-0.028,0.004-0.042,0.004c-0.261,0.006-0.264,0.009-0.27,0.259c-0.001,0.021,0,0.042,0,0.077
	c0.046-0.017,0.084-0.024,0.115-0.043c0.161-0.103,0.33-0.166,0.521-0.189c0.229-0.028,0.456-0.078,0.69-0.118
	c-0.03-0.027-0.056-0.051-0.105-0.096c0.057,0.015,0.108,0.019,0.11,0.03c0.015,0.085,0.09,0.071,0.139,0.081
	c0.104,0.021,0.21,0.023,0.313,0.037c0.109,0.015,0.223,0.02,0.325,0.055c0.124,0.043,0.242,0.09,0.377,0.094
	C27.528,19.625,27.572,19.613,27.576,19.496z M25.711,49.104c0.142-0.043,0.268-0.079,0.393-0.121
	c0.02-0.006,0.042-0.044,0.04-0.067c-0.003-0.075-0.017-0.149-0.028-0.226c-0.011-0.084-0.035-0.171-0.034-0.257
	c0.002-0.168,0.02-0.336,0.031-0.511c-0.102,0.026-0.203,0.036-0.286,0.082c-0.058,0.03-0.164,0.041-0.16,0.136
	c0.007,0.162,0.029,0.324,0.047,0.486c0.009,0.076,0.034,0.152,0.035,0.229C25.749,48.93,25.727,49.003,25.711,49.104z
	 M26.663,19.997c-0.026-0.127-0.051-0.247-0.075-0.366c-0.388-0.095-0.772,0.006-1.153,0.091c-0.008,0.042-0.008,0.083-0.021,0.12
	c-0.04,0.111,0.094,0.115,0.113,0.188c0.003,0.016,0.032,0.026,0.051,0.034c0.008,0.003,0.021-0.011,0.033-0.012
	c0.076-0.005,0.151-0.011,0.226-0.012c0.039,0,0.078,0.01,0.095,0.012c0.033-0.135,0.055-0.247,0.091-0.354
	c0.006-0.019,0.068-0.023,0.102-0.021c0.009,0,0.023,0.048,0.021,0.074c-0.004,0.102-0.069,0.206,0.006,0.304
	C26.324,20.036,26.492,20.017,26.663,19.997z M27.245,5.471c-0.12,0.009-0.231,0.009-0.34,0.025
	c-0.186,0.027-0.369,0.062-0.552,0.099c-0.193,0.039-0.372,0.016-0.535-0.09c0,0.102,0,0.198,0,0.306
	c0.043-0.021,0.07-0.035,0.087-0.042c0.038,0.025,0.067,0.059,0.103,0.066c0.103,0.02,0.208,0.035,0.313,0.045
	c0.188,0.016,0.375,0.062,0.564-0.016C27.063,5.79,27.229,5.715,27.245,5.471z M26.506,28.323c0.155-0.019,0.322-0.038,0.465-0.056
	c-0.047-0.062-0.117-0.121-0.142-0.195c-0.025-0.074-0.005-0.162-0.005-0.243c-0.089-0.021-0.197-0.046-0.305-0.072
	c-0.027-0.007-0.055-0.022-0.08-0.02c-0.136,0.015-0.27,0.033-0.419,0.052c-0.034,0.207,0.034,0.42,0.088,0.635
	c0.034-0.007,0.081-0.022,0.128-0.029c0.104-0.016,0.147-0.065,0.137-0.179c-0.013-0.129-0.003-0.259-0.003-0.389
	c0.053-0.014,0.096-0.025,0.173-0.046C26.53,27.97,26.519,28.139,26.506,28.323z M25.182,10.033c0.51-0.193,1.044-0.302,1.597-0.297
	c0.01-0.11-0.022-0.156-0.126-0.156c-0.162,0.002-0.323-0.014-0.483-0.021c-0.093-0.004-0.185-0.008-0.276-0.004
	c-0.095,0.003-0.118,0.046-0.04,0.137c-0.03,0.024-0.056,0.053-0.087,0.063c-0.021,0.005-0.073-0.016-0.072-0.022
	c0.006-0.129-0.071-0.078-0.132-0.064c-0.152,0.035-0.305,0.068-0.456,0.105C25.087,9.78,25.06,9.81,25.061,9.827
	c0.003,0.038,0.014,0.082,0.034,0.114C25.116,9.977,25.153,10.002,25.182,10.033z M27.963,20.251
	c0.078-0.331,0.042-0.399-0.226-0.436c-0.005-0.002-0.013,0.003-0.024,0.006c-0.007,0.055-0.014,0.113-0.022,0.195
	c-0.047-0.083-0.081-0.142-0.124-0.216c-0.008,0.005-0.035,0.023-0.063,0.034c-0.022,0.007-0.064,0.013-0.067,0.006
	c-0.047-0.099-0.133-0.063-0.208-0.07c-0.012,0.057-0.024,0.106-0.038,0.17c-0.081-0.11-0.061,0.019-0.103,0.034
	c-0.023-0.216-0.114-0.355-0.364-0.324c0.053,0.125,0.105,0.248,0.151,0.357c0.062,0.015,0.149,0.008,0.188,0.048
	c0.057,0.061,0.118,0.05,0.181,0.058c0.136,0.02,0.274,0.026,0.409,0.05C27.757,20.183,27.859,20.221,27.963,20.251z M27.322,5.235
	c-0.002-0.002-0.005-0.008-0.011-0.011c-0.01-0.003-0.026-0.001-0.03-0.007c-0.082-0.139-0.187-0.079-0.301-0.048
	c-0.208,0.055-0.414,0.157-0.627,0.006c-0.078-0.056-0.132-0.104-0.092-0.195c-0.048-0.021-0.092-0.041-0.132-0.058
	c-0.038,0.057-0.073,0.128-0.125,0.18c-0.087,0.083-0.075,0.188-0.039,0.27c0.02,0.047,0.124,0.061,0.191,0.083
	c0.032,0.01,0.068,0.003,0.103,0.005c0.259,0.01,0.506-0.064,0.753-0.125C27.117,5.306,27.252,5.39,27.322,5.235z M26.26,6.722
	c0.045-0.012,0.075-0.022,0.104-0.027c0.071-0.012,0.164,0.012,0.166-0.108c0-0.009,0.054-0.029,0.073-0.022
	c0.039,0.014,0.072,0.043,0.09,0.054c0.033-0.046,0.064-0.091,0.094-0.136c0.048,0.036,0.095,0.071,0.15,0.114
	c0.076-0.018,0.168-0.04,0.273-0.064c-0.099-0.087-0.02-0.14,0.014-0.176c-0.148,0.024-0.306,0.066-0.466,0.073
	c-0.159,0.005-0.322-0.022-0.481-0.045c-0.129-0.019-0.254-0.054-0.383-0.078c-0.101-0.02-0.203-0.035-0.301-0.05
	c0,0.063,0,0.124,0,0.194c0.072-0.028,0.13-0.052,0.215-0.084c-0.052,0.081-0.091,0.14-0.146,0.223c0.162,0,0.292,0,0.424,0
	c0.002-0.033,0.004-0.059,0.005-0.084C26.296,6.489,26.335,6.537,26.26,6.722z M27.691,27.821c-0.048,0.036-0.074,0.067-0.108,0.081
	c-0.04,0.016-0.083,0.016-0.139,0.025c0.021-0.036,0.031-0.053,0.039-0.066c-0.09-0.019-0.173-0.039-0.257-0.05
	c-0.024-0.003-0.052,0.017-0.079,0.027c-0.054,0.014-0.133,0.016-0.154,0.053c-0.027,0.046-0.02,0.126,0,0.18
	c0.021,0.055,0.077,0.095,0.121,0.145c-0.015,0.012-0.033,0.029-0.066,0.059c0.17,0.013,0.323,0.024,0.483,0.037
	c0.001,0.013,0.003,0.036,0.004,0.055c0.08,0.006,0.154,0.014,0.243,0.022C27.615,28.217,27.695,28.024,27.691,27.821z
	 M23.822,48.963c-0.061-0.221-0.011-0.422,0.01-0.633c-0.055,0.03-0.094,0.059-0.14,0.074c-0.104,0.035-0.216,0.193-0.211,0.299
	c0.005,0.134,0.028,0.269-0.047,0.395c-0.006,0.011,0.017,0.058,0.033,0.062c0.041,0.011,0.086,0.013,0.125,0.004
	c0.099-0.021,0.232-0.006,0.208-0.176C23.8,48.975,23.826,48.958,23.822,48.963z M25.867,9.247c-0.06-0.046-0.12-0.106-0.19-0.141
	c-0.072-0.037-0.164-0.08-0.234-0.064c-0.154,0.035-0.301,0.105-0.449,0.164C24.98,9.21,24.966,9.24,24.97,9.254
	c0.002,0.012,0.027,0.027,0.043,0.031c0.076,0.019,0.152,0.036,0.23,0.051c0.069,0.013,0.139,0.02,0.207,0.034
	c0.085,0.018,0.17,0.04,0.27,0.065C25.754,9.389,25.81,9.319,25.867,9.247z M22.589,42.571c-0.022-0.055-0.052-0.095-0.05-0.133
	c0.002-0.023,0.05-0.053,0.082-0.062c0.074-0.021,0.152-0.03,0.227-0.052c0.029-0.007,0.05-0.037,0.075-0.057
	c0.035-0.027,0.066-0.057,0.104-0.076c0.007-0.004,0.039,0.045,0.059,0.069c0.01,0,0.019,0,0.03-0.001
	c-0.004-0.073-0.009-0.147-0.013-0.22c-0.015-0.005-0.029-0.012-0.045-0.017c-0.059,0.047-0.117,0.095-0.175,0.141
	c-0.018,0.013-0.042,0.036-0.055,0.031c-0.021-0.007-0.039-0.031-0.052-0.052c-0.01-0.015-0.008-0.039-0.012-0.056
	c-0.131-0.008-0.345,0.11-0.414,0.221c-0.069,0.112-0.062,0.128,0.062,0.148c0.021,0.004,0.04,0.009,0.051,0.012
	c0.018,0.055,0.032,0.103,0.051,0.162C22.553,42.598,22.58,42.578,22.589,42.571z M27.308,6.645
	c-0.077,0.036-0.113,0.057-0.151,0.07c-0.16,0.055-0.166,0.062-0.16,0.234c0,0.018-0.004,0.035-0.009,0.052
	c-0.024,0.102-0.049,0.202-0.079,0.32c0.133-0.124,0.284-0.081,0.399-0.07C27.308,7.045,27.308,6.854,27.308,6.645z M24.78,13.338
	c0.064-0.176,0.09-2.576,0.021-2.718C24.765,11.519,24.784,12.417,24.78,13.338z M26.54,6.268c0.326,0.064,0.587-0.029,0.827-0.199
	C27.39,6.053,27.414,6,27.403,5.98c-0.056-0.115,0.04-0.111,0.106-0.134c-0.025-0.056-0.048-0.107-0.068-0.151
	C27.201,5.972,26.881,6.117,26.54,6.268z M25.765,10.521c-0.018,0-0.035,0.002-0.052,0.002c0.014,0.726,0.029,1.451,0.043,2.175
	c0.017,0.001,0.033,0.003,0.049,0.006c0.011-0.035,0.03-0.068,0.03-0.102c0-0.057-0.017-0.114-0.018-0.17
	c-0.003-0.215-0.002-0.429-0.004-0.644c-0.003-0.179-0.011-0.359-0.011-0.541c-0.002-0.121,0.011-0.244,0.006-0.365
	C25.804,10.762,25.781,10.642,25.765,10.521z M18.558,52.483c0.007-0.054,0.045-0.138,0.021-0.194
	c-0.044-0.103,0.023-0.107,0.073-0.143c0.016,0.057,0.031,0.106,0.046,0.162c0.079-0.1,0.146-0.186,0.226-0.288
	c-0.055,0.004-0.092,0.008-0.134,0.013c-0.009-0.027-0.016-0.051-0.027-0.087c-0.083,0.029-0.23,0.021-0.218-0.003
	c-0.035,0.004-0.07,0.004-0.103,0.012c-0.04,0.01-0.103,0.018-0.113,0.043c-0.017,0.047-0.021,0.118,0.002,0.16
	C18.399,52.272,18.483,52.378,18.558,52.483z M24.591,39.445c0.076-0.116,0.085-2.138,0-2.37
	C24.591,37.859,24.591,38.642,24.591,39.445z M26.496,4.421c-0.026,0.054-0.062,0.111-0.082,0.173
	c-0.063,0.201-0.042,0.229,0.173,0.231c0.05,0,0.114-0.001,0.146-0.03c0.114-0.104,0.067-0.318-0.074-0.386
	c-0.014,0.043-0.029,0.087-0.043,0.131c-0.01,0.002-0.021,0.005-0.032,0.008C26.556,4.509,26.53,4.471,26.496,4.421z M32.781,50.255
	c-0.008,0.01-0.021,0.019-0.021,0.026c0,0.219,0,0.436,0,0.644c0.046,0.023,0.076,0.041,0.106,0.053
	c0.031,0.011,0.064,0.017,0.11,0.027c-0.017-0.082-0.01-0.158-0.018-0.215C32.931,50.606,32.966,50.392,32.781,50.255z
	 M27.975,32.776c0.012,0,0.025,0,0.037,0c0-1.236,0-2.471,0-3.706c0,0-0.002,0-0.003,0C27.998,30.305,27.986,31.541,27.975,32.776z
	 M26.958,9.755c0.361,0.068,0.739,0.065,1.091,0.253c-0.005-0.059-0.008-0.092-0.01-0.118c-0.208,0.032-0.338-0.137-0.514-0.166
	c-0.182-0.031-0.362-0.069-0.536-0.104C26.978,9.67,26.969,9.709,26.958,9.755z M27.862,49.691c0.019,0.095,0.035,0.184,0.054,0.272
	c0.03,0.145,0.069,0.286,0.091,0.431c0.018,0.114,0.013,0.231,0.026,0.347c0.003,0.028,0.037,0.051,0.057,0.078
	c0.006-0.056-0.005-0.094-0.007-0.131c-0.006-0.143-0.002-0.285-0.016-0.425c-0.017-0.171-0.053-0.339-0.072-0.508
	C27.983,49.655,27.939,49.654,27.862,49.691z M27.974,12.607c0.009,0,0.017,0,0.025,0c0.016-0.127,0.038-0.253,0.047-0.379
	c0.007-0.13,0-0.262,0-0.393c-0.001-0.194,0-0.388-0.005-0.582c0-0.028-0.025-0.054-0.038-0.081c-0.01,0.025-0.023,0.05-0.027,0.076
	c-0.005,0.041-0.004,0.083-0.004,0.125c0,0.219,0.001,0.437,0.001,0.656C27.974,12.223,27.974,12.415,27.974,12.607z M28.27,43.378
	c0.084-0.021,0.181-0.016,0.206-0.056c0.081-0.132,0.137-0.282,0.202-0.424c-0.007-0.005-0.016-0.01-0.023-0.015
	c-0.07,0.044-0.182-0.028-0.225,0.099C28.385,43.11,28.327,43.237,28.27,43.378z M24.334,49.692
	c-0.266-0.062-1.392,0.041-1.51,0.144C23.328,49.789,23.832,49.741,24.334,49.692z M27.793,13.5
	c-0.049,0.083-0.079,0.196-0.004,0.293c0.033,0.044,0.102,0.061,0.172,0.101c0-0.187,0-0.335,0-0.487
	C27.897,13.443,27.846,13.472,27.793,13.5z M26.047,7.031c-0.186-0.052-0.271,0.056-0.263,0.322
	c0.074,0.006,0.147,0.012,0.225,0.019C26.022,7.254,26.035,7.146,26.047,7.031z M27.519,54.384c-0.411-0.024-0.818,0.018-1.225,0.07
	C26.705,54.479,27.113,54.449,27.519,54.384z M24.958,20.144c0.145-0.04,0.256-0.069,0.37-0.098
	c-0.132-0.054-0.062-0.188-0.105-0.269c-0.081,0.048-0.169,0.074-0.213,0.134C24.968,19.966,24.976,20.056,24.958,20.144z
	 M29.931,43.978c0-0.01,0-0.021,0-0.03c-0.368-0.103-0.742-0.149-1.122-0.118c-0.001,0.012-0.002,0.023-0.003,0.033
	C29.181,43.901,29.557,43.939,29.931,43.978z M25.589,7.073c-0.068,0.012-0.124,0.019-0.179,0.032
	c-0.07,0.018-0.117,0.089-0.08,0.13c0.063,0.071,0.015,0.113-0.015,0.173c0.061,0,0.112,0.01,0.158-0.002
	c0.035-0.01,0.083-0.042,0.09-0.074C25.582,7.252,25.581,7.167,25.589,7.073z M25.064,6.77c-0.277,0.037-0.545,0.071-0.813,0.106
	c0,0.014,0.002,0.027,0.003,0.041c0.279-0.014,0.555-0.028,0.843-0.043C25.081,6.82,25.072,6.79,25.064,6.77z M31.872,51.496
	c-0.001-0.006-0.002-0.013-0.003-0.02c-0.009-0.003-0.019-0.01-0.029-0.009c-0.242,0.012-0.484,0.027-0.727,0.038
	c-0.076,0.004-0.152-0.007-0.228,0c-0.03,0.002-0.058,0.031-0.087,0.046c0.024,0.013,0.047,0.032,0.073,0.036
	c0.04,0.008,0.082,0.006,0.122,0.003c0.263-0.024,0.526-0.049,0.79-0.074C31.812,51.513,31.841,51.503,31.872,51.496z M24.61,10.009
	c0.026,0.043,0.047,0.084,0.074,0.12c0.027,0.035,0.06,0.065,0.09,0.097c0.181-0.197,0.181-0.197,0.059-0.333
	C24.759,9.932,24.687,9.97,24.61,10.009z M32.93,49.699c0-0.086-0.005-0.162,0.001-0.237c0.007-0.099-0.007-0.162-0.129-0.126
	c-0.024,0.007-0.054-0.001-0.08-0.003C32.704,49.446,32.802,49.619,32.93,49.699z M28.048,44.354
	c0.003-0.011,0.005-0.021,0.008-0.031c-0.238-0.042-0.478-0.085-0.716-0.126c-0.006,0.013-0.011,0.025-0.017,0.038
	c0.018,0.011,0.039,0.035,0.05,0.031c0.067-0.026,0.114-0.008,0.151,0.054c0.009,0.015,0.03,0.033,0.045,0.033
	C27.73,44.354,27.889,44.354,28.048,44.354z M33.876,51.24c0-0.011,0-0.022,0-0.034c-0.057-0.014-0.114-0.028-0.171-0.042
	c-0.121-0.032-0.202,0-0.263,0.106c-0.012,0.021-0.015,0.045-0.021,0.066c0.021,0.005,0.045,0.016,0.064,0.011
	C33.617,51.314,33.746,51.277,33.876,51.24z M25.822,5.951c0,0.013-0.001,0.026-0.003,0.04c0.228,0.1,0.683,0.138,0.805,0.062
	C26.354,6.018,26.089,5.984,25.822,5.951z M25.656,12.896c-0.215-0.007-0.317,0.186-0.51,0.25c0.104,0.007,0.184,0.013,0.259,0.019
	c0,0-0.007-0.019-0.015-0.044c0.085-0.035,0.168-0.069,0.25-0.104C25.646,12.977,25.65,12.941,25.656,12.896z M29.083,49.282
	c-0.001,0.012-0.003,0.024-0.003,0.036c0.098,0.013,0.195,0.032,0.294,0.038c0.178,0.011,0.358,0.017,0.537,0.021
	c0.048,0,0.096-0.013,0.142-0.02c-0.001-0.008-0.002-0.017-0.005-0.026C29.727,49.315,29.405,49.298,29.083,49.282z M28.551,42.36
	c-0.009,0.009-0.018,0.019-0.026,0.029c0.005,0.113,0.01,0.226,0.017,0.344c0.012-0.002,0.029-0.007,0.045-0.007
	c0.115,0.003,0.147-0.035,0.113-0.141c-0.016-0.05-0.031-0.103-0.059-0.146C28.622,42.407,28.582,42.385,28.551,42.36z
	 M27.982,9.213c-0.111,0.063-0.135,0.165-0.154,0.273c-0.025,0.157,0.011,0.204,0.173,0.199C27.931,9.531,27.901,9.377,27.982,9.213
	z M24.741,28.276c-0.006-0.004-0.013-0.008-0.02-0.012c-0.019,0.031-0.053,0.062-0.054,0.094c-0.006,0.169-0.006,0.339-0.003,0.509
	c0,0.025,0.035,0.049,0.053,0.073c0.008-0.006,0.016-0.012,0.023-0.018C24.741,28.708,24.741,28.492,24.741,28.276z M27.989,11.154
	c0.013-0.001,0.025-0.001,0.039-0.001c0-0.231,0-0.464,0-0.695c-0.014,0-0.026,0-0.039,0C27.989,10.69,27.989,10.922,27.989,11.154z
	 M28.488,49.361c-0.001-0.008-0.002-0.017-0.003-0.025c-0.155,0-0.312,0-0.487,0c0.01,0.05,0.02,0.1,0.031,0.15
	C28.194,49.442,28.34,49.403,28.488,49.361z M25.179,7.06c0.003-0.006,0.007-0.012,0.01-0.019c-0.029-0.02-0.06-0.058-0.086-0.057
	c-0.195,0.008-0.389,0.025-0.582,0.038c0,0.012,0,0.025,0,0.037C24.74,7.06,24.959,7.06,25.179,7.06z M25.014,28.466
	c-0.01-0.134,0.166-0.239,0.021-0.396c-0.033,0.04-0.094,0.08-0.092,0.117C24.949,28.278,24.891,28.392,25.014,28.466z
	 M27.979,33.983c0.004,0,0.008,0,0.013,0c0-0.364,0-0.728,0-1.091c-0.004,0-0.008,0-0.013,0
	C27.979,33.256,27.979,33.619,27.979,33.983z M26.296,6.937c0.088-0.021,0.159-0.04,0.231-0.053
	c0.099-0.019,0.104-0.027,0.057-0.119c-0.101,0.014-0.198,0.027-0.302,0.042C26.287,6.854,26.292,6.895,26.296,6.937z
	 M25.548,47.882c-0.118,0.01-0.212,0.022-0.306,0.027c-0.225,0.011-0.226,0.01-0.241,0.087c0.066-0.011,0.129-0.024,0.195-0.029
	c0.063-0.005,0.128,0.005,0.192-0.001C25.444,47.961,25.521,47.981,25.548,47.882z M23.79,48.174c-0.107,0-0.209,0-0.32,0
	c0.008,0.068,0.015,0.132,0.022,0.194C23.596,48.301,23.693,48.238,23.79,48.174z M23.136,8.099
	c0.094-0.123,0.188-0.238,0.189-0.424C23.21,7.809,23.091,7.912,23.136,8.099z M26.762,7.211c0.123-0.119,0.15-0.228,0.094-0.373
	c-0.034,0.018-0.066,0.034-0.094,0.049C26.762,6.996,26.762,7.099,26.762,7.211z M24.16,8.909c-0.066,0.169,0.07,0.476,0.181,0.589
	C24.279,9.297,24.223,9.117,24.16,8.909z M25.784,12.862c-0.001,0.013-0.002,0.027-0.003,0.04c0.081,0.086,0.163-0.012,0.242-0.02
	c0.09-0.01,0.178-0.043,0.266-0.067c-0.002-0.01-0.004-0.019-0.006-0.029C26.115,12.811,25.95,12.837,25.784,12.862z M25.691,7.568
	c0.123,0.047,0.243,0.092,0.367,0.141C26.07,7.569,25.858,7.497,25.691,7.568z M25.739,6.898c0.066,0.081,0.066,0.081,0.321,0.054
	c-0.003-0.037-0.007-0.073-0.009-0.09C25.94,6.874,25.845,6.886,25.739,6.898z M27.98,19.565c-0.087,0.094-0.173,0.085-0.264,0.03
	c0,0.042,0,0.067,0,0.094c0.089,0.017,0.172,0.032,0.264,0.049C27.98,19.681,27.98,19.636,27.98,19.565z M22.545,48.642
	c-0.008-0.002-0.018-0.005-0.027-0.008c-0.016,0.089-0.034,0.177-0.052,0.266c0.057,0.017,0.102,0.03,0.151,0.044
	c-0.01-0.06-0.017-0.109-0.027-0.157C22.577,48.738,22.56,48.689,22.545,48.642z M23.342,49.573
	c-0.002-0.012-0.005-0.027-0.008-0.041c-0.099,0.021-0.196,0.045-0.295,0.062c-0.09,0.015-0.193-0.038-0.265,0.081
	C22.964,49.642,23.154,49.606,23.342,49.573z M22.234,49.849c0.009,0.033,0.016,0.062,0.018,0.062
	c0.125-0.018,0.25-0.038,0.374-0.057C22.494,49.749,22.375,49.868,22.234,49.849z M26.747,5.029c0.002-0.01,0.003-0.02,0.005-0.031
	c-0.118-0.009-0.237-0.017-0.366-0.026C26.468,5.07,26.602,5.088,26.747,5.029z M23.747,7.095c0.057,0.074,0.309,0.037,0.36-0.045
	C23.987,7.065,23.869,7.08,23.747,7.095z M24.709,27.704c-0.01-0.002-0.022-0.003-0.032-0.003c0,0.137,0,0.273,0,0.415
	c0.062-0.028,0.089-0.055,0.052-0.116c-0.017-0.028-0.018-0.068-0.02-0.102C24.708,27.833,24.709,27.768,24.709,27.704z
	 M19.692,51.412c-0.128,0.023-0.254,0.043-0.326,0.173c0.04-0.025,0.087-0.073,0.108-0.064
	C19.599,51.577,19.62,51.446,19.692,51.412z M27.872,28.145c0.068-0.167,0.052-0.272-0.027-0.296
	C27.854,27.951,27.862,28.048,27.872,28.145z M25.54,6.541c0.007-0.013,0.015-0.024,0.023-0.036
	c-0.045-0.041-0.09-0.082-0.148-0.135c-0.024,0.06-0.041,0.099-0.06,0.144C25.422,6.523,25.481,6.533,25.54,6.541z M27.04,4.681
	c-0.034-0.066-0.062-0.125-0.092-0.183c-0.009,0.004-0.017,0.006-0.024,0.01c-0.005,0.077-0.01,0.157-0.015,0.252
	C26.964,4.728,26.995,4.709,27.04,4.681z M22.348,49.703c0,0.012,0.002,0.024,0.003,0.036c0.136,0.033,0.25-0.052,0.377-0.068
	c-0.001-0.011-0.003-0.021-0.005-0.031C22.598,49.661,22.473,49.681,22.348,49.703z M25.711,6.732
	c0.048,0.095,0.187,0.08,0.265-0.022C25.886,6.716,25.799,6.724,25.711,6.732z M24.551,47.977c-0.12,0.02-0.218,0.035-0.344,0.057
	C24.348,48.084,24.477,48.062,24.551,47.977z M25.416,7.025c0.053-0.006,0.098-0.008,0.141-0.02c0.018-0.006,0.03-0.034,0.044-0.052
	c-0.016-0.011-0.031-0.031-0.048-0.033C25.478,6.913,25.424,6.936,25.416,7.025z M23.835,7.028c0-0.012-0.001-0.026-0.002-0.04
	c-0.109,0.009-0.217,0.017-0.327,0.026c0.001,0.011,0.001,0.023,0.002,0.035C23.617,7.042,23.725,7.035,23.835,7.028z
	 M27.275,12.957c-0.004,0.015-0.009,0.031-0.014,0.046c0.098,0.031,0.196,0.06,0.294,0.091c0.003-0.011,0.007-0.022,0.011-0.034
	C27.469,13.026,27.372,12.991,27.275,12.957z M24.638,9.816c0.063-0.037,0.114-0.066,0.166-0.097
	c-0.004-0.009-0.008-0.017-0.012-0.024c-0.05,0-0.099,0-0.154,0C24.638,9.733,24.638,9.765,24.638,9.816z M28.024,27.917
	c-0.003,0-0.005-0.001-0.008-0.002c0,0.181,0,0.361,0,0.541c0.003,0,0.005,0,0.008,0C28.024,28.276,28.024,28.096,28.024,27.917z
	 M26.348,12.97c-0.003-0.012-0.007-0.023-0.01-0.035c-0.074,0.018-0.148,0.035-0.223,0.053c0.004,0.016,0.009,0.032,0.014,0.048
	C26.201,13.014,26.274,12.993,26.348,12.97z M25.307,39.197c0,0.015-0.001,0.031-0.001,0.045c0.077-0.005,0.154-0.01,0.229-0.016
	c0-0.01,0-0.02,0-0.029C25.459,39.197,25.383,39.197,25.307,39.197z"/>
</svg>
