<?xml version="1.0" encoding="utf-8"?>
<!-- Generator: Adobe Illustrator 19.2.1, SVG Export Plug-In . SVG Version: 6.00 Build 0)  -->
<svg version="1.1" id="Layer_1" xmlns="http://www.w3.org/2000/svg" xmlns:xlink="http://www.w3.org/1999/xlink" x="0px" y="0px"
	 viewBox="0 0 88 62.5" style="enable-background:new 0 0 88 62.5;" xml:space="preserve">
<g>
	<path d="M84.5,48.1h-80c-0.8,0-1.5,0.7-1.5,1.5s0.7,1.5,1.5,1.5h5v6.4c0,0.8,0.7,1.5,1.5,1.5c0.8,0,1.5-0.7,1.5-1.5v-6.4h64v6.4
		c0,0.8,0.7,1.5,1.5,1.5s1.5-0.7,1.5-1.5v-6.4h5c0.8,0,1.5-0.7,1.5-1.5S85.3,48.1,84.5,48.1z"/>
	<path d="M11,42.9h67c0.8,0,1.5-0.7,1.5-1.5v-8.2c0-2-2.8-3.8-7.2-5.3V6.4c0-0.8-0.7-1.5-1.5-1.5H18.2c-0.8,0-1.5,0.7-1.5,1.5v21.5
		c-4.4,1.5-7.2,3.3-7.2,5.3v8.2C9.5,42.3,10.2,42.9,11,42.9z M19.7,7.9h49.6V27c-1.4-0.4-2.9-0.7-4.5-1v-8.4c0-0.8-0.7-1.5-1.5-1.5
		H48.1c-0.8,0-1.5,0.7-1.5,1.5v6.5c-0.7,0-1.4,0-2.1,0s-1.4,0-2.1,0v-6.5c0-0.8-0.7-1.5-1.5-1.5H25.7c-0.8,0-1.5,0.7-1.5,1.5V26
		c-1.6,0.3-3.1,0.6-4.5,1L19.7,7.9L19.7,7.9z M61.8,25.5c-3.8-0.6-8-1-12.2-1.2v-5.1h12.2V25.5z M27.2,25.5v-6.3h12.2v5.1
		C35.2,24.5,31,24.9,27.2,25.5z M12.5,33.3c1-1.7,11.7-5.6,28.4-6.1c0,0,0,0,0,0c0,0,0,0,0,0c1.2,0,2.4-0.1,3.6-0.1s2.4,0,3.6,0.1
		c0,0,0,0,0,0c0,0,0,0,0,0c16.7,0.5,27.4,4.4,28.4,6.1v6.6h-64V33.3z"/>
</g>
</svg>
