<svg xmlns="http://www.w3.org/2000/svg" xmlns:xlink="http://www.w3.org/1999/xlink" version="1.1" x="0px" y="0px" viewBox="0 0 100 100" enable-background="new 0 0 100 100" xml:space="preserve"><g><path d="M86.5,60V45c0-0.829-0.672-1.5-1.5-1.5h-3.5V35c0-0.829-0.672-1.5-1.5-1.5h-3.616c-0.133-0.774-0.303-1.362-0.512-1.638   c-0.421-0.883-1.851-0.987-12.123-0.987c-10.271,0-11.701,0.104-12.122,0.987c-0.209,0.276-0.379,0.864-0.512,1.638h-2.231   c-0.133-0.774-0.303-1.362-0.512-1.638c-0.421-0.883-1.851-0.987-12.123-0.987c-10.271,0-11.701,0.104-12.122,0.987   c-0.209,0.276-0.379,0.864-0.512,1.638H20c-0.828,0-1.5,0.671-1.5,1.5v8.5H15c-0.828,0-1.5,0.671-1.5,1.5v15   c0,0.828,0.672,1.5,1.5,1.5h0.984l-2.421,8.069c-0.137,0.454-0.05,0.945,0.233,1.326C14.08,71.275,14.526,71.5,15,71.5h5   c0.613,0,1.165-0.373,1.393-0.943l1.623-4.057h53.969l1.623,4.057C78.835,71.127,79.387,71.5,80,71.5h5   c0.475,0,0.92-0.225,1.203-0.604c0.283-0.381,0.37-0.872,0.233-1.326L84.016,61.5H85C85.828,61.5,86.5,60.828,86.5,60z M82,58.5H18   h-1.5v-4.032l67-1.436V58.5H82z M78.5,36.5v7h-2.042c0.263-1.894,0.34-4.628,0.224-7H78.5z M53.991,34.057   c3.247-0.244,16.27-0.244,19.519,0c0.299,1.998,0.295,7.529-0.012,9.443H54.002C53.696,41.586,53.692,36.055,53.991,34.057z    M50.818,36.5c-0.116,2.372-0.04,5.106,0.224,7h-2.083c0.263-1.894,0.34-4.628,0.224-7H50.818z M26.491,34.057   c3.248-0.244,16.271-0.244,19.519,0c0.299,1.998,0.295,7.529-0.012,9.443H26.502C26.196,41.586,26.192,36.055,26.491,34.057z    M21.5,36.5h1.818c-0.116,2.372-0.04,5.106,0.224,7H21.5V36.5z M83.5,46.5v4.532l-67,1.436V46.5H83.5z M82.985,68.5h-1.969   l-1.623-4.057C79.165,63.873,78.614,63.5,78,63.5H22c-0.613,0-1.165,0.373-1.393,0.943L18.985,68.5h-1.969l2.101-7h61.768   L82.985,68.5z"></path></g></svg>