<?xml version="1.0" encoding="utf-8"?>
<!-- Generator: Adobe Illustrator 16.0.4, SVG Export Plug-In . SVG Version: 6.00 Build 0)  -->
<!DOCTYPE svg PUBLIC "-//W3C//DTD SVG 1.1//EN" "http://www.w3.org/Graphics/SVG/1.1/DTD/svg11.dtd">
<svg version="1.1" id="Layer_1" xmlns="http://www.w3.org/2000/svg" xmlns:xlink="http://www.w3.org/1999/xlink" x="0px" y="0px"
	 width="1087.509px" height="148.492px" viewBox="0 0 1087.509 148.492" enable-background="new 0 0 1087.509 148.492"
	 xml:space="preserve">
<rect x="498.369" y="-218.643" fill="none" width="582.559" height="74.418"/>
<text transform="matrix(1 0 0 1 498.3691 -169.6431)"><tspan x="0" y="0" stroke="#000000" stroke-width="0.25" stroke-miterlimit="10" font-family="'SantEliaScript-Light'" font-size="70" letter-spacing="-1">L</tspan><tspan x="50.75" y="0" stroke="#000000" stroke-width="0.25" stroke-miterlimit="10" font-family="'SantEliaScript-Light'" font-size="70">a </tspan><tspan x="113.469" y="0" stroke="#000000" stroke-width="0.25" stroke-miterlimit="10" font-family="'SantEliaScript-Light'" font-size="70" letter-spacing="-1">B</tspan><tspan x="170.378" y="0" stroke="#000000" stroke-width="0.25" stroke-miterlimit="10" font-family="'SantEliaScript-Light'" font-size="70">elle </tspan><tspan x="296.443" y="0" stroke="#000000" stroke-width="0.25" stroke-miterlimit="10" font-family="'SantEliaScript-Light'" font-size="70" letter-spacing="-1">A</tspan><tspan x="363.153" y="0" stroke="#000000" stroke-width="0.25" stroke-miterlimit="10" font-family="'SantEliaScript-Light'" font-size="70">ddress</tspan></text>
<path stroke="#000000" stroke-width="0.25" stroke-miterlimit="10" d="M76.209,67.274c-20.015-1.147-30.851-12.239-30.851-27.026
	c0-8.796,3.952-16.829,10.326-22.438l4.844,5.737c-5.098,5.1-7.521,11.602-7.521,17.721c0,10.963,7.905,20.142,24.732,20.907
	l3.697-11.984c6.375-20.78,17.594-42.58,35.823-42.58c9.307,0,16.064,5.609,16.064,16.19c0,17.72-19.251,40.668-48.445,43.218
	l-2.804,9.178c-3.188,10.582-7.521,18.486-12.366,24.095c13.895,12.367,27.282,27.792,43.217,27.792
	c6.502,0,12.239-2.04,19.123-8.414l4.972,6.757c-7.267,6.884-14.406,9.689-22.82,9.689c-19.505,0-34.676-17.849-48.827-31.489
	c-6.884,5.864-14.661,8.286-22.31,8.286c-13.258,0-20.27-7.011-20.27-14.661c0-7.011,5.736-13.641,16.445-13.641
	c8.924,0,17.083,4.717,24.859,10.964c3.57-4.589,6.884-10.964,9.562-19.633L76.209,67.274z M60.273,99.91
	c-7.012-6.119-14.024-10.581-21.162-10.581c-7.14,0-11.092,4.208-11.092,8.797c0,5.099,5.227,9.434,13.896,9.434
	C47.015,107.56,53.899,105.902,60.273,99.91z M86.535,61.792c24.478-3.06,41.178-22.947,41.178-37.354
	c0-7.776-4.717-10.963-10.072-10.963c-11.601,0-21.289,15.808-27.282,35.823L86.535,61.792z"/>
<path stroke="#000000" stroke-width="0.25" stroke-miterlimit="10" d="M179.354,45.729l-13.259,43.218
	c-1.912,6.375-2.422,13.386,4.08,13.386c8.414,0,17.083-12.748,24.095-27.409c1.147,0,2.932,1.02,3.569,1.785
	c-7.777,16.574-18.23,31.617-30.851,31.617c-8.415,0-10.583-6.12-10.199-12.749c-5.865,7.649-14.024,12.749-23.203,12.749
	c-12.11,0-20.269-7.904-20.269-22.31c0-20.016,14.278-41.305,33.401-41.305c10.326,0,17.593,5.992,19.377,16.956l4.844-15.937
	H179.354z M147.61,52.358c-14.023,0-25.624,16.829-25.624,32.509c0,10.709,5.864,16.445,14.661,16.445
	c14.278,0,25.752-16.828,25.752-32.508C162.398,58.223,156.406,52.358,147.61,52.358z"/>
<path stroke="#000000" stroke-width="0.25" stroke-miterlimit="10" d="M275.207,17.173c-24.732,2.295-33.529,16.956-33.529,30.596
	c0,6.375,1.913,12.366,5.865,17.211l-5.992,4.716c-5.355-5.864-8.032-13.258-8.032-21.162c0-19.123,15.044-37.353,48.955-37.353
	c23.967,0,42.708,9.051,42.708,27.282c0,11.983-8.159,21.417-21.8,24.731c12.366,4.717,18.231,14.789,18.231,24.987
	c0,18.358-15.427,29.959-34.676,29.959c-12.494,0-23.203-4.08-31.362-10.836h-7.904L275.207,17.173z M270.363,60.9l-12.621,41.178
	c6.884,5.991,16.701,9.051,26.899,9.051c15.68,0,28.429-9.562,28.429-24.604c0-9.179-5.991-18.868-18.868-22.182h-1.784
	C285.916,64.343,278.394,63.194,270.363,60.9z M283.876,16.791l-12.11,39.647c6.883,1.786,13.003,2.678,18.613,2.678
	c17.975,0,26.262-10.453,26.262-20.652C316.641,24.821,303.509,17.173,283.876,16.791z"/>
<path stroke="#000000" stroke-width="0.25" stroke-miterlimit="10" d="M394.548,76.708c-7.776,16.574-21.163,31.744-41.05,31.744
	c-15.681,0-26.135-9.306-26.135-25.497c0-18.358,13.641-38.245,33.912-38.245c11.346,0,17.465,6.247,17.465,13.768
	c0,10.582-12.493,24.223-42.58,22.183v1.657c0,13.004,7.777,20.143,19.76,20.143c15.298,0,27.919-12.494,35.059-27.537
	C392.126,74.923,393.911,75.943,394.548,76.708z M336.67,76.835c24.223,0.766,34.548-9.307,34.548-17.083
	c0-4.334-3.059-7.904-9.943-7.904C348.526,51.849,338.838,63.832,336.67,76.835z"/>
<path stroke="#000000" stroke-width="0.25" stroke-miterlimit="10" d="M416.595,18.065L395.687,86.27
	c-2.167,7.012-2.804,16.063,5.864,16.063c9.18,0,17.339-12.239,24.605-27.409c1.147,0,2.933,1.02,3.569,1.785
	c-8.286,17.593-17.975,31.617-31.105,31.617c-13.514,0-14.023-13.132-10.709-23.84l20.271-66.419H416.595z"/>
<path stroke="#000000" stroke-width="0.25" stroke-miterlimit="10" d="M451.775,18.065L430.867,86.27
	c-2.167,7.012-2.805,16.063,5.865,16.063c9.178,0,17.337-12.239,24.604-27.409c1.147,0,2.932,1.02,3.569,1.785
	c-8.286,17.593-17.975,31.617-31.106,31.617c-13.513,0-14.023-13.132-10.709-23.84l20.271-66.419H451.775z"/>
<path stroke="#000000" stroke-width="0.25" stroke-miterlimit="10" d="M526.731,76.708c-7.777,16.574-21.163,31.744-41.051,31.744
	c-15.681,0-26.135-9.306-26.135-25.497c0-18.358,13.641-38.245,33.911-38.245c11.346,0,17.465,6.247,17.465,13.768
	c0,10.582-12.494,24.223-42.58,22.183v1.657c0,13.004,7.776,20.143,19.76,20.143c15.299,0,27.919-12.494,35.059-27.537
	C524.309,74.923,526.093,75.943,526.731,76.708z M468.853,76.835c24.222,0.766,34.548-9.307,34.548-17.083
	c0-4.334-3.06-7.904-9.944-7.904C480.708,51.849,471.02,63.832,468.853,76.835z"/>
<path stroke="#000000" stroke-width="0.25" stroke-miterlimit="10" d="M746.339,18.065l-21.672,70.881
	c-1.784,5.864-2.55,13.386,3.951,13.386c8.416,0,17.211-12.748,24.223-27.409c1.147,0,2.932,1.02,3.569,1.785
	c-7.777,16.574-18.229,31.617-30.851,31.617c-8.413,0-10.581-6.247-10.198-12.876c-5.865,7.777-14.151,12.876-23.458,12.876
	c-11.982,0-20.142-7.904-20.142-22.438c0-19.888,14.279-41.178,33.401-41.178c10.453,0,17.721,6.12,19.377,17.338l13.514-43.982
	H746.339z M706.054,52.358c-14.152,0-25.624,16.956-25.624,32.509c0,10.709,5.991,16.445,14.661,16.445
	c14.279,0,25.75-16.828,25.75-32.508C720.841,57.968,714.723,52.358,706.054,52.358z"/>
<path stroke="#000000" stroke-width="0.25" stroke-miterlimit="10" d="M825.116,18.065l-21.673,70.881
	c-1.784,5.864-2.55,13.386,3.952,13.386c8.414,0,17.21-12.748,24.223-27.409c1.146,0,2.933,1.02,3.568,1.785
	c-7.776,16.574-18.229,31.617-30.851,31.617c-8.413,0-10.581-6.247-10.199-12.876c-5.864,7.777-14.149,12.876-23.458,12.876
	c-11.983,0-20.142-7.904-20.142-22.438c0-19.888,14.278-41.178,33.401-41.178c10.453,0,17.721,6.12,19.377,17.338l13.514-43.982
	H825.116z M784.831,52.358c-14.152,0-25.624,16.956-25.624,32.509c0,10.709,5.991,16.445,14.661,16.445
	c14.279,0,25.75-16.828,25.75-32.508C799.618,57.968,793.501,52.358,784.831,52.358z"/>
<path stroke="#000000" stroke-width="0.25" stroke-miterlimit="10" d="M831.609,74.923c3.568-7.649,7.266-16.955,9.688-24.605
	c-1.656-1.529-2.677-3.314-2.677-5.736c0-3.442,2.551-6.247,5.865-6.247c2.422,0,4.206,1.275,5.226,3.06l-2.296,6.247l7.269,2.55
	c13.004,4.717,15.809,11.346,12.11,23.33l-4.718,15.426c-1.912,6.375-2.294,13.386,4.08,13.386c8.543,0,17.21-12.748,24.223-27.409
	c1.146,0,2.933,1.02,3.568,1.785c-7.776,16.574-18.229,31.617-30.978,31.617c-11.982,0-11.219-12.876-8.668-21.291l4.588-14.788
	c2.55-8.414,2.933-13.386-5.992-16.828l-8.03-3.06c-2.55,7.777-5.993,16.446-9.69,24.35
	C834.031,76.581,832.247,75.688,831.609,74.923z"/>
<path stroke="#000000" stroke-width="0.25" stroke-miterlimit="10" d="M955.773,76.708c-7.777,16.574-21.162,31.744-41.05,31.744
	c-15.682,0-26.135-9.306-26.135-25.497c0-18.358,13.641-38.245,33.909-38.245c11.349,0,17.468,6.247,17.468,13.768
	c0,10.582-12.495,24.223-42.581,22.183v1.657c0,13.004,7.776,20.143,19.762,20.143c15.297,0,27.917-12.494,35.058-27.537
	C953.352,74.923,955.135,75.943,955.773,76.708z M897.896,76.835c24.221,0.766,34.548-9.307,34.548-17.083
	c0-4.334-3.059-7.904-9.945-7.904C909.752,51.849,900.062,63.832,897.896,76.835z"/>
<path stroke="#000000" stroke-width="0.25" stroke-miterlimit="10" d="M975.397,43.689c5.482,12.876,19.123,28.557,19.123,42.07
	c0,5.482-1.656,10.453-4.589,14.406c9.943-5.227,16.318-14.534,21.416-25.242c1.147,0,2.934,1.02,3.57,1.785
	c-7.649,16.318-20.524,31.744-41.687,31.744c-17.85,0-26.773-10.963-26.773-22.055c0-2.932,0.639-5.991,2.039-8.923
	c0.64-2.167,2.68-3.697,5.101-3.697h0.127c4.973-9.051,11.22-22.056,14.917-31.488L975.397,43.689z M970.426,48.151
	c-3.696,8.669-8.542,18.868-13.004,27.155c0.892,1.02,1.531,2.295,1.531,3.697c0,2.804-2.168,4.971-4.846,5.226
	c-0.383,1.402-0.51,2.805-0.383,4.207c0.383,7.522,6.503,14.278,16.063,14.278c9.562,0,16.318-7.138,16.318-17.083
	C986.106,74.795,975.271,60.9,970.426,48.151z"/>
<path stroke="#000000" stroke-width="0.25" stroke-miterlimit="10" d="M1034.544,43.689c5.482,12.876,19.122,28.557,19.122,42.07
	c0,5.482-1.657,10.453-4.588,14.406c9.942-5.227,16.317-14.534,21.417-25.242c1.146,0,2.932,1.02,3.568,1.785
	c-7.648,16.318-20.524,31.744-41.686,31.744c-17.851,0-26.773-10.963-26.773-22.055c0-2.932,0.639-5.991,2.04-8.923
	c0.638-2.167,2.678-3.697,5.101-3.697h0.126c4.972-9.051,11.219-22.056,14.916-31.488L1034.544,43.689z M1029.572,48.151
	c-3.696,8.669-8.543,18.868-13.005,27.155c0.894,1.02,1.531,2.295,1.531,3.697c0,2.804-2.168,4.971-4.844,5.226
	c-0.384,1.402-0.51,2.805-0.384,4.207c0.384,7.522,6.501,14.278,16.063,14.278c9.562,0,16.318-7.138,16.318-17.083
	C1045.253,74.795,1034.417,60.9,1029.572,48.151z"/>
<path d="M662.401,117.376c-5.61,0-8.669-4.207-5.865-13.641l18.613-60.684h-8.542l-12.239,39.903
	c-7.902,14.406-19.376,25.497-34.419,25.497c-10.627,0-19.119-5.407-22.98-15.777c-1.419-3.812-2.23-8.276-2.264-13.417l0.128-4.972
	c0.283-3.487,0.889-6.995,1.771-10.461c5.893-23.141,24.36-44.357,44.761-44.357c11.346,0,17.593,6.628,17.593,15.553l-0.713,9.258
	l-0.773,10.571c5.021-6.668,7.86-13.997,7.86-21.104c0-13.258-9.942-21.546-24.859-21.546c-28.429,0-51.121,30.087-54.181,59.791
	l-0.382,5.482v1.402c0,23.712,13.258,36.716,31.106,36.716c13.896,0,25.114-8.159,33.529-19.887l-1.531,4.844
	c-4.844,15.681,1.275,22.438,10.582,22.438c6.757,0,11.474-4.08,14.406-7.395l-2.676-2.804
	C669.029,115.337,665.842,117.376,662.401,117.376z"/>
</svg>
