<?xml version="1.0" encoding="utf-8"?>
<!-- Generator: Adobe Illustrator 19.2.1, SVG Export Plug-In . SVG Version: 6.00 Build 0)  -->
<svg version="1.1" id="Layer_1" xmlns="http://www.w3.org/2000/svg" xmlns:xlink="http://www.w3.org/1999/xlink" x="0px" y="0px"
	 viewBox="0 0 1087.5 148.5" style="enable-background:new 0 0 1087.5 148.5;" xml:space="preserve">
<style type="text/css">
	.st0{fill:none;}
	.st1{enable-background:new    ;}
	.st2{fill:none;stroke:#000000;stroke-width:0.25;stroke-miterlimit:10;}
	.st3{fill:#FFFFFF;}
</style>
<rect x="498.4" y="-218.6" class="st0" width="582.6" height="74.4"/>
<text transform="matrix(1 0 0 1 498.3691 -169.6431)" style="font-family:'ArialMT'; font-size:70px;">L</text>
<text transform="matrix(1 0 0 1 498.3691 -169.6431)" class="st2" style="font-family:'ArialMT'; font-size:70px;">L</text>
<text transform="matrix(1 0 0 1 549.1191 -169.6431)" style="font-family:'ArialMT'; font-size:70px;">a </text>
<text transform="matrix(1 0 0 1 549.1191 -169.6431)" class="st2" style="font-family:'ArialMT'; font-size:70px;">a </text>
<text transform="matrix(1 0 0 1 611.8381 -169.6431)" style="font-family:'ArialMT'; font-size:70px;">B</text>
<text transform="matrix(1 0 0 1 611.8381 -169.6431)" class="st2" style="font-family:'ArialMT'; font-size:70px;">B</text>
<text transform="matrix(1 0 0 1 668.7471 -169.6431)" style="font-family:'ArialMT'; font-size:70px;">elle </text>
<text transform="matrix(1 0 0 1 668.7471 -169.6431)" class="st2" style="font-family:'ArialMT'; font-size:70px;">elle </text>
<text transform="matrix(1 0 0 1 794.8121 -169.6431)" style="font-family:'ArialMT'; font-size:70px;">A</text>
<text transform="matrix(1 0 0 1 794.8121 -169.6431)" class="st2" style="font-family:'ArialMT'; font-size:70px;">A</text>
<text transform="matrix(1 0 0 1 861.5221 -169.6431)" style="font-family:'ArialMT'; font-size:70px;">ddress</text>
<text transform="matrix(1 0 0 1 861.5221 -169.6431)" class="st2" style="font-family:'ArialMT'; font-size:70px;">ddress</text>
<path class="st3" d="M76.2,67.3c-20-1.1-30.9-12.2-30.9-27c0-8.8,4-16.8,10.3-22.4l4.8,5.7C55.4,28.6,53,35.1,53,41.3
	c0,11,7.9,20.1,24.7,20.9l3.7-12C87.8,29.4,99,7.6,117.3,7.6c9.3,0,16.1,5.6,16.1,16.2c0,17.7-19.3,40.7-48.4,43.2l-2.8,9.2
	c-3.2,10.6-7.5,18.5-12.4,24.1c13.9,12.4,27.3,27.8,43.2,27.8c6.5,0,12.2-2,19.1-8.4l5,6.8c-7.3,6.9-14.4,9.7-22.8,9.7
	c-19.5,0-34.7-17.8-48.8-31.5c-6.9,5.9-14.7,8.3-22.3,8.3c-13.3,0-20.3-7-20.3-14.7c0-7,5.7-13.6,16.4-13.6c8.9,0,17.1,4.7,24.9,11
	c3.6-4.6,6.9-11,9.6-19.6L76.2,67.3z M60.3,99.9c-7-6.1-14-10.6-21.2-10.6C32,89.3,28,93.5,28,98.1c0,5.1,5.2,9.4,13.9,9.4
	C47,107.6,53.9,105.9,60.3,99.9z M86.5,61.8c24.5-3.1,41.2-22.9,41.2-37.4c0-7.8-4.7-11-10.1-11c-11.6,0-21.3,15.8-27.3,35.8
	L86.5,61.8z"/>
<path class="st3" d="M179.4,45.7l-13.3,43.2c-1.9,6.4-2.4,13.4,4.1,13.4c8.4,0,17.1-12.7,24.1-27.4c1.1,0,2.9,1,3.6,1.8
	c-7.8,16.6-18.2,31.6-30.9,31.6c-8.4,0-10.6-6.1-10.2-12.7c-5.9,7.6-14,12.7-23.2,12.7c-12.1,0-20.3-7.9-20.3-22.3
	c0-20,14.3-41.3,33.4-41.3c10.3,0,17.6,6,19.4,17l4.8-15.9L179.4,45.7L179.4,45.7z M147.6,52.4c-14,0-25.6,16.8-25.6,32.5
	c0,10.7,5.9,16.4,14.7,16.4c14.3,0,25.8-16.8,25.8-32.5C162.4,58.2,156.4,52.4,147.6,52.4z"/>
<path class="st3" d="M275.2,17.2c-24.7,2.3-33.5,17-33.5,30.6c0,6.4,1.9,12.4,5.9,17.2l-6,4.7c-5.4-5.9-8-13.3-8-21.2
	c0-19.1,15-37.4,49-37.4c24,0,42.7,9.1,42.7,27.3c0,12-8.2,21.4-21.8,24.7c12.4,4.7,18.2,14.8,18.2,25c0,18.4-15.4,30-34.7,30
	c-12.5,0-23.2-4.1-31.4-10.8h-7.9L275.2,17.2z M270.4,60.9l-12.6,41.2c6.9,6,16.7,9.1,26.9,9.1c15.7,0,28.4-9.6,28.4-24.6
	c0-9.2-6-18.9-18.9-22.2h-1.8C285.9,64.3,278.4,63.2,270.4,60.9z M283.9,16.8l-12.1,39.6c6.9,1.8,13,2.7,18.6,2.7
	c18,0,26.3-10.5,26.3-20.7C316.6,24.8,303.5,17.2,283.9,16.8z"/>
<path class="st3" d="M394.5,76.7c-7.8,16.6-21.2,31.7-41,31.7c-15.7,0-26.1-9.3-26.1-25.5c0-18.4,13.6-38.2,33.9-38.2
	c11.3,0,17.5,6.2,17.5,13.8c0,10.6-12.5,24.2-42.6,22.2v1.7c0,13,7.8,20.1,19.8,20.1c15.3,0,27.9-12.5,35.1-27.5
	C392.1,74.9,393.9,75.9,394.5,76.7z M336.7,76.8c24.2,0.8,34.5-9.3,34.5-17.1c0-4.3-3.1-7.9-9.9-7.9
	C348.5,51.8,338.8,63.8,336.7,76.8z"/>
<path class="st3" d="M416.6,18.1l-20.9,68.2c-2.2,7-2.8,16.1,5.9,16.1c9.2,0,17.3-12.2,24.6-27.4c1.1,0,2.9,1,3.6,1.8
	c-8.3,17.6-18,31.6-31.1,31.6c-13.5,0-14-13.1-10.7-23.8l20.3-66.4L416.6,18.1L416.6,18.1z"/>
<path class="st3" d="M451.8,18.1l-20.9,68.2c-2.2,7-2.8,16.1,5.9,16.1c9.2,0,17.3-12.2,24.6-27.4c1.1,0,2.9,1,3.6,1.8
	c-8.3,17.6-18,31.6-31.1,31.6c-13.5,0-14-13.1-10.7-23.8l20.3-66.4L451.8,18.1L451.8,18.1z"/>
<path class="st3" d="M526.7,76.7c-7.8,16.6-21.2,31.7-41.1,31.7c-15.7,0-26.1-9.3-26.1-25.5c0-18.4,13.6-38.2,33.9-38.2
	c11.3,0,17.5,6.2,17.5,13.8c0,10.6-12.5,24.2-42.6,22.2v1.7c0,13,7.8,20.1,19.8,20.1c15.3,0,27.9-12.5,35.1-27.5
	C524.3,74.9,526.1,75.9,526.7,76.7z M468.9,76.8c24.2,0.8,34.5-9.3,34.5-17.1c0-4.3-3.1-7.9-9.9-7.9C480.7,51.8,471,63.8,468.9,76.8
	z"/>
<path class="st3" d="M746.3,18.1l-21.7,70.9c-1.8,5.9-2.5,13.4,4,13.4c8.4,0,17.2-12.7,24.2-27.4c1.1,0,2.9,1,3.6,1.8
	c-7.8,16.6-18.2,31.6-30.9,31.6c-8.4,0-10.6-6.2-10.2-12.9c-5.9,7.8-14.2,12.9-23.5,12.9c-12,0-20.1-7.9-20.1-22.4
	c0-19.9,14.3-41.2,33.4-41.2c10.5,0,17.7,6.1,19.4,17.3l13.5-44C738.1,18.1,746.3,18.1,746.3,18.1z M706.1,52.4
	c-14.2,0-25.6,17-25.6,32.5c0,10.7,6,16.4,14.7,16.4c14.3,0,25.8-16.8,25.8-32.5C720.8,58,714.7,52.4,706.1,52.4z"/>
<path class="st3" d="M825.1,18.1l-21.7,70.9c-1.8,5.9-2.5,13.4,4,13.4c8.4,0,17.2-12.7,24.2-27.4c1.1,0,2.9,1,3.6,1.8
	c-7.8,16.6-18.2,31.6-30.9,31.6c-8.4,0-10.6-6.2-10.2-12.9c-5.9,7.8-14.1,12.9-23.5,12.9c-12,0-20.1-7.9-20.1-22.4
	c0-19.9,14.3-41.2,33.4-41.2c10.5,0,17.7,6.1,19.4,17.3l13.5-44C816.8,18.1,825.1,18.1,825.1,18.1z M784.8,52.4
	c-14.2,0-25.6,17-25.6,32.5c0,10.7,6,16.4,14.7,16.4c14.3,0,25.8-16.8,25.8-32.5C799.6,58,793.5,52.4,784.8,52.4z"/>
<path class="st3" d="M831.6,74.9c3.6-7.6,7.3-17,9.7-24.6c-1.7-1.5-2.7-3.3-2.7-5.7c0-3.4,2.6-6.2,5.9-6.2c2.4,0,4.2,1.3,5.2,3.1
	l-2.3,6.2l7.3,2.5c13,4.7,15.8,11.3,12.1,23.3l-4.7,15.4c-1.9,6.4-2.3,13.4,4.1,13.4c8.5,0,17.2-12.7,24.2-27.4c1.1,0,2.9,1,3.6,1.8
	c-7.8,16.6-18.2,31.6-31,31.6c-12,0-11.2-12.9-8.7-21.3l4.6-14.8c2.5-8.4,2.9-13.4-6-16.8l-8-3.1c-2.5,7.8-6,16.4-9.7,24.3
	C834,76.6,832.2,75.7,831.6,74.9z"/>
<path class="st3" d="M955.8,76.7c-7.8,16.6-21.2,31.7-41,31.7c-15.7,0-26.1-9.3-26.1-25.5c0-18.4,13.6-38.2,33.9-38.2
	c11.3,0,17.5,6.2,17.5,13.8c0,10.6-12.5,24.2-42.6,22.2v1.7c0,13,7.8,20.1,19.8,20.1c15.3,0,27.9-12.5,35.1-27.5
	C953.4,74.9,955.1,75.9,955.8,76.7z M897.9,76.8c24.2,0.8,34.5-9.3,34.5-17.1c0-4.3-3.1-7.9-9.9-7.9
	C909.8,51.8,900.1,63.8,897.9,76.8z"/>
<path class="st3" d="M975.4,43.7c5.5,12.9,19.1,28.6,19.1,42.1c0,5.5-1.7,10.5-4.6,14.4c9.9-5.2,16.3-14.5,21.4-25.2
	c1.1,0,2.9,1,3.6,1.8c-7.6,16.3-20.5,31.7-41.7,31.7c-17.8,0-26.8-11-26.8-22.1c0-2.9,0.6-6,2-8.9c0.6-2.2,2.7-3.7,5.1-3.7h0.1
	c5-9.1,11.2-22.1,14.9-31.5L975.4,43.7z M970.4,48.2c-3.7,8.7-8.5,18.9-13,27.2c0.9,1,1.5,2.3,1.5,3.7c0,2.8-2.2,5-4.8,5.2
	c-0.4,1.4-0.5,2.8-0.4,4.2c0.4,7.5,6.5,14.3,16.1,14.3c9.6,0,16.3-7.1,16.3-17.1C986.1,74.8,975.3,60.9,970.4,48.2z"/>
<path class="st3" d="M1034.5,43.7c5.5,12.9,19.1,28.6,19.1,42.1c0,5.5-1.7,10.5-4.6,14.4c9.9-5.2,16.3-14.5,21.4-25.2
	c1.1,0,2.9,1,3.6,1.8c-7.6,16.3-20.5,31.7-41.7,31.7c-17.9,0-26.8-11-26.8-22.1c0-2.9,0.6-6,2-8.9c0.6-2.2,2.7-3.7,5.1-3.7h0.1
	c5-9.1,11.2-22.1,14.9-31.5L1034.5,43.7z M1029.6,48.2c-3.7,8.7-8.5,18.9-13,27.2c0.9,1,1.5,2.3,1.5,3.7c0,2.8-2.2,5-4.8,5.2
	c-0.4,1.4-0.5,2.8-0.4,4.2c0.4,7.5,6.5,14.3,16.1,14.3c9.6,0,16.3-7.1,16.3-17.1C1045.3,74.8,1034.4,60.9,1029.6,48.2z"/>
<path class="st3" d="M662.4,117.4c-5.6,0-8.7-4.2-5.9-13.6l18.6-60.7h-8.5L654.4,83c-7.9,14.4-19.4,25.5-34.4,25.5
	c-10.6,0-19.1-5.4-23-15.8c-1.4-3.8-2.2-8.3-2.3-13.4l0.1-5c0.3-3.5,0.9-7,1.8-10.5c5.9-23.1,24.4-44.4,44.8-44.4
	c11.3,0,17.6,6.6,17.6,15.6l-0.7,9.3l-0.8,10.6c5-6.7,7.9-14,7.9-21.1c0-13.3-9.9-21.5-24.9-21.5c-28.4,0-51.1,30.1-54.2,59.8
	l-0.4,5.5v1.4c0,23.7,13.3,36.7,31.1,36.7c13.9,0,25.1-8.2,33.5-19.9l-1.5,4.8c-4.8,15.7,1.3,22.4,10.6,22.4
	c6.8,0,11.5-4.1,14.4-7.4l-2.7-2.8C669,115.3,665.8,117.4,662.4,117.4z"/>
</svg>
