<svg xmlns="http://www.w3.org/2000/svg" xmlns:xlink="http://www.w3.org/1999/xlink" xmlns:sketch="http://www.bohemiancoding.com/sketch/ns" viewBox="0 0 100 100" version="1.1" x="0px" y="0px"><title>Snow-flake2</title><desc>Created with Sketch.</desc><g stroke="none" stroke-width="1" fill="none" fill-rule="evenodd" sketch:type="MSPage"><path d="M73.0841651,39.5023832 L85.7305481,46.7183645 C86.1326758,46.9479907 86.5718247,47.0569159 87.0050162,47.0569159 C87.8871438,47.0569159 88.7454417,46.6043925 89.2182077,45.7948131 C89.9233141,44.5878037 89.5050162,43.0447664 88.2837396,42.3478972 L78.1905481,36.5887383 L88.2837396,30.8291589 C89.5050162,30.1327103 89.9233141,28.5892523 89.2182077,27.382243 C88.5135268,26.1752336 86.9513992,25.7618224 85.7305481,26.4586916 L75.6390587,32.2170093 L75.6390587,20.7003738 C75.6390587,19.3070561 74.49608,18.1770093 73.0858673,18.1770093 C71.67608,18.1770093 70.5326758,19.3070561 70.5326758,20.7003738 L70.5326758,35.1306542 L52.5462928,45.3935981 L52.5462928,25.5914953 L65.6382077,18.1210748 C66.8594843,17.4242056 67.2777821,15.8811682 66.5731013,14.6741589 C65.8679949,13.4675701 64.3062928,13.0533178 63.0850162,13.7506075 L52.5462928,19.763785 L52.5462928,7.52336449 C52.5462928,6.13004673 51.4033141,5 49.9931013,5 C48.5833141,5 47.4399098,6.13004673 47.4399098,7.52336449 L47.4399098,19.763785 L36.9016119,13.7506075 C35.6799098,13.0537383 34.1186332,13.4675701 33.4135268,14.6741589 C32.7084204,15.8811682 33.1271438,17.4242056 34.3484204,18.1210748 L47.4399098,25.5914953 L47.4399098,45.3935981 L30.5241651,35.7413084 L30.5241651,21.3396262 C30.5241651,19.9458879 29.3807609,18.8162617 27.9709736,18.8162617 C26.5607609,18.8162617 25.4177821,19.9458879 25.4177821,21.3396262 L25.4177821,32.8276636 L14.25608,26.4586916 C13.0356545,25.762243 11.4735268,26.1752336 10.7679949,27.382243 C10.0633141,28.5892523 10.4816119,30.1327103 11.7028885,30.8291589 L22.8318247,37.1796262 L11.7028885,43.5300935 C10.4816119,44.2265421 10.0633141,45.77 10.7679949,46.9770093 C11.2411864,47.7865888 12.0990587,48.2391121 12.9816119,48.2391121 C13.4148034,48.2391121 13.8539524,48.1301869 14.25608,47.9005607 L27.9382077,40.0936916 L44.8867183,49.764486 L27.5518247,59.6556542 L13.8301226,51.8260748 C12.6092715,51.1296262 11.0479949,51.5430374 10.342463,52.7500467 C9.63735661,53.9566355 10.05608,55.5000935 11.2769311,56.1969626 L22.4454417,62.5697196 L11.7028885,68.6993925 C10.4816119,69.3962617 10.0633141,70.9397196 10.7679949,72.1463084 C11.2411864,72.9558879 12.0990587,73.4084112 12.9816119,73.4084112 C13.4148034,73.4084112 13.8539524,73.299486 14.25608,73.0698598 L24.9922502,66.943972 L24.9922502,78.3874299 C24.9922502,79.7811682 26.135229,80.9107944 27.5454417,80.9107944 C28.955229,80.9107944 30.0986332,79.7811682 30.0986332,78.3874299 L30.0986332,64.0303271 L47.4399098,54.1349533 L47.4399098,73.8928972 L34.2705481,81.4078972 C33.0492715,82.1047664 32.6309736,83.6478037 33.33608,84.8548131 C34.0411864,86.0618224 35.6028885,86.4748131 36.8237396,85.7783645 L47.4399098,79.7206075 L47.4399098,92.0051869 C47.4399098,93.3985047 48.5833141,94.5285514 49.9931013,94.5285514 C51.4033141,94.5285514 52.5462928,93.3985047 52.5462928,92.0051869 L52.5462928,79.7206075 L63.1628885,85.7783645 C63.5650162,86.0079907 64.0037396,86.1169159 64.4369311,86.1169159 C65.3194843,86.1169159 66.1777821,85.6643925 66.6505481,84.8548131 C67.3556545,83.6478037 66.9369311,82.1047664 65.71608,81.4078972 L52.5462928,73.8928972 L52.5462928,54.1349533 L70.5326758,64.3978972 L70.5326758,78.8281776 C70.5326758,80.2219159 71.67608,81.3515421 73.0858673,81.3515421 C74.49608,81.3515421 75.6390587,80.2219159 75.6390587,78.8281776 L75.6390587,67.3119626 L85.7305481,73.0698598 C86.1326758,73.299486 86.5718247,73.4084112 87.0050162,73.4084112 C87.8871438,73.4084112 88.7454417,72.9558879 89.2182077,72.1463084 C89.9233141,70.9397196 89.5050162,69.3962617 88.2837396,68.6993925 L78.1905481,62.9402336 L88.2837396,57.1810748 C89.5050162,56.4842056 89.9233141,54.9411682 89.2182077,53.7341589 C88.5135268,52.5271495 86.9513992,52.1137383 85.7305481,52.8106075 L73.0841651,60.0265888 L55.0999098,49.764486 L73.0841651,39.5023832" fill="#000000" sketch:type="MSShapeGroup"></path></g></svg>