<svg xmlns="http://www.w3.org/2000/svg" xmlns:xlink="http://www.w3.org/1999/xlink" version="1.1" x="0px" y="0px" viewBox="-370 248.3 100 100" enable-background="new -370 248.3 100 100" xml:space="preserve"><g><path fill="#000000" d="M-310.3,308.6v-45.9c0-7.1-5.8-12.9-12.9-12.9c-7.1,0-12.9,5.8-12.9,12.9v45.9c-4.4,3.8-7,9.3-7,15.1   c0,11,8.9,19.9,19.9,19.9c11,0,19.9-8.9,19.9-19.9C-303.3,317.9-305.9,312.4-310.3,308.6z M-323.2,337.3c-7.5,0-13.6-6.1-13.6-13.6   c0-4.4,2.1-8.5,5.7-11l1.3-0.9v-9.1h6.7v-6.2h-6.7v-4.2h6.7V286h-6.7v-4.2h6.7v-6.2h-6.7v-4.2h6.7v-6.2h-6.7v-2.4   c0-3.7,3-6.7,6.7-6.7s6.7,3,6.7,6.7v49l1.3,0.9c3.6,2.6,5.7,6.7,5.7,11C-309.6,331.2-315.7,337.3-323.2,337.3z"></path></g></svg>