<?xml version="1.0" encoding="utf-8"?>
<!-- Generator: Adobe Illustrator 16.0.4, SVG Export Plug-In . SVG Version: 6.00 Build 0)  -->
<!DOCTYPE svg PUBLIC "-//W3C//DTD SVG 1.1//EN" "http://www.w3.org/Graphics/SVG/1.1/DTD/svg11.dtd">
<svg version="1.1" id="Layer_1" xmlns="http://www.w3.org/2000/svg" xmlns:xlink="http://www.w3.org/1999/xlink" x="0px" y="0px"
	 width="85.604px" height="82px" viewBox="0 0 85.604 82" enable-background="new 0 0 85.604 82" xml:space="preserve">
<g>
	<circle fill="#F0F8FF" stroke="#0066CC" stroke-width="4" stroke-miterlimit="10" cx="43.583" cy="40.742" r="36.5"/>
</g>
<g>
	<g>
		<g>
			<path fill="#0066CC" d="M26.455,49.857c6.231-7.277,12.464-14.557,18.695-21.834c2.085-2.435-1.435-5.988-3.534-3.535
				c-6.232,7.278-12.465,14.557-18.696,21.835C20.835,48.758,24.355,52.312,26.455,49.857L26.455,49.857z"/>
		</g>
	</g>
	<g>
		<g>
			<path fill="#0066CC" d="M64.247,46.323c-6.232-7.279-12.464-14.557-18.696-21.835c-2.1-2.453-5.62,1.101-3.535,3.535
				c6.232,7.279,12.464,14.557,18.696,21.834C62.812,52.312,66.332,48.758,64.247,46.323L64.247,46.323z"/>
		</g>
	</g>
</g>
<rect x="-108.698" y="-51.5" fill="#0066CC" width="48" height="61"/>
</svg>
