<?xml version="1.0" encoding="utf-8"?>
<!-- Generator: Adobe Illustrator 16.0.4, SVG Export Plug-In . SVG Version: 6.00 Build 0)  -->
<!DOCTYPE svg PUBLIC "-//W3C//DTD SVG 1.1//EN" "http://www.w3.org/Graphics/SVG/1.1/DTD/svg11.dtd">
<svg version="1.1" id="Layer_1" xmlns="http://www.w3.org/2000/svg" xmlns:xlink="http://www.w3.org/1999/xlink" x="0px" y="0px"
	 width="85.604px" height="82px" viewBox="0 0 85.604 82" enable-background="new 0 0 85.604 82" xml:space="preserve">
<g>
	<circle cx="43.583" cy="40.742" r="36.5"/>
	<g>
		<path fill="#FFFFFF" d="M77.583,40.742c-0.354,18.797-15.203,33.646-34,34c-18.798,0.354-33.656-15.735-34-34
			c-0.354-18.798,15.735-33.656,34-34C62.381,6.388,77.239,22.478,77.583,40.742c0.061,3.22,5.061,3.226,5,0
			c-0.405-21.537-17.463-38.595-39-39c-21.538-0.405-38.606,18.073-39,39c-0.405,21.538,18.073,38.606,39,39
			c21.538,0.405,38.606-18.073,39-39C82.644,37.516,77.644,37.522,77.583,40.742z"/>
	</g>
</g>
<g>
	<g>
		<g>
			<path fill="#FFFFFF" d="M26.455,49.858c6.232-7.278,12.464-14.557,18.696-21.835c2.085-2.435-1.435-5.988-3.535-3.535
				c-6.232,7.278-12.464,14.557-18.696,21.835C20.835,48.758,24.355,52.312,26.455,49.858L26.455,49.858z"/>
		</g>
	</g>
	<g>
		<g>
			<path fill="#FFFFFF" d="M64.247,46.323c-6.232-7.279-12.464-14.557-18.696-21.835c-2.1-2.453-5.62,1.101-3.535,3.535
				c6.232,7.279,12.464,14.557,18.696,21.835C62.812,52.312,66.332,48.758,64.247,46.323L64.247,46.323z"/>
		</g>
	</g>
</g>
</svg>
