<svg xmlns="http://www.w3.org/2000/svg" xmlns:xlink="http://www.w3.org/1999/xlink" version="1.1" x="0px" y="0px" viewBox="0 0 48 48" enable-background="new 0 0 48 48" xml:space="preserve"><g><g><line fill="none" stroke="#000000" stroke-width="2" stroke-linecap="round" stroke-linejoin="round" stroke-miterlimit="10" x1="6.995" y1="18.488" x2="6.995" y2="47"></line><g><line fill="none" stroke="#000000" stroke-width="2" stroke-linecap="round" stroke-linejoin="round" stroke-miterlimit="10" x1="1" y1="1" x2="1" y2="12.695"></line><line fill="none" stroke="#000000" stroke-width="2" stroke-linecap="round" stroke-linejoin="round" stroke-miterlimit="10" x1="6.995" y1="1" x2="6.995" y2="12.695"></line><line fill="none" stroke="#000000" stroke-width="2" stroke-linecap="round" stroke-linejoin="round" stroke-miterlimit="10" x1="12.99" y1="1" x2="12.99" y2="12.695"></line></g><path fill="none" stroke="#000000" stroke-width="2" stroke-linecap="round" stroke-linejoin="round" stroke-miterlimit="10" d="    M12.99,12.695c0,3.201-2.684,5.793-5.995,5.793S1,15.896,1,12.695"></path></g><g><line fill="none" stroke="#000000" stroke-width="2" stroke-linecap="round" stroke-linejoin="round" stroke-miterlimit="10" x1="26.896" y1="18.488" x2="26.896" y2="47"></line><line fill="none" stroke="#000000" stroke-width="2" stroke-linecap="round" stroke-linejoin="round" stroke-miterlimit="10" x1="20.901" y1="6.354" x2="20.901" y2="12.695"></line><line fill="none" stroke="#000000" stroke-width="2" stroke-linecap="round" stroke-linejoin="round" stroke-miterlimit="10" x1="32.892" y1="6.354" x2="32.892" y2="12.695"></line><path fill="none" stroke="#000000" stroke-width="2" stroke-linecap="round" stroke-linejoin="round" stroke-miterlimit="10" d="    M32.892,12.695c0,3.201-2.685,5.793-5.995,5.793s-5.995-2.592-5.995-5.793"></path><path fill="none" stroke="#000000" stroke-width="2" stroke-linecap="round" stroke-linejoin="round" stroke-miterlimit="10" d="    M20.901,6.793C20.901,3.594,23.586,1,26.896,1s5.995,2.594,5.995,5.793"></path></g><path fill="none" stroke="#000000" stroke-width="2" stroke-linecap="round" stroke-linejoin="round" stroke-miterlimit="10" d="   M47,1v46h-5.859l1.374-13.598c0,0-4.834-0.18-3.423-5.443C40.502,22.691,41.141,2.785,47,1z"></path></g></svg>