<svg xmlns="http://www.w3.org/2000/svg" xmlns:xlink="http://www.w3.org/1999/xlink" version="1.1" x="0px" y="0px" viewBox="0 0 100 100" enable-background="new 0 0 100 100" xml:space="preserve"><path d="M90.6,69.4c0.5-1,0.3-2.1-0.5-2.8c-0.7-0.8-1.9-0.9-2.8-0.5C81.9,68.7,76,70,70,70c-22.1,0-40-17.9-40-40  c0-6,1.3-11.9,3.9-17.3c0.5-1,0.3-2.1-0.5-2.8c-0.8-0.7-1.9-0.9-2.8-0.5C15,16.8,5,32.8,5,50c0,24.8,20.2,45,45,45  C67.2,95,83.2,85,90.6,69.4z M50,90c-22.1,0-40-17.9-40-40c0-13,6.4-25.1,16.8-32.6C25.6,21.5,25,25.7,25,30c0,24.8,20.2,45,45,45  c4.3,0,8.5-0.6,12.6-1.8C75.1,83.6,63,90,50,90z"></path></svg>