<svg xmlns="http://www.w3.org/2000/svg" xmlns:xlink="http://www.w3.org/1999/xlink" version="1.1" x="0px" y="0px" viewBox="0 0 50 50" enable-background="new 0 0 50 50" xml:space="preserve"><g><path fill="#000000" d="M28.252,1.413c-0.604-0.24-1.294-0.081-1.729,0.402c-0.431,0.486-0.512,1.194-0.197,1.761   c1.852,3.373,2.79,6.979,2.79,10.721c0,12.277-10.471,22.758-24.36,24.375c-0.606,0.072-1.113,0.494-1.293,1.084   c-0.177,0.583,0.009,1.218,0.477,1.614c4.288,3.646,9.737,5.646,15.341,5.646c13.06,0,23.689-10.624,23.689-23.689   C42.972,13.654,37.192,5.052,28.252,1.413z M19.283,43.945c-3.69,0-7.303-0.994-10.459-2.857   c13.553-3.102,23.365-14.085,23.365-26.789c0-2.754-0.449-5.441-1.33-8.032c5.596,3.772,9.037,10.097,9.037,17.064   C39.897,34.698,30.65,43.945,19.283,43.945z"></path></g></svg>