<?xml version="1.0" encoding="utf-8"?>
<!-- Generator: Adobe Illustrator 19.2.1, SVG Export Plug-In . SVG Version: 6.00 Build 0)  -->
<svg version="1.1" id="Layer_1" xmlns="http://www.w3.org/2000/svg" xmlns:xlink="http://www.w3.org/1999/xlink" x="0px" y="0px"
	 viewBox="0 0 53.8 56.5" style="enable-background:new 0 0 53.8 56.5;" xml:space="preserve">
<style type="text/css">
	.st0{fill:#565A5C;stroke:#565A5C;stroke-width:0.75;stroke-miterlimit:10;}
	.st1{fill:#FFFFFF;}
	.st2{fill:#565A5C;stroke:#565A5C;stroke-width:0.5;stroke-miterlimit:10;}
	.st3{fill:#565A5C;}
	.st4{fill:#565A5C;stroke:#565A5C;stroke-width:0.25;stroke-miterlimit:10;}
</style>
<path class="st0" d="M47.6,29.6C47.6,29.6,47.7,29.7,47.6,29.6c0,0.2,0,0.4-0.1,0.6c-0.1,0.3-0.2,0.5-0.3,0.8c0,0.1-0.1,0.2-0.1,0.3
	c0.3,0,0.6,0,0.9,0c0.2,0,0.4,0,0.6,0c0.7,0,1.3,0.3,1.8,0.8c0.4,0.4,0.6,0.8,0.6,1.4c0,0.3,0.2,0.5,0.2,0.8
	c0.1,0.6,0.2,1.1,0.2,1.7c0,0.4-0.1,0.7-0.2,1.1c0,0.3-0.2,0.6-0.3,0.8c-0.1,0.3-0.4,0.6-0.5,0.9c0,0.1-0.1,0.2-0.1,0.3
	c0,0.1-0.1,0.1-0.2,0.2c-0.1,0.1-0.1,0.2-0.2,0.2c0,0,0,0.1-0.1,0.1c-0.3,0.2-0.6,0.4-0.9,0.6c-0.2,0.2-0.5,0.2-0.8,0.3
	c-0.2,0.1-0.3,0.2-0.5,0.2c-0.1,0-0.1,0-0.2,0c0.1,0,0.3,0.1,0.4,0.1c0.4,0.2,0.9,0.4,1.3,0.5c0.1,0.1,0.3,0.1,0.4,0.1
	c0.2,0,0.3,0.1,0.4,0.3c0,0,0.1,0,0.2,0.1c0.1,0.1,0.3,0.3,0.4,0.5c0.3,0.4,0.5,0.8,0.8,1.1c0.2,0.4,0.4,0.8,0.6,1.2
	c0.1,0.3,0.1,0.6,0.2,0.9c0.1,0.3,0,0.7,0.1,1c0.2,0.5-0.1,0.9,0,1.3c0,0.1-0.1,0.2-0.1,0.3c-0.1,0.3,0,0.7-0.2,1c0,0.1,0,0.2,0,0.3
	c-0.1,0.3-0.2,0.6-0.2,0.8c-0.1,0.2-0.1,0.4-0.2,0.6c-0.1,0.2-0.1,0.4-0.3,0.5c-0.1,0.1-0.2,0.2-0.3,0.4c-0.1,0.2-0.2,0.4-0.3,0.6
	c-0.1,0.2-0.2,0.4-0.4,0.5c-0.1,0.2-0.3,0.4-0.4,0.6c-0.3,0.4-0.7,0.7-1.2,0.8c-0.2,0.1-0.5,0.3-0.7,0.4c-0.3,0.1-0.6,0.2-0.9,0.1
	c-0.5-0.1-0.9-0.2-1.3-0.4c-0.1-0.1-0.3-0.1-0.5-0.2c-0.2-0.1-0.3-0.2-0.5-0.3c-0.2-0.2-0.3-0.3-0.5-0.5c-0.2-0.1-0.3-0.3-0.4-0.5
	c-0.1-0.1-0.2-0.3-0.2-0.5c0,0.1-0.1,0.1-0.1,0.2c-0.1,0.3-0.4,0.2-0.6,0.3c0,0-0.1,0.1-0.1,0.1c0,0-0.1,0.1-0.1,0.1
	c-0.3,0.1-0.5,0.2-0.8,0.3c-0.3,0.1-0.6,0.2-1,0.3c0,0,0,0-0.1,0c-0.1-0.1-0.3-0.1-0.4-0.1c-0.1,0-0.2,0-0.3-0.1
	c-0.1-0.1-0.2-0.2-0.4-0.2c-0.1,0-0.2-0.1-0.2-0.1c-0.1,0-0.2-0.1-0.4-0.1c0,0,0,0,0-0.1c0.1,0,0.2,0.1,0.3,0.1c0,0,0,0,0,0
	c-0.1,0-0.3-0.2-0.3-0.1c-0.2,0.1-0.3-0.1-0.4-0.2c-0.2-0.2-0.4-0.4-0.6-0.7c-0.1-0.1-0.1-0.2-0.1-0.2c-0.2-0.4-0.5-0.7-0.6-1.2
	c0,0,0,0,0-0.1c-0.2-0.2-0.2-0.5-0.2-0.7c0-0.2-0.1-0.4-0.2-0.6c0-0.1,0-0.2,0-0.3c0-0.2,0-0.3-0.1-0.5c-0.1-0.6-0.3-1.2-0.7-1.7
	c-0.1-0.1-0.2-0.1-0.3-0.2c-0.1-0.1-0.2-0.2-0.3-0.3c-0.1-0.1-0.2-0.1-0.3-0.2c-0.1-0.2-0.2-0.4-0.4-0.5c-0.1-0.1-0.3-0.2-0.4-0.4
	c-0.1-0.2-0.2-0.4-0.3-0.5c-0.1-0.2-0.3-0.4-0.4-0.6c-0.1-0.2-0.2-0.4-0.4-0.7c0-0.1-0.1-0.1-0.2-0.1c-0.1-0.2-0.3-0.5-0.4-0.7
	c-0.1-0.1-0.2-0.2-0.2-0.4c-0.1-0.1-0.2-0.2-0.2-0.4c-0.1-0.2-0.2-0.3-0.4-0.5c-0.2-0.2-0.3-0.5-0.5-0.7c-0.3-0.3-0.5-0.7-0.7-1
	c-0.1-0.2-0.2-0.3-0.3-0.5c-0.1,0.1-0.2,0.1-0.2,0.2c-0.2,0.1-0.4,0.2-0.5,0.3c-0.4,0.3-0.8,0.5-1.2,0.8c-0.3,0.2-0.6,0.3-0.8,0.7
	c-0.1,0.1-0.2,0.1-0.3,0.2c-0.3,0.3-0.6,0.5-0.9,0.8c-0.1,0.1-0.2,0.2-0.2,0.3c0,0.1-0.2,0.1-0.3,0.1c-0.1,0-0.2,0-0.2,0
	c0,0,0.1,0.1,0.1,0.1c0,0,0,0,0-0.1c-0.3,0.2-0.5,0.5-0.9,0.6c0,0,0,0.1,0,0.1c-0.1,0-0.1,0.1-0.2,0.1c-0.1,0.1-0.2,0.2-0.4,0.3
	c-0.1,0-0.1,0-0.2,0.1c-0.1,0-0.2,0.1-0.3,0.2c0,0,0,0.1-0.1,0.1c-0.2,0.1-0.4,0.2-0.5,0.4c-0.1,0.1-0.2,0.1-0.3,0.2
	c-0.2,0.1-0.3,0.2-0.5,0.4c-0.1,0.1-0.3,0.2-0.4,0.3c-0.1,0.1-0.2,0.2-0.3,0.3c-0.1,0-0.2,0-0.3,0.1c-0.2,0.1-0.5,0.3-0.7,0.4
	c-0.2,0.1-0.3,0.2-0.5,0.3c0,0-0.1,0-0.1,0c-0.1,0.1-0.2,0.1-0.3,0.2c-0.2,0.1-0.5,0.1-0.7,0.2c0,0,0,0,0,0C19.1,47,18.8,47,18.5,47
	c-0.2,0.1-0.4,0.1-0.6,0.1c-0.2,0-0.3,0.1-0.5,0.2c0,0-0.1,0-0.1,0c-0.3,0-0.6,0.1-0.9,0.2c-0.1,0-0.3,0-0.4,0
	c-0.4,0.1-0.7,0-1.1-0.1c0,0-0.1,0-0.1,0c-0.2,0-0.3,0-0.5-0.1c-0.2-0.1-0.4-0.1-0.6-0.1c-0.1,0-0.2-0.1-0.3-0.1c-0.1,0-0.2,0-0.2,0
	c-0.1,0-0.1,0-0.2-0.1c-0.3,0-0.6-0.2-0.8-0.3c-0.3-0.2-0.7-0.4-1-0.6c-0.2-0.1-0.3-0.3-0.4-0.5c-0.1-0.4-0.2-0.8-0.4-1.1
	C10,43.7,10,43,10,42.3c0-0.4,0.1-0.9,0.1-1.3c0,0,0,0,0,0c0.2-0.2,0-0.4-0.1-0.5c-0.2-0.2-0.4-0.4-0.6-0.7
	c-0.1-0.2-0.3-0.3-0.5-0.5c-0.2-0.2-0.4-0.4-0.7-0.7c-0.2-0.2-0.5-0.4-0.6-0.6c-0.1-0.1-0.2-0.3-0.3-0.4c-0.1-0.1-0.3-0.2-0.4-0.4
	C6.9,37.1,6.8,37,6.8,37c-0.1-0.1-0.1-0.3-0.1-0.4c0-0.2,0.1-0.2,0.2-0.3c0.1,0,0.2-0.2,0.3-0.3c0.1,0,0.2,0,0.2-0.2
	c0,0,0.1-0.1,0.2-0.1c0.1-0.1,0.3-0.2,0.4-0.2c0.1-0.1,0.3-0.1,0.4-0.1c0.3-0.1,0.5-0.1,0.8-0.1c0,0,0,0,0-0.1
	c-0.3-0.1-0.7-0.3-1-0.4c-0.3-0.1-0.6-0.2-0.9-0.3c-0.2-0.1-0.4-0.2-0.7-0.3c0,0-0.1-0.1-0.1-0.1c-0.2,0-0.3,0-0.5,0
	c-0.2,0-0.1-0.3-0.2-0.3C6,33.6,6,33.6,6.1,33.5c0.1-0.1,0.1-0.2,0.2-0.2c0.1-0.1,0.3-0.1,0.4-0.2c0,0,0,0,0.1,0
	c0.2-0.2,0.3-0.3,0.4-0.5c0.2-0.2,0.4-0.4,0.5-0.6c0.2-0.3,0.5-0.5,0.5-0.8c0-0.3,0.3-0.5,0.5-0.7c-0.1,0-0.3,0-0.4,0
	c-0.8,0-1.5-0.1-2.3-0.1c-0.2,0-0.4,0-0.7-0.1C5.2,30.1,5.1,30,5,30c-0.2-0.1-0.5-0.1-0.7-0.2c-0.3-0.1-0.6-0.1-0.8-0.1
	c-0.1,0-0.2,0-0.3,0c-0.1,0-0.2,0-0.4,0c-0.1,0-0.1,0-0.2,0c-0.3,0-0.4,0-0.5-0.3c0-0.1,0-0.3,0.1-0.3c0-0.1,0-0.2,0-0.3
	c-0.1-0.2,0-0.4,0.1-0.5c0-0.1,0-0.1,0-0.2c0.1-0.1,0.2-0.3,0.3-0.5C2.6,27.2,2.8,27,3,26.8c0.1-0.1,0.1-0.3,0.2-0.4
	c0.2-0.4,0.3-0.8,0.5-1.2c0.2-0.4,0.3-0.7,0.5-1c0-0.1,0.1-0.1,0.1-0.2c0.1-0.3,0.3-0.6,0.4-0.8c0-0.1,0-0.1,0-0.2
	c0.1-0.1,0.1-0.3,0.2-0.4c0-0.4,0.3-0.7,0.4-1c0.1-0.2,0.2-0.4,0.4-0.6c0-0.1,0-0.2,0.1-0.3c0.1-0.3,0.3-0.5,0.3-0.7
	c-0.2-0.3,0.2-0.6,0.2-0.5c0-0.1,0.1-0.1,0.1-0.2c0.1-0.1,0.1-0.2,0.2-0.3c0.1-0.1,0.1-0.2,0.2-0.3c0,0,0.1-0.2,0.1-0.2c0,0,0,0,0,0
	c0,0,0-0.2,0-0.2c0-0.1,0.1-0.1,0.1-0.2c0.1-0.2,0.2-0.4,0.3-0.6c0.1-0.2,0.2-0.3,0.2-0.5c0.1-0.2,0.2-0.3,0.3-0.5
	c0.1-0.2,0.2-0.4,0.3-0.6c0.1-0.2,0.2-0.4,0.3-0.7c0.1-0.2,0.2-0.3,0.2-0.5c0-0.1,0.2-0.3,0.2-0.4c0.1-0.1,0.2-0.3,0.3-0.4
	c0-0.1,0.1-0.1,0.1-0.2c0-0.1-0.1-0.2,0-0.2c0.2-0.3,0.4-0.5,0.5-0.9c0-0.1,0.1-0.2,0.2-0.3s0.2-0.2,0.2-0.3c0-0.2,0.2-0.4,0.2-0.5
	c0-0.1,0.1-0.1,0.1-0.2c0.2,0,0.2-0.2,0.3-0.4c0.1-0.1,0.1-0.2,0.2-0.3c0-0.1,0.1-0.1,0.1-0.2c0.1-0.2,0.3-0.4,0.4-0.6
	c0,0,0-0.1,0-0.1c0,0,0-0.1,0-0.1c0.2,0,0.1-0.1,0.2-0.2c0.2-0.2,0.3-0.5,0.4-0.7c0.2-0.3,0.5-0.6,0.7-1c0.1-0.1,0.1-0.2,0.2-0.3
	c0,0,0-0.1,0.1-0.1c0.3-0.4,0.6-0.9,0.9-1.3c0.2-0.3,0.4-0.6,0.6-0.9c0.1-0.2,0.3-0.2,0.4-0.1c0.2,0.1,0.4,0.3,0.7,0.4
	c0.1,0.1,0.3,0,0.4,0.1c0.3,0.2,0.6,0.4,1,0.5c0.2,0.1,0.4,0.2,0.6,0.2c0.3,0,0.5,0.1,0.8,0.2c0.2,0.1,0.4,0.2,0.6,0.2
	c0.1,0.1,0.3,0.1,0.4,0.2c0.1,0,0.1,0,0.2,0.1c0.3,0.1,0.5,0.3,0.7,0.4C20.1,7,20.2,7,20.3,7.1c0.1-0.1,0.3-0.2,0.4-0.4
	c0.2-0.2,0.4-0.5,0.6-0.7c0.2-0.3,0.4-0.7,0.6-1c0.2-0.3,0.4-0.5,0.6-0.8c0,0,0.1-0.1,0.1-0.1c0.1-0.1,0.1-0.2,0.3-0.2
	c0.1,0,0.2-0.2,0.2-0.3c0-0.2,0.1-0.3,0.3-0.2c0,0,0.1,0,0.1,0c0.4,0.1,0.7,0.2,1.1,0.3c0,0,0.1,0,0.1,0c0.3,0.1,0.5,0.1,0.8,0.2
	c0.2,0.1,0.5,0.2,0.7,0.3c0.1,0.1,0.3,0.1,0.4,0.1c0.2,0.1,0.5,0.1,0.7,0.2c0.2,0,0.4,0.1,0.6,0.1c0.1,0,0.2,0.1,0.3,0.1
	c0.1,0,0.3,0.1,0.4,0.1c0.2,0,0.5,0.1,0.7,0.1c0.4,0,0.8,0.1,1.3,0.1C30.7,4.9,30.9,5,31,5c0.2,0,0.5,0.2,0.7,0
	c0.2-0.2,0.5-0.2,0.8-0.3c0.2-0.1,0.3-0.1,0.5-0.2c0.4-0.2,0.9-0.4,1.3-0.6c0.5-0.2,0.9-0.4,1.3-0.6c0.1,0,0.2,0,0.3,0
	c0.5-0.2,1-0.3,1.5-0.5c0.4-0.1,0.7-0.3,1.1-0.4c0.3-0.1,0.6-0.3,0.9-0.4c0.2-0.1,0.4-0.1,0.5-0.1c0.1,0,0.3-0.1,0.4-0.2
	c0.1,0,0.1-0.1,0.2-0.2c0.1,0,0.2,0,0.2-0.1c0,0,0.1-0.1,0.2-0.1c0.1,0,0.1,0.1,0.2,0.2c0,0,0.1-0.1,0.1-0.2C41.4,1,41.6,1,41.8,1
	c0.1,0,0.1,0,0.2,0.1c0.1,0,0.2,0.1,0.3,0.1c0.2,0,0.2,0.2,0.2,0.3c0,1-0.1,2.1-0.1,3.1c0,1-0.1,2-0.1,3c0,0.5,0,1,0,1.5
	c0,0.4-0.1,0.8-0.1,1.2c0,0.5-0.1,0.9-0.1,1.4c0,0.3,0.1,0.5,0.1,0.8c0,0.2,0,0.4,0,0.6c0,0.6,0,1.2,0,1.7c0,0.2,0,0.4,0,0.7
	c0,0.1,0.1,0.2,0.2,0.2c0.2,0.2,0.5,0.3,0.7,0.5c0.3,0.2,0.7,0.4,1,0.7c0.3,0.2,0.6,0.5,0.8,0.8c0.3,0.3,0.6,0.6,0.8,0.9
	c0.1,0.1,0.2,0.3,0.3,0.4c0.2,0.3,0.3,0.6,0.5,0.9c0.1,0.2,0.3,0.4,0.4,0.7c0.2,0.3,0.3,0.6,0.4,0.9c0.1,0.1,0.1,0.3,0.2,0.4
	c0.2,0.5,0.3,1.1,0.5,1.7c0.1,0.3,0,0.5,0,0.8c0,0.6,0.1,1.2,0.2,1.7c0,0.4,0,0.9-0.1,1.3c0,0.2,0,0.4,0,0.6c0,0.1,0,0.2,0,0.3
	c0,0.3-0.1,0.5-0.1,0.8C47.8,29.3,47.7,29.5,47.6,29.6z M9.2,30.2c0,0.1,0.1,0.2,0.1,0.2C9.2,30.7,9.1,31,9,31.2
	c-0.1,0.2-0.3,0.3-0.4,0.5c-0.1,0.1-0.2,0.3-0.3,0.4c-0.2,0.2-0.4,0.4-0.6,0.7c-0.1,0.2-0.3,0.3-0.4,0.5c-0.1,0.1-0.1,0.2,0.1,0.2
	c0.2,0.1,0.4,0.2,0.7,0.3c0.3,0.1,0.5,0.2,0.8,0.3c0.1,0,0.3,0,0.3,0.1c0.2,0.2,0.5,0.3,0.8,0.4c0.3,0.1,0.6,0.1,0.6,0.5
	c0,0.1,0,0.2-0.1,0.2c-0.2,0-0.5-0.1-0.5,0.3c0,0,0,0,0,0C9.8,35.8,9.6,36,9.4,36c-0.4,0.1-0.7,0.2-1.1,0.3c-0.1,0-0.2,0-0.3,0.1
	c-0.1,0.1-0.2,0.2-0.1,0.2c0.1,0.2,0.2,0.3,0.3,0.5c0.3,0.3,0.5,0.7,0.8,1c0.2,0.2,0.4,0.5,0.6,0.7c0.2,0.2,0.4,0.4,0.5,0.6
	c0.1,0.1,0.2,0.1,0.3,0.2c0.1,0.1,0.2,0.2,0.2,0.4c0.1,0.1,0.2,0.3,0.2,0.5c0.1,0.1,0.1,0.3-0.1,0.4c-0.1,0-0.1,0.1-0.1,0.1
	c0,0.1-0.1,0.3-0.1,0.4c0,0.2-0.1,0.3-0.1,0.5c0,0.1,0,0.1,0,0.2c0,0.1-0.1,0.3-0.1,0.4c0,0.2,0,0.5,0.1,0.7
	c0.1,0.3,0.1,0.5,0.3,0.7c0,0,0,0.1,0,0.1c0.1,0.2,0.2,0.5,0.4,0.7c0.3,0.4,0.6,0.7,0.9,1c0.2,0.2,0.3,0.3,0.5,0.5
	c0.1,0.1,0.3,0.1,0.4,0.2c0.1,0.1,0.1,0.1,0.2,0.1c0.2,0.1,0.4,0.1,0.6,0.2c0.2,0,0.3,0.1,0.5,0.1c0.2,0,0.4,0.1,0.6,0.1
	c0.1,0,0.1,0,0.2,0c0.2,0,0.4,0,0.6,0c0.1,0,0.2,0,0.2,0c0,0,0.1,0,0.1,0c0.2,0,0.3-0.1,0.5-0.2c0.1,0.1,0.2,0.1,0.3,0
	c0.1,0,0.1,0,0.2-0.1c0.2-0.1,0.4-0.2,0.6-0.2c0.1,0,0.2-0.1,0.2-0.1c0.3-0.1,0.6-0.1,0.8-0.2c0.2-0.1,0.4-0.2,0.7-0.3
	c0.1,0,0.1,0,0.2-0.1c0.4-0.2,0.8-0.5,1.2-0.7c0.3-0.2,0.6-0.3,0.9-0.5c0.2-0.1,0.3-0.2,0.5-0.3c0.4-0.2,0.7-0.4,1.1-0.6
	c0.4-0.2,0.7-0.5,1-0.8c0.2-0.2,0.5-0.4,0.7-0.6c0.4-0.3,0.7-0.6,1.1-0.9c0.2-0.2,0.4-0.4,0.6-0.5c0.2-0.1,0.4-0.2,0.6-0.4
	c0.2-0.2,0.4-0.3,0.6-0.5c0.1-0.1,0.1-0.2,0.2-0.2c0.2-0.2,0.4-0.3,0.6-0.5c0.2-0.1,0.3-0.3,0.5-0.4c0.1-0.1,0.1-0.2,0.2-0.2
	c0.3-0.2,0.5-0.4,0.6-0.7c0,0,0.1-0.1,0.1-0.1c0.1,0,0.2-0.1,0.1-0.2c0.1-0.1,0.2-0.2,0.3-0.1c0.2-0.2,0.2-0.5,0.2-0.7
	c0-0.3,0-0.6,0-0.9c0-0.2,0.1-0.4,0.1-0.6c0-0.5,0-1,0-1.5c0-0.5,0-0.9,0-1.4c0-0.5,0-1,0-1.5c0-0.5-0.1-1-0.1-1.4c0-0.3,0-0.7,0-1
	c0-0.8,0.1-1.6,0.1-2.4c0-0.5,0-1,0-1.5c0-0.3,0-0.7,0-1c0-0.2,0-0.4,0-0.6c0-0.2,0-0.4,0-0.6c0-0.3,0-0.6,0-0.9
	c0-0.6,0.1-1.1,0.1-1.7c0-0.5,0-1,0.1-1.4c0.1-0.7,0.1-1.4,0.3-2.2c0,0,0-0.1,0-0.1c0-0.1-0.1-0.1-0.1-0.2c0-0.2,0.1-0.4,0.1-0.5
	c0.1-0.6,0.1-1.1,0.2-1.7c0-0.1,0-0.2-0.1-0.2c-0.1,0-0.2,0-0.2,0c-0.2-0.1-0.3-0.2-0.5-0.3c-0.5-0.2-1-0.5-1.5-0.7
	c-0.3-0.1-0.6-0.3-0.9-0.5c-0.4-0.2-0.7-0.4-1.1-0.6c-0.5-0.2-1-0.5-1.4-0.7c-0.4-0.2-0.8-0.4-1.2-0.7c0,0-0.1,0-0.2,0
	c-0.1-0.1-0.2-0.2-0.3-0.3c-0.3-0.2-0.6-0.3-0.8-0.5c-0.3-0.2-0.6-0.3-0.8-0.5c-0.3-0.2-0.6-0.3-0.8-0.5c-0.4-0.2-0.7-0.4-1.1-0.6
	c-0.8-0.4-1.7-0.7-2.5-1.2c-0.2-0.1-0.5-0.2-0.7-0.3c-0.6-0.2-1.1-0.5-1.7-0.8c-0.3-0.2-0.7-0.3-1-0.4c0,0-0.1,0-0.1,0.1
	c-0.1,0.2-0.2,0.3-0.2,0.5c-0.1,0.4-0.4,0.7-0.6,1c-0.2,0.2-0.4,0.5-0.5,0.7c-0.2,0.3-0.3,0.6-0.5,0.9c-0.1,0.2-0.3,0.3-0.4,0.5
	C12.2,9,12,9.1,11.9,9.3c-0.3,0.6-0.6,1.1-0.9,1.7c-0.1,0.2-0.2,0.5-0.4,0.7c-0.2,0.4-0.5,0.8-0.7,1.3c-0.2,0.4-0.4,0.9-0.6,1.3
	c-0.1,0.3-0.2,0.5-0.3,0.8c-0.1,0.2-0.2,0.4-0.3,0.6c-0.2,0.4-0.5,0.8-0.7,1.3c-0.1,0.3-0.2,0.6-0.4,0.8c-0.1,0.1-0.1,0.3-0.3,0.3
	c0,0,0,0,0,0c0,0,0.1,0,0.1,0c0,0,0,0,0.1,0.1c-0.1,0.1-0.2,0.1-0.2,0.2c-0.2,0.3-0.3,0.6-0.5,1c-0.1,0.2-0.2,0.4-0.3,0.5
	c-0.1,0.2-0.1,0.4-0.2,0.6c0,0.1-0.1,0.2-0.1,0.2C6.2,20.8,6.1,21,6,21.2c0,0.1,0,0.1-0.1,0.2c-0.1,0.2-0.2,0.5-0.3,0.7
	c-0.1,0.2-0.2,0.5-0.3,0.7c-0.1,0.3-0.3,0.6-0.5,0.9c-0.1,0.2,0,0.4-0.3,0.4c0,0.1,0,0.2,0,0.2c0,0,0,0,0,0c0,0,0-0.1,0-0.1
	c0,0,0,0.1,0,0.1c0,0.2,0,0.3-0.2,0.4c-0.1,0-0.1,0.2-0.1,0.2c0,0.1,0,0.2-0.1,0.2c-0.1,0.3-0.2,0.6-0.3,0.8c0,0.1-0.1,0.2-0.2,0.3
	c0,0,0,0.1,0,0.2c-0.1,0.1-0.2,0.2-0.2,0.4c-0.1,0.2-0.1,0.4-0.2,0.6c-0.2,0.3-0.4,0.7-0.4,1.1c0.1,0,0.1,0,0.2,0
	c0.3,0.1,0.6,0.2,0.8,0.2c0.4,0.1,0.9,0.1,1.3,0.2c0.4,0.1,0.8,0.2,1.2,0.2c0.3,0.1,0.7,0,1,0.2c0,0,0,0,0,0c0.3,0,0.5,0.1,0.8,0.1
	c0.2,0,0.4,0.2,0.6,0c0.1,0,0.2,0.1,0.2,0.2c0,0,0,0.1,0.1,0.1c0.1,0,0.1,0.1,0.1,0.2c0,0,0,0,0,0.1c0,0,0.1-0.1,0.1-0.1
	c0,0.1,0,0.1,0.1,0.2C9.2,30.1,9.2,30.1,9.2,30.2z M45.4,32.6c0.1-0.1,0.2-0.1,0.2-0.2c0.1-0.1,0.2-0.2,0.3-0.4
	c0.1-0.1,0.1-0.2,0.2-0.3c0.2-0.2,0.3-0.4,0.3-0.7c0-0.1,0.1-0.2,0.1-0.3c0-0.1,0.1-0.1,0.1-0.2c0.1-0.2,0.1-0.4,0.2-0.7
	c0.1-0.2,0.1-0.4,0.1-0.6c0,0,0-0.1,0-0.1c0-0.1,0.1-0.2,0-0.3c0,0,0-0.1,0-0.1c0.1-0.1,0.1-0.3,0.1-0.5c0-0.4,0.1-0.7,0.2-1.1
	c0.1-0.4,0.1-0.7,0-1.1c0-0.2,0-0.5,0-0.7c0-0.2,0-0.3-0.1-0.5c0-0.1,0-0.2,0-0.3c-0.2-0.2,0-0.5-0.2-0.7c0-0.1,0-0.2,0-0.3
	c0-0.2-0.1-0.5-0.1-0.7c0-0.1-0.1-0.3-0.1-0.4c-0.1-0.1-0.2-0.3-0.2-0.5c0-0.1-0.1-0.3-0.1-0.4c-0.1-0.2-0.1-0.3-0.2-0.5
	c-0.1-0.2-0.1-0.3-0.2-0.5c-0.1-0.2-0.3-0.4-0.4-0.6c-0.1-0.1-0.1-0.1-0.1-0.2c0-0.1,0-0.2-0.1-0.2c-0.2-0.1-0.2-0.2-0.3-0.3
	c-0.1-0.1-0.3-0.3-0.4-0.4c-0.1-0.1-0.1-0.2-0.1-0.3c-0.1-0.2-0.3-0.3-0.4-0.5c-0.2-0.4-0.5-0.7-0.9-0.9c-0.1-0.1-0.2-0.2-0.3-0.3
	c-0.1,0-0.1-0.1-0.2-0.1c-0.1-0.1-0.2-0.2-0.4-0.3c-0.1,0-0.2,0-0.2-0.1c-0.2-0.1-0.3-0.2-0.5-0.3c-0.1,0-0.2-0.1-0.2,0.1
	c0,0.1-0.1,0.3-0.1,0.4c0,0.4,0,0.9,0,1.3c0.2,0.2,0.4,0.4,0.6,0.5c0.2,0.1,0.3,0.4,0.6,0.4c0,0,0.1,0.1,0.1,0.1
	c0,0.1,0,0.1,0.1,0.2c0.2,0.2,0.3,0.5,0.5,0.7c0.1,0.2,0.3,0.5,0.4,0.7c0.2,0.3,0.3,0.7,0.5,1c0.1,0.3,0.2,0.6,0.3,0.9
	c0.1,0.2,0.1,0.4,0.2,0.6c0.1,0.2,0.1,0.5,0.2,0.8c0.1,0.3,0.1,0.7,0.1,1c0.1,0.4,0.1,0.9,0.2,1.3c0,0,0,0.1,0,0.1
	c0,0.2,0,0.4,0.1,0.6c0.1,0.3,0.2,0.5,0.1,0.8c0,0,0,0.1,0,0.1c0,0-0.1,0.1-0.1,0.1c0,0-0.1,0-0.1,0c-0.1-0.2-0.2-0.4-0.3-0.6
	c0,0,0,0,0-0.1c0-0.2,0.1-0.3,0-0.5c0-0.3-0.1-0.6-0.2-0.8c0-0.4-0.1-0.7-0.1-1.1c0-0.1,0-0.2,0-0.3c0-0.2-0.1-0.3-0.2-0.5
	c0,0,0,0,0-0.1c0-0.1,0-0.2,0-0.2c-0.1-0.1-0.1-0.3-0.1-0.4c0-0.1,0-0.1,0-0.2c-0.1-0.2-0.2-0.4-0.2-0.6c0-0.2,0-0.3-0.1-0.5
	c-0.1-0.2-0.2-0.5-0.3-0.7c-0.1-0.3-0.2-0.6-0.4-0.8c0,0-0.1-0.1-0.1-0.1c-0.1-0.5-0.5-0.6-0.7-0.9c-0.2-0.2-0.5-0.4-0.7-0.6
	c-0.1,1.1-0.2,2.1-0.3,3.2c0.1,0,0.2,0,0.3,0.1c0,0.1,0.1,0.2,0.2,0.3c0.1,0.1,0.2,0.2,0.3,0.3c0.2,0.2,0.3,0.5,0.5,0.7
	c0.3,0.4,0.6,0.7,0.8,1.1c0.1,0.2,0.2,0.4,0.3,0.6c0.1,0.2,0.1,0.5,0.2,0.7c0.1,0.3,0.2,0.5,0.2,0.8c0,0.2,0,0.4,0,0.6
	c0.1,0.3,0.1,0.7,0,1c-0.1,0.4-0.2,0.7-0.4,1.1c-0.1,0.3-0.2,0.5-0.3,0.8c0,0.1,0,0.1,0,0.2c-0.1,0.2-0.2,0.4-0.2,0.6
	c0,0.2-0.1,0.3-0.1,0.5c-0.1,0.2-0.2,0.3-0.2,0.5c-0.1,0.5-0.2,1.1-0.3,1.6c-0.1,0.4-0.1,0.7-0.1,1.1c0,0.3,0,0.6,0,0.9
	c0,0.2,0.1,0.5,0.1,0.7c0,0.3,0.1,0.6,0.3,0.8c0,0.1,0.1,0.1,0.1,0.2c0.1,0.2,0.3,0.4,0.5,0.5c0.2,0.1,0.5,0.2,0.7,0.4
	c0.2,0.2,0.4,0.1,0.6,0.2c0.3,0,0.6,0,0.9-0.1c0.2-0.1,0.5-0.2,0.7-0.4c0.2-0.3,0.4-0.6,0.5-1c0.1-0.4,0.2-0.8,0.2-1.2
	c0-0.2-0.1-0.4-0.1-0.6c0-0.2-0.2-0.3-0.2-0.5c0,0-0.1,0-0.1,0c-0.1-0.3-0.2-0.5-0.1-0.8c0,0,0.1,0,0.1,0c0.2-0.1,0.4,0.1,0.4,0.2
	c0.1,0.2,0.2,0.4,0.2,0.6c0.1,0.3,0.2,0.7,0.2,1c0,0.3,0,0.6-0.1,0.8c-0.1,0.3-0.2,0.6-0.3,0.9c-0.1,0.2-0.1,0.4-0.2,0.5
	c0,0,0,0.1-0.1,0.1c-0.3,0.3-0.5,0.7-1,0.8c-0.2,0-0.4,0.2-0.6,0.2c-0.4,0-0.8,0.1-1.2-0.1c-0.1-0.1-0.3-0.1-0.4-0.2
	c-0.1-0.1-0.1-0.2-0.2-0.3c-0.2-0.2-0.5-0.3-0.7-0.6c-0.1-0.2-0.2-0.3-0.3-0.5c-0.1-0.2-0.1-0.3-0.2-0.5c-0.2-0.3-0.2-0.7-0.2-1.1
	c0-0.3,0-0.5,0-0.8c0-0.2,0-0.5,0-0.7c0-0.3,0.1-0.5,0-0.8c0,0,0,0,0-0.1c0-0.1,0-0.1,0.1-0.2c0-0.2,0.1-0.4,0.1-0.6
	c0.1-0.3,0.2-0.5,0.2-0.8c0-0.2,0.1-0.4,0.1-0.5c0-0.2,0.2-0.5,0.2-0.7c0.1-0.2,0.1-0.3,0.2-0.5c0-0.1,0-0.2,0.1-0.3
	c0-0.1,0.1-0.2,0.1-0.3c0-0.2,0.3-0.3,0.2-0.6c0,0,0,0,0-0.1c0-0.1,0.1-0.2,0.1-0.4c0-0.1,0-0.2,0-0.2c0.2-0.2,0.2-0.5,0.2-0.8
	c0-0.3-0.1-0.5-0.1-0.8c0,0,0-0.1,0-0.1c0-0.1,0-0.2-0.1-0.3c0-0.1,0-0.2-0.1-0.3c0,0-0.1,0-0.2-0.1c-0.1,0-0.2-0.1-0.2-0.1
	c0-0.1,0-0.3-0.1-0.4c-0.1-0.2-0.1-0.4-0.2-0.6c-0.1-0.2-0.3-0.5-0.5-0.7c-0.2-0.3-0.4-0.5-0.7-0.8c-0.1-0.1-0.4-0.1-0.4,0
	c0,0.2-0.1,0.4-0.1,0.5c0,0.2,0,0.5,0,0.8c0,0.4-0.1,0.9-0.1,1.3c0,0.6-0.1,1.3-0.1,1.9c0,0.5,0,1.1-0.1,1.6c0,0.5,0,0.9-0.1,1.4
	c0,0.5,0,1,0,1.5c0,0.2,0,0.3,0,0.5c0,0.4,0,0.8-0.1,1.3c0,0.4-0.1,0.7-0.1,1.1c0,0.4,0,0.8,0,1.2c0,0.6,0,1.1,0,1.7
	c0,0.4,0,0.8,0,1.2c0,0.3,0,0.5,0,0.8c0,0.7,0,1.3,0,2c0,0.8,0,1.5,0,2.3c0,0.5,0,1,0,1.5c0,0.4,0,0.8,0,1.2c0,0.3,0,0.6,0,0.9
	c0,0.3,0,0.5,0,0.8c0,0.4,0,0.7,0,1.1c0,0.2-0.1,0.2-0.3,0.2c-0.3-0.1-0.6-0.1-0.9-0.1c-0.5-0.8-1.1-1.5-1.9-2.1c0,0,0,0.1,0,0.1
	c0,0.1,0.1,0.2,0.1,0.3c0,0.2,0,0.5,0.1,0.7c0,0.1,0.1,0.1,0.1,0.2c0.1,0.2,0.2,0.5,0.3,0.7c0.1,0.2,0.1,0.5,0.1,0.7
	c0,0.1,0,0.1,0,0.2c0.1,0.1,0.2,0.3,0.3,0.4c0.1,0.1,0.2,0.3,0.3,0.4c0.2,0.2,0.5,0.4,0.6,0.6c0.2,0.2,0.4,0.4,0.6,0.6
	c0,0,0.1,0,0.2,0.1c0.2,0,0.4,0,0.6,0c0.3,0,0.6,0,0.9,0c0.2,0,0.3-0.2,0.5-0.2c0.2-0.1,0.5-0.2,0.7-0.3c0,0,0-0.1,0-0.1
	c0.1-0.1,0.2-0.2,0.3-0.3c0.1-0.1,0.2-0.3,0.1-0.4c-0.1-0.1,0-0.2,0-0.3c0-0.1,0-0.1,0-0.2c0-0.2,0-0.3,0.2-0.4
	c0.1,0,0.2-0.1,0.4-0.1c0.1,0.1,0.2,0.1,0.3,0.1c0.1,0,0.2,0,0.1,0.1c0,0.1,0,0.2-0.1,0.3c-0.1,0.2-0.2,0.3-0.1,0.5
	c0,0.2,0,0.4,0,0.5c0.1,0.3,0.3,0.5,0.4,0.7c0.1,0.2,0.2,0.3,0.4,0.4c0.2,0.1,0.3,0.2,0.5,0.3c0.3,0.3,0.7,0.5,1.2,0.5
	c0.4,0,0.7,0.1,1.1,0.1c0.3-0.1,0.7-0.1,0.9-0.4c0.1-0.1,0.3-0.3,0.5-0.4c0.2-0.1,0.3-0.2,0.4-0.4c0.1-0.1,0.2-0.3,0.3-0.4
	c0.2-0.2,0.3-0.4,0.3-0.6c0.1-0.1,0.2-0.2,0.3-0.2c0.1-0.2,0.3-0.3,0.4-0.5c0.1-0.2,0.3-0.5,0.4-0.7c0,0,0-0.1,0-0.1
	c0-0.2,0-0.3,0.1-0.4c0,0,0-0.1,0-0.1c-0.1-0.2,0.2-0.4,0.1-0.7c0-0.2,0.1-0.4,0.1-0.6c0-0.2,0.1-0.5,0.1-0.7c0-0.1,0-0.2,0.1-0.2
	c0-0.3,0-0.6,0.1-0.9c0-0.2,0-0.4,0-0.6c0-0.2-0.1-0.4-0.1-0.6c-0.1-0.2-0.2-0.4-0.2-0.6c-0.1-0.2-0.1-0.4-0.2-0.7
	c-0.1-0.2-0.1-0.4-0.2-0.5c-0.1-0.2-0.2-0.3-0.3-0.5c0,0,0,0,0,0c-0.1-0.1-0.1-0.2-0.2-0.3c-0.1-0.1-0.1-0.2-0.2-0.2
	c-0.2,0-0.3-0.2-0.4-0.3c-0.1-0.1-0.2-0.3-0.3-0.3c-0.5-0.3-1.1-0.7-1.7-0.8c-0.5-0.1-1.1-0.2-1.6-0.1c-0.1-0.3-0.1-0.4,0.2-0.4
	c0,0,0.1,0,0.1-0.1c0.1-0.3,0.4-0.4,0.6-0.5c0.3-0.1,0.7-0.2,1-0.4c0.2-0.1,0.3-0.2,0.5-0.2c0.1-0.1,0.3-0.2,0.4-0.2
	c0.2-0.1,0.5-0.4,0.5-0.5c0.1,0,0.2-0.1,0.2-0.1c0.1-0.2,0.2-0.3,0.3-0.5c0.2-0.2,0.3-0.5,0.4-0.8c0-0.1,0-0.2,0.1-0.2
	c0.2-0.3,0.4-0.6,0.3-1c0,0,0-0.1,0-0.1c0-0.3,0.1-0.6,0.1-0.9c0-0.3,0-0.6-0.2-0.8c-0.2-0.3-0.2-0.6-0.4-0.9
	c-0.1-0.2-0.2-0.4-0.4-0.7c0-0.1-0.1-0.1-0.1-0.2c-0.2-0.1-0.3-0.2-0.5-0.3c-0.2-0.1-0.4-0.2-0.6-0.2c-0.1,0-0.3,0-0.5,0
	c-0.2-0.1-0.4-0.1-0.6,0c-0.3,0.1-0.6,0.2-0.9,0.4c-0.2,0.1-0.3,0.2-0.5,0.2c0,0-0.1,0-0.1,0.1c-0.1,0.2-0.2,0.2-0.3,0.1
	C45.6,32.8,45.5,32.7,45.4,32.6z M40.7,1.8c-0.2,0.1-0.3,0.2-0.5,0.3c-0.3,0.2-0.7,0.3-1,0.5c-0.2,0.1-0.4,0.2-0.6,0.3
	C38.4,2.9,38.2,3,38,3.1c-0.5,0.2-1,0.4-1.5,0.6c-0.5,0.2-1,0.4-1.5,0.7c-0.3,0.2-0.6,0.2-0.9,0.4c-0.4,0.2-0.9,0.3-1.3,0.4
	c0,0-0.1,0.1-0.1,0.1c0,0.1-0.1,0.2-0.1,0.3c0,0.1-0.1,0.2-0.1,0.3c0.1,0.4-0.1,0.7,0,1.1c0,0,0,0.1,0,0.1c0,0.1,0,0.1-0.1,0.2
	c0,0.4-0.1,0.8-0.1,1.2c0,0.3-0.1,0.6-0.2,1c0,0.3,0,0.6,0,0.9c0,0.4-0.1,0.8-0.1,1.1c0,0.3-0.1,0.6-0.1,0.9c0,0.3-0.1,0.6-0.1,1
	c0,0.4-0.1,0.9-0.1,1.3c0,0.3,0,0.7,0,1c0,0.4,0,0.8,0,1.2c0,0.4,0,0.8-0.1,1.2c0,0.2,0,0.5,0,0.7c0,0.3,0,0.7-0.1,1
	c0,0.4-0.1,0.8-0.1,1.2c0,0.3,0,0.6,0,0.9c0,0.7-0.1,1.3-0.1,2c0,0.3,0,0.5,0,0.8c0,0,0,0-0.1,0c0,0.1,0.1,0.2,0.1,0.2
	c0,0.5,0,1,0,1.4c0,0.5,0,1,0,1.5c0,0.5-0.1,0.9-0.1,1.4c0,0.8,0,1.6,0,2.4c0,0.1,0,0.2,0,0.3c0,0.4,0,0.9,0,1.3c0,0.2,0,0.4,0,0.6
	c0,0.2,0,0.4,0,0.6c0,0.4,0,0.9,0,1.3c0,0.5,0,1-0.1,1.5c-0.1,0.4,0,0.8,0.2,1.1c0.1,0.1,0.2,0.3,0.3,0.3c0.1,0,0.1,0.1,0.1,0.1
	c0,0.2,0.2,0.4,0.3,0.6c0.1,0.2,0.2,0.4,0.4,0.6c0.3,0.4,0.5,0.9,0.8,1.3c0.2,0.4,0.5,0.7,0.8,1c0.2,0.3,0.4,0.6,0.5,0.9
	c0.3,0.4,0.7,0.8,0.9,1.3c0.1,0.2,0.3,0.4,0.4,0.6c0.3,0.4,0.6,0.7,0.9,1.1c0.4,0.4,0.7,0.9,1.1,1.3c0.1,0.1,0.2,0.2,0.2,0.3
	c0.1,0.1,0.2,0.3,0.3,0.4c0.3,0.3,0.5,0.6,0.7,0.9c0.1,0.2,0.3,0.3,0.4,0.5c0,0,0,0,0,0c-0.1-0.1-0.2-0.2-0.2-0.3
	c-0.1-0.2-0.1-0.4-0.1-0.6c0-0.3,0-0.6,0-0.9c0-0.5-0.1-1-0.1-1.6c0-1,0-2,0-3c0-0.5,0-1.1,0-1.6c0-0.2,0-0.3,0-0.5
	c0-0.4,0-0.9,0.1-1.3c0-0.5,0-1,0-1.5c0-0.6,0-1.3,0-1.9c0-0.3,0-0.6,0-0.9c0-0.5,0.1-1,0.1-1.5c0-0.5,0-1.1,0-1.6
	c0-0.2,0-0.4,0-0.6c0-0.3,0.1-0.7,0.1-1c0-0.7,0.1-1.3,0.1-2c0-0.3,0-0.6,0.1-0.9c0-0.2,0-0.5,0-0.7c0-0.4,0.1-0.8,0.1-1.2
	c0-0.3,0-0.7,0.1-1c0-0.3,0.1-0.6,0.1-0.9c0-0.4,0-0.9,0-1.3c0-0.7,0-1.4,0.1-2c0-0.3,0-0.6,0.1-0.9c0-0.1,0-0.3,0-0.4
	c0-0.3,0-0.7,0-1c0-0.4,0-0.9,0.1-1.3c0-0.3,0-0.5,0.1-0.8c0-0.5,0.1-1,0.1-1.5c0-0.4,0.1-0.9,0.1-1.3c0-0.5,0-0.9,0-1.4
	c0-0.4,0-0.8,0-1.1c0-0.5-0.1-1-0.1-1.5c0-0.5,0-0.9,0-1.4c0-0.2,0-0.5,0-0.7c0-0.2,0-0.5,0-0.7c0-0.3,0-0.6,0.1-0.9
	c0-0.5,0.1-1,0.1-1.5c0-0.4,0.1-0.8,0.1-1.1c0-0.2,0-0.4,0-0.6C40.7,2.2,40.7,2,40.7,1.8z M40.1,49.7c0,0,0-0.1,0-0.2
	c0-0.3,0-0.5,0-0.8c0-0.3,0-0.6,0-0.9c0-0.5,0.1-1,0.1-1.5c0-0.8,0-1.5,0-2.3c0-0.6,0-1.1,0-1.7c0-0.3,0-0.7,0-1c0-0.5,0-1,0-1.4
	c0-0.4,0-0.7,0-1.1c0-0.3-0.1-0.6-0.1-0.9c0-0.5,0.1-1,0.1-1.5c0-0.3,0-0.6,0-0.9c0-0.2,0-0.4,0-0.6c0-0.5,0-1,0-1.5
	c0-0.4,0.1-0.9,0.1-1.3c0-0.3,0-0.5,0-0.8c0-0.6,0-1.2,0.1-1.8c0-0.5,0-1.1,0.1-1.6c0-0.5,0.1-1.1,0.1-1.6c0-0.4,0.1-0.9,0.1-1.3
	c0-0.3,0-0.6,0.1-1c0-0.4,0.1-0.7,0.1-1.1c0-0.5,0.1-1,0.1-1.5c0-0.2,0-0.4,0-0.6c0.1-0.5,0.1-0.9,0.2-1.4c0-0.5,0-1,0-1.5
	c0-0.6,0-1.2,0.1-1.8c0-0.7,0-1.4,0-2.1c0-0.3,0-0.5,0-0.8c0-0.4,0-0.8,0.1-1.2c0-0.5,0.1-1.1,0.1-1.6c0-0.2,0.1-0.4,0.1-0.6
	c0.1-0.8,0.1-1.6,0.1-2.5c0-0.9,0.1-1.8,0.1-2.6c0-0.7,0-1.4-0.1-2c0-0.2,0-0.4,0-0.6c0-0.2-0.2-0.4-0.4-0.4C41.2,1.6,41,1.8,41,2
	c0,0.3-0.1,0.6-0.1,0.9c0,0.4-0.1,0.9-0.1,1.3c0,0.3-0.1,0.7-0.1,1c0,0.4-0.1,0.8-0.1,1.2c0,0.8,0,1.7,0,2.5c0,0.5,0,1,0,1.5
	c0,0.4,0,0.8,0,1.2c0,0.2,0,0.4,0,0.7c0,0.4,0,0.8,0,1.2c0,0.5-0.1,1-0.1,1.4c0,0.3,0,0.6,0,0.9c0,0.4-0.1,0.8-0.1,1.3
	c0,0.6-0.1,1.3-0.1,1.9c0,0.3,0,0.6-0.1,1c0,0.4-0.1,0.8-0.1,1.2c0,0.5,0,1,0,1.6c0,0.5-0.1,1-0.1,1.6c0,0.2,0,0.4,0,0.6
	c-0.1,0.7-0.1,1.5-0.2,2.2c0,0.4,0,0.8,0,1.2c0,0.6-0.1,1.1-0.1,1.7c0,0.7,0,1.4-0.1,2.1c0,0.5-0.1,1.1-0.1,1.6c0,0.5,0,0.9,0,1.4
	c0,0.5,0,1-0.1,1.5c0,0.4,0,0.8,0,1.3c0,0.6,0,1.1,0,1.7c0,0.7-0.1,1.5-0.1,2.2c0,0.6-0.1,1.1-0.1,1.7c0,0.7,0,1.4,0,2.1
	c0,0.2,0,0.5,0,0.7c0,0.2,0,0.5,0,0.7c0,0.2,0,0.4,0,0.6c0,0.4,0.1,0.9,0.1,1.3c0,0.2,0.1,0.4,0,0.6c-0.1,0.1,0,0.2,0.2,0.3
	C39.8,49.7,39.9,49.7,40.1,49.7z M27,10.8c0.1-0.1,0.1-0.3,0.2-0.4c0.1-0.2,0.3-0.3,0.5-0.4c0.5-0.4,0.9-0.7,1.4-1.1
	c0.5-0.4,1.1-0.7,1.6-1.1c0.4-0.2,0.8-0.4,1.2-0.5c0,0,0.1-0.1,0.1-0.2c0-0.4,0.1-0.8,0.1-1.2c-0.1,0-0.2,0-0.4,0
	c-0.2,0-0.5-0.1-0.7-0.2c-0.3-0.1-0.7-0.1-0.9,0.1C30,6,29.8,6.1,29.7,6.2c-0.3,0.2-0.7,0.3-1,0.5c-0.4,0.3-0.9,0.5-1.3,0.8
	c-0.2,0.1-0.4,0.2-0.6,0.4c-0.3,0.2-0.5,0.4-0.8,0.7c-0.3,0.3-0.7,0.5-1,0.8c-0.1,0.1-0.2,0.2-0.4,0.3C25.3,10,26.1,10.4,27,10.8z
	 M22,8.1c0.8,0.5,1.6,0.9,2.4,1.4c0-0.2,0-0.2,0.2-0.4c0,0,0-0.1,0.1-0.1c0.1-0.1,0.2-0.2,0.3-0.3c0.2-0.2,0.4-0.3,0.6-0.5
	c0.3-0.3,0.7-0.5,1-0.8c0.4-0.3,0.8-0.6,1.2-0.8c0.5-0.3,1-0.7,1.5-1c0.1-0.1,0.3-0.1,0.5-0.2c-0.3-0.1-0.5-0.2-0.7-0.2
	c-0.2,0-0.4-0.1-0.6-0.1c-0.2,0-0.4,0-0.7-0.1C27.4,5,27,4.9,26.7,4.8c-0.1,0-0.2,0-0.2,0c-0.3,0.2-0.6,0.4-0.8,0.6
	c-0.3,0.2-0.5,0.4-0.8,0.6c-0.3,0.2-0.6,0.4-0.9,0.6c-0.2,0.2-0.4,0.4-0.7,0.6c-0.3,0.2-0.6,0.5-0.9,0.7C22.2,7.9,22.2,8,22,8.1z
	 M31.9,7.6c-0.1,0-0.2,0.1-0.3,0.1c-0.3,0.1-0.5,0.3-0.8,0.4c-0.2,0.1-0.4,0.2-0.5,0.3c-0.5,0.3-1,0.6-1.4,0.9
	c-0.4,0.3-0.7,0.6-1,0.9c-0.2,0.2-0.4,0.4-0.7,0.7c1.4,0.7,2.8,1.3,4.2,2c0-0.3,0.1-0.6,0.1-1c0-0.3,0.1-0.5,0.1-0.8
	c0-0.2,0.2-0.5,0-0.7c0,0,0,0,0-0.1c0-0.2,0.1-0.4,0.1-0.7c0.1-0.4,0.1-0.7,0.2-1.1C32,8.3,31.9,7.9,31.9,7.6z M21.7,7.9
	c0.2-0.1,0.4-0.2,0.5-0.4c0.2-0.2,0.4-0.3,0.6-0.5c0.4-0.4,0.7-0.7,1.1-1c0.4-0.2,0.7-0.5,1.1-0.8c0.3-0.2,0.5-0.5,0.8-0.7
	c-0.8-0.3-1.6-0.4-2.5-0.6c0,0,0,0.1-0.1,0.1c0,0,0.1,0,0.2,0.1c-0.1,0-0.2,0.1-0.3,0.1c-0.2,0.3-0.4,0.6-0.6,0.9
	c-0.1,0.2-0.2,0.4-0.3,0.5c-0.1,0.2-0.2,0.3-0.3,0.5c-0.2,0.2-0.3,0.4-0.5,0.6c-0.1,0.1-0.1,0.1-0.2,0.2c-0.1,0.2-0.2,0.3-0.3,0.5
	C21.2,7.6,21.5,7.8,21.7,7.9z M2.6,28.9c0.3,0,0.7,0.1,1,0.1c0,0,0,0,0,0c-0.2-0.1-0.4-0.1-0.7-0.2C2.8,28.7,2.7,28.8,2.6,28.9z
	 M31.5,18.3C31.4,18.3,31.4,18.3,31.5,18.3c-0.1,0.4-0.1,0.7-0.1,1.1c0,0,0,0,0,0C31.4,19,31.5,18.7,31.5,18.3z M23.2,3.9
	c-0.1,0.2-0.3,0.4-0.4,0.6c0,0,0,0,0,0c0.2-0.2,0.3-0.4,0.5-0.6c0,0,0,0,0,0C23.3,3.9,23.2,3.9,23.2,3.9z M10.2,35
	c0,0,0,0.1-0.1,0.1c0.1,0,0.2,0,0.3,0c0-0.1,0-0.1,0-0.1C10.3,35,10.3,35,10.2,35z"/>
<path class="st1" d="M9.2,30.2c0,0,0-0.2-0.1-0.2c0,0,0,0,0-0.1c0-0.1,0-0.1-0.1-0.2c0,0-0.1-0.1-0.1-0.1c0-0.1-0.2-0.2-0.2-0.2
	c-0.2,0.2-0.4,0-0.6,0c-0.3,0-0.5-0.1-0.8-0.1c0,0,0,0,0,0c-0.3-0.1-0.7-0.1-1-0.2C5.9,29.1,5.5,29,5,28.9c-0.4-0.1-0.9-0.1-1.3-0.2
	c-0.3-0.1-0.6-0.1-0.8-0.2c-0.1,0-0.1,0-0.2,0c0-0.4,0.2-0.7,0.4-1.1c0.1-0.2,0.2-0.4,0.2-0.6c0.1-0.1,0.1-0.2,0.2-0.4
	c0-0.1,0-0.1,0-0.2c0.1-0.1,0.2-0.2,0.2-0.3c0.1-0.3,0.2-0.6,0.3-0.8c0-0.1,0-0.2,0.1-0.2c0-0.1,0.1-0.2,0.1-0.2
	c0.2-0.1,0.2-0.3,0.2-0.4c0,0,0-0.1,0-0.1c0,0.1,0,0.1,0,0.1c0,0,0,0,0,0c0-0.1,0-0.1,0-0.2c0.3,0,0.2-0.2,0.3-0.4
	c0.2-0.3,0.3-0.6,0.5-0.9c0.1-0.2,0.2-0.5,0.3-0.7c0.1-0.2,0.2-0.5,0.3-0.7c0-0.1,0-0.1,0.1-0.2c0-0.2,0.1-0.4,0.3-0.6
	c0.1-0.1,0.1-0.2,0.1-0.2c0.1-0.2,0.1-0.4,0.2-0.6c0.1-0.2,0.2-0.4,0.3-0.5c0.2-0.3,0.3-0.6,0.5-1c0-0.1,0.2-0.2,0.2-0.2
	c0,0-0.1,0-0.1,0c0.2,0,0.2-0.2,0.3-0.3c0.1-0.3,0.2-0.6,0.4-0.8c0.2-0.4,0.5-0.8,0.7-1.3C8.9,15.5,9,15.3,9,15.1
	c0.1-0.3,0.2-0.5,0.3-0.8c0.2-0.4,0.4-0.9,0.6-1.3c0.2-0.4,0.5-0.8,0.7-1.3c0.1-0.2,0.2-0.4,0.4-0.7c0.3-0.6,0.6-1.1,0.9-1.7
	C12,9.1,12.2,9,12.2,8.8c0.1-0.2,0.3-0.3,0.4-0.5c0.2-0.3,0.3-0.6,0.5-0.9c0.1-0.3,0.3-0.5,0.5-0.7c0.2-0.3,0.5-0.6,0.6-1
	c0-0.2,0.1-0.3,0.2-0.5c0,0,0.1-0.1,0.1-0.1c0.3,0.1,0.7,0.3,1,0.4c0.6,0.3,1.1,0.5,1.7,0.8c0.2,0.1,0.5,0.1,0.7,0.3
	c0.8,0.5,1.7,0.8,2.5,1.2c0.4,0.2,0.7,0.4,1.1,0.6c0.3,0.2,0.6,0.3,0.8,0.5c0.3,0.2,0.6,0.3,0.8,0.5c0.3,0.2,0.6,0.3,0.8,0.5
	c0.1,0.1,0.2,0.2,0.3,0.3c0.1,0,0.2,0,0.2,0c0.4,0.2,0.8,0.4,1.2,0.7c0.5,0.2,0.9,0.5,1.4,0.7c0.4,0.2,0.7,0.4,1.1,0.6
	c0.3,0.1,0.6,0.4,0.9,0.5c0.6,0.1,1,0.5,1.5,0.7c0.2,0.1,0.4,0.2,0.5,0.3c0.1,0,0.2,0,0.2,0c0.1,0,0.1,0.1,0.1,0.2
	c-0.1,0.6-0.1,1.1-0.2,1.7c0,0.2-0.1,0.4-0.1,0.5c0,0.1,0,0.1,0.1,0.2c0,0,0,0.1,0,0.1c-0.2,0.7-0.2,1.4-0.3,2.2
	c0,0.5-0.1,1-0.1,1.4c0,0.6-0.1,1.1-0.1,1.7c0,0.3,0,0.6,0,0.9c0,0.2,0,0.4,0,0.6c0,0.2,0,0.4,0,0.6c0,0.3,0,0.7,0,1
	c0,0.5,0,1,0,1.5c0,0.8-0.1,1.6-0.1,2.4c0,0.3,0,0.7,0,1c0,0.5,0.1,1,0.1,1.4c0,0.5,0,1,0,1.5c0,0.5,0,0.9,0,1.4c0,0.5,0,1,0,1.5
	c0,0.2-0.1,0.4-0.1,0.6c0,0.3,0,0.6,0,0.9c0,0.2-0.4,0.7-0.5,0.8c0.1,0.1,0,0.2-0.1,0.2c0,0-0.1,0-0.1,0.1c-0.2,0.3-0.4,0.5-0.6,0.7
	c-0.1,0.1-0.1,0.2-0.2,0.2c-0.2,0.1-0.3,0.3-0.5,0.4c-0.2,0.2-0.4,0.3-0.6,0.5c-0.1,0.1-0.1,0.1-0.2,0.2c-0.2,0.2-0.4,0.3-0.6,0.5
	c-0.2,0.1-0.4,0.2-0.6,0.4c-0.2,0.2-0.4,0.4-0.6,0.5c-0.4,0.3-0.7,0.6-1.1,0.9c-0.2,0.2-0.5,0.4-0.7,0.6c-0.3,0.3-0.6,0.6-1,0.8
	c-0.3,0.2-0.7,0.4-1.1,0.6c-0.2,0.1-0.3,0.2-0.5,0.3c-0.3,0.2-0.6,0.3-0.9,0.5c-0.4,0.2-0.8,0.5-1.2,0.7c-0.1,0-0.1,0-0.2,0.1
	c-0.2,0.1-0.4,0.2-0.7,0.3c-0.3,0.1-0.6,0.1-0.8,0.2c-0.1,0-0.2,0-0.2,0.1c-0.2,0.1-0.4,0.2-0.6,0.2c-0.1,0-0.1,0-0.2,0.1
	c-0.1,0-0.2,0.1-0.3,0c-0.2,0.1-0.3,0.1-0.5,0.2c0,0-0.1,0-0.1,0c-0.1,0-0.2,0-0.2,0c-0.2,0-0.4,0-0.6,0c-0.1,0-0.1,0-0.2,0
	c-0.2,0-0.4,0-0.6-0.1c-0.2,0-0.3-0.1-0.5-0.1c-0.2-0.1-0.4-0.1-0.6-0.2c-0.1,0-0.2-0.1-0.2-0.1c-0.1-0.1-0.3-0.1-0.4-0.2
	c-0.2-0.1-0.3-0.3-0.5-0.5c-0.3-0.3-0.6-0.7-0.9-1c-0.2-0.2-0.3-0.5-0.4-0.7c0,0,0-0.1,0-0.1c-0.2-0.2-0.2-0.5-0.3-0.7
	c0-0.2-0.1-0.5-0.1-0.7c0-0.1,0.1-0.3,0.1-0.4c0-0.1,0-0.1,0-0.2c0-0.1,0.1-0.3,0.1-0.5c0-0.1,0.1-0.3,0.1-0.4
	c0-0.1,0.1-0.1,0.1-0.1c0.1-0.1,0.2-0.2,0.1-0.4c-0.1-0.1-0.2-0.3-0.2-0.5c-0.1-0.1-0.1-0.3-0.2-0.4c-0.1-0.1-0.2-0.1-0.3-0.2
	C10,39.2,9.8,39,9.6,38.8c-0.2-0.2-0.4-0.5-0.6-0.7c-0.3-0.3-0.5-0.6-0.8-1c-0.1-0.1-0.2-0.3-0.3-0.5c0-0.1,0.1-0.2,0.1-0.2
	c0.1-0.1,0.2-0.1,0.3-0.1C8.6,36.2,9,36.1,9.4,36c0.2,0,0.4-0.2,0.6-0.3c0,0,0,0,0,0c0-0.4,0.3-0.2,0.5-0.3c0.1,0,0.2-0.1,0.1-0.2
	c-0.1-0.4-0.4-0.4-0.6-0.5c-0.3-0.1-0.6-0.2-0.8-0.4c-0.1-0.1-0.2-0.1-0.3-0.1c-0.3-0.1-0.5-0.2-0.8-0.3c-0.2-0.1-0.4-0.2-0.7-0.3
	c-0.1-0.1-0.2-0.1-0.1-0.2c0.1-0.2,0.3-0.3,0.4-0.5c0.2-0.2,0.4-0.4,0.6-0.7c0.1-0.1,0.2-0.3,0.3-0.4c0.1-0.2,0.3-0.3,0.4-0.5
	c0.1-0.3,0.2-0.6,0.3-0.8C9.3,30.3,9.2,30.2,9.2,30.2z M14,20.3c0,0,0,0.1,0,0.1c0,0.1,0,0.2,0.1,0.2c0.2,0.2,0.4,0.3,0.6,0.5
	c0.3,0.4,0.8,0.7,1.2,1c0.1,0,0.2,0.1,0.2,0.1c-0.2,0.2-0.3,0.4-0.4,0.7c-0.1,0.3-0.1,0.6-0.1,0.8c0,0.2,0.1,0.3,0.2,0.4
	c0.1,0,0.1-0.1,0.2-0.1c-0.2-0.2-0.1-0.4,0-0.6c0.1-0.2,0.2-0.3,0.3-0.5c0.1-0.2,0.3-0.3,0.5-0.2c0.2,0.1,0.5,0.1,0.8,0.2
	c0.2,0,0.4,0.1,0.5,0.1c-0.1,0.1-0.2,0.2-0.3,0.4c-0.1,0.2,0,0.4-0.1,0.5c-0.1,0.3,0,0.6,0.1,0.9c0,0.1,0.1,0.1,0.1,0.2
	c0,0,0.1,0.1,0.2,0.1c0,0,0.1-0.1,0.1-0.1c0,0-0.1-0.1-0.1-0.1c0,0,0-0.1,0-0.1c0-0.3,0-0.6,0-0.9c0-0.1,0.1-0.3,0.1-0.4
	c0.1-0.2,0.2-0.3,0.3-0.4c0.1,0,0.1,0,0.2,0c0.4,0.1,0.8,0.3,1.3,0c0,0.1,0,0.1,0,0.2c0,0.3-0.1,0.7-0.1,1c0,0.3,0.1,0.5,0.4,0.5
	c0-0.1,0.1-0.1,0.1-0.2c-0.1-0.1-0.2-0.2-0.2-0.2c0-0.2,0-0.5,0-0.7c0-0.2,0.1-0.5,0.2-0.7c0.4-0.2,0.8-0.2,1.2-0.3
	c0.1,0.1,0.1,0.2,0.1,0.3c0.2,0.2,0.4,0.5,0.3,0.8c0,0.1,0,0.3,0.1,0.4c0,0-0.1,0.1-0.1,0.1c0.3,0.2,0.4,0.2,0.5-0.1
	c0-0.2,0.1-0.4,0-0.6c-0.1-0.3-0.3-0.6-0.4-0.9c0.5-0.2,1-0.4,1.5-0.6c0.1,0.1,0.3,0.2,0.4,0.4c0.2,0.3,0.3,0.7,0.3,1
	c0,0,0,0.1,0.1,0.1c0,0,0.1,0,0.1-0.1c0-0.1,0-0.1,0-0.2c0-0.3-0.2-0.7-0.3-1c-0.1-0.2-0.1-0.4-0.4-0.4c0,0,0,0,0-0.1
	c0.1-0.1,0.2-0.1,0.3-0.2c0.2-0.1,0.4-0.2,0.5-0.3c0.2-0.1,0.4-0.2,0.6-0.3c0,0,0.1,0,0.1,0c0,0.1,0.1,0.2,0.1,0.2
	c-0.2,0.2,0,0.3,0.1,0.4c0,0,0.1,0.1,0.1,0.1c0.2,0.3,0.4,0.6,0.4,1c0.2,0,0.3,0,0.2-0.2c0,0,0-0.1,0-0.1c-0.1-0.3-0.2-0.7-0.4-1
	c-0.1-0.2-0.3-0.3-0.4-0.4c0.2-0.2,0.4-0.4,0.6-0.6c0.1-0.1,0.1-0.2,0-0.3c-0.1-0.2-0.2-0.4-0.3-0.6c0.1,0,0.2,0,0.2-0.1
	c0.2-0.1,0.5-0.2,0.7-0.3c0.1,0,0.3-0.1,0.4-0.1c0,0,0.1-0.1,0.1-0.1c0,0-0.1-0.1-0.2-0.1c-0.1,0-0.3,0-0.4,0.1
	c-0.1,0.1-0.2,0.1-0.4,0.1c0,0,0-0.1,0-0.1c0.3-0.1,0.6-0.3,0.9-0.4c0,0,0.1,0,0.1,0.1c0.2,0.2,0.3,0.4,0.5,0.6c0.1,0,0.2,0,0.2,0
	c0,0,0.1,0,0.1,0c0,0,0-0.1,0-0.1c-0.2-0.2-0.1-0.5-0.4-0.5c0,0,0,0,0,0c-0.3-0.3-0.5-0.5-0.8-0.8c-0.3-0.3-0.6-0.6-0.9-0.8
	c-0.1-0.1-0.2-0.1-0.1-0.2c0-0.2-0.1-0.2-0.2-0.2c-0.2-0.1-0.4-0.2-0.6-0.3c-0.2-0.1-0.5-0.3-0.7-0.4c0,0-0.1,0-0.1,0
	c-0.1-0.2-0.3-0.1-0.4-0.2c-0.1-0.1-0.3-0.1-0.4-0.2c-0.2,0-0.3-0.1-0.5-0.1c-0.3-0.1-0.7-0.2-1-0.3C21.5,15.1,21.2,15,21,15
	c-0.3,0-0.6,0-1,0c-0.4,0.1-0.8,0.1-1.2,0.2c-0.2,0-0.3,0.1-0.4,0.1c-0.2,0-0.5,0.1-0.7,0.2c0,0,0,0-0.1,0c-0.1,0-0.2,0-0.2,0.1
	c-0.1,0.1-0.3,0.2-0.5,0.3c0,0,0,0.1-0.1,0.2c-0.2,0.2-0.5,0.5-0.8,0.7c-0.3,0.3-0.5,0.6-0.8,0.9c-0.1,0.1-0.2,0.3-0.3,0.4
	c-0.1,0.2-0.3,0.4-0.4,0.5c-0.1,0.2-0.2,0.4-0.4,0.5c-0.1,0.1-0.2,0.2-0.2,0.4c-0.1,0.2-0.3,0.4-0.4,0.6c-0.1,0.2,0,0.3,0.1,0.4
	C13.8,20.7,13.9,20.6,14,20.3C14,20.4,14,20.4,14,20.3z M13.4,16.4c0.1,0,0.3-0.1,0.3-0.1c0-0.3,0.2-0.5,0.3-0.7
	c0.1-0.2,0.3-0.4,0.4-0.6c0.1-0.1,0.2-0.1,0.3-0.2c0.1-0.2,0.3-0.3,0.5-0.4c0.3-0.1,0.6-0.2,0.9-0.3c0.2-0.1,0.4-0.1,0.6-0.2
	c0.3-0.1,0.6-0.1,0.8-0.1c0.3,0,0.6-0.1,0.9-0.1c0.4,0,0.8,0,1.1,0.1c0.3,0,0.6,0.1,0.8,0.1c0.4,0.1,0.8,0.2,1.2,0.3
	c0.3,0.1,0.6,0.1,0.9,0.2c0.3,0.2,0.7,0.3,1,0.4c0.4,0.2,0.8,0.5,1.2,0.7c0.4,0.3,0.9,0.5,1.3,0.8c0.5,0.3,1,0.7,1.5,1.1
	c0.3,0.2,0.5,0.4,0.8,0.6c0.2,0.1,0.3,0.3,0.5,0.4c0.1,0,0.2,0,0.3,0c0.1-0.1,0-0.3-0.1-0.4c0,0-0.1-0.1-0.1-0.1
	c-0.1-0.1-0.1-0.2-0.2-0.3c-0.1-0.1-0.1-0.2-0.1-0.3c-0.1-0.1-0.2-0.2-0.3-0.3c0.1-0.1,0.2-0.1,0.4-0.2c0.2-0.1,0.5-0.1,0.7-0.4
	c0-0.1,0.1-0.1,0.1-0.2c-0.1,0-0.2-0.1-0.2,0c-0.2,0.1-0.4,0.2-0.6,0.3c-0.1,0.1-0.3,0.1-0.5,0.2c-0.1,0-0.2,0-0.2,0
	c-0.4-0.4-0.9-0.7-1.3-1c-0.1-0.1-0.2-0.1-0.4-0.2c0.2,0,0.4,0,0.5-0.1c0.3-0.2,0.6-0.4,0.8-0.6c0.1-0.1,0.2-0.2,0.1-0.4
	c-0.2,0.1-0.3,0.2-0.5,0.4c-0.4,0.2-0.8,0.4-1.2,0.2c-0.1,0-0.3-0.1-0.4,0c0,0,0,0-0.1,0c-0.1-0.1-0.3-0.1-0.4-0.2
	c-0.3-0.1-0.6-0.3-0.9-0.4c-0.2-0.1-0.4-0.2-0.6-0.2c0.2,0,0.2,0,0.4-0.2c0,0,0.1,0,0.1-0.1c0.2-0.2,0.5-0.4,0.7-0.7
	c0,0,0-0.1,0-0.2c0,0-0.1-0.1-0.2,0c-0.1,0.1-0.4,0.1-0.4,0.3c0,0-0.1,0.1-0.1,0.1c-0.3,0.2-0.6,0.4-1,0.5c-0.3,0-0.5,0-0.7-0.1
	c-0.2,0-0.4-0.2-0.6-0.2c-0.2-0.1-0.4-0.1-0.6-0.2c0.7-0.3,1.2-1.2,1-1.6c-0.1,0-0.2,0.1-0.3,0.1c-0.2,0.2-0.3,0.4-0.5,0.5
	c-0.2,0.2-0.5,0.4-0.8,0.6c-0.1,0-0.2,0.1-0.3,0c-0.1-0.1-0.2,0-0.4-0.1c-0.3-0.1-0.5-0.1-0.8-0.2c0.1-0.1,0.2-0.2,0.3-0.4
	c0.2-0.3,0.3-0.5,0.5-0.8c0,0,0-0.1,0-0.2c-0.1,0-0.2,0-0.2,0c-0.1,0.1-0.1,0.2-0.2,0.3c0-0.1-0.1-0.1-0.1-0.1c0,0-0.1,0-0.1,0
	c-0.1,0.1-0.1,0.2-0.2,0.2c-0.2,0.2-0.4,0.5-0.6,0.7c0,0-0.1,0.1-0.2,0.1c-0.3,0-0.6,0-0.8,0c-0.3,0-0.6,0-0.9,0.2
	c0,0-0.1,0-0.1,0.1c0-0.3,0-0.5-0.1-0.7c0-0.2-0.1-0.4-0.1-0.5c0-0.1-0.1-0.1-0.2-0.1c0,0-0.1,0.1-0.1,0.2c-0.1,0-0.2,0-0.3,0
	c0.1,0.1,0.1,0.2,0.2,0.2c0.1,0.1,0.2,0.3,0.1,0.4c0,0.2-0.1,0.4-0.1,0.6c0,0.3-0.2,0.4-0.4,0.6c0,0-0.1,0-0.2,0
	c-0.2,0.1-0.5,0.3-0.7,0.4c-0.2,0.2-0.5,0.3-0.7,0.5c0.1-0.7,0.3-1.2,0.7-1.7c-0.1-0.1-0.2-0.2-0.2-0.3c-0.1-0.1-0.2-0.1-0.2,0
	c-0.1,0.2-0.3,0.4-0.4,0.6c-0.1,0.1-0.2,0.2-0.3,0.3c-0.1,0.2-0.1,0.4-0.2,0.5c-0.3,0.4-0.2,0.9-0.2,1.3c0,0.2-0.1,0.2-0.1,0.4
	c0,0.1,0,0.1,0,0.2c0.1,0,0.1,0,0.2,0c0,0.1,0,0.3-0.1,0.5c-0.3-0.4-0.6-0.8-1-1.1c-0.1,0.2-0.2,0.3-0.3,0.4c0,0,0,0.1,0,0.1
	c0.2,0.2,0.3,0.5,0.5,0.7c0.6,0.6,0.8,1.3,0.9,2.1c0.1,0.4,0.3,0.8,0.3,1.2c0,0,0.1,0.1,0.2,0.1c0.1,0,0.2,0,0.3-0.1
	c0.1-0.1,0.1-0.2,0.1-0.3c0.1-0.3,0-0.5,0-0.8c-0.1-0.3-0.1-0.6-0.2-0.9C13.3,17.2,13.4,16.8,13.4,16.4z M26.1,20.4
	c0.2,0.2,0.4,0.3,0.6,0.5c0.2,0.2,0.4,0.5,0.4,0.8c0,0.1,0.1,0.1,0.1,0.2c0.1-0.1,0.2-0.2,0.2-0.2c0-0.2-0.1-0.4-0.2-0.6
	c-0.2-0.3-0.4-0.6-0.8-0.8C26.3,20.3,26.2,20.3,26.1,20.4z"/>
<path class="st1" d="M40.1,49.7c-0.1,0-0.3-0.1-0.4-0.1c-0.1,0-0.2-0.1-0.2-0.3c0.1-0.2,0-0.4,0-0.6c0-0.4-0.1-0.9-0.1-1.3
	c0-0.2,0-0.4,0-0.6c0-0.2,0-0.5,0-0.7c0-0.2,0-0.5,0-0.7c0-0.7,0-1.4,0-2.1c0-0.6,0-1.1,0.1-1.7c0-0.7,0.1-1.5,0.1-2.2
	c0-0.6,0-1.1,0-1.7c0-0.4,0-0.8,0-1.3c0-0.5,0-1,0.1-1.5c0-0.5,0-0.9,0-1.4c0-0.5,0.1-1.1,0.1-1.6c0-0.7,0-1.4,0.1-2.1
	c0-0.6,0.1-1.1,0.1-1.7c0-0.4,0-0.8,0-1.2c0.1-0.7,0.1-1.5,0.2-2.2c0-0.2,0-0.4,0-0.6c0-0.5,0.1-1,0.1-1.6c0-0.5,0-1,0-1.6
	c0-0.4,0.1-0.8,0.1-1.2c0-0.3,0.1-0.6,0.1-1c0-0.6,0-1.3,0.1-1.9c0-0.4,0.1-0.8,0.1-1.3c0-0.3,0-0.6,0-0.9c0-0.5,0.1-1,0.1-1.4
	c0-0.4,0-0.8,0-1.2c0-0.2,0-0.4,0-0.7c0-0.4,0-0.8,0-1.2c0-0.5,0-1,0-1.5c0-0.8,0-1.7,0-2.5c0-0.4,0.1-0.8,0.1-1.2
	c0-0.3,0-0.7,0.1-1c0-0.4,0.1-0.9,0.1-1.3C41,2.6,41,2.3,41,2c0-0.2,0.2-0.4,0.4-0.4c0.2,0,0.4,0.2,0.4,0.4c0,0.2,0,0.4,0,0.6
	c0,0.7,0.1,1.4,0.1,2c0,0.9,0,1.8-0.1,2.6c0,0.8-0.1,1.6-0.1,2.5c0,0.2-0.1,0.4-0.1,0.6c0,0.5-0.1,1.1-0.1,1.6c0,0.4,0,0.8-0.1,1.2
	c0,0.3,0,0.5,0,0.8c0,0.7,0,1.4,0,2.1c0,0.6,0,1.2-0.1,1.8c0,0.5,0,1,0,1.5c0,0.5-0.1,0.9-0.2,1.4c0,0.2,0,0.4,0,0.6
	c0,0.5-0.1,1-0.1,1.5c0,0.4-0.1,0.7-0.1,1.1c0,0.3,0,0.6-0.1,1c0,0.4-0.1,0.9-0.1,1.3c0,0.5-0.1,1.1-0.1,1.6c0,0.5,0,1.1-0.1,1.6
	c0,0.6-0.1,1.2-0.1,1.8c0,0.3,0,0.5,0,0.8c0,0.4-0.1,0.9-0.1,1.3c0,0.5,0,1,0,1.5c0,0.2,0,0.4,0,0.6c0,0.3,0,0.6,0,0.9
	c0,0.5-0.1,1-0.1,1.5c0,0.3,0.1,0.6,0.1,0.9c0,0.4,0,0.7,0,1.1c0,0.5,0,1,0,1.4c0,0.3,0,0.7,0,1c0,0.6,0,1.1,0,1.7
	c0,0.8,0,1.5,0,2.3c0,0.5-0.1,1-0.1,1.5c0,0.3,0,0.6,0,0.9c0,0.3,0,0.5,0,0.8C40.1,49.6,40.1,49.7,40.1,49.7z"/>
<path class="st1" d="M31.9,7.6c0,0.3,0,0.7,0,1.1c0,0.4-0.1,0.7-0.2,1.1c0,0.2-0.1,0.4-0.1,0.7c0,0,0,0,0,0.1c0.3,0.2,0,0.5,0,0.7
	c0,0.3,0,0.5-0.1,0.8c0,0.3-0.1,0.6-0.1,1c-1.4-0.6-2.8-1.3-4.2-2c0.2-0.2,0.5-0.5,0.7-0.7c0.3-0.3,0.7-0.6,1-0.9
	c0.5-0.3,0.9-0.6,1.4-0.9c0.2-0.1,0.4-0.2,0.5-0.3c0.3-0.1,0.5-0.3,0.8-0.4C31.7,7.7,31.9,7.6,31.9,7.6z"/>
<path class="st1" d="M21.7,7.9c-0.2-0.1-0.5-0.3-0.7-0.4c0.1-0.2,0.2-0.3,0.3-0.5c0-0.1,0.1-0.1,0.2-0.2c0.2-0.2,0.3-0.4,0.5-0.6
	c0.1-0.2,0.2-0.3,0.3-0.5c0.1-0.2,0.2-0.4,0.3-0.5c0.2-0.3,0.8-1.1,0.7-1.1c0,0,1.7,0.2,2.5,0.5c-0.3,0.2-0.5,0.5-0.8,0.7
	c-0.3,0.3-0.7,0.5-1.1,0.8c-0.4,0.3-0.8,0.6-1.1,1c-0.2,0.2-0.4,0.3-0.6,0.5C22.1,7.7,21.9,7.8,21.7,7.9z"/>
<path class="st1" d="M23.2,3.9c0,0,0.1,0,0.1,0c0,0,0,0,0,0c-0.2,0.2-0.4,0.4-0.5,0.6c0,0,0,0,0,0C22.9,4.3,23.1,4.1,23.2,3.9z"/>
<path class="st2" d="M14,20.3C14,20.4,14,20.4,14,20.3c-0.1,0.2-0.2,0.3-0.3,0.3c-0.1,0-0.2-0.2-0.1-0.4c0.1-0.2,0.3-0.4,0.4-0.6
	c0.1-0.1,0.2-0.3,0.2-0.4c0.1-0.2,0.2-0.4,0.4-0.5c0.1-0.2,0.3-0.4,0.4-0.5c0.1-0.1,0.2-0.3,0.3-0.4c0.3-0.3,0.5-0.6,0.8-0.9
	c0.2-0.3,0.5-0.5,0.8-0.7c0,0,0.1-0.1,0.1-0.2c0.2-0.1,0.3-0.2,0.5-0.3c0.1,0,0.2-0.1,0.2-0.1c0,0,0.1,0,0.1,0
	c0.2-0.1,0.5-0.2,0.7-0.2c0.2,0,0.3-0.1,0.4-0.1c0.4-0.1,0.8-0.2,1.2-0.2c0.3,0,0.6,0,1,0c0.2,0,0.5,0.1,0.7,0.1
	c0.3,0.1,0.7,0.2,1,0.3c0.2,0,0.3,0.1,0.5,0.1c0.1,0,0.3,0.1,0.4,0.2c0.1,0.1,0.3,0,0.4,0.2c0,0,0.1,0,0.1,0
	c0.3,0.1,0.5,0.3,0.7,0.4c0.2,0.1,0.4,0.2,0.6,0.3c0.1,0,0.2,0,0.2,0.2c0,0.1,0.1,0.1,0.1,0.2c0.3,0.3,0.6,0.6,0.9,0.8
	c0.3,0.3,0.5,0.5,0.8,0.8c0,0,0,0,0,0c0.3,0,0.3,0.3,0.4,0.5c0,0,0,0.1,0,0.1c0,0-0.1,0-0.1,0c-0.1,0-0.1,0-0.2,0
	c-0.1-0.2-0.3-0.4-0.5-0.6c0,0-0.1-0.1-0.1-0.1c-0.3,0.1-0.6,0.3-0.9,0.4c0,0,0,0,0,0.1c0.1,0,0.3-0.1,0.4-0.1
	c0.1-0.1,0.3-0.1,0.4-0.1c0,0,0.1,0,0.2,0.1c0,0-0.1,0.1-0.1,0.1c-0.1,0-0.3,0.1-0.4,0.1c-0.2,0.1-0.5,0.2-0.7,0.3
	c-0.1,0-0.1,0-0.2,0.1c0.1,0.2,0.2,0.4,0.3,0.6c0.1,0.1,0.1,0.2,0,0.3c-0.2,0.2-0.4,0.4-0.6,0.6c0.1,0.1,0.3,0.3,0.4,0.4
	c0.2,0.3,0.3,0.6,0.4,1c0,0,0,0.1,0,0.1c0,0.2,0,0.3-0.2,0.2c0-0.4-0.2-0.7-0.4-1c0,0-0.1-0.1-0.1-0.1c-0.1-0.1-0.3-0.2-0.1-0.4
	c0,0-0.1-0.1-0.1-0.2c0,0-0.1,0-0.1,0c-0.2,0.1-0.4,0.2-0.6,0.3c-0.2,0.1-0.4,0.2-0.5,0.3c-0.1,0.1-0.2,0.1-0.3,0.2c0,0,0,0.1,0,0.1
	c0.3-0.1,0.3,0.2,0.4,0.4c0.2,0.3,0.3,0.6,0.3,1c0,0.1,0,0.2,0,0.2c0,0-0.1,0.1-0.1,0.1c0,0-0.1-0.1-0.1-0.1c0-0.4-0.1-0.7-0.3-1
	c-0.1-0.2-0.3-0.3-0.4-0.4c-0.5,0.2-1,0.4-1.5,0.6c0.1,0.3,0.3,0.6,0.4,0.9c0.1,0.2,0,0.4,0,0.6c0,0.3-0.2,0.4-0.5,0.1
	c0,0,0.1-0.1,0.1-0.1c0-0.1-0.1-0.3-0.1-0.4c0-0.3-0.2-0.6-0.3-0.8c0-0.1-0.1-0.1-0.1-0.3c-0.4,0.1-0.8,0-1.2,0.3
	c-0.1,0.2-0.1,0.5-0.2,0.7c0,0.2,0,0.5,0,0.7c0,0.1,0.1,0.2,0.2,0.2c0,0.1-0.1,0.1-0.1,0.2c-0.3-0.1-0.4-0.3-0.4-0.5
	c0-0.3,0.1-0.7,0.1-1c0-0.1,0-0.1,0-0.2c-0.5,0.3-0.9,0-1.3,0c-0.1,0-0.1,0-0.2,0c-0.1,0.1-0.2,0.3-0.3,0.4C18.1,23.7,18,23.8,18,24
	c0,0.3,0,0.6,0,0.9c0,0,0,0.1,0,0.1c0,0,0.1,0.1,0.1,0.1c0,0-0.1,0.1-0.1,0.1c-0.1,0-0.1-0.1-0.2-0.1c0,0-0.1-0.1-0.1-0.2
	c-0.1-0.3-0.2-0.6-0.1-0.9c0.1-0.2,0-0.4,0.1-0.5c0.1-0.1,0.2-0.2,0.3-0.4c-0.2,0-0.3-0.1-0.5-0.1c-0.2-0.1-0.5-0.1-0.8-0.2
	c-0.2,0-0.4,0.1-0.5,0.2c-0.1,0.2-0.2,0.3-0.3,0.5c-0.1,0.2-0.1,0.4,0,0.6c-0.1,0-0.1,0.1-0.2,0.1c-0.2-0.1-0.2-0.2-0.2-0.4
	c0-0.3-0.1-0.6,0.1-0.8c0.1-0.2,0.3-0.4,0.4-0.7c-0.1,0-0.1-0.1-0.2-0.1c-0.5-0.3-0.9-0.6-1.2-1c-0.2-0.2-0.4-0.3-0.6-0.5
	c-0.1-0.1-0.1-0.2-0.1-0.2C14,20.4,14,20.4,14,20.3z M18.9,16.9c0.2,0,0.3-0.1,0.4-0.1c0.5,0,1,0,1.5,0c0.1,0,0.1,0,0.2,0
	c0.1-0.1,0.1-0.3,0.1-0.5c0-0.2,0-0.4,0.1-0.5c0-0.1,0.2-0.1,0.3-0.1c0.1,0,0.1,0.1,0,0.2c0,0.1,0,0.2-0.1,0.3c0,0.1,0,0.3-0.1,0.4
	c-0.1,0.2,0,0.2,0.1,0.2c0.2,0.1,0.5,0.1,0.7,0.2c0.2,0.1,0.4,0.2,0.6,0.2c0.1,0,0.2,0,0.2-0.1c0.1-0.2,0.2-0.5,0.4-0.8
	c0,0,0.1-0.1,0.1-0.1c0,0,0.1,0,0.1,0.1c0.1,0.1,0.1,0.2,0.1,0.3c-0.1,0.2-0.1,0.4-0.2,0.5c0,0,0,0.1,0,0.1c0.1,0.1,0.2,0.3,0.3,0.4
	c0.2,0.2,0.4,0.3,0.5,0.4c0.1-0.1,0.2-0.2,0.3-0.4c0.1-0.1,0.2-0.2,0.3-0.4c0,0,0-0.1,0.1-0.2c0.1-0.1,0.3-0.1,0.4,0.1
	c-0.3,0.3-0.5,0.7-0.8,1c0.2,0.2,0.4,0.3,0.5,0.4c0,0,0,0,0-0.1c0.2-0.1,0.3-0.3,0.4-0.5c0-0.1,0.1-0.2,0.2-0.3c0,0,0.1,0,0.2-0.1
	c0,0,0,0,0,0.1c-0.1,0.3-0.2,0.6-0.3,0.9c0.4-0.1,0.8-0.2,1.2-0.4c-0.1-0.1-0.2-0.2-0.3-0.3c-0.2-0.2-0.4-0.4-0.6-0.6
	c-0.3-0.2-0.5-0.4-0.8-0.7c0,0,0,0,0-0.1c0,0-0.1-0.1-0.1-0.1c-0.3-0.2-0.6-0.4-0.9-0.5c-0.5-0.3-1.1-0.5-1.6-0.6
	c-0.2-0.1-0.5-0.1-0.7-0.2c-0.3-0.1-0.6-0.1-0.9-0.1c-0.4,0-0.9,0.1-1.3,0.2c-0.2,0-0.5,0.1-0.7,0.1c-0.3,0-0.7,0.1-0.9,0.3
	c-0.2,0.1-0.4,0.3-0.6,0.4c0.1,0.4,0.1,0.7,0.2,1.1c0.4-0.2,0.8-0.4,1.2-0.5c0-0.3,0-0.6,0.1-1c0.1,0.1,0.3,0.1,0.3,0.1
	C18.9,16.3,19,16.5,18.9,16.9C19,16.8,19,16.8,18.9,16.9z M17.5,20.4c0-0.1,0-0.2,0-0.3c0-0.2,0-0.4,0-0.6c0-0.3,0.1-0.5,0.2-0.8
	c0.1-0.2,0.2-0.4,0.3-0.5c0.2-0.2,0.4-0.5,0.6-0.6c0.2-0.1,0.5-0.2,0.7-0.3c0.2-0.1,0.5-0.1,0.7,0c0.1,0,0.2,0.1,0.3,0.1
	c0.2,0,0.3,0.1,0.5,0.2c0.2,0.2,0.4,0.4,0.5,0.6c0.2,0.3,0.3,0.6,0.4,0.9c0.1,0.3,0.1,0.6,0.1,0.8c0.2,0,0.5,0,0.6,0
	c0.8-0.2,1.4-0.4,2.1-0.5c0,0,0-0.1-0.1-0.1c-0.3-0.3-0.6-0.6-1-0.8c-0.2-0.1-0.3-0.2-0.5-0.2c-0.3-0.1-0.6-0.3-0.9-0.4
	c-0.1,0-0.2-0.1-0.3-0.1c-0.3-0.1-0.6-0.1-0.9-0.2c-0.4-0.1-0.7-0.3-1.1-0.3c-0.3,0-0.6,0.1-0.8,0.1c-0.1,0-0.2,0.1-0.3,0.1
	c-0.5,0.1-0.9,0.3-1.3,0.5c-0.1,0-0.1,0.1-0.2,0.1c-0.2,0-0.3,0-0.4,0.1c-0.3,0.2-0.6,0.4-0.8,0.8c-0.1-0.1-0.1-0.1-0.1-0.2
	c0,0-0.1,0.1-0.1,0.1c0,0.2-0.1,0.3-0.2,0.4c-0.1,0.1-0.2,0.2-0.2,0.2c-0.2,0.2-0.5,0.5-0.7,0.8c0,0,0,0.1,0,0.1s0.1,0,0.1,0
	c0.2,0,0.4,0,0.6,0c0.2,0,0.4,0,0.6,0c0.4,0,0.8-0.1,1.2-0.1c0,0,0,0,0-0.1c0.1,0,0.2,0.1,0.3,0.1C17.3,20.5,17.4,20.4,17.5,20.4z
	 M21.3,20.4c0.1-0.5,0.2-0.9,0-1.4c0-0.1,0-0.2-0.1-0.3c-0.2-0.2-0.3-0.4-0.5-0.6c0,0-0.1-0.1-0.1-0.1c-0.2-0.1-0.5-0.1-0.7-0.2
	c-0.2,0-0.4,0-0.5,0c-0.3,0.1-0.5,0.3-0.7,0.5c-0.3,0.3-0.4,0.6-0.6,0.9c-0.2,0.4-0.2,0.8-0.1,1.2c0,0.1,0,0.3,0.1,0.4
	c0.2,0.2,0.4,0.5,0.6,0.6c0.3,0.2,0.6,0.5,1,0.6c0.3,0.1,0.6,0.1,0.8-0.2c0.3-0.3,0.5-0.6,0.7-1.1C21.2,20.7,21.3,20.5,21.3,20.4z
	 M19.7,22.7C19.7,22.7,19.7,22.7,19.7,22.7c0,0.1,0.1,0.1,0.1,0.1c0.3-0.1,0.7-0.1,1-0.2c0.4-0.1,0.7-0.3,1.1-0.4
	c0.4-0.1,0.8-0.3,1.2-0.4c0.3-0.2,0.6-0.3,0.9-0.5c0.4-0.2,0.8-0.4,1.1-0.7c0.2-0.1,0.2-0.2,0.1-0.3c-0.1-0.1-0.2-0.2-0.3-0.3
	c0,0-0.1-0.1-0.2-0.1c-0.3,0.1-0.6,0.2-0.9,0.3c-0.4,0.1-0.8,0.2-1.2,0.3c-0.3,0.1-0.6,0.1-0.9,0.2c-0.1,0-0.2,0.1-0.2,0.2
	c-0.1,0.4-0.3,0.8-0.6,1.2c-0.2,0.2-0.4,0.4-0.6,0.6C20.2,22.7,19.9,22.7,19.7,22.7z M15.4,20.9c0.8,0.9,1.9,1.4,3.1,1.6
	c-0.6-0.4-0.7-1.1-1-1.6C16.8,20.9,16.1,20.9,15.4,20.9z M16.8,16.6c-0.1,0.1-0.1,0.1-0.2,0.2c-0.2,0.3-0.5,0.5-0.7,0.8
	c-0.2,0.2-0.2,0.4-0.1,0.7c0,0.1,0.1,0.1,0.1,0.2c0,0,0,0,0,0c0.3-0.2,0.6-0.4,0.9-0.6c0,0,0-0.1,0-0.2C16.9,17.3,16.9,17,16.8,16.6
	z M15.7,18.6c-0.1-0.1-0.2-0.2-0.3-0.4c-0.3,0.4-0.5,0.8-0.8,1.2c0,0,0,0,0,0C15,19.2,15.4,18.9,15.7,18.6z M22.9,20
	C22.9,20,22.9,20,22.9,20c-0.3,0-0.5,0-0.7,0.1c-0.2,0.1-0.3,0.1-0.5-0.1c0,0.2,0,0.3,0,0.4C22.1,20.2,22.5,20.1,22.9,20z
	 M14.2,20.3c0.1-0.1,0.3-0.3,0.4-0.4c-0.1-0.1-0.1-0.1-0.2-0.2c-0.1,0.1-0.1,0.2-0.2,0.3C14.2,20.3,14.2,20.3,14.2,20.3z M18.5,21.8
	c0.1,0.3,0.5,0.4,0.8,0.5C19,22.1,18.8,21.9,18.5,21.8z M20,15.3C20,15.3,20,15.3,20,15.3c-0.3,0-0.7,0.1-1,0.1c0,0,0,0,0,0.1
	C19.3,15.4,19.6,15.4,20,15.3z"/>
<path class="st3" d="M13.4,16.4c0,0.4-0.1,0.8,0.1,1.3c0.1,0.3,0.1,0.6,0.2,0.9c0.1,0.3,0.1,0.5,0,0.8c0,0.1,0,0.2-0.1,0.3
	c-0.1,0.1-0.2,0.1-0.3,0.1c-0.1,0-0.2-0.1-0.2-0.1c0-0.4-0.2-0.8-0.3-1.2c-0.2-0.8-0.4-1.5-0.9-2.1c-0.2-0.2-0.3-0.4-0.5-0.7
	c0,0,0-0.1,0-0.1c0.1-0.1,0.2-0.3,0.3-0.4c0.4,0.3,0.7,0.6,1,1c0-0.2,0-0.3,0.1-0.5c-0.1,0-0.2,0-0.2,0c0-0.1,0-0.1,0-0.2
	c0-0.1,0.1-0.2,0.1-0.4c0-0.5-0.1-0.9,0.2-1.3c0.1-0.2,0.1-0.4,0.2-0.5c0.1-0.1,0.2-0.2,0.3-0.3c0.2-0.2,0.3-0.4,0.4-0.6
	c0.1-0.1,0.2-0.1,0.2,0c0.1,0.1,0.2,0.2,0.2,0.3c-0.4,0.5-0.6,1.1-0.7,1.7c0.3-0.2,0.5-0.4,0.7-0.5c0.2-0.2,0.5-0.3,0.7-0.4
	c0.1,0,0.1,0,0.2,0c0.2-0.1,0.4-0.3,0.4-0.6c0-0.2,0.1-0.4,0.1-0.6c0-0.2,0-0.3-0.1-0.4c-0.1-0.1-0.1-0.1-0.2-0.2c0.2,0,0.3,0,0.3,0
	c0.1-0.1,0.1-0.2,0.1-0.2c0.1,0,0.2,0.1,0.2,0.1c0.1,0.2,0.1,0.4,0.1,0.5c0,0.2,0,0.5,0.1,0.7c0,0,0.1,0,0.1-0.1
	c0.2-0.2,0.5-0.2,0.9-0.2c0.3,0,0.6,0,0.8,0c0.1,0,0.2,0,0.2-0.1c0.2-0.2,0.4-0.5,0.6-0.7c0.1-0.1,0.1-0.2,0.2-0.2
	c0,0,0.1-0.1,0.1,0c0,0,0.1,0.1,0.1,0.1c0.1-0.1,0.1-0.2,0.2-0.3c0,0,0.1,0,0.2,0c0,0.1,0,0.1,0,0.2c-0.2,0.3-0.3,0.5-0.5,0.8
	c-0.1,0.1-0.2,0.2-0.3,0.4c0.3,0.1,0.5,0.1,0.8,0.2c0.1,0,0.3,0,0.4,0.1c0,0,0.2,0,0.3,0c0.3-0.2,0.5-0.4,0.8-0.6
	c0.2-0.2,0.3-0.4,0.5-0.5c0.1-0.1,0.2-0.1,0.3-0.1c0.2,0.3-0.3,1.3-1,1.6c0.2,0.1,0.4,0.1,0.6,0.2c0.2,0.1,0.4,0.2,0.6,0.2
	c0.2,0.1,0.4,0.1,0.7,0.1c0.4-0.1,0.7-0.3,1-0.5c0,0,0.1,0,0.1-0.1c0-0.2,0.3-0.2,0.4-0.3c0,0,0.1,0,0.2,0c0,0,0,0.1,0,0.2
	c-0.2,0.2-0.4,0.5-0.7,0.7c0,0-0.1,0-0.1,0.1C23.6,14,23.6,14,23.3,14c0.2,0.1,0.4,0.1,0.6,0.2c0.3,0.1,0.6,0.3,0.9,0.4
	c0.1,0.1,0.3,0.1,0.4,0.2c0,0,0.1,0,0.1,0c0.1-0.1,0.3,0,0.4,0c0.5,0.1,0.8,0,1.2-0.2c0.2-0.1,0.3-0.2,0.5-0.4
	c0.1,0.2,0,0.4-0.1,0.4c-0.2,0.2-0.5,0.4-0.8,0.6c-0.1,0.1-0.3,0.1-0.5,0.1c0.1,0.1,0.2,0.1,0.4,0.2c0.5,0.3,0.9,0.6,1.3,1
	c0,0,0.2,0,0.2,0c0.2,0,0.3-0.1,0.5-0.2c0.2-0.1,0.4-0.2,0.6-0.3c0.1,0,0.1,0,0.2,0c0,0.1,0,0.1-0.1,0.2c-0.1,0.3-0.4,0.3-0.7,0.4
	c-0.1,0.1-0.2,0.1-0.4,0.2c0.1,0.1,0.2,0.2,0.3,0.3c0.1,0.1,0.1,0.2,0.1,0.3c0.1,0.1,0.1,0.2,0.2,0.3c0,0,0.1,0.1,0.1,0.1
	c0.1,0.1,0.2,0.3,0.1,0.4c0,0-0.2,0-0.3,0c-0.2-0.1-0.3-0.2-0.5-0.4c-0.3-0.2-0.5-0.4-0.8-0.6c-0.5-0.4-1-0.7-1.5-1.1
	c-0.4-0.3-0.9-0.5-1.3-0.8c-0.4-0.2-0.8-0.5-1.2-0.7c-0.3-0.2-0.7-0.3-1-0.4c-0.3-0.1-0.6-0.1-0.9-0.2c-0.4-0.1-0.8-0.2-1.2-0.3
	c-0.3-0.1-0.6-0.1-0.8-0.1c-0.4,0-0.8-0.1-1.1-0.1c-0.3,0-0.6,0.1-0.9,0.1c-0.3,0-0.6,0.1-0.8,0.1c-0.2,0-0.4,0.1-0.6,0.2
	c-0.3,0.1-0.6,0.2-0.9,0.3c-0.2,0.1-0.4,0.1-0.5,0.4c0,0.1-0.2,0.1-0.3,0.2c-0.2,0.2-0.3,0.4-0.4,0.6c-0.1,0.2-0.3,0.4-0.3,0.7
	C13.7,16.3,13.5,16.3,13.4,16.4z M19.3,11.9C19.3,11.9,19.3,11.8,19.3,11.9c-0.1-0.1-0.2-0.1-0.2,0c-0.1,0.2-0.3,0.4-0.4,0.6
	c0,0,0,0,0,0.1C18.9,12.3,19.1,12.1,19.3,11.9z M13.1,15c0-0.3,0-0.5,0.1-0.8c0,0,0,0,0,0C13,14.5,13,14.7,13.1,15z"/>
<path class="st4" d="M26.1,20.4c0.1-0.1,0.2-0.1,0.3-0.1c0.4,0.2,0.5,0.5,0.8,0.8c0.1,0.2,0.2,0.4,0.2,0.6c0,0.1-0.1,0.2-0.2,0.2
	c0-0.1-0.1-0.1-0.1-0.2c0-0.3-0.2-0.6-0.4-0.8C26.5,20.8,26.3,20.6,26.1,20.4z"/>
<path class="st3" d="M44.9,44.1c0-0.3-0.2-0.5-0.4-0.7c-0.1-0.1-0.2-0.2-0.3-0.3c-0.2-0.2-0.5-0.5-0.7-0.7c-0.1-0.1-0.2-0.2-0.3-0.2
	c0,0-0.1-0.1-0.1-0.2c0,0,0,0,0-0.1c0,0,0,0-0.1,0c-0.4-0.2-0.6-0.6-0.9-0.8c-0.2-0.2-0.2-0.4-0.3-0.6c-0.1-0.3-0.2-0.7-0.2-1
	c0-0.1,0-0.3,0-0.4c0-0.1,0-0.1,0-0.2c0-0.3-0.1-0.5-0.1-0.8c0-0.2,0-0.4,0-0.6c0,0,0.1-0.1,0.1-0.1c0,0,0.1,0.1,0.1,0.1
	c0.1,0.4,0.2,0.8,0.2,1.2c0,0.3,0.1,0.5,0.2,0.7c0,0.3,0.1,0.7,0.3,1c0,0.1,0,0.1,0.1,0.1c0.2,0.2,0.5,0.4,0.7,0.6
	c0.1,0.1,0.2,0.2,0.2,0.3c0,0,0.1,0,0.1,0.1c0.1,0.1,0.1,0.1,0.2,0.2c0.1,0.1,0.2,0.1,0.3,0.2c0,0,0,0.1,0.1,0.1c0,0,0,0.1,0,0.1
	c0.2,0.2,0.5,0.3,0.6,0.6c0.2,0.2,0.4,0.3,0.5,0.6c0,0.1,0.1,0.1,0.2,0.1c0.1,0.1,0.1,0.2,0.1,0.3c0.1,0.4,0.3,0.7,0.4,1.1
	c0,0.1,0,0.2,0,0.2c0,0.2,0.1,0.4,0.1,0.6c0,0.2,0,0.5,0,0.7c0.1,0.3,0,0.6-0.1,1c0,0.2-0.1,0.4-0.2,0.6c-0.1,0.2-0.2,0.4-0.2,0.6
	c0,0.1-0.1,0.3-0.2,0.4c-0.2,0.1-0.4,0.3-0.5,0.4c-0.1,0.2-0.3,0.1-0.5,0.1c-0.2,0.1-0.4,0.1-0.6,0c-0.2,0-0.4,0-0.6,0
	c-0.2,0-0.3-0.1-0.5-0.2c-0.2-0.1-0.4-0.2-0.5-0.4c-0.1-0.2-0.2-0.4-0.4-0.5c0-0.1-0.1-0.1-0.1-0.2c0-0.1-0.1-0.2-0.1-0.2
	c0-0.1-0.1-0.2-0.1-0.3c0-0.1-0.1-0.1,0-0.3c0,0,0-0.1,0-0.2c0-0.1,0-0.2,0.1-0.3c0.1-0.2,0.5-0.2,0.6-0.1c0,0,0,0.2,0,0.2
	c-0.2,0.3-0.2,0.6,0,0.8c0.1,0.2,0.3,0.3,0.4,0.5c0.1,0.3,0.3,0.3,0.5,0.4c0.2,0.1,0.5,0.1,0.7,0.1c0.3,0,0.6,0,0.8-0.1
	c0.3-0.1,0.6-0.3,0.7-0.7c0-0.2,0.2-0.3,0.2-0.5c0.1-0.2,0.1-0.4,0.1-0.6c0-0.5,0-1-0.1-1.4c0-0.3-0.1-0.5-0.2-0.8
	c0-0.1-0.1-0.1-0.1-0.2C45.2,44.2,45.1,44.1,44.9,44.1z"/>
<path class="st2" d="M38.3,13.6c-0.1-0.3-0.1-0.6-0.2-0.9c0-0.2,0-0.3-0.1-0.5c-0.1-0.3-0.1-0.7-0.2-1c-0.1-0.7-0.3-1.4-0.5-2.1
	c-0.1-0.5-0.3-1.1-0.6-1.5c-0.1-0.2-0.3-0.4-0.5-0.7c-0.1-0.1-0.2-0.3-0.2-0.4c0-0.1,0-0.1,0-0.2c0.4-0.1,0.4,0.2,0.5,0.4
	c0.1,0.1,0.1,0.2,0.2,0.3c0.3,0.4,0.5,0.9,0.7,1.3c0.1,0.3,0.2,0.6,0.3,0.9c0.1,0.4,0.2,0.8,0.3,1.2c0.1,0.5,0.3,1,0.4,1.5
	c0.1,0.6,0.2,1.1,0.3,1.7c0.1,0.6,0.2,1.3,0.3,1.9c0.1,0.5,0.1,1.1,0.2,1.7c0,0.3,0.1,0.7,0.2,1c0.1,0.7,0.1,1.4,0.1,2.1
	c0,0.4-0.1,0.7-0.1,1.1c0,0.3,0,0.7-0.1,1C39.1,23,39,23.6,39,24.2c0,0.2,0,0.5-0.1,0.7c0,0.3-0.1,0.7-0.1,1c0,0.2,0,0.5-0.1,0.7
	c-0.1,0.5-0.1,1-0.2,1.5c-0.1,0.3-0.2,0.7-0.3,1c0,0.1,0,0.3-0.1,0.4c-0.2,0.2-0.2,0.4-0.3,0.6c-0.2,0.4-0.4,0.8-0.5,1.2
	c0,0.1-0.1,0.2-0.2,0.2c-0.2,0.2-0.5,0.4-0.8,0.5c-0.1,0.1-0.3,0.1-0.5,0.1c-0.3-0.1-0.7-0.2-1-0.4c-0.2-0.1-0.5-0.3-0.6-0.5
	c-0.2-0.3-0.4-0.7-0.6-1.1c-0.1-0.1-0.1-0.3-0.2-0.4c-0.1-0.3-0.2-0.6-0.3-0.9c-0.1-0.2-0.2-0.4-0.2-0.5c0-0.5-0.3-0.9-0.2-1.4
	c0-0.2-0.1-0.3-0.1-0.5c0-0.2-0.1-0.5-0.1-0.7c0-0.4,0-0.8,0-1.3c0-0.3,0-0.7,0-1c0-0.2,0-0.4,0-0.6c0-0.6,0.1-1.3,0.1-1.9
	c0-0.7,0.2-1.4,0.3-2.1c0.1-0.4,0.2-0.8,0.2-1.2c0.1-0.3,0.1-0.7,0.2-1c0-0.2,0.1-0.3,0.1-0.4c0,0,0-0.1,0-0.1
	c0.1-0.3,0.1-0.6,0.2-0.9c0.1-0.3,0.2-0.6,0.3-0.9c0.1-0.3,0.2-0.5,0.4-0.8c0.2-0.3,0.5-0.5,0.8-0.6c0.4-0.2,0.8-0.4,1.2-0.4
	c0.1,0,0.3-0.1,0.4-0.1c0.3,0,0.6,0.1,0.8,0.3c0.3,0.2,0.5,0.5,0.7,0.7C38.1,13.5,38.2,13.6,38.3,13.6
	C38.2,13.7,38.3,13.6,38.3,13.6z M38.2,25C38.2,25,38.2,25,38.2,25c-0.1-0.1-0.1-0.2-0.1-0.3c0.1-0.4,0.1-0.8,0.2-1.1
	c0-0.2,0.1-0.5,0.1-0.7c0.1-0.5,0.1-0.9,0.2-1.4c0-0.3,0-0.6,0-0.8c0-0.5,0-1.1,0-1.6c0-0.5-0.1-1-0.1-1.5c0-0.3,0-0.5-0.1-0.8
	c0-0.2-0.1-0.5-0.2-0.7c-0.1-0.3-0.1-0.6-0.2-0.9c-0.2-0.4-0.4-0.8-0.6-1.2c-0.1-0.2-0.3-0.4-0.6-0.5c-0.2-0.1-0.4-0.2-0.5-0.3
	c-0.1-0.1-0.3-0.1-0.4-0.1c-0.1,0-0.2,0.1-0.2,0.1c-0.2,0.2-0.5,0.3-0.7,0.5c-0.2,0.2-0.4,0.5-0.5,0.8c-0.2,0.4-0.4,0.7-0.6,1.1
	c-0.2,0.4-0.2,0.8-0.3,1.1c0,0.1-0.1,0.2-0.1,0.2c-0.1,0.4-0.1,0.7-0.2,1.1c-0.1,0.5-0.3,1-0.3,1.5c0,0.2-0.1,0.3-0.1,0.5
	c0,0.4-0.1,0.7-0.1,1.1c0,0.3-0.1,0.6-0.1,0.9c0,0.3,0,0.5,0,0.8c0,0.2,0,0.3,0,0.5c0,0.1,0,0.3,0,0.4c0,0.1,0,0.2,0,0.3
	c0,0.1,0,0.1,0,0.2c0,0.1-0.1,0.3,0,0.4c0,0,0,0.1,0,0.1c0,0.1,0,0.2,0,0.4c0,0.1,0.1,0.2,0,0.3c-0.1,0.5,0,0.9,0.1,1.4
	c0.1,0.4,0.1,0.8,0.2,1.1c0.1,0.4,0.1,0.7,0.3,1.1c0.1,0.2,0.1,0.5,0.2,0.7c0.1,0.2,0.2,0.5,0.3,0.7c0.3,0.3,0.6,0.6,0.9,0.8
	c0.3,0.2,0.7,0.4,1.2,0.3c0.4,0,0.8-0.3,0.9-0.7c0.1-0.5,0.5-0.9,0.5-1.4c0-0.3,0.2-0.7,0.3-1c0.1-0.4,0.2-0.8,0.2-1.2
	c0-0.1,0-0.1,0-0.2c0-0.1,0.1-0.2,0.1-0.3c0-0.4-0.1-0.9,0.1-1.3c0,0,0,0,0-0.1c0-0.2,0-0.3,0-0.5C38.2,25,38.2,25,38.2,25z
	 M39,19.5C39,19.5,39,19.5,39,19.5c-0.1,0.5-0.1,1.1-0.1,1.6C39,20.5,39.1,20,39,19.5z M37.4,13.2c-0.2-0.2-0.4-0.4-0.7-0.4
	C36.7,12.9,37.2,13.2,37.4,13.2z M38.4,25.3C38.4,25.3,38.5,25.3,38.4,25.3c0.1-0.3,0.1-0.6,0.1-0.8c0,0,0,0,0,0
	C38.5,24.7,38.4,25,38.4,25.3z"/>
<path class="st1" d="M17.5,20.4c-0.1,0-0.2,0-0.3,0c-0.1,0-0.3,0-0.3,0c-0.4,0-0.8,0.1-1.2,0.1c-0.2,0-0.4,0-0.6,0
	c-0.2,0-0.4,0-0.6,0c0,0-0.1,0-0.1,0c0,0,0-0.1,0-0.1c0.2-0.3,0.5-0.5,0.7-0.8c0.1-0.1,0.2-0.2,0.2-0.2c0.1-0.1,0.3-0.2,0.2-0.4
	c0,0,0.1-0.1,0.1-0.1c0,0.1,0.6-0.4,1-0.7c0.1-0.1,0.2-0.1,0.4-0.1c0.1,0,0.1,0,0.2-0.1c0.4-0.2,0.8-0.4,1.3-0.5
	c0.1,0,0.2-0.1,0.3-0.1c0.3-0.1,0.5-0.1,0.8-0.1c0.4,0,0.8,0.1,1.1,0.3c0.3,0.1,0.6,0.1,0.9,0.2c0.1,0,0.2,0.1,0.3,0.1
	c0.3,0.1,0.6,0.3,0.9,0.4c0.2,0.1,0.4,0.1,0.5,0.2c0.4,0.2,0.7,0.4,1,0.8c0,0,0,0.1,0.1,0.1c-0.7,0.2-1.4,0.4-2.1,0.5
	c-0.2,0-0.4,0-0.6,0c0-0.3,0-0.6-0.1-0.8c-0.1-0.3-0.3-0.6-0.4-0.9c-0.1-0.2-0.3-0.4-0.5-0.6c-0.1-0.1-0.2-0.3-0.5-0.2
	c-0.1,0-0.2,0-0.3-0.1c-0.2-0.1-0.5-0.1-0.7,0c-0.2,0.1-0.5,0.1-0.7,0.3c-0.2,0.2-0.4,0.4-0.6,0.6c-0.1,0.2-0.2,0.3-0.3,0.5
	c-0.1,0.2-0.1,0.5-0.2,0.8c0,0.2,0,0.4,0,0.6C17.5,20.2,17.5,20.3,17.5,20.4z"/>
<path class="st1" d="M19.7,22.7c0.3,0,0.5,0,0.7-0.2c0.2-0.2,0.4-0.4,0.6-0.6c0.3-0.3,0.4-0.8,0.6-1.2c0-0.1,0.1-0.2,0.2-0.2
	c0.3,0,0.6-0.1,0.9-0.2c0.4-0.1,0.8-0.2,1.2-0.3c0.3-0.1,0.6-0.2,0.9-0.3c0.1,0,0.1,0,0.2,0.1c0.1,0.1,0.2,0.2,0.3,0.3
	c0.1,0.1,0.1,0.2-0.1,0.3c-0.4,0.2-0.8,0.5-1.1,0.7c-0.3,0.2-0.6,0.3-0.9,0.5c-0.4,0.2-0.8,0.3-1.2,0.4c-0.4,0.1-0.7,0.3-1.1,0.4
	c-0.3,0.1-0.7,0.1-1,0.2C19.8,22.7,19.7,22.7,19.7,22.7C19.7,22.7,19.7,22.7,19.7,22.7z"/>
<path class="st1" d="M15.4,20.9c0.7,0,1.4,0,2.1,0c0.2,0.6,0.4,1.2,1,1.6C17.3,22.3,16.2,21.8,15.4,20.9z"/>
<path class="st1" d="M14.2,20.3c0,0,0-0.1,0.1-0.3c0.1-0.1,0.1-0.2,0.2-0.3c0,0,0.1,0.1,0.2,0.2C14.5,20,14.3,20.2,14.2,20.3z"/>
<path class="st1" d="M18.5,21.8c0.3,0.2,0.5,0.3,0.8,0.5C19,22.2,18.7,22.1,18.5,21.8z"/>
<path class="st1" d="M20,15.3c-0.3,0.1-0.6,0.1-1,0.2c0,0,0,0,0-0.1C19.3,15.4,19.6,15.3,20,15.3C20,15.3,20,15.3,20,15.3z"/>
<path class="st1" d="M19.3,11.9c-0.2,0.2-0.4,0.4-0.6,0.7c0-0.1,0.2-0.5,0.4-0.7C19.1,11.8,19.2,11.8,19.3,11.9
	C19.3,11.8,19.3,11.9,19.3,11.9z"/>
<path class="st1" d="M13.1,15c-0.1-0.3-0.1-0.5,0-0.8c0,0,0,0,0,0C13.1,14.5,13.1,14.8,13.1,15z"/>
<path class="st1" d="M38.6,25c0,0-0.1,0-0.1,0c0,0.2,0,0.4,0,0.5c0,0,0,0.1,0,0.1c-0.2,0.4-0.1,0.9-0.1,1.3c0,0.1-0.1,0.2-0.1,0.3
	c0,0.1,0,0.1,0,0.2c-0.1,0.4-0.1,0.8-0.2,1.2c-0.1,0.3-0.3,0.7-0.3,1c-0.1,0.5-0.4,0.9-0.5,1.4c-0.1,0.5-0.4,0.7-0.9,0.7
	c-0.4,0-0.8-0.1-1.2-0.3c-0.3-0.2-0.6-0.5-0.9-0.8c-0.2-0.2-0.3-0.5-0.3-0.7c-0.1-0.2-0.1-0.5-0.2-0.7c-0.2-0.3-0.2-0.7-0.3-1.1
	c-0.1-0.4-0.2-0.7-0.2-1.1c-0.1-0.5-0.1-0.9-0.1-1.4c0-0.1,0-0.2,0-0.3c0-0.1,0-0.2,0-0.4c0-0.1,0-0.1,0-0.1c-0.1-0.2,0-0.3,0-0.4
	c0-0.1,0-0.1,0-0.2c0-0.1,0-0.2,0-0.3c0-0.1,0-0.3,0-0.4c0-0.2,0-0.3,0-0.5c0-0.3,0-0.5,0-0.8c0-0.3,0.1-0.6,0.1-0.9
	c0-0.4,0.1-0.7,0.1-1.1c0-0.2,0.1-0.3,0.1-0.5c0.1-0.5,0.2-1,0.3-1.5c0.1-0.4,0.1-0.7,0.2-1.1c0-0.1,0-0.2,0.1-0.2
	c0.1-0.4,0.2-0.8,0.3-1.1c0.2-0.4,0.4-0.7,0.6-1.1c0.2-0.3,0.3-0.6,0.5-0.8c0.2-0.2,0.4-0.4,0.7-0.5c0.1,0,0.1-0.1,0.2-0.1
	c0.2-0.1,0.3,0,0.4,0.1c0.2,0.1,0.4,0.2,0.5,0.3c0.3,0.1,0.4,0.3,0.6,0.5c0.2,0.4,0.4,0.8,0.6,1.2c0.1,0.3,0.1,0.6,0.2,0.9
	c0.1,0.2,0.1,0.5,0.2,0.7c0,0.3,0,0.5,0.1,0.8c0,0.5,0,1,0.1,1.5c0.1,0.5,0,1.1,0,1.6c0,0.3,0,0.6,0,0.8c0,0.5-0.1,0.9-0.2,1.4
	c0,0.2-0.1,0.5-0.1,0.7c-0.1,0.4-0.1,0.8-0.2,1.1C38.5,24.8,38.4,24.9,38.6,25C38.6,25,38.6,25,38.6,25z M34.3,23.5
	c-0.1,0-0.1,0-0.1,0c0,0.1,0,0.2,0,0.3c0.1,0.3,0.1,0.6,0.1,0.9c0,0.2,0,0.5,0.1,0.7c0,0.2,0.1,0.4,0.2,0.6c0.1,0.3,0.2,0.6,0.3,0.9
	c0.1,0.2,0.3,0.5,0.3,0.7c0.1,0.5,0.5,0.7,0.9,0.8c0.7,0.2,1.1,0,1.5-0.5c0.1-0.1,0.1-0.3,0.1-0.5c0.1-0.2,0.2-0.5,0.2-0.7
	c0.1-0.2,0.1-0.4,0.2-0.6c0.1-0.5,0.3-0.9,0.4-1.4c0.1-0.7,0.2-1.3,0.2-2c0-0.6,0-1.2,0-1.8c0-0.2-0.1-0.4-0.1-0.6
	c-0.1-0.6,0-1.1-0.3-1.7c-0.1-0.3-0.2-0.6-0.4-0.9c-0.2-0.3-0.5-0.5-0.7-0.8c-0.3-0.4-0.7-0.4-1.1-0.3c0,0-0.1,0-0.1,0
	c-0.1,0.1-0.3,0.3-0.4,0.4c0.3,0,0.5-0.3,0.8-0.2c0,0,0,0,0,0c0,0-0.1,0-0.1,0c-0.3,0-0.5,0.2-0.6,0.5c-0.1,0.3-0.3,0.5-0.4,0.8
	c-0.2,0.4-0.3,0.7-0.4,1.1c-0.1,0.4-0.2,0.7-0.3,1.1c0,0.1-0.1,0.3-0.1,0.4c0,0.5-0.1,0.9-0.2,1.4c0,0.3-0.1,0.6-0.1,0.9
	C34.1,23.2,34,23.5,34.3,23.5z"/>
<path class="st1" d="M39.3,19.5c0.1,0.5,0,1.1-0.1,1.6C39.3,20.5,39.3,20,39.3,19.5C39.3,19.5,39.3,19.5,39.3,19.5z"/>
<path class="st1" d="M37.8,13.2c-0.2,0-0.7-0.3-0.7-0.4C37.4,12.8,37.5,13,37.8,13.2z"/>
<path class="st1" d="M38.8,25.3c0-0.3,0.1-0.6,0.1-0.8c0,0,0,0,0,0C38.9,24.7,38.8,25,38.8,25.3C38.8,25.3,38.8,25.3,38.8,25.3z"/>
<path class="st4" d="M19.5,18.9c0.1,0.1,0.4,0.2,0.4,0.3c0,0.2,0.1,0.3,0.2,0.5c0,0.1,0,0.1,0,0.2c0,0.4-0.3,0.8-0.8,0.9
	c-0.2,0-0.4,0-0.5-0.2c-0.2-0.3-0.3-0.5-0.2-0.9c0-0.1,0-0.3,0.1-0.4C18.9,19.1,19.2,18.9,19.5,18.9C19.5,18.9,19.5,18.9,19.5,18.9z
	 M19.3,20.4c0.1,0,0.1,0,0.2,0c0.2,0,0.5-0.4,0.4-0.5c-0.1-0.2-0.2-0.4-0.4-0.6c0,0-0.1,0-0.1,0c-0.3,0.2-0.5,0.6-0.3,0.9
	C19.1,20.3,19.2,20.3,19.3,20.4z"/>
<path class="st4" d="M34.2,22.2c0-0.5,0.2-0.9,0.2-1.4c0-0.1,0-0.3,0.1-0.4c0.1-0.4,0.2-0.7,0.3-1.1c0.1-0.4,0.3-0.7,0.4-1.1
	c0.1-0.3,0.3-0.5,0.4-0.8c0.1-0.3,0.3-0.4,0.6-0.5c0,0,0.1,0,0.1,0c0,0,0,0,0,0c-0.3-0.1-0.5,0.1-0.8,0.2c0.1-0.1,0.3-0.3,0.4-0.4
	c0,0,0.1,0,0.1,0c0.4-0.1,0.8-0.1,1.1,0.3c0.2,0.3,0.5,0.6,0.7,0.8c0.2,0.3,0.3,0.6,0.4,0.9c0.2,0.5,0.2,1.1,0.3,1.7
	c0,0.2,0.1,0.4,0.1,0.6c0,0.6,0.1,1.2,0,1.8c0,0.7-0.1,1.3-0.2,2c-0.1,0.5-0.3,0.9-0.4,1.4c-0.1,0.2-0.1,0.4-0.2,0.6
	c-0.1,0.2-0.2,0.5-0.2,0.7c-0.1,0.2-0.1,0.4-0.1,0.5c-0.3,0.5-0.7,0.7-1.5,0.5c-0.4-0.1-0.7-0.4-0.9-0.8c-0.1-0.2-0.2-0.5-0.3-0.7
	c-0.1-0.3-0.2-0.6-0.3-0.9c-0.1-0.2-0.1-0.4-0.2-0.6c0-0.2,0-0.5-0.1-0.7c-0.1-0.3,0-0.6-0.1-0.9 M37.5,26.6c-0.1,0-0.1,0.1-0.2,0.1
	c-0.2,0.2-0.5,0.2-0.7,0.1c-0.2-0.1-0.4-0.3-0.6-0.4c-0.2-0.1-0.2-0.2-0.3-0.3c-0.1-0.2-0.3-0.3-0.3-0.5c-0.1-0.3-0.2-0.7-0.3-1
	c0-0.1,0-0.3,0-0.4c-0.1-0.2-0.1-0.4,0-0.6c0-0.1,0-0.2,0-0.4c0.1-0.3,0.1-0.7,0.3-1c0.1-0.2,0.1-0.4,0.2-0.5
	c0.1-0.2,0.3-0.5,0.5-0.6c0.3-0.2,0.5-0.4,0.8-0.4c0.2,0,0.2,0,0.3,0.1c0,0,0,0,0.1,0.1c0,0.1,0,0.2,0,0.4c-0.1,0.3-0.2,0.3-0.5,0.2
	c0,0,0,0-0.1,0c0,0-0.1,0-0.1,0c-0.3,0.2-0.6,0.3-0.7,0.6c-0.2,0.4-0.3,0.7-0.4,1.1c0,0.6-0.1,1.3,0.2,1.9c0.1,0.1,0.1,0.3,0.2,0.4
	c0.2,0.3,0.4,0.6,0.9,0.8c0.2,0,0.3,0,0.3-0.1c0.1-0.1,0.2-0.3,0.3-0.4c0.2-0.2,0.3-0.4,0.3-0.6c0-0.2,0.1-0.3,0.1-0.5
	c0-0.1,0.1-0.1,0-0.2c-0.1-0.3,0-0.6-0.1-0.9c0-0.1,0-0.2-0.1-0.2c0-0.2,0-0.3-0.1-0.5c-0.1-0.3-0.2-0.6-0.4-0.8
	c-0.1-0.2-0.1-0.3,0.1-0.4c0.2,0.2,0.5,0.4,0.5,0.7c0.1,0.3,0.2,0.6,0.3,0.9c0,0,0,0,0.1,0c0-0.6,0-1.3,0-1.9c0,0,0,0-0.1-0.1
	c0-0.1,0-0.3,0-0.4c0-0.1,0-0.3,0-0.4c0-0.1,0-0.1,0-0.2C38,20.1,38,19.9,38,19.8c0-0.2,0-0.5,0-0.7c0-0.2-0.2-0.4-0.2-0.7
	c-0.1-0.4-0.4-0.7-0.6-1c-0.1-0.1-0.2-0.2-0.4-0.3c-0.3-0.1-0.7,0.1-0.8,0.4c-0.2,0.4-0.4,0.8-0.6,1.2c-0.2,0.4-0.3,0.7-0.4,1.1
	c-0.1,0.5-0.2,1-0.3,1.4c0,0.3-0.1,0.5-0.1,0.8c0,0.3-0.2,0.5,0,0.8c0,0,0,0.1,0,0.1c0,0.1,0,0.1,0,0.2c0,0.2,0,0.4,0.1,0.7
	c0,0.4,0.1,0.9,0.1,1.3c0,0.2,0.1,0.5,0.2,0.7c0.1,0.3,0.2,0.6,0.3,0.8c0.1,0.3,0.3,0.5,0.4,0.8c0.1,0.1,0.1,0.3,0.2,0.4
	c0.2,0.2,0.5,0.3,0.8,0.3c0.3,0,0.7-0.3,0.7-0.5C37.3,27.4,37.4,27,37.5,26.6z"/>
<path class="st3" d="M37.2,22.9c0.1,0.1,0.2,0.2,0.2,0.3c0,0.2,0,0.5,0,0.7c0,0.3-0.1,0.5-0.3,0.7c-0.1,0.1-0.3,0.2-0.5,0.1
	c-0.2,0-0.5-0.2-0.5-0.5c0-0.1-0.1-0.1-0.1-0.2C36,24,36,23.8,36,23.6c0.1-0.2,0.2-0.5,0.3-0.7c0.1-0.2,0.2-0.3,0.5-0.3
	c0,0,0.1,0,0.1,0.1C37,22.9,37,22.9,37.2,22.9z"/>
</svg>
