<?xml version="1.0" encoding="utf-8"?>
<!-- Generator: Adobe Illustrator 19.2.1, SVG Export Plug-In . SVG Version: 6.00 Build 0)  -->
<svg version="1.1" id="Layer_1" xmlns="http://www.w3.org/2000/svg" xmlns:xlink="http://www.w3.org/1999/xlink" x="0px" y="0px"
	 viewBox="0 0 53.8 56.5" style="enable-background:new 0 0 53.8 56.5;" xml:space="preserve">
<style type="text/css">
	.st0{fill:#FFFFFF;}
	.st1{fill:#565A5C;}
	.st2{fill:none;stroke:#565A5C;stroke-width:0.75;stroke-miterlimit:10;}
	.st3{fill:none;stroke:#565A5C;stroke-width:0.5;stroke-miterlimit:10;}
	.st4{fill:none;stroke:#565A5C;stroke-width:0.25;stroke-miterlimit:10;}
</style>
<g>
	<g id="XMLID_1_">
		<g>
			<path class="st0" d="M20.4,17.5c0.1,0,0.1,0,0.2,0C20.5,17.5,20.4,17.5,20.4,17.5z"/>
			<path class="st0" d="M21.1,17.3c-0.1,0-0.1,0-0.2,0H21H21.1z"/>
			<path class="st0" d="M15.9,21.4c-0.1,0.1-0.1,0.2-0.2,0.3c-0.1,0.2,0.2,0,0.4-0.1C16,21.5,15.9,21.4,15.9,21.4z M20.5,24.1
				C20.5,24.2,20.6,24.2,20.5,24.1L20.5,24.1z M21.9,20.5c-0.2-0.2-0.3-0.4-0.4-0.5l-0.1-0.1c-0.2-0.1-0.4-0.1-0.7-0.2
				c-0.2,0-0.4,0-0.4,0c-0.3,0.1-0.4,0.3-0.7,0.4c-0.3,0.3-0.4,0.5-0.5,0.9c-0.2,0.4-0.1,1.5,0,1.6c0.2,0.2,0.4,0.4,0.5,0.5
				c0.3,0.2,0.6,0.4,1,0.5c0.3,0.1,0.6,0.1,0.8-0.2c0.3-0.3,0.4-0.5,0.7-1.1c-0.1,0.1,0-0.1,0-0.2c0.1-0.4,0.2-0.9,0-1.3
				C22,20.8,22,20.7,21.9,20.5z M21.1,24.1c0.1,0,0.3,0,0.4-0.1c0.4-0.1,0.6-0.3,1-0.4s0.7-0.3,1.1-0.4c0.3-0.2,0.5-0.3,0.8-0.4
				c0.4-0.2,0.7-0.4,1-0.6c0.2-0.1,0.2-0.2,0.1-0.3s-0.2-0.2-0.3-0.3c0,0-0.1-0.1-0.2-0.1c-0.3,0.1-0.5,0.2-0.8,0.3
				c-0.4,0.1-0.7,0.2-1.1,0.3c-0.3,0.1-0.5,0.1-0.8,0.2c-0.1,0-0.2,0.1-0.2,0.2c-0.1,0.4-0.3,0.7-0.5,1.1
				C21.4,23.8,21.2,24,21.1,24.1c-0.1,0-0.3,0-0.4,0C20.9,24.1,21,24.1,21.1,24.1L21.1,24.1z M16.7,20c-0.3,0.4-0.4,0.7-0.7,1.1
				c0.3-0.1,0.7-0.4,1-0.7C16.9,20.3,16.8,20.2,16.7,20z M17.9,19.7c0.1-0.4,0.1-0.7,0-1c-0.1,0.1-0.1,0.1-0.2,0.2
				c-0.2,0.3-0.4,0.4-0.6,0.7C17,19.7,17,19.9,17,20.2c0,0.1,0.1,0.1,0.1,0.2c0.3-0.2,0.5-0.4,0.8-0.5
				C17.9,19.9,17.9,19.8,17.9,19.7z M22.9,21.6c0.7-0.2,1.2-0.4,1.9-0.4c0,0,0-0.1-0.1-0.1c-0.3-0.3-0.5-0.5-0.9-0.7
				c-0.2-0.1-0.3-0.2-0.4-0.2c-0.3-0.1-0.5-0.3-0.8-0.4c-0.1,0-0.2-0.1-0.3-0.1c-0.3-0.1-1.4-0.5-1.8-0.5c-0.3,0-0.5,0.1-0.7,0.1
				c-0.1,0-0.2,0.1-0.3,0.1c-0.4,0.1-3.3,2.3-3.5,2.6h0.1c0.2,0,0.4,0,0.5,0c0.2,0,0.4,0,0.5,0c0.4,0,1.5-0.2,1.5-0.3
				c0-0.2,0-0.4,0-0.5c0-0.3,0.9-1.5,1-1.6c0.2-0.1,1.8-0.1,1.9,0c0.2,0.2,0.7,1,0.8,1.3c0.1,0.3,0.1,0.5,0.1,0.7
				C22.6,21.6,22.8,21.6,22.9,21.6z M16.4,20.2c0.1-0.1,0.2-0.3,0.3-0.4c0.3-0.3,0.4-0.5,0.7-0.8c0.2-0.3,0.4-0.4,0.6-0.5
				c0.1,0.5,0.1,0.7,0.2,1.1c1.5-0.6,2.4-0.7,2.6-0.7c0.1,0,0.1,0,0.2,0c0.1-0.1,0.1-0.4,0.1-0.5s0.3-0.6,0.4-0.6s0.1,0.1,0,0.2
				c0,0.1,0,0.2-0.1,0.3c0,0.1,0,0.3-0.1,0.5s0,0.2,0.1,0.2c0.2,0.1,0.4,0.1,0.6,0.2s0.4,0.2,0.5,0.2s0.2,0,0.2-0.1
				c0.1-0.2,0.2-0.5,0.4-0.8l0.1-0.1c0,0,0.1,0,0.1,0.1c0.1,0.1,0.1,0.2,0.1,0.3c-0.1,0.2-0.1,0.5-0.2,0.5c0,0,0.2,0.5,0.3,0.6
				c0.2,0.2,0.6,0.2,0.7,0c0.1-0.1,0.2-0.2,0.3-0.5c0,0,0-0.1,0.1-0.2s0.3-0.1,0.4,0.1c-0.3,0.3-0.4,0.7-0.7,1
				c0.2,0.2,0.4,0.5,0.4,0.3c0.2-0.1,0.5-0.7,0.6-0.8c0,0,0.2-0.1,0.2,0c-0.1,0.3-0.2,0.6-0.3,0.9c0.4-0.1,0.7-0.2,1.1-0.5
				c-0.1-0.1-0.2-0.2-0.3-0.4c-0.2-0.2-0.4-0.5-0.5-0.6c-0.3-0.2-0.4-0.5-0.7-0.7c0,0,0,0,0-0.1c0,0-1.9-1-2.3-1.1
				c-0.2-0.1-0.4-0.1-0.6-0.2C21.6,17,21.4,17,21.2,17c0.2,0,0.4,0,0.7,0c0.2,0,0.4,0.1,0.6,0.1c0.3,0.1,4.1,2.4,4.4,2.6
				c0.3,0.3,0.4,0.4,0.7,0.7c0.3,0,0.3,0.3,0.4,0.4v0.1h-0.1c-0.1,0-0.1,0-0.2,0c-0.1-0.2-0.3-0.4-0.4-0.5H27
				c-0.3,0.1-0.5,0.3-0.8,0.4c0,0,0,0,0,0.1c0.1,0,0.3-0.1,0.4-0.1c0.1-0.1,0.3-0.1,0.4-0.1c0,0,0.1,0,0.2,0.1L27,20.9
				c-0.1,0-0.3,0.1-0.4,0.1c-0.2,0.1-0.4,0.2-0.6,0.3c-0.1,0-0.1,0-0.2,0.1c0.1,0.2,0.2,0.4,0.3,0.5s0.1,0.2,0,0.3
				c-0.2,0.2-0.4,0.4-0.5,0.5c0.1,0.1,0.3,0.3,0.4,0.4c0.2,0.3,0.3,0.5,0.4,0.9c0,0.1,0,0.2-0.1,0.2h-0.1c0-0.4-0.2-0.6-0.4-0.9
				l-0.1-0.1c-0.1-0.1-0.3-0.2-0.1-0.4c0,0-0.1-0.1-0.1-0.2h-0.1c-0.2,0.1-0.4,0.2-0.5,0.3c-0.2,0.1-0.4,0.2-0.4,0.3
				c-0.1,0.1-0.2,0.1-0.3,0.2v0.1c0.3-0.1,0.3,0.2,0.4,0.4c0.2,0.3,0.3,0.5,0.3,0.9c0,0.1,0,0.2,0,0.2h-0.2l-0.1-0.1
				c0-0.4-0.1-0.6-0.3-0.9c-0.1-0.2-0.3-0.3-0.4-0.4c-0.4,0.2-0.9,0.4-1.3,0.5c0.1,0.3,0.3,0.5,0.4,0.8c0.1,0.2,0,0.4,0,0.5
				c0,0.3-0.2,0.4-0.4,0.1l0.1-0.1c0-0.1-0.1-0.3-0.1-0.4c0-0.3-0.2-0.5-0.3-0.7c0-0.1-0.1-0.1-0.1-0.3c-0.4,0.1-0.7,0-1.1,0.3
				c-0.1,0.2-0.1,0.4-0.2,0.6c0,0.2,0,0.4,0,0.6c0,0.1,0.1,0.2,0.2,0.2c0,0.1-0.1,0.1-0.1,0.2c-0.3-0.1-0.4-0.3-0.4-0.4
				c0-0.3,0.1-0.6,0.1-0.9c0-0.1,0-0.1,0-0.2c-0.4,0.3-0.8,0-1.2,0c-0.1,0-0.1,0-0.2,0c-0.1,0.1-0.2,0.3-0.3,0.4
				c0.1,0.2,0,0.3,0,0.5c0,0.3,0,0.5,0,0.8v0.1c0,0-0.5-0.7-0.4-1c0.1-0.2,0-0.4,0.1-0.4s0.2-0.2,0.3-0.4c-0.2,0-0.3-0.1-0.4-0.1
				c-0.2-0.1-0.4-0.1-0.7-0.2c-0.2,0-0.5-0.4-0.5-0.3c-0.1,0.2-0.2,0.4-0.2,0.9c0,0.1-0.1,0.6-0.2,0.6c-0.2-0.1-0.2-0.2-0.2-0.4
				c0-0.3-0.1-0.5,0.1-0.7c0.1-0.2,0.3-0.7,0.2-0.7c-0.4-0.3-0.8-0.5-1.1-0.9c-0.2-0.2-0.6-0.6-0.6-0.6s-0.5,0.1-0.4-0.1
				s0.3-0.4,0.4-0.5c0.1-0.1,0.2-0.3,0.2-0.4c0.1-0.2,0.2-0.4,0.4-0.4C16.1,20.4,16.3,20.2,16.4,20.2z"/>
			<path class="st0" d="M18.1,18.3c0,0,0.1-0.1,0.1-0.2c0.2,0,0.3-0.1,0.4-0.2c0.1,0,0.2-0.1,0.2-0.1h0.1c0.2-0.1,0.4-0.2,0.6-0.2
				s0.3-0.1,0.4-0.1c0.4-0.1,0.6-0.2,1-0.2c-0.3,0-0.7,0.1-1,0.2"/>
			<path class="st0" d="M19.9,17.6c0.2,0,0.3,0,0.5-0.1c0.1,0,0.1,0,0.2,0h0.1l0,0l0,0l0,0C20.4,17.6,20.2,17.6,19.9,17.6
				c0,0.1,0,0.1,0,0.1S19.9,17.7,19.9,17.6z"/>
			<path class="st0" d="M20.7,17.5c-0.2,0.1-0.4,0.1-0.8,0.2C20.2,17.6,20.4,17.6,20.7,17.5z"/>
			<path class="st1" d="M17.7,16.1c-0.2,0-0.4,0.1-0.5,0.2c-0.3,0.1-0.5,0.2-0.8,0.3c-0.2,0.1-0.6,0.5-0.7,0.6
				c-0.2,0.2-0.3,0.4-0.4,0.5c-0.1,0.2-0.5,1.5-0.3,2c0.1,0.3,0.3,1.2,0.2,1.5c0,0.1,0,0.2-0.1,0.3c-0.1,0.1-0.2,0.1-0.3,0.1
				s-0.2-0.1-0.2-0.1c0-0.4-0.2-0.7-0.3-1.1c-0.2-0.7-0.4-1.3-0.8-1.9c-0.2-0.2-0.3-0.4-0.4-0.6v-0.1c0.1-0.1,0.2-0.3,0.3-0.4
				c0.4,0.3,0.9,0.6,1,0.5c-0.1,0-0.1-0.4-0.1-0.6c0-0.4-0.2-0.9,0.1-1.3c0.1-0.2,0.5-0.8,0.6-0.9c0.2-0.2,0.3-0.1,0.4-0.2
				c0.1-0.1,0.2-0.1,0.2,0c0.1,0.1,0.2,0.2,0.2,0.3c-0.4,0.4-0.5,1-0.6,1.5c0.3-0.2,0.4-0.4,0.6-0.4c0.2-0.2,0.4-0.3,0.6-0.4
				c0.1,0,0.1,0,0.2,0c0.2-0.1,0.4-0.3,0.4-0.5s0.1-0.4,0.1-0.5s0-0.3-0.1-0.4s0.1-0.2,0.1-0.2c0.1-0.1,0.1-0.2,0.1-0.2
				c0.1,0,0.2,0.1,0.2,0.1c0.1,0.2,0.1,0.4,0.1,0.4c0,0.2,0,0.4,0.1,0.6c0,0,0.1,0,0.1-0.1c0.2-0.2,1.3-0.2,1.5-0.2
				c0.1,0,0.2,0,0.2-0.1c0.2-0.2,0.4-0.4,0.5-0.6c0.1-0.1,0.4-0.1,0.4-0.1c0.1-0.1,0.3-0.3,0.4-0.3c0,0.1,0,0.1,0,0.2
				c-0.2,0.3-0.3,0.4-0.4,0.7c-0.1,0.1-0.2,0.2-0.3,0.4c0.3,0.1,0.4,0.1,0.7,0.2c0.1,0,0.3,0,0.4,0.1c0,0,0.4,0.1,0.5,0.1
				c0.3-0.2,0.5-0.3,0.6-0.5c0.2-0.2,0.3-0.5,0.4-0.5c0.1-0.1,0.1-0.1,0.2-0.1c0.2,0.3-0.3,1.2-0.9,1.4c0.2,0.1,1.4,0.5,1.6,0.5
				c0.4-0.1,0.6-0.3,0.9-0.4c0,0,0.4-0.3,0.5-0.4c0,0,0.1,0,0.2,0c0,0,0,0.1,0,0.2c-0.2,0.2-0.4,0.4-0.6,0.6c0,0-0.1,0.1-0.4,0.1
				c0.2,0.1,0.4,0.1,0.5,0.2c0.3,0.1,0.5,0.3,0.8,0.4c0.1,0.1,0.3,0.1,0.4,0.2h0.1c0.1-0.1,0.3,0,0.4,0c0.4,0.1,0.7,0,1.1-0.2
				c0.2-0.1,0.3-0.2,0.4-0.4c0.1,0.2,0,0.4-0.1,0.4c-0.2,0.2-0.4,0.4-0.7,0.5c-0.1,0.1-0.3,0.1-0.4,0.1c0.1,0.1,0.2,0.1,0.4,0.2
				c0.4,0.3,0.8,0.5,1.2,0.9h0.2c0.2,0,0.3-0.1,0.4-0.2s0.4-0.2,0.5-0.3c0.1,0,0.1,0,0.2,0c0,0.1,0,0.1-0.1,0.2
				c-0.1,0.3-0.4,0.3-0.6,0.4c-0.1,0.1-0.2,0.1-0.4,0.2c0.1,0.1,0.4,0.5,0.4,0.6c0.1,0.1,0.1,0.2,0.2,0.3c0,0,0.3,0.4,0.2,0.5
				c0,0-0.2,0-0.3,0c-0.2-0.1-0.3-0.2-0.4-0.4c-0.3-0.2-0.4-0.4-0.7-0.5c-0.4-0.4-0.9-0.6-1.3-1c-0.4-0.3-0.8-0.4-1.2-0.7
				c-0.4-0.2-0.7-0.4-1.1-0.6c-0.3-0.2-0.6-0.3-0.9-0.4s-0.5-0.1-0.8-0.2c-0.4-0.1-0.7-0.2-1.1-0.3c-0.8-0.3-1-0.3-1.2-0.3
				c-0.4,0-0.7-0.1-1-0.1S18.7,16,18.4,16C18.1,16,17.9,16.1,17.7,16.1z"/>
			<path class="st0" d="M20.8,17.5L20.8,17.5C20.7,17.5,20.7,17.5,20.8,17.5C20.7,17.5,20.7,17.5,20.8,17.5
				C20.7,17.5,20.8,17.5,20.8,17.5z"/>
			<path class="st0" d="M20.8,17.5C20.7,17.5,20.7,17.5,20.8,17.5C20.7,17.5,20.7,17.5,20.8,17.5C20.7,17.5,20.7,17.5,20.8,17.5z"/>
			<path class="st1" d="M41.3,40.3c0,0-0.6-0.6-0.9-0.8c-0.2-0.2-0.2-0.4-0.3-0.5c-0.1-0.3-0.2-0.6-0.2-0.9c0-0.1-0.1-1-0.1-1.3
				c0-0.2,0-0.4,0-0.5l0.1-0.1l0.1,0.1c0.1,0.4,0.2,0.7,0.2,1.1c0,0.3,0.1,0.4,0.2,0.6c0,0.3,0.3,1,0.4,1c0.2,0.2,0.9,0.8,0.9,0.9
				c0.1,0.1,0.1,0.1,0.2,0.2c0.1,0.1,0.4,0.4,0.4,0.4c0.2,0.2,0.4,0.3,0.5,0.5c0.2,0.2,1.1,2.1,1.1,2.1c0,0.2,0.1,0.9,0.1,1.1
				c0.1,0.3-0.5,1.8-0.5,1.9s-0.9,0.9-1,0.9c-0.2,0.1-0.4,0.1-0.5,0c-0.2,0-0.8-0.1-0.9-0.2c-0.1-0.1-1.2-1.9-1.2-2s0-0.2,0.1-0.3
				c0.1-0.2,0.4-0.2,0.5-0.1v0.2c-0.2,0.3,0.3,1,0.4,1.1c0.1,0.3,0.3,0.3,0.4,0.4c0.2,0.1,0.4,0.1,0.6,0.1c0.3,0,0.5,0,0.7-0.1
				c0.3-0.1,0.8-0.9,0.8-1c0.1-0.2,0.1-0.4,0.1-0.5c0-0.4,0-0.9-0.1-1.2c0-0.3-0.1-0.4-0.2-0.7c0-0.1-0.4-0.9-0.6-1.1
				c-0.1-0.1-0.2-0.2-0.3-0.3c-0.2-0.2-0.4-0.4-0.6-0.6C41.6,40.6,41.3,40.4,41.3,40.3z"/>
			<path class="st1" d="M5.3,29.6c0.3,0,0.6,0.1,0.9,0.1c-0.2-0.1-0.4-0.1-0.6-0.2C5.4,29.5,5.4,29.5,5.3,29.6z M23.7,7.4L23.7,7.4
				L23.7,7.4C23.6,7.5,23.5,7.6,23.7,7.4z M31.2,13.8c0-0.2,0.2-0.4,0-0.6c0,0,0,0,0-0.1c0-0.2,0.1-0.4,0.1-0.6
				c0.1-0.4,0.1-0.6,0.2-1c0-0.3-0.1-0.6-0.1-0.9l0,0c-0.1,0-0.2,0.1-0.3,0.1c-0.3,0.1-0.4,0.3-0.7,0.4c-0.2,0.1-0.4,0.2-0.4,0.3
				c-0.4,0.3-0.9,0.5-1.2,0.8c-0.3,0.3-0.5,0.4-0.8,0.7c0,0.1-0.1,0.1-0.2,0.2c-0.2,0.2-0.3,0.3-0.5,0.5l-0.1,0.1
				c1.2,0.6,2.5,1.3,3.7,1.8c0-0.1,0-0.1,0-0.1H31c0-0.3,0.1-0.5,0.1-0.9C31.1,14.2,31.2,14.1,31.2,13.8z M25.2,8.6
				c0.3-0.2,0.4-0.4,0.7-0.6c0,0,0-0.1,0.1-0.1c-0.7-0.3-2.1-0.4-2.3-0.4c0,0-0.8,1.2-0.9,1.3c0,0-0.3,0.3-0.4,0.4
				c-0.2,0.2-1.2,1.6-1.2,1.6c0.1,0.1,0.9,0,1,0.1c0.1,0,0.1,0,0.2-0.1s0.2-0.1,0.2-0.2c0.1-0.1,1.1-1,1.5-1.3
				C24.6,9,24.9,8.9,25.2,8.6z M26.7,10.4c0.4-0.3,0.7-0.5,1.1-0.7c0.4-0.3,0.9-0.6,1.3-0.9c0.1-0.1,0.3-0.1,0.4-0.2
				c-0.3-0.1-0.4-0.2-0.6-0.2s-0.4-0.1-0.5-0.1s-0.4,0-0.6-0.1c-0.4,0-0.7-0.1-1-0.2c-0.1,0-0.2,0-0.2,0c-0.3,0.2-0.5,0.4-0.7,0.5
				c-0.3,0.2-0.4,0.4-0.7,0.5c-0.3,0.1-0.5,0.4-0.8,0.5C24.2,9.7,24,9.9,23.8,10c-0.3,0.2-0.5,0.4-0.8,0.6c-0.2,0.3-0.2,0.4-0.4,0.5
				c0.7,0.4,1.4,0.8,2.1,1.2c0-0.2,0-0.2,0.2-0.4c0,0,0-0.1,0.1-0.1c0.1-0.1,0.2-0.2,0.3-0.3c0.2-0.2,0.4-0.3,0.5-0.4
				C26.1,10.8,26.4,10.7,26.7,10.4z M26.8,10.9c-0.3,0.2-0.4,0.4-0.7,0.6c-0.3,0.3-0.6,0.4-0.9,0.7c-0.1,0.1-0.2,0.2-0.4,0.3
				c0.7,0.3,1.4,0.6,2.2,1c0.1-0.1,0.1-0.3,0.2-0.4c0.1-0.2,0.3-0.3,0.4-0.4c0.4-0.4,0.8-0.6,1.2-1c0.4-0.4,1-0.6,1.4-1
				c0.4-0.2,0.7-0.4,1.1-0.4c0,0,0.1-0.1,0.1-0.2c0-0.4,0.1-0.7,0.1-1.1c-0.1,0-0.2,0-0.4,0c-0.2,0-0.4-0.1-0.6-0.2
				c-0.2,0-0.5,0-0.7,0.2c-0.1,0.2-0.3,0.3-0.4,0.4c-0.3,0.2-0.6,0.3-0.9,0.4c-0.4,0.3-0.8,0.4-1.2,0.7
				C27.1,10.6,26.9,10.7,26.8,10.9z M47.4,49c0.1-0.2,0.3-0.3,0.4-0.4c0.1-0.2,0.3-0.4,0.4-0.6v-0.1c0-0.2,0-0.3,0.1-0.4v-0.1
				c-0.1-0.2,0.2-0.4,0.1-0.6c0-0.2,0.1-0.4,0.1-0.5c0-0.2,0.1-0.4,0.1-0.6c0-0.1,0-0.2,0.1-0.2c0-0.3,0-0.5,0.1-0.8
				c0-0.2,0-0.4,0-0.5c0-0.2-0.1-0.4-0.1-0.5c-0.1-0.2-0.2-0.4-0.2-0.5c-0.1-0.2-0.1-0.4-0.2-0.6c-0.1-0.2-0.1-0.4-0.2-0.4
				c-0.1-0.2-0.2-0.3-0.3-0.4c-0.1-0.1-0.1-0.2-0.2-0.3c-0.1-0.1-0.1-0.2-0.2-0.2c-0.2,0-0.3-0.2-0.4-0.3c-0.1-0.1-0.1-0.2-0.2-0.2
				c0.1,0,0.2,0,0.3,0c0.2,0,0.3,0.1,0.4,0.3c0,0,0.1,0,0.2,0.1c0.1,0.1,0.3,0.3,0.4,0.4c0.3,0.4,0.4,0.7,0.7,1
				c0.2,0.4,0.4,0.7,0.5,1.1c0.1,0.3,0.1,0.5,0.2,0.8s0,0.6,0.1,0.9c0.2,0.4-0.1,0.8,0,1.2c0,0.1-0.1,0.2-0.1,0.3
				c-0.1,0.3,0,0.6-0.2,0.9c0,0.1,0,0.2,0,0.3c-0.1,0.3-0.2,0.5-0.2,0.7c-0.1,0-0.1,0.2-0.2,0.4c-0.1,0.2-0.1,0.4-0.3,0.4
				c-0.1,0.1-0.2,0.2-0.3,0.4s-0.2,0.4-0.3,0.5c-0.1,0.2-0.2,0.4-0.4,0.4c-0.1,0.2-0.3,0.4-0.4,0.5c-0.3,0.4-0.6,0.6-1.1,0.7
				c-0.2,0.1-0.4,0.3-0.6,0.4c-0.3,0.1-0.5,0.2-0.8,0.1c-0.4-0.1-0.8-0.2-1.2-0.4c-0.1-0.1-0.3-0.1-0.4-0.2c-0.2-0.1-1.1-1-1.2-1.1
				c-0.1-0.1-0.2-0.3-0.2-0.4c0,0.1-0.6,0.5-0.6,0.5s-0.5,0.3-0.8,0.4c-0.3,0.1-1.3,0.2-1.4,0.2c-0.1,0-0.9-0.4-0.9-0.4
				c-0.1,0-0.7-0.3-0.8-0.4c-0.2-0.2-0.4-0.4-0.5-0.6c-0.1-0.1-0.1-0.2-0.1-0.2c-0.2-0.4-0.4-0.6-0.5-1.1c0,0-0.8-3-1.1-3.4
				c-0.1-0.1-0.2-0.1-0.3-0.2c-0.1-0.1-0.2-0.2-0.3-0.3s-0.4-0.5-0.6-0.6c-0.1-0.1-0.3-0.2-0.4-0.4c-0.1-0.2-0.2-0.4-0.3-0.4
				c-0.1-0.2-0.3-0.4-0.4-0.5c-0.1-0.2-0.2-0.4-0.4-0.6c0-0.1-0.7-0.9-0.7-1.1c-0.1-0.1-0.2-0.2-0.2-0.4c-0.1-0.2-0.2-0.3-0.4-0.4
				c-0.2-0.2-0.3-0.4-0.4-0.6c-0.3-0.3-0.4-0.6-0.6-0.9c-0.1-0.2-0.2-0.3-0.3-0.4c-0.1,0.1-0.2,0.1-0.2,0.2
				c-0.2,0.1-0.4,0.2-0.4,0.3c-0.4,0.3-0.7,0.4-1.1,0.7c-0.3,0.2-0.5,0.3-0.7,0.6c-0.1,0.1-0.2,0.1-0.3,0.2
				c-0.3,0.3-0.5,0.4-0.8,0.7c-0.1,0.1-0.6,0.4-0.6,0.4l0,0c-0.3,0.2-0.4,0.4-0.8,0.5c0,0-0.1,0.2-0.2,0.2c-0.1,0.1-0.2,0.2-0.4,0.3
				c-0.1,0-0.1,0-0.2,0.1c-0.1,0-0.2,0.1-0.3,0.2c0,0,0,0.1-0.1,0.1c-0.2,0.1-0.4,0.2-0.4,0.4c-0.1,0.1-0.2,0.1-0.3,0.2
				c-0.2,0.1-0.3,0.2-0.4,0.4c-0.1,0.1-0.3,0.2-0.4,0.3s-0.4,0.3-0.5,0.4c-0.2,0.1-0.4,0.3-0.6,0.4c-0.2,0.1-0.5,0.3-0.5,0.3
				c-0.1,0.1-0.2,0.1-0.3,0.2C20,45.9,19.6,46,19.6,46c-0.2,0.3-3.6,0.1-3.6,0.1c-0.2,0-0.7-0.1-0.9-0.1c-0.1,0-0.5-0.1-0.5-0.1
				c-0.1,0-0.1,0-0.2-0.1c-0.3,0-0.5-0.2-0.7-0.3c-0.3-0.2-0.6-0.4-0.9-0.5c-0.2-0.1-0.3-0.3-0.4-0.4c-0.1-0.4-0.2-0.7-0.4-1
				c-0.4-0.7-0.4-1.3-0.4-2c0-0.4,0.1-0.8,0.1-1.2c0.1-0.1,0.1-0.1,0.1-0.2c0-0.1-0.1-0.2-0.2-0.2c-0.2-0.2-0.8-0.9-0.9-1
				c-0.1-0.1-0.4-0.4-0.6-0.6C10,38.2,9.8,38,9.7,37.9S9.1,37.3,9,37.1c0-0.1-0.1-0.2-0.1-0.2c-0.1-0.1-0.1-0.3-0.1-0.4
				c0-0.2,2.4-1.3,2.4-1.4c-0.3-0.1-0.6-0.3-0.9-0.4c-0.3-0.1-0.5-0.2-0.8-0.3c-0.2-0.1-0.4-0.2-0.6-0.3c0,0-0.4-0.1-0.5-0.1
				c-0.2,0,0.7-1,0.8-1c0.2-0.2,0.3-0.3,0.4-0.4c0.2-0.2,0.8-0.9,0.8-1.2c0-0.3,0.1-0.6,0-0.6c-0.8,0.3-2.9-0.2-3-0.2
				c-0.2-0.1-0.4-0.1-0.6-0.2c-0.3-0.1-0.5-0.1-0.7-0.1c-0.1,0-0.2,0-0.3,0c-0.1,0-0.2,0-0.4,0c-0.1,0-0.1,0-0.2,0
				c-0.3,0-0.4,0-0.4-0.3c0-0.1,1.3-3.3,1.5-3.7c0.2-0.4,5.9-11.5,6-11.6c0,0,0.7-1.1,1.6-2.3c-0.4,0.6-1,1.6-1.2,1.9
				c-0.1,0.2-0.8,1.3-1,1.8c-0.2,0.4-2.8,5.5-2.9,5.5c-0.1,0.2-3.4,7.3-3.4,7.7c0.1,0,0.1,0,0.2,0c0.3,0.1,0.5,0.2,0.7,0.2
				c0.4,0.1,1.9,0.4,2.3,0.4c0.3,0.1,0.6,0,0.9,0.2c0.3,0,1.1,0.2,1.4,0.2c0.2,0-0.5,2.1-0.6,2.2c-0.2,0.2-0.4,0.4-0.5,0.6
				c-0.1,0.2-0.3,0.3-0.4,0.4c-0.1,0.1-0.1,0.2,0.1,0.2c0.2,0.1,0.4,0.2,0.6,0.3c0.3,0.1,0.4,0.2,0.7,0.3c0.1,0,0.3,0,0.3,0.1
				c0.2,0.2,0.4,0.3,0.7,0.4c0.3,0.1-1.1,1.5-1.5,1.6c-0.1,0-0.2,0-0.3,0.1s-0.2,0.2-0.1,0.2c0.1,0.2,0.2,0.3,0.3,0.4
				c0.3,0.3,0.4,0.6,0.7,0.9c0.2,0.2,0.4,0.4,0.5,0.6c0.2,0.2,0.4,0.4,0.4,0.5c0.1,0.1,0.2,0.1,0.3,0.2c0.1,0.1,0.2,0.2,0.2,0.4
				c0.1,0.1,0.2,0.3,0.2,0.4c0.1,0.1-0.4,1.2-0.4,1.3S12,41.9,12,42c0,0.2,0,0.4,0.1,0.6c0.1,0.3,0.5,1.1,0.7,1.3
				c0.3,0.4,0.5,0.6,0.8,0.9c0.2,0.2,0.3,0.3,0.4,0.4c0.1,0.1,0.3,0.1,0.4,0.2c0.1,0.1,0.1,0.1,0.2,0.1c0.2,0.1,0.4,0.1,0.5,0.2
				c0.2,0,0.3,0.1,0.4,0.1c0.2,0,0.4,0.1,0.5,0.1c0.1,0,0.1,0,0.2,0c0.2,0,0.4,0,0.5,0s0.2,0,0.2,0H17c0.2,0,1.6-0.6,1.6-0.6
				c0.3-0.1,1.4-0.5,1.5-0.6c0.4-0.2,3.9-2.2,4.2-2.5c0.2-0.2,0.4-0.4,0.6-0.5c0.4-0.3,1.4-1.2,1.5-1.2c0.2-0.1,0.4-0.2,0.5-0.4
				c0.2-0.2,0.4-0.3,0.5-0.4c0.1-0.1,0.1-0.2,0.2-0.2c0.2-0.2,0.4-0.3,0.5-0.4c0.2-0.1,0.5-0.6,0.6-0.6c0.3-0.2,0.4-0.4,0.5-0.6
				c0,0,0.7-1.5,0.7-1.8c0-0.2,0.1-0.4,0.1-0.5c0-0.4,0-0.9,0-1.3c0-0.4,0-2.1,0-2.5c0-0.4,0-5.1,0-5.5c0-0.3,0-1.3,0-1.4
				c0-0.2,0-0.4,0-0.5c0-0.3,0.1-3.2,0.2-3.5c0.1-0.6,0.2-2.2,0.2-2.3c0-0.2,0.2-1.4,0.3-1.9c0-0.1,0-0.2-0.1-0.2s-0.2,0-0.2,0
				c-0.2-0.1-0.3-0.2-0.4-0.3c-0.4-0.2-0.9-0.4-1.3-0.6c-0.3-0.1-0.5-0.3-0.8-0.4c-0.4-0.2-0.6-0.4-1-0.5c-0.4-0.2-0.9-0.4-1.2-0.6
				c-0.4-0.2-0.7-0.4-1.1-0.6c0,0-0.4-0.2-0.5-0.3c-0.3-0.2-0.5-0.3-0.7-0.4c-0.3-0.2-0.5-0.3-0.7-0.4c-0.3-0.2-0.5-0.3-0.7-0.4
				c-0.4-0.2-2.5-1.1-3.2-1.6c-0.2-0.1-0.4-0.2-0.6-0.3c-0.5-0.2-1-0.4-1.5-0.7c-0.2-0.1-0.5-0.2-0.7-0.3c0.3-0.5,0.6-0.9,0.6-1
				C16.7,7.9,16.9,7.9,17,8c0.2,0.1,2.3,1.1,2.4,1.1c0.3,0,0.4,0.1,0.7,0.2c0.2,0.1,0.8,0.3,0.9,0.4c0.1,0,0.1,0,0.2,0.1
				c0.3,0.1,2-2.5,2.2-2.5c0.1,0,0.2-0.2,0.2-0.3c0-0.2,0.1-0.3,0.3-0.2H24c0.4,0.1,0.6,0.2,1,0.3c0.3,0.1,0.4,0.1,0.7,0.2
				c0.2,0.1,0.4,0.2,0.6,0.3c0.1,0.1,0.3,0.1,0.4,0.1c0.2,0.1,0.4,0.1,0.6,0.2c0.2,0,0.4,0.1,0.5,0.1c0.1-0.1,0.2,0,0.3,0
				s0.3,0.1,0.4,0.1c0.2,0,0.4,0.1,0.6,0.1c0.4,0,0.7,0.1,1.2,0.1c0.1-0.1,0.3,0,0.4,0c0.2,0,0.4,0.2,0.6,0C31.4,8.1,31.7,8.1,32,8
				c0.2-0.1,0.3-0.1,0.4-0.2c0.4-0.2,0.8-0.4,1.2-0.5C34,7.1,34.4,7,34.7,6.8c0.1,0,0.2,0,0.3,0c0.4-0.2,0.9-0.3,1.3-0.4
				c0.4-0.1,0.6-0.3,1-0.4c0.3-0.1,0.5-0.3,0.8-0.4c0.2-0.1,0.4-0.1,0.4-0.1c0.1,0,0.3-0.1,0.4-0.2c0.1,0,0.1-0.1,0.2-0.2
				c0.1,0,0.2,0,0.2-0.1c0,0,0.1-0.1,0.2-0.1s0.1,0.1,0.2,0.2c0,0,0.1-0.1,0.1-0.2c0.2-0.3,0.4-0.3,0.5-0.3s0.1,0,0.2,0.1
				c0.1,0,0.2,0.1,0.3,0.1C41,4.8,41,5,41,5.1C41,6,40.9,7,40.9,7.9s-0.1,1.8-0.1,2.7c0,0.4,0,0.9,0,1.3c0,0.4-0.1,0.7-0.1,1.1
				s-0.1,0.8-0.1,1.2c0,0.3,0.1,0.4,0.1,0.7c0,0.2,0,0.4,0,0.5c0,0.5,0,1.1,0,1.5c0,0.2,0,0.4,0,0.6c0,0.1,0.1,0.2,0.2,0.2
				c0.2,0.2,0.4,0.3,0.6,0.4c0.3,0.2,0.6,0.4,0.9,0.6c0.3,0.2,0.5,0.4,0.7,0.7c0.3,0.3,0.5,0.5,0.7,0.8c0.1,0.1,0.2,0.3,0.3,0.4
				c0.2,0.3,0.3,0.5,0.4,0.8c0.1,0.2,0.3,0.4,0.4,0.6c0.2,0.3,0.3,0.5,0.4,0.8c0.1,0.1,0.1,0.3,0.2,0.4c0.2,0.4,0.3,1,0.4,1.5
				c0.1,0.3,0,0.4,0,0.7c0,0.5,0.1,1.1,0.2,1.5c0,0.4,0,0.8-0.1,1.2c0,0.2,0,0.4,0,0.5s0,0.2,0,0.3c0,0.3-0.1,0.4-0.1,0.7
				c-0.3,0.4-0.4,0.6-0.5,0.7c0,0.2,0,0.4-0.1,0.5c-0.1,0.3-0.2,0.4-0.3,0.7c0,0.1-0.1,0.2-0.1,0.3c0.1,0,0.2,0,0.3,0
				c-0.3,0.1-0.5,0.2-0.8,0.4c-0.2,0.1-0.3,0.2-0.4,0.2h-0.1l0.1-0.1c0.1-0.1,0.1-0.2,0.2-0.3c0.2-0.2,0.3-0.4,0.3-0.6
				c0-0.1,0.1-0.2,0.1-0.3s0.1-0.1,0.1-0.2c0.1-0.2,0.1-0.4,0.2-0.6c0.1-0.2,0.1-0.4,0.1-0.5v-0.1c0-0.1,0.1-0.2,0-0.3v-0.1
				c0.1-0.1,0.1-0.3,0.1-0.4c0-0.4,0.1-0.6,0.2-1c0.1-0.4,0.1-0.6,0-1c0-0.2,0-0.4,0-0.6s0-0.3-0.1-0.4c0-0.1,0-0.2,0-0.3
				c-0.2-0.2,0-0.4-0.2-0.6c0-0.1,0-0.2,0-0.3c0-0.2-0.1-0.4-0.1-0.6c0-0.1-0.1-0.3-0.1-0.4c-0.1-0.1-0.2-0.3-0.2-0.4
				s-0.1-0.3-0.1-0.4c-0.1-0.2-0.1-0.3-0.2-0.4c-0.1-0.2-0.1-0.3-0.2-0.4c-0.1-0.1-0.3-0.4-0.4-0.5c-0.1-0.1-0.1-0.1-0.1-0.2
				s0-0.2-0.1-0.2c-0.2-0.1-0.2-0.2-0.3-0.3c-0.1-0.1-0.3-0.3-0.4-0.4c-0.1-0.1-0.1-0.2-0.1-0.3c-0.1-0.2-0.3-0.3-0.4-0.4
				c-0.2-0.4-0.4-0.6-0.8-0.8c-0.1-0.1-0.2-0.2-0.3-0.3c-0.1,0-0.1-0.1-0.2-0.1c-0.1-0.1-0.2-0.2-0.4-0.3c-0.1,0-0.2,0-0.2-0.1
				c-0.2-0.1-0.3-0.2-0.4-0.3c0-0.6,0-1.2,0-1.7c0-0.3,0-0.4,0-0.7c0.1-0.4,0.1-0.7,0.1-1.1c0-0.4,0.1-1,0.1-1.4
				c0-0.1,0.1-0.3,0.1-0.5c0-0.8,0.1-1.5,0.1-2.2c0.1-0.7,0.1-1.5,0.1-2.3c0-0.6-0.1-1.2-0.1-1.8c0-0.1,0-0.3,0-0.5S40.2,5.3,40,5.3
				s-0.4,0.2-0.4,0.4c0,0.1,0,0.2,0,0.2s0,0,0,0.1c0,0.3-0.1,0.5-0.1,0.8c0,0.4-0.1,0.8-0.1,1.2c0,0.3-0.1,0.6-0.1,0.9
				c0,0.4-0.1,0.7-0.1,1.1c0,0.7,0,1.5,0,2.2c0,0.4,0,0.9,0,1.3c0,0.1,0,0.3,0,0.4c0-0.4-0.1-0.9-0.1-1.3c0-0.4,0-0.8,0-1.2
				c0-0.2,0-0.4,0-0.6s0-0.4,0-0.6c0-0.3,0-0.5,0.1-0.8c0-0.4,0.1-0.9,0.1-1.3c0-0.4,0.1-0.7,0.1-1c0-0.2,0-0.4,0-0.5
				c-0.1-0.8-0.1-1-0.1-1.2c-0.2,0.1-0.3,0.2-0.4,0.3C38.6,5.9,38.3,6,38,6.1c-0.2,0.1-0.4,0.2-0.5,0.3c-0.2,0-0.4,0.1-0.5,0.2
				c-0.6,0.2-1,0.4-1.5,0.5s-0.9,0.4-1.3,0.6c-0.3,0.2-0.5,0.2-0.8,0.4c-0.4,0.2-0.8,0.3-1.2,0.4l-0.1,0.1c0,0.1-0.1,0.2-0.1,0.3
				c0,0,0,0.1,0,0.2c0.1,0.4-0.1,0.6,0,1v0.1c0,0.1,0,0.1-0.1,0.2c0,0.4-0.1,0.7-0.1,1.1c0,0.3-0.1,0.5-0.2,0.9c0,0.3,0,0.5,0,0.8
				c0,0.4-0.1,0.7-0.1,1s-0.1,0.5-0.1,0.8s-0.1,0.5-0.1,0.9s-0.1,0.8-0.1,1.2c0,0.3,0,0.6,0,0.9c0,0.4,0,0.7,0,1.1s0,0.7-0.1,1.1
				s-0.1,0.6-0.1,1c0-0.4,0.1-0.7,0.1-1c0,0.2,0,0.4,0,0.6c0,0.3,0,0.6-0.1,0.9c0,0.4-0.1,0.7-0.1,1.1c0,0.3,0,0.5,0,0.8
				c0,0.1,0,0.3,0,0.4c0,0.5-0.1,0.9-0.1,1.4c0,0.3,0,0.4,0,0.7c0,0,0,0-0.1,0c0,0.1,0.1,0.2,0.1,0.2c0,0.4,0,0.9,0,1.2
				c0,0.4,0,0.9,0,1.3s-0.1,0.8-0.1,1.2c0,0.7,0,1.4,0,2.1c0,0.1,0,0.2,0,0.3c0,0.4,0,0.8,0,1.2c0,0.2,0,0.4,0,0.5
				c0,0.2,0,0.4,0,0.5c0,0.4,0,0.8,0,1.2s0,0.9-0.1,1.3c-0.1,0.4,0,0.7,0.2,1c0.1,0.1,0.2,0.3,0.3,0.3s0.1,0.1,0.1,0.1
				c0,0.2,0.2,0.4,0.3,0.5c0.1,0.2,0.2,0.4,0.4,0.5c0.3,0.4,0.4,0.8,0.7,1.2c0.2,0.4,0.4,0.6,0.7,0.9c0.2,0.3,0.4,0.5,0.4,0.8
				c0.3,0.4,0.6,0.7,0.8,1.2c0.1,0.2,0.3,0.4,0.4,0.5c0.3,0.4,0.5,0.6,0.8,1c0.4,0.4,0.6,0.8,1,1.2c0.1,0.1,0.2,0.2,0.2,0.3
				c0.1,0.1,0.7,0.2,0.9,0.1c0,0.1,0.1,0.3,0.3,0.4c0,0,0,0.1,0,0.2s0,0.2,0.1,0.4c-0.7-0.3-2.6-1.6-2.6-1.6c0,0.1,0.1,0.7,0.2,0.9
				c0,0.1,0.1,0.1,0.1,0.2c0.1,0.2,0.2,0.4,0.3,0.6c0.1,0.2,0.1,0.4,0.1,0.6c0,0.1,0,0.1,0,0.2c0.1,0.1,0.2,0.3,0.3,0.4
				c0.1,0.1,0.2,0.3,0.3,0.4c0.2,0.2,0.4,0.4,0.5,0.5c0.2,0.2,0.4,0.4,0.5,0.5c0,0,0.1,0,0.2,0.1c0.2,0,0.4,0,0.5,0
				c0.3,0,0.5,0,0.8,0c0.2,0,0.3-0.2,0.4-0.2c0.2-0.1,0.4-0.2,0.6-0.3v-0.1c0.1-0.1,0.2-0.2,0.3-0.3s0.2-0.3,0.1-0.4
				c-0.1-0.1,0-0.2,0-0.3s0-0.1,0-0.2c0-0.2,0-0.3,0.2-0.4c0.1,0,0.2-0.1,0.4-0.1c0.1,0.1,0.2,0.1,0.3,0.1s0.2,0,0.1,0.1
				c0,0.1,0,0.2-0.1,0.3c-0.1,0.2-0.2,0.3-0.1,0.4c0,0.2,0,0.4,0,0.4c0.1,0.3,0.3,0.4,0.4,0.6c0.1,0.2,0.2,0.3,0.4,0.4
				c0.2,0.1,0.3,0.2,0.4,0.3c0.3,0.3,0.6,0.4,1.1,0.4c0.4,0,0.6,0.1,1,0.1c0.3-0.1,0.6-0.1,0.8-0.4c0.1-0.1,0.3-0.3,0.4-0.4
				c0.1-0.1,0.3-0.2,0.4-0.4c0.1-0.1,0.2-0.3,0.3-0.4c0.2-0.2,0.3-0.4,0.3-0.5C47.2,49.1,47.3,49,47.4,49z"/>
			<path class="st0" d="M38.1,47.3c0,0,0-0.1,0-0.2c0.1,0.1,0.2,0.2,0.3,0.2c0,0.1,0,0.3,0,0.5c0,0-0.1,0-0.2-0.1
				C38.1,47.5,38.1,47.3,38.1,47.3z"/>
			<path class="st0" d="M39.3,26.3c0-0.3,0-0.5,0.1-0.9c0-0.4,0.1-0.6,0.1-1c0-0.1,0-0.2,0-0.3c0,0,0,0.1,0.1,0.1
				c0,0.3-0.1,0.5-0.1,0.8s0,0.5-0.1,0.9c0,0.4-0.1,0.8-0.1,1.2s-0.1,1-0.1,1.4s0,1-0.1,1.4c0,0.5-0.1,1.1-0.1,1.6
				c0,0.3,0,0.4,0,0.7c0,0.4-0.1,0.8-0.1,1.2s0,0.9,0,1.3c0,0.2,0,0.4,0,0.5c0,0.3,0,0.5,0,0.8c0,0.4-0.1,0.9-0.1,1.3
				c0,0.3,0.1,0.5,0.1,0.8c0,0.4,0,0.6,0,1s0,0.9,0,1.2s0,0.6,0,0.9c0,0.5,0,1,0,1.5c0,0.7,0,1.3,0,2.1c0,0.4-0.1,0.9-0.1,1.3
				c0,0.3,0,0.5,0,0.8s0,0.4,0,0.7c-0.1,0.5-0.1,0.6-0.1,0.6c-0.1,0-0.3-0.1-0.4-0.1c0,0-0.1-0.2-0.1-0.4c0.2,0.1,0.2,0.1,0.2,0.1
				c0-0.2,0-0.3,0-0.5c0.2,0.1,0.3,0.1,0.3,0c0-0.3,0-0.5,0-0.8c0-0.4,0.1-0.9,0.1-1.3c0-0.7,0-1.3,0-2.1c0-0.5,0-1,0-1.5
				c0-0.3,0-0.6,0-0.9c0-0.4,0-0.9,0-1.2c0-0.4,0-0.6,0-1c0-0.3-0.1-0.5-0.1-0.8c0-0.4,0.1-0.9,0.1-1.3c0-0.3,0-0.5,0-0.8
				c0-0.2,0-0.4,0-0.5c0-0.4,0-0.9,0-1.3c0-0.4,0.1-0.8,0.1-1.2c0-0.3,0-0.4,0-0.7c0-0.5,0-1.1,0.1-1.6c0-0.4,0-1,0.1-1.4
				c0-0.4,0.1-1,0.1-1.4S39.3,26.7,39.3,26.3z"/>
			<path class="st0" d="M39.4,25.4c-0.1,0.4-0.1,0.6-0.1,0.9c0,0.4-0.1,0.8-0.1,1.2s-0.1,1-0.1,1.4c-0.1,0.4-0.1,1-0.1,1.4
				c-0.1,0.5-0.1,1.1-0.1,1.6c0,0.3,0,0.4,0,0.7c0,0.4-0.1,0.8-0.1,1.2s0,0.9,0,1.3c0,0.1,0,0.3,0,0.5c0,0.3,0,0.5,0,0.8
				c0,0.4-0.1,0.9-0.1,1.3c0,0.3,0.1,0.5,0.1,0.8c0,0.4,0,0.6,0,1c0,0.3,0,0.8,0,1.2c0,0.3,0,0.6,0,0.9c0,0.5,0,1,0,1.5
				c0,0.8,0,1.4,0,2.1c0,0.4-0.1,0.9-0.1,1.3c0,0.3,0,0.5,0,0.8c0,0.1-0.1,0.1-0.3,0c0-0.2,0-0.3,0-0.5c0-0.3,0-0.4,0-0.7
				s0-0.5,0-0.8c0-0.4,0-0.7,0-1.1c0-0.4,0-0.9,0-1.3c0-0.8,0-1.4,0-2.1c0-0.6,0-1.2,0-1.8c0-0.3,0-0.4,0-0.7c0-0.4,0-0.7,0-1.1
				c0-0.5,0-1,0-1.5c0-0.4,0-0.7,0-1.1c0-0.4,0.1-0.6,0.1-1c0.1-0.5,0.1-0.8,0.1-1.2c0-0.1,0-0.2,0-0.4c0-0.4,0-0.9,0-1.3
				c0.1-0.4,0.1-0.8,0.1-1.2c0.1-0.4,0.1-1,0.1-1.4c0-0.5,0.1-1.2,0.1-1.7c0-0.4,0.1-0.8,0.1-1.2c0-0.3,0-0.5,0-0.7
				c0,0,0.1-0.2,0.1-0.4c0-0.1,0.3-0.1,0.4,0l0,0l0,0c0,0.1,0,0.2,0,0.3C39.5,24.8,39.4,25,39.4,25.4z"/>
			<path class="st0" d="M39.4,9.4c0-0.4,0.1-0.7,0.1-1.1c0-0.3,0-0.6,0.1-0.9c0-0.4,0.1-0.8,0.1-1.2c-0.1,0-0.1-0.1-0.1-0.2
				c0-0.2,0.2-0.3,0.3-0.2c0.2,0,0.4,0.2,0.4,0.4c0,0.1,0,0.3,0,0.5c0.1,0.6,0.1,1.2,0.1,1.8c0,0.7-0.1,1.5-0.1,2.3s0,1.5-0.1,2.2
				c0,0.1-0.1,0.3-0.1,0.5c0,0.4-0.1,1-0.1,1.4c-0.1,0.4-0.1,0.7-0.1,1.1c0,0.3,0,0.4,0,0.7c0,0.5,0,0.9,0,1.3c-0.1,0-0.1,0-0.1,0.1
				s-0.1,0.3-0.1,0.4c0,0.4,0,0.8,0,1.2l0.1,0.1l0,0c0,0.1,0,0.3,0,0.4c0,0.4,0,0.9,0,1.3c-0.1,0.4-0.1,0.8-0.2,1.2
				c0,0.1,0,0.3,0,0.5c0,0.3-0.1,0.7-0.1,1l0,0c-0.1-0.1-0.4-0.1-0.4,0c0,0.2-0.1,0.4-0.1,0.4c0,0.2,0,0.4,0,0.7
				c0,0.4-0.1,0.8-0.1,1.2c0,0.5-0.1,1.2-0.1,1.7c0,0.4,0,1-0.1,1.4c0,0.4,0,0.8-0.1,1.2c0,0.4,0,0.9,0,1.3c0,0.2,0,0.3,0,0.4
				c0,0.4,0,0.7-0.1,1.2c0,0.4-0.1,0.6-0.1,1s0,0.7,0,1.1c0,0.5,0,1,0,1.5c0,0.4,0,0.7,0,1.1c0,0.3,0,0.4,0,0.7c0,0.6,0,1.2,0,1.8
				c0,0.7,0,1.3,0,2.1c0,0.4,0,0.9,0,1.3c0,0.4,0,0.7,0,1.1c0,0.3,0,0.5,0,0.8s0,0.4,0,0.7c0,0.2,0,0.4,0,0.5
				c-0.1,0-0.2-0.1-0.3-0.2c0-0.3-0.1-0.7-0.1-1c0-0.2,0-0.4,0-0.5c0-0.2,0-0.4,0-0.6s0-0.4,0-0.6c0-0.6,0-1.2,0-1.9
				c0-0.5,0-1,0.1-1.5c0-0.6,0.1-1.3,0.1-2c0-0.5,0-1,0-1.5c0-0.4,0-0.7,0-1.2s0-0.9,0.1-1.3c0-0.4,0-0.8,0-1.2s0.1-1,0.1-1.4
				c0-0.6,0-1.2,0.1-1.9c0-0.5,0.1-1,0.1-1.5c0-0.4,0-0.7,0-1.1c0.1-0.6,0.1-1.3,0.2-2c0-0.2,0-0.4,0-0.5c0-0.4,0.1-0.9,0.1-1.4
				c0-0.4,0-0.9,0-1.4c0-0.4,0.1-0.7,0.1-1.1c0-0.3,0.1-0.5,0.1-0.9c0-0.5,0-1.2,0.1-1.7c0-0.4,0.1-0.7,0.1-1.2c0-0.3,0-0.5,0-0.8
				c0-0.4,0.1-0.9,0.1-1.2s0-0.7,0-1.1c0-0.2,0-0.4,0-0.6c0-0.4,0-0.7,0-1.1c0-0.4,0-0.9,0-1.3C39.4,10.9,39.4,10.1,39.4,9.4z"/>
			<path class="st0" d="M39.7,22.5c0,0.3-0.1,0.6-0.1,0.9c0,0,0,0,0.1,0c0,0.2-0.1,0.4-0.1,0.6c0,0.1,0,0.1,0,0.2c0,0,0,0-0.1-0.1
				l0,0c0-0.3,0.1-0.7,0.1-1c0-0.2,0-0.4,0-0.5c0.1-0.4,0.1-0.8,0.2-1.2c0,0.2,0,0.4-0.1,0.6l0,0c0,0.1,0,0.1,0,0.2
				C39.7,22.3,39.7,22.4,39.7,22.5L39.7,22.5z"/>
			<path class="st1" d="M37.8,46.2c0-0.2,0-0.4,0-0.6c0-0.1,0-0.3,0-0.4c0,0.5,0.1,1,0.1,1.4c0,0.1,0,0.1-0.1,0.1l0,0
				C37.8,46.6,37.8,46.4,37.8,46.2z"/>
			<path class="st0" d="M37.9,22.4C38,22,38,21.6,38,21.2C38.1,21.5,38,22,37.9,22.4z"/>
			<path class="st0" d="M21.6,23.6c0.2-0.4,0.4-0.7,0.5-1.1c0-0.1,0.1-0.2,0.2-0.2c0.3-0.1,0.5-0.1,0.8-0.2c0.4-0.1,0.7-0.2,1.1-0.3
				c0.3-0.1,0.5-0.2,0.8-0.3c0.1,0,0.2,0.1,0.2,0.1c0.1,0.1,0.2,0.2,0.3,0.3s0.1,0.2-0.1,0.3c-0.3,0.2-0.6,0.4-1,0.6
				c-0.3,0.1-0.5,0.2-0.8,0.4c-0.4,0.1-0.7,0.3-1.1,0.4s-0.6,0.3-1,0.4c-0.1,0-0.2,0.1-0.4,0.1C21.2,24,21.4,23.8,21.6,23.6z"/>
			<path class="st0" d="M20.2,14.5L20.2,14.5L20.2,14.5z"/>
			<path class="st1" d="M38,21.2c-0.1,0.4-0.1,1-0.1,1.4C38.1,22.1,38.2,21.7,38,21.2z M37.7,25.7c-0.1,0.2-0.1,0.4-0.1,0.7
				C37.7,26.1,37.7,25.9,37.7,25.7L37.7,25.7z M37.4,16C37.3,15.9,37.3,16,37.4,16L37.4,16z M32.4,24.5c0-0.1,0-0.3,0-0.4
				c0-0.4,0.1-0.9,0.1-1.3c0-0.6,0.2-1.2,0.3-1.9c0.1-0.4,0.2-0.7,0.2-1.1c0.1-0.3,0.1-0.6,0.2-0.9c0-0.2,0.1-0.5,0.1-0.5
				c0.1-0.3,0.1-0.5,0.2-0.8c0.1-0.3,0.2-0.5,0.3-0.8s0.2-0.4,0.4-0.7c0.2-0.3,0.4-0.7,0.7-0.8c0.4-0.2,1.4-0.2,1.5-0.2
				c0.3,0,0.5,0.1,0.7,0.3c0,0,0.2,0.3,0.3,0.6c-0.1-0.3-0.1-0.5-0.2-0.8c0-0.2,0-0.3-0.1-0.4c-0.1-0.3-0.1-0.6-0.2-0.9
				c-0.1-0.6-0.3-1.2-0.4-1.9c-0.1-0.4-0.3-1-0.5-1.3c0-0.2-0.2-0.4-0.3-0.5s-0.2-0.3-0.2-0.4c0-0.1,0-0.1,0-0.2
				c0.4-0.1,0.4,0.2,0.4,0.4c0,0,0,0.2,0.1,0.3c0.3,0.4,0.4,0.8,0.6,1.2c0.1,0.3,0.2,0.5,0.3,0.8c0.1,0.4,0.2,0.7,0.3,1.1
				c0.1,0.4,0.3,0.9,0.4,1.3c0.1,0.5,0.2,1,0.3,1.5c0.1,0.5,0.2,1.2,0.3,1.7c0.1,0.4,0.1,1,0.2,1.5c0,0.3,0.1,0.6,0.2,0.9
				c0.1,0.6,0.1,1.2,0.1,1.9c0,0.4-0.1,0.6-0.1,1c0,0.3,0,0.6-0.1,0.9c-0.1,0.5-0.2,1.1-0.2,1.6c0,0.2,0,0.4-0.1,0.6
				c0,0.3-0.1,0.6-0.1,0.9c0,0.2,0,0.4-0.1,0.6c-0.1,0.4-0.1,0.9-0.2,1.3c-0.1,0.3-0.2,0.6-0.3,0.9c0,0.1,0,0.3-0.1,0.4
				c-0.2,0.2-0.2,0.4-0.3,0.5c-0.2,0.4-1,1.7-1.3,1.7c-0.1,0.1-0.3,0.1-0.4,0.1c-0.3-0.1-0.6-0.2-0.9-0.4c-0.2-0.1-0.4-0.3-0.5-0.4
				c-0.2-0.3-0.4-0.6-0.5-1c0,0.1,0.6,0.7,0.9,0.9c0.3,0.2,0.6,0.4,1.1,0.3c0.4,0,1.2-1.4,1.2-1.8c0-0.3,0.2-0.6,0.3-0.9
				c0.1-0.4,0.2-2.4,0.4-2.8c0,0,0,0,0-0.1s0-0.1,0-0.2l0,0c0-0.1,0.1-0.2,0.1-0.3c0.1-0.6,0.2-1.2,0.2-1.8c0-0.2,0.1-2.9,0.1-3.3
				s0.2-1.8,0.1-2.1c0-0.2-0.6-2.5-0.7-2.9c-0.1-0.2-1.5-0.2-1.5-0.3c-0.1-0.1-0.3-0.1-0.4-0.1c-0.1,0-1.6,1.8-1.7,2.2
				c-0.2,0.4-0.4,1.2-0.4,1.2c-0.1,0.4-0.7,3.3-0.7,3.7c0,0.3-0.1,0.5-0.1,0.8s0,0.4,0,0.7C32.4,24.3,32.4,24.4,32.4,24.5
				c0,0.1,0,0.3,0,0.4s0,0.2,0,0.3c0,0.1,0,0.1,0,0.2S32.4,24.6,32.4,24.5z"/>
			<path class="st1" d="M33.8,23.5c0,0.3-0.2,0.4,0,0.7v0.1c0,0.1,0,0.1,0,0.2c0,0.2,0,0.4,0.1,0.6c0,0.4,0.1,0.8,0.1,1.2
				c0,0.2,0.1,0.4,0.2,0.6c0.1,0.3,0.2,0.5,0.3,0.7c0.1,0.3,0.3,0.4,0.4,0.7c0.1,0.1,0.1,0.3,0.2,0.4c0.2,0.2,0.4,0.3,0.7,0.3
				s0.6-0.3,0.6-0.4c-0.2-0.3-0.1-0.7,0-1c-0.1,0-0.1,0.1-0.2,0.1c-0.2,0.2-0.4,0.2-0.6,0.1c-0.2-0.1-0.4-0.3-0.5-0.4
				c-0.2-0.1-0.2-0.2-0.3-0.3c-0.1-0.2-0.3-0.3-0.3-0.4c-0.1-0.3-0.2-0.6-0.3-0.9c0-0.1,0-0.3,0-0.4c-0.1-0.2-0.1-0.4,0-0.5
				c0-0.1,0-0.2,0-0.4c0.1-0.3,0.1-0.6,0.3-0.9c0.1-0.2,0.1-0.4,0.2-0.4c0.1-0.2,0.3-0.4,0.4-0.5c0.3-0.2,0.4-0.4,0.7-0.4
				c0.2,0,0.2,0,0.3,0.1c0,0,0,0,0.1,0.1c0,0.1,0,0.2,0,0.4c-0.1,0.3-0.2,0.3-0.4,0.2c0,0,0,0-0.1,0h-0.1c-0.3,0.2-0.5,0.3-0.6,0.5
				c-0.2,0.4-0.3,0.6-0.4,1c0,0.5-0.1,1.2,0.2,1.7c0.1,0.1,0.1,0.3,0.2,0.4c0.2,0.3,0.4,0.5,0.8,0.7c0.2,0,0.3,0,0.3-0.1
				c0.1-0.1,0.2-0.3,0.3-0.4c0.2-0.2,0.3-0.4,0.3-0.5s0.1-0.3,0.1-0.4s0.1-0.1,0-0.2c-0.1-0.3,0-0.5-0.1-0.8c0-0.1,0-0.2-0.1-0.2
				c0-0.2,0-0.3-0.1-0.4c-0.1-0.3-0.2-0.5-0.4-0.7c-0.1-0.2-0.1-0.3,0.1-0.4c0.2,0.2,0.4,0.4,0.4,0.6c0.1,0.3,0.2,0.5,0.3,0.8
				c0,0,0,0,0.1,0c0-0.5,0-1.2,0-1.7c0,0,0,0-0.1-0.1c0-0.1,0-0.3,0-0.4s0-0.3,0-0.4s0-0.1,0-0.2c0-0.2,0-0.4,0-0.4
				c0-0.2,0-0.4,0-0.6s-0.2-0.4-0.2-0.6c-0.1-0.4-0.4-0.6-0.5-0.9c-0.1-0.1-0.2-0.2-0.4-0.3c-0.3-0.1-0.6,0.1-0.7,0.4
				c-0.2,0.4-0.4,0.7-0.5,1.1c-0.2,0.4-0.3,0.6-0.4,1c-0.1,0.4-0.2,0.9-0.3,1.2C33.9,23.1,33.8,23.2,33.8,23.5z M33.5,23.7
				c0-0.4,0.2-1.5,0.3-1.6c0.1-0.4,0.2-0.6,0.3-1s0.3-0.6,0.4-1c0.1-0.3,0.7-1.2,0.7-1.2l0.1-0.1c0.4-0.1,0.7-0.1,1,0.3
				c0.2,0.3,0.4,0.5,0.6,0.7c0.2,0.3,0.3,0.5,0.4,0.8c0.2,0.4,0.2,1,0.3,1.5c0,0.2,0.1,0.4,0.1,0.5c0,0.2,0,0.5,0,0.8
				s-0.1,0.6-0.1,0.8c0,0.2-0.1,0.4-0.1,0.6c-0.1,0.3-0.1,0.6-0.2,1c0,0.1,0,0.2,0.1,0.3c0,0.1,0,0.2,0,0.2
				c-0.1,0.3-0.2,0.6-0.3,0.9c-0.1,0.2-0.1,0.4-0.2,0.5c-0.1,0.2-0.3,1-0.3,1c-0.3,0.4-0.6,0.6-1.3,0.4c-0.4-0.1-0.6-0.4-0.8-0.7
				c-0.1-0.2-0.2-0.4-0.3-0.6c-0.1-0.3-0.2-0.5-0.3-0.8c-0.1-0.2-0.2-0.9-0.3-1.1C33.5,25.6,33.5,23.7,33.5,23.7z"/>
			<path class="st0" d="M37.9,22.4c0,0.1,0,0.2,0,0.2C37.9,22.5,37.9,22.5,37.9,22.4z"/>
			<path class="st1" d="M48.5,34.4c0.1,0.5,0.2,1,0.2,1.5c0,0.4-0.1,0.6-0.2,1c0,0.3-0.2,0.5-0.3,0.7c-0.1,0.3-0.4,0.5-0.4,0.8
				c0,0.1-0.1,0.2-0.1,0.3s-0.1,0.1-0.2,0.2c-0.1,0.1-0.1,0.2-0.2,0.2c0,0,0,0.1-0.1,0.1c-0.3,0.2-0.5,0.4-0.8,0.5
				c-0.2,0.2-0.4,0.2-0.7,0.3c-0.1,0-0.1,0.1-0.2,0.1c-0.1,0-0.2-0.1-0.3-0.1c-0.4-0.1-1-0.2-1.4-0.1c-0.1-0.3-0.1-0.4,0.2-0.4
				c0,0,0.1,0,0.1-0.1c0.1-0.3,0.4-0.4,0.5-0.4c0.3-0.1,0.6-0.2,0.9-0.4c0.2-0.1,0.3-0.2,0.4-0.2c0.1-0.1,0.3-0.2,0.4-0.2
				c0.2-0.1,0.4-0.4,0.4-0.4c0.1,0,0.2-0.1,0.2-0.1c0.1-0.2,0.2-0.3,0.3-0.4c0.2-0.2,0.3-0.4,0.4-0.7c0-0.1,0-0.2,0.1-0.2
				c0.2-0.3,0.4-0.5,0.3-0.9v-0.1c0-0.3,0.1-0.5,0.1-0.8s0-0.5-0.2-0.7c-0.2-0.3-0.2-0.5-0.4-0.8c-0.1-0.2-0.2-0.4-0.4-0.6
				c0-0.1-0.1-0.1-0.1-0.2c-0.2-0.1-0.3-0.2-0.4-0.3c-0.2-0.1-0.4-0.2-0.5-0.2h0.1c0.6,0,1.2,0.3,1.6,0.7c0.4,0.4,0.5,0.7,0.5,1.2
				C48.3,34,48.5,34.1,48.5,34.4z"/>
			<path class="st1" d="M46.8,40.8C46.8,40.8,46.7,40.8,46.8,40.8C46.7,40.7,46.8,40.7,46.8,40.8z"/>
			<path class="st1" d="M46.7,40.7c-0.4,0-0.8-0.2-1.2-0.4c-0.1,0-0.3-0.1-0.4-0.1c0.1,0,0.1,0,0.2,0c0.1,0,0.1,0,0.2-0.1
				C45.9,40.2,46.4,40.5,46.7,40.7z"/>
			<path class="st1" d="M45.7,31.8c-0.2,0-0.3,0-0.5,0C45.3,31.7,45.5,31.7,45.7,31.8z"/>
			<path class="st1" d="M45.6,35.9c0,0.3,0,0.5-0.1,0.7c-0.1,0.3-0.4,1.2-0.5,1.2c0,0-1.4,1-1.5,1c-0.4,0-1.4,0-1.5-0.1
				s-1.2-0.6-1.6-2.8c-0.1-0.3,0-0.4,0-0.7c0-0.2,0-0.4,0-0.6c0-0.3,0.7-3,0.7-3.2c0.1-0.2,0.1-0.3,0.2-0.4c0-0.1,0.2-0.5,0.2-0.6
				c0-0.2,0.2-0.5,0.2-0.6s0.3-1,0.3-1.3s-0.1-0.4-0.1-0.7V28c0-0.1,0-0.2-0.1-0.3c0-0.1,0-0.2-0.1-0.3c0,0-0.6-1-0.7-1.1
				c-0.1-0.2-0.3-0.4-0.4-0.6c-0.2-0.3-0.3-0.4-0.5-0.6c0-0.1,0-0.1,0-0.2c0-0.2,0-0.4,0.1-0.6c0.1,0,0.2,0,0.2,0.1s0.1,0.2,0.2,0.3
				c0.1,0.1,0.2,0.2,0.3,0.3c0.2,0.2,0.3,0.4,0.4,0.6c0.3,0.4,0.5,0.6,0.7,1c0.1,0.2,0.4,0.9,0.5,1.1c0.1,0.3,0.2,0.4,0.2,0.7
				c0,0.2,0,0.4,0,0.5c0.1,0.3,0.1,0.6,0,0.9c-0.1,0.4-0.2,0.6-0.4,1c-0.1,0.3-0.2,0.4-0.3,0.7c0,0.1-0.2,0.6-0.2,0.7
				s-0.7,2.6-0.8,3c-0.1,0.3,0.2,1.1,0.3,1.5c0,0.3,0.4,0.8,0.4,0.9c2.3,1.1,3.5-1.1,3.5-1.5c0-0.2-0.1-0.4-0.1-0.5
				c0-0.2-0.5-0.8-0.4-1.1h0.1c0.2-0.1,0.4,0.1,0.4,0.2c0.1,0.2,0.2,0.4,0.2,0.5C45.5,35.3,45.6,35.6,45.6,35.9z"/>
			<path class="st1" d="M43.9,32.5c0.2,0.5,0.1,0.5,0,0.4C43.8,33,43.7,33,43.7,33c-0.1,0-0.1-0.1-0.2-0.1c0.1-0.1,0.2-0.1,0.2-0.2
				C43.8,32.6,43.8,32.5,43.9,32.5L43.9,32.5z"/>
			<path class="st1" d="M43.3,28.2v0.1l-0.1,0.1h-0.1c-0.1-0.2-0.2-0.9-0.3-1c0-0.3-0.1-0.5-0.2-0.7c0-0.4-0.1-0.6-0.1-1
				c0-0.1-0.1-0.6-0.2-0.7c0,0,0,0,0-0.1s0-0.2,0-0.2c-0.1-0.1-0.1-0.5-0.1-0.6c-0.1-0.2-0.2-0.8-0.3-0.9c-0.1-0.2-0.2-0.4-0.3-0.6
				c-0.1-0.3-0.9-1.3-1.1-1.6c-0.2-0.2-0.4-0.4-0.6-0.5c0-0.2,0-0.5,0-0.7c0.1,0.1,0.2,0.2,0.3,0.2c0.2,0.1,0.3,0.4,0.5,0.4l0.1,0.1
				c0,0.1,0,0.1,0.1,0.2c0.2,0.2,0.3,0.4,0.4,0.6c0.1,0.2,0.3,0.4,0.4,0.6c0.2,0.3,0.3,0.6,0.4,0.9c0.1,0.3,0.2,0.5,0.3,0.8
				c0.1,0.2,0.7,3.4,0.7,3.4C43.1,27.2,43.4,27.9,43.3,28.2z"/>
			<path class="st0" d="M40.5,8c0,0.8,0,1.6-0.1,2.3c0,0.7-0.1,1.4-0.1,2.2c0,0.2-0.1,0.4-0.1,0.5c0,0.4-0.1,1-0.1,1.4
				s0,0.7-0.1,1.1c0,0.3,0,0.4,0,0.7c0,0.5,0,1.1,0,1.7h-0.1c0-0.4,0-0.8,0-1.3c0-0.3,0-0.4,0-0.7c0-0.4,0-0.7,0.1-1.1
				c0-0.4,0.1-1,0.1-1.4c0-0.2,0.1-0.4,0.1-0.5c0.1-0.7,0.1-1.4,0.1-2.2s0.1-1.6,0.1-2.3c0-0.6,0-1.2-0.1-1.8c0-0.2,0-0.4,0-0.5
				c0-0.2-0.2-0.4-0.4-0.4c-0.1-0.1-0.3,0.1-0.3,0.2c0-0.1,0-0.2,0-0.2c0-0.2,0.2-0.4,0.4-0.4s0.4,0.2,0.4,0.4c0,0.2,0,0.4,0,0.5
				C40.4,6.8,40.5,7.4,40.5,8z"/>
			<path class="st0" d="M40,17.9c0,0.1,0,0.1,0,0.2c0,0.5,0,1.1-0.1,1.6v0.1l-0.1-0.1l0,0c0-0.4,0-0.8,0.1-1.2
				C39.9,18.3,39.9,18.1,40,17.9C39.9,17.9,40,17.9,40,17.9z"/>
			<path class="st0" d="M39.9,20.5c0,0.2,0,0.3,0,0.5c0,0.3-0.1,0.7-0.2,1c0-0.2,0-0.4,0.1-0.6C39.8,21.1,39.9,20.8,39.9,20.5z"/>
			<path class="st0" d="M39.9,19.8C39.8,19.7,39.9,19.8,39.9,19.8c0,0.2,0,0.5,0,0.7"/>
			<path class="st0" d="M39.9,17.9c0,0.2,0,0.4,0,0.6c-0.1,0.4-0.1,0.8-0.1,1.2l-0.1-0.1c0-0.4,0-0.8,0-1.2c0-0.1,0.1-0.3,0.1-0.4
				C39.8,17.9,39.8,17.9,39.9,17.9z"/>
			<path class="st1" d="M39.7,22c0,0.1,0,0.3,0,0.4c0-0.1,0-0.2,0-0.2C39.7,22.1,39.7,22.1,39.7,22z"/>
			<path class="st0" d="M39.7,22.5c0,0.1,0,0.2,0,0.2c0,0.2,0,0.5,0,0.7c0,0,0,0-0.1,0C39.6,23.1,39.7,22.8,39.7,22.5z"/>
			<path class="st1" d="M39.2,16.1c0,0.1,0,0.1,0,0.2c0,0.4-0.1,0.9-0.1,1.2s0,0.5,0,0.8c0,0.4-0.1,0.7-0.1,1.2s-0.1,1.2-0.1,1.7
				c0,0.3,0,0.5-0.1,0.9c0,0.4-0.1,0.7-0.1,1.1s0,0.9,0,1.4c0,0.4-0.1,0.9-0.1,1.4c0,0.2,0,0.4,0,0.5c-0.1,0.6-0.1,1.3-0.2,2
				c0,0.4,0,0.7,0,1.1c0,0.5-0.1,1-0.1,1.5c0,0.6,0,1.2-0.1,1.9c0,0.4-0.1,1-0.1,1.4s0,0.8,0,1.2s0,0.9-0.1,1.3c0,0.4,0,0.7,0,1.2
				s0,1,0,1.5c0,0.6-0.1,1.3-0.1,2c0,0.5-0.1,1-0.1,1.5c0-0.2,0-0.4,0-0.6c0-0.4,0-1,0-1.4c0-0.2,0-0.3,0-0.4c0-0.4,0-0.8,0.1-1.2
				c0-0.4,0-0.9,0-1.3c0-0.5,0-1.2,0-1.7c0-0.3,0-0.5,0-0.8c0-0.4,0.1-0.9,0.1-1.3c0-0.4,0-1,0-1.4c0-0.2,0-0.4,0-0.5
				c0-0.3,0.1-0.6,0.1-0.9c0-0.6,0.1-1.2,0.1-1.8c0-0.3,0-0.5,0.1-0.8c0-0.2,0-0.4,0-0.6c0-0.4,0.1-0.7,0.1-1.1c0-0.3,0-0.6,0.1-0.9
				c0-0.3,0.1-0.5,0.1-0.8c0-0.4,0-0.8,0-1.2c0-0.6,0-1.2,0.1-1.8c0-0.1,0-0.3,0-0.4s0-0.2,0.1-0.4c0-0.1,0-0.3,0-0.4
				c0-0.3,0-0.6,0-0.9c0-0.4,0-0.8,0.1-1.2c0-0.3,0-0.4,0.1-0.7c0-0.4,0.1-0.9,0.1-1.3C39.1,16.9,39.2,16.5,39.2,16.1z"/>
			<path class="st1" d="M37.7,23.4c0,0.3,0,0.6,0,0.8c0,0.6-0.1,1.2-0.2,1.8c0,0.1-0.1,0.2-0.1,0.3c0-0.1,0-0.1,0-0.2
				c-0.1-0.1-0.1-0.2-0.1-0.3c0.1-0.4,0.1-0.7,0.2-1c0-0.2,0.1-0.4,0.1-0.6C37.7,23.9,37.7,23.6,37.7,23.4z"/>
			<path class="st1" d="M36.3,24.6c0,0.2,0,0.4,0,0.6c0,0.3-0.1,0.4-0.3,0.6c-0.1,0.1-0.3,0.2-0.4,0.1c-0.2,0-0.4-0.2-0.4-0.4
				c0-0.1-0.1-0.1-0.1-0.2c0,0,0-0.2,0-0.4c0.1-0.2,0.2-0.4,0.3-0.6s0.2-0.3,0.4-0.3c0,0,0.1,0,0.1,0.1c0.1,0.2,0.1,0.2,0.2,0.2
				C36.2,24.4,36.3,24.5,36.3,24.6z"/>
			<path class="st1" d="M33.4,30.7c0,0.1,0.1,0.1,0.1,0.2C33.5,30.9,33.4,30.8,33.4,30.7z"/>
			<path class="st1" d="M33.4,30.7c0-0.1-0.1-0.1-0.1-0.2C33.3,30.5,33.4,30.6,33.4,30.7z"/>
			<path class="st0" d="M31.4,10.6L31.4,10.6c0,0.3,0,0.6,0,1s-0.1,0.6-0.2,1c0,0.2-0.1,0.4-0.1,0.6c0,0,0,0,0,0.1
				c0.3,0.2,0,0.4,0,0.6c0,0.3,0,0.4-0.1,0.7c0,0.3-0.1,0.4-0.1,0.8c-1.2-0.6-2.4-1.2-3.6-1.8c0.2-0.2,3.4-2.7,3.7-2.8
				C31.2,10.7,31.4,10.6,31.4,10.6z"/>
			<path class="st0" d="M30.9,15.4v0.1c-1.2-0.5-2.5-1.2-3.7-1.8l0.1-0.1C28.5,14.2,29.7,14.8,30.9,15.4z"/>
			<path class="st1" d="M27.2,22.6c0.1,0.2,0.2,0.4,0.2,0.5s-0.1,0.2-0.2,0.2c0-0.1-0.1-0.1-0.1-0.2c0-0.3-0.2-0.5-0.4-0.7
				c-0.1,0-0.3-0.2-0.5-0.4c0.1-0.1,0.2-0.1,0.3-0.1C26.9,22.1,26.9,22.3,27.2,22.6z"/>
			<path class="st0" d="M25.8,8C25.9,8,25.9,8,25.8,8c-0.2,0.2-0.3,0.4-0.6,0.6c-0.3,0.3-0.6,0.4-1,0.7s-0.7,0.5-1,0.9
				c-0.2,0.2-0.4,0.3-0.5,0.4c0,0.1-0.1,0.1-0.2,0.2c0.1-0.1,0.2-0.2,0.2-0.3c0.2-0.2,0.4-0.3,0.5-0.4c0.4-0.4,0.6-0.6,1-0.9
				c0.4-0.2,0.6-0.4,1-0.7C25.4,8.3,25.6,8.1,25.8,8z"/>
			<path class="st1" d="M25.6,41.8C25.7,41.8,25.7,41.8,25.6,41.8C25.7,41.8,25.7,41.8,25.6,41.8z"/>
			<path class="st0" d="M23.7,7.3C23.7,7.3,23.7,7.4,23.7,7.3L23.7,7.3L23.7,7.3z"/>
			<path class="st0" d="M21.9,10.6c-0.1,0-0.1-0.1-0.1-0.1l0,0C21.8,10.5,21.8,10.6,21.9,10.6z"/>
			<path class="st1" d="M20.6,20.8c0.1,0.1,0.9,0.1,0.7,1c-0.1,0.4-0.4,0.6-0.8,0.7c-0.2,0-0.8-0.6-0.7-1c0-0.1,0.1-0.3,0.2-0.4
				C20,21,20.3,20.8,20.6,20.8z M21,21.6c-0.1-0.2-0.2-0.4-0.4-0.5h-0.1C20,21.3,20,21.8,20.2,22c0,0.1,0.1,0.1,0.2,0.1s0.1,0,0.2,0
				C20.8,22,21,21.6,21,21.6z"/>
			<path class="st1" d="M21.1,24.1L21.1,24.1c-0.1,0-0.3,0-0.4,0C20.9,24.1,21,24.1,21.1,24.1z"/>
			<path class="st0" d="M16.7,20c0.1,0.2,0.2,0.3,0.3,0.4c-0.3,0.3-0.7,0.6-1,0.7C16.3,20.7,16.4,20.4,16.7,20z"/>
			<path class="st1" d="M15.8,9c0.1,0,0.1,0.1,0.2,0.1c-0.6,0.9-1.4,2.1-2.1,3.3c0.2-0.3,0.3-0.5,0.3-0.6c0.1-0.3,0.6-1.2,0.8-1.4
				c0.1-0.3,0.4-0.5,0.5-0.9c0-0.1,0.1-0.2,0.2-0.4C15.7,9,15.8,9,15.8,9z"/>
			<path class="st0" d="M15.9,21.4c0,0,0.1,0.1,0.2,0.2c-0.2,0.1-0.5,0.3-0.4,0.1C15.8,21.6,15.8,21.5,15.9,21.4z"/>
		</g>
		<g>
			<path class="st2" d="M25.6,41.8c-0.3,0.2-0.4,0.4-0.8,0.5c0,0-0.4,0.4-0.6,0.5c-0.1,0-2,1.6-2.1,1.7s-0.4,0.3-0.5,0.4
				c-0.2,0.1-0.4,0.3-0.6,0.4c-0.2,0.1-0.5,0.3-0.5,0.3c-0.1,0.1-0.2,0.1-0.3,0.2C20,45.9,19.6,46,19.6,46c-0.2,0.3-3.6,0.1-3.6,0.1
				c-0.2,0-0.7-0.1-0.9-0.1c-0.1,0-0.5-0.1-0.5-0.1c-0.1,0-0.1,0-0.2-0.1c-0.3,0-0.5-0.2-0.7-0.3c-0.3-0.2-0.6-0.4-0.9-0.5
				c-0.2-0.1-0.6-1.1-0.8-1.4c-0.4-0.7-0.4-1.3-0.4-2c0-0.4,0.1-0.8,0.1-1.2c0.1-0.1,0.1-0.1,0.1-0.2c0-0.1-0.1-0.2-0.2-0.2
				c-0.2-0.2-0.8-0.9-0.9-1c-0.1-0.1-0.4-0.4-0.6-0.6C10,38.2,9.8,38,9.7,37.9S9.1,37.3,9,37.1c0-0.1-0.1-0.2-0.1-0.2
				c-0.1-0.1-0.1-0.3-0.1-0.4c0-0.2,2.4-1.3,2.4-1.4c-0.3-0.1-0.6-0.3-0.9-0.4c-0.3-0.1-0.5-0.2-0.8-0.3c-0.2-0.1-0.4-0.2-0.6-0.3
				c0,0-0.4-0.1-0.5-0.1c-0.2,0,0.7-1,0.8-1c0.2-0.2,0.3-0.3,0.4-0.4c0.2-0.2,0.8-0.9,0.8-1.2c0-0.3,0.1-0.6,0-0.6
				c-0.8,0.3-2.9-0.2-3-0.2c-0.2-0.1-0.4-0.1-0.6-0.2c-0.3-0.1-0.5-0.1-0.7-0.1c-0.1,0-0.2,0-0.3,0c-0.1,0-0.2,0-0.4,0
				c-0.1,0-0.1,0-0.2,0c-0.3,0-0.4,0-0.4-0.3c0-0.1,1.3-3.3,1.5-3.7c0.2-0.4,5.9-11.5,6-11.6c0,0,0.7-1.1,1.6-2.3
				c0.7-1.1,1.6-2.4,2.1-3.3c0.3-0.5,0.6-0.9,0.6-1C16.7,7.9,16.9,7.9,17,8c0.2,0.1,2.8,1.2,3.1,1.3c0.2,0.1,0.8,0.3,0.9,0.4
				c0.1,0,0.1,0,0.2,0.1c0.3,0.1,2-2.5,2.2-2.5c0.1,0,0.3-0.6,0.5-0.5H24c0.4,0.1,0.6,0.2,1,0.3c0.3,0.1,0.4,0.1,0.7,0.2
				c0.2,0.1,0.4,0.2,0.6,0.3c0.1,0.1,0.3,0.1,0.4,0.1c0.2,0.1,0.4,0.1,0.6,0.2c0.2,0,0.4,0.1,0.5,0.1c0.1-0.1,0.2,0,0.3,0
				s0.3,0.1,0.4,0.1c0.2,0,0.4,0.1,0.6,0.1c0.4,0,0.7,0.1,1.2,0.1c0.1-0.1,0.3,0,0.4,0c0.2,0,0.4,0.2,0.6,0C31.4,8.1,31.7,8.1,32,8
				c0.2-0.1,0.3-0.1,0.4-0.2c0.4-0.2,0.8-0.4,1.2-0.5C34,7.1,34.4,7,34.7,6.8c0.1,0,0.2,0,0.3,0c0.4-0.2,0.9-0.3,1.3-0.4
				c0.4-0.1,0.6-0.3,1-0.4c0.3-0.1,0.5-0.3,0.8-0.4c0.2-0.1,0.4-0.1,0.4-0.1c0.1,0,0.3-0.1,0.4-0.2c0.1,0,0.1-0.1,0.2-0.2
				c0.1,0,0.2,0,0.2-0.1c0,0,0.1-0.1,0.2-0.1s0.1,0.1,0.2,0.2c0,0,0.1-0.1,0.1-0.2c0.2-0.3,0.4-0.3,0.5-0.3s0.1,0,0.2,0.1
				c0.1,0,0.2,0.1,0.3,0.1C41,4.8,41,5,41,5.1C41,6,40.9,7,40.9,7.9s-0.1,1.8-0.1,2.7c0,0.4,0,0.9,0,1.3c0,0.4-0.1,0.7-0.1,1.1
				s-0.1,0.8-0.1,1.2c0,0.3,0.1,0.4,0.1,0.7c0,0.2,0,0.4,0,0.5c0,0.5,0,1.1,0,1.5c0,0.2,0,0.4,0,0.6c0,0.1,0.1,0.2,0.2,0.2
				c0.2,0.2,4.3,4.8,4.4,5.1c0.1,0.1,0.6,2.3,0.6,2.6c0,0.5-0.4,4.8-0.5,4.9"/>
			<path class="st2" d="M25.6,41.8C25.7,41.8,25.7,41.8,25.6,41.8C25.7,41.8,25.7,41.8,25.6,41.8z"/>
			<path class="st2" d="M46.1,31.8L46.1,31.8c0.7,0,1.3,0.3,1.7,0.7s0.7,1.6,0.7,1.9c0.1,0.5,0.2,1,0.2,1.5c0,0.4-0.4,1.5-0.5,1.7
				c-0.1,0.3-0.8,1.5-0.9,1.5c0,0-0.6,0.5-0.9,0.6c-0.2,0.2-0.8,0.4-0.9,0.4c-0.1,0.1,1.9,0.8,2,1c0,0,0.5,0.4,0.6,0.5
				c0.3,0.4,1.1,1.7,1.2,2.1c0.1,0.3,0.1,0.5,0.2,0.8s0,2.3,0,2.4c-0.1,0.3-0.2,1.1-0.2,1.2c-0.1,0.3-0.3,0.9-0.4,1.1
				c-0.1,0.2-0.5,0.6-0.6,0.8s-1,1.3-1.1,1.4c-0.3,0.4-1.5,1-1.7,1.1c-0.3,0.1-0.5,0.2-0.8,0.1c-0.4-0.1-0.8-0.2-1.2-0.4
				c-0.1-0.1-1.5-1.2-1.6-1.3s-0.2-0.3-0.2-0.4c0,0.1-0.6,0.5-0.6,0.5s-0.5,0.3-0.8,0.4c-0.3,0.1-1.3,0.2-1.4,0.2
				c-0.1,0-1.6-0.7-1.7-0.8c-0.2-0.2-0.4-0.4-0.5-0.6c-0.1-0.1-0.5-0.8-0.6-1.3c0,0-0.8-3-1.1-3.4c-0.1-0.1-0.2-0.1-0.3-0.2
				c-0.1-0.1-0.2-0.2-0.3-0.3s-4.2-5.6-4.4-5.9c-0.1-0.2-0.2-0.3-0.3-0.4c-0.1,0.1-2.6,1.9-2.7,2c-0.3,0.3-1.4,1.1-1.4,1.1"/>
			<path class="st2" d="M45.4,30.3c0,0.2-0.3,0.9-0.4,1.2c0,0.1-0.1,0.2-0.1,0.3c0.1,0,0.6,0,0.8,0"/>
			<path class="st2" d="M13.9,12.4c-0.4,0.6-1,1.6-1.2,1.9c-0.1,0.2-0.8,1.3-1,1.8c-0.2,0.4-2.8,5.5-2.9,5.5
				c-0.1,0.2-3.4,7.3-3.4,7.7c0.1,0,0.1,0,0.2,0c0.3,0.1,0.5,0.2,0.7,0.2c0.4,0.1,1.9,0.4,2.3,0.4c0.3,0.1,0.6,0,0.9,0.2
				c0.3,0,1.1,0.2,1.4,0.2c0.2,0-0.5,2.1-0.6,2.2c-0.2,0.2-0.4,0.4-0.5,0.6c-0.1,0.2-0.3,0.3-0.4,0.4c-0.1,0.1-0.1,0.2,0.1,0.2
				c0.2,0.1,0.4,0.2,0.6,0.3c0.3,0.1,1.4,0.7,1.7,0.8c0.3,0.1-1.1,1.5-1.5,1.6c-0.1,0-0.2,0-0.3,0.1s-0.2,0.2-0.1,0.2
				c0.1,0.2,0.2,0.3,0.3,0.4c0.3,0.3,0.4,0.6,0.7,0.9c0.2,0.2,0.4,0.4,0.5,0.6c0.2,0.2,0.4,0.4,0.4,0.5c0.1,0.1,0.2,0.1,0.3,0.2
				c0.1,0.1,0.2,0.2,0.2,0.4c0.1,0.1,0.2,0.3,0.2,0.4c0.1,0.1-0.4,1.2-0.4,1.3S12,41.9,12,42c0,0.2,0,0.4,0.1,0.6
				c0.1,0.3,0.5,1.1,0.7,1.3c0.3,0.4,1.1,1.2,1.2,1.3c0.1,0.1,0.3,0.1,0.4,0.2c0.1,0.1,0.1,0.1,0.2,0.1c0.2,0.1,0.4,0.1,0.5,0.2
				c0.2,0,0.3,0.1,0.4,0.1c0.2,0,0.4,0.1,0.5,0.1c0.1,0,0.1,0,0.2,0c0.2,0,0.4,0,0.5,0s0.2,0,0.2,0H17c0.2,0,1.6-0.6,1.6-0.6
				c0.3-0.1,1.4-0.5,1.5-0.6c0.4-0.2,4.6-2.9,4.8-3c0.4-0.3,1.4-1.2,1.5-1.2c0.2-0.1,1.1-1,1.2-1c0.2-0.2,1-1,1.1-1
				c0.3-0.2,1.2-2.1,1.2-2.4c0-0.2,0.1-0.4,0.1-0.5c0-0.4,0-0.9,0-1.3c0-0.4,0-2.1,0-2.5c0-0.4,0-5.1,0-5.5c0-0.3,0-1.3,0-1.4
				c0-0.2,0-0.4,0-0.5c0-0.3,0.1-3.2,0.2-3.5c0.1-0.6,0.2-2.2,0.2-2.3c0-0.2,0.2-1.4,0.3-1.9c0-0.1,0-0.2-0.1-0.2s-0.2,0-0.2,0
				c-0.2-0.1-0.3-0.2-0.4-0.3c-0.4-0.2-0.9-0.4-1.3-0.6c-0.3-0.1-0.5-0.3-0.8-0.4c-0.4-0.2-0.6-0.4-1-0.5c-0.4-0.2-0.9-0.4-1.2-0.6
				c-0.4-0.2-0.7-0.4-1.1-0.6c0,0-0.4-0.2-0.5-0.3c-0.3-0.2-0.5-0.3-0.7-0.4c-0.3-0.2-0.5-0.3-0.7-0.4c-0.3-0.2-0.5-0.3-0.7-0.4
				c-0.4-0.2-2.5-1.1-3.2-1.6c-0.2-0.1-0.4-0.2-0.6-0.3c-0.5-0.2-1-0.4-1.5-0.7c-0.2-0.1-0.5-0.2-0.7-0.3c-0.1,0-0.1-0.1-0.2-0.1
				c0,0-0.1,0-0.1,0.1c-0.1,0.2-0.2,0.3-0.2,0.4c-0.1,0.4-0.4,0.6-0.5,0.9c-0.2,0.2-0.7,1.1-0.8,1.4C14.2,11.9,14,12.1,13.9,12.4z"
				/>
			<path class="st2" d="M38.8,47.9l-0.6-0.2c-0.7-0.3-2.6-1.6-2.6-1.6c0,0.1,0.1,0.7,0.2,0.9c0,0.1,0.5,1.5,0.5,1.6
				c0.1,0.1,0.2,0.3,0.3,0.4c0.1,0.1,1.4,1.4,1.5,1.5c0.2,0,0.4,0,0.5,0c0.3,0,1.1-0.2,1.2-0.2c0.2-0.1,0.6-0.4,0.6-0.4
				c0.1-0.1,0.2-0.2,0.3-0.3s0.2-0.3,0.1-0.4c-0.1-0.1,0-0.8,0.2-0.9c0.1,0,0.2-0.1,0.4-0.1c0.1,0.1,0.2,0.1,0.3,0.1s0.2,0,0.1,0.1
				c0,0.1,0,0.2-0.1,0.3c-0.1,0.2-0.1,0.8-0.1,0.8c0.1,0.3,0.6,0.9,0.8,1s0.3,0.2,0.4,0.3c0.3,0.3,0.6,0.4,1.1,0.4
				c0.4,0,0.6,0.1,1,0.1c0.3-0.1,0.6-0.1,0.8-0.4c0.1-0.1,0.3-0.3,0.4-0.4c0.1-0.1,0.3-0.2,0.4-0.4c0.1-0.1,0.2-0.3,0.3-0.4
				c0.2-0.2,0.5-0.7,0.6-0.7c0.1-0.2,0.3-0.3,0.4-0.4c0.1-0.2,0.7-2.2,0.7-2.3c0-0.2,0.2-1.3,0.3-1.6c0-0.2,0-0.4,0-0.5
				c0-0.2-0.1-0.4-0.1-0.5c-0.1-0.2-0.3-0.9-0.4-1.1c-0.1-0.2-0.4-0.7-0.5-0.8s-1.9-1.6-2.3-1.7c-0.1,0-1.3-0.3-1.7-0.2
				c-0.1-0.3,0.7-0.9,0.8-0.9c0.3-0.1,0.6-0.2,0.9-0.4c0.2-0.1,0.3-0.2,0.4-0.2c0.1-0.1,1.2-1,1.3-1.1c0.2-0.2,0.9-1.4,0.8-1.8
				c0,0,0.1-0.6,0.1-0.9s-0.8-1.9-1-2.1c0-0.1-0.9-0.7-1-0.7s-1.4,0.2-1.7,0.4c-0.2,0.1-0.3,0.2-0.4,0.2c0,0-0.1,0-0.1,0.1
				c0.2,0.5-0.2,0.5-0.2,0.5c-0.1,0,0.1-0.5,0.2-0.6c0,0,0.2-0.3,0.3-0.4c0.2-0.2,0.5-1,0.5-1.1c0.1-0.2,0.1-0.4,0.2-0.6
				c0.1-0.2,0.3-2,0.4-2.4c0.1-0.4,0-1.4,0-1.6S45,24.8,45,24.7c0-0.2-0.1-0.4-0.1-0.6c0-0.1-0.1-0.3-0.1-0.4
				c-0.1-0.1-0.4-1.1-0.5-1.2c-0.1-0.2-0.1-0.3-0.2-0.4c-0.1-0.1-0.3-0.4-0.4-0.5c-0.1-0.1-0.8-1-0.9-1.1c-0.1-0.1-2-2.1-2.2-2.2
				c-0.1,0-0.1,0-0.2-0.1L38.8,47.9z"/>
			<path class="st3" d="M40.2,19.9c0.1,0.1,0.2,0.2,0.3,0.2c0.2,0.1,0.3,0.4,0.5,0.4l0.1,0.1c0,0.1,0,0.1,0.1,0.2
				c0.2,0.2,0.5,0.7,0.6,0.9c0.1,0.2,0.1,0.1,0.2,0.3c0.2,0.3,0.3,0.6,0.4,0.9c0.1,0.3,0.2,0.5,0.3,0.8c0.1,0.2,0.1,0.4,0.2,0.5
				c0.1,0.1,0.1,0.4,0.2,0.7c0.1,0.3,0.1,0.6,0.1,0.9c0.1,0.4,0.1,0.8,0.2,1.2v0.1c0,0.2,0,0.4,0.1,0.5c0.1,0.3,0.2,0.4,0.1,0.7v0.1
				l-0.1,0.1h-0.1c-0.1-0.2-0.2-0.4-0.3-0.5c0,0,0,0,0-0.1c0-0.2,0.1-0.3,0-0.4c0-0.3-0.1-0.5-0.2-0.7c0-0.4-0.1-0.6-0.1-1
				c0-0.1,0-0.2,0-0.3c0-0.2-0.1-0.3-0.2-0.4c0,0,0,0,0-0.1s0-0.2,0-0.2c-0.1-0.1-0.1-0.3-0.1-0.4s0-0.1,0-0.2
				c-0.1-0.2-0.2-0.4-0.2-0.5c0-0.2,0-0.3-0.1-0.4c-0.1-0.2-0.2-0.4-0.3-0.6c-0.1-0.3-0.2-0.5-0.4-0.7l-0.1-0.1
				c-0.1-0.4-0.4-0.5-0.6-0.8c-0.2-0.2-0.4-0.4-0.6-0.5"/>
			<path class="st2" d="M37.8,43.1c0-0.2,0-0.4,0-0.6c0-0.4,0-1,0-1.4c0-0.2,0-0.3,0-0.4c0-0.4,0-0.8,0.1-1.2c0-0.4,0-0.9,0-1.3
				c0-0.5,0-1.2,0-1.7c0-0.3,0-0.5,0-0.8c0-0.4,0.1-0.9,0.1-1.3c0-0.4,0-1,0-1.4c0-0.2,0-0.4,0-0.5c0-0.3,0.1-0.6,0.1-0.9
				c0-0.6,0.1-1.2,0.1-1.8c0-0.3,0-0.5,0.1-0.8c0-0.2,0-0.4,0-0.6c0-0.4,0.1-0.7,0.1-1.1c0-0.3,0-0.6,0.1-0.9c0-0.3,0.1-0.5,0.1-0.8
				c0-0.4,0-0.8,0-1.2c0-0.6,0-1.2,0.1-1.8c0-0.1,0-0.3,0-0.4s0-0.2,0.1-0.4c0-0.1,0-0.3,0-0.4c0-0.3,0-0.6,0-0.9
				c0-0.4,0-0.8,0.1-1.2c0-0.3,0-0.4,0.1-0.7c0-0.4,0.1-0.9,0.1-1.3s0.1-0.8,0.1-1.2"/>
			<path class="st2" d="M39.2,13.9c0-0.4-0.1-0.9-0.1-1.3c0-0.4,0-0.8,0-1.2c0-0.2,0-0.4,0-0.6s0-0.4,0-0.6c0-0.3,0-0.5,0.1-0.8
				c0-0.4,0.1-0.9,0.1-1.3c0-0.4,0.1-0.7,0.1-1c0-0.2,0-0.4,0-0.5c-0.1-0.8-0.1-1-0.1-1.2c-0.2,0.1-0.3,0.2-0.4,0.3
				C38.6,5.9,38.3,6,38,6.1c-0.2,0.1-0.4,0.2-0.5,0.3c-0.2,0-0.4,0.1-0.5,0.2c-0.6,0.2-1,0.4-1.5,0.5s-0.9,0.4-1.3,0.6
				c-0.3,0.2-0.5,0.2-0.8,0.4c-0.4,0.2-0.8,0.3-1.2,0.4l-0.1,0.1c0,0.1-0.1,0.2-0.1,0.3c0,0,0,0.1,0,0.2c0.1,0.4-0.1,0.6,0,1v0.1
				c0,0.1,0,0.1-0.1,0.2c0,0.4-0.1,0.7-0.1,1.1c0,0.3-0.1,0.5-0.2,0.9c0,0.3,0,0.5,0,0.8c0,0.4-0.1,0.7-0.1,1s-0.1,0.5-0.1,0.8
				s-0.1,0.5-0.1,0.9s-0.1,0.8-0.1,1.2c0,0.3,0,0.6,0,0.9c0,0.4,0,0.7,0,1.1s0,0.7-0.1,1.1c0,0.2,0,0.4,0,0.6c0,0.3,0,0.6-0.1,0.9
				c0,0.4-0.1,0.7-0.1,1.1c0,0.3,0,0.5,0,0.8c0,0.1,0,0.3,0,0.4c0,0.5-0.1,0.9-0.1,1.4c0,0.3,0,0.4,0,0.7c0,0,0,0-0.1,0
				c0,0.1,0.1,0.2,0.1,0.2c0,0.4,0,0.9,0,1.2c0,0.4,0,0.9,0,1.3s-0.1,0.8-0.1,1.2c0,0.7,0,1.4,0,2.1c0,0.1,0,0.2,0,0.3
				c0,0.4,0,0.8,0,1.2c0,0.2,0,0.4,0,0.5c0,0.2,0,0.4,0,0.5c0,0.4,0,0.8,0,1.2s0,0.9-0.1,1.3c-0.1,0.4,1.7,3.2,2,3.6
				c0.2,0.4,1.1,1.4,1.1,1.7c0.3,0.4,0.6,0.7,0.8,1.2c0.1,0.2,0.3,0.4,0.4,0.5c0.3,0.4,0.5,0.6,0.8,1c0.4,0.4,0.6,0.8,1,1.2
				c0.1,0.1,0.2,0.2,0.2,0.3c0.1,0.1,0.7,0.2,0.9,0.1c0.1,0,0.1-0.1,0.1-0.1c0-0.4-0.1-0.9-0.1-1.4"/>
			<path class="st2" d="M39.4,8c0,0.3-0.1,0.6-0.1,0.9c0,0.4-0.1,0.7-0.1,1.1c0,0.7,0,1.5,0,2.2c0,0.4,0,0.9,0,1.3
				c0,0.1,0,0.3,0,0.4c0,0.3,0,0.6,0,1s0,0.8,0,1.2c0,0.1,0,0.1,0,0.2c0,0.4-0.1,0.9-0.1,1.2s0,0.5,0,0.8c0,0.4-0.1,0.7-0.1,1.2
				s-0.1,1.2-0.1,1.7c0,0.3,0,0.5-0.1,0.9c0,0.4-0.1,0.7-0.1,1.1s0,0.9,0,1.4c0,0.4-0.1,0.9-0.1,1.4c0,0.2,0,0.4,0,0.5
				c-0.1,0.6-0.1,1.3-0.2,2c0,0.4,0,0.7,0,1.1c0,0.5-0.1,1-0.1,1.5c0,0.6,0,1.2-0.1,1.9c0,0.4-0.1,1-0.1,1.4s0,0.8,0,1.2
				s0,0.9-0.1,1.3c0,0.4,0,0.7,0,1.2s0,1,0,1.5c0,0.6-0.1,1.3-0.1,2c0,0.5-0.1,1-0.1,1.5c0,0.7,0,1.4,0,2.1c0,0.1,0,0.3,0,0.4
				c0,0.2,0,0.4,0,0.6s0,0.4,0,0.5l0,0c0,0.1,0.1,0.3,0.3,0.4"/>
			<path class="st2" d="M27,13.5c0.1-0.1,0.1-0.3,0.2-0.4c0.1-0.2,0.3-0.3,0.4-0.4c0.4-0.4,0.8-0.6,1.2-1c0.4-0.4,1-0.6,1.4-1
				c0.4-0.2,0.7-0.4,1.1-0.4c0,0,0.1-0.1,0.1-0.2c0-0.4,0.1-0.7,0.1-1.1c-0.1,0-0.2,0-0.4,0c-0.2,0-0.4-0.1-0.6-0.2
				c-0.2,0-0.5,0-0.7,0.2c-0.1,0.2-1,0.7-1.3,0.8c-0.4,0.3-0.8,0.4-1.2,0.7c-0.2,0.1-0.9,0.8-1.2,1c-0.3,0.3-0.6,0.4-0.9,0.7
				c-0.1,0.1-0.2,0.2-0.4,0.3C25.5,12.8,26.2,13.1,27,13.5z"/>
			<path class="st2" d="M22.6,11.1c0.4,0.8,1,0.9,1.7,1.3c0-0.2,0.6-0.6,0.7-0.6c0.1-0.1,0.2-0.2,0.3-0.3c0.2-0.2,0.4-0.3,0.5-0.4
				c0.3-0.3,0.6-0.4,0.9-0.7c0.4-0.3,0.7-0.5,1.1-0.7c0.4-0.3,0.9-0.6,1.3-0.9c0.1-0.1,0.3-0.1,0.4-0.2c-0.3-0.1-0.4-0.2-0.6-0.2
				s-0.4-0.1-0.5-0.1s-0.4,0-0.6-0.1c-0.4,0-0.7-0.1-1-0.2c-0.1,0-0.2,0-0.2,0c-0.3,0.2-0.5,0.4-0.7,0.5c-0.3,0.2-0.4,0.4-0.7,0.5
				c-0.3,0.1-1.2,0.9-1.4,1c-0.3,0.2-0.5,0.4-0.8,0.6C22.8,10.9,22.8,11,22.6,11.1z"/>
			<path class="st2" d="M30.9,15.4C30.9,15.4,31,15.4,30.9,15.4c0.1-0.3,0.2-0.5,0.2-0.9c0-0.3,0.1-1.3,0.1-1.4
				c0-0.2,0.2-1.2,0.3-1.6c0-0.3-0.1-0.6-0.1-0.9"/>
			<path class="st2" d="M31.4,10.6c-0.1,0-0.2,0.1-0.3,0.1"/>
			<path class="st2" d="M21.6,10.4"/>
			<path class="st2" d="M23.7,7.5L23.7,7.5"/>
			<path class="st2" d="M25.8,8c0,0,0.1-0.1,0.2-0.1c-0.7-0.3-2.1-0.4-2.3-0.4"/>
			<path class="st2" d="M5.3,29.6c0.3,0,0.6,0.1,0.9,0.1c-0.2-0.1-0.4-0.1-0.6-0.2C5.4,29.5,5.4,29.5,5.3,29.6z"/>
			<path class="st2" d="M31.1,20.2c-0.1,0.4-0.1,0.6-0.1,1C31,20.8,31.1,20.5,31.1,20.2z"/>
			<path class="st2" d="M31,20.2L31,20.2"/>
			<path class="st2" d="M23.7,7.3C23.6,7.5,23.5,7.6,23.7,7.3"/>
			<path class="st2" d="M23.7,7.3L23.7,7.3"/>
			<path class="st3" d="M27.2,20.8L27.2,20.8L27,20.9c-0.1,0-0.3,0.1-0.4,0.1c-0.2,0.1-0.4,0.2-0.6,0.3c-0.1,0-0.1,0-0.2,0.1
				c0.1,0.2,0.2,0.4,0.3,0.5s0.1,0.2,0,0.3c-0.2,0.2-0.4,0.4-0.5,0.5c0.1,0.1,0.3,0.3,0.4,0.4c0.2,0.3,0.3,0.5,0.4,0.9
				c0,0.1,0,0.2-0.1,0.2h-0.1c0-0.4-0.2-0.6-0.4-0.9l-0.1-0.1c-0.1-0.1-0.3-0.2-0.1-0.4c0,0-0.1-0.1-0.1-0.2h-0.1
				c-0.2,0.1-0.4,0.2-0.5,0.3c-0.2,0.1-0.4,0.2-0.4,0.3c-0.1,0.1-0.2,0.1-0.3,0.2v0.1c0.3-0.1,0.3,0.2,0.4,0.4
				c0.2,0.3,0.3,0.5,0.3,0.9c0,0.1,0,0.2,0,0.2h-0.2l-0.1-0.1c0-0.4-0.1-0.6-0.3-0.9c-0.1-0.2-0.3-0.3-0.4-0.4
				c-0.4,0.2-0.9,0.4-1.3,0.5c0.1,0.3,0.3,0.5,0.4,0.8c0.1,0.2,0,0.4,0,0.5c0,0.3-0.2,0.4-0.4,0.1l0.1-0.1c0-0.1-0.1-0.3-0.1-0.4
				c0-0.3-0.2-0.5-0.3-0.7c0-0.1-0.1-0.1-0.1-0.3c-0.4,0.1-0.7,0-1.1,0.3c-0.1,0.2-0.1,0.4-0.2,0.6c0,0.2,0,0.4,0,0.6
				c0,0.1,0.1,0.3,0.1,0.4c-0.3-0.1-0.4-0.3-0.4-0.4c0-0.3,0.1-0.6,0.1-0.9c0-0.1,0-0.1,0-0.2c-0.4,0.3-0.8,0-1.2,0
				c-0.1,0-0.1,0-0.2,0c-0.1,0.1-0.2,0.3-0.3,0.4c0.1,0.2,0,0.3,0,0.5c0,0.3,0,0.5,0,0.8v0.1v0.1c-0.1,0-0.1-0.1-0.2-0.1
				c0,0-0.1-0.1-0.1-0.2c-0.1-0.3-0.2-0.5-0.1-0.8c0.1-0.2,0-0.4,0.1-0.4s0.2-0.2,0.3-0.4c-0.2,0-0.3-0.1-0.4-0.1
				c-0.2-0.1-0.4-0.1-0.7-0.2c-0.2,0-0.5-0.4-0.5-0.3c-0.1,0.2-0.3,1.5-0.4,1.5c-0.2-0.1-0.2-0.2-0.2-0.4c0-0.3-0.1-0.5,0.1-0.7
				c0.1-0.2,0.3-0.7,0.2-0.7c-0.4-0.3-0.8-0.5-1.1-0.9c-0.2-0.2-0.6-0.6-0.6-0.6s-0.5,0.1-0.4-0.1s0.3-0.4,0.4-0.5
				c0.1-0.1,0.2-0.3,0.2-0.4c0.1-0.2,0.2-0.4,0.4-0.4c0.1-0.2,0.3-0.4,0.4-0.4c0.1-0.1,0.2-0.3,0.3-0.4c0.3-0.3,0.4-0.5,0.7-0.8
				c0.2-0.3,0.4-0.4,0.6-0.5"/>
			<path class="st3" d="M22.5,17.3c0.3,0.1,0.6,0.2,0.9,0.3c0.2,0,3.2,2.1,3.5,2.3c0.3,0.3,0.2,1,0.3,1.1l0,0l0.7,0.1"/>
			<path class="st3" d="M21.2,17.3"/>
			<path class="st3" d="M21.1,17.3"/>
			<path class="st3" d="M20.9,17.3"/>
			<path class="st3" d="M18,18.5"/>
			<path class="st3" d="M18,18.5c0.1,0.5,0.1,0.7,0.2,1.1c0.2-0.1,1-0.4,1.6-0.5c0.1,0-0.3-1-0.2-1C20,18,20,19,20.2,19
				c0.1,0,0.7-0.1,0.8-0.1c0.1-0.1,0.1-0.4,0.1-0.5s0.3-0.6,0.4-0.6s0.1,0.1,0,0.2c0,0.1,0,0.2-0.1,0.3c0,0.1,0,0.3-0.1,0.5
				s0,0.2,0.1,0.2c0.2,0.1,0.4,0.1,0.6,0.2s0.4,0.2,0.5,0.2s0.2,0,0.2-0.1c0.1-0.2,0.2-0.5,0.4-0.8l0.1-0.1c0,0,0.1,0,0.1,0.1
				c0.1,0.1,0.1,0.2,0.1,0.3c-0.1,0.2-0.1,0.5-0.2,0.5c0,0,0.2,0.5,0.3,0.6c0.2,0.2,0.6,0.2,0.7,0c0.1-0.1,0.2-0.2,0.3-0.5
				c0,0,0-0.1,0.1-0.2s0.3-0.1,0.4,0.1c-0.3,0.3-0.4,0.7-0.7,1c0.2,0.2,0.4,0.5,0.4,0.3c0.2-0.1,0.5-0.7,0.6-0.8c0,0,0.2-0.1,0.2,0
				c-0.1,0.3-0.2,0.6-0.3,0.9c0.4-0.1,0.7-0.2,1.1-0.5c-0.1-0.1-0.2-0.2-0.3-0.4c-0.2-0.2-3.1-2.4-3.5-2.5c-0.2-0.1-0.4-0.1-0.6-0.2
				C21.6,17,21.4,17,21.2,17c0,0,0,0-0.1,0s-0.1,0-0.2,0c-0.3,0-0.7,0.1-1,0.2C19.7,17.2,18,18.4,18,18.5C18,18.4,18,18.5,18,18.5
				L18,18.5z"/>
			<path class="st3" d="M18.6,21.7c0-0.2,0-0.4,0-0.5c0-0.3,0.9-1.5,1-1.6c0.2-0.1,1.8-0.1,1.9,0c0.2,0.2,0.7,1,0.8,1.3
				c0.1,0.3,0.5,0.7,0.6,0.7c0.7-0.2,1.7-0.5,2.4-0.5c0,0-0.2-0.2-0.3-0.2c-0.3-0.3-0.7-0.4-1.1-0.6c-0.2-0.1-0.3-0.2-0.4-0.2
				c-0.3-0.1-0.5-0.3-0.8-0.4c-0.1,0-0.2-0.1-0.3-0.1c-0.3-0.1-1.4-0.5-1.8-0.5c-0.3,0-0.5,0.1-0.7,0.1c-0.1,0-0.2,0.1-0.3,0.1
				c-0.4,0.1-3.3,2.3-3.5,2.6h0.1c0.2,0,0.4,0,0.5,0c0.2,0,0.4,0,0.5,0C17.5,22,18.6,21.8,18.6,21.7z"/>
			<path class="st3" d="M22.3,22.1c0.1-0.4,0.2-0.9,0-1.3c0-0.1,0-0.2-0.1-0.3c-0.2-0.2-0.3-0.4-0.5-0.5l-0.1-0.1
				c-0.2-0.1-0.5-0.1-0.8-0.2c-0.2,0-0.5,0-0.5,0c-0.3,0.1-0.5,0.3-0.8,0.4c-0.3,0.3-0.5,0.5-0.6,0.9c-0.2,0.4-0.1,1.5,0,1.6
				c0.2,0.2,0.5,0.4,0.6,0.5c0.3,0.2,0.7,0.4,1.1,0.5c0.3,0.1,0.7,0.1,0.9-0.2C21.9,23.1,22.3,22.2,22.3,22.1z"/>
			<path class="st3" d="M21.1,24.1L21.1,24.1c-0.1,0-0.3,0-0.4,0"/>
			<path class="st3" d="M21.1,24.1c0.1,0,0.3,0,0.4-0.1c0.4-0.1,0.7-0.3,1.1-0.4s0.8-0.3,1.2-0.4c0.3-0.2,0.5-0.3,0.9-0.4
				c0.4-0.2,0.8-0.4,1.1-0.7c0.2-0.1,0.2-0.2,0.1-0.3c-0.1-0.1-0.2-0.2-0.3-0.3c0,0-0.1-0.1-0.2-0.1c-0.3,0.1-0.5,0.2-0.9,0.3
				c-0.4,0.1-0.8,0.2-1.2,0.3c-0.3,0-0.6,0-0.9,0.1c-0.1,0-0.2,0.1-0.2,0.2c-0.1,0.4-0.3,0.8-0.5,1.2C21.4,23.8,21.2,24,21.1,24.1z"
				/>
			<path class="st3" d="M20.7,24.1c0.1,0,0.3,0,0.4,0"/>
			<path class="st3" d="M20.7,24.1c-0.1,0-0.1,0-0.2,0"/>
			<path class="st3" d="M20.5,24.1C20.5,24.2,20.6,24.2,20.5,24.1L20.5,24.1z"/>
			<path class="st3" d="M17.9,18.7c-0.1,0.1-0.1,0.1-0.2,0.2c-0.2,0.3-0.4,0.4-0.6,0.7C17,19.7,17,19.9,17,20.2
				c0,0.1,0.1,0.1,0.1,0.2c0.3-0.2,0.5-0.4,0.8-0.5c0,0,0-0.1,0-0.2C18,19.3,18,19,17.9,18.7z"/>
			<path class="st3" d="M17,20.4c-0.1-0.1-0.2-0.2-0.3-0.4c-0.3,0.4-0.4,0.7-0.7,1.1C16.3,21,16.7,20.7,17,20.4z"/>
			<path class="st4" d="M26.2,22c0.1-0.1,0.2-0.1,0.3-0.1c0.4,0.2,0.4,0.4,0.7,0.7c0.1,0.2,0.2,0.4,0.2,0.5s-0.1,0.2-0.2,0.2
				c0-0.1-0.1-0.1-0.1-0.2c0-0.3-0.2-0.5-0.4-0.7C26.6,22.4,26.4,22.2,26.2,22z"/>
			<path class="st3" d="M37.4,16L37.4,16"/>
			<path class="st3" d="M37.4,16C37.3,15.9,37.3,16,37.4,16L37.4,16z"/>
			<path class="st3" d="M37.1,15.4c0,0,0.2,0.3,0.3,0.6"/>
			<path class="st3" d="M37.4,16c-0.1-0.3-0.2-1.1-0.3-1.2C37,14.5,36.2,11,36,10.7c0-0.2-0.5-0.8-0.5-0.9c0-0.1,0-0.1,0-0.2
				c0.4-0.1,1.3,2.4,1.4,2.7c0.1,0.4,0.2,0.7,0.3,1.1c0.1,0.4,0.3,0.9,0.4,1.3c0.1,0.5,0.2,1,0.3,1.5c0.1,0.5,0.2,1.2,0.3,1.7
				c0.1,0.4,0.1,1,0.2,1.5c0,0.3-0.1,5.8-0.1,6.3c0,0.2-0.2,1.2-0.2,1.5c0,0.2-0.2,1.5-0.3,1.9c-0.1,0.3-0.3,1.2-0.4,1.3
				c-0.2,0.2-1.3,2.2-1.6,2.2c-0.1,0.1-0.3,0.1-0.4,0.1c-0.3-0.1-1.3-0.7-1.4-0.8c-0.2-0.3-0.4-0.6-0.5-1c0,0-0.1-0.1-0.1-0.2
				s-0.1-0.2-0.1-0.2"/>
			<path class="st3" d="M37.4,16L37.4,16"/>
			<path class="st3" d="M37.7,23.4c0-0.1,0-0.2,0.1-0.4c0-0.3,0-0.5,0-0.7c0-0.4,0-1,0-1.4s-0.2-3.2-0.3-3.5c0.1-2-2-1.8-2.1-1.8
				s-1.6,1.8-1.7,2.2c-0.2,0.4-0.4,1.2-0.4,1.2c-0.1,0.4-0.5,1.9-0.5,2.3c0,0.2-0.3,1.9-0.3,2.2s0,0.4,0,0.7c0,0.2,0,0.7,0,0.8
				s0,0.2,0,0.3c0,0.1,0.9,5.3,0.9,5.4s0.7,0.9,1,1.1s0.6,0.4,1.1,0.3c0.4,0,1.4-2.4,1.5-2.7c0.1-0.4,0.2-1.2,0.2-1.3s0-1.1,0.2-1.5
				c0,0,0,0,0-0.1s0-0.1,0-0.2"/>
			<path class="st3" d="M38,21.2c-0.1,0.4-0.1,1-0.1,1.4C38.1,22.1,38.2,21.7,38,21.2z"/>
			<path class="st3" d="M36.6,15.5"/>
			<path class="st3" d="M37.6,26.4c0.1-0.3,0.1-0.5,0.1-0.7"/>
			<path class="st3" d="M37.7,25.7L37.7,25.7c-0.1,0.2-0.1,0.4-0.1,0.7"/>
			<path class="st4" d="M20.6,20.8c0.1,0.1,0.9,0.1,0.7,1c-0.1,0.4-0.4,0.6-0.8,0.7c-0.2,0-0.8-0.6-0.7-1c0-0.1,0.1-0.3,0.2-0.4
				C20,21,20.3,20.8,20.6,20.8z"/>
			<path class="st4" d="M20.4,22c0.1,0,0.1,0,0.2,0c0.2,0,0.4-0.4,0.4-0.4c-0.1-0.2-0.2-0.4-0.4-0.5h-0.1C20,21.3,20,21.8,20.2,22
				C20.2,22,20.3,22,20.4,22z"/>
			<path class="st4" d="M37.6,22.1c0,0.2,0.1,0.4,0.1,0.5c0,0.2,0,0.5,0,0.8s0,0.6,0,0.8c0,0.6-0.1,1.2-0.2,1.8
				c0,0.1-0.1,0.2-0.1,0.3l0,0c-0.1,0.3-0.2,0.6-0.3,0.9"/>
			<path class="st4" d="M36.4,27.6c-0.1,0-0.1,0.1-0.2,0.1c-0.2,0.2-0.4,0.2-0.6,0.1c-0.2-0.1-0.4-0.3-0.5-0.4
				c-0.2-0.1-0.2-0.2-0.3-0.3c-0.1-0.2-0.3-0.3-0.3-0.4c-0.1-0.3-0.2-0.6-0.3-0.9c0-0.1,0-1.1,0-1.3c0.1-0.3,0.1-0.6,0.3-0.9
				c0.1-0.2,0.1-0.4,0.2-0.4c0.1-0.2,0.3-0.4,0.4-0.5c0.3-0.2,0.4-0.4,0.7-0.4c0.2,0,0.2,0,0.3,0.1c0,0,0,0,0.1,0.1
				c0,0.1,0,0.2,0,0.4c-0.1,0.3-0.2,0.3-0.4,0.2c0,0,0,0-0.1,0h-0.1c-0.3,0.2-0.5,0.3-0.6,0.5c-0.2,0.4-0.3,0.6-0.4,1
				c0,0.5-0.1,1.2,0.2,1.7c0.1,0.1,0.1,0.3,0.2,0.4c0.2,0.3,0.4,0.5,0.8,0.7c0.2,0,0.3,0,0.3-0.1c0.1-0.1,0.2-0.3,0.3-0.4
				c0.2-0.2,0.3-0.4,0.3-0.5s0.1-0.3,0.1-0.4s0.1-0.1,0-0.2c-0.1-0.3,0-0.5-0.1-0.8c0-0.1-0.1-0.5-0.2-0.6c-0.1-0.3-0.2-0.5-0.4-0.7
				c-0.1-0.2-0.1-0.3,0.1-0.4c0.2,0.2,0.4,0.4,0.4,0.6c0.1,0.3,0.2,0.5,0.3,0.8c0,0,0,0,0.1,0c0-0.5,0-1.2,0-1.7c0,0,0,0-0.1-0.1
				c0-0.1,0-0.3,0-0.4s0-0.3,0-0.4s0-0.1,0-0.2c0-0.2,0-0.4,0-0.4c0-0.2,0-0.4,0-0.6s-0.2-0.4-0.2-0.6c-0.1-0.4-0.4-0.6-0.5-0.9
				c-0.1-0.1-0.2-0.2-0.4-0.3c-0.3-0.1-0.6,0.1-0.7,0.4c-0.2,0.4-0.4,0.7-0.5,1.1c-0.2,0.4-0.3,0.6-0.4,1c-0.1,0.4-0.2,0.9-0.3,1.2
				c0,0.3-0.1,0.4-0.1,0.7s0,0.8,0,0.8c0,0.1,0,0.1,0,0.2c0,0.2,0.3,2.2,0.4,2.4c0.1,0.3,0.8,1.7,0.9,1.8c0.2,0.2,0.4,0.3,0.7,0.3
				s0.6-0.3,0.6-0.4C36.2,28.3,36.3,27.9,36.4,27.6z"/>
		</g>
	</g>
</g>
</svg>
