<?xml version="1.0" encoding="utf-8"?>
<!-- Generator: Adobe Illustrator 19.2.1, SVG Export Plug-In . SVG Version: 6.00 Build 0)  -->
<svg version="1.1" id="Layer_1" xmlns="http://www.w3.org/2000/svg" xmlns:xlink="http://www.w3.org/1999/xlink" x="0px" y="0px"
	 viewBox="0 0 89.5 56.5" style="enable-background:new 0 0 89.5 56.5;" xml:space="preserve">
<style type="text/css">
	.st0{fill:#565A5C;stroke:#565A5C;stroke-width:0.25;stroke-miterlimit:10;}
</style>
<path class="st0" d="M13.4,3.3C13.5,3,13.7,2.9,14,2.8c0.2-0.1,0.6,0.1,0.7,0.3c0.1,0.2,0.3,0.3,0.5,0.2c1.1-0.1,2.2-0.1,3.3-0.2
	c0.2,0,0.4,0,0.7,0c0.1,0,0.2,0,0.3-0.1c0.1-0.2,0.3-0.3,0.5-0.3c0.4,0,0.6,0.2,0.7,0.6v0.1c0.5,0,1,0,1.6,0c0.7,0,1.4,0,2.2,0
	c0.1,0,0.4-0.4,0.5-0.6c0.2-0.1,0.6-0.1,0.7,0s0.4,0.5,0.4,0.6c0.2,0,0.5,0.1,0.7,0.1c0.4,0,0.8,0,1.3,0c0.7,0,1.4,0,2,0
	c0.1,0,0.1,0,0.2-0.1C30.5,3.3,30.8,3.1,31,3s0.5,0,0.7,0.3c0.1,0.1,0.2,0.1,0.3,0.1c1.1,0,2.2,0,3.4,0c0.3,0,1.2,0,1.3,0
	c0.7,0.1,0.8-0.3,1-0.4c0,0,0.7,0,0.7,0.3c0.2,0,0.3,0,0.5,0c1.3,0.1,2.7,0,4,0c0.1,0,0.2-0.1,0.2-0.1c0.1,0,0.1-0.1,0.2-0.2
	c0.2,0,0.4,0,0.7,0h0.1c0.3,0,0.4,0.1,0.5,0.4c0,0.1,0.2,0.1,0.3,0.1c0.3,0,3.9-0.1,4.6-0.1c0.1,0,0.9-0.4,1.3-0.2
	c0.1,0.1,0.6,0.4,0.7,0.4c0.4,0,0.9,0,1.3,0c0.9,0,1.9-0.1,2.8-0.1c0.2,0,0.3,0,0.4-0.2C56.2,3,56.6,3,56.9,3c0.2,0,0.4,0.4,0.5,0.4
	c0.1,0.1,0.2,0.2,0.4,0.2c0.8,0,1.5,0,2.3,0c0.7,0,1.4,0,2.1,0c0.2,0,0.3,0,0.4-0.2c0.2-0.2,0.5-0.3,0.8-0.3c0.1,0,0.2,0.1,0.2,0.2
	c0.1,0.2,0.3,0.2,0.5,0.2c1.2,0,2.4,0,3.6,0c0.4,0,0.7-0.1,1-0.3C69,3,69.4,3,69.8,3s0.5,0.2,0.6,0.5c1.8-0.1,3.7-0.1,5.5-0.2
	c0.1,0,0.2,0,0.4,0h0.1c0.1-0.1,0.2-0.1,0.3-0.2c0.4-0.3,1.1-0.2,1.4,0.3c0,0,0,0,0,0.1c0.7,0,1.4-0.1,2.1-0.1c0.8,0,1.5,0,2.3-0.1
	c0.6,0,1.3,0,1.9-0.1c0.1,0,0.1,0,0.2-0.1c0.3-0.4,0.7-0.4,1.2-0.3c0.2,0,0.4,0.2,0.4,0.4c0,0.1,0,0.2,0.1,0.4c0,0.2,0,0.4-0.1,0.5
	C86,4.3,86,4.5,86,4.7c0.1,2.3,0.1,4.6,0.2,6.9c0,0.2,0,0.4,0.1,0.6c0.2,0.5,0.1,1-0.1,1.4C86,13.8,86,14,86,14.1s0,0.2,0,0.3
	c0.1,0.8,0.1,1.6,0.2,2.4c0.1,0.7,0.1,1.5,0.2,2.2c0,0.2,0,0.5,0,0.7c0,0.1,0,0.2,0.1,0.2c0.1,0.1,0.3,0.6,0.3,0.6
	c-0.1,0.2-0.1,0.4-0.1,0.6c0.1,0.6,0.2,3.6,0.2,4.4c0.1,1.1,0.1,3.2,0.2,4.4c0,0.3,0.2,1.5-0.2,1.5C86.2,32,85.7,31,85.6,31
	c-0.5,0-3.7,0.1-4.1,0.1c-0.3,0-0.6,0-0.9,0s-0.6,0-0.9,0c-0.1,0-0.2,0-0.4,0c-0.2,0.1-0.2,0.2-0.6,0.2c-0.1,0-6.4-0.3-6.5-0.3
	c-0.2,0.1-0.4,0.1-0.6,0.2c-0.1,0-0.2,0-0.4,0c-0.2,0-0.3-0.1-0.5-0.1c-0.1,0-0.2,0-0.3,0c-0.2,0-0.3,0-0.5,0c-0.6,0-1.1,0-1.7,0
	c-0.4,0-0.7,0-1.1,0c-0.7,0-1.4,0-2.1,0c-0.1,0-0.1,0-0.2,0s-0.1,0.1-0.2,0h-0.1c-0.3,0.1-0.6,0-0.9,0c-0.6,0-3.4-0.1-4.2,0
	c-0.4,0-0.6,0-1,0.1c-0.2,0.1-0.1,0.2-0.6,0.2c-0.2,0-0.3-0.2-1-0.2c-0.4,0-2.1,0.1-2.4,0.1c-0.6,0-2.5,0.2-2.8,0.2s-0.6,0-0.9-0.2
	h-0.1c-0.5,0-5.1,0.1-5.1,0.1c-0.1,0.2-0.3,0.2-0.5,0.2c-0.4,0-0.7,0-1.1,0c-0.5,0-6.7,0-7.1,0c-0.3,0-1.8-0.1-3.5-0.1
	c-2.2,0-4.7,0-4.9,0.2c-0.4,0.3-0.7,0.4-1.7-0.1c-0.3-0.1-4.6-0.4-5.1-0.2c-1,0.5-0.8-0.2-1.6-0.2c-1,0-2.6,0-3.6,0.1
	c-0.1,0-0.3,0.7-1,0.4c-0.2-0.1-0.3-0.3-0.5-0.3c-0.7,0-3.4-0.3-4-0.2c-0.2,0,0,0-0.3,0.3c-0.3,0.2-0.8-0.1-0.9-0.1
	c-1.1,0-4.5,0.1-5,0.1c-0.2,0-0.6,0.4-1.1,0.1c-0.3-0.2-0.2-0.6-0.2-0.9c0-0.1,0.1-0.2,0.1-0.2c-0.1-0.1-0.1-0.3-0.1-0.4
	c0-0.5-0.2-1.1-0.2-1.6c0-1.5,0-2.7,0.1-4.3c0-0.4,0-0.7,0-1.1c0-0.1-0.1-0.3-0.1-0.4C3,22.2,3,21.9,3.1,21.6c0-0.1,0-0.2,0-0.3
	c0-1-0.1-2-0.1-2.9c-0.1-1-0.1-2-0.2-3.1c0-0.3,0-0.6,0-0.9c-0.3-0.2-0.4-0.4-0.4-0.8c0-0.1,0.1-0.2,0.1-0.2c0.1-0.3,0-0.7,0-0.8
	c-0.1-2-0.3-4.1-0.4-6.1C2.1,6,2,4.6,2,4.1C2,4,2,3.9,1.9,3.8c0-0.1-0.2-0.8,0.5-1c0.2,0,0.5,0,0.7,0.1h0.2C4,3,7.9,3,7.9,3
	s0-0.2,0.4-0.2C8.7,2.8,8.9,3,9,3.3C9.1,3.3,12.3,3.2,13.4,3.3c0.2,0,0.1,0.2,0.1,0.3C13,3.6,9,3.7,8.8,3.7C9,3.4,9,3.1,8.6,3
	S8.1,3.3,8.2,3.5c0,0,0.1,0.3,0.2,0.3c-0.1,0.1,0,0.2,0,0.4c0,0.4,0.1,3.6,0.2,4.6c0,0.7,0.3,2.8,0.4,3.3c0,0.4,0.1,0.7,0.1,1
	c-0.1,0.1-0.3,0.1-0.3,0.2c-0.2,0.2-0.3,0.6-0.1,0.8c0.2,0.1,0.4,0.2,0.5,0.4c0,1.2,0,2.4,0.1,3.6c0,1,0.1,2,0.2,3.1
	c0,0.1,0,0.1,0,0.2c-0.1,0.2-0.2,0.3-0.4,0.2c-0.1,0-0.3,0-0.3,0c-0.1-0.3-4.1-0.1-4.2-0.2c-0.2-0.1-0.8-0.2-0.9,0.1
	c-0.1,0.2,0.2,0.8,0.5,0.7c0,0,0.3,0,0.3-0.1s3.3,0.1,3.9,0.1c0.3,0,0.7,0.6,0.8,0.6c0.2,0,0.2,0.2,0.2,0.4s0,0.5,0,0.7
	c0.1,1.2,0.2,2.3,0.2,3.5c0,0.1,0,0.2,0,0.3c0.1,0,0.2,0,0.2-0.1s0-0.3,0-0.4c-0.1-1.4-0.2-2.8-0.2-4.2c0-0.1,0-0.2,0.1-0.3
	c0.1-0.2,0-0.4,0.1-0.5c0,0,0.5,0,0.7,0c1-0.1,3.6,0,3.7-0.2c0-0.1-0.1-0.2,0-0.3c-0.4,0-0.8,0-1.1,0c-0.5,0-1.1,0-1.6,0
	c-0.4,0-0.8,0-1.3,0c-0.1,0-0.2,0-0.3-0.1c-0.1-0.2-0.2-0.3-0.4-0.2c0-0.1,0-0.2,0-0.3c-0.1-1.6-0.2-3.1-0.2-4.7
	c0-0.6-0.1-1.2-0.1-1.8c0-0.1,0.1-0.4,0.2-0.4c0.1-0.3,0.3-0.6,0.1-0.8C9.4,13.2,9,13.2,9,12.9c0-0.7,0-1.6-0.1-2.3
	c-0.1-1.1-0.2-1.9-0.2-3c-0.1-1-0.1-1.9-0.2-2.9c0-0.1-0.2-0.5-0.1-0.5c1.4,0,3.5-0.2,5,0.1C13.6,4.4,13.6,3.4,13.4,3.3z M57.9,20.9
	c0,0.2,0.2,0.1,0.3,0.1c1.8,0,3.6,0,5.4-0.1c0.2,0,0.4,0,0.7,0c-0.1-0.2-0.1-0.3-0.2-0.4c-0.2,0-0.4,0-0.5,0s-2.7,0.1-3.3,0.1
	s-1.3,0-1.9,0C58.3,20.7,58.1,20.7,57.9,20.9c0-0.1,0-0.3-0.2-0.3c-0.1-0.1-0.2-0.1-0.2-0.3c0-0.3,0-0.6-0.1-0.9c0-0.7,0-1.3-0.1-2
	c0-0.1,0-0.2,0-0.3c-0.2,0-0.3,0-0.4,0c0,0.4,0,0.7,0,1c0,0.7,0.1,1.4,0.1,2.2c0,0.1,0.1,0.3,0.1,0.4c0,0.3,0,0.7,0,1
	c0,0.5,0,1.1,0,1.6c0,0.4,0.2,6.4,0.2,7.1c0,0.1,0,0-0.1,0.1c-0.1,0.2,0.1,0.5,0.2,0.6c0.2,0.1,0.5,0,0.5,0c0.2-0.1,0.3-0.6,0-0.7
	s-0.4,0.1-0.4,0c0-0.4-0.1-0.8-0.1-1.2c-0.1-2.2-0.1-5.4-0.2-7.6c0-0.1,0-0.2,0-0.3s0-0.2,0.1-0.2C57.8,21.1,57.8,21,57.9,20.9z
	 M60.1,17.4c-0.1,0.1-0.1,0.1-0.2,0.2c-0.7,0.8-1.4,1.5-2.1,2.3c-0.1,0.1-0.2,0.3-0.1,0.5c0.1-0.1,2.8-0.1,3.9-0.1c0.5,0,2,0,2.1,0
	C63.6,20.1,60.5,17.7,60.1,17.4z M78.5,21c0.1,0,0.1,0,0.2,0s0.2,0.1,0.3,0.1c0.9,0,1.8,0,2.7,0c0.5,0,2.9-0.2,3.6-0.2
	c0.1,0,0.2,0.5,0.4,0.5c0.1,0,0.2,0,0.2,0.1c0,0.2,0.3,8.6,0.3,8.7c0.2,0,0.3,0.1,0.4,0.1c0-0.5-0.2-5.3-0.1-6
	c0-0.5-0.3-3.3-0.2-3.4s0.2-0.3,0.2-0.3c0-0.4-0.3-0.3-0.5-0.4c0-0.1,0.1-0.2,0-0.4c0-0.2,0-0.4,0-0.7c-0.1-1.7-0.2-3.5-0.4-5.2
	c0-0.1,0-0.2,0.1-0.3c0.2-0.2,0.3-0.6,0.2-0.9c0-0.3-0.1-0.4-0.4-0.5c-0.2-0.1-0.6,0.2-0.7,0.2c0,0.1-6.3,0.6-6.4,0.6
	c0,0.2,0,0.3-0.1,0.5c0.2,0,0.4,0,0.5,0c1.7-0.1,3.4-0.2,5.1-0.3c0.3,0,0.5,0,0.8-0.1c0,0.3,0.2,0.5,0.5,0.5
	c0.1,2.1,0.2,4.1,0.3,6.2c0.1,0.1,0.3,0.1,0.3,0.3c-0.1,0-0.2-0.1-0.3,0.1c0.1,0.2,0,0.1-0.2,0c0,0.1-0.1,0.1-0.1,0.2
	s-0.1,0.2-0.2,0.2c-0.3,0-0.6,0.1-0.9,0.1c-1.2,0-2.4,0-3.5,0c-0.5,0-1,0-1.5,0C79,20.7,78.7,20.7,78.5,21c-0.1,0.1-0.2,0.2-0.2,0.4
	s0,0.4,0,0.5c0,0.4,0.1,0.7,0.1,1.1c0,0.5,0,1,0,1.6c0,0.5,0,1,0,1.6c0,0.7,0,2.5,0,3.2c0,0.2,0.1,0.8,0.1,0.8
	c-0.2,0.1-0.2,0.3-0.2,0.4v-0.1c0,0-0.6,0-0.7,0c-0.7,0-1.4-0.1-2-0.1c-0.7,0-1.4,0-2.2,0c-0.1,0-0.2,0-0.3,0c-0.3,0-0.6,0-0.9,0
	c-0.2,0-0.4,0-0.5-0.1c0-0.3,0-0.6,0-0.8c0-0.1,0-0.2,0-0.3c-0.1-2.2-0.1-5.4-0.1-7.6c0-0.2,0-0.3-0.2-0.4c0,0-0.4,0.3-0.4,0.5
	c0,0.6,0,1.1,0,1.7c0,1.6,0,4.3,0,5.9c0,0.4,0,0.8-0.1,1.2c-0.4,0-4.9,0.1-5.8,0.1c-0.2,0-0.4,0.3-0.4,0.3c0.1,0,0.1,0,0.2,0
	c0.3,0,5.8-0.1,5.9-0.2c0.2-0.1,0.2-0.1,0.3,0.1c0.1,0.2,0.2,0.2,0.3,0.2c0.2,0,0.3-0.1,0.3-0.2c0-0.2,6.9,0.4,6.9,0.4
	c0.3,0.1,0.4,0,0.7-0.2c0.1-0.2,0.3-0.5-0.4-0.8c0,0-0.3-4.2-0.3-4.8s0-1.2,0-1.8c0-0.2,0-0.4,0-0.7c0-0.2,0-0.4,0-0.6
	C78.6,21.8,78.5,21.4,78.5,21z M85.6,21.7c-0.1,0.1-0.1,0.2-0.2,0.3c-0.3,0.4-0.7,0.8-1,1.2c-0.6,0.7-1.1,1.4-1.7,2.1l-0.1,0.1
	c-0.1,0.1-0.1,0.2,0,0.3c0.2,0.2,2.2,3.5,3.1,4.5c0.1,0.1,0.3-0.2,0.3-0.4s0-0.3,0-0.5c0-0.4,0-3.6-0.1-4.3
	C85.9,24.7,85.7,21.7,85.6,21.7z M78,21.3c-0.1-0.2-0.2-0.2-0.4-0.2c-0.2,0-5.7,0.1-6,0.1c-0.1,0.2,2.3,2.9,3.3,4.1
	c0,0.1,0,0.1,0,0.2C76,23.9,77,22.6,78,21.3z M78.9,21.3c1.2,1.4,2.4,2.7,3.6,4.1c1-1.3,2-2.6,3-3.9c0,0-0.4-0.4-0.7-0.4
	c-0.3,0-3.7,0.2-5.1,0.2C79.4,21.3,79.1,21.3,78.9,21.3z M79.3,30.4c1-1.3,2-3.5,3-4.8l-0.1-0.1c-0.5-0.5-3.3-3.9-3.5-4
	c0,0.1,0,0.2,0,0.3c0,0.5,0.1,1,0.1,1.5c0.1,1.9,0.2,4.8,0.2,6.7C79.1,30.1,79.2,30.1,79.3,30.4z M50.3,12.3
	c-1.1-1.4-2.1-2.7-3.1-4.1c-0.1,0.1-0.1,0.1-0.2,0.2c-0.3,0.3-0.6,0.7-0.9,1c-0.5,0.5-0.9,1.1-1.3,1.6c0,0.1-0.1,0.1-0.1,0.2
	c0,0.4,0,0.8,0,1.2C46.6,12.4,48.4,12.3,50.3,12.3z M63.8,13.4L63.8,13.4c-1.2,1.2-2.3,2.5-3.5,3.7c0.2,0.2,2.9,2.6,3.5,3
	c0.1,0.1,0.1,0.2,0.3,0.1C64,18,63.9,15.7,63.8,13.4z M64.9,30.3c0.3,0.1,0.4,0,0.6-0.2c0.8-1.3,2.4-4.9,2.5-5c-1-1.2-2-2.4-3-3.6
	v0.1c0,0.7,0,1.4,0,2.1c0,0.4,0,0.8,0,1.2c0,0.9-0.1,1.8-0.1,2.7c0,0.3,0,1.6,0,2C64.9,29.8,64.9,30,64.9,30.3z M48,25.3
	c-0.1,0.1-2.3,3.1-2.7,3.7c-0.1,0.1-0.1,1.4,0,1.4c0.2,0,0.7,0,0.9,0c1.5,0,2.9,0,4.4,0c0.1,0,0.1,0,0.2,0c0-0.1,0-0.2,0-0.3
	c0-0.2,0-0.4-0.2-0.6C49.8,28.6,48.1,25.5,48,25.3z M45.1,21.2c0,0.1,0,0.2,0,0.2c0,0.2,2.8,3.6,2.9,3.7c0.9-1.2,1.8-2.4,2.6-3.6
	c-0.1-0.1-0.1-0.1-0.1-0.2c-0.4,0-0.8,0-1.1,0c-0.9,0-4,0.2-4.1,0c0.1,0,0.2-0.1,0.3-0.1c0.4,0,3.7-0.2,4.5-0.2c0.1,0,0.1,0,0.2,0
	c0.1,0,0.2,0,0.3,0c0-0.1,0-0.2,0-0.4c-1.7,0-3.3,0.1-5,0.1C45.4,20.9,45.3,21.1,45.1,21.2z M64.1,21.2c-0.6,0.9-1.6,2.1-2.2,3
	c-0.3,0.4-0.6,0.8-0.9,1.2c0.5,0.6,2.5,4,3,4.6c0-0.1,0.1-0.2,0.1-0.3C64.1,28.3,64.2,21,64.1,21.2z M71.6,21.8c0,0.1,0,0.2,0,0.2
	c0.1,2.2,0.1,5.4,0.2,7.6c0,0.1,0,0.3,0,0.4v0.1c0.1,0,0.1,0,0.2,0L71.8,30c0.3-0.4,2.8-4.3,3.1-4.7c-0.1-0.1-0.2-0.2-0.3-0.3
	c-0.6-0.7-1.2-1.4-1.8-2.1c-0.3-0.4-0.7-0.8-1.1-1.2C71.6,21.8,71.6,21.8,71.6,21.8z M85.7,30.4c-1.1-1.2-2.2-3.4-3.3-4.6
	c0,0.1-0.1,0.1-0.1,0.1c-0.8,1.1-1.7,3.2-2.5,4.3c-0.1,0.1-0.1,0.2,0,0.4c2,0,3.9,0,5.9,0C85.6,30.5,85.7,30.5,85.7,30.4z
	 M85.2,20.2c0.1-0.2,0.1-0.2,0-0.3c0.2,0.1-2.3-2.2-3.2-3.1c0,0,0,0.1-0.1,0.1c0,0-1.4,1.6-1.5,1.7c-0.5,0.6-0.9,1.1-1.5,1.6
	c-0.1,0.1-0.1,0.1-0.2,0.2c0,0-0.1,0.1,0,0.2l0.1,0.1c0.1,0,0.2-0.1,0.3-0.1c0.2-0.1,3.9-0.1,5.5-0.1C85.1,20.2,84.9,20.2,85.2,20.2
	z M70.6,30.3C70.6,30.2,70.7,30.2,70.6,30.3c0.3-1.1-2.4-5-2.5-5.1c-0.9,1.4-1.7,3.7-2.6,5.1C67.2,30.3,68.9,30.3,70.6,30.3z
	 M4.2,22.5c0,0.1,0,0.2,0,0.3c0,0.3,0,0.6,0,0.9c0,1.4,0.1,2.7,0.1,4.1c0,0.7,0.1,1.4,0.2,2.1c0,0.1,0,0.2,0.1,0.3
	c0,0,0.1,0.1,0.1,0.2c0.8-1.5,1.6-3,2.4-4.5C6.9,25.6,4.4,22.7,4.2,22.5z M77.3,13.5c-1,1.1-2.1,2.1-3.1,3.2
	c0.1,0.1,0.1,0.1,0.2,0.2c0.3,0.3,2.5,2.5,3.2,3.2c0.1,0.1,0.1,0.1,0.2,0.1c0-0.1,0-0.1,0-0.2c-0.1-1.6-0.1-6.1-0.2-6.2
	C77.4,13.9,77.4,13.6,77.3,13.5z M78.6,20.2c0.1-0.1,0.2-0.2,0.2-0.2c0.1-0.1,0.2-0.2,0.3-0.3c0.3-0.4,2.2-2.3,2.5-2.7l0.2-0.3
	c-1-1-2-1.9-3-2.8c-0.1-0.1-0.3-0.2-0.4-0.1c0,0-0.1,0.1-0.1,0.2c0,0.1,0,0.2,0,0.2c0,0.2,0,0.5,0,0.7c0,1.3,0.1,2.6,0.1,3.9
	c0,0.5,0,0.9,0,1.4C78.5,20.1,78.6,20.1,78.6,20.2z M81.6,9c-0.1-0.1-1-1-1.5-1.4c-0.5-0.5-1-0.9-1.5-1.4C78.4,6,78.3,6,78.1,6.1
	c0.1,2.2,0.2,4.4,0.4,6.6C79.7,11.5,80.5,10.1,81.6,9z M56.6,12.3c0-0.2,0-0.4-0.1-0.5c-0.9-1.1-1.7-2.2-2.6-3.3
	c0-0.1-0.1-0.1-0.2-0.2c-0.9,1.2-1.7,2.5-2.5,3.7c0.1,0.1,0.1,0.2,0.2,0.3C53.1,12.3,54.8,12.3,56.6,12.3z M70.4,20.8
	c-0.1,0-3.4,0.1-4.5,0.2c-0.3,0-0.6,0.1-1,0.1c0.5,0.7,1.1,1.3,1.6,1.9s1,1.3,1.6,1.9c0.1-0.1,1.7-2.5,2.3-3.7
	C70.5,21,70.5,20.9,70.4,20.8z M78,21.7c-0.4,0.6-2.7,3.5-2.9,3.8c0.1,0.1,1.1,1.7,1.8,2.6c1,1.5,1,1.6,1.4,2c0,0.1-0.1,0.1,0,0
	C78.3,29.9,78,21.7,78,21.7z M43.3,3.8c-0.2,0-0.3,0.1-0.4,0.1c-0.6,0-1.2,0-1.7,0c-0.7,0-2.5,0-2.7,0.1c0,0.1,0,0.2,0,0.3
	c0.1,0.1,0.2,0.2,0.2,0.3c0.8,1.1,1.6,2.3,2.5,3.4c0.1,0.1,0.1,0.1,0.2,0.2c0-0.1,0.1-0.1,0.1-0.1c0.5-0.8,2-3.4,2.2-3.6
	c-0.1-0.1-0.1-0.3-0.1-0.3c-1.5,0-5.1,0.4-5.1,0.1c1.4-0.1,3.6-0.1,5-0.2C43.3,3.9,43.3,3.8,43.3,3.8z M56.9,21.3
	c-1.9,0-3.7,0-5.5,0.1c-0.1,0.3,0.1,0.4,0.2,0.6c0.9,1.1,1.8,2.1,2.7,3.2c0,0,0.1,0.1,0.2,0.2C55,24,56,22.7,56.9,21.3z M85,5.1
	c-0.1,0.1-3.1,3.7-3.1,3.8c0.5,0.5,3.1,3,3.3,3.1l0.1-0.1C85.2,9.8,85,7.4,85,5.1z M58.2,30.3c0.2,0.2,2.2,0.1,2.9,0.1
	s1.5-0.1,2.2-0.1c0.2,0,0.3-0.1,0.5-0.2c-0.3-0.3-2.8-4.3-3-4.5C59.9,26.9,59,29.1,58.2,30.3z M63.7,21.3c-0.3,0-0.5,0-0.7,0
	c-0.3,0-0.5,0-0.8,0c-0.9,0-1.7,0-2.6,0c-0.6,0-1.1,0.1-1.7,0c0.1,0.1,0.1,0.1,0.2,0.2c0.2,0.2,0.3,0.4,0.5,0.6
	c0.7,0.9,1.5,1.8,2.2,2.7c0.1,0.1,0.1,0.1,0.2,0.2C61.9,23.9,62.8,22.6,63.7,21.3z M35.9,25.7c0.9,1.2,2.8,4.5,2.8,4.3s0-1.4,0-1.5
	c0-0.4,0-0.8,0-1.3s0-1,0-1.6c0-1.3,0-2.6,0-3.9v-0.1C38.6,21.6,36.7,24.3,35.9,25.7z M20,12.8c-0.1,0.1-0.1,0.1-0.2,0.2
	c-0.1,0.1-0.2,0.2-0.2,0.4c0,0.1,0.4,0.6,0.4,0.8c0.1,2.2,0.1,4.4,0.2,6.6c0,0.1,0,0.2,0,0.3c0.2-0.2,0.5-0.2,0.7-0.2
	c0-0.7-0.2-6.7-0.3-6.9c-0.1,0.1-0.3,0.2-0.4,0.2c-0.1-0.2,0-0.2,0.1-0.3c0.4-0.2,0.5-0.7,0.2-1c0,0,0-0.1-0.1-0.1
	c0.2-0.1,0.2-0.3,0.2-0.5c0-1.4-0.1-2.9-0.1-4.3c0-1-0.1-2.1-0.1-3.1c0-0.1,0-0.2-0.1-0.3c-0.2,0.1-0.4,0.1-0.5,0.2
	c0,0.1,0,0.2,0,0.3c0,1.2,0.1,2.4,0.1,3.6c0,0.6,0,1.2,0,1.7s0,1,0,1.5C20,12.2,19.9,12.5,20,12.8z M29.4,26.2
	c-0.2,0.2-0.4,0.2-0.6,0.2c-0.3,0-0.7,0-1,0c-0.1,0-0.2,0-0.3,0c0,0.1,0.1,4.1,0.5,4.1c1.3,0,4.8-0.1,4.8-0.1
	C32.5,30.3,29.9,26.7,29.4,26.2z M3.5,13.3c0.2,0.2,1.2,0.1,1.4,0.1c1.1,0,2.1-0.2,3.2-0.1c0.2,0,0.3-0.1,0.2-0.3
	c0-0.1-1.7-2.7-2.6-3.9c0,0-1.1,1.8-1.5,2.6c-0.2,0.4-0.4,0.8-0.6,1.2C3.7,13.1,3.7,13.3,3.5,13.3z M78.1,30.3
	C77.1,29,76,27,75,25.5c-0.2,0.2-2.7,4.5-2.7,4.7c0.1,0,0.2,0,0.4,0c0.5,0,1,0,1.5,0c0.4,0,0.9,0,1.3,0c0.3,0,0.6,0,0.8,0
	C76.9,30.3,77.5,30.3,78.1,30.3z M57.1,30.6c0-0.2,0-0.3,0-0.5s-2.6-4.6-2.7-4.7c-0.8,1.2-1.6,3.6-2.3,4.9c0.1,0.1,0.2,0.2,0.3,0.2
	C53.9,30.6,55.5,30.6,57.1,30.6z M57,20.5c0-0.1-0.1-0.1-0.1-0.2c-0.2-0.3-0.4-0.5-0.6-0.8c-0.6-0.8-1.2-1.5-1.9-2.3
	c-0.1-0.1-0.1-0.1-0.2-0.1c-0.2,0-0.4,0-0.6,0.2c-0.6,0.9-1.3,1.9-1.9,2.8c-0.1,0.2-0.2,0.3-0.3,0.5C51.6,20.6,56.6,20.6,57,20.5z
	 M38,12L38,12c0-2.5-0.1-5.3-0.2-7.8c-1,1.3-1.8,2.8-2.7,4.1C36,9.5,37,10.8,38,12z M51.4,22L51.4,22c-0.1,0.1-0.1,0.3-0.1,0.4
	c0,1.2,0.1,2.3,0.1,3.5c0,0.2,0.2,2.7,0.2,3.3c0,0.2,0,0.3,0,0.5s0,0.4,0.4,0.4c0.7-1.2,1.5-3.5,2.2-4.7
	C53.3,24.3,52.4,23.1,51.4,22z M78.7,12.7c0.2,0,0.4,0,0.5,0c1-0.1,2-0.1,3.1-0.2c0.5,0,1.1-0.1,1.6-0.1c0.3,0,0.5,0,0.8,0
	c0-0.1,0-0.2,0.1-0.2c-1.1-1-2.1-2-3.2-3C80.5,10.6,79,12.5,78.7,12.7z M57.7,21.8c0.1,2.5,0.2,5.9,0.3,8.4c0,0,0,0,0.1,0
	c0.1-0.2,2.5-4.5,2.7-4.8c-0.4-0.6-2.1-2.8-2.6-3.4C58,21.8,57.9,21.7,57.7,21.8z M73.9,16.9c-0.2,0.2-2.3,2.4-2.6,2.8
	c-0.1,0.1,0.2,0.5,0.2,0.6c0.2,0,0.5,0,0.7,0c0.4,0,4.7-0.1,5.1-0.1c0,0,0,0,0-0.1c-0.1,0-1.2-1-1.6-1.4S75,18,74.6,17.6
	C74.5,17.5,74.2,17.2,73.9,16.9z M27.6,30.7c-0.2-1.2,0-3-0.3-4.2c-0.1,0-0.2,0-0.4,0c0,0.2,0.2,4.8,0.2,4c0-0.3,0-0.3,0-0.2
	c-0.2,0.1-4.6-0.3-5.5-0.2c-0.2,0-0.3-0.1-0.3-0.3v-0.1c0-0.1,0-0.2,0-0.3c0-0.8-0.1-1.6-0.1-2.5c0-0.1,0-0.2,0-0.3
	c-0.2,0-0.5,0-0.7,0c0,0.1,0,0.1,0,0.1c0,0.8,0,1.6,0.1,2.3c0,0.2,0.1,0.5,0.2,0.7c0,0-0.3,0.1-0.3,0.2c-0.2,1.2,0.8,0.8,1,0.8
	c0.3,0,5.3,0.1,5.7,0.6c0.4,0.4,0.8-0.2,1.8-0.2c1.8,0,4.2,0,4.4-0.1c0.1-0.1,5.3,0.1,5.5,0.1c-0.3-0.1-0.1-0.5-0.5-0.5
	c-0.9,0-2,0-2.9,0c-0.5,0-0.9,0-1.4,0c-0.1,0-0.3,0-0.4,0c-0.1,0.3-0.3,0.6-0.6,0.6c-0.2,0-0.4-0.3-0.5-0.5
	C31.9,30.7,28.5,30.5,27.6,30.7z M44.7,4.3c0,0.2,0,0.3,0.1,0.4C45,5,45.2,5.3,45.5,5.6C46,6.3,46.6,7,47.1,7.7v0.1
	c1-1.1,2-2.2,2.9-3.3c-0.1-0.3-0.2-0.3-0.5-0.3h-0.1c-1.5,0-3,0-4.5,0.1C44.8,4.3,44.8,4.3,44.7,4.3z M42.2,25.6
	c-0.8,1.3-1.6,3.6-2.4,5c0.1,0,0.2,0,0.3,0c1.3,0,2.6,0,3.9,0h0.3c0.1-0.1,0-0.2,0-0.4C44.3,30,42.3,25.8,42.2,25.6z M32.1,11.9
	C32.1,11.9,32.2,11.9,32.1,11.9c0.9-1.2,1.8-2.4,2.6-3.6c-0.2-0.2-0.3-0.4-0.5-0.6s-0.3-0.4-0.5-0.6s-0.3-0.4-0.5-0.6
	s-0.3-0.4-0.5-0.6s-0.3-0.4-0.5-0.6s-0.3-0.4-0.5-0.6l0,0C31.9,7.1,32,9.5,32.1,11.9z M50.1,4.7c-1,1.1-1.9,2.2-2.8,3.4
	c1,1.3,2,2.6,3,3.8c0-0.3,0-0.7,0-1s0-0.7,0-1c0-0.9,0-1.9,0-2.8C50.2,6.3,50.1,5.5,50.1,4.7z M77.2,13.4c-2.1,0-4.2,0-6.3-0.1
	c1.1,1.1,2.1,2.2,3.2,3.3C75.2,15.5,76.2,14.4,77.2,13.4z M32.3,12.1c1,0,1.9,0,2.8,0c0.9,0,1.8,0,2.8,0c-1-1.3-2-2.5-3-3.7
	C34,9.7,33.2,10.9,32.3,12.1z M20,21.9L20,21.9c0,0.1-0.1,0.1-0.2,0.1c-0.4,0-0.8,0.1-1.2,0.1c-1,0.1-1.9,0.1-2.9,0.2
	c-0.1,0-0.1,0-0.2,0c0,0.3,0,0.4,0.2,0.6c0.5,0.8,1.1,1.5,1.6,2.3c0,0.1,0.1,0.1,0.2,0.2c0.4-0.3,0.8-0.5,1.1-0.8
	c0.1,0,0.1-0.1,0.1-0.2c0.4-0.8,0.8-1.6,1.2-2.4c0.1-0.2,0.1-0.4,0-0.6c-1.5,0.1-3.1,0.2-4.6,0.2c0,0.1,0,0.2-0.1,0.3h0.1
	c1.4,0,2.7-0.1,4.1-0.1C19.7,21.8,19.8,21.8,20,21.9z M85.3,19.9C85.3,19.9,85.4,19.9,85.3,19.9c0.1-0.2-0.3-5.5-0.3-5.6
	s0-0.2,0-0.2c0.1-0.2,0.1-0.2-0.1-0.3c-0.1,0.1-0.3,0.2-0.4,0.3c-0.3,0.3-0.6,0.6-0.8,0.9c-0.4,0.4-0.8,0.9-1.2,1.3
	c-0.2,0.2-0.4,0.4-0.5,0.6C82.6,17.5,85.1,19.9,85.3,19.9z M19.3,4.6c0,0.1-1.3,2.5-1.9,3.6c-0.1,0.2-0.1,0.3,0,0.4
	c0.8,1.2,1.5,2.4,2.3,3.6c0,0,0.1,0.1,0.1,0.2c0-0.1,0-0.2,0-0.3c-0.1-2.1-0.1-4.2-0.2-6.3c0-0.3-0.1-0.6-0.1-0.9
	C19.6,4.8,19.5,4.7,19.3,4.6z M65,20c0.1,0,0.2,0,0.4,0c0.4,0,0.7,0,1.1,0c0.9,0,1.8-0.1,2.8-0.1c0.4,0,0.8-0.1,1.1,0h0.1
	c-1-1.1-2-2.3-3.1-3.4c-0.3,0.4-0.7,0.8-1,1.3c-0.4,0.5-0.8,1-1.2,1.5c-0.1,0.1-0.2,0.3-0.2,0.5C65,19.8,65,19.9,65,20z M17.2,8.7
	c-0.8,1.5-1.5,2.9-2.3,4.3c0.5,0,1,0,1.4,0c1.1-0.1,2.2-0.1,3.4-0.2C18.9,11.4,18,10.1,17.2,8.7z M37.5,4.5c-0.1,0-0.2,0-0.3,0
	c-1,0-1.9,0-2.9,0c-0.5,0-1.1-0.1-1.6,0c0,0-0.1,0-0.2,0c-0.2,0-0.3,0-0.5-0.1c0,0,0,0,0,0.1c1,1.2,1.9,2.4,2.9,3.7
	C35.8,6.9,36.6,5.7,37.5,4.5z M60.3,8C60.3,7.9,60.2,7.9,60.3,8c-0.8-0.8-1.5-1.6-2.2-2.3c-0.2-0.2-0.4-0.4-0.7-0.6
	c0,0.1,0,0.1,0,0.1c0,0.5,0,1,0,1.5c0.1,0.9,0.1,1.8,0.1,2.7c0,0.7,0,1.4,0,2.1c0,0.2,0,0.4-0.1,0.5c0,0.1,0,0.1,0.1,0.2
	C58.4,10.7,59.3,9.3,60.3,8z M71.4,12.5c2,0,3.9,0,6,0c-1-1.2-2-2.2-2.9-3.4C73.4,10.2,72.4,11.3,71.4,12.5z M42.2,25.3
	c0.3-0.6,0.7-1.2,1.1-1.8c0.4-0.6,0.7-1.2,1.1-1.8c0-0.1,0.2-0.2,0.1-0.2c-0.1-0.1-0.2-0.1-0.3-0.1h-0.1c-1.4,0.1-2.9,0.1-4.3,0.2
	c-0.1,0-0.2,0-0.3,0C39.4,21.8,42.1,25.3,42.2,25.3z M14.9,4.2c0,0.1-0.1,0.3,0,0.4c0.7,1.2,1.4,2.3,2.2,3.5c0,0,0,0.1,0.1,0.2
	c0.1-0.2,2.1-4,2-4.2C17.6,4.1,16.1,4,14.9,4.2z M38.5,4.6c-0.1,0.5,0.3,7.3,0.4,7.5c0.8-1.3,1.6-2.5,2.3-3.8
	C40.3,7.1,39.4,5.8,38.5,4.6z M39.5,30.4c0.1-0.1,2.6-4.8,2.6-4.9c0-0.1-0.7-0.9-0.9-1.2c-0.5-0.6-1-1.2-1.5-1.9
	c-0.1-0.1-0.1-0.1-0.2-0.2c0,0.1,0,0.2,0,0.3C39.5,23.8,39.3,30.4,39.5,30.4z M26.7,30.2c-0.7-1-1.3-2.7-2-3.6
	c-0.1-0.1-0.1-0.1-0.2-0.1c-0.3,0-0.5,0-0.8,0c-0.1,0-0.2,0.1-0.3,0.2c-0.6,1-1,2-1.7,3l0,0C22.9,30.1,26.7,30.2,26.7,30.2z
	 M26,12.4c0-0.1,0.1-0.1,0.1-0.2s0-0.1,0-0.2c0-0.4-0.1-0.9-0.1-1.3c0-0.4-0.1-0.7-0.1-1.1c0-0.3,0-0.7,0-1c0-0.6-0.1-1.1-0.1-1.7
	c0-0.5-0.1-0.9-0.1-1.4c0-0.4-0.1-0.8-0.2-1.3h0.1c0.1-0.1,0.2-0.1,0.3-0.1c0.2,0,0.3,0,0.5,0c1.3,0,2.6,0,3.9,0c0.1,0,0.2,0,0.3,0
	c0-0.2,0-0.4,0-0.5c-0.2,0.1-0.2,0.1-0.6,0.1l0,0c-1,0-1.9,0.1-2.9,0.1c-0.4,0-0.7,0-1.1,0c-0.1,0-0.2,0-0.2-0.2
	c0-0.1,0-0.6-0.4-0.6c-0.2,0-0.3,0-0.4,0.1s-0.2,0.3-0.2,0.6c-0.2,0-0.3,0.1-0.5,0.1c-0.3,0-0.7,0-1,0c-0.9,0-1.8-0.1-2.8,0
	c0-0.1-0.1-0.2-0.1-0.3c0-0.2-0.1-0.3-0.3-0.4c-0.1,0-0.4,0-0.5,0.2s-0.3,0.3-0.3,0.6c-0.1,0.2,0,0.3,0,0.5c0.1,0.2,0.6,0.3,0.7,0.1
	c0.2-0.2,0.4-0.3,0.6-0.3c1.3,0,2.7,0,4,0c0.1,0,0.1,0,0.3,0c0.2,2.7,0.4,5.4,0.6,8.1c0.1,0,0.2,0.1,0.3,0.1
	C25.9,12.4,26,12.4,26,12.4z M31.2,12.3c-0.9-1.3-1.7-2.5-2.6-3.8c-0.1,0.1-0.1,0.2-0.1,0.2c-0.3,0.5-0.6,1.1-1,1.6
	c-0.3,0.6-0.7,1.2-1,1.8c-0.1,0.1-0.1,0.2,0,0.4c0.4,0,0.8-0.1,1.2-0.1c0.4,0,0.8-0.1,1.2-0.1s0.8,0,1.2,0
	C30.4,12.3,30.8,12.3,31.2,12.3z M51.1,11.8c0.9-1.3,1.7-2.5,2.6-3.7c-0.4-0.5-0.7-0.9-1.1-1.3c-0.4-0.5-0.8-1-1.2-1.5
	C51.3,5.2,51.2,5.1,51,5C51,5.3,51,11.4,51.1,11.8z M11.5,9C11.5,9.1,11.5,9.1,11.5,9c-0.6,1.2-1.2,2.3-1.7,3.4
	c0,0.1-0.2,0.5-0.3,0.7c0.4,0.1,0.8,0,1.1,0c0.4,0,0.8,0,1.1,0s0.8,0,1.1,0c0.4,0,0.7,0,1.1-0.1c0-0.1-0.1-0.1-0.1-0.2
	C13.7,12.6,12.1,9.9,11.5,9C11.6,9.1,11.6,9.1,11.5,9z M15.1,14c-0.1,0.2-0.2,0.4-0.2,0.5c0,0.4,0,0.8,0.1,1.2c0,0.5,0.1,1,0.1,1.4
	c0,0.3,0,0.6,0,0.9c0,1,0.1,2,0.1,2.9c0,0.1,0,0.2,0.1,0.2c0-0.1,0.1-0.1,0.1-0.2c0.7-1.1,1.3-2.2,2-3.3c0.1-0.2,0.1-0.3,0-0.4
	c-0.7-1-1.4-2.1-2.1-3.1C15.2,14.1,15.1,14,15.1,14z M13.7,4.5L13.7,4.5c-0.1,0.1-0.1,0.1-0.2,0.2c-0.4,0.7-0.7,1.6-1.1,2.3
	c-0.3,0.5-0.5,1.2-0.8,1.7c0,0.1,0.5,0.9,0.8,1.4c0.5,0.8,0.9,1.6,1.3,2.4l0.1,0.1c0-0.4,0-0.8,0-1.2s0-0.8,0-1.2s0-0.8,0-1.2
	S13.8,4.9,13.7,4.5z M35.7,25.8c-0.1,0.2-2.6,4.2-2.6,4.3c1,0.3,3.5,0.3,5.2,0.3C38.9,30.3,36.6,26.9,35.7,25.8z M56.3,4.4
	c-0.2,0-0.4,0-0.6,0c-0.6,0-1.1,0-1.7,0.1c-0.5,0-1,0-1.5,0.1c-0.3,0.1-0.6,0-0.9,0h-0.1c-0.1-0.1-0.2-0.1-0.4,0
	c0,0.1,0.1,0.2,0.1,0.3c0.5,0.6,1,1.3,1.5,1.9C52.9,7,53,7.2,53.2,7.4c0.2,0.2,0.4,0.4,0.6,0.6c0,0,0.1,0,0.1-0.1
	c0.6-0.8,1.2-1.6,1.7-2.5c0.2-0.2,0.3-0.5,0.4-0.7C56.1,4.6,56.1,4.5,56.3,4.4C56.2,4.5,56.2,4.5,56.3,4.4z M69.3,4.5
	c-0.1-0.1-0.2-0.1-0.3-0.1c-0.1,0-0.3,0-0.4,0c-0.6,0-1.3,0-1.9,0c-0.2,0-0.4,0-0.7,0c-0.3,0-0.6,0.1-0.9,0.1c-0.4,0-0.7,0-1.1,0
	c-0.2,0-0.3,0.1-0.3,0.2c0,0.2,0,0.3,0.2,0.4c0.6,0.5,1.2,1.1,1.7,1.7c0.2,0.2,0.3,0.4,0.5,0.6c0.1,0.1,0.1,0.1,0.2,0.2
	c0.2-0.3,0.4-0.5,0.7-0.8c0.2-0.3,0.5-0.5,0.7-0.8c0.2-0.2,1.1-1.2,1.4-1.5C69.3,4.6,69.3,4.6,69.3,4.5z M43.8,12.3
	c0-0.1-0.1-0.2-0.1-0.2c0.1-0.2,0-0.2-0.1-0.3c-0.7-1-1.4-2-2.1-3c0-0.1-0.1-0.1-0.2-0.2C41,9,40.8,9.4,40.5,9.8
	c-0.3,0.4-0.5,0.8-0.8,1.3c-0.3,0.4-0.5,0.8-0.8,1.3C40.6,12.2,42.2,12.4,43.8,12.3z M8.8,4.7C8.7,5,9.3,12.6,9.3,12.8
	c0.1-0.1,0.1-0.1,0.1-0.2c0.2-0.4,0.4-0.8,0.6-1.2c0.4-0.8,0.9-1.7,1.3-2.6C11.4,8.6,9.7,6,9,4.7C8.9,4.8,8.8,4.7,8.8,4.7z
	 M32.7,19.7c0.9-1.2,1.8-2.4,2.7-3.6c-0.1-0.1-0.2-0.1-0.3-0.2c-0.4-0.4-0.8-0.7-1.2-1.1c-0.5-0.5-0.9-1-1.4-1.4
	c0.1-0.2,0-0.2-0.1-0.2c0,0.3,0,0.5,0.1,0.8c0,0.2,0,0.5,0,0.7c0,0.3,0,0.6,0.1,1c0,0.5,0,1,0,1.6c0,0.4,0.1,0.8,0.1,1.2
	C32.7,18.8,32.7,19.2,32.7,19.7C32.7,19.6,32.7,19.6,32.7,19.7z M5.8,8.5c0.4-0.6,2.2-4,2.3-4.4c0-0.5-3.3-0.3-3.5-0.3
	c-0.4,0-0.8-0.1-1.3,0C3.3,3.9,5.3,7.9,5.8,8.5z M29.1,17.1C29,17.2,29,17.2,29,17.3c-0.7,1-1.3,1.9-2,2.9c-0.1,0.2-0.2,0.4-0.3,0.6
	c0.8,0,4.8-0.3,5.1-0.4C30.9,19.3,30,18.2,29.1,17.1z M26.4,13.3L26.4,13.3c0.9,1.2,1.8,2.2,2.7,3.4c0.8-1.2,1.6-2.4,2.4-3.6
	C31.3,13,31.2,13,31.1,13c-0.6,0-1.2,0.1-1.7,0.1c-0.7,0-1.4,0.1-2,0.1C27,13.2,26.7,13.3,26.4,13.3z M84.7,13.5
	c-0.2,0-3.8,0.1-5.4,0.2c-0.1,0-0.1,0-0.2,0c1,1,2,1.9,3,2.8C82.9,15.6,84.8,13.5,84.7,13.5z M59.7,12.3
	C59.6,12.3,59.6,12.3,59.7,12.3c-0.6,0-1.2,0-1.8,0c-0.1,0-0.2,0-0.3-0.1v0.1h-0.1c0,0,0-0.1-0.1-0.1c-0.1-0.2-0.1-0.5,0-0.7
	c0-0.4,0-0.8,0-1.2c0-1.1,0-2.2-0.1-3.2c-0.1-0.7-0.1-1.4-0.1-2.1c0-0.1,0-0.3,0-0.4c-0.2-0.1-0.4-0.1-0.6-0.1c0,0.1,0,0.2,0,0.2
	c0,0.5,0.1,0.9,0.1,1.4c0,0.6,0,1.1,0,1.7c0.1,1.4,0.1,2.7,0.2,4.1c0,0.1,0,0.3,0.1,0.4c-0.1,0.1-0.1,0.2-0.2,0.4
	c-0.2,0-0.5,0-0.7,0c-0.5,0-1,0-1.5,0c-0.7,0-1.4,0-2,0c-0.3,0-0.7,0-1,0c-0.1,0-0.2,0-0.3-0.1c0,0.1-0.1,0.2-0.1,0.2
	c0.1,0.1,0.2,0.1,0.3,0.1c0.2,0,0.5,0,0.7,0c0.3,0,0.6,0.1,1,0.1c1.1,0,2.2,0,3.4,0c0.1,0,0.2,0,0.3-0.1c0.3,0.1,0.3,0.4,0.3,0.6
	c0,0.1,0,0.2,0,0.3c0,0.2,0,0.4,0.1,0.6c0.3,0,0.4-0.1,0.4-0.4c0-0.2,0-0.5,0-0.7s0-0.3,0.1-0.4c0.1,0,0.2,0.1,0.3,0.1
	c0.3,0,0.6-0.1,0.8-0.1s0.4-0.1,0.6-0.2C59.4,12.5,59.5,12.4,59.7,12.3z M43.8,4.7c-0.2,0.2-2.1,3.2-2.3,3.6
	c0.2,0.3,2.3,3.2,2.4,3.4c0-0.3,0-0.6,0-0.9c0-1.6,0-3.1,0-4.7c0-0.4,0-0.7,0-1.1C43.9,4.9,43.9,4.8,43.8,4.7z M26.3,11.8
	C26.3,11.8,26.4,11.8,26.3,11.8c0.8-1.2,1.5-2.4,2.2-3.6c-0.9-1.3-1.8-2.5-2.6-3.8c0,0,0,0-0.1,0C26,6.9,26.1,9.3,26.3,11.8z
	 M33.8,22.9c0.7,0.9,1.3,1.8,1.9,2.6c0.9-1.3,1.7-2.6,2.5-4c-0.2,0-0.4,0-0.6,0c-0.6,0-1.2,0-1.7,0c-0.2,0-0.4,0-0.5,0.2
	C34.9,22.1,34.4,22.5,33.8,22.9z M14.7,12.5C14.8,12.5,14.8,12.5,14.7,12.5c0.8-1.3,1.5-2.7,2.2-4c-0.4-0.8-2.1-3.4-2.2-3.5v0.1
	C14.7,7.2,14.8,12.1,14.7,12.5z M45.2,22c0,2.3,0,4.5,0,6.8l0,0c0.9-1.3,1.7-2.4,2.6-3.7C47,23.9,46.2,22.8,45.2,22z M56.5,11.4
	L56.5,11.4c0.1-0.1,0.1-0.2,0.1-0.3c0-0.2-0.1-0.5,0-0.7c-0.1-0.2,0-0.5-0.1-0.7c0-0.8-0.1-1.5-0.1-2.3c0-0.7,0-1.4-0.1-2.1
	c0-0.2-0.1-0.4-0.1-0.7c-0.8,1.2-1.6,2.3-2.4,3.4c0,0.1,0,0.1,0.1,0.2C54.8,9.3,55.7,10.4,56.5,11.4z M8.2,13.6c-1.5-0.2-3,0-4.5,0
	c-0.1-0.1-0.2,0-0.3-0.1s-0.1-0.2-0.1-0.4c-0.1-1-0.1-2-0.2-3c0-0.7-0.4-6.1-0.3-6.2c0,0,0.1-0.1,0.1-0.2c0.1,0,0.3,0,0.5,0
	c0.7,0,1.3,0,2,0c0.5,0,0.9,0,1.4,0c0.4,0,0.8,0.1,1.2,0c0-0.3-0.9-0.4-1.2-0.4c-0.3,0-3.6,0-3.9,0C2.4,3.3,2.3,2.9,2.2,3
	C2.1,3.1,2,3.2,2,3.4c0,0.1,0,0.2,0.1,0.3s0.2,0.1,0.3,0.2c0,0.1,0,0.3,0,0.5c0,0.3,0.1,2.5,0.1,3c0.1,0.7,0.1,1.5,0.2,2.2
	c0.1,1,0.1,2.1,0.2,3.1c0,0.1,0,0.2,0,0.3H3c0,0,0.1,0,0,0.1l-0.1,0.1c-0.3,0.1-0.4,0.3-0.3,0.6s1,0.3,1,0.2c0.2,0,0.3,0,0.4,0
	c0.4,0,4.1-0.2,4.2-0.1C8.2,13.8,8.2,13.7,8.2,13.6z M21.2,21c0.2,0,4.6-0.2,4.7-0.3c-0.9-1.2-1.8-2.3-2.7-3.5
	C22.6,18.5,21.9,19.7,21.2,21z M70.7,29c0-0.1,0-0.2,0-0.2c0-1.9,0-4.8,0.1-6.7c0-0.1,0-0.3,0-0.4c0-0.2,0-0.3-0.2-0.4
	c-0.8,1.3-1.6,2.5-2.4,3.9C68.7,25.9,70.3,28.6,70.7,29C70.6,28.9,70.6,28.9,70.7,29z M48,25.3c1,1.1,2,3.6,2.9,4.7
	c0-0.1-0.3-8.1-0.4-8.2C49.7,23,48.8,24.1,48,25.3z M56.9,21.6c0,0-1.7,2.5-2.4,3.7c0.3,0.3,2.2,3.7,2.6,4c0-0.2,0-3.4-0.1-4.4
	c0-0.8,0-1.7,0-2.5C57,22.3,57,21.8,56.9,21.6z M6,8.7c0,0.1,2.3,3.4,2.6,3.6l0.1,0.1c0-0.1,0-0.2,0-0.2c-0.1-0.8-0.1-1.6-0.2-2.4
	C8.4,9.4,8.1,5.4,8,5C7.7,5.5,6.4,7.7,6,8.7z M31.6,13.4L31.6,13.4c-0.8,1.1-1.6,2.3-2.4,3.5c0.4,0.5,2.5,3.1,2.7,3.2
	c0-0.1,0-0.1,0-0.2c0-0.2-0.1-0.4-0.1-0.7c0-0.5,0-1.1,0-1.6c0-1.1-0.1-2.3-0.2-3.4C31.6,13.9,31.6,13.7,31.6,13.4z M57.7,12.1
	c0.1,0,0.1,0,0.2,0c0.7,0,1.3-0.1,2-0.2c0.2,0,0.3-0.1,0.5-0.2c0.6-0.5,1.2-1,1.8-1.6l0.1-0.1c-0.6-0.7-1.2-1.3-1.9-2
	C59.5,9.4,58.6,10.8,57.7,12.1z M26.3,13.5c-0.1,0.2,0,0.4,0,0.5c0.1,1,0.2,2,0.2,3c0.1,0.9,0.2,1.7,0.1,2.6c0,0.2,0,0.3,0.1,0.5
	c0.8-1.1,1.5-2.2,2.3-3.4C28.1,15.7,27.2,14.6,26.3,13.5z M23,8.3c0.1-0.1,1.7-3.5,1.7-3.6c0.1-0.2,0.1-0.3-0.1-0.3c0,0-0.1,0-0.2,0
	c-0.6,0-1.2,0-1.9,0c-0.6,0-1.9,0-1.9,0c-0.1,0.1,0,0.2,0.1,0.3c0.6,0.9,1.2,1.9,1.8,2.8C22.7,7.8,22.8,8,23,8.3z M67.4,16.2
	c0.2-0.2,0.3-0.4,0.5-0.6c0.4-0.5,0.8-0.9,1.2-1.4c0.2-0.2,0.3-0.5,0.5-0.6l0.1-0.1c0-0.1-0.1-0.2-0.1-0.4C69.5,13,69.4,13,69.3,13
	c-0.7,0-1.3,0-2,0s-1.4,0-2.1,0c-0.2,0-0.3,0.1-0.5,0.1C65.6,14.1,66.5,15.2,67.4,16.2z M30.7,4.6c-0.1,0-0.2,0-0.3,0
	c-0.1,0-0.2,0-0.4-0.1c-1.3,0-2.6,0-4,0h-0.1c0.9,1.2,1.8,2.4,2.6,3.6c0.1-0.2,0.2-0.3,0.3-0.4c0.3-0.6,0.6-1.1,1-1.7
	c0.2-0.4,0.5-0.7,0.8-1.1C30.6,4.8,30.7,4.7,30.7,4.6z M70,13.6c-0.3,0.1-2.1,2.3-2.4,2.8c1,1.1,1.9,2.2,2.9,3.4c0,0,0,0,0.1,0
	C70.4,17.7,70.2,15.6,70,13.6z M20.9,12.8c0.2,0,4.1-0.3,4.4-0.4c-0.4-0.7-2-3.1-2.4-3.8C22.3,10.1,21.7,11.4,20.9,12.8z M19.6,13.9
	c-0.2-0.2-0.4-0.3-0.7-0.2c-0.1,0-0.2,0-0.3,0c-0.2,0-0.4,0-0.6,0c-0.9,0-1.8,0.1-2.8,0.2c0,0,0,0-0.1,0.1c0.8,1.1,1.6,2.3,2.4,3.5
	C18.3,16.2,19,15,19.6,13.9z M74.6,8.9c0.5,0.6,0.9,1.1,1.4,1.6s0.9,1.1,1.4,1.6c0-1.1,0-2.1,0-3.1s-0.2-2-0.1-3l0,0
	C76.3,6.9,75.4,7.9,74.6,8.9z M25.4,13.5c-0.7,1.2-1.3,2.4-2,3.5c0.3,0.4,2.3,3.1,2.5,3.2c0-0.6,0-1.1,0-1.7c0-0.9-0.1-1.8-0.1-2.6
	c0-0.8-0.1-1.5-0.2-2.3C25.6,13.6,25.5,13.5,25.4,13.5z M81.7,8.8c0.5-0.5,0.9-1,1.3-1.5s0.9-1,1.3-1.6c-1.9,0.1-3.7,0.1-5.5,0.2
	C78.8,6,81.2,8.3,81.7,8.8z M20,21.2c-0.2-0.4-2.3-3.4-2.4-3.5c-0.7,1.2-1.4,2.4-2.2,3.7C17,21.3,18.5,21.2,20,21.2z M60.4,7.7
	c0.4-0.4,2.1-3,2.1-3.2h-0.1c-1.1,0-2.3,0-3.4,0c-0.1,0-0.2,0-0.4,0c-0.2,0.1-0.4,0-0.7,0c-0.2,0-0.4,0-0.6,0
	C58.5,5.6,59.4,6.7,60.4,7.7z M30.7,4.8L30.7,4.8C30.6,4.8,30.6,4.9,30.7,4.8C30,6,29.3,7.1,28.8,8.1c-0.1,0.1-0.1,0.2,0,0.3
	c0.7,1.1,1.4,2.1,2.1,3.2c0,0,0.1,0.1,0.2,0.2c-0.1-0.6,0-1.2-0.1-1.8c0-0.1,0-0.1,0-0.2c0-0.6,0-1.1,0-1.7c0-0.8-0.1-1.6-0.1-2.3
	C30.8,5.5,30.7,5.2,30.7,4.8z M33,29.7c0.2,0.1,2.6-4,2.6-4.1c-0.1-0.1-2-2.5-2-2.5c-0.2,0.1-0.2,0.2-0.2,0.4
	C33.3,25.2,33,29.5,33,29.7z M73.8,16.8c-0.4-0.4-0.7-0.8-1-1.1c-0.4-0.5-0.9-1-1.4-1.5c-0.1-0.1-0.1-0.1-0.2-0.2
	c-0.1-0.2-0.3-0.3-0.5-0.4c0.2,2,0.3,3.9,0.5,6C71.4,19.4,73.7,16.8,73.8,16.8z M9.1,4.4c0.2,0.5,2,3.5,2.3,3.9
	c0.6-1.4,1.3-2.6,1.9-3.9 M3.2,4.4c-0.1,0.2,0,1.2,0,1.5c0.1,0.7,0.3,3.6,0.3,4.3c0,0.4,0,0.8,0,1.2c0,0.3,0.1,0.7,0.1,1
	c0.1-0.3,1.8-3.5,2-3.9C5.1,7.9,3.4,4.6,3.2,4.4z M8.1,14.4c0,0,0.1-0.2,0-0.2s-0.2,0-0.3,0c-0.9,0-1.8,0-2.7,0.1
	c-0.4,0-0.9,0.1-1.3,0.2c0,0.2,1.5,2.2,2.2,3.1C6.4,18.1,7.5,15.5,8.1,14.4z M20.9,11.3c0,0.3,0,0.7,0,1c0,0.1,0,0.1,0,0.2
	c0.1-0.1,0.1-0.1,0.1-0.2c0.6-1.3,1.2-2.5,1.8-3.8c0.1-0.1-1.6-2.5-2.2-3.6C20.5,5.1,20.9,9.3,20.9,11.3z M14.1,13.3
	c-0.2,0-0.3,0.1-0.3,0.3s0,0.3,0.2,0.4s0.2,0.2,0.3,0.4c0,0.8,0.1,1.6,0.1,2.5c0,0.5,0,1.1,0.1,1.6c0,0.3,0,0.7,0,1
	c0,0.5,0,1,0.1,1.5c0,0.1,0,0.1,0,0.2c0.1,0,0.3-0.1,0.4,0l-0.1,0.1c-0.2,0.1-0.3,0.2-0.3,0.4c0,0.2,0,0.3,0.1,0.3
	c0.1,0.1,0.2,0.1,0.3,0.1c0.3-0.2,0.3-0.3,0.3-0.6c0-0.2-0.1-0.4-0.3-0.4c0-0.4-0.1-0.7-0.1-1.1c0-1.1-0.1-2.1-0.1-3.2
	c0-0.5-0.1-1.1-0.1-1.6c0-0.3-0.1-0.6-0.1-0.9c0.3-0.2,0.3-0.3,0.3-0.6v-0.1c0.1-0.2,0-0.3-0.2-0.3c-0.1,0-0.1,0-0.2,0
	c0-0.2,0-0.3,0-0.5c0-2.6-0.1-5.1-0.1-7.7c0-0.2-0.1-0.4,0-0.6c0,0,0,0-0.1-0.1c-0.1,0.1-0.3,0.2-0.4,0.3c0,0.4,0,0.9,0,1.4
	c0,1.2,0.1,2.4,0.1,3.6C14,10.4,14.1,12.8,14.1,13.3z M8.4,14.4c0,0.1-1.3,2.4-2,3.4c-0.1,0.1,0,0.2,0,0.3c0.8,1,1.5,2,2.2,2.9
	l0.1,0.1C9.1,21.2,9,20.7,9,20.5c0-1.3-0.2-5.1-0.2-5.7C8.8,14.8,8.6,14.5,8.4,14.4z M69.4,4.8c-0.2,0.2-2.7,2.9-2.8,3.1
	c0.5,0.5,0.9,1,1.4,1.4c0.1,0.1,0.2,0.1,0.3,0.1c0.4,0,0.7,0,1.1,0c0.1,0,0.1,0,0.2,0C69.5,7.9,69.4,6.4,69.4,4.8z M24.8,5
	C24.7,5.1,24.7,5.1,24.8,5c-0.7,1.2-1.2,2.3-1.8,3.4c0,0.1,1.9,3,2.1,3.5l0,0C25.1,9.6,25,7.4,24.8,5z M23.3,16.9
	c0.2-0.3,1.9-3.3,1.9-3.5c-0.1,0-4.1,0.1-4.4,0.2C21.6,14.8,22.5,15.8,23.3,16.9z M11.9,17.6c0.6-1.2,1.3-2.3,1.9-3.4
	c-0.2-0.3-0.2-0.3-0.5-0.3c-0.6,0-1.2,0.1-1.8,0.1s-1.2,0.1-1.8,0.1c0,0,0,0-0.1,0v0.1C10.3,15.4,11.1,16.5,11.9,17.6z M70.2,13.7
	c0,0.3,0.1,0.5,0.1,0.8c0.1,1.5,0.3,3,0.4,4.4c0,0.3,0,0.8,0,1.1c0,0.1,0,0.1-0.1,0.2s-0.2,0-0.3-0.1c-0.1,0-3.4,0.1-5,0.1
	c-0.2,0-0.3,0-0.5,0c0.2,0.2,0.2,0.3,0.2,0.6c0.3,0,5-0.2,5.4-0.3c0,0.3,0.3,0.7,0.7,0.5c0.1-0.1,0.8-0.1,1.2-0.1c0.3,0,0.5,0,0.8,0
	c0.4,0,4.7,0,4.6-0.1c0-0.1-0.1-0.2-0.2-0.2c-0.4,0-0.8,0-1.2,0c-0.3,0-0.7,0-1,0c-0.5,0-3.7-0.1-3.9-0.1c-0.1-0.1-0.3-0.4-0.3-0.5
	c-0.2-1.9-0.3-3.8-0.5-5.7c0-0.2,0-0.4-0.1-0.7C70.4,13.5,70.3,13.6,70.2,13.7z M19.8,14.1L19.8,14.1c-0.7,1.1-1.4,2.3-2.1,3.4
	c0.8,1.1,1.5,2.2,2.3,3.4c0,0,0,0,0.1,0C20,18.6,19.9,16.3,19.8,14.1z M37.7,13c-0.3-0.1-5-0.1-5.2,0c1,1,2,1.9,3.1,2.9
	C36.3,14.9,37,14,37.7,13z M23.2,17.1c-0.3-0.5-2.1-2.8-2.3-3c0,0.1,0,0.2,0,0.3c0,1.1,0.1,2.3,0.1,3.4c0,0.9,0,1.8,0.1,2.8
	c0,0,0,0.1,0,0.2C21.9,19.5,22.5,18.3,23.2,17.1z M14,14.3C13.9,14.3,13.9,14.3,14,14.3c-0.7,1.2-1.4,2.3-2,3.5
	c0.8,1.1,1.5,2.2,2.3,3.2c0-0.1,0-0.2,0-0.2c0-1-0.1-1.9-0.1-2.9c0-0.6-0.1-1.3-0.1-1.9c0-0.5-0.1-1,0-1.5
	C14.1,14.5,14,14.4,14,14.3z M29.6,26.1c1,1,2,2.7,3,3.7c-0.1-1.7,0-4.1-0.1-5.9C31.5,24.6,30.5,25.3,29.6,26.1z M9.9,22.5
	c0.9,1.1,1.7,2.2,2.5,3.3c0.6-1.2,1.2-2.3,1.8-3.5c0.1,0,0.1,0-0.3,0c-0.5,0-1,0.1-1.5,0.1c-0.7,0-1.5,0.1-2.2,0.1
	C10.1,22.5,10.1,22.5,9.9,22.5z M64.7,13.2C64.7,13.2,64.6,13.2,64.7,13.2c0,0.3,0,0.6,0,0.9c0,0.7,0.1,1.4,0.1,2.1
	c0,0.8,0.1,1.7,0.1,2.5c0,0.2,0,0.3,0.1,0.5c0.8-1,1.6-1.9,2.3-2.9c-0.2-0.2-0.4-0.5-0.6-0.7c-0.2-0.3-0.5-0.5-0.7-0.8
	c-0.3-0.4-0.6-0.8-0.9-1.2C65,13.5,64.8,13.4,64.7,13.2z M9.4,14.9c0,0.2,0,0.3,0,0.5c0.1,1,0.1,2.1,0.2,3.1c0,0.8,0.1,1.5,0.1,2.3
	c0,0.1,0.1,0.2,0.2,0.2c0.6-1.1,1.2-2.1,1.8-3.2c-0.7-1-1.4-2-2.1-3C9.6,14.8,9.5,14.9,9.4,14.9z M7.2,25.7c0.6-1,1.1-2,1.6-3
	c-0.1-0.2-0.2-0.2-0.4-0.2c-0.3,0-0.6,0-0.8,0c-1,0-2,0-3,0c-0.1,0-0.1,0-0.2,0C5.4,23.5,6.3,24.6,7.2,25.7z M6.3,18.2
	c-0.2,0.2-1.8,3-1.9,3.1c0.1,0.1,0.2,0.1,0.4,0.1c1.2,0,2.8,0.2,4,0.2C9,21.5,7.1,19.3,6.3,18.2z M7.3,26.1c-0.8,1.5-1.6,3-2.5,4.6
	c1.7-0.2,3.3-0.1,5-0.2c0-0.1,0-0.2,0-0.3c-0.1,0-0.2,0-0.2,0c-0.2,0-0.4,0-0.6,0c-0.4,0-0.8,0-1.3,0c-0.2,0-0.5-0.3-0.5-0.5
	S7,29,7,28.8c0-0.3,0-0.7,0.2-1c0.5,0,1,0,1.6-0.1C8.2,27.1,7.8,26.6,7.3,26.1z M26.1,21.5c-0.3,0-0.5,0.1-0.8,0.1
	c-0.2,0-0.4,0-0.7,0c-0.4,0-0.7,0-1.1,0c-0.7,0-1.3,0.1-2,0.1c-0.1,0-0.2,0-0.3,0v0.1c0.4,0.6,0.9,1.1,1.3,1.7
	c0.1,0.1,0.1,0.1,0.2,0.1c0.7,0,1.4-0.1,2.1-0.1c0.1,0,0.2,0,0.2-0.1c0.3-0.5,0.6-1.1,0.9-1.6C26.1,21.7,26.1,21.6,26.1,21.5z
	 M14.2,21.3c-0.8-1.1-1.5-2.2-2.3-3.3c-0.6,1.1-1.2,2.2-1.8,3.2c0.1,0.2,0.2,0.2,0.4,0.2s0.3,0,0.5,0c0.7,0,1.4,0,2.1,0
	C14.1,21.4,13.8,21.3,14.2,21.3z M62.5,9.9c0.1-0.1,0.2-0.2,0.3-0.2c0.1-0.1,0.1-0.1,0.1-0.2c0-0.3,0-0.6,0-1c0-0.7-0.1-1.3-0.1-2
	c0-0.6,0-1.1,0.1-1.7c0-0.1,0.1-0.2-0.1-0.3c-0.1,0-0.2,0.1-0.2,0.2c-0.5,0.7-0.9,1.3-1.4,2c-0.2,0.4-0.5,0.7-0.7,1.2
	C61.2,8.6,61.9,9.2,62.5,9.9z M44.7,10.8L44.7,10.8C45.5,9.9,46.3,8.9,47,8c-1.1-1.5-2.1-2.8-2.2-2.9C44.7,7,44.7,8.9,44.7,10.8z
	 M38.9,13c0.9,0.9,1.8,1.8,2.7,2.7c0.7-0.8,1.4-1.6,2.1-2.5C43.6,13,43.4,13,43.1,13c-1.3,0-2.6,0-3.9,0C39.1,13,39.1,13,38.9,13z
	 M44.9,13.2c0.1,0.2,1.8,2.3,2.1,2.5c1-0.9,1.9-1.8,2.9-2.7C49.6,12.9,45.2,13.1,44.9,13.2z M70.4,4.6L70.4,4.6c-0.1,0.5,0,1,0,1.5
	c0,1,0,2,0,3c0,0.1,0,0.2,0,0.3c0.1,0,0.2,0,0.3,0c0.1,0,0.2,0,0.3-0.1c0.6-0.7,1.2-1.4,1.8-2.1C72,6.4,71.2,5.5,70.4,4.6z M35.7,16
	c0.1,0.1,0.1,0.1,0.1,0.1c0.4,0.4,0.8,0.8,1.3,1.2c0.3,0.3,0.6,0.6,0.9,0.8c0.1,0.1,0.2,0.2,0.3,0.1c0-0.4-0.3-4.9-0.4-5.1
	C37.3,14.1,36.5,15,35.7,16z M10.2,27.6C10.2,27.6,10.3,27.6,10.2,27.6c0.5,0,0.9,0,1.3,0c0.1,0,0.1-0.1,0.2-0.1
	c0.2-0.5,0.5-0.9,0.7-1.4c-0.8-1-1.6-2-2.4-3.1c0,0,0,0-0.1,0C10,24.5,10.1,26.1,10.2,27.6z M44.5,30c0,0-0.1-3.4-0.1-4.1s0-1.3,0-2
	c0-0.6,0-1.3,0-1.9l0,0c-0.7,1.1-1.4,2.3-2.1,3.4C42.8,26.5,43.9,29,44.5,30z M38.9,13.3c0.1,0.4,0.3,3.7,0.3,4.3
	c0,0.2,0,0.4,0.1,0.6c0.1-0.1,0.2-0.1,0.2-0.1c0.2-0.2,0.4-0.4,0.6-0.7c0.4-0.5,1.3-1.5,1.4-1.6c-0.5-0.4-0.9-1-1.4-1.4
	C39.9,14.1,39.1,13.2,38.9,13.3z M4,15.3c0,0.3,0.3,5.5,0.5,5.7c0.5-1,1-2,1.6-3.1C5.4,17.1,4,15.2,4,15.3z M45.5,20.6
	C45.5,20.6,45.6,20.6,45.5,20.6c0.2,0.1,0.3,0,0.5,0c0.5,0,3.9-0.2,4.4-0.1c0,0,0.1,0,0.2,0c-0.1-0.2-1.7-2.2-2-2.4
	C47.6,18.9,46.6,19.7,45.5,20.6z M43.9,13.4C43.9,13.4,43.9,13.3,43.9,13.4c-0.8,0.8-1.5,1.6-2.2,2.5c0.7,0.8,1.5,1.5,2.2,2.2
	c0.2-0.1,0.2-0.1,0.2-0.3c0-0.6,0.1-1.3,0-1.9c0-0.5,0-1-0.1-1.4C43.9,14.1,43.9,13.7,43.9,13.4z M72.9,7.1c0.2-0.2,0.4-0.5,0.6-0.7
	c0.4-0.5,0.9-1,1.3-1.6c0.1-0.1,0.1-0.2,0.2-0.2V4.5c-0.8,0-1.5,0-2.3,0c-0.6,0-1.3,0-1.9,0h-0.1C71.5,5.4,72.2,6.3,72.9,7.1z
	 M12.6,26c0.3,0.4,0.6,0.7,0.8,1s0.5,0.5,0.9,0.4c0.5-0.1,0.6,0.1,0.4-0.6c-0.1-0.5-0.1-1.1-0.1-1.7c0-0.4,0-0.9-0.1-1.3
	c0-0.4-0.1-0.8-0.1-1.2c0,0,0-0.1-0.1-0.1C13.7,23.7,13.2,24.8,12.6,26z M7.4,25.9c0.5,0.6,1,1.2,1.5,1.7C9,27.7,9,27.7,9.1,27.7
	s0.3,0,0.4,0c0-0.3,0-0.6-0.1-0.9c-0.1-0.4-0.1-0.8-0.1-1.2c-0.1-0.8-0.1-1.6-0.2-2.4C9.1,23,9,23,8.9,22.9
	C8.4,23.9,7.9,24.8,7.4,25.9z M69.8,9.4c0.1,0,0.3,0,0.4,0c0-0.1,0-0.1,0-0.2c0-0.3,0-0.5,0-0.8c0-0.5,0-1,0-1.5c0-0.7,0-1.4-0.1-2
	c0-0.2,0-0.5,0.1-0.7c0.1,0,0.1,0,0.2,0.1s0.2,0.1,0.4,0.1c0.5,0,1,0,1.4,0c0.9,0,1.8,0,2.7,0c0.4,0,0.7-0.2,0.9-0.5
	c-0.5,0-1,0-1.5,0c-0.9,0-1.7,0-2.6,0c-0.2,0-1.4,0.1-1.5,0.2c-0.1-0.2-0.2-0.3-0.3-0.5c-0.1-0.1-0.3-0.2-0.4-0.1
	c-0.1,0.1-0.3,0.1-0.3,0.3c0,0.1,0,0.3,0.1,0.4c0.1,0.2,0.2,0.3,0.4,0.2c0.1,0,0.2,0,0.3-0.1c-0.1,0.2-0.3,0.1-0.5,0.3
	c0,0.2,0,0.9,0,1C69.5,6,69.8,8.9,69.8,9.4C69.7,9.4,69.7,9.4,69.8,9.4z M64.6,12.8c1.7,0,3.3,0,4.9,0.1c0,0.1,0.1,0.2,0.1,0.2
	c0.2,0.3,0.6,0.4,0.8,0.2c0.1-0.2,0.2-0.2,0.4-0.2c0.1,0,0.1,0,0.2,0c0.3,0,0.6,0,0.8,0c0.6,0,1.1,0,1.7,0c0.3,0,0.6,0,0.9,0
	c0.2,0,0.4,0,0.6,0c0.6,0,1.2,0,1.8,0h0.1c0.1,0,0.2-0.1,0.2-0.2s0-0.1,0-0.2c-0.1,0-0.2,0-0.3,0c-1.3,0-2.7,0.1-4,0.1
	c-0.7,0-1.5,0.1-2.2,0c-0.1,0-0.2,0-0.3-0.1c-0.2-0.2-0.4-0.2-0.6-0.2h-0.1c-0.1,0-0.2,0-0.4,0c-1.5,0-3.1,0.1-4.6,0.1
	c-0.1,0-0.2,0-0.3,0C64.6,12.6,64.6,12.7,64.6,12.8z M51.1,12.9c0.4,0.5,0.7,0.9,1.1,1.3c0.1,0.1,0.2,0.1,0.3,0.1c0.9,0,1.8,0,2.7,0
	c0.2,0,0.3-0.1,0.3-0.2c0.2-0.3,0.4-0.6,0.7-1c0,0,0-0.1,0.1-0.1C54.5,13.1,52.9,13.1,51.1,12.9z M59.1,15.9c0.4,0.4,0.8,0.7,1.1,1
	c0.2-0.2,0.4-0.5,0.6-0.7c0.4-0.5,0.8-0.9,1.3-1.4c0.3-0.3,0.7-0.7,0.9-1c0.2-0.2,0.4-0.5,0.6-0.7c0,0,0-0.1-0.1-0.2
	c-0.1,0-0.2,0-0.3,0c-0.3,0-0.5,0.1-0.7,0.2c-0.8,0.7-1.7,1.3-2.5,2C59.8,15.4,59.4,15.7,59.1,15.9z M15.1,30.3c-0.1,0-0.2,0-0.3,0
	c-0.5,0-3.1,0.1-4,0.2c-0.1,0-0.3,0-0.4,0c-0.2,0-0.4,0.1-0.6,0.1c-0.9,0-1.8,0.1-2.7,0.1c-0.7,0-1.4,0.1-2,0.1
	c-0.1,0-0.3,0-0.3,0.2c0,0.1,0.1,0.1,0.3,0.1c0.9,0,4.7-0.3,4.7-0.2c0,0.4,0.5,0.3,0.7,0.1c0.1-0.1,0.2-0.2,0.3-0.2
	c1.4-0.1,2.7,0.2,4.1,0.1c0.1,0,0.2,0,0.3,0.1c0.6,0.8,1-0.1,0.9-0.1c0.1-0.1,1.6-0.2,2.2-0.2c0.7,0,1.6,0.1,2.3,0.1
	c-0.1-0.1-0.4-0.4-0.3-0.7c-0.3,0-0.8,0-1.1,0c-1,0-3.1,0.1-3.4,0.2c0,0-0.1-0.2-0.4-0.2S15.1,30.2,15.1,30.3z M27.1,23.4
	c0.2,0,0.5,0,0.7,0c0.1,0,0.2-0.1,0.3-0.1c0.9-0.7,1.7-1.3,2.6-2c0.1-0.1,0.1-0.1,0.2-0.2c-1.4,0-2.7,0.1-4.1,0.3
	C27,22.1,27.1,22.7,27.1,23.4z M20.4,29.9c-0.5-0.8-1.1-1.7-1.6-2.4c-0.1,0.1-2.5,2.2-2.7,2.5C16.5,30.1,19.7,29.9,20.4,29.9z
	 M69.3,3.4c-0.3,0.1-0.5,0.3-0.7,0.5L68.5,4c-0.2,0-0.4,0-0.5-0.1c-0.4-0.1-1,0-1.5,0c-0.6,0-2.6,0.2-2.7,0.1
	c-0.1-0.3-0.3-0.5-0.7-0.4C63,3.8,63,4,63.1,4.2s0.1,0.4,0.1,0.5c0,1.4,0,2.8,0,4.2c0,0.2,0,0.3,0,0.5c0.1,0,0.3,0,0.3,0
	c0.1,0.1,0.2,0.1,0.3,0.1c0-0.1,0-0.1,0-0.2c0-0.5-0.1-1-0.1-1.6s0-1.2-0.1-1.8c-0.1-0.5-0.1-1,0-1.6c1.9-0.1,3.8-0.1,5.7-0.2
	C69.3,3.9,69.1,3.7,69.3,3.4z M44.3,4.6C44,4.6,44,4.8,44,5.1c0,0.9,0,1.8,0,2.6c0,1.4,0,2.7,0,4.1c0,0.3,0,0.5,0.2,0.7
	c-0.2,0.2-0.3,0.3-0.4,0.5c0.4,0.2,0.4,0.3,0.7-0.1c0-0.1-0.1-0.1-0.1-0.2c0.1,0,0.2-0.1,0.3,0.1c0.1,0.1,0.2,0.1,0.3,0.1
	c1.6-0.1,3.3-0.1,4.9-0.2c0.1,0,0.2,0,0.3,0c0-0.1-0.1-0.2-0.1-0.4c-0.9,0-1.8,0.1-2.7,0.1s-1.7,0.1-2.6,0.1c-0.2,0-0.3-0.1-0.5-0.2
	c0.2-0.2,0.2-0.3,0.1-0.5c0-0.1,0-0.2,0-0.3c0-0.4,0-0.8,0-1.1c0-0.7,0-1.4,0-2.1c0-1.1,0-2.3,0-3.4C44.5,4.8,44.5,4.7,44.3,4.6z
	 M66.3,7.9c-0.4-0.5-2.2-2.3-2.4-2.4c0.1,1.4,0.2,2.7,0.3,4.1c0.2,0,0.4,0,0.5,0s0.2,0,0.3-0.1c0.1-0.1,0.2-0.3,0.3-0.4
	C65.6,8.7,65.9,8.3,66.3,7.9z M39.7,18.3c1.4,0,2.8,0,4.2-0.1c-0.8-0.8-1.5-1.5-2.2-2.2C41,16.7,40.3,17.5,39.7,18.3z M35.6,16.2
	c0,0.1-1.7,2.2-2.5,3.2l0,0l0,0c0.5-0.3,0.9-0.7,1.4-1c0.1-0.1,0.3-0.2,0.5-0.2c0.9,0,1.7,0,2.6,0c0.1,0,0.1,0,0.2,0
	C37.1,17.6,36.3,16.9,35.6,16.2z M57.7,19.5C57.8,19.6,57.8,19.6,57.7,19.5c0.2-0.1,2.1-2.2,2.2-2.4c-0.4-0.4-0.8-0.7-1.2-1
	c-0.4,0.3-0.8,0.6-1.1,0.9c-0.1,0.1-0.1,0.2-0.1,0.3C57.5,17.8,57.7,19.3,57.7,19.5z M38.2,12.6c0,0.3,0.3,0.3,0.4,0.3
	c0.3-0.1,0.2-0.4,0.1-0.5c-0.1-0.1-0.2-0.3-0.1-0.5v-0.1c-0.1-2.4-0.1-4.7-0.3-7.1c0-0.2,0-0.3-0.2-0.4c0.1-0.2,0.2-0.4,0.1-0.7
	s-0.6,0-0.6,0.1c-0.1,0.4,0.3,0.5,0.3,0.6c-0.1,0.2,0.2,7.8,0.2,7.9C38.3,12.4,38.3,12.5,38.2,12.6z M51.2,20.4
	c0.3-0.3,2.2-3.1,2.3-3.3c-0.8,0-1.6,0-2.3,0.1C51.2,18.2,51.2,19.3,51.2,20.4z M54.5,17.2c0.3,0.4,2.3,2.8,2.5,2.9
	c0-0.4-0.1-2.8-0.2-3C56.4,17,54.7,17.1,54.5,17.2z M32,12.1c0-0.2,0-0.3-0.1-0.4c-0.1-1-0.1-1.9-0.2-2.9c0-0.8-0.1-1.7-0.1-2.5
	c0-0.4,0-0.7,0-1c0-0.2,0-0.4-0.1-0.5C31.3,4.9,31.2,4.9,31,5c0.1,2.4,0.2,4.8,0.3,7.2C31.6,12.1,31.8,12.1,32,12.1z M4.1,29.9
	C4,27.5,4,25,3.9,22.6c-0.2,0-0.3,0.1-0.4,0.1c0,0.1,0,0.2,0,0.3c0,2.2,0,4.4,0.1,6.6c0,0.1,0,0.1,0,0.2S3.7,30,3.8,30
	C3.9,29.9,4,29.9,4.1,29.9z M64.7,30.4c0-0.1,0-0.3,0-0.4c0-1.4,0-3.7,0-5.1c0-0.6,0-1.2,0-1.9c0-0.3,0-0.5,0-0.8c0-0.2,0-0.5,0-0.7
	s0-0.4,0-0.5c-0.1,0-0.2,0-0.4,0c0,0.3,0,0.5,0,0.8c0,0.6,0,1.2,0,1.8c0,0.9,0,1.7,0,2.6c0,0.7,0,2.5,0,3.2c0,0.2,0,0.5-0.1,0.7
	c0,0-0.2,0.2-0.2,0.3C64,30.7,64.5,30.9,64.7,30.4z M44.9,13.5C44.8,13.5,44.8,13.5,44.9,13.5c-0.1,0.1-0.1,0.1-0.1,0.2
	c0,0.2,0,0.5,0,0.7c0,0.4,0.1,0.8,0.1,1.2c0,0.5,0.1,1,0.1,1.5c0,0.1,0,0.1,0,0.2c0.6-0.5,1.2-0.9,1.7-1.5
	C46.1,15,45.5,14.3,44.9,13.5z M3.6,14.5c-0.1,0-0.2,0-0.3-0.1c-0.2,0-0.3,0.1-0.3,0.2s0,0.1,0,0.2c0.1,1.1,0.2,2.2,0.2,3.4
	c0.1,0.9,0.1,1.8,0.1,2.6c0,0.1,0,0.2,0,0.2c0.2,0,0.3,0,0.5,0c0.1-0.4,0.1-0.8,0.1-1.2c0-0.4-0.1-0.8-0.1-1.2
	c-0.1-1.2-0.1-2.4-0.2-3.6C3.6,14.8,3.6,14.7,3.6,14.5z M77.7,13.8c0,0.2,0,0.4,0,0.6c0,0.5,0.1,5.5,0.1,5.8c0,0.2,0.1,0.7,0.2,0.8
	h0.2c0.1,0,0.3-0.3,0.3-0.4c-0.1-0.2-0.4-6-0.4-6.8c0-0.1,0-0.2,0.1-0.2c0.1-0.2,0.2-0.3,0.1-0.5c-0.1-0.1-0.2-0.2-0.3-0.2
	c-0.1,0-0.3,0-0.4,0.1c-0.2,0.2-0.2,0.4,0,0.6c0.1,0,0.2,0.1,0.4,0.1C77.8,13.7,77.8,13.7,77.7,13.8z M64.8,20.2c0-0.1,0-0.2,0-0.3
	c0-0.3-0.3-5.2-0.3-5.7c0-0.2,0-0.4,0-0.6c-0.1-0.2,0.1-0.4,0-0.5c0.2-0.2,0-0.4,0-0.6c-0.2,0-0.3,0-0.5,0c-0.2,0-0.2,0-0.3,0.2
	c0,0.2-0.1,0.4,0.1,0.5c0,0.2,0.1,0.3,0.3,0.4c-0.1,0-0.1,0-0.2,0c0,0.3,0.5,6.4,0.6,6.7C64.6,20.2,64.6,20.2,64.8,20.2z M85.8,12
	c0-0.1,0-0.2,0-0.3c0-0.4-0.1-0.9-0.1-1.3c-0.1-1.8-0.1-3.6-0.2-5.4c0-0.1,0-0.3-0.1-0.4c-0.1-0.2-0.1-0.2,0.1-0.4
	C85.9,4,86,3.8,85.7,3.4c0,0,0,0-0.1-0.1c-1.1,0-1.1,0.4-1.1,1c0.1,0.1,0.4,0.4,0.5,0.4c0,0.1-0.4,0.2-0.3,0.8
	C84.6,6.9,85,9.4,85,10.9c0,0.3,0,0.9,0.2,1.2C85.7,12,85.7,12,85.8,12z M21.3,26.7c0,0.1,0,0.1,0,0.2c0,0.8,0.1,1.6,0.1,2.4
	c0,0.1,0,0.3,0,0.4s0,0.1,0.2,0.1c0,0.1,1.1-1.9,1.6-2.9c0-0.1,0.1-0.2,0.1-0.2l0,0l0,0C22.7,26.6,22,26.6,21.3,26.7z M37.3,3.8
	c-0.1,0-0.2,0-0.3,0c-1,0-2,0-3,0.1c-0.6,0-1.3,0-1.9,0c-0.1,0-0.1,0-0.2,0c-0.1-0.1-0.3-0.2-0.4-0.3c-0.2-0.2-0.5-0.2-0.6,0.1
	c-0.1,0.1-0.1,0.3-0.1,0.4c0,0.1,0,0.3,0.2,0.3c0.1,0.1,0.2,0.2,0.3,0.3c0.2,0,0.2,0,0.5-0.4c0.2,0,0.4,0,0.6,0c1,0,2,0,3,0
	c0.4,0,0.9,0,1.3,0c0.3,0,0.6,0,0.9,0C37.3,4.1,37.3,4.1,37.3,3.8z M78.3,12.5c0-0.1,0-0.2,0-0.4s0-0.4-0.1-0.6
	C78.1,10.7,78.1,9.9,78,9c0-0.4-0.1-0.7-0.1-1.1c0-0.7,0-1.4,0-2.1c-0.2,0-0.4,0-0.5,0c0,0.1,0.1,0.2,0.1,0.3c0,0.1,0,0.2,0,0.3
	c0,0.1,0,0.1,0,0.2c0,0.5,0.1,1,0.1,1.5s0,1,0.1,1.5c0,0.5,0.1,1.1,0.1,1.6c0,0.1,0,0.3,0,0.4c0,0.2,0,0.4-0.1,0.6
	C77.8,12.6,78,12.5,78.3,12.5z M45.1,31.1c0.4-0.1,0.1-0.8,0.1-0.8c-0.1,0,0-1,0-1.1c0-0.2-0.1-2.5-0.1-3.5c0-1.3,0-2.6-0.1-3.8
	c0-0.3,0-0.6,0-0.9h-0.1c0,0.1-0.1,0.2-0.1,0.3c0,0.1-0.1,0.2-0.1,0.3c0,0.1,0,0.2,0,0.3c0,1.1,0,2.2,0,3.3
	c-0.1,1.3,0.4,5.1-0.1,5.1C44.1,30.6,44.2,31.2,45.1,31.1z M15.1,22.3c-0.2,0-0.3,0-0.5-0.1c0.1,1.7,0.2,3.3,0.3,5
	c0.2-0.1,0.3-0.2,0.5-0.3c0.1-0.1,0.1-0.2,0.1-0.3c0-0.1,0-0.2,0-0.2c-0.1-1.1-0.2-2.2-0.2-3.4C15.3,22.8,15.3,22.5,15.1,22.3z
	 M15.7,23c-0.1,0.5,0.2,3.4,0.2,3.5c0.3-0.2,1.3-0.9,1.5-1.1C16.8,24.6,16.2,23.8,15.7,23z M50.7,21.5c0,0.1,0,0.2,0,0.3
	c0,0.1,0,0.2,0,0.3c0,0.3,0,0.6,0,0.8c0.1,1.8,0.1,4.6,0.3,6.3c0,0.1,0,0.2,0,0.3c0,0.4,0,0.5,0,0.7c0,0.1-0.1,0.3,0,0.6
	c0.1,0.4,0.8,0.3,1,0c0,0,0.2-0.6-0.6-0.5c0-0.1,0-0.1,0-0.2c0-0.2,0-0.4,0-0.6c0-1-0.1-2.9-0.1-3.9s-0.1-2-0.1-3c0-0.2,0-0.5,0-0.7
	C51.2,21.5,51.1,21.5,50.7,21.5z M38.2,13.1c-0.1,0.3,0.2,4.9,0.3,5.2c0.1,0,0.3,0,0.4,0C39,18.2,39,18,39,17.9
	c0-0.5-0.1-1.1-0.1-1.6c0-0.7-0.2-3-0.3-3.1C38.6,13.1,38.4,13.1,38.2,13.1z M50.9,11.8c0-0.1,0-0.3,0-0.4c-0.1-0.3-0.1-0.6-0.1-1
	c0-0.5,0-1.1,0-1.6s0-1,0-1.5c0-0.4,0-0.8,0-1.2c0-0.6,0-1.2,0-1.8c-0.1,0.1-0.2,0.1-0.4,0.2c-0.1,0.8,0,1.7,0,2.5s0,1.6,0,2.5
	c0,0.8,0.1,1.6,0,2.5C50.6,11.9,50.7,11.9,50.9,11.8z M48.8,18c0.2,0.3,1.6,2,1.8,2.1c0-1-0.1-2-0.1-2.9c-0.4-0.1-0.6,0-0.9,0.2
	c-0.1,0.1-0.2,0.2-0.3,0.2C49.1,17.7,49,17.8,48.8,18z M26.6,26.4c-0.6,0-1.2,0.1-1.8,0.1c0.6,1.1,1.8,3.2,1.9,3.2
	C26.7,28.5,26.6,27.5,26.6,26.4z M62.8,3.7L62.8,3.7c-0.2,0.2-0.5,0.2-0.8,0.2c-0.5,0-1,0-1.4,0c-0.9,0-1.8,0-2.7,0
	c-0.3,0-0.6,0-0.8-0.3c-0.1-0.1-0.2-0.2-0.4-0.2s-0.3,0.1-0.3,0.2c0,0.2,0,0.3,0.1,0.5c0.2,0.2,0.4,0.2,0.6,0.1
	c0.2-0.1,0.3-0.1,0.2,0c0.4,0,0.7,0.1,1,0.1c1.3,0,2.6-0.1,3.9-0.1c0.1,0,0.3,0,0.4,0c0.2,0,0.2,0,0.2-0.2C62.8,4,62.8,3.9,62.8,3.7
	z M50.9,4.3c0.1,0,0.2,0,0.3,0c1.3,0,2.5-0.1,3.8-0.1c0.5,0,0.9,0,1.4,0c-0.2-0.2-0.2-0.4-0.2-0.7C56.1,3.7,56,3.7,56,3.8
	C56,4,55.8,4,55.7,4c-0.4,0-0.9,0-1.3,0c-0.5,0-0.9,0-1.4,0c-0.6,0-2.2-0.1-2.2-0.1c-0.4-0.3-0.7-0.4-1,0c0.1,0,0.1,0.9,0.9,0.4
	C50.9,4.1,50.9,4.2,50.9,4.3z M32.2,12.9C32.1,12.9,32.1,12.9,32.2,12.9c-0.1,0.1-0.1,0.2-0.2,0.2c-0.1,0.1-0.1,0.2-0.1,0.3
	c0,0.4,0,0.8,0,1.1c0.1,1.8,0.1,3.5,0.2,5.3c0,0.2,0,0.3,0.2,0.4c0.2-0.1,0.3-0.2,0.3-0.4c0-0.3,0-0.7,0-1c-0.1-1.9-0.2-3.7-0.3-5.5
	C32.2,13.1,32.2,13,32.2,12.9z M39.6,30.9c0.2-0.3-0.1-0.4-0.3-0.4c0,0-0.1-1.1-0.1-1.2c0-0.2,0-0.4,0-0.7c0-1.6,0-3.3,0-4.9
	c0-0.6,0-1.3,0-1.9c0-0.3-0.1-0.3-0.3-0.2c0,0.2,0,0.5,0,0.7s0,0.3,0,0.5c0,0.6,0,1.3,0,1.9c0,0.4,0,0.8,0,1.2c0,0.8,0,1.6,0,2.5
	c0,0.3,0,0.7,0,1c0,0.1,0.1,1.1-0.1,1.2C38.6,31,39.4,31.2,39.6,30.9z M57.2,20.7c-0.1,0-0.1,0-0.2,0c-0.4,0-0.8,0-1.2,0
	c-1.4,0-2.8,0-4.2,0.1c-0.1,0-0.2,0-0.3,0c0.1,0.1,0.1,0.3,0.2,0.4c0.1,0,0.2,0,0.3,0c1.4,0,2.8,0,4.2-0.1c0.4,0,0.8,0,1.1-0.1
	C57.1,21,57.1,20.9,57.2,20.7z M25.1,13.1C25.1,13.1,25.1,13,25.1,13.1C25.1,13,25.1,13,25.1,13.1c0-0.2,0-0.3,0.1-0.2
	c0.1,0,0.1,0.1,0.1,0.1c0,0.3,0.2,0.4,0.5,0.4c0.1,0,0.2-0.1,0.2-0.1c0-0.1,0.1-0.2,0.2-0.3c-0.1-0.2-0.5-0.4-0.7-0.4
	c0,0-0.1,0-0.1,0.1c-0.1,0.2-0.6,0.1-0.7,0.1c-0.8,0-3.3,0.1-3.7,0.2c-0.1,0-0.1,0.4-0.1,0.3C20.9,13.5,24.9,13.2,25.1,13.1z
	 M79.7,31c0.1,0,0.1,0,0.2,0c0.3,0,0.6,0,0.9,0c0.6,0,5.1-0.1,5.2,0.2c0.1,0.2,0.5,0.3,0.7,0c0.3-0.4-0.2-0.6-0.2-0.7l-0.1-0.1
	l-0.1,0.1c0,0.1-0.3,0.2-0.3,0.2c-0.4,0-0.7,0.1-1.1,0.1c-0.5,0-1,0-1.5,0c-0.6,0-1.3,0-1.9,0c-0.5,0-1,0-1.6,0
	C79.7,30.8,79.7,30.9,79.7,31z M26.3,13c0.4,0,4.7-0.2,4.9-0.2c0-0.1-0.1-0.3-0.1-0.4c-0.2,0-0.4,0-0.5,0c-0.5,0-1,0.1-1.5,0.1
	c-0.8,0-1.6,0.1-2.5,0.1c-0.1,0-0.3,0-0.4,0.1C26.3,12.8,26.3,12.9,26.3,13z M32.8,29.9c0.2,0,0.2-0.7,0.2-0.8c0-0.1,0-0.1,0-0.2
	c0-0.5,0-1.1,0-1.6c0-1,0-1.9,0-2.9c0-0.2,0-0.4,0-0.5s0-0.2,0-0.4c-0.1,0.1-0.3,0.2-0.4,0.3c-0.1,0.2,0,4,0,4.9
	C32.6,28.9,32.6,29.7,32.8,29.9z M44.5,3.8L44.5,3.8c-0.2-0.3-0.3-0.4-0.5-0.4c-0.1,0-0.2,0-0.2,0c-0.2,0-0.5,0.2-0.4,0.4
	c0.1,0.3,0.3,0.4,0.4,0.5c0.2,0.2,0.4,0.3,0.5,0V4.2c0-0.2,0.1-0.3,0.3-0.2h0.1c0.4,0,0.7,0,1.1,0c0.4,0,0.7,0,1.1,0
	c0.9,0,1.9,0,2.8,0c0-0.1,0-0.1,0.1-0.2c-0.1,0.1-3.1,0-3.9,0C45.4,3.8,45,3.8,44.5,3.8z M19.3,3.4L19.3,3.4
	c-0.1,0.1-0.3,0.1-0.4,0.1c-0.5,0-1,0-1.6,0c-0.7,0-1.4,0.1-2.1,0.1c-0.2,0-0.3,0.1-0.5,0.1c-0.1,0-0.1,0-0.2-0.1
	c0-0.1,0-0.1,0.1-0.2c0-0.1,0-0.2,0-0.2c0-0.1-0.4-0.2-0.5-0.1c-0.2,0.1-0.4,0.3-0.4,0.5c0,0.1,0.1,0.3,0.1,0.5l0,0
	C14,4,13.9,4.2,14,4.3c0.3-0.1,0.4-0.4,0.6-0.6c0.1,0,0.3-0.1,0.3,0c0,0.3,3.7,0.1,4.1,0.1C19.2,3.9,19.2,3.6,19.3,3.4z M26.8,21.1
	c0.4,0,3.9-0.3,4-0.2c0.3,0.1,0.6-0.1,0.9-0.3l0.1-0.1c-0.1,0-0.2,0-0.3,0c-1.1,0.1-4.1,0.3-4.5,0.3c-0.2,0-0.3,0-0.3,0.1
	c-0.1,0-0.3-0.2-0.3-0.2c-0.2-0.1-0.2,0.2-0.3,0.3c0,0.1,0.1,0.3,0.2,0.3s0.3,0,0.3-0.1C26.6,21.1,26.8,21.1,26.8,21.1z M21,21.1
	c-0.8-0.2-0.8,0.3-0.7,0.5c0.1,0.2,0.7,0.4,0.8,0.1v-0.2c0.1,0,4.8-0.1,5-0.2c0-0.1,0-0.2,0-0.3c-0.1,0-0.2,0-0.3,0
	C24.2,21,22.6,21,21,21.1z M20.3,26.8c-0.6-0.1-1,0.2-1.4,0.6c0.5,0.7,0.9,1.3,1.4,1.9l0,0C20.3,28.4,20.3,27.6,20.3,26.8z
	 M66.5,8.1c-0.3,0.2-1.2,1.3-1.2,1.4c0.8,0,1.7,0,2.6,0C67.3,9,66.9,8.6,66.5,8.1z M37.9,12.3c-0.4,0-0.8,0-1.3,0
	c-0.3,0-0.6,0-0.9,0c-1.1,0-2.2,0-3.3,0c-0.1,0-0.1,0-0.2,0c0,0.1,0.1,0.2,0.1,0.2c1.8,0.2,3.7,0.1,5.5,0.1
	C37.8,12.6,37.9,12.5,37.9,12.3z M44.2,13.4c0,0.4,0,0.9,0,1.3c0,0.8,0,1.6,0,2.4c0,0.2,0,0.4,0.1,0.6c0.1-0.1,0.2-0.1,0.3-0.2
	s0.2-0.2,0.1-0.3c0-0.2,0-0.5,0-0.7c0-0.6-0.1-1.2-0.1-1.7s0-1,0-1.5c0-0.1,0-0.1,0-0.2C44.4,13.3,44.3,13.3,44.2,13.4z M25.8,13.5
	c0,0.5,0,1.1,0.1,1.6c0.1,1.2,0.1,2.4,0.2,3.6c0,0.5,0.1,1,0.1,1.6c0,0.1,0,0.2,0,0.3c0.1,0,0.2,0,0.2-0.1s0-0.2,0-0.3
	c-0.1-1.1-0.1-2.2-0.2-3.3c-0.1-1.1-0.1-2.2-0.2-3.2v-0.1C25.9,13.5,25.9,13.5,25.8,13.5z M45.4,30.9c0.2,0,1.6-0.1,2.2-0.1
	c0.5,0,1.1,0,1.6,0c0.4,0,0.9,0,1.3-0.1c0,0,0,0,0.1,0c0-0.1,0-0.1,0-0.1C48.8,30.6,45.4,30.8,45.4,30.9z M19.4,13
	c-0.1,0-0.2,0-0.3,0c-0.9,0-1.7,0.1-2.6,0.2c-0.4,0-0.8,0-1.2,0.1c-0.2,0-0.2,0-0.2,0.3c0.2,0.1,3.8,0,4.3-0.1
	C19.4,13.3,19.4,13.1,19.4,13z M43.7,12.5c-0.5,0-0.9,0-1.3,0c-0.6,0-1.2,0-1.9-0.1c-0.1,0-0.2,0-0.3,0s-0.2,0-0.3,0
	c-0.3,0-0.6,0-1,0c-0.1,0-0.2,0-0.2,0.1s0.1,0.2,0.2,0.2H39c0.4,0,0.7,0,1.1,0c1,0,1.9,0,2.9,0.1c0.1,0,0.2,0,0.4,0
	C43.5,12.8,43.6,12.7,43.7,12.5C43.8,12.7,43.7,12.6,43.7,12.5z M63.7,30.6c0-0.2-0.2-0.2-0.4-0.2c-1.2,0-2.4,0.1-3.6,0.1
	c-0.3,0-1.4,0-1.4,0s0,0.2,0,0.3C58.3,30.8,63.4,30.8,63.7,30.6z M50.2,12.9c-0.9,0.8-1.8,1.6-2.7,2.4l0,0c0.1,0,0.1-0.1,0.2-0.1
	c0.4-0.3,0.7-0.5,1.1-0.8c0.1-0.1,0.3-0.2,0.5-0.1c0.2,0,0.5,0,0.7,0c0.3,0,0.3,0,0.3-0.3S50.3,13.3,50.2,12.9
	C50.3,13.1,50.2,13,50.2,12.9z M21,23.7c0-0.6,0-1.2,0-1.8c-0.1,0-0.3,0-0.4,0s-0.2-0.1-0.3-0.1c0,0.4,0,1.7,0.1,1.9
	C20.6,23.7,20.8,23.7,21,23.7z M39.4,31.2c0.1,0,4-0.1,4.9-0.1c0-0.5-0.3-0.3-0.8-0.3c-1.1,0-2.3,0-3.5,0c-0.1,0-0.2,0-0.3,0
	C39.8,31,39.6,31.1,39.4,31.2z M9.6,13.9c0.5,0,3.2-0.1,3.9-0.1c0.2,0,0-0.2,0-0.4c-0.7,0,0.3,0-0.4,0s-2.9-0.2-3.6,0
	C9.6,13.5,9.6,13.8,9.6,13.9z M22.4,23.7C22.4,23.6,22.4,23.6,22.4,23.7c-0.4-0.6-0.8-1.2-1.2-1.7c0,0.6,0,1.2,0,1.8
	C21.6,23.7,22,23.7,22.4,23.7z M52.2,30.9c0.1,0.1,3.2,0,4,0c0.5,0,0.7,0,1,0c-0.1,0-0.1-0.2-0.2-0.2c-0.2,0-0.5,0-0.7,0
	s-0.4,0-0.6,0c-0.9,0-1.7,0-2.6,0c-0.3,0-0.5,0-0.8,0C52.5,30.8,52.3,30.9,52.2,30.9z M12.5,26.2c-0.2,0.3-0.6,1.1-0.7,1.3
	c0.5,0,1.1,0,1.6-0.1C13.2,27,12.9,26.6,12.5,26.2z M20.1,23.8c0-0.6,0-1.1,0-1.7c-0.2,0.2-1.1,2.1-1.1,2.3c0.2-0.2,0.8-0.7,0.9-0.7
	C19.9,23.8,20,23.8,20.1,23.8z M50.9,17.1c-0.1,0-0.2,0-0.3,0c0,0.1,0,0.1,0,0.2c0,0.6,0,1.3,0.1,1.9c0,0.4,0,0.8,0.1,1.2
	c0,0.1,0,0.2,0.1,0.3c0.1-0.1,0.1-0.2,0.1-0.3c0-1-0.1-2.1-0.1-3.1C50.9,17.2,50.9,17.2,50.9,17.1z M26.3,23.5c0-0.5,0-1-0.1-1.6
	c-0.3,0.3-0.9,1.4-0.9,1.6C25.6,23.5,25.9,23.5,26.3,23.5z M14.8,30.1C14.8,30,14.8,30,14.8,30.1C14.7,30,14.6,30,14.5,30
	c-0.9,0-1.8,0-2.6,0.1c-0.4,0-0.8,0-1.2,0c-0.1,0-0.2,0-0.2,0.2C11.9,30.2,13.4,30.1,14.8,30.1z M56.5,13.2c-0.2,0.1-0.8,1-0.8,1.2
	c0.3,0,0.6,0,0.9,0C56.6,14,56.6,13.6,56.5,13.2C56.6,13.2,56.5,13.2,56.5,13.2z M26.8,23.4c0-0.7-0.1-1.4-0.1-2.1
	c-0.1,0.1-0.2,0.1-0.3,0.2c0.1,0.6,0.1,1.3,0.2,1.9C26.6,23.4,26.7,23.4,26.8,23.4z M3.5,30.6c0,0.2,0.1,0.5,0.3,0.6
	c0.1,0,0.4-0.1,0.5-0.2c0.1-0.1,0.2-0.3,0.2-0.5s-0.1-0.3-0.3-0.3C3.7,30.2,3.6,30.5,3.5,30.6z M52,14.4c-0.3-0.4-0.8-1-1-1.1
	c0,0.4,0,0.8,0.1,1.1C51.4,14.4,51.7,14.4,52,14.4z M50.5,12.9c0,0.5,0.1,1,0.1,1.5c0.1,0,0.1,0,0.2,0h0.1c0-0.5,0-1,0-1.5
	C50.7,12.8,50.6,12.9,50.5,12.9z M58.6,13.2c-0.4,0-0.7,0-1,0c0,0.3,0,0.5,0,0.8c0.1-0.1,0.1-0.1,0.2-0.1
	C58,13.7,58.3,13.4,58.6,13.2z M31.4,12.6c0,0.2,0.2,0.4,0.4,0.4c0.2,0,0.2-0.3,0.3-0.3c0,0,0,0,0-0.1s0-0.2-0.1-0.3
	c-0.1,0-0.2-0.1-0.3-0.1C31.5,12.3,31.5,12.4,31.4,12.6z M50.2,12.5c0.2,0.2,0.2,0.2,0.5,0c0.1-0.1,0.2-0.1,0.1-0.3
	c0-0.1-0.1-0.2-0.2-0.2C50.5,12.2,50.4,12.3,50.2,12.5z M76,18.8c-0.2-0.3-1.8-1.9-2-2C74.6,17.5,75.3,18.1,76,18.8z M77.8,3.7
	c-0.1-0.1-0.1-0.2-0.2-0.3c-0.3,0-0.6-0.1-0.8,0.3C77.1,3.7,77.4,3.7,77.8,3.7z M50.7,21.1c0,0.1,0.1,0.3,0.3,0.2
	c0.1,0,0.2-0.1,0.2-0.3c0-0.1-0.2-0.3-0.2-0.3C50.8,20.8,50.7,20.9,50.7,21.1z M33.2,30.3c-0.3,0-0.4,0.3-0.4,0.4
	c0.1,0.3,0.4,0.4,0.6,0.1C33.6,30.5,33.5,30.4,33.2,30.3z M64.5,20.8c0.2,0,0.3-0.1,0.3-0.2s0-0.2-0.1-0.2s-0.2,0-0.2,0.1
	C64.4,20.6,64.4,20.7,64.5,20.8z M10,30.4c0.2-0.1,0.3-0.2,0.3-0.4H10C9.9,30.2,10,30.4,10,30.4z M63.7,12.4
	c-0.1,0.1-0.3,0.2-0.4,0.3l0,0c0.1,0,0.2,0,0.3,0C63.6,12.6,63.6,12.6,63.7,12.4z"/>
</svg>
