<?xml version="1.0" encoding="utf-8"?>
<!-- Generator: Adobe Illustrator 19.2.1, SVG Export Plug-In . SVG Version: 6.00 Build 0)  -->
<svg version="1.1" id="Layer_1" xmlns="http://www.w3.org/2000/svg" xmlns:xlink="http://www.w3.org/1999/xlink" x="0px" y="0px"
	 viewBox="0 0 89.5 56.5" style="enable-background:new 0 0 89.5 56.5;" xml:space="preserve">
<style type="text/css">
	.st0{fill:#565A5C;}
</style>
<path class="st0" d="M13.3,3.7c0.1-0.3,0.3-0.6,0.6-0.7c0.2-0.1,0.6,0,0.7,0.2c0.1,0.2,0.3,0.3,0.5,0.2c1.1-0.1,2.2-0.1,3.3-0.2
	c0.2,0,0.4,0,0.7,0c0.1,0,0.2,0,0.3-0.1c0.1-0.2,0.3-0.3,0.5-0.3c0.4,0,0.6,0.2,0.7,0.6l0,0.1c0.5,0,1,0,1.6,0c0.7,0,1.4,0,2.2,0
	c0.1,0,0.4-0.4,0.5-0.6c0.2-0.1,0.6-0.1,0.7,0C25.7,3.1,26,3.5,26,3.6c0.2,0,0.5,0.1,0.7,0.1c0.4,0,0.8,0,1.3,0c0.7,0,1.4,0,2,0
	c0.1,0,0.1,0,0.2-0.1c0.2-0.1,0.5-0.3,0.7-0.4c0.2-0.1,0.5,0,0.7,0.3c0.1,0.1,0.2,0.1,0.3,0.1c1.1,0,2.2,0,3.4,0c0.3,0,1.2,0,1.3,0
	c0.7,0.1,0.8-0.3,1-0.4c0,0,0.7,0,0.7,0.3c0.2,0,0.3,0,0.5,0c1.3,0.1,2.7,0,4,0c0.1,0,0.2-0.1,0.2-0.1c0.1,0,0.1-0.1,0.2-0.2
	C43.4,3,43.6,3,43.9,3.1l0.1,0c0.3,0,0.4,0.1,0.5,0.4c0,0.1,0.2,0.1,0.3,0.1c0.3,0,3.9-0.1,4.6-0.1c0.1,0,0.9-0.4,1.3-0.2
	c0.1,0.1,0.6,0.4,0.7,0.4c0.4,0,0.9,0,1.3,0c0.9,0,1.9-0.1,2.8-0.1c0.2,0,0.3,0,0.4-0.2c0.2-0.3,0.6-0.3,0.9-0.3
	c0.2,0,0.4,0.4,0.5,0.4c0.1,0.1,0.2,0.2,0.4,0.2c0.8,0,1.5,0,2.3,0c0.7,0,1.4,0,2.1,0c0.2,0,0.3,0,0.4-0.2c0.2-0.2,0.5-0.3,0.8-0.3
	c0.1,0,0.2,0.1,0.2,0.2c0.1,0.2,0.3,0.2,0.5,0.2c1.2,0,2.4,0,3.6,0c0.4,0,0.7-0.1,1-0.3c0.3-0.3,0.7-0.3,1.1-0.3
	c0.4,0,0.5,0.2,0.6,0.5c1.8-0.1,3.7-0.1,5.5-0.2c0.1,0,0.2,0,0.4,0l0.1,0c0.1-0.1,0.2-0.1,0.3-0.2C77,2.9,77.7,3,78,3.5
	c0,0,0,0,0,0.1c0.7,0,1.4-0.1,2.1-0.1c0.8,0,1.5,0,2.3-0.1c0.6,0,1.3,0,1.9-0.1c0.1,0,0.1,0,0.2-0.1c0.3-0.4,0.7-0.4,1.2-0.3
	c0.2,0,0.4,0.2,0.4,0.4c0,0.1,0,0.2,0.1,0.4c0,0.2,0,0.4-0.1,0.5c-0.2,0.2-0.2,0.4-0.2,0.6c0.1,2.3,0.1,4.6,0.2,6.9
	c0,0.2,0,0.4,0.1,0.6c0.2,0.5,0.1,1-0.1,1.4c-0.2,0.2-0.2,0.4-0.2,0.5c0,0.1,0,0.2,0,0.3c0.1,0.8,0.1,1.6,0.2,2.4
	c0.1,0.7,0.1,1.5,0.2,2.2c0,0.2,0,0.5,0,0.7c0,0.1,0,0.2,0.1,0.2c0.1,0.1,0.2,0.3,0.3,0.4c0,0.1,0,0.2,0,0.2
	c-0.1,0.2-0.1,0.4-0.1,0.6c0.1,0.6,0.2,3.6,0.2,4.4c0.1,1.1,0.1,2.2,0.2,3.4c0,0.3,0,0.7-0.1,1c-0.1,0.1-0.1,0.3-0.2,0.4
	c-0.1,0.2-0.3,0.2-0.4,0.1c-0.3,0.1-0.6-0.4-0.7-0.4c-0.5,0-3.7,0.1-4.1,0.1c-0.3,0-0.6,0-0.9,0c-0.3,0-0.6,0-0.9,0
	c-0.1,0-0.2,0-0.4,0c-0.2,0.1-0.5,0.2-0.8,0.1c-0.1,0-0.3-0.1-0.4-0.1c-0.3-0.2-2.8-0.1-3.6-0.1c-0.6,0-2,0-2.2-0.1c0,0-0.1,0-0.2,0
	c-0.2,0.1-0.4,0.1-0.6,0.2c-0.1,0-0.2,0-0.4,0c-0.2,0-0.3-0.1-0.5-0.1c-0.1,0-0.2,0-0.3,0c-0.2,0-0.3,0-0.5,0c-0.6,0-1.1,0-1.7,0
	c-0.4,0-0.7,0-1.1,0c-0.7,0-1.4,0-2.1,0c-0.1,0-0.1,0-0.2,0c-0.1,0-0.1,0.1-0.2,0l-0.1,0c-0.3,0.1-0.6,0-0.9,0c-0.6,0-3.4-0.1-4.2,0
	c-0.4,0-0.7,0.1-1.1,0.2c-0.2,0.1-0.5,0.1-0.7,0s-0.5-0.1-0.8-0.1c-0.4,0-2.1,0.1-2.4,0.1c-0.6,0-2.5,0.2-2.8,0.2
	c-0.3,0-0.6,0-0.9-0.2l-0.1,0c-0.5,0-3.6,0-4,0c-0.3,0-1.1,0.1-1.1,0.1c-0.1,0.2-0.3,0.2-0.5,0.2c-0.4,0-0.7,0-1.1,0
	c-0.5,0-6.7,0-7.1,0c-0.7-0.1-8,0-8.4,0c-0.6,0-1.1,0.1-1.7,0.1c-0.3,0-4-0.1-4.5,0.1c-0.9,0.2-1.8,0.1-2.6,0.1c-1,0-2,0-3,0.1
	c-0.1,0-0.2,0-0.2,0.1c-0.3,0.3-0.6,0.2-0.9,0.1c-0.2-0.1-0.3-0.1-0.5-0.1c-0.7,0-1.3,0.1-2,0.1c-0.7,0-1.4,0.1-2,0.1
	c-0.2,0-0.4,0-0.5,0.2c-0.4,0.2-0.6-0.1-0.7-0.1c-1.1,0-2.1,0.1-3.2,0.1c-0.6,0-1.2,0.1-1.7,0.1c-0.2,0-0.3,0-0.4,0.2l0,0
	c-0.3,0.2-0.6,0.1-0.8-0.2c-0.2-0.3-0.2-0.6-0.2-0.9c0-0.1,0.1-0.2,0.1-0.2c-0.1-0.1-0.1-0.3-0.1-0.4c0-0.5-0.2-1.1-0.2-1.6
	c0-1.5,0-2.7,0.1-4.3c0-0.4,0-0.7,0-1.1c0-0.1-0.1-0.3-0.1-0.4C2.9,22.3,3,22,3.1,21.7c0-0.1,0-0.2,0-0.3c0-1-0.1-2-0.1-2.9
	c-0.1-1-0.1-2-0.2-3.1c0-0.3,0-0.6,0-0.9c-0.3-0.2-0.4-0.4-0.4-0.8c0-0.1,0.1-0.2,0.1-0.2c0.1-0.3,0-0.7,0-0.8
	c-0.1-2-0.3-4.1-0.4-6.1C2.1,6.1,2,5.5,2,5c0-0.1,0-0.2-0.1-0.3C1.8,4.6,1.8,4.5,1.8,4.4c-0.1-0.3,0-0.7,0.7-0.9
	c0.2-0.1,0.4,0.1,0.6,0.2l0.1,0.1c0.7,0,1.4,0,2.1,0c0.6,0,1.3,0,1.9,0c0.2,0,0.5,0,0.6-0.1l0.6-0.4C8.7,3.4,9,3.5,9.1,3.8
	c0.1,0,0.3,0,0.4,0c1.1,0,2.2-0.1,3.3-0.1C13,3.7,13.2,3.7,13.3,3.7c0,0.1,0.1,0.2,0.1,0.3C13.1,4,9,4,8.9,4
	c0.2-0.3-0.2-0.4-0.4-0.5c-0.1,0,0.2,0,0.2,0C8.3,3.5,8.2,3.8,8.3,4c0,0,0,0.1,0.1,0.1C8.3,4.2,8.3,4.3,8.3,4.5
	c0,0.4,0.1,3.4,0.2,4.4c0,0.7,0.3,2.8,0.4,3.3c0,0.4,0.1,0.7,0.1,1c-0.1,0.1-0.3,0.1-0.3,0.2c-0.2,0.2-0.1,0.5,0.1,0.7
	C9,14.2,9,14.4,9.1,14.6c0,1.2,0,2.4,0.1,3.6c0,1,0.1,2,0.2,3.1c0,0.1,0,0.1,0,0.2c-0.1,0.2-0.2,0.3-0.4,0.2c-0.1,0-0.1-0.1-0.1-0.1
	c-0.1-0.3-4.2-0.3-4.3-0.4c-0.2-0.1-0.9,0.1-1,0.4c-0.1,0.2,0.2,0.8,0.5,0.7c0,0,0.3,0,0.3-0.1c0.1-0.1,0.4-0.1,0.5-0.1
	c0.6,0,1.1,0,1.7,0.1s1.2,0.1,1.8,0.1c0.3,0,0.5,0.1,0.6,0.4c0,0.1,0.1,0.2,0.2,0.2c0.2,0,0.2,0.2,0.2,0.4c0,0.2,0,0.5,0,0.7
	c0.1,1.2,0.2,2.3,0.2,3.5c0,0.1,0,0.2,0,0.3c0.1,0,0.2,0,0.2-0.1c0-0.1,0-0.3,0-0.4c-0.1-1.4-0.2-2.8-0.2-4.2c0-0.1,0-0.2,0.1-0.3
	c0.1-0.2,0-0.4,0.1-0.5c0,0,0.5,0,0.7,0c1-0.1,3.6,0,3.7-0.2c0-0.1-0.1-0.2,0-0.3c-0.4,0-0.8,0-1.1,0c-0.5,0-1.1,0-1.6,0
	c-0.4,0-0.8,0-1.3,0c-0.1,0-0.2,0-0.3-0.1c-0.1-0.2-0.2-0.3-0.4-0.2c0-0.1,0-0.2,0-0.3c-0.1-1.6-0.2-3.1-0.2-4.7
	c0-0.6-0.1-1.2-0.1-1.8c0-0.1,0.1-0.4,0.2-0.4c0.1-0.3,0-0.5-0.2-0.7C9.1,13.4,9,13.3,9,13c0-0.7,0-1.6-0.1-2.3
	c-0.1-1.1-0.2-1.9-0.2-3c-0.1-1-0.1-1.9-0.2-2.9c0-0.1,0-0.2,0-0.2c0.2,0,0.4-0.1,0.5-0.1c1.4,0,2.9,0,4.3,0
	C13.5,4.5,13.5,3.8,13.3,3.7z M57.9,21c0,0.2,0.2,0.1,0.3,0.1c1.8,0,3.6,0,5.4-0.1c0.2,0,0.4,0,0.7,0c-0.1-0.2-0.1-0.3-0.2-0.4
	c-0.2,0-0.4,0-0.5,0s-0.2,0.1-0.3,0.1c-0.1,0-0.3,0-0.4,0c-0.3,0-0.5,0-0.8,0c-0.6,0-1.2,0-1.8,0c-0.6,0-1.3,0-1.9,0
	C58.3,20.8,58.1,20.8,57.9,21c0-0.1,0-0.3-0.2-0.3c-0.1-0.1-0.2-0.1-0.2-0.3c0-0.3,0-0.6-0.1-0.9c0-0.7,0-1.3-0.1-2
	c0-0.1,0-0.2,0-0.3c-0.2,0-0.3,0-0.4,0c0,0.4,0,0.7,0,1c0,0.7,0.1,1.4,0.1,2.2c0,0.1,0.1,0.3,0.1,0.4c0,0.3,0,0.7,0,1
	c0,0.5,0,1.1,0,1.6c0,0.4,0,0.9,0.1,1.3c0,0.8,0,1.6,0.1,2.4c0,0.8,0,1.6,0,2.3c0,0.1,0,0.1,0,0.2c-0.1,0.2,0,0.3,0.1,0.3
	c0.1,0,0.3,0,0.3,0c-0.1,0-0.1,0.1-0.2,0.1c0.2,0.1,0.4,0.2,0.6,0.1c0.1,0,0.2-0.1,0.2-0.1c0-0.1,0-0.2-0.1-0.3L58,29.6
	c-0.1,0-0.1-0.1-0.2-0.1c-0.1,0.1-0.1,0.2-0.1,0.2s0,0-0.1,0c0-0.1,0-0.1,0-0.2c0-0.4-0.1-0.8-0.1-1.2c-0.1-2.2-0.1-4.4-0.2-6.6
	c0-0.1,0-0.2,0-0.3c0-0.1,0-0.2,0.1-0.2C57.8,21.2,57.8,21.1,57.9,21z M62.4,19.5c-0.1-0.1-0.3-0.2-0.4-0.3
	c-0.3-0.3-0.6-0.6-0.9-0.9c-0.3-0.3-0.6-0.5-1-0.8c-0.1,0.1-0.1,0.1-0.2,0.2c-0.7,0.8-1.4,1.5-2.1,2.3c-0.1,0.1-0.2,0.3-0.1,0.5
	c0.1-0.1,0.2-0.1,0.2-0.1c0.1,0.2,0.2,0.2,0.4,0.1c1.1,0,2.2-0.1,3.3-0.1c0.5,0,2,0,2.1,0C63.6,20.2,62.6,19.6,62.4,19.5z M78.5,21
	c0.1,0,0.1,0,0.2,0c0.1,0,0.2,0.1,0.3,0.1c0.9,0,1.8,0,2.7,0c0.5,0,2.9-0.2,3.6-0.2c0.1,0,0.2,0.1,0.2,0.2c0,0.2,0,0.3,0.2,0.3
	c0.1,0,0.2,0,0.2,0.1c0,0.2,0.3,7.6,0.3,7.7c0.2,0,0.3,0.1,0.4,0.1c0-0.5-0.2-4.3-0.1-5c0-0.5-0.3-3.3-0.2-3.4
	c0.1-0.1,0.2-0.3,0.2-0.3c0-0.4-0.3-0.3-0.5-0.4c0-0.1,0.1-0.2,0-0.4c0-0.2,0-0.4,0-0.7c-0.1-1.7-0.2-3.5-0.4-5.2
	c0-0.1,0-0.2,0.1-0.3c0.2-0.2,0.3-0.6,0.2-0.9c0-0.3-0.1-0.4-0.4-0.5c-0.2-0.1-0.3-0.1-0.4,0.2c-0.1,0-0.2,0-0.3,0
	c0,0.1,0,0.2,0,0.3c-0.1,0-0.2,0-0.3,0c-0.2,0-0.5-0.1-0.7-0.1c-0.4,0-0.8,0-1.2,0.1c-0.8,0.1-1.7,0.1-2.5,0.2
	c-0.4,0-0.8,0.1-1.2,0.1l-0.1,0c-0.1-0.1-0.3,0-0.4,0c0,0.2,0,0.3-0.1,0.5c0.2,0,0.4,0,0.5,0c1.7-0.1,3.4-0.2,5.1-0.3
	c0.3,0,0.5,0,0.8-0.1c0,0.3,0.2,0.5,0.5,0.5c0.1,2.1,0.2,4.1,0.3,6.2c0.1,0.1,0.3,0.1,0.3,0.3c-0.1,0-0.2-0.1-0.3,0.1
	c0.1,0.2,0.3,0.2,0.3,0.4c-0.2-0.1-0.3-0.3-0.5-0.4c0,0.1-0.1,0.1-0.1,0.2c0,0.1-0.1,0.2-0.2,0.2c-0.3,0-0.6,0.1-0.9,0.1
	c-1.2,0-2.4,0-3.5,0c-0.5,0-1,0-1.5,0C79,20.7,78.7,20.7,78.5,21c-0.1,0.1-0.2,0.2-0.2,0.4c0,0.2,0,0.4,0,0.5c0,0.4,0.1,0.7,0.1,1.1
	c0,0.5,0,1,0,1.6c0,0.5,0,1,0,1.6c0,0.7,0,1.5,0,2.2c0,0.2,0,0.4,0.1,0.6c0,0.1,0,0.2,0,0.2c-0.2,0.1-0.2,0.3-0.2,0.4l0,0.1
	c0,0,0,0-0.1,0c0-0.1-0.1-0.2-0.1-0.3c-0.1,0-0.2,0-0.3,0c-0.1,0-0.2,0-0.3,0c-0.7,0-1.4,0-2,0c-0.7,0-1.4,0-2.2,0
	c-0.1,0-0.2,0-0.3,0c-0.3,0-0.6,0-0.9,0c-0.2,0-0.4,0-0.5-0.1c0-0.3,0-0.6,0-0.8c0-0.1,0-0.2,0-0.3c-0.1-2.2-0.1-4.4-0.1-6.6
	c0-0.2,0-0.3-0.2-0.4c0,0-0.1,0-0.1,0.1c-0.3,0.1-0.3,0.2-0.3,0.4c0,0.6,0,1.1,0,1.7c0,1.6,0,3.3,0,4.9c0,0.4,0,0.8-0.1,1.2
	c-0.4,0-4.9,0.1-5.8,0.1c-0.2,0-0.4,0.3-0.4,0.3c0.1,0,0.1,0,0.2,0c0.3,0,5.8-0.1,5.9-0.2c0.2-0.1,0.2-0.1,0.3,0.1
	C71,30,71.1,30,71.2,30c0.2,0,0.3-0.1,0.3-0.2c0-0.2,0.6-0.1,0.7,0l5.5,0.1c0.1-0.1,0.2,0,0.4,0c-0.1,0.1,0.1,0.2,0.1,0.2
	c0.3,0.1,0.6,0.1,0.9-0.1c0-0.1-0.1-0.2-0.1-0.2c0-0.3-0.1-0.4-0.3-0.6c0,0-0.1-0.1-0.1-0.2c0-0.6-0.1-1.2-0.1-1.8
	c0-0.6-0.1-1.2-0.1-1.8s0-1.2,0-1.8c0-0.2,0-0.4,0-0.7c0-0.2,0-0.4,0-0.6C78.6,21.8,78.5,21.4,78.5,21z M85.6,21.8
	c-0.1,0.1-0.1,0.2-0.2,0.3c-0.3,0.4-0.7,0.8-1,1.2c-0.6,0.7-1.1,1.4-1.7,2.1l-0.1,0.1c-0.1,0.1-0.1,0.2,0,0.3
	c0.2,0.2,0.4,0.4,0.5,0.6c0.9,1,1.7,1.9,2.6,2.9c0.1,0.1,0.1,0.1,0.2,0.3c0-0.3,0.1-0.5,0.1-0.7c0-0.2,0-0.3,0-0.5
	c0-0.4,0-2.6-0.1-3.3C85.9,24.8,85.7,21.8,85.6,21.8z M78,21.3c-0.1-0.2-0.2-0.2-0.4-0.2c-0.2,0-0.5,0.1-0.7,0.1c-0.3,0-0.6,0-0.9,0
	c-0.4,0-0.9,0-1.3,0c-0.8,0-1.5,0-2.3,0c-0.3,0-0.5,0-0.8,0c-0.1,0.2,0.1,0.3,0.2,0.4c1,1.2,2.1,2.5,3.1,3.7c0,0.1,0,0.1,0,0.2
	C76,24,77,22.6,78,21.3z M78.9,21.3c1.2,1.4,2.4,2.7,3.6,4.1c1-1.3,2-2.6,3-3.9c0,0-0.4-0.4-0.7-0.4c-0.3,0-3.7,0.2-5.1,0.2
	C79.4,21.3,79.1,21.3,78.9,21.3z M79.2,29.5c1-1.3,2-2.6,3-3.9l-0.1-0.1c-0.5-0.5-3.3-3.9-3.5-4c0,0.1,0,0.2,0,0.3
	c0,0.5,0.1,1,0.1,1.5c0.1,1.9,0.2,3.7,0.2,5.6C79.1,29.1,79.1,29.3,79.2,29.5z M50.2,12.4c-1.1-1.4-2.1-2.7-3.1-4.1
	C47,8.4,47,8.4,46.9,8.5c-0.3,0.3-0.6,0.7-0.9,1c-0.5,0.5-0.9,1.1-1.3,1.6c0,0.1-0.1,0.1-0.1,0.2c0,0.4,0,0.8,0,1.2
	C46.5,12.5,48.3,12.4,50.2,12.4z M63.8,13.5L63.8,13.5c-1.2,1.2-2.3,2.5-3.5,3.7c0.2,0.2,0.3,0.4,0.5,0.5c0.4,0.4,0.9,0.8,1.3,1.1
	c0.6,0.5,1.1,1,1.7,1.4c0.1,0.1,0.1,0.2,0.3,0.1C64,18.1,63.9,15.8,63.8,13.5z M64.8,29.4c0.3,0.1,0.4,0,0.6-0.2
	c0.8-1.3,1.6-2.5,2.4-3.8c0-0.1,0.1-0.1,0.1-0.2c-1-1.2-2-2.4-3-3.6l0,0.1c0,0.7,0,1.4,0,2.1c0,0.4,0,0.8,0,1.2
	c0,0.9-0.1,1.8-0.1,2.7c0,0.3,0,0.6,0,1C64.9,28.9,64.9,29.1,64.8,29.4z M48,25.4c-0.1,0.1-1,1.4-1.5,2c-0.4,0.6-0.8,1.1-1.2,1.7
	c-0.1,0.1-0.1,0.2-0.1,0.3c0.1,0.1,0.2,0.1,0.3,0.1c0.2,0,0.5,0,0.7,0c1.5,0,2.9,0,4.4,0c0.1,0,0.1,0,0.2,0c0-0.1,0-0.2,0-0.3
	c0-0.2,0-0.4-0.2-0.6C49.8,27.7,48.1,25.6,48,25.4z M45.1,21.3c0,0.1,0,0.2,0,0.2c0,0.2,0,0.4,0.2,0.6c0,0,0,0.1,0.1,0.1
	c0.8,0.9,2.5,2.9,2.6,3c0.9-1.2,1.8-2.4,2.6-3.6c-0.1-0.1-0.1-0.1-0.1-0.2c-0.4,0-0.8,0-1.1,0c-0.9,0-1.7,0.1-2.6,0.1
	c-0.4,0-0.7,0.1-1.1,0.1c-0.1,0-0.3,0-0.4-0.2c0.1,0,0.2-0.1,0.3-0.1c0.4,0,0.7-0.1,1.1-0.1c0.3,0,0.7,0,1.1,0
	c0.8,0,1.5-0.1,2.3-0.1c0.1,0,0.1,0,0.2,0c0.1,0,0.2,0,0.3,0c0-0.1,0-0.2,0-0.4c-1.7,0-3.3,0.1-5,0.1C45.4,21,45.3,21.2,45.1,21.3z
	 M64.2,21.4c-0.2-0.1-0.3,0-0.4,0.2c-0.6,0.9-1.3,1.8-1.9,2.7c-0.3,0.4-0.6,0.8-0.9,1.2c0.5,0.6,1,1.2,1.5,1.8
	c0.5,0.6,1,1.2,1.5,1.8c0-0.1,0.1-0.2,0.1-0.3c0-1.4,0-2.7,0.1-4.1c0-0.1,0-0.1,0-0.2c0-0.3,0-0.5,0-0.8c0-0.3,0-0.6,0-0.9
	C64.1,22.4,64,21.9,64.2,21.4z M71.6,21.9c0,0.1,0,0.2,0,0.2c0.1,2.2,0.1,4.4,0.2,6.6c0,0.1,0,0.3,0,0.4l0,0.1c0.1,0,0.1,0,0.2,0
	l0.1-0.1c0.3-0.4,0.6-0.8,0.9-1.2c0.4-0.5,0.7-1,1.1-1.5c0.2-0.3,0.5-0.6,0.8-1c-0.1-0.1-0.2-0.2-0.3-0.3c-0.6-0.7-1.2-1.4-1.8-2.1
	c-0.3-0.4-0.7-0.8-1.1-1.2C71.6,21.9,71.6,21.9,71.6,21.9z M85.6,29.5c-1.1-1.2-2.2-2.4-3.3-3.6c0,0.1-0.1,0.1-0.1,0.1
	c-0.8,1.1-1.7,2.2-2.5,3.3c-0.1,0.1-0.1,0.2,0,0.4c2,0,3.9,0,5.9,0C85.5,29.6,85.6,29.6,85.6,29.5z M85.2,20.3
	c0.1-0.2,0.1-0.2,0-0.3c0.2,0.1-2.3-2.2-3.2-3.1c0,0,0,0.1-0.1,0.1c0,0-1.4,1.6-1.5,1.7c-0.5,0.6-0.9,1.1-1.5,1.6
	c-0.1,0.1-0.1,0.1-0.2,0.2c0,0-0.1,0.1,0,0.2l0.1,0.1c0.1,0,0.2-0.1,0.3-0.1c0.2-0.1,3.9-0.1,5.5-0.1C85.1,20.3,84.9,20.3,85.2,20.3
	z M70.5,29.4C70.6,29.3,70.7,29.3,70.5,29.4c0.1-0.6,0.2-1.1-0.3-1.4c0,0,0,0,0-0.1c-0.7-0.8-1.3-1.6-2-2.4
	c-0.1-0.1-0.1-0.1-0.2-0.2c-0.9,1.4-1.7,2.7-2.6,4.1C67.1,29.4,68.8,29.4,70.5,29.4z M4.2,22.6c0,0.1,0,0.2,0,0.3c0,0.3,0,0.6,0,0.9
	c0,1.4,0.1,2.7,0.1,4.1c0,0.7,0.1,1.4,0.2,2.1c0,0.1,0,0.2,0.1,0.3c0,0,0.1,0.1,0.1,0.2c0.8-1.5,1.6-3,2.4-4.5
	C6.9,25.6,4.4,22.7,4.2,22.6z M77.3,13.5c-1,1.1-2.1,2.1-3.1,3.2c0.1,0.1,0.1,0.1,0.2,0.2c0.3,0.3,0.6,0.7,1,1
	c0.7,0.8,1.5,1.5,2.2,2.2c0.1,0.1,0.1,0.1,0.2,0.1c0-0.1,0-0.1,0-0.2c-0.1-1.6-0.1-3.2-0.2-4.9c0-0.3-0.1-0.6,0-0.9
	c0-0.2-0.1-0.4,0.1-0.6C77.5,13.7,77.4,13.6,77.3,13.5z M78.6,20.2c0.1-0.1,0.2-0.2,0.2-0.2c0.1-0.1,0.2-0.2,0.3-0.3
	c0.3-0.4,2.2-2.3,2.5-2.7l0.2-0.3c-1-1-2-1.9-3-2.8c-0.1-0.1-0.3-0.2-0.4-0.1c0,0-0.1,0.1-0.1,0.2c0,0.1,0,0.2,0,0.2
	c0,0.2,0,0.5,0,0.7c0,1.3,0.1,2.6,0.1,3.9c0,0.5,0,0.9,0,1.4C78.5,20.1,78.6,20.1,78.6,20.2z M81.5,9.1c-0.1-0.1-1-1-1.5-1.4
	c-0.5-0.5-1-0.9-1.5-1.4C78.3,6,78.2,6,78,6.1c0.1,2.2,0.2,4.4,0.4,6.6C79.6,11.5,80.4,10.1,81.5,9.1z M56.5,12.4
	c0-0.2,0-0.4-0.1-0.5c-0.9-1.1-1.7-2.2-2.6-3.3c0-0.1-0.1-0.1-0.2-0.2c-0.9,1.2-1.7,2.5-2.5,3.7c0.1,0.1,0.1,0.2,0.2,0.3
	C53,12.3,54.7,12.3,56.5,12.4z M70.4,20.8c-0.1,0-0.3,0.1-0.4,0.1s-0.1,0-0.2,0c-0.2,0-0.5,0-0.7,0C68,21,67,21,65.9,21.1
	c-0.3,0-0.6,0.1-1,0.1c0.5,0.7,1.1,1.3,1.6,1.9c0.5,0.6,1,1.3,1.6,1.9c0.1-0.1,0.1-0.2,0.2-0.3c0.7-1.1,1.5-2.2,2.1-3.4
	C70.5,21.1,70.5,20.9,70.4,20.8z M78,21.7c-0.4,0.6-2.7,3.5-2.9,3.8c0.1,0.1,1.2,1.5,1.8,2.2c0.4,0.5,0.8,0.9,1.2,1.3
	c0,0.1,0.1,0.2,0.2,0.1C78.3,28.9,78,21.7,78,21.7z M43.3,3.9C43.1,3.9,43,4,42.9,4c-0.6,0-1.2,0-1.7,0c-0.7,0-2.5,0-2.7,0.1
	c0,0.1,0,0.2,0,0.3c0.1,0.1,0.2,0.2,0.2,0.3c0.8,1.1,1.6,2.3,2.5,3.4c0.1,0.1,0.1,0.1,0.2,0.2c0-0.1,0.1-0.1,0.1-0.1
	c0.5-0.8,2-3.4,2.2-3.6c-0.1-0.1-0.1-0.3-0.1-0.3c-1.5,0-5.1,0.4-5.1,0.1c1.4-0.1,3.6-0.1,5-0.2C43.3,4,43.3,3.9,43.3,3.9z
	 M56.9,21.4c-1.9,0-3.7,0-5.5,0.1c-0.1,0.3,0.1,0.4,0.2,0.6c0.9,1.1,1.8,2.1,2.7,3.2c0,0,0.1,0.1,0.2,0.2C55.2,24,56,22.7,56.9,21.4
	z M84.9,5.2c-0.1,0.1-3.1,3.7-3.1,3.8c0.5,0.5,3.1,3,3.3,3.1l0.1-0.1C85.1,9.9,85,7.5,84.9,5.2z M58.2,29.4c0.2,0.2,0.5,0.3,0.7,0.2
	c0.7-0.1,1.5-0.1,2.2-0.1c0.7,0,1.5-0.1,2.2-0.1c0.2,0,0.3-0.1,0.5-0.2c-0.3-0.3-0.5-0.7-0.8-1c-0.1-0.1-0.2-0.2-0.3-0.3
	c-0.2-0.2-0.3-0.4-0.5-0.6c-0.3-0.4-0.7-0.8-1-1.2c-0.1-0.1-0.2-0.2-0.4-0.4C59.9,27,59,28.2,58.2,29.4z M63.7,21.4
	c-0.3,0-0.5,0-0.7,0c-0.3,0-0.5,0-0.8,0c-0.9,0-1.7,0-2.6,0c-0.6,0-1.1,0.1-1.7,0c0.1,0.1,0.1,0.1,0.2,0.2c0.2,0.2,0.3,0.4,0.5,0.6
	c0.7,0.9,1.5,1.8,2.2,2.7c0.1,0.1,0.1,0.1,0.2,0.2C61.9,24,62.8,22.7,63.7,21.4z M35.9,25.8c0.9,1.2,1.8,2.5,2.7,3.7c0,0,0,0,0.1,0
	c0-0.1,0-0.2,0-0.4s0-0.4,0-0.5c0-0.4,0-0.8,0-1.3c0-0.5,0-1,0-1.6c0-1.3,0-2.6,0-3.9l0-0.1c-0.1,0-0.1,0-0.1,0.1
	C37.6,23,36.7,24.4,35.9,25.8z M20,12.9c-0.1,0.1-0.1,0.1-0.2,0.2c-0.1,0.1-0.2,0.2-0.2,0.4c0,0.1,0,0.1-0.1,0.2
	c0.1,0.1,0.2,0.2,0.3,0.2C20,14,20,14.1,20,14.3c0.1,2.2,0.1,4.4,0.2,6.6c0,0.1,0,0.2,0,0.3c0.2-0.2,0.5-0.2,0.7-0.2
	c0-0.7-0.2-6.7-0.3-6.9c-0.1,0.1-0.3,0.2-0.4,0.2c-0.1-0.2,0-0.2,0.1-0.3c0.4-0.2,0.5-0.7,0.2-1c0,0,0-0.1-0.1-0.1
	c0.2-0.1,0.2-0.3,0.2-0.5c0-1.4-0.1-2.9-0.1-4.3c0-1-0.1-2.1-0.1-3.1c0-0.1,0-0.2-0.1-0.3c-0.2,0.1-0.4,0.1-0.5,0.2
	c0,0.1,0,0.2,0,0.3c0,1.2,0.1,2.4,0.1,3.6c0,0.6,0,1.2,0,1.7c0,0.5,0,1,0,1.5C19.9,12.3,19.9,12.6,20,12.9z M29.4,26.2
	c-0.2,0.2-0.4,0.2-0.6,0.2c-0.3,0-0.7,0-1,0c-0.1,0-0.2,0-0.3,0c0,0.1,0,0.2,0,0.3c0,0.2,0.1,0.4,0.1,0.5c0.1,0.6,0.1,1.3,0.2,1.9
	c0,0.4,0.1,0.4,0.5,0.4c1.3,0,2.5,0,3.8-0.1c0.1,0,0.4,0,0.4-0.1c0-0.1-0.1-0.2-0.1-0.2c-0.3,0-0.4-0.3-0.5-0.4
	c-0.4-0.4-0.7-0.8-1.1-1.2C30.4,27.2,29.9,26.7,29.4,26.2z M3.5,13.4c0.2,0.2,1.2,0.1,1.4,0.1c1.1,0,2.1-0.2,3.2-0.1
	c0.2,0,0.3-0.1,0.2-0.3c0-0.1-1.7-2.7-2.6-3.9c0,0-1.1,1.8-1.5,2.6c-0.2,0.4-0.4,0.8-0.6,1.2C3.7,13.2,3.7,13.4,3.5,13.4z
	 M78.1,29.3C77,28.1,76,26.8,75,25.6c-0.2,0.2-0.3,0.4-0.5,0.6c-0.7,0.9-1.4,1.9-2.1,2.8c-0.1,0.1-0.1,0.1-0.1,0.3
	c0.1,0,0.2,0,0.4,0c0.5,0,1,0,1.5,0c0.4,0,0.9,0,1.3,0c0.3,0,0.6,0,0.8,0C76.9,29.3,77.5,29.3,78.1,29.3z M57,29.7
	c0-0.2,0-0.3,0-0.5c0-0.2,0-0.3-0.2-0.5c-0.8-0.9-1.6-1.9-2.3-2.8c-0.1-0.1-0.1-0.1-0.2-0.2c-0.8,1.2-1.5,2.4-2.2,3.6
	c0.1,0.1,0.1,0.2,0.2,0.3C53.8,29.6,55.4,29.6,57,29.7z M57,20.6c0-0.1-0.1-0.1-0.1-0.2c-0.2-0.3-0.4-0.5-0.6-0.8
	c-0.6-0.8-1.2-1.5-1.9-2.3c-0.1-0.1-0.1-0.1-0.2-0.1c-0.2,0-0.4,0-0.6,0.2c-0.6,0.9-1.3,1.9-1.9,2.8c-0.1,0.2-0.2,0.3-0.3,0.5
	C51.6,20.7,56.6,20.7,57,20.6z M37.9,12.1L37.9,12.1c0-2.5-0.1-5.3-0.2-7.8c-0.9,1.3-1.8,2.8-2.7,4.1C35.9,9.6,36.9,10.9,37.9,12.1z
	 M51.4,22.1L51.4,22.1c-0.1,0.1-0.1,0.3-0.1,0.4c0,1.2,0.1,2.3,0.1,3.5c0,0.2,0.1,0.5,0.1,0.7c0,0.5,0.1,1,0.1,1.6
	c0,0.2,0,0.3,0,0.5c0,0.2,0.1,0.4,0.4,0.4c0.7-1.2,1.5-2.5,2.2-3.7C53.3,24.3,52.4,23.2,51.4,22.1z M78.7,12.7c0.2,0,0.4,0,0.5,0
	c1-0.1,2-0.1,3.1-0.2c0.5,0,1.1-0.1,1.6-0.1c0.3,0,0.5,0,0.8,0c0-0.1,0-0.2,0.1-0.2c-1.1-1-2.1-2-3.2-3
	C80.4,10.6,78.9,12.5,78.7,12.7z M57.7,21.9c0.1,2.5,0.2,4.9,0.3,7.4c0,0,0,0,0.1,0c0.1-0.2,0.2-0.3,0.3-0.5
	c0.1-0.2,0.2-0.3,0.3-0.4c0.2-0.3,0.4-0.6,0.7-0.9c0.3-0.4,0.5-0.8,0.8-1.2c0.2-0.3,0.4-0.5,0.6-0.8c-0.4-0.6-0.8-1.1-1.2-1.6
	c-0.5-0.6-0.9-1.2-1.4-1.8C58,21.9,57.9,21.8,57.7,21.9z M73.9,17c-0.2,0.2-2.3,2.4-2.6,2.8c-0.1,0.1,0.2,0.5,0.2,0.6
	c0.2,0,0.5,0,0.7,0c0.4,0,4.7-0.1,5.1-0.1c0,0,0,0,0-0.1c-0.1,0-1.2-1-1.6-1.4s-0.7-0.7-1.1-1.1C74.5,17.6,74.2,17.3,73.9,17z
	 M27.6,29.8c-0.2-1.2,0-2.1-0.3-3.3c-0.1,0-0.2,0-0.4,0c0,0.2,0.1,0.3,0.1,0.5c0,0.8,0.1,1.7,0.1,2.5c0,0.1,0,0.1,0,0.2
	c-0.2,0.1-0.2,0.2-0.2,0.4c-0.1,0-0.3-0.3-0.4-0.3c-0.1,0-0.1,0-0.2,0c-0.6,0-1.2,0.1-1.7,0.1C23.7,30,22.9,30,22,30
	c-0.2,0-0.4-0.1-0.5,0.2c-0.1-0.2-0.1-0.2-0.3-0.3l0-0.1c0-0.1,0-0.2,0-0.3c0-0.8-0.1-1.6-0.1-2.5c0-0.1,0-0.2,0-0.3
	c-0.2,0-0.5,0-0.7,0c0,0.1,0,0.1,0,0.1c0,0.8,0,1.6,0.1,2.3c0,0.2,0.1,0.3,0.2,0.5c0,0-0.1,0.1-0.1,0.2c0,0.1,0,0.1,0,0.2
	c0.1,0.2,0.2,0.3,0.3,0.4c0.2,0,0.4-0.1,0.6-0.1c0.3,0,5.6-0.1,5.8-0.1c0.2,0,5.8,0,6-0.2c0.1-0.1,5.3,0.1,5.5,0.1
	c-0.1-0.1-0.2-0.1-0.2-0.1c-0.1-0.1-0.2-0.1-0.2-0.2c0-0.1-0.2-0.2-0.3-0.2c-0.9,0-1.8,0-2.7,0c-0.5,0-0.9,0-1.4,0
	c-0.1,0-0.3,0-0.4,0c-0.1,0.3-0.3,0.5-0.6,0.5c-0.2,0-0.3-0.2-0.4-0.4C31.9,29.7,28.5,29.6,27.6,29.8z M44.7,4.4
	c0,0.2,0,0.3,0.1,0.4c0.2,0.3,0.4,0.6,0.7,0.9c0.5,0.7,1.1,1.4,1.6,2.1l0,0.1c1-1.1,2-2.2,2.9-3.3c-0.1-0.3-0.2-0.3-0.5-0.3l-0.1,0
	c-1.5,0-3,0-4.5,0.1C44.8,4.4,44.8,4.4,44.7,4.4z M42.2,25.7c-0.8,1.3-1.6,2.6-2.4,4c0.1,0,0.2,0,0.3,0c1.3,0,2.6,0,3.9,0l0.1,0
	c0.1-0.1,0.2-0.2,0.3-0.4c0.1-0.2,0.1-0.5,0.1-0.7s0-0.3-0.1-0.4c-0.2-0.3-0.5-0.5-0.7-0.8c-0.3-0.3-0.6-0.7-0.9-1
	C42.5,26.1,42.3,25.9,42.2,25.7z M32,11.9C32,11.9,32.1,11.9,32,11.9c0.9-1.2,1.8-2.4,2.6-3.6c-0.2-0.2-0.3-0.4-0.5-0.6
	c-0.2-0.2-0.3-0.4-0.5-0.6c-0.2-0.2-0.3-0.4-0.5-0.6c-0.2-0.2-0.3-0.4-0.5-0.6c-0.2-0.2-0.3-0.4-0.5-0.6c-0.2-0.2-0.3-0.4-0.5-0.6
	l0,0C31.8,7.1,31.9,9.5,32,11.9z M50.1,4.8c-1,1.1-1.9,2.2-2.8,3.4c1,1.3,2,2.6,3,3.8c0-0.3,0-0.7,0-1c0-0.3,0-0.7,0-1
	c0-0.9,0-1.9,0-2.8C50.1,6.4,50,5.6,50.1,4.8z M77.2,13.4c-2.1,0-4.2,0-6.3-0.1c1.1,1.1,2.1,2.2,3.2,3.3
	C75.2,15.6,76.2,14.5,77.2,13.4z M32.2,12.1c1,0,1.9,0,2.8,0c0.9,0,1.8,0,2.8,0c-1-1.3-2-2.5-3-3.7C33.9,9.8,33.1,11,32.2,12.1z
	 M20,22L20,22c0,0.1-0.1,0.1-0.2,0.1c-0.4,0-0.8,0.1-1.2,0.1c-1,0.1-1.9,0.1-2.9,0.2c-0.1,0-0.1,0-0.2,0c0,0.3,0,0.4,0.2,0.6
	c0.5,0.8,1.1,1.5,1.6,2.3c0,0.1,0.1,0.1,0.2,0.2c0.4-0.3,0.8-0.5,1.1-0.8c0.1,0,0.1-0.1,0.1-0.2c0.4-0.8,0.8-1.6,1.2-2.4
	c0.1-0.2,0.1-0.4,0-0.6c-1.5,0.1-3.1,0.2-4.6,0.2c0,0.1,0,0.2-0.1,0.3l0.1,0c1.4,0,2.7-0.1,4.1-0.1C19.7,21.9,19.8,21.9,20,22z
	 M85.3,20C85.3,20,85.4,20,85.3,20c0.1-0.2-0.3-5.5-0.3-5.6s0-0.2,0-0.2c0.1-0.2,0.1-0.2-0.1-0.3c-0.1,0.1-0.3,0.2-0.4,0.3
	c-0.3,0.3-0.6,0.6-0.8,0.9c-0.4,0.4-0.8,0.9-1.2,1.3c-0.2,0.2-0.4,0.4-0.5,0.6C82.5,17.6,85,20,85.3,20z M19.3,4.7
	c0,0.1-1.3,2.5-1.9,3.6c-0.1,0.2-0.1,0.3,0,0.4c0.8,1.2,1.5,2.4,2.3,3.6c0,0,0.1,0.1,0.1,0.2c0-0.1,0-0.2,0-0.3
	c-0.1-2.1-0.1-4.2-0.2-6.3c0-0.3-0.1-0.6-0.1-0.9C19.6,4.9,19.5,4.8,19.3,4.7z M65,20.1c0.1,0,0.2,0,0.4,0c0.4,0,0.7,0,1.1,0
	c0.9,0,1.8-0.1,2.8-0.1c0.4,0,0.8-0.1,1.1,0l0.1,0c-1-1.1-2-2.3-3.1-3.4c-0.3,0.4-0.7,0.8-1,1.3c-0.4,0.5-0.8,1-1.2,1.5
	c-0.1,0.1-0.2,0.3-0.2,0.5C65,19.9,65,20,65,20.1z M17.1,8.8c-0.8,1.5-1.5,2.9-2.3,4.3c0.5,0,1,0,1.4,0c1.1-0.1,2.2-0.1,3.4-0.2
	C18.8,11.5,17.9,10.2,17.1,8.8z M37.5,4.6c-0.1,0-0.2,0-0.3,0c-1,0-1.9,0-2.9,0c-0.5,0-1.1-0.1-1.6,0c0,0-0.1,0-0.2,0
	c-0.2,0-0.3,0-0.5-0.1c0,0,0,0,0,0.1c1,1.2,1.9,2.4,2.9,3.7C35.7,7,36.5,5.8,37.5,4.6z M60.2,8.1C60.2,8,60.1,8,60.1,8
	c-0.7-0.7-1.4-1.5-2.1-2.2c-0.2-0.2-0.4-0.4-0.7-0.6c0,0.1,0,0.1,0,0.1c0,0.5,0,1,0,1.5c0.1,0.9,0.1,1.8,0.1,2.7c0,0.7,0,1.4,0,2.1
	c0,0.2,0,0.4-0.1,0.5c0,0.1,0,0.1,0.1,0.2C58.3,10.8,59.2,9.4,60.2,8.1z M71.3,12.6c2,0,3.9,0,6,0c-1-1.2-2-2.2-2.9-3.4
	C73.3,10.3,72.3,11.4,71.3,12.6z M42.2,25.4c0,0,0-0.1,0.1-0.1c0.3-0.6,0.6-1.1,1-1.7c0.4-0.6,0.7-1.2,1.1-1.8
	c0-0.1,0.2-0.2,0.1-0.2c-0.1-0.1-0.2-0.1-0.3-0.1l-0.1,0c-1.4,0.1-2.9,0.1-4.3,0.2c-0.1,0-0.2,0-0.3,0c-0.1,0.2,0,0.3,0.1,0.5
	c0.2,0.2,0.4,0.5,0.6,0.7C40.8,23.7,41.5,24.5,42.2,25.4z M14.9,4.3c0,0.1-0.1,0.3,0,0.4C15.5,5.9,16.2,7,17,8.2c0,0,0,0.1,0.1,0.2
	c0.1-0.2,2.1-4,2-4.2C17.6,4.2,16.1,4.1,14.9,4.3z M38.5,4.7c-0.1,0.5,0.3,7.3,0.4,7.5c0.8-1.3,1.6-2.5,2.3-3.8
	C40.2,7.2,39.3,5.9,38.5,4.7z M39.6,29.5c0.1-0.1,0.2-0.3,0.3-0.4c0.3-0.6,0.6-1.1,1-1.6c0.4-0.5,0.7-1,1-1.6c0-0.1,0.1-0.2,0.1-0.3
	c0-0.1-0.1-0.2-0.2-0.3c-0.2-0.3-0.5-0.6-0.7-0.9c-0.5-0.6-1-1.2-1.5-1.9c-0.1-0.1-0.1-0.1-0.2-0.2c0,0.1,0,0.2,0,0.3
	c0,1.3,0,2.7,0,4c0,0.9,0,1.7,0,2.6C39.4,29.4,39.4,29.5,39.6,29.5z M26.7,29.5L26.7,29.5c-0.7-1-1.4-1.9-2.1-2.8
	c-0.1-0.1-0.1-0.1-0.2-0.1c-0.3,0-0.5,0-0.8,0c-0.1,0-0.2,0.1-0.3,0.2c-0.6,1-1,2-1.7,3l0,0C23.3,29.7,25,29.7,26.7,29.5z
	 M25.9,12.5c0-0.1,0.1-0.1,0.1-0.2c0-0.1,0-0.1,0-0.2c0-0.4-0.1-0.9-0.1-1.3c0-0.4-0.1-0.7-0.1-1.1c0-0.3,0-0.7,0-1
	c0-0.6-0.1-1.1-0.1-1.7c0-0.5-0.1-0.9-0.1-1.4c0-0.4-0.1-0.8-0.2-1.3l0.1,0c0.1-0.1,0.2-0.1,0.3-0.1c0.2,0,0.3,0,0.5,0
	c1.3,0,2.6,0,3.9,0c0.1,0,0.2,0,0.3,0c0-0.2,0-0.4,0-0.5c-0.2,0.1-0.2,0.1-0.6,0.1l0,0c-1,0-1.9,0.1-2.9,0.1c-0.4,0-0.7,0-1.1,0
	c-0.1,0-0.2,0-0.2-0.2c0-0.1,0-0.6-0.4-0.6c-0.2,0-0.3,0-0.4,0.1s-0.2,0.3-0.2,0.6c-0.2,0-0.3,0.1-0.5,0.1c-0.3,0-0.7,0-1,0
	c-0.9,0-1.8-0.1-2.8,0c0-0.1-0.1-0.2-0.1-0.3c0-0.2-0.1-0.3-0.3-0.4c-0.1,0-0.4,0-0.5,0.2c-0.1,0.2-0.3,0.3-0.3,0.6
	c-0.1,0.2,0,0.3,0,0.5c0.1,0.2,0.6,0.3,0.7,0.1c0.2-0.2,0.4-0.3,0.6-0.3c1.3,0,2.7,0,4,0c0.1,0,0.1,0,0.3,0c0.2,2.7,0.4,5.4,0.6,8.1
	c0.1,0,0.2,0.1,0.3,0.1C25.8,12.5,25.9,12.5,25.9,12.5z M31.1,12.3c-0.9-1.3-1.7-2.5-2.6-3.8c-0.1,0.1-0.1,0.2-0.1,0.2
	c-0.3,0.5-0.6,1.1-1,1.6c-0.3,0.6-0.7,1.2-1,1.8c-0.1,0.1-0.1,0.2,0,0.4c0.4,0,0.8-0.1,1.2-0.1c0.4,0,0.8-0.1,1.2-0.1s0.8,0,1.2,0
	C30.3,12.3,30.7,12.3,31.1,12.3z M51,11.9c0.9-1.3,1.7-2.5,2.6-3.7c-0.4-0.5-0.7-0.9-1.1-1.3c-0.4-0.5-0.8-1-1.2-1.5
	c-0.1-0.1-0.2-0.2-0.4-0.3C50.9,5.4,50.9,11.5,51,11.9z M11.4,9.1C11.4,9.2,11.4,9.2,11.4,9.1c-0.6,1.2-1.2,2.3-1.7,3.4
	c0,0.1-0.2,0.5-0.3,0.7c0.4,0.1,0.8,0,1.1,0c0.4,0,0.8,0,1.1,0c0.3,0,0.8,0,1.1,0c0.4,0,0.7,0,1.1-0.1c0-0.1-0.1-0.1-0.1-0.2
	c-0.1-0.2-0.3-0.4-0.4-0.5c-0.2-0.2-0.3-0.5-0.5-0.8C12.6,10.8,12,10,11.4,9.1C11.5,9.2,11.5,9.2,11.4,9.1z M15.1,14.1
	c-0.1,0.2-0.2,0.4-0.2,0.5c0,0.4,0,0.8,0.1,1.2c0,0.5,0.1,1,0.1,1.4c0,0.3,0,0.6,0,0.9c0,1,0.1,2,0.1,2.9c0,0.1,0,0.2,0.1,0.2
	c0-0.1,0.1-0.1,0.1-0.2c0.7-1.1,1.3-2.2,2-3.3c0.1-0.2,0.1-0.3,0-0.4c-0.7-1-1.4-2.1-2.1-3.1C15.2,14.2,15.1,14.1,15.1,14.1z
	 M13.7,4.6L13.7,4.6c-0.1,0.1-0.1,0.1-0.2,0.2c-0.4,0.7-0.7,1.6-1.1,2.3c-0.3,0.5-0.5,1.2-0.8,1.7c0,0.1,0.5,0.9,0.8,1.4
	c0.5,0.8,0.9,1.6,1.3,2.4l0.1,0.1c0-0.4,0-0.8,0-1.2c0-0.4,0-0.8,0-1.2c0-0.4,0-0.8,0-1.2c0-0.4,0-0.8,0-1.2
	C13.9,7.5,13.8,5,13.7,4.6z M35.7,25.9c-0.1,0.2-0.3,0.4-0.4,0.6c-0.6,1-1.2,1.8-1.8,2.8c-0.1,0.1-0.1,0.1-0.1,0.2
	c1.7,0,3.2,0.1,4.9,0.1c0-0.1,0-0.1,0-0.2C37.5,28.2,36.6,27,35.7,25.9z M56.3,4.4c-0.2,0-0.4,0-0.6,0c-0.6,0-1.1,0-1.7,0.1
	c-0.5,0-1,0-1.5,0.1c-0.3,0.1-0.6,0-0.9,0l-0.1,0c-0.1-0.1-0.2-0.1-0.4,0c0,0.1,0.1,0.2,0.1,0.3c0.5,0.6,1,1.3,1.5,1.9
	c0.2,0.2,0.3,0.4,0.5,0.6c0.2,0.2,0.4,0.4,0.6,0.6c0,0,0.1,0,0.1-0.1c0.6-0.8,1.2-1.6,1.7-2.5c0.2-0.2,0.3-0.5,0.4-0.7
	c0.1-0.1,0.1-0.2,0.2-0.3C56.2,4.5,56.2,4.5,56.3,4.4z M69.3,4.6c-0.1-0.1-0.2-0.1-0.3-0.1c-0.1,0-0.3,0-0.4,0c-0.6,0-1.3,0-1.9,0
	c-0.2,0-0.4,0-0.7,0c-0.3,0-0.6,0.1-0.9,0.1c-0.4,0-0.7,0-1.1,0c-0.2,0-0.3,0.1-0.3,0.2c0,0.2,0,0.3,0.2,0.4
	c0.6,0.5,1.2,1.1,1.7,1.7c0.2,0.2,0.3,0.4,0.5,0.6c0.1,0.1,0.1,0.1,0.2,0.2c0.2-0.3,0.4-0.5,0.7-0.8c0.2-0.3,0.5-0.5,0.7-0.8
	c0.2-0.2,1.1-1.2,1.4-1.5C69.3,4.7,69.3,4.7,69.3,4.6z M43.7,12.4c0-0.1-0.1-0.2-0.1-0.2c0.1-0.2,0-0.2-0.1-0.3c-0.7-1-1.4-2-2.1-3
	c0-0.1-0.1-0.1-0.2-0.2c-0.3,0.4-0.5,0.8-0.8,1.2c-0.3,0.4-0.5,0.8-0.8,1.3c-0.3,0.4-0.5,0.8-0.8,1.3C40.5,12.3,42.1,12.5,43.7,12.4
	z M8.8,4.8c-0.1,0.3,0.6,7.9,0.6,8.1c0.1-0.1,0.1-0.1,0.1-0.2c0.2-0.4,0.4-0.8,0.6-1.2c0.4-0.8,0.9-1.7,1.3-2.6
	C11.4,8.7,9.6,6.1,9,4.8C8.9,4.9,8.8,4.8,8.8,4.8z M32.7,19.8c0.9-1.2,1.8-2.4,2.7-3.6c-0.1-0.1-0.2-0.1-0.3-0.2
	c-0.4-0.4-0.8-0.7-1.2-1.1c-0.5-0.5-0.9-1-1.4-1.4c0.1-0.2,0-0.2-0.1-0.2c0,0.3,0,0.5,0.1,0.8c0,0.2,0,0.5,0,0.7c0,0.3,0,0.6,0.1,1
	c0,0.5,0,1,0,1.6c0,0.4,0.1,0.8,0.1,1.2C32.7,18.9,32.7,19.3,32.7,19.8C32.7,19.7,32.7,19.7,32.7,19.8z M5.7,8.5
	c0.4-0.6,2-3.5,2.1-3.9c-0.1,0-0.2,0-0.3,0c-0.2,0-1.7,0.1-2.2,0.1c-0.3,0-0.6,0-0.8,0c-0.4,0-0.8-0.1-1.3,0
	C3.3,4.8,5.2,7.9,5.7,8.5z M29.1,17.1C29,17.2,29,17.2,29,17.3c-0.7,1-1.3,1.9-2,2.9c-0.1,0.2-0.2,0.4-0.3,0.6
	c0.8,0,4.8-0.3,5.1-0.4C30.9,19.3,30,18.2,29.1,17.1z M26.4,13.4L26.4,13.4c0.9,1.2,1.8,2.2,2.7,3.4c0.8-1.2,1.6-2.4,2.4-3.6
	c-0.2-0.1-0.3-0.1-0.4-0.1c-0.6,0-1.2,0.1-1.7,0.1c-0.7,0-1.4,0.1-2,0.1C27,13.3,26.7,13.4,26.4,13.4z M84.6,13.6
	c-0.2,0-3.8,0.1-5.4,0.2c-0.1,0-0.1,0-0.2,0c1,1,2,1.9,3,2.8C82.9,15.7,84.7,13.6,84.6,13.6z M59.6,12.4
	C59.5,12.4,59.5,12.4,59.6,12.4c-0.6,0-1.2,0-1.8,0c-0.1,0-0.2,0-0.3-0.1l0,0.1l-0.1,0c0,0,0-0.1-0.1-0.1c-0.1-0.2-0.1-0.5,0-0.7
	c0-0.4,0-0.8,0-1.2c0-1.1,0-2.2-0.1-3.2c-0.1-0.7-0.1-1.4-0.1-2.1c0-0.1,0-0.3,0-0.4c-0.2-0.1-0.4-0.1-0.6-0.1c0,0.1,0,0.2,0,0.2
	c0,0.5,0.1,0.9,0.1,1.4c0,0.6,0,1.1,0,1.7c0.1,1.4,0.1,2.7,0.2,4.1c0,0.1,0,0.3,0.1,0.4c-0.1,0.1-0.1,0.2-0.2,0.4
	c-0.2,0-0.5,0-0.7,0c-0.5,0-1,0-1.5,0c-0.7,0-1.4,0-2,0c-0.3,0-0.7,0-1,0c-0.1,0-0.2,0-0.3-0.1c0,0.1-0.1,0.2-0.1,0.2
	c0.1,0.1,0.2,0.1,0.3,0.1c0.2,0,0.5,0,0.7,0c0.3,0,0.6,0.1,1,0.1c1.1,0,2.2,0,3.4,0c0.1,0,0.2,0,0.3-0.1c0.3,0.1,0.3,0.4,0.3,0.6
	c0,0.1,0,0.2,0,0.3c0,0.2,0,0.4,0.1,0.6c0.3,0,0.4-0.1,0.4-0.4c0-0.2,0-0.5,0-0.7c0-0.2,0-0.3,0.1-0.4c0.1,0,0.2,0.1,0.3,0.1
	c0.3,0,0.6-0.1,0.8-0.1s0.4-0.1,0.6-0.2C59.3,12.6,59.4,12.5,59.6,12.4z M43.8,4.8C43.6,5,41.6,8,41.4,8.4c0.2,0.3,2.3,3.2,2.4,3.4
	c0-0.3,0-0.6,0-0.9c0-1.6,0-3.1,0-4.7c0-0.4,0-0.7,0-1.1C43.9,5,43.9,4.9,43.8,4.8z M26.2,11.9C26.2,11.9,26.3,11.9,26.2,11.9
	c0.8-1.2,1.5-2.4,2.2-3.6c-0.9-1.3-1.8-2.5-2.6-3.8c0,0,0,0-0.1,0C25.9,7,26,9.4,26.2,11.9z M33.8,23c0.7,0.9,1.3,1.8,1.9,2.6
	c0.9-1.3,1.7-2.6,2.5-4c-0.2,0-0.4,0-0.6,0c-0.6,0-1.2,0-1.7,0c-0.2,0-0.4,0-0.5,0.2C34.9,22.2,34.4,22.6,33.8,23z M14.7,12.6
	C14.8,12.6,14.8,12.6,14.7,12.6c0.8-1.3,1.5-2.7,2.2-4c-0.4-0.8-2.1-3.4-2.2-3.5l0,0.1c0,2.1,0,4.2-0.1,6.2
	C14.7,11.8,14.7,12.2,14.7,12.6z M45.2,22.4c0,2.2,0,4.3,0,6.5l0,0c0.9-1.2,1.7-2.3,2.6-3.5C47,24.2,46.2,23.2,45.2,22.4z
	 M56.4,11.4L56.4,11.4c0.1-0.1,0.1-0.2,0.1-0.3c0-0.2-0.1-0.5,0-0.7c-0.1-0.2,0-0.5-0.1-0.7c0-0.8-0.1-1.5-0.1-2.3
	c0-0.7,0-1.4-0.1-2.1c0-0.2-0.1-0.4-0.1-0.7c-0.8,1.2-1.6,2.3-2.4,3.4c0,0.1,0,0.1,0.1,0.2C54.7,9.3,55.6,10.4,56.4,11.4z M8.2,13.7
	c-1.5,0.1-3,0.2-4.5,0.2c-0.1-0.1-0.2-0.2-0.3-0.3c-0.1-0.1-0.1-0.2-0.1-0.4c-0.1-1-0.1-2-0.2-3c0-0.7-0.4-5.3-0.3-5.4
	c0,0,0.1-0.1,0.1-0.2c0.1,0,0.3,0,0.5,0c0.7,0,1.3,0,2,0c0.5,0,0.9,0,1.4,0c0.4,0,0.7,0,1.1-0.1c0-0.3-0.8-0.3-1.1-0.3
	c-0.3,0-0.6,0-0.9,0c-0.5,0-2.8-0.1-3,0C3,4,3,4,3,3.9C2.9,3.7,2.8,3.6,2.6,3.7c-0.1,0-0.3,0.1-0.4,0.2C2.1,4,2,4.1,2,4.3
	c0,0.1,0,0.2,0.1,0.3c0.1,0.1,0.2,0.1,0.3,0.2c0,0.1,0,0.3,0,0.5c0,0.3,0.1,1.7,0.1,2.2C2.5,8.2,2.5,9,2.6,9.7
	c0.1,1,0.1,2.1,0.2,3.1c0,0.1,0,0.2,0,0.3l0.1,0c0.1,0,0.2,0,0.1,0.1l-0.1,0.1c-0.3,0.1-0.4,0.3-0.3,0.6c0.1,0.3,0.2,0.3,0.4,0.3
	c0.3,0,0.6,0,0.6-0.1c0.2,0,0.3,0,0.4,0c0.4,0,4.1-0.2,4.2-0.1C8.2,13.9,8.2,13.8,8.2,13.7z M21.2,21.1c0.2,0,0.3,0,0.4,0
	c1.1,0,2.2-0.2,3.3-0.1l0.1,0c0.2,0,0.4,0,0.6-0.1c0.1,0,0.2,0,0.3-0.1c-0.9-1.2-1.8-2.3-2.7-3.5C22.6,18.6,21.9,19.8,21.2,21.1z
	 M70.7,28.1c0-0.1,0-0.2,0-0.2c0-1.9,0-3.8,0.1-5.7c0-0.1,0-0.3,0-0.4c0-0.2,0-0.3-0.2-0.4c-0.8,1.3-1.6,2.5-2.4,3.9
	c0.5,0.6,1.1,1.2,1.6,1.8C70.1,27.3,70.4,27.6,70.7,28.1C70.6,28,70.6,28,70.7,28.1z M48.1,25.2c1,1.1,1.9,2.2,2.8,3.3
	c0-0.1-0.3-6.5-0.4-6.6C49.7,23.1,48.9,24.1,48.1,25.2z M56.9,22L56.9,22c-0.8,1.2-1.7,2.3-2.4,3.5c0.3,0.3,0.6,0.7,0.9,1
	c0.3,0.3,0.6,0.6,0.8,1c0.3,0.3,0.5,0.7,0.9,1c0-0.2,0.1-0.4,0.1-0.5c0-1,0-1.9-0.1-2.9c0-0.8,0-1.7-0.1-2.5
	C57,22.4,57,22.2,56.9,22z M5.9,8.8c0,0.1,2.3,3.4,2.6,3.6l0.1,0.1c0-0.1,0-0.2,0-0.2c-0.1-0.8-0.1-1.6-0.2-2.4C8.4,9.5,8.1,5.5,8,5
	C7.7,5.6,6.4,7.8,5.9,8.8z M31.6,13.4L31.6,13.4c-0.8,1.1-1.6,2.3-2.4,3.5c0.4,0.5,2.5,3.1,2.7,3.2c0-0.1,0-0.1,0-0.2
	c0-0.2-0.1-0.4-0.1-0.7c0-0.5,0-1.1,0-1.6c0-1.1-0.1-2.3-0.2-3.4C31.6,13.9,31.6,13.7,31.6,13.4z M57.6,12.2c0.1,0,0.1,0,0.2,0
	c0.7,0,1.3-0.1,2-0.2c0.2,0,0.3-0.1,0.5-0.2c0.6-0.5,1.2-1,1.8-1.6l0.1-0.1c-0.6-0.7-1.2-1.3-1.9-2C59.4,9.5,58.5,10.9,57.6,12.2z
	 M26.3,13.6c-0.1,0.2,0,0.4,0,0.5c0.1,1,0.2,2,0.2,3c0.1,0.9,0.2,1.7,0.1,2.6c0,0.2,0,0.3,0.1,0.5c0.8-1.1,1.5-2.2,2.3-3.4
	C28.1,15.8,27.2,14.7,26.3,13.6z M22.9,8.4c0.1-0.1,1.7-3.5,1.7-3.6c0.1-0.2,0.1-0.3-0.1-0.3c0,0-0.1,0-0.2,0c-0.6,0-1.2,0-1.9,0
	c-0.6,0-1.9,0-1.9,0c-0.1,0.1,0,0.2,0.1,0.3c0.6,0.9,1.2,1.9,1.8,2.8C22.6,7.9,22.7,8.1,22.9,8.4z M67.4,16.3
	c0.2-0.2,0.3-0.4,0.5-0.6c0.4-0.5,0.8-0.9,1.2-1.4c0.2-0.2,0.3-0.5,0.5-0.6l0.1-0.1c0-0.1-0.1-0.2-0.1-0.4c-0.1-0.1-0.2-0.1-0.3-0.1
	c-0.7,0-1.3,0-2,0c-0.7,0-1.4,0-2.1,0c-0.2,0-0.3,0.1-0.5,0.1C65.6,14.2,66.5,15.3,67.4,16.3z M30.7,4.6c-0.1,0-0.2,0-0.3,0
	c-0.1,0-0.2,0-0.4-0.1c-1.3,0-2.6,0-4,0l-0.1,0c0.9,1.2,1.8,2.4,2.6,3.6c0.1-0.2,0.2-0.3,0.3-0.4c0.3-0.6,0.6-1.1,1-1.7
	c0.2-0.4,0.5-0.7,0.8-1.1C30.6,4.8,30.7,4.7,30.7,4.6z M70,13.7c-0.3,0.1-2.1,2.3-2.4,2.8c1,1.1,1.9,2.2,2.9,3.4c0,0,0,0,0.1,0
	C70.4,17.8,70.2,15.7,70,13.7z M20.9,12.9c0.2,0,4.1-0.3,4.4-0.4c-0.4-0.7-2-3.1-2.4-3.8C22.2,10.2,21.6,11.5,20.9,12.9z M19.6,14
	c-0.2-0.2-0.4-0.3-0.7-0.2c-0.1,0-0.2,0-0.3,0c-0.2,0-0.4,0-0.6,0c-0.9,0-1.8,0.1-2.8,0.2c0,0,0,0-0.1,0.1c0.8,1.1,1.6,2.3,2.4,3.5
	C18.3,16.3,19,15.1,19.6,14z M74.5,9c0.5,0.6,0.9,1.1,1.4,1.6s0.9,1.1,1.4,1.6c0-1.1,0-2.1,0-3.1s-0.2-2-0.1-3l0,0
	C76.2,7,75.3,8,74.5,9z M25.4,13.6c-0.7,1.2-1.3,2.4-2,3.5c0.3,0.4,2.3,3.1,2.5,3.2c0-0.6,0-1.1,0-1.7c0-0.9-0.1-1.8-0.1-2.6
	c0-0.8-0.1-1.5-0.2-2.3C25.6,13.7,25.5,13.6,25.4,13.6z M81.6,8.9c0.5-0.5,0.9-1,1.3-1.5c0.4-0.5,0.9-1,1.3-1.6
	c-1.9,0.1-3.7,0.1-5.5,0.2C78.7,6,81.1,8.4,81.6,8.9z M20,21.3c-0.2-0.4-2.3-3.4-2.4-3.5c-0.7,1.2-1.4,2.4-2.2,3.7
	C17,21.4,18.5,21.3,20,21.3z M60.3,7.8c0.4-0.4,2.1-3,2.1-3.2l-0.1,0c-1.1,0-2.3,0-3.4,0c-0.1,0-0.2,0-0.4,0c-0.2,0.1-0.4,0-0.7,0
	c-0.2,0-0.4,0-0.6,0C58.4,5.7,59.3,6.8,60.3,7.8z M30.6,4.8L30.6,4.8C30.5,4.8,30.5,4.9,30.6,4.8C30,6,29.3,7.1,28.7,8.1
	c-0.1,0.1-0.1,0.2,0,0.3c0.7,1.1,1.4,2.1,2.1,3.2c0,0,0.1,0.1,0.2,0.2c-0.1-0.6,0-1.2-0.1-1.8c0-0.1,0-0.1,0-0.2c0-0.6,0-1.1,0-1.7
	c0-0.8-0.1-1.6-0.1-2.3C30.7,5.5,30.6,5.2,30.6,4.8z M33.1,29.3c0.2,0.1,0.3,0,0.3-0.1c0.7-1.1,1.4-2.2,2.1-3.3c0,0,0.1-0.1,0.1-0.2
	c-0.1-0.1-0.1-0.1-0.2-0.2c-0.5-0.6-1-1.3-1.4-1.9c0-0.2-0.1-0.3-0.3-0.3l-0.1-0.1c-0.2,0.1-0.2,0.2-0.2,0.4
	c-0.1,1.7-0.1,3.5-0.2,5.2C33.2,28.9,33.1,29.1,33.1,29.3z M73.8,16.9c-0.4-0.4-0.7-0.8-1-1.1c-0.4-0.5-0.9-1-1.4-1.5
	c-0.1-0.1-0.1-0.1-0.2-0.2c-0.1-0.2-0.3-0.3-0.5-0.4c0.2,2,0.3,3.9,0.5,6C71.4,19.5,73.6,16.9,73.8,16.9z M9.2,4.8
	c0.2,0.5,2,3.5,2.3,3.9c0.6-1.4,1.3-2.6,1.9-3.9c-0.2,0-0.4,0-0.6,0 M3.1,5.3C3,5.5,3.1,5.7,3.1,6c0.1,0.7,0.3,3.6,0.3,4.3
	c0,0.4,0,0.8,0,1.2c0,0.3,0.1,0.7,0.1,1c0.1-0.3,1.8-3.5,2-3.9C5,7.9,3.3,5.5,3.1,5.3z M8.1,14.4c0,0,0.1-0.2,0-0.2
	c-0.1,0-0.2,0-0.3,0c-0.9,0-1.8,0-2.7,0.1c-0.4,0-0.9,0.1-1.3,0.2c0,0.2,1.5,2.2,2.2,3.1C6.3,18.1,7.5,15.5,8.1,14.4z M20.8,11.4
	c0,0.3,0,0.7,0,1c0,0.1,0,0.1,0,0.2c0.1-0.1,0.1-0.1,0.1-0.2c0.6-1.3,1.2-2.5,1.8-3.8c0.1-0.1-1.6-2.5-2.2-3.6
	C20.5,5.2,20.8,9.4,20.8,11.4z M14.1,13.4c-0.2,0-0.3,0.1-0.3,0.3c0,0.2,0,0.3,0.2,0.4c0.2,0.1,0.2,0.2,0.3,0.4
	c0,0.8,0.1,1.6,0.1,2.5c0,0.5,0,1.1,0.1,1.6c0,0.3,0,0.7,0,1c0,0.5,0,1,0.1,1.5c0,0.1,0,0.1,0,0.2c0.1,0,0.3-0.1,0.4,0l-0.1,0.1
	c-0.2,0.1-0.3,0.2-0.3,0.4c0,0.2,0,0.3,0.1,0.3c0.1,0.1,0.2,0.1,0.3,0.1c0.3-0.2,0.3-0.3,0.3-0.6c0-0.2-0.1-0.4-0.3-0.4
	c0-0.4-0.1-0.7-0.1-1.1c0-1.1-0.1-2.1-0.1-3.2c0-0.5-0.1-1.1-0.1-1.6c0-0.3-0.1-0.6-0.1-0.9c0.3-0.2,0.3-0.3,0.3-0.6l0-0.1
	c0.1-0.2,0-0.3-0.2-0.3c-0.1,0-0.1,0-0.2,0c0-0.2,0-0.3,0-0.5c0-2.6-0.1-5.1-0.1-7.7c0-0.2-0.1-0.4,0-0.6c0,0,0,0-0.1-0.1
	c-0.1,0.1-0.3,0.2-0.4,0.3c0,0.4,0,0.9,0,1.4c0,1.2,0.1,2.4,0.1,3.6c0,0.7,0,1.4,0,2.1C14.1,12.3,14.1,12.9,14.1,13.4z M8.4,14.5
	c0,0.1-1.3,2.4-2,3.4c-0.1,0.1,0,0.2,0,0.3c0.8,1,1.5,2,2.2,2.9l0.1,0.1C9.1,21.3,9,20.8,9,20.6c0-1.3-0.2-5.1-0.2-5.7
	C8.8,14.9,8.6,14.6,8.4,14.5z M69.4,4.9c-0.2,0.2-2.7,2.9-2.8,3.1c0.5,0.5,0.9,1,1.4,1.4c0.1,0.1,0.2,0.1,0.3,0.1c0.4,0,0.7,0,1.1,0
	c0.1,0,0.1,0,0.2,0C69.4,8,69.3,6.5,69.4,4.9z M24.7,5.1C24.6,5.2,24.6,5.2,24.7,5.1c-0.7,1.2-1.2,2.3-1.8,3.4c0,0.1,1.9,3,2.1,3.5
	l0,0C25.1,9.7,24.9,7.4,24.7,5.1z M23.3,17c0.2-0.3,1.9-3.3,1.9-3.5c-0.1,0-4.1,0.1-4.4,0.2C21.6,14.9,22.5,15.9,23.3,17z
	 M11.9,17.7c0.6-1.2,1.3-2.3,1.9-3.4C13.6,14,13.6,14,13.3,14c-0.6,0-1.2,0.1-1.8,0.1c-0.6,0-1.2,0.1-1.8,0.1c0,0,0,0-0.1,0l0,0.1
	C10.3,15.5,11.1,16.6,11.9,17.7z M70.2,13.8c0,0.3,0.1,0.5,0.1,0.8c0.1,1.5,0.3,3,0.4,4.4c0,0.3,0.1,0.6,0.1,0.9
	c0,0.1-0.1,0.2-0.2,0.3c-0.1,0.1-0.2,0.1-0.3,0c-0.1,0-0.2,0-0.3,0c-1.6,0-3.1,0.1-4.7,0.1c-0.2,0-0.3,0-0.5,0
	c0.2,0.2,0.2,0.3,0.2,0.6c0.3,0,0.6,0,0.9-0.1c0.2,0,0.5-0.1,0.7-0.1c0.8,0,1.6,0,2.5,0c0.4,0,0.9,0,1.3-0.1c0,0.1,0.1,0.1,0.1,0.2
	c0,0.1,0,0.1,0.1,0.2c0.1,0.3,0.3,0.3,0.5,0.2c0.1-0.1,0.2-0.2,0.1-0.4c0.3,0.3,0.7,0.2,1.1,0.2c0.3,0,0.5,0,0.8,0
	c0.4,0,4.7,0,4.6-0.1c0-0.1-0.1-0.2-0.2-0.2c-0.4,0-0.8,0-1.2,0c-0.3,0-0.7,0-1,0c-0.5,0-3.7,0.1-3.9,0.1c-0.1-0.1-0.2-0.2-0.2-0.3
	c-0.1-0.1-0.1-0.3-0.1-0.4c-0.2-1.9-0.3-3.8-0.5-5.7c0-0.2,0-0.4-0.1-0.7C70.4,13.6,70.3,13.7,70.2,13.8z M19.8,14.2L19.8,14.2
	c-0.7,1.1-1.4,2.3-2.1,3.4c0.8,1.1,1.5,2.2,2.3,3.4c0,0,0,0,0.1,0C20,18.7,19.9,16.4,19.8,14.2z M37.7,13.1c-0.3-0.1-5-0.1-5.2,0
	c1,1,2,1.9,3.1,2.9C36.3,15,37,14.1,37.7,13.1z M23.2,17.2c-0.3-0.5-2.1-2.8-2.3-3c0,0.1,0,0.2,0,0.3c0,1.1,0.1,2.3,0.1,3.4
	c0,0.9,0,1.8,0.1,2.8c0,0,0,0.1,0,0.2C21.9,19.6,22.5,18.4,23.2,17.2z M14,14.4C13.9,14.4,13.9,14.4,14,14.4c-0.7,1.2-1.4,2.3-2,3.5
	c0.8,1.1,1.5,2.2,2.3,3.2c0-0.1,0-0.2,0-0.2c0-1-0.1-1.9-0.1-2.9c0-0.6-0.1-1.3-0.1-1.9c0-0.5-0.1-1,0-1.5
	C14.1,14.6,14,14.5,14,14.4z M29.6,26.1c1,1,1.9,2,2.9,3c-0.1-1.7,0.1-3.4,0-5.2C31.5,24.6,30.5,25.3,29.6,26.1z M9.9,22.6
	c0.9,1.1,1.7,2.2,2.5,3.3c0.6-1.2,1.2-2.3,1.8-3.5c0.1,0,0.1,0-0.3,0c-0.5,0-1,0.1-1.5,0.1c-0.7,0-1.5,0.1-2.2,0.1
	C10.1,22.6,10.1,22.6,9.9,22.6z M64.7,13.3C64.7,13.3,64.6,13.3,64.7,13.3c0,0.3,0,0.6,0,0.9c0,0.7,0.1,1.4,0.1,2.1
	c0,0.8,0.1,1.7,0.1,2.5c0,0.2,0,0.3,0.1,0.5c0.8-1,1.6-1.9,2.3-2.9c-0.2-0.2-0.4-0.5-0.6-0.7c-0.2-0.3-0.5-0.5-0.7-0.8
	c-0.3-0.4-0.6-0.8-0.9-1.2C65,13.6,64.8,13.5,64.7,13.3z M9.4,15c0,0.2,0,0.3,0,0.5c0.1,1,0.1,2.1,0.2,3.1c0,0.8,0.1,1.5,0.1,2.3
	c0,0.1,0.1,0.2,0.2,0.2c0.6-1.1,1.2-2.1,1.8-3.2c-0.7-1-1.4-2-2.1-3C9.6,14.9,9.5,15,9.4,15z M7.2,25.7c0.6-1,1.1-2,1.6-3
	c-0.1-0.2-0.2-0.2-0.4-0.2c-0.3,0-0.6,0-0.8,0c-1,0-2,0-3,0c-0.1,0-0.1,0-0.2,0C5.4,23.5,6.3,24.6,7.2,25.7z M6.3,18.2
	c-0.2,0.2-1.8,3-1.9,3.1c0.1,0.1,0.2,0.1,0.4,0.1c1.2,0,2.8,0.2,4,0.2C9,21.6,7.1,19.3,6.3,18.2z M7.3,26.1c-0.8,1.5-1.6,3-2.5,4.6
	c1.7-0.2,3.3-0.1,5-0.2c0-0.1,0-0.2,0-0.3c-0.1,0-0.2,0-0.2,0c-0.2,0-0.4,0-0.6,0c-0.4,0-0.8,0-1.3,0c-0.2,0-0.5-0.3-0.5-0.5
	C7.1,29.5,7,29,7,28.8c0-0.3,0-0.7,0.2-1c0.5,0,1,0,1.6-0.1C8.2,27.2,7.8,26.6,7.3,26.1z M26.1,21.6c-0.3,0-0.5,0.1-0.8,0.1
	c-0.2,0-0.4,0-0.7,0c-0.4,0-0.7,0-1.1,0c-0.7,0-1.3,0.1-2,0.1c-0.1,0-0.2,0-0.3,0l0,0.1c0.4,0.6,0.9,1.1,1.3,1.7
	c0.1,0.1,0.1,0.1,0.2,0.1c0.7,0,1.4-0.1,2.1-0.1c0.1,0,0.2,0,0.2-0.1c0.3-0.5,0.6-1.1,0.9-1.6C26.1,21.8,26.1,21.7,26.1,21.6z
	 M14.2,21.4c-0.8-1.1-1.5-2.2-2.3-3.3c-0.6,1.1-1.2,2.2-1.8,3.2c0.1,0.2,0.2,0.2,0.4,0.2c0.2,0,0.3,0,0.5,0c0.7,0,1.4,0,2.1,0
	C14.1,21.5,13.8,21.4,14.2,21.4z M62.4,10c0.1-0.1,0.2-0.2,0.3-0.2c0.1-0.1,0.1-0.1,0.1-0.2c0-0.3,0-0.6,0-1c0-0.7-0.1-1.3-0.1-2
	c0-0.6,0-1.1,0.1-1.7c0-0.1,0.1-0.2-0.1-0.3c-0.1,0-0.2,0.1-0.2,0.2c-0.5,0.7-0.9,1.3-1.4,2c-0.2,0.4-0.5,0.7-0.7,1.2
	C61.1,8.7,61.8,9.3,62.4,10z M44.6,10.9L44.6,10.9c0.8-0.9,1.6-1.9,2.3-2.8c-1.1-1.5-2.1-2.8-2.2-2.9C44.6,7.1,44.6,9,44.6,10.9z
	 M38.9,13.1c0.9,0.9,1.8,1.8,2.7,2.7c0.7-0.8,1.4-1.6,2.1-2.5c-0.1-0.2-0.3-0.2-0.6-0.2c-1.3,0-2.6,0-3.9,0
	C39.1,13.1,39.1,13.1,38.9,13.1z M44.9,13.3c0.1,0.2,1.8,2.3,2.1,2.5c1-0.9,1.9-1.8,2.9-2.7C49.6,13,45.2,13.2,44.9,13.3z M70.4,4.7
	L70.4,4.7c-0.1,0.5,0,1,0,1.5c0,1,0,2,0,3c0,0.1,0,0.2,0,0.3c0.1,0,0.2,0,0.3,0c0.1,0,0.2,0,0.3-0.1c0.6-0.7,1.2-1.4,1.8-2.1
	C71.9,6.5,71.1,5.6,70.4,4.7z M35.7,16.1c0.1,0.1,0.1,0.1,0.1,0.1c0.4,0.4,0.8,0.8,1.3,1.2c0.3,0.3,0.6,0.6,0.9,0.8
	c0.1,0.1,0.2,0.2,0.3,0.1c0-0.4-0.3-4.9-0.4-5.1C37.3,14.2,36.5,15.1,35.7,16.1z M10.2,27.7C10.2,27.7,10.3,27.7,10.2,27.7
	c0.5,0,0.9,0,1.3,0c0.1,0,0.1-0.1,0.2-0.1c0.2-0.5,0.5-0.9,0.7-1.4c-0.8-1-1.6-2-2.4-3.1c0,0,0,0-0.1,0C10,24.6,10.1,26.2,10.2,27.7
	z M44.3,28C44.3,28,44.4,28,44.3,28c0.1-0.7,0.1-1.3,0.1-2c0-0.7,0-1.3,0-2c0-0.6,0-1.3,0-1.9l0,0c-0.7,1.1-1.4,2.3-2.1,3.4
	C43,26.3,43.6,27.2,44.3,28z M38.9,13.3c0.1,0.4,0.3,3.7,0.3,4.3c0,0.2,0,0.4,0.1,0.6c0.1-0.1,0.2-0.1,0.2-0.1
	c0.2-0.2,0.4-0.4,0.6-0.7c0.4-0.5,1.3-1.5,1.4-1.6c-0.5-0.4-0.9-1-1.4-1.4C39.8,14.2,39.1,13.2,38.9,13.3z M4.1,15.2
	C4,15.2,4,15.2,4.1,15.2C4,15.3,4,15.3,4,15.4c0,0.3,0,0.6,0.1,0.9c0.1,0.7,0.1,1.4,0.1,2.1c0,0.4,0,0.7,0.1,1.1
	c0,0.3,0.1,0.6,0,0.9c0,0.2,0,0.5,0.2,0.7c0.5-1,1-2,1.6-3.1C5.4,17.1,4.7,16.1,4.1,15.2z M45.5,20.7C45.5,20.7,45.6,20.7,45.5,20.7
	c0.2,0.1,0.3,0,0.5,0c0.5,0,1,0,1.5-0.1c0.3,0,0.6,0,0.9,0c0.2,0,0.5,0,0.7,0c0.4,0,0.8-0.1,1.3,0c0,0,0.1,0,0.2,0
	c-0.1-0.2-1.7-2.2-2-2.4C47.6,19,46.6,19.8,45.5,20.7z M43.9,13.5C43.9,13.5,43.9,13.4,43.9,13.5c-0.8,0.8-1.5,1.6-2.2,2.5
	c0.7,0.8,1.5,1.5,2.2,2.2c0.2-0.1,0.2-0.1,0.2-0.3c0-0.6,0.1-1.3,0-1.9c0-0.5,0-1-0.1-1.4C43.9,14.2,43.9,13.8,43.9,13.5z M72.8,7.2
	C73,7,73.2,6.7,73.4,6.5c0.4-0.5,0.9-1,1.3-1.6c0.1-0.1,0.1-0.2,0.2-0.2l0-0.1c-0.8,0-1.5,0-2.3,0c-0.6,0-1.3,0-1.9,0l-0.1,0
	C71.4,5.5,72.1,6.4,72.8,7.2z M12.6,26.1c0.3,0.4,0.6,0.7,0.8,1c0.2,0.3,0.5,0.5,0.9,0.4c0.5-0.1,0.6,0.1,0.4-0.6
	c-0.1-0.5-0.1-1.1-0.1-1.7c0-0.4,0-0.9-0.1-1.3c0-0.4-0.1-0.8-0.1-1.2c0,0,0-0.1-0.1-0.1C13.7,23.8,13.2,24.9,12.6,26.1z M7.4,25.9
	c0.5,0.6,1,1.2,1.5,1.7C9,27.8,9,27.8,9.1,27.8c0.1,0,0.3,0,0.4,0c0-0.3,0-0.6-0.1-0.9c-0.1-0.4-0.1-0.8-0.1-1.2
	c-0.1-0.8-0.1-1.6-0.2-2.4c0-0.2-0.1-0.2-0.2-0.3C8.4,24,7.9,24.8,7.4,25.9z M69.7,9.5c0.1,0,0.3,0,0.4,0c0-0.1,0-0.1,0-0.2
	c0-0.3,0-0.5,0-0.8c0-0.5,0-1,0-1.5c0-0.7,0-1.4-0.1-2c0-0.2,0-0.5,0.1-0.7c0.1,0,0.1,0,0.2,0.1c0.1,0.1,0.2,0.1,0.4,0.1
	c0.5,0,1,0,1.4,0c0.9,0,1.8,0,2.7,0c0.4,0,0.7-0.2,0.9-0.5c-0.5,0-1,0-1.5,0c-0.9,0-1.7,0-2.6,0c-0.2,0-1.4,0.1-1.5,0.2
	C70.1,4,70,3.9,69.9,3.7c-0.1-0.1-0.3-0.2-0.4-0.1c-0.1,0.1-0.3,0.1-0.3,0.3c0,0.1,0,0.3,0.1,0.4c0.1,0.2,0.2,0.3,0.4,0.2
	c0.1,0,0.2,0,0.3-0.1c-0.1,0.2-0.3,0.1-0.5,0.3c0,0.2,0,0.9,0,1C69.4,6.1,69.7,9,69.7,9.5C69.6,9.5,69.6,9.5,69.7,9.5z M64.6,12.9
	c1.7,0,3.3,0,4.9,0.1c0,0.1,0.1,0.2,0.1,0.2c0.2,0.3,0.6,0.4,0.8,0.2c0.1-0.2,0.2-0.2,0.4-0.2c0.1,0,0.1,0,0.2,0c0.3,0,0.6,0,0.8,0
	c0.6,0,1.1,0,1.7,0c0.3,0,0.6,0,0.9,0c0.2,0,0.4,0,0.6,0c0.6,0,1.2,0,1.8,0l0.1,0c0.1,0,0.2-0.1,0.2-0.2s0-0.1,0-0.2
	c-0.1,0-0.2,0-0.3,0c-1.3,0-2.7,0.1-4,0.1c-0.7,0-1.5,0.1-2.2,0c-0.1,0-0.2,0-0.3-0.1c-0.2-0.2-0.4-0.2-0.6-0.2l-0.1,0
	c-0.1,0-0.2,0-0.4,0c-1.5,0-3.1,0.1-4.6,0.1c-0.1,0-0.2,0-0.3,0C64.6,12.7,64.6,12.8,64.6,12.9z M51.1,13c0.4,0.5,0.7,0.9,1.1,1.3
	c0.1,0.1,0.2,0.1,0.3,0.1c0.9,0,1.8,0,2.7,0c0.2,0,0.3-0.1,0.3-0.2c0.2-0.3,0.4-0.6,0.7-1c0,0,0-0.1,0.1-0.1
	C54.5,13.1,52.9,13.1,51.1,13z M59.1,16c0.4,0.4,0.8,0.7,1.1,1c0.2-0.2,0.4-0.5,0.6-0.7c0.4-0.5,0.8-0.9,1.3-1.4
	c0.3-0.3,0.7-0.7,0.9-1c0.2-0.2,0.4-0.5,0.6-0.7c0,0,0-0.1-0.1-0.2c-0.1,0-0.2,0-0.3,0c-0.3,0-0.5,0.1-0.7,0.2
	c-0.8,0.7-1.7,1.3-2.5,2C59.8,15.5,59.4,15.8,59.1,16z M15,30.4c-0.1,0-0.2,0-0.3,0c-0.5,0-3.1,0.1-4,0.2c-0.1,0-0.3,0-0.4,0
	c-0.2,0-0.4,0.1-0.6,0.1c-0.9,0-1.8,0.1-2.7,0.1c-0.7,0-1.4,0.1-2,0.1c-0.1,0-0.3,0-0.3,0.2c0,0.1,0.1,0.1,0.3,0.1
	c0.9,0,4-0.1,4.1-0.1c0.3-0.1,0.4-0.1,0.5,0c0.2,0.2,0.5,0.2,0.7,0c0.1-0.1,0.3-0.2,0.4-0.2c1.4-0.1,2.7-0.1,4.1-0.2
	c0.1,0,0.2,0,0.3,0.1c0.2,0.2,0.5,0.3,0.7,0.2c0.1,0,0.1-0.1,0.2-0.2c-0.1-0.1-0.1-0.1-0.2-0.2c0.1-0.1,0.1-0.1,0.2-0.2
	c0.1,0.1,0.3,0.2,0.4,0.2c0.6,0,1.3-0.1,1.9-0.1c0.7,0,1.3,0,2,0c-0.1-0.1-0.1-0.3-0.2-0.5c-0.3,0-0.7,0-1,0c-1,0-1.9,0.1-2.9,0.2
	c-0.2,0-0.3,0-0.6,0.1l-0.1-0.1c0,0,0-0.1,0.1-0.1l0,0c-0.2,0-0.4,0.1-0.6,0.1C15,30.2,15,30.3,15,30.4z M27.1,23.5
	c0.2,0,0.5,0,0.7,0c0.1,0,0.2-0.1,0.3-0.1c0.9-0.7,1.7-1.3,2.6-2c0.1-0.1,0.1-0.1,0.2-0.2c-1.4,0-2.7,0.1-4.1,0.3
	C27,22.2,27.1,22.8,27.1,23.5z M20.3,29.8c-0.5-0.8-1.1-1.5-1.6-2.2c-0.1,0.1-0.1,0.1-0.1,0.2c-0.2,0.1-0.4,0.3-0.6,0.4
	c-0.5,0.4-1,0.8-1.5,1.2c-0.3,0.2-0.3,0.5-0.5,0.8C16.6,29.9,19.6,29.8,20.3,29.8z M69.3,3.5C69,3.6,68.8,3.8,68.6,4l-0.1,0.1
	C68.3,4.1,68.1,4,68,4c-0.4-0.1-1,0-1.5,0c-0.6,0-2.6,0.2-2.7,0.1c-0.1-0.3-0.3-0.5-0.7-0.4C63,4,63,4.2,63.1,4.4
	c0.1,0.2,0.1,0.4,0.1,0.5c0,1.4,0,2.8,0,4.2c0,0.2,0,0.3,0,0.5c0.1,0,0.3,0,0.3,0c0.1,0.1,0.2,0.1,0.3,0.1c0-0.1,0-0.1,0-0.2
	c0-0.5-0.1-1-0.1-1.6c0-0.6,0-1.2-0.1-1.8c-0.1-0.5-0.1-1,0-1.6c1.9-0.1,3.8-0.1,5.7-0.2C69.3,4,69.1,3.8,69.3,3.5z M44.3,4.7
	C44,4.7,44,4.9,44,5.2c0,0.9,0,1.8,0,2.6c0,1.4,0,2.7,0,4.1c0,0.3,0,0.5,0.2,0.7c-0.2,0.2-0.3,0.3-0.4,0.5c0.4,0.2,0.4,0.3,0.7-0.1
	c0-0.1-0.1-0.1-0.1-0.2c0.1,0,0.2-0.1,0.3,0.1c0.1,0.1,0.2,0.1,0.3,0.1c1.6-0.1,3.3-0.1,4.9-0.2c0.1,0,0.2,0,0.3,0
	c0-0.1-0.1-0.2-0.1-0.4c-0.9,0-1.8,0.1-2.7,0.1s-1.7,0.1-2.6,0.1c-0.2,0-0.3-0.1-0.5-0.2c0.2-0.2,0.2-0.3,0.1-0.5c0-0.1,0-0.2,0-0.3
	c0-0.4,0-0.8,0-1.1c0-0.7,0-1.4,0-2.1c0-1.1,0-2.3,0-3.4C44.5,4.9,44.5,4.8,44.3,4.7z M66.2,8c-0.4-0.5-2.2-2.3-2.4-2.4
	C63.9,7,64,8.3,64.1,9.7c0.2,0,0.4,0,0.5,0c0.1,0,0.2,0,0.3-0.1c0.1-0.1,0.2-0.3,0.3-0.4C65.5,8.8,65.8,8.4,66.2,8z M39.7,18.4
	c1.4,0,2.8,0,4.2-0.1c-0.8-0.8-1.5-1.5-2.2-2.2C41,16.8,40.3,17.6,39.7,18.4z M35.6,16.3c0,0.1-1.7,2.2-2.5,3.2l0,0l0,0
	c0.5-0.3,0.9-0.7,1.4-1c0.1-0.1,0.3-0.2,0.5-0.2c0.9,0,1.7,0,2.6,0c0.1,0,0.1,0,0.2,0C37.1,17.7,36.3,17,35.6,16.3z M57.7,19.6
	C57.8,19.7,57.8,19.7,57.7,19.6c0.2-0.1,0.3-0.2,0.4-0.4c0.5-0.5,0.9-1.1,1.4-1.5c0.2-0.1,0.3-0.3,0.4-0.5c-0.4-0.4-0.8-0.7-1.2-1
	c-0.4,0.3-0.8,0.6-1.1,0.9c-0.1,0.1-0.1,0.2-0.1,0.3c0,0.5,0,1,0.1,1.6C57.7,19.2,57.7,19.4,57.7,19.6z M38.1,12.7
	c0,0.3,0.3,0.3,0.4,0.3c0.3-0.1,0.2-0.4,0.1-0.5c-0.1-0.1-0.2-0.3-0.1-0.5l0-0.1c-0.1-2.4-0.1-4.7-0.3-7.1c0-0.2,0-0.3-0.2-0.4
	c0.1-0.2,0.2-0.4,0.1-0.7s-0.6,0-0.6,0.1c-0.1,0.4,0.3,0.5,0.3,0.6c-0.1,0.2,0.2,7.8,0.2,7.9C38.3,12.5,38.3,12.6,38.1,12.7z
	 M51.2,20.5c0.3-0.3,2.2-3.1,2.3-3.3c-0.8,0-1.6,0-2.3,0.1C51.2,18.3,51.2,19.4,51.2,20.5z M54.5,17.2c0.3,0.4,2.3,2.8,2.5,2.9
	c0-0.4-0.1-2.8-0.2-3C56.4,17,54.7,17.1,54.5,17.2z M31.9,12.1c0-0.2,0-0.3-0.1-0.4c-0.1-1-0.1-1.9-0.2-2.9c0-0.8-0.1-1.7-0.1-2.5
	c0-0.4,0-0.7,0-1c0-0.2,0-0.4-0.1-0.5C31.3,4.9,31.2,4.9,31,5c0.1,2.4,0.2,4.8,0.3,7.2C31.5,12.1,31.7,12.1,31.9,12.1z M4,30
	C4,27.6,4,25.1,3.9,22.7c-0.2,0-0.3,0.1-0.4,0.1c0,0.1,0,0.2,0,0.3c0,2.2,0,4.4,0.1,6.6c0,0.1,0,0.1,0,0.2c0,0.1,0.1,0.2,0.2,0.2
	C3.8,30,3.9,30,4,30z M64.6,29.5c0-0.1,0-0.3,0-0.4c0-1.4,0-2.7,0-4.1c0-0.6,0-1.2,0-1.9c0-0.3,0-0.5,0-0.8c0-0.2,0-0.5,0-0.7
	c0-0.2,0-0.4,0-0.5c-0.1,0-0.2,0-0.4,0c0,0.3,0,0.5,0,0.8c0,0.6,0,1.2,0,1.8c0,0.9,0,1.7,0,2.6c0,0.7,0,1.5,0,2.2
	c0,0.2,0,0.5-0.1,0.7c0,0-0.2,0.2-0.2,0.3C63.9,29.8,64.4,30,64.6,29.5z M44.9,13.6C44.8,13.6,44.8,13.6,44.9,13.6
	c-0.1,0.1-0.1,0.1-0.1,0.2c0,0.2,0,0.5,0,0.7c0,0.4,0.1,0.8,0.1,1.2c0,0.5,0.1,1,0.1,1.5c0,0.1,0,0.1,0,0.2c0.6-0.5,1.2-0.9,1.7-1.5
	C46.1,15.1,45.5,14.4,44.9,13.6z M3.6,14.6c-0.1,0-0.2,0-0.3-0.1c-0.2,0-0.3,0.1-0.3,0.2s0,0.1,0,0.2c0.1,1.1,0.2,2.2,0.2,3.4
	c0.1,0.9,0.1,1.8,0.1,2.6c0,0.1,0,0.2,0,0.2c0.2,0,0.3,0,0.5,0c0.1-0.4,0.1-0.8,0.1-1.2c0-0.4-0.1-0.8-0.1-1.2
	c-0.1-1.2-0.1-2.4-0.2-3.6C3.6,14.9,3.6,14.8,3.6,14.6z M77.7,13.8c0,0.2,0,0.4,0,0.6c0,0.5,0.1,0.9,0.1,1.4c0,1.2,0.1,2.3,0.1,3.5
	c0,0.3,0.1,0.5,0.1,0.8c0,0.2-0.1,0.8,0,0.9l0.2,0c0.1,0,0.3-0.3,0.3-0.4c-0.1-0.2-0.1-0.4-0.2-0.6c-0.1-0.1-0.1-0.8-0.1-1
	c0-0.3,0-0.7,0-1c0-0.6,0-1.3,0-1.9c0-0.8-0.1-1.5-0.1-2.3c0-0.1,0-0.2,0.1-0.2c0.1-0.2,0.2-0.3,0.1-0.5c-0.1-0.1-0.2-0.2-0.3-0.2
	c-0.1,0-0.3,0-0.4,0.1c-0.2,0.2-0.2,0.4,0,0.6c0.1,0,0.2,0.1,0.4,0.1C77.8,13.7,77.8,13.7,77.7,13.8z M64.8,20.3c0-0.1,0-0.2,0-0.3
	c0-0.3,0-0.6,0-0.9s-0.1-0.7-0.1-1c0-0.8-0.1-1.5-0.1-2.3c0-0.5-0.1-1-0.1-1.5c0-0.2,0-0.4,0-0.6c-0.1-0.2,0.1-0.4,0-0.5
	c0.2-0.2,0-0.4,0-0.6c-0.2,0-0.3,0-0.5,0s-0.2,0-0.3,0.2c0,0.2-0.1,0.4,0.1,0.5c0,0.2,0.1,0.3,0.3,0.4c-0.1,0-0.1,0-0.2,0
	c0,0.3,0.1,0.5,0.1,0.7c0,0.3,0.1,0.7,0.1,1c0,1.1,0,2.1,0.2,3.2c0,0.3,0,0.5,0.1,0.8c0,0.1,0,0.1,0,0.2c0,0.3,0,0.5,0.1,0.8
	C64.6,20.3,64.6,20.3,64.8,20.3z M85.7,12.1c0-0.1,0-0.2,0-0.3c0-0.4-0.1-0.9-0.1-1.3c-0.1-1.8-0.1-3.6-0.2-5.4c0-0.1,0-0.3-0.1-0.4
	c-0.1-0.2-0.1-0.2,0.1-0.4c0.4-0.2,0.5-0.4,0.2-0.8c0,0,0,0-0.1-0.1c-1.1,0-1.1,0.4-1.1,1c0.1,0.1,0.4,0.4,0.5,0.4
	C85,5,84.6,5,84.7,5.6C84.5,7,85,9.5,85,11c0,0.3,0,0.9,0.2,1.2C85.6,12.1,85.6,12.1,85.7,12.1z M21.3,26.8c0,0.1,0,0.1,0,0.2
	c0,0.8,0.1,1.6,0.1,2.4c0,0.1,0,0.3,0,0.4c0,0.1,0,0.1,0.2,0.1c0.5-1,1.1-1.9,1.6-2.9c0-0.1,0.1-0.2,0.1-0.2l0,0l0,0
	C22.7,26.7,22,26.7,21.3,26.8z M37.3,3.9c-0.1,0-0.2,0-0.3,0c-1,0-2,0-3,0.1c-0.6,0-1.3,0-1.9,0c-0.1,0-0.1,0-0.2,0
	c-0.1-0.1-0.3-0.2-0.4-0.3c-0.2-0.2-0.5-0.2-0.6,0.1c-0.1,0.1-0.1,0.3-0.1,0.4c0,0.1,0,0.3,0.2,0.3c0.1,0.1,0.2,0.2,0.3,0.3
	c0.2,0,0.2,0,0.5-0.4c0.2,0,0.4,0,0.6,0c1,0,2,0,3,0c0.4,0,0.9,0,1.3,0c0.3,0,0.6,0,0.9,0C37.3,4.2,37.3,4.2,37.3,3.9z M78.2,12.5
	c0-0.1,0-0.2,0-0.4c0-0.2,0-0.4-0.1-0.6C78,10.7,78,9.9,77.9,9c0-0.4-0.1-0.7-0.1-1.1c0-0.7,0-1.4,0-2.1c-0.2,0-0.4,0-0.5,0
	c0,0.1,0.1,0.2,0.1,0.3c0,0.1,0,0.2,0,0.3c0,0.1,0,0.1,0,0.2c0,0.5,0.1,1,0.1,1.5c0,0.5,0,1,0.1,1.5c0,0.5,0.1,1.1,0.1,1.6
	c0,0.1,0,0.3,0,0.4c0,0.2,0,0.4-0.1,0.6C77.7,12.6,77.9,12.5,78.2,12.5z M45.2,29.9c0-0.1-0.1-0.3-0.1-0.3c-0.1,0-0.1-0.1-0.1-0.2
	c0-0.2-0.1-0.3-0.1-0.5c0-1,0-2,0-3c0-1.3,0-2.6-0.1-3.8c0-0.3,0-0.6,0-0.9l-0.1,0c0,0.1-0.1,0.2-0.1,0.3s-0.1,0.2-0.1,0.3
	c0,0.1,0,0.2,0,0.3c0,1.1,0,2.2,0,3.3c0,1.2,0,2.4-0.1,3.6c0,0.2,0,0.3,0,0.4l-0.1,0c-0.1-0.1-0.2,0-0.3,0.1c0,0.1,0,0.2,0.1,0.3
	c0.1,0,0.2,0.1,0.2,0.1C44.7,30.1,44.9,30,45.2,29.9z M15.1,22.4c-0.2,0-0.3,0-0.5-0.1c0.1,1.7,0.2,3.3,0.3,5
	c0.2-0.1,0.3-0.2,0.5-0.3c0.1-0.1,0.1-0.2,0.1-0.3c0-0.1,0-0.2,0-0.2c-0.1-1.1-0.2-2.2-0.2-3.4C15.3,22.9,15.3,22.6,15.1,22.4z
	 M15.7,23.1c-0.1,0.5,0.2,3.4,0.2,3.5c0.3-0.2,1.3-0.9,1.5-1.1C16.8,24.7,16.2,23.9,15.7,23.1z M50.7,21.6c0,0.1,0,0.2,0,0.3
	c0,0.1,0,0.2,0,0.3c0,0.3,0,0.6,0,0.8c0.1,1.8,0.1,3.6,0.3,5.3c0,0.1,0,0.2,0,0.3c-0.1,0.3,0,0.5,0,0.7c0,0.1-0.1,0.1-0.1,0.2
	c-0.1,0.2-0.1,0.2,0.1,0.4c0.3,0.3,0.8,0.2,1-0.1l0.1-0.1c-0.3-0.4-0.4-0.4-0.7-0.3c0-0.1,0-0.1,0-0.2c0-0.2,0-0.4,0-0.6
	c0-1-0.1-1.9-0.1-2.9c0-1-0.1-2-0.1-3c0-0.2,0-0.5,0-0.7C51.2,21.6,51.1,21.6,50.7,21.6z M38.2,13.2c-0.1,0.3,0.2,4.9,0.3,5.2
	c0.1,0,0.3,0,0.4,0C39,18.3,39,18.1,39,18c0-0.5-0.1-1.1-0.1-1.6c0-0.7-0.2-3-0.3-3.1C38.5,13.2,38.4,13.2,38.2,13.2z M50.8,11.9
	c0-0.1,0-0.3,0-0.4c-0.1-0.3-0.1-0.6-0.1-1c0-0.5,0-1.1,0-1.6c0-0.5,0-1,0-1.5c0-0.4,0-0.8,0-1.2c0-0.6,0-1.2,0-1.8
	c-0.1,0.1-0.2,0.1-0.4,0.2c-0.1,0.8,0,1.7,0,2.5s0,1.6,0,2.5c0,0.8,0.1,1.6,0,2.5C50.5,12,50.6,12,50.8,11.9z M48.8,18.1
	c0.2,0.3,1.6,2,1.8,2.1c0-1-0.1-2-0.1-2.9c-0.4-0.1-0.6,0-0.9,0.2c-0.1,0.1-0.2,0.2-0.3,0.2C49.1,17.8,49,17.9,48.8,18.1z
	 M26.8,26.5c-0.7,0-1.3,0.1-1.9,0.1c0.7,0.9,1.3,1.8,2,2.7c0,0,0,0,0.1,0C26.9,28.3,26.8,27.4,26.8,26.5z M62.8,3.8L62.8,3.8
	C62.6,4,62.3,4,62,4c-0.5,0-1,0-1.4,0c-0.9,0-1.8,0-2.7,0c-0.3,0-0.6,0-0.8-0.3c-0.1-0.1-0.2-0.2-0.4-0.2c-0.2,0-0.3,0.1-0.3,0.2
	c0,0.2,0,0.3,0.1,0.5c0.2,0.2,0.4,0.2,0.6,0.1c0.2-0.1,0.3-0.1,0.2,0c0.4,0,0.7,0.1,1,0.1c1.3,0,2.6-0.1,3.9-0.1c0.1,0,0.3,0,0.4,0
	c0.2,0,0.2,0,0.2-0.2C62.8,4.1,62.8,4,62.8,3.8z M50.9,4.4c0.1,0,0.2,0,0.3,0c1.3,0,2.5-0.1,3.8-0.1c0.5,0,0.9,0,1.4,0
	c-0.2-0.2-0.2-0.4-0.2-0.7C56.1,3.7,56,3.7,56,3.8C56,4,55.8,4,55.7,4c-0.4,0-0.9,0-1.3,0c-0.5,0-0.9,0-1.4,0
	c-0.6,0-2.2-0.1-2.2-0.1c-0.4-0.3-0.7-0.4-1,0c0.1,0,0.1,0.9,0.9,0.4C50.9,4.2,50.9,4.3,50.9,4.4z M32.2,12.9
	C32.1,12.9,32.1,12.9,32.2,12.9c-0.1,0.1-0.1,0.2-0.2,0.2c-0.1,0.1-0.1,0.2-0.1,0.3c0,0.4,0,0.8,0,1.1c0.1,1.8,0.1,3.5,0.2,5.3
	c0,0.2,0,0.3,0.2,0.4c0.2-0.1,0.3-0.2,0.3-0.4c0-0.3,0-0.7,0-1c-0.1-1.9-0.2-3.7-0.3-5.5C32.2,13.1,32.2,13,32.2,12.9z M39.5,30
	c0-0.2-0.1-0.4-0.3-0.4c0,0-0.1-0.1-0.1-0.2c0-0.2,0-0.4,0-0.7c0-1.6,0-3.3,0-4.9c0-0.6,0-1.3,0-1.9c0-0.3-0.1-0.3-0.3-0.2
	c0,0.2,0,0.5,0,0.7c0,0.2,0,0.3,0,0.5c0,0.6,0,1.3,0,1.9c0,0.4,0,0.8,0,1.2c0,0.8,0,1.6,0,2.5c0,0.3,0,0.7,0,1c0,0.1,0,0.1-0.1,0.2
	c0,0.1-0.1,0.2-0.2,0.3C38.8,30.1,39.1,30.2,39.5,30z M57.2,20.8c-0.1,0-0.1,0-0.2,0c-0.4,0-0.8,0-1.2,0c-1.4,0-2.8,0-4.2,0.1
	c-0.1,0-0.2,0-0.3,0c0.1,0.1,0.1,0.3,0.2,0.4c0.1,0,0.2,0,0.3,0c1.4,0,2.8,0,4.2-0.1c0.4,0,0.8,0,1.1-0.1
	C57.1,21.1,57.1,21,57.2,20.8z M25.1,13.2C25.1,13.2,25.1,13.1,25.1,13.2c0-0.1,0-0.1,0-0.1c0-0.1,0-0.2,0.1-0.1
	c0.1,0,0.1,0.1,0.1,0.1c0,0.3,0.2,0.4,0.5,0.4c0.1,0,0.2-0.1,0.2-0.1c0-0.1,0.1-0.2,0.2-0.3c-0.1-0.2-0.5-0.4-0.7-0.4
	c0,0-0.1,0-0.1,0.1c-0.1,0.2-0.6,0.1-0.7,0.1c-0.8,0-3.3,0.1-3.7,0.2c-0.1,0-0.1,0.4-0.1,0.3C20.9,13.6,24.8,13.3,25.1,13.2z
	 M79.6,30c0.1,0,0.1,0,0.2,0c0.3,0,0.6,0,0.9,0c0.6,0,3.4,0,4.2-0.1c0.2,0,0.3-0.1,0.5,0c0.2,0,0.4,0.1,0.5,0.3s0.4,0.2,0.6,0
	c0.1-0.1,0.1-0.3,0.1-0.4c0-0.2-0.2-0.2-0.2-0.3l-0.1-0.1l-0.1,0.1c0,0.1-0.1,0.2-0.2,0.2l-0.1,0c-0.4,0-0.7,0.1-1.1,0.1
	c-0.5,0-1,0-1.5,0c-0.6,0-1.3,0-1.9,0c-0.5,0-1,0-1.6,0C79.6,29.8,79.6,29.9,79.6,30z M26.3,13.1c0.4,0,4.7-0.2,4.9-0.2
	c0-0.1-0.1-0.3-0.1-0.4c-0.2,0-0.4,0-0.5,0c-0.5,0-1,0.1-1.5,0.1c-0.8,0-1.6,0.1-2.5,0.1c-0.1,0-0.3,0-0.4,0.1
	C26.3,12.9,26.3,13,26.3,13.1z M32.7,29.5c0.2,0,0.2-0.2,0.2-0.3c0-0.1,0-0.1,0-0.2c0-0.5,0-1.1,0-1.6c0-1,0-1.9,0-2.9
	c0-0.2,0-0.4,0-0.5c0-0.1,0-0.2,0-0.4c-0.2,0.3-0.3,0.6-0.3,0.9c0,0.5,0,1-0.1,1.5c0,1,0,2,0,2.9C32.6,29.1,32.6,29.3,32.7,29.5z
	 M44.5,3.9l-0.1-0.1c-0.1-0.2-0.2-0.3-0.4-0.3c-0.1,0-0.2,0-0.2,0c-0.2,0-0.5,0.2-0.4,0.4c0.1,0.3,0.3,0.4,0.4,0.5
	c0.2,0.2,0.4,0.3,0.5,0l0-0.1c0-0.2,0.1-0.3,0.3-0.2l0.1,0c0.4,0,0.7,0,1.1,0c0.4,0,0.7,0,1.1,0c0.9,0,1.9,0,2.8,0
	c0-0.1,0-0.1,0.1-0.2c-0.1,0.1-3.1,0-3.9,0C45.4,3.9,45,3.9,44.5,3.9z M19.3,3.5L19.3,3.5c-0.1,0.1-0.3,0.1-0.4,0.1
	c-0.5,0-1,0-1.6,0c-0.7,0-1.4,0.1-2.1,0.1c-0.2,0-0.3,0.1-0.5,0.1c-0.1,0-0.1,0-0.2-0.1c0-0.1,0-0.1,0.1-0.2c0-0.1,0-0.2,0-0.2
	c0-0.1-0.4-0.2-0.5-0.1c-0.2,0.1-0.4,0.3-0.4,0.5c0,0.1,0.1,0.3,0.1,0.5l0,0C14,4.1,13.9,4.3,14,4.4c0.3-0.1,0.4-0.4,0.6-0.6
	c0.1,0,0.3-0.1,0.3,0c0,0.3,3.7,0.1,4.1,0.1C19.2,4,19.2,3.7,19.3,3.5z M26.7,21c0.1,0.1,0.1,0.2,0.1,0.2c0.4,0,0.8,0,1.2,0
	c0.8-0.1,1.5-0.1,2.3-0.2c0.2,0,0.4-0.1,0.5,0c0.3,0.1,0.6-0.1,0.9-0.3l0.1-0.1c-0.1,0-0.2,0-0.3,0c-1.1,0.1-2.1,0.1-3.2,0.2
	c-0.4,0-0.9,0.1-1.3,0.1C26.8,20.9,26.7,20.9,26.7,21c-0.1,0-0.1-0.1-0.2-0.1l-0.1-0.1c-0.1,0.1-0.1,0.3-0.2,0.4
	c0,0.1,0,0.2,0.1,0.2c0.1,0,0.2,0,0.2-0.1C26.5,21.2,26.6,21.1,26.7,21z M21,21.3c-0.2-0.2-0.3-0.2-0.5,0l-0.1,0
	c-0.2,0.1-0.2,0.2-0.1,0.4c0.1,0.2,0.6,0.3,0.7,0l0.1-0.1c0.1,0,0.3,0,0.5,0c0.3-0.1,0.6-0.1,0.9-0.1c0.7,0,1.3,0,2,0
	c0.4,0,0.7,0,1.1,0c0.2,0,0.3,0,0.5-0.1c0-0.1,0-0.2,0-0.3c-0.1,0-0.2,0-0.3,0C24.2,21.1,22.6,21.2,21,21.3z M20.3,26.9
	c-0.6-0.1-1,0.2-1.4,0.6c0.5,0.7,0.9,1.3,1.4,1.9l0,0C20.3,28.5,20.3,27.7,20.3,26.9z M66.4,8.2c-0.3,0.2-1.2,1.3-1.2,1.4
	c0.8,0,1.7,0,2.6,0C67.2,9.1,66.8,8.7,66.4,8.2z M37.8,12.4c-0.4,0-0.8,0-1.3,0c-0.3,0-0.6,0-0.9,0c-1.1,0-2.2,0-3.3,0
	c-0.1,0-0.1,0-0.2,0c0,0.1,0.1,0.2,0.1,0.2c1.8,0.2,3.7,0.1,5.5,0.1C37.8,12.7,37.8,12.6,37.8,12.4z M44.2,13.5c0,0.4,0,0.9,0,1.3
	c0,0.8,0,1.6,0,2.4c0,0.2,0,0.4,0.1,0.6c0.1-0.1,0.2-0.1,0.3-0.2s0.2-0.2,0.1-0.3c0-0.2,0-0.5,0-0.7c0-0.6-0.1-1.2-0.1-1.7
	c0-0.5,0-1,0-1.5c0-0.1,0-0.1,0-0.2C44.4,13.4,44.3,13.4,44.2,13.5z M25.8,13.6c0,0.5,0,1.1,0.1,1.6c0.1,1.2,0.1,2.4,0.2,3.6
	c0,0.5,0.1,1,0.1,1.6c0,0.1,0,0.2,0,0.3c0.1,0,0.2,0,0.2-0.1c0-0.1,0-0.2,0-0.3c-0.1-1.1-0.1-2.2-0.2-3.3c-0.1-1.1-0.1-2.2-0.2-3.2
	l0-0.1C25.9,13.6,25.9,13.6,25.8,13.6z M45.3,30c0.2,0,1.6-0.1,2.2-0.1c0.5,0,1.1,0,1.6,0c0.4,0,0.9,0,1.3-0.1c0,0,0,0,0.1,0
	c0-0.1,0-0.1,0-0.1c-1.8,0-3.5,0-5.3,0C45.3,29.8,45.3,29.9,45.3,30z M19.4,13.1c-0.1,0-0.2,0-0.3,0c-0.9,0-1.7,0.1-2.6,0.2
	c-0.4,0-0.8,0-1.2,0.1c-0.2,0-0.2,0-0.2,0.3c0.2,0.1,3.8,0,4.3-0.1C19.4,13.4,19.4,13.2,19.4,13.1z M43.7,12.6c-0.5,0-0.9,0-1.3,0
	c-0.6,0-1.2,0-1.9-0.1c-0.1,0-0.2,0-0.3,0c-0.1,0-0.2,0-0.3,0c-0.3,0-0.6,0-1,0c-0.1,0-0.2,0-0.2,0.1s0.1,0.2,0.2,0.2l0.1,0
	c0.4,0,0.7,0,1.1,0c1,0,1.9,0,2.9,0.1c0.1,0,0.2,0,0.4,0C43.5,12.9,43.6,12.8,43.7,12.6C43.8,12.8,43.7,12.7,43.7,12.6z M63.6,29.7
	c0-0.2-0.2-0.2-0.4-0.2c-1.2,0-2.4,0.1-3.6,0.1c-0.3,0-1,0.1-1,0.1s0,0.1,0,0.2C58.6,29.9,63.3,29.9,63.6,29.7z M50.2,13
	c-0.9,0.8-1.8,1.6-2.7,2.4l0,0c0.1,0,0.1-0.1,0.2-0.1c0.4-0.3,0.7-0.5,1.1-0.8c0.1-0.1,0.3-0.2,0.5-0.1c0.2,0,0.5,0,0.7,0
	c0.3,0,0.3,0,0.3-0.3c0-0.3,0-0.7,0-1C50.3,13.2,50.2,13.1,50.2,13z M21,23.8c0-0.6,0-1.2,0-1.8c-0.1,0-0.3,0-0.4,0
	c-0.1,0-0.2-0.1-0.3-0.1c0,0.4,0,1.7,0.1,1.9C20.6,23.8,20.8,23.8,21,23.8z M39.3,30.3c0.1,0,0.2,0,0.3,0c0.1-0.1,0.3-0.1,0.5-0.1
	c0.4,0,0.7,0,1.1,0c0.9,0,1.9,0,2.8,0c-0.1-0.3-0.3-0.3-0.6-0.3c-1.1,0-2.2,0-3.4,0c-0.1,0-0.2,0-0.3,0
	C39.7,30.1,39.5,30.2,39.3,30.3z M9.6,14c0.5,0,1.1-0.1,1.6-0.1c0.7-0.1,1.3-0.2,2-0.2c0.2,0,0.3,0,0.3-0.2c-0.7,0-1.3,0.1-2,0.1
	c-0.7,0-1.3,0-2,0.1C9.6,13.8,9.6,13.9,9.6,14z M22.4,23.8C22.4,23.7,22.4,23.7,22.4,23.8c-0.4-0.6-0.8-1.2-1.2-1.7
	c0,0.6,0,1.2,0,1.8C21.6,23.8,22,23.8,22.4,23.8z M52.2,29.9C52.3,29.9,52.3,29.9,52.2,29.9C52.3,29.9,52.3,29.9,52.2,29.9
	c0.6,0.1,1,0.1,1.5,0.1c0.8,0,1.7,0,2.5,0c0.3,0,0.5,0,0.8-0.1c-0.1,0-0.1-0.1-0.2-0.1c-0.2,0-0.3,0-0.5,0c-0.2,0-0.4,0-0.6,0
	c-0.9,0-1.7,0-2.6,0c-0.3,0-0.5,0-0.8,0C52.4,29.8,52.3,29.9,52.2,29.9z M12.5,26.3c-0.2,0.3-0.6,1.1-0.7,1.3c0.5,0,1.1,0,1.6-0.1
	C13.2,27.1,12.9,26.7,12.5,26.3z M20.1,23.9c0-0.6,0-1.1,0-1.7c-0.2,0.2-1.1,2.1-1.1,2.3c0.2-0.2,0.5-0.4,0.7-0.6
	c0.1,0,0.1-0.1,0.2-0.1C19.9,23.9,20,23.9,20.1,23.9z M50.9,17.2c-0.1,0-0.2,0-0.3,0c0,0.1,0,0.1,0,0.2c0,0.6,0,1.3,0.1,1.9
	c0,0.4,0,0.8,0.1,1.2c0,0.1,0,0.2,0.1,0.3c0.1-0.1,0.1-0.2,0.1-0.3c0-1-0.1-2.1-0.1-3.1C50.9,17.3,50.9,17.3,50.9,17.2z M26.3,23.6
	c0-0.5,0-1-0.1-1.6c-0.3,0.3-0.9,1.4-0.9,1.6C25.6,23.6,25.9,23.6,26.3,23.6z M14.7,30.2C14.7,30.1,14.7,30.1,14.7,30.2
	c-0.1-0.1-0.2-0.1-0.3-0.1c-0.9,0-1.8,0-2.6,0.1c-0.4,0-0.8,0-1.2,0c-0.1,0-0.2,0-0.2,0.2C11.8,30.3,13.3,30.2,14.7,30.2z
	 M56.5,13.3c-0.2,0.1-0.8,1-0.8,1.2c0.3,0,0.6,0,0.9,0C56.6,14.1,56.6,13.7,56.5,13.3C56.6,13.3,56.5,13.3,56.5,13.3z M26.8,23.5
	c0-0.7-0.1-1.4-0.1-2.1c-0.1,0.1-0.2,0.1-0.3,0.2c0.1,0.6,0.1,1.3,0.2,1.9C26.6,23.5,26.7,23.5,26.8,23.5z M3.5,30.7
	c0,0.1,0.1,0.6,0.3,0.7c0.1,0,0.4-0.2,0.5-0.3c0.1-0.1,0.2-0.3,0.2-0.5c0-0.2-0.1-0.3-0.3-0.3C3.7,30.3,3.5,30.6,3.5,30.7z M52,14.5
	c-0.3-0.4-0.8-1-1-1.1c0,0.4,0,0.8,0.1,1.1C51.4,14.5,51.7,14.5,52,14.5z M50.5,13c0,0.5,0.1,1,0.1,1.5c0.1,0,0.1,0,0.2,0l0.1,0
	c0-0.5,0-1,0-1.5C50.7,12.9,50.6,13,50.5,13z M58.6,13.3c-0.4,0-0.7,0-1,0c0,0.3,0,0.5,0,0.8c0.1-0.1,0.1-0.1,0.2-0.1
	C58,13.8,58.3,13.5,58.6,13.3z M31.4,12.6c0,0.2,0.2,0.4,0.4,0.4s0.2-0.3,0.3-0.3c0,0,0,0,0-0.1c0-0.1,0-0.2-0.1-0.3
	c-0.1,0-0.2-0.1-0.3-0.1C31.4,12.3,31.4,12.4,31.4,12.6z M50.2,12.6c0.2,0.2,0.2,0.2,0.5,0c0.1-0.1,0.2-0.1,0.1-0.3
	c0-0.1-0.1-0.2-0.2-0.2C50.4,12.3,50.3,12.4,50.2,12.6z M76,18.9c-0.2-0.3-1.8-1.9-2-2C74.6,17.6,75.3,18.2,76,18.9z M77.8,3.7
	c-0.1-0.1-0.1-0.2-0.2-0.3c-0.3,0-0.6-0.1-0.8,0.3C77.1,3.7,77.4,3.7,77.8,3.7z M50.7,21.2c0,0.1,0.1,0.3,0.3,0.2
	c0.1,0,0.2-0.1,0.2-0.3c0-0.1-0.2-0.3-0.2-0.3C50.8,20.9,50.7,21,50.7,21.2z M33.2,29.6C33.1,29.6,33.1,29.6,33.2,29.6
	c-0.3,0-0.5,0.1-0.5,0.3c0,0.1,0,0.2,0.1,0.2c0.1,0,0.3-0.1,0.3-0.2C33.2,29.8,33.2,29.7,33.2,29.6z M64.5,20.9
	c0.2,0,0.3-0.1,0.3-0.2c0-0.1,0-0.2-0.1-0.2c-0.1,0-0.2,0-0.2,0.1C64.4,20.7,64.4,20.8,64.5,20.9z M9.9,30.5
	c0.2-0.1,0.2-0.1,0.2-0.3L10,30.1l-0.1,0.1C9.9,30.4,9.9,30.5,9.9,30.5z M63.6,12.5c-0.1,0.1-0.3,0.2-0.4,0.3l0,0c0.1,0,0.2,0,0.3,0
	C63.6,12.7,63.6,12.7,63.6,12.5z"/>
</svg>
