<?xml version="1.0" encoding="utf-8"?>
<!-- Generator: Adobe Illustrator 16.0.4, SVG Export Plug-In . SVG Version: 6.00 Build 0)  -->
<!DOCTYPE svg PUBLIC "-//W3C//DTD SVG 1.1//EN" "http://www.w3.org/Graphics/SVG/1.1/DTD/svg11.dtd">
<svg version="1.1" id="Layer_1" xmlns="http://www.w3.org/2000/svg" xmlns:xlink="http://www.w3.org/1999/xlink" x="0px" y="0px"
	 width="53.833px" height="56.5px" viewBox="0 0 53.833 56.5" enable-background="new 0 0 53.833 56.5" xml:space="preserve">
<g>
	<path fill-rule="evenodd" clip-rule="evenodd" stroke="#000000" stroke-width="0.75" stroke-miterlimit="10" d="M17.711,52.894
		c-0.092,0.014-0.184,0.03-0.276,0.041c-0.237,0.029-0.475,0.052-0.712,0.083c-0.125,0.016-0.251,0.041-0.377,0.061
		c-0.239,0.041-0.479,0.08-0.717,0.122c-0.124,0.023-0.243,0.063-0.367,0.076c-0.188,0.019-0.377,0.022-0.622,0.034
		c-0.12,0.157-0.309,0.366-0.451,0.604c-0.147,0.247-0.387,0.27-0.613,0.302c-0.423,0.06-0.852-0.023-1.269-0.011
		c-0.524,0.014-0.872-0.244-1.226-0.527c-0.178-0.143-0.307-0.352-0.449-0.536c-0.164-0.213-0.32-0.431-0.479-0.647
		c-0.014-0.019-0.026-0.046-0.026-0.07c0.002-0.154,0.008-0.301-0.097-0.438c-0.032-0.041,0.058-0.16,0.043-0.233
		c-0.043-0.214-0.125-0.42-0.165-0.636c-0.032-0.171-0.021-0.352-0.033-0.527c-0.003-0.05-0.015-0.1-0.027-0.148
		c-0.024-0.091-0.068-0.18-0.076-0.273c-0.03-0.364-0.049-0.729-0.073-1.094c-0.002-0.04-0.004-0.081-0.012-0.119
		c-0.016-0.084-0.037-0.167-0.08-0.244c0-0.165,0.008-0.33-0.001-0.494c-0.021-0.379-0.051-0.756-0.079-1.134
		c-0.01-0.158-0.06-0.324-0.025-0.47c0.092-0.391-0.044-0.771-0.017-1.158c0.018-0.261-0.027-0.526,0.177-0.769
		c-0.447-0.114-0.604-0.469-0.654-0.837c-0.063-0.459-0.057-0.933,0.016-1.396c0.015-0.097,0.113-0.176,0.152-0.272
		c0.033-0.082,0.056-0.179,0.05-0.266c-0.049-0.754-0.105-1.508-0.16-2.261c0-0.014-0.003-0.027-0.003-0.041
		c-0.05-1.046-0.146-2.089-0.217-3.134c-0.071-1.047-0.139-2.095-0.208-3.141c-0.074-1.122-0.115-2.245-0.234-3.361
		c-0.084-0.781-0.069-1.563-0.117-2.343c-0.005-0.088,0.075-0.179,0.107-0.271c0.03-0.084,0.076-0.173,0.072-0.257
		c-0.051-0.839-0.11-1.678-0.167-2.518c-0.113-1.681-0.229-3.363-0.339-5.043c-0.036-0.547-0.049-1.095-0.093-1.642
		c-0.015-0.181-0.083-0.36-0.149-0.533c-0.237-0.634-0.324-1.294-0.387-1.962c-0.107-1.138-0.229-2.274-0.334-3.413
		c-0.022-0.248,0.006-0.5-0.001-0.752c-0.005-0.18-0.045-0.36-0.047-0.54c-0.001-0.197,0.025-0.396,0.036-0.594
		C6.99,9.98,6.988,9.853,6.99,9.726c0.003-0.189-0.005-0.379,0.013-0.567c0.025-0.265,0.072-0.527,0.105-0.791
		c0.004-0.033-0.01-0.068-0.021-0.101c-0.01-0.027-0.044-0.054-0.04-0.076C7.107,7.818,7.118,7.424,7.25,7.077
		c0.164-0.431,0.354-0.9,0.669-1.212c0.347-0.343,0.815-0.567,1.387-0.472c0.394,0.065,0.813-0.021,1.219-0.042
		c0.298-0.016,0.595-0.021,0.89-0.057c0.275-0.032,0.547-0.096,0.82-0.146c0.509-0.097,1.015-0.208,1.526-0.288
		c0.456-0.07,0.919-0.098,1.375-0.163c0.309-0.045,0.61-0.131,0.918-0.183c0.555-0.092,1.111-0.17,1.666-0.258
		c0.249-0.039,0.495-0.096,0.745-0.128c0.926-0.119,1.853-0.23,2.78-0.347c0.556-0.071,1.111-0.146,1.666-0.216
		c0.618-0.079,1.24-0.143,1.856-0.235c0.392-0.058,0.777-0.162,1.167-0.235c0.671-0.125,1.342-0.253,2.016-0.362
		c0.324-0.053,0.655-0.062,0.982-0.098c0.287-0.03,0.572-0.103,0.858-0.103c0.52-0.001,1.032-0.06,1.542-0.14
		c0.658-0.102,1.312-0.229,1.969-0.325c0.339-0.048,0.687-0.033,1.026-0.078c0.298-0.041,0.588-0.131,0.883-0.189
		c0.225-0.044,0.453-0.072,0.678-0.108c0.414-0.066,0.83-0.121,1.241-0.204c0.361-0.072,0.715-0.18,1.076-0.258
		c0.056-0.012,0.153,0.036,0.194,0.087c0.532,0.657,1.179,1.13,2.004,1.364c0.353,0.101,0.681,0.283,1.025,0.418
		c0.582,0.228,1.175,0.41,1.812,0.416c0.09,0.001,0.227,0.071,0.262,0.146c0.102,0.222,0.26,0.417,0.283,0.685
		c0.009,0.104-0.035,0.184-0.024,0.278c0.012,0.122,0.008,0.247,0.012,0.37c0.009,0.198,0.017,0.397,0.026,0.595
		c0.011,0.213,0.015,0.426,0.035,0.636c0.013,0.162,0.038,0.321,0.072,0.479c0.042,0.191,0.078,0.376-0.008,0.564
		c-0.007,0.016,0.026,0.047,0.031,0.073c0.027,0.146,0.049,0.292,0.074,0.437c-0.023,0.003-0.046,0.007-0.069,0.009
		c-0.013-0.059-0.028-0.118-0.041-0.177c-0.019,0.01-0.038,0.019-0.056,0.029c0.041,0.073,0.083,0.146,0.121,0.22
		c0.018,0.033,0.043,0.066,0.045,0.102c0.023,0.375,0.039,0.749,0.065,1.124c0.026,0.382,0.07,0.763,0.093,1.145
		c0.021,0.369,0.02,0.738,0.038,1.107c0.015,0.272,0.043,0.543,0.067,0.815c0.043,0.495,0.086,0.988,0.131,1.482
		c0.004,0.051,0.017,0.102,0.025,0.153c-0.037,0.005-0.074,0.009-0.064,0.008c0.027,0.082,0.071,0.161,0.077,0.241
		c0.016,0.224,0.005,0.449,0.024,0.673c0.023,0.29,0.069,0.578,0.093,0.867c0.036,0.431,0.046,0.864,0.095,1.293
		c0.051,0.442,0.14,0.88,0.206,1.32c0.038,0.25,0.063,0.5,0.094,0.751c0.033,0.269,0.064,0.537,0.093,0.806
		c0.068,0.613,0.143,1.225,0.199,1.839c0.053,0.576,0.088,1.154,0.124,1.731c0.02,0.314,0.019,0.629,0.04,0.942
		c0.017,0.238,0.062,0.473,0.083,0.71c0.042,0.464,0.071,0.927,0.115,1.391c0.049,0.512,0.123,1.022,0.159,1.536
		c0.021,0.3,0.101,0.589,0.123,0.888c0.037,0.512,0.079,1.023,0.126,1.534c0.026,0.281,0.074,0.56,0.099,0.841
		c0.049,0.572,0.081,1.146,0.135,1.719c0.063,0.66,0.146,1.318,0.212,1.977c0.03,0.307,0.035,0.617,0.062,0.924
		c0.027,0.324,0.073,0.646,0.098,0.969c0.031,0.402,0.048,0.805,0.074,1.208c0.007,0.093,0.032,0.186,0.04,0.28
		c0.046,0.522,0.1,1.045,0.134,1.568c0.033,0.516,0.036,1.033,0.069,1.549c0.024,0.347,0.084,0.692,0.119,1.039
		c0.056,0.571,0.108,1.143,0.155,1.715c0.036,0.435,0.057,0.87,0.092,1.305c0.026,0.32,0.083,0.638,0.096,0.959
		c0.019,0.474-0.004,0.95,0.022,1.422c0.017,0.307,0.096,0.61,0.138,0.917c0.008,0.055-0.027,0.116-0.048,0.187
		c0.011,0.003,0.041,0.005,0.054,0.02c0.087,0.108,0.088,0.499,0.026,0.63c-0.031,0.065-0.026,0.154-0.019,0.23
		c0.042,0.352,0.008,0.405-0.337,0.435c-0.389,0.034-0.778,0.063-1.169,0.085c-0.194,0.012-0.406-0.138-0.579,0.064
		c-0.299-0.098-0.572,0.077-0.863,0.078c-0.386,0.002-0.772,0.017-1.156,0.045c-0.24,0.019-0.477,0.1-0.716,0.105
		c-0.182,0.005-0.355,0.003-0.531,0.063c-0.072,0.025-0.166-0.023-0.25-0.022c-0.338,0.006-0.677,0.007-1.015,0.032
		c-0.19,0.013-0.376,0.068-0.565,0.105c-0.005,0.001-0.012,0.011-0.017,0.01c-0.238-0.057-0.474-0.017-0.711,0.012
		c-0.119,0.015-0.242-0.003-0.361,0.011c-0.435,0.047-0.867,0.107-1.301,0.15c-0.117,0.011-0.236-0.022-0.356-0.036
		c-0.02-0.002-0.047-0.015-0.057-0.007c-0.296,0.245-0.687,0.025-0.998,0.206c-0.046,0.027-0.14-0.042-0.21-0.039
		c-0.264,0.012-0.527,0.037-0.791,0.055c-0.127,0.009-0.259-0.001-0.382,0.026c-0.13,0.03-0.252,0.096-0.378,0.142
		c-0.03,0.011-0.068,0.019-0.098,0.011c-0.363-0.097-0.715-0.027-1.076,0.037c-0.321,0.058-0.654,0.037-0.982,0.067
		c-0.21,0.019-0.429,0.041-0.625,0.111c-0.206,0.074-0.404,0.017-0.605,0.035c-0.323,0.03-0.65,0.022-0.973,0.05
		c-0.503,0.043-1.005,0.101-1.506,0.161c-0.099,0.011-0.193,0.072-0.292,0.081c-0.225,0.021-0.454,0.004-0.676,0.038
		c-0.261,0.041-0.517,0.119-0.775,0.18c-0.005,0.001-0.015,0.008-0.016,0.007c-0.191-0.169-0.38,0.066-0.578,0.005
		c-0.082-0.025-0.188,0.04-0.283,0.043c-0.357,0.006-0.715-0.005-1.071,0.011c-0.189,0.007-0.375,0.073-0.562,0.084
		c-0.353,0.022-0.707,0.021-1.059,0.036c-0.121,0.005-0.241,0.025-0.36,0.044c-0.213,0.033-0.428,0.107-0.637,0.094
		c-0.177-0.012-0.332,0.141-0.535,0.012c-0.109-0.07-0.312,0-0.474,0.016c-0.411,0.042-0.822,0.084-1.232,0.137
		c-0.291,0.038-0.577,0.101-0.868,0.139c-0.073,0.01-0.154-0.055-0.228-0.048c-0.162,0.015-0.324,0.041-0.48,0.084
		c-0.318,0.089-0.633,0.167-0.969,0.116c-0.042-0.006-0.095,0.055-0.144,0.085C17.716,52.923,17.713,52.909,17.711,52.894z
		 M14.805,5.139c0.088-0.022,0.177-0.044,0.264-0.067c-0.246-0.076-2.062,0.22-2.19,0.342c0.23-0.03,0.438-0.054,0.643-0.084
		c0.43-0.063,0.86-0.128,1.289-0.192c0.023,0.049,0.046,0.097,0.071,0.15c-0.089,0.021-0.17,0.044-0.252,0.059
		c-0.537,0.092-1.074,0.189-1.612,0.271c-0.396,0.061-0.794,0.109-1.192,0.152c-0.242,0.026-0.492,0.005-0.728,0.055
		c-0.371,0.079-0.743,0.114-1.119,0.121c-0.14,0.002-0.195,0.058-0.155,0.193c0.315,0.053,0.624,0.104,0.955,0.16
		c0.087-0.235,0.273-0.248,0.463-0.15c0.296,0.152,0.59-0.001,0.885,0.02c0.227,0.017,0.458-0.052,0.688-0.067
		c0.197-0.013,0.397,0.002,0.595-0.007c0.093-0.004,0.215,0.007,0.195-0.158c-0.001-0.017,0.088-0.063,0.135-0.063
		c0.235,0,0.473,0.04,0.705,0.014c0.77-0.085,1.537-0.193,2.307-0.29c0.089-0.011,0.184,0.01,0.272-0.006
		c0.221-0.041,0.44-0.094,0.652-0.141c0.034,0.084,0.052,0.127,0.07,0.173c0.053-0.068,0.085-0.158,0.137-0.169
		c0.227-0.052,0.458-0.083,0.688-0.117c0.372-0.055,0.744-0.104,1.115-0.16c0.285-0.042,0.566-0.1,0.851-0.141
		c0.282-0.04,0.566-0.071,0.849-0.1c0.083-0.007,0.168,0.01,0.253,0.016c0-0.207,0.31,0.076,0.33-0.146
		c0.332-0.063,0.664-0.127,0.995-0.191c-0.015,0.053-0.039,0.073-0.068,0.082c-0.309,0.091-0.636,0.106-0.932,0.273
		c-0.073,0.041-0.159,0.125-0.283,0.138c-0.29,0.029-0.573,0.119-0.859,0.181c-0.042,0.009-0.086,0.001-0.184,0.001
		c0.121-0.06,0.189-0.095,0.258-0.129c-0.006-0.015-0.011-0.031-0.016-0.046c-0.142,0.016-0.283,0.032-0.432,0.049
		c-0.002,0.041-0.003,0.084-0.005,0.098C20,5.474,19.53,5.438,19.081,5.525C18.596,5.619,18.1,5.651,17.61,5.716
		c-0.473,0.063-0.944,0.135-1.417,0.202c0.002,0.015,0.003,0.029,0.005,0.043c0.191,0,0.383,0,0.574,0
		c-0.185,0.057-0.371,0.092-0.556,0.09c-0.155-0.002-0.251,0.035-0.259,0.193c-0.215,0.012-0.414,0.029-0.613,0.032
		c-0.08,0.001-0.195-0.003-0.233-0.052c-0.103-0.133-0.212-0.083-0.335-0.069c0.074,0.077,0.139,0.143,0.203,0.21
		c-0.009,0.019-0.02,0.041-0.03,0.06c-0.103,0.011-0.205,0.031-0.309,0.03c-0.249-0.002-0.497-0.023-0.746-0.017
		c-0.284,0.006-0.568,0.025-0.851,0.051c-0.518,0.045-1.033,0.099-1.539,0.149c0,0.132,0,0.212,0,0.287
		c0.085-0.022,0.151-0.049,0.221-0.058c0.353-0.046,0.705-0.099,1.06-0.127c0.439-0.034,0.88-0.045,1.32-0.07
		c0.12-0.006,0.238-0.022,0.357-0.038c0.196-0.026,0.392-0.064,0.588-0.082c0.287-0.025,0.576-0.029,0.863-0.056
		c0.419-0.039,0.837-0.091,1.255-0.135c0.615-0.064,1.231-0.114,1.844-0.192c0.643-0.081,1.281-0.208,1.925-0.279
		c0.57-0.062,1.145-0.071,1.719-0.108c0.419-0.026,0.838-0.056,1.258-0.084c0.528-0.037,1.055-0.078,1.584-0.11
		c0.343-0.021,0.688-0.017,1.029-0.046c0.457-0.039,0.91-0.123,1.367-0.146c0.579-0.03,1.158,0.024,1.736-0.071
		c0.286-0.047,0.585-0.017,0.877-0.041c0.479-0.041,0.958-0.104,1.437-0.144c0.564-0.046,1.128-0.079,1.693-0.116
		c0.621-0.042,1.243-0.079,1.865-0.124c0.477-0.034,0.954-0.074,1.429-0.118c0.328-0.029,0.654-0.071,0.982-0.099
		c0.32-0.027,0.642-0.04,0.962-0.063c0.685-0.051,1.367-0.112,2.052-0.152c0.37-0.022,0.742-0.01,1.112-0.017
		c0.107-0.001,0.215-0.013,0.318-0.036c0.043-0.009,0.101-0.056,0.109-0.095c0.009-0.038-0.026-0.108-0.062-0.128
		c-0.111-0.057-0.227-0.121-0.347-0.136c-0.26-0.033-0.506-0.041-0.736-0.225c-0.235-0.191-0.596-0.148-0.835-0.366
		c-0.009-0.008-0.025-0.005-0.039-0.008C40.083,3.34,39.716,3.236,39.4,3.008c-0.107-0.078-0.216-0.153-0.33-0.221
		c-0.347-0.208-0.701-0.41-0.954-0.738c-0.277-0.359-0.618-0.456-1.054-0.312c-0.539,0.177-1.113,0.184-1.655,0.414
		c-0.433,0.184-0.956,0.156-1.439,0.219c-0.36,0.048-0.721,0.086-1.082,0.137c-0.672,0.095-1.342,0.208-2.017,0.292
		c-0.343,0.044-0.694,0.027-1.039,0.061c-0.362,0.035-0.721,0.093-1.081,0.147c-0.693,0.103-1.386,0.202-2.077,0.318
		c-0.592,0.099-1.178,0.235-1.77,0.33c-0.517,0.083-1.04,0.133-1.558,0.2c-0.988,0.127-1.977,0.256-2.964,0.384
		c-0.842,0.11-1.687,0.208-2.527,0.331c-0.698,0.102-1.392,0.23-2.087,0.352c-0.051,0.009-0.095,0.059-0.143,0.089
		c-0.114,0.07-0.233,0.158-0.361,0.172C15.114,5.201,14.957,5.156,14.805,5.139z M14.512,52.409c0.123,0,0.239-0.004,0.355,0
		c0.338,0.011,0.677,0.042,1.013,0.034c0.268-0.007,0.533-0.067,0.799-0.089c0.365-0.029,0.732-0.029,1.096-0.065
		c0.584-0.06,1.168-0.134,1.751-0.212c0.402-0.054,0.801-0.157,1.205-0.18c0.334-0.018,0.667-0.072,1.008-0.063
		c0.235,0.006,0.487-0.072,0.738-0.034c0.104,0.016,0.21,0.042,0.315,0.037c0.479-0.022,0.937-0.237,1.428-0.163
		c0.022,0.004,0.047-0.026,0.071-0.029c0.194-0.023,0.388-0.054,0.582-0.062c0.275-0.012,0.553,0.002,0.828-0.013
		c0.311-0.018,0.619-0.056,0.929-0.084c0.405-0.039,0.811-0.074,1.216-0.115c0.219-0.021,0.438-0.054,0.656-0.076
		c0.329-0.034,0.66-0.051,0.986-0.092c0.37-0.046,0.735-0.114,1.104-0.166c0.09-0.012,0.184,0.015,0.275,0.006
		c0.193-0.02,0.383-0.062,0.576-0.076c0.305-0.021,0.612-0.016,0.917-0.041c0.277-0.021,0.552-0.07,0.828-0.103
		c0.171-0.021,0.344-0.03,0.515-0.053c0.161-0.022,0.319-0.069,0.481-0.085c0.425-0.041,0.853-0.064,1.277-0.11
		c0.381-0.041,0.759-0.119,1.142-0.151c0.471-0.04,0.944-0.044,1.416-0.07c0.342-0.018,0.685-0.043,1.027-0.07
		c0.161-0.013,0.32-0.042,0.481-0.054c0.269-0.021,0.538-0.024,0.804-0.051c0.311-0.03,0.619-0.09,0.93-0.114
		c0.29-0.022,0.596,0.041,0.871-0.029c0.487-0.123,0.981-0.056,1.468-0.119c0.307-0.039,0.618-0.036,0.926-0.064
		c0.196-0.019,0.391-0.061,0.586-0.094c0.012-0.002,0.022-0.015,0.035-0.017c0.276-0.048,0.553-0.093,0.829-0.143
		c0.066-0.012,0.133-0.036,0.192-0.068c0.098-0.054,0.177-0.123,0.301-0.032c0.059,0.043,0.165,0.022,0.232,0.029
		c0.027-0.136,0.053-0.231,0.064-0.328c0.021-0.208,0.053-0.418,0.045-0.627c-0.012-0.311-0.059-0.622-0.082-0.933
		c-0.005-0.081,0.044-0.167,0.038-0.249c-0.014-0.164-0.061-0.325-0.074-0.49c-0.012-0.18,0.001-0.36,0.002-0.542
		c0-0.12,0.013-0.243-0.009-0.358c-0.031-0.164-0.083-0.324-0.139-0.481c-0.033-0.09-0.111-0.166-0.134-0.256
		c-0.011-0.045,0.082-0.109,0.084-0.165c0.004-0.186-0.001-0.374-0.023-0.558c-0.025-0.21-0.084-0.418-0.106-0.63
		c-0.036-0.338-0.05-0.68-0.08-1.019c-0.013-0.132-0.051-0.263-0.072-0.395c-0.026-0.161-0.1-0.337-0.059-0.48
		c0.062-0.205-0.016-0.377-0.032-0.563c-0.006-0.079-0.017-0.158-0.032-0.236c-0.011-0.056-0.039-0.108-0.049-0.165
		c-0.045-0.24,0.12-0.514-0.11-0.713c0.205-0.311,0.056-0.612,0.017-0.927c0.015-0.045,0.057-0.112,0.052-0.175
		c-0.011-0.132-0.058-0.262-0.068-0.395c-0.01-0.119,0.041-0.251,0.007-0.358c-0.082-0.265-0.082-0.529-0.061-0.798
		c0.005-0.055-0.016-0.114-0.033-0.168c-0.028-0.083-0.105-0.177-0.084-0.242c0.045-0.147-0.011-0.27-0.03-0.403
		c-0.007-0.054,0.028-0.112,0.038-0.169c0.008-0.042,0.011-0.087,0.004-0.129c-0.042-0.247-0.088-0.495-0.131-0.741
		c-0.015-0.084-0.067-0.189-0.035-0.251c0.159-0.301-0.018-0.597,0-0.897c0.018-0.279-0.097-0.563-0.119-0.848
		c-0.031-0.399-0.014-0.804-0.051-1.202c-0.043-0.459-0.124-0.915-0.193-1.371c-0.01-0.057-0.052-0.108-0.084-0.175
		c0.088-0.085,0.146-0.193,0.039-0.333c-0.021-0.028-0.028-0.1-0.008-0.123c0.107-0.124,0.049-0.23-0.019-0.34
		c-0.026-0.044-0.07-0.088-0.075-0.135c-0.019-0.226-0.03-0.453-0.04-0.68c-0.005-0.103,0.009-0.207-0.003-0.308
		c-0.022-0.184-0.083-0.365-0.085-0.547c-0.004-0.387-0.04-0.764-0.179-1.131c-0.039-0.102-0.017-0.226-0.035-0.337
		c-0.022-0.142-0.057-0.282-0.073-0.358c0.002-0.19-0.007-0.325,0.009-0.456c0.031-0.254,0.023-0.494-0.139-0.712
		c-0.034-0.046-0.026-0.125-0.037-0.188c-0.011-0.072-0.017-0.144-0.031-0.215c-0.01-0.051-0.047-0.102-0.045-0.151
		c0.007-0.204,0.027-0.405,0.036-0.608c0.002-0.077-0.016-0.155-0.026-0.232c-0.019-0.144-0.055-0.288-0.055-0.432
		c0.002-0.216,0.028-0.433,0.04-0.649c0.001-0.037-0.021-0.076-0.03-0.114c-0.023-0.12-0.049-0.238-0.065-0.358
		c-0.009-0.062,0.005-0.127,0.002-0.191c-0.018-0.259-0.034-0.519-0.06-0.778c-0.011-0.111-0.04-0.222-0.067-0.33
		c-0.027-0.112-0.065-0.222-0.093-0.334c-0.021-0.087-0.035-0.177-0.053-0.275c0.019-0.034,0.083-0.093,0.079-0.146
		c-0.026-0.347-0.061-0.692-0.105-1.037c-0.045-0.351-0.176-0.696-0.05-1.056c0.014-0.04-0.004-0.091-0.01-0.137
		c-0.054-0.441-0.143-0.879-0.12-1.326c0-0.019-0.014-0.038-0.016-0.058c-0.025-0.226-0.196-0.438-0.049-0.682
		c0.024-0.042,0-0.117-0.007-0.175c-0.015-0.123-0.041-0.246-0.043-0.369c-0.015-0.476-0.02-0.952-0.037-1.428
		c-0.003-0.117-0.042-0.231-0.059-0.347c-0.015-0.095-0.015-0.192-0.035-0.287c-0.039-0.193,0.1-0.369,0.015-0.581
		c-0.072-0.185-0.056-0.411-0.06-0.619c-0.004-0.332,0.024-0.664,0.011-0.996c-0.013-0.3-0.063-0.598-0.098-0.897
		c-0.006-0.043-0.034-0.085-0.031-0.126c0.008-0.115,0.035-0.229,0.04-0.344c0.016-0.384-0.259-0.735-0.128-1.132
		c-0.123-0.207,0.012-0.434-0.054-0.646c-0.04-0.128-0.083-0.255-0.123-0.383c0.029-0.074,0.033-0.151,0.027-0.227
		c-0.003-0.063-0.014-0.127-0.025-0.19c-0.043-0.244-0.084-0.488-0.136-0.731C43.007,6.64,42.916,6.424,42.9,6.202
		c-0.018-0.238,0.045-0.48,0.048-0.721c0.003-0.269-0.02-0.538-0.032-0.798c-0.107,0.028-0.197,0.052-0.287,0.077
		c-0.409,0.118-0.824,0.117-1.247,0.104c-0.591-0.018-1.184-0.001-1.775,0.019c-0.445,0.015-0.89,0.051-1.333,0.091
		C37.97,5.001,37.67,5.06,37.367,5.089c-0.661,0.062-1.322,0.12-1.984,0.168c-0.727,0.053-1.456,0.093-2.184,0.14
		c-0.467,0.029-0.936,0.059-1.404,0.091c-0.362,0.024-0.724,0.059-1.086,0.077c-0.375,0.02-0.75,0.017-1.124,0.039
		c-0.349,0.019-0.696,0.062-1.044,0.09c-0.513,0.04-1.027,0.075-1.54,0.114c-0.177,0.014-0.354,0.039-0.533,0.047
		c-0.361,0.016-0.723,0.016-1.084,0.034c-0.433,0.021-0.867,0.052-1.3,0.082c-0.39,0.027-0.779,0.064-1.168,0.086
		c-0.323,0.018-0.647,0.021-0.97,0.031c-0.131,0.003-0.264-0.006-0.393,0.01c-0.419,0.051-0.84,0.095-1.254,0.175
		c-0.292,0.056-0.589,0.085-0.882,0.141c-0.44,0.083-0.89,0.12-1.337,0.163c-0.381,0.038-0.763,0.055-1.145,0.086
		c-0.444,0.037-0.889,0.081-1.334,0.117c-0.026,0.002-0.057-0.042-0.084-0.062c-0.053,0.14-0.998,0.23-1.077,0.146
		c-0.127,0.015-0.21,0.026-0.292,0.035c-0.305,0.031-0.61,0.091-0.915,0.083c-0.479-0.013-0.932,0.119-1.395,0.196
		c-0.145,0.024-0.29,0.062-0.42,0.091c0.03,0.165,0.073,0.304,0.079,0.446C11.51,8.05,11.5,8.389,11.515,8.727
		c0.021,0.494,0.064,0.987,0.083,1.48c0.018,0.495,0.007,0.993,0.026,1.488c0.026,0.678,0.156,1.348,0.158,2.029
		c0.001,0.197,0.085,0.392,0.104,0.589c0.028,0.296,0.027,0.595,0.049,0.891c0.005,0.073,0.087,0.158,0.066,0.21
		c-0.061,0.152-0.043,0.282,0.011,0.431c0.118,0.328-0.088,0.686,0.078,1.015c0.002,0.005-0.001,0.012-0.002,0.02
		c-0.012,0.263-0.044,0.528-0.032,0.791c0.044,1.001,0.117,2.001,0.155,3.003c0.119,3.092,0.228,6.185,0.341,9.276
		c0.028,0.743,0.168,1.473,0.118,2.229c-0.044,0.653,0.093,1.317,0.147,1.977c0.157,1.912,0.309,3.826,0.471,5.738
		c0.052,0.618,0.147,1.232,0.201,1.851c0.062,0.705,0.084,1.414,0.151,2.118c0.14,1.479,0.298,2.957,0.449,4.435
		C14.23,49.661,14.37,51.022,14.512,52.409z M12.033,30.705c-0.18,0.079-0.361,0.158-0.542,0.237
		c-0.651,0.286-1.266,0.251-1.84-0.201c-0.107-0.084-0.231-0.155-0.358-0.207c-0.219-0.088-0.273-0.061-0.28,0.167
		c-0.01,0.285,0.01,0.57,0.021,0.854c0.006,0.157,0.024,0.312,0.033,0.469c0.002,0.05-0.008,0.101-0.008,0.15
		c0.001,0.265,0.009,0.529,0.002,0.793C9.058,33.07,9,33.148,9.027,33.278c0.067,0.317,0.056,0.651,0.078,0.978
		c0.005,0.085,0.018,0.169,0.026,0.253c0.026,0.274,0.054,0.549,0.078,0.824c0.017,0.207,0.032,0.413,0.041,0.62
		c0.003,0.074-0.028,0.149-0.018,0.221c0.038,0.29,0.102,0.576,0.128,0.867c0.046,0.503,0.066,1.008,0.106,1.512
		c0.033,0.415,0.083,0.829,0.12,1.244c0.053,0.616,0.097,1.233,0.155,1.848c0.012,0.139,0.034,0.266,0.166,0.383
		c0.317,0.28,0.696,0.42,1.081,0.548c0.325,0.107,0.661,0.179,0.978-0.031c0.203-0.136,0.403-0.277,0.594-0.429
		c0.063-0.051,0.108-0.14,0.131-0.22c0.029-0.1,0.026-0.21,0.035-0.298c-0.02-0.041-0.058-0.084-0.064-0.131
		c-0.033-0.254-0.055-0.509-0.085-0.763c-0.018-0.157-0.06-0.312-0.065-0.47c-0.013-0.37,0.004-0.742-0.017-1.112
		c-0.033-0.564-0.103-1.126-0.128-1.692c-0.021-0.446,0-0.894,0.002-1.34c0.002-0.385,0.028-0.771,0.001-1.154
		c-0.046-0.669-0.133-1.336-0.187-2.005C12.122,32.195,12.082,31.458,12.033,30.705z M7.74,6.97c-0.008,0.15-0.01,0.262-0.021,0.373
		C7.712,7.4,7.691,7.456,7.673,7.511C7.64,7.614,7.585,7.714,7.572,7.82C7.54,8.069,7.529,8.322,7.504,8.573
		C7.494,8.686,7.461,8.797,7.458,8.91c-0.015,0.503-0.022,1.006-0.033,1.509c-0.002,0.09-0.015,0.181-0.008,0.27
		c0.012,0.224,0.045,0.448,0.048,0.674c0.005,0.558-0.014,1.115-0.001,1.673c0.009,0.462,0.043,0.923,0.084,1.384
		c0.02,0.232,0.083,0.459,0.118,0.69c0.007,0.051-0.037,0.108-0.036,0.162c0.001,0.089-0.013,0.212,0.038,0.263
		c0.174,0.173,0.32,0.352,0.333,0.608c0.008,0.143,0.075,0.234,0.221,0.27c0.193,0.047,0.382,0.109,0.575,0.157
		c0.154,0.039,0.31,0.08,0.467,0.091c0.331,0.022,0.664,0.029,0.997,0.035c0.203,0.004,0.404,0.084,0.607-0.05
		c0.497-0.327,0.697-0.447,0.641-1.049c-0.103-1.118-0.221-2.234-0.336-3.35c-0.134-1.304-0.273-2.606-0.409-3.909
		c-0.015-0.138-0.046-0.28,0.113-0.374c0.029-0.017,0.035-0.096,0.027-0.144c-0.019-0.143-0.051-0.283-0.081-0.442
		c-0.102,0-0.216,0.011-0.325-0.003c-0.133-0.016-0.294-0.013-0.389-0.087C9.761,7.01,9.39,7.122,9.029,7.206
		C8.765,7.267,8.522,7.301,8.27,7.172C8.113,7.093,7.942,7.046,7.74,6.97z M8.476,18.093c0.023,0.355,0.042,0.642,0.062,0.929
		c0.021,0.297,0.042,0.595,0.068,0.893c0.033,0.389,0.081,0.777,0.105,1.167c0.02,0.33,0.006,0.663,0.023,0.994
		c0.029,0.548,0.069,1.095,0.106,1.642c0.018,0.259,0.042,0.519,0.061,0.778c0.016,0.23,0.036,0.459,0.04,0.688
		c0.005,0.298-0.02,0.597,0,0.894c0.028,0.407,0.084,0.812,0.133,1.218c0.014,0.113,0.013,0.257,0.08,0.331
		c0.206,0.226,0.287,0.508,0.423,0.767c0.18,0.339,0.447,0.595,0.855,0.682c0.159,0.033,0.281-0.029,0.418-0.047
		c0.325-0.042,0.649-0.099,0.972-0.163c0.047-0.01,0.11-0.098,0.11-0.149c-0.005-0.344-0.035-0.687-0.038-1.03
		c-0.004-0.35,0.026-0.701,0.014-1.05c-0.016-0.461-0.071-0.921-0.088-1.383c-0.034-0.922-0.104-1.838,0.036-2.766
		c0.095-0.62,0.028-1.266,0.017-1.899c-0.008-0.462-0.041-0.925-0.061-1.387c-0.01-0.242-0.016-0.484-0.024-0.729
		c-0.289,0.069-0.538,0.117-0.78,0.19c-0.187,0.057-0.364,0.147-0.548,0.216c-0.444,0.167-0.83,0.054-1.192-0.232
		C9.03,18.455,8.769,18.295,8.476,18.093z M13.643,48.101c0.007,0,0.014-0.002,0.021-0.002c-0.007-0.12-0.009-0.241-0.021-0.36
		c-0.144-1.369-0.29-2.738-0.437-4.106c-0.007-0.057-0.045-0.111-0.068-0.166c-0.046,0.038-0.102,0.07-0.139,0.117
		c-0.37,0.458-0.827,0.769-1.429,0.792c-0.265,0.011-0.532-0.033-0.796-0.068c-0.108-0.014-0.209-0.071-0.314-0.109
		c-0.139-0.049-0.274-0.12-0.417-0.144c-0.143-0.024-0.191,0.054-0.166,0.211c0.06,0.36,0.095,0.724,0.139,1.087
		c0.005,0.046,0.007,0.094,0.014,0.139c0.045,0.311,0.096,0.621,0.134,0.932c0.021,0.177,0.014,0.357,0.033,0.534
		c0.07,0.664,0.157,1.328,0.216,1.993c0.043,0.488,0.028,0.982,0.083,1.467c0.053,0.46,0.053,0.934,0.268,1.368
		c0.121,0.246,0.213,0.489,0.422,0.697c0.217,0.217,0.42,0.435,0.705,0.557c0.228,0.099,0.451,0.232,0.689,0.275
		c0.255,0.047,0.526-0.007,0.79,0.006c0.185,0.01,0.342-0.054,0.401-0.204c0.117-0.294,0.253-0.604,0.262-0.912
		c0.013-0.444-0.085-0.892-0.127-1.338C13.814,49.946,13.729,49.024,13.643,48.101z M13.045,42.16
		c-0.105,0.085-0.184,0.155-0.268,0.217c-0.244,0.177-0.474,0.383-0.741,0.514c-0.183,0.088-0.426,0.119-0.627,0.086
		c-0.355-0.056-0.699-0.182-1.048-0.278c-0.216-0.059-0.433-0.116-0.698-0.186c-0.02,0.058-0.073,0.156-0.085,0.259
		c-0.03,0.254,0.008,0.497,0.194,0.693c0.178,0.187,0.346,0.373,0.646,0.362c0.184-0.008,0.374,0.04,0.554,0.086
		c0.477,0.122,0.938,0.134,1.35-0.184c0.161-0.124,0.295-0.284,0.46-0.402c0.109-0.079,0.173-0.302,0.402-0.146
		C13.139,42.839,13.095,42.52,13.045,42.16z M8.278,17.228c0.149,0.08,0.28,0.112,0.354,0.195c0.176,0.198,0.318,0.427,0.491,0.629
		c0.066,0.077,0.171,0.139,0.27,0.168c0.318,0.094,0.647,0.039,0.97,0.041c0.249,0.001,0.498-0.02,0.745-0.043
		c0.143-0.014,0.283-0.073,0.426-0.076c0.14-0.003,0.203-0.062,0.196-0.189c-0.021-0.417-0.05-0.832-0.075-1.249
		c-0.018-0.006-0.035-0.012-0.051-0.019c-0.249,0.268-0.557,0.389-0.911,0.409c-0.075,0.004-0.149,0.049-0.22,0.084
		c-0.309,0.15-0.633,0.12-0.92-0.006c-0.399-0.177-0.798-0.318-1.252-0.365C8.292,16.965,8.284,17.117,8.278,17.228z M11.96,29.457
		c-0.109,0.063-0.225,0.179-0.35,0.191c-0.439,0.042-0.88,0.041-1.262-0.242c-0.015-0.011-0.044-0.001-0.062-0.01
		c-0.16-0.071-0.362-0.106-0.471-0.225c-0.277-0.306-0.51-0.652-0.769-0.975c-0.08-0.1-0.185-0.18-0.287-0.278
		c-0.046,0.129-0.101,0.216-0.105,0.307C8.647,28.37,8.66,28.52,8.69,28.663c0.052,0.25,0.111,0.5,0.193,0.742
		c0.053,0.153,0.219,0.263,0.177,0.456c-0.002,0.006,0.063,0.033,0.098,0.037c0.04,0.004,0.086-0.025,0.116-0.012
		c0.223,0.103,0.437,0.232,0.665,0.317c0.318,0.117,0.647,0.279,0.972,0.281c0.375,0.001,0.754-0.136,1.122-0.243
		c0.259-0.075,0.302-0.387,0.106-0.58C12.077,29.6,12.023,29.529,11.96,29.457z M8.996,5.875C8.797,5.911,8.594,5.932,8.398,5.983
		C8.259,6.019,8.19,6.105,8.337,6.235c0.032,0.028,0.024,0.1,0.036,0.152C8.383,6.429,8.381,6.488,8.408,6.51
		c0.255,0.213,0.67,0.292,0.914-0.061C9.039,6.373,9.123,6.088,8.996,5.875z M10.04,6.959c0.185,0.027,0.331,0.067,0.477,0.063
		c0.064-0.002,0.126-0.092,0.189-0.141c-0.047-0.05-0.09-0.106-0.142-0.151c-0.046-0.04-0.102-0.069-0.155-0.104
		C10.297,6.728,10.185,6.828,10.04,6.959z M9.538,6.7c0.038,0.002,0.059,0.011,0.075,0.003C9.708,6.665,9.802,6.627,9.892,6.58
		C9.926,6.562,9.949,6.52,9.978,6.488C9.941,6.46,9.911,6.421,9.872,6.409C9.714,6.36,9.6,6.459,9.538,6.7z M10.915,29.346
		c0.34,0.091,0.59,0.049,0.7-0.106c-0.205,0.022-0.401,0.042-0.597,0.065C10.995,29.308,10.973,29.323,10.915,29.346z M11.115,6.925
		c-0.089-0.182-0.143-0.206-0.36-0.159C10.855,6.994,10.933,7.028,11.115,6.925z M7.918,6.121C7.753,6.276,7.756,6.526,7.949,6.632
		C7.938,6.451,7.929,6.293,7.918,6.121z M9.753,18.532c0.091,0.166,0.313,0.185,0.546,0.034
		C10.092,18.552,9.929,18.542,9.753,18.532z M10.672,30.865c0.009-0.027,0.019-0.055,0.027-0.082
		c-0.191-0.062-0.383-0.124-0.574-0.186c-0.008,0.024-0.016,0.048-0.024,0.072C10.292,30.735,10.482,30.8,10.672,30.865z
		 M9.118,5.864C9.11,5.881,9.102,5.9,9.093,5.917c0.057,0.03,0.11,0.07,0.17,0.084c0.051,0.012,0.108-0.007,0.163-0.013
		c-0.01-0.063-0.02-0.125-0.03-0.192C9.284,5.823,9.201,5.843,9.118,5.864z M9.448,40.011C9.471,40.005,9.494,40,9.517,39.994
		c-0.031-0.218-0.061-0.436-0.091-0.654c-0.025,0.003-0.049,0.008-0.074,0.012C9.383,39.571,9.416,39.792,9.448,40.011z
		 M44.503,17.041c0.012,0,0.026-0.001,0.038-0.001c0.007-0.157,0.015-0.313,0.022-0.469c-0.019,0-0.039,0-0.06-0.001
		C44.503,16.726,44.503,16.883,44.503,17.041z"/>
	<path fill-rule="evenodd" clip-rule="evenodd" fill="#FFFFFF" stroke="#000000" stroke-width="0.5" stroke-miterlimit="10" d="
		M14.804,5.139c0.153,0.018,0.31,0.062,0.459,0.044c0.127-0.015,0.247-0.103,0.361-0.172c0.047-0.031,0.091-0.08,0.143-0.089
		c0.695-0.122,1.389-0.25,2.087-0.352c0.84-0.123,1.685-0.221,2.527-0.331c0.988-0.127,1.977-0.256,2.964-0.384
		c0.519-0.067,1.041-0.116,1.558-0.2c0.592-0.095,1.178-0.231,1.77-0.33c0.691-0.116,1.384-0.216,2.077-0.318
		c0.36-0.055,0.719-0.113,1.081-0.147c0.345-0.034,0.696-0.017,1.039-0.061c0.674-0.083,1.345-0.196,2.017-0.292
		c0.36-0.051,0.722-0.089,1.082-0.137c0.483-0.063,1.006-0.036,1.439-0.219c0.542-0.229,1.116-0.237,1.655-0.414
		c0.437-0.144,0.777-0.047,1.054,0.312c0.253,0.328,0.607,0.53,0.954,0.738c0.114,0.068,0.223,0.143,0.33,0.221
		c0.316,0.228,0.684,0.332,1.047,0.447c0.014,0.003,0.03,0,0.039,0.008c0.24,0.218,0.601,0.175,0.835,0.366
		c0.229,0.185,0.476,0.192,0.736,0.225c0.121,0.015,0.236,0.079,0.347,0.136c0.036,0.02,0.071,0.09,0.062,0.128
		c-0.008,0.04-0.066,0.086-0.109,0.095c-0.103,0.023-0.211,0.035-0.318,0.036c-0.37,0.007-0.742-0.006-1.112,0.017
		c-0.685,0.041-1.367,0.102-2.052,0.152c-0.32,0.023-0.643,0.036-0.962,0.063c-0.328,0.027-0.654,0.07-0.982,0.099
		c-0.476,0.043-0.953,0.083-1.429,0.118c-0.622,0.045-1.244,0.082-1.865,0.124c-0.565,0.038-1.129,0.07-1.693,0.116
		c-0.479,0.04-0.958,0.103-1.437,0.144c-0.292,0.023-0.591-0.007-0.877,0.041c-0.578,0.095-1.158,0.041-1.736,0.071
		c-0.457,0.023-0.91,0.107-1.367,0.146c-0.342,0.029-0.686,0.025-1.029,0.046c-0.529,0.032-1.056,0.073-1.584,0.11
		c-0.419,0.029-0.839,0.059-1.258,0.084c-0.574,0.037-1.149,0.046-1.719,0.108c-0.644,0.071-1.282,0.198-1.925,0.279
		c-0.613,0.078-1.229,0.128-1.844,0.192c-0.418,0.044-0.836,0.097-1.255,0.135c-0.287,0.026-0.576,0.03-0.863,0.056
		c-0.197,0.018-0.393,0.056-0.588,0.082c-0.12,0.016-0.238,0.032-0.357,0.038c-0.44,0.025-0.881,0.036-1.32,0.07
		c-0.355,0.029-0.708,0.082-1.06,0.127c-0.069,0.009-0.136,0.036-0.221,0.058c0-0.074,0-0.154,0-0.287
		c0.506-0.05,1.021-0.104,1.539-0.149c0.282-0.025,0.567-0.044,0.851-0.051c0.249-0.006,0.497,0.015,0.746,0.017
		c0.104,0.001,0.206-0.02,0.309-0.03c0.01-0.02,0.021-0.041,0.03-0.06c-0.064-0.067-0.129-0.133-0.203-0.21
		c0.123-0.014,0.232-0.064,0.335,0.069c0.038,0.049,0.153,0.053,0.233,0.052c0.2-0.003,0.398-0.021,0.613-0.032
		c0.008-0.158,0.104-0.195,0.259-0.193c0.185,0.002,0.371-0.033,0.556-0.09c-0.191,0-0.383,0-0.574,0
		c-0.002-0.014-0.003-0.029-0.005-0.043c0.473-0.067,0.944-0.139,1.417-0.202c0.49-0.065,0.986-0.097,1.471-0.191
		C19.53,5.438,20,5.474,20.441,5.26c0.001-0.014,0.003-0.057,0.005-0.098c0.148-0.017,0.29-0.033,0.432-0.049
		c0.005,0.015,0.01,0.031,0.016,0.046c-0.069,0.034-0.137,0.069-0.258,0.129c0.097,0,0.142,0.007,0.184-0.001
		c0.287-0.062,0.569-0.151,0.859-0.181c0.125-0.013,0.21-0.097,0.283-0.138c0.296-0.167,0.623-0.182,0.932-0.273
		c0.029-0.009,0.053-0.029,0.068-0.082c-0.332,0.064-0.663,0.127-0.995,0.191c-0.021,0.222-0.33-0.061-0.33,0.146
		c-0.085-0.006-0.17-0.023-0.253-0.016c-0.283,0.028-0.567,0.06-0.849,0.1c-0.284,0.041-0.566,0.098-0.851,0.141
		c-0.371,0.056-0.743,0.104-1.115,0.16c-0.23,0.034-0.461,0.065-0.688,0.117c-0.051,0.011-0.084,0.101-0.137,0.169
		c-0.019-0.046-0.036-0.089-0.07-0.173c-0.212,0.047-0.432,0.101-0.652,0.141c-0.088,0.016-0.183-0.005-0.272,0.006
		c-0.77,0.096-1.537,0.205-2.307,0.29c-0.231,0.026-0.47-0.014-0.705-0.014c-0.047,0-0.137,0.047-0.135,0.063
		c0.02,0.165-0.103,0.154-0.195,0.158c-0.198,0.009-0.398-0.005-0.595,0.007c-0.229,0.015-0.461,0.084-0.688,0.067
		c-0.294-0.021-0.588,0.132-0.885-0.02c-0.19-0.097-0.376-0.085-0.463,0.15c-0.332-0.056-0.64-0.107-0.955-0.16
		c-0.04-0.135,0.015-0.191,0.155-0.193c0.376-0.007,0.748-0.042,1.119-0.121c0.236-0.049,0.486-0.028,0.728-0.055
		c0.398-0.043,0.796-0.091,1.192-0.152c0.539-0.082,1.075-0.179,1.612-0.271c0.083-0.014,0.164-0.037,0.252-0.059
		c-0.024-0.053-0.048-0.101-0.071-0.15L14.804,5.139z M26.261,4.258c-0.111-0.011-0.222-0.021-0.335-0.031c0-0.048,0-0.093,0-0.153
		c-0.098,0.03-0.177,0.054-0.257,0.079c0.004,0.013,0.008,0.026,0.012,0.039c0.051-0.006,0.103-0.011,0.155-0.018
		c0.006,0.015,0.014,0.029,0.021,0.044c-0.064,0.04-0.127,0.08-0.226,0.141c0.184-0.019,0.329-0.031,0.473-0.051
		c0.052-0.008,0.101-0.037,0.151-0.055c0.14-0.019,0.279-0.037,0.418-0.056c-0.104-0.202-0.104-0.202-0.283-0.048
		C26.349,4.185,26.305,4.222,26.261,4.258z M22.488,5.514c-0.004-0.012-0.008-0.024-0.011-0.036c0.066,0.009,0.137,0.032,0.2,0.022
		c0.505-0.078,1.009-0.157,1.513-0.246c0.454-0.079,0.905-0.168,1.357-0.252c0.125-0.023,0.25-0.046,0.376-0.065
		c0.383-0.057,0.768-0.105,1.151-0.167c0.35-0.056,0.696-0.134,1.047-0.182c0.197-0.026,0.401,0.003,0.599-0.02
		c0.446-0.051,0.89-0.117,1.334-0.178c0.51-0.071,1.018-0.155,1.53-0.214c0.46-0.053,0.925-0.071,1.386-0.121
		c0.712-0.076,1.426-0.155,2.136-0.254c0.622-0.087,1.242-0.198,1.861-0.311c0.704-0.127,1.407-0.267,2.104-0.4
		c0.008-0.265,0.009-0.262-0.251-0.213c-0.091,0.018-0.186,0.017-0.278,0.032c-0.7,0.115-1.401,0.23-2.1,0.35
		c-0.348,0.059-0.693,0.141-1.042,0.19c-0.583,0.084-1.169,0.152-1.754,0.226c-0.586,0.075-1.173,0.146-1.76,0.223
		c-0.516,0.068-1.031,0.146-1.546,0.209c-0.423,0.052-0.847,0.082-1.27,0.132c-0.556,0.067-1.11,0.142-1.665,0.216
		c-0.248,0.032-0.494,0.07-0.741,0.107c-0.362,0.053-0.726,0.102-1.086,0.162C25.427,4.75,25.28,4.8,25.128,4.84
		c-0.104,0.016-0.212,0.035-0.32,0.049c-0.64,0.086-1.28,0.166-1.918,0.26c-0.337,0.049-0.67,0.125-1.005,0.187
		c-0.218,0.041-0.435,0.093-0.655,0.114c-0.385,0.037-0.771,0.059-1.11,0.278c-0.015,0.009-0.036,0.005-0.062,0.009
		c0.003-0.049,0.005-0.09,0.008-0.145c-0.248,0.042-0.479,0.082-0.708,0.122c0.003,0.021,0.006,0.04,0.011,0.06
		c-0.173-0.026-0.349-0.089-0.517-0.069c-0.246,0.028-0.471,0.16-0.736,0.143c-0.23-0.015-0.466,0.06-0.695,0.041
		c-0.167-0.014-0.318-0.032-0.466,0.054c-0.007,0.004-0.01,0.017-0.013,0.023c0.046,0.014,0.091,0.027,0.183,0.054
		c-0.154,0.054-0.261,0.091-0.369,0.129c0.033,0.023,0.059,0.023,0.084,0.021c0.819-0.078,1.639-0.157,2.458-0.235
		c0.245-0.023,0.488-0.055,0.733-0.068c0.238-0.012,0.464-0.126,0.708-0.08c0.028,0.006,0.063-0.016,0.094-0.027
		c0.104-0.037,0.207-0.097,0.314-0.109c0.175-0.019,0.355,0.009,0.53-0.011C21.95,5.609,22.219,5.557,22.488,5.514z M35.086,2.624
		c-0.036-0.027-0.075-0.079-0.12-0.085c-0.129-0.017-0.267-0.042-0.391-0.017c-0.362,0.071-0.719,0.17-1.079,0.249
		c-0.624,0.135-1.245,0.272-1.87,0.392c-0.733,0.139-1.469,0.258-2.204,0.389c-0.327,0.058-0.654,0.119-0.979,0.185
		c-0.181,0.037-0.356,0.104-0.537,0.132c-0.265,0.041-0.535,0.05-0.8,0.089c-0.076,0.01-0.142,0.078-0.213,0.119
		c0.01,0.024,0.019,0.049,0.028,0.073c0.399-0.048,0.799-0.097,1.198-0.147c-0.01-0.03-0.023-0.066-0.035-0.102
		c0.031-0.005,0.062-0.02,0.092-0.015c0.08,0.012,0.164,0.058,0.237,0.044c0.351-0.066,0.716-0.059,1.045-0.226
		c0.012-0.007,0.035,0.016,0.054,0.016c0.105-0.002,0.211,0.004,0.314-0.011c0.455-0.072,0.91-0.141,1.362-0.227
		c0.523-0.101,1.08-0.089,1.492-0.411c0.094,0.031,0.148,0.07,0.191,0.061c0.436-0.094,0.869-0.196,1.31-0.296
		c-0.014-0.033-0.024-0.057-0.034-0.08C34.454,2.712,34.761,2.669,35.086,2.624z M25.581,4.359
		c-0.004-0.043-0.009-0.085-0.013-0.128c-0.433-0.112-0.839,0.123-1.263,0.145c-0.024,0.001-0.047,0.032-0.077,0.052
		c0.058,0.023,0.102,0.04,0.175,0.068c-0.086,0.027-0.137,0.043-0.188,0.059c0.004,0.021,0.009,0.042,0.015,0.063
		C24.68,4.533,25.13,4.446,25.581,4.359z"/>
	<path fill-rule="evenodd" clip-rule="evenodd" fill="#FFFFFF" stroke="#000000" stroke-width="0.5" stroke-miterlimit="10" d="
		M12.033,30.705c0.049,0.753,0.089,1.49,0.147,2.225c0.054,0.669,0.14,1.335,0.187,2.005c0.026,0.382,0,0.769-0.001,1.154
		c-0.002,0.447-0.023,0.895-0.002,1.34c0.026,0.565,0.096,1.128,0.128,1.692c0.021,0.37,0.004,0.743,0.017,1.112
		c0.005,0.157,0.047,0.312,0.065,0.47c0.031,0.254,0.053,0.509,0.085,0.763c0.006,0.047,0.044,0.09,0.064,0.131
		c-0.008,0.088-0.006,0.198-0.035,0.298c-0.023,0.08-0.068,0.169-0.131,0.22c-0.19,0.151-0.391,0.293-0.594,0.429
		c-0.316,0.21-0.653,0.138-0.978,0.031c-0.385-0.128-0.764-0.268-1.081-0.548c-0.132-0.117-0.153-0.244-0.166-0.383
		c-0.058-0.615-0.102-1.232-0.155-1.848c-0.036-0.415-0.087-0.829-0.12-1.244c-0.04-0.504-0.06-1.009-0.106-1.512
		c-0.026-0.291-0.09-0.578-0.128-0.867c-0.01-0.072,0.021-0.147,0.018-0.221c-0.009-0.207-0.024-0.414-0.041-0.62
		c-0.023-0.275-0.051-0.55-0.078-0.824c-0.008-0.084-0.021-0.168-0.026-0.253c-0.021-0.327-0.011-0.66-0.078-0.978
		C9,33.148,9.058,33.07,9.06,32.968c0.007-0.264-0.001-0.528-0.002-0.793c0-0.05,0.01-0.101,0.008-0.15
		c-0.009-0.156-0.026-0.312-0.033-0.469c-0.011-0.284-0.031-0.569-0.021-0.854c0.007-0.228,0.061-0.255,0.28-0.167
		c0.127,0.051,0.251,0.122,0.358,0.207c0.574,0.452,1.188,0.487,1.84,0.201C11.671,30.863,11.853,30.784,12.033,30.705z"/>
	<path fill-rule="evenodd" clip-rule="evenodd" fill="#FFFFFF" stroke="#000000" stroke-width="0.5" stroke-miterlimit="10" d="
		M7.74,6.97C7.942,7.046,8.113,7.093,8.27,7.172c0.253,0.129,0.495,0.095,0.76,0.033C9.39,7.122,9.761,7.01,10.112,7.288
		c0.094,0.074,0.256,0.071,0.389,0.087c0.109,0.014,0.223,0.003,0.325,0.003c0.03,0.159,0.062,0.3,0.081,0.442
		c0.008,0.048,0.001,0.127-0.027,0.144c-0.16,0.093-0.128,0.235-0.113,0.374c0.136,1.303,0.275,2.605,0.409,3.909
		c0.115,1.116,0.233,2.232,0.336,3.35c0.056,0.602-0.144,0.723-0.641,1.049c-0.204,0.134-0.405,0.055-0.607,0.05
		c-0.333-0.006-0.666-0.013-0.997-0.035c-0.157-0.011-0.313-0.052-0.467-0.091c-0.192-0.048-0.382-0.11-0.575-0.157
		c-0.146-0.036-0.213-0.127-0.221-0.27c-0.013-0.256-0.159-0.435-0.333-0.608c-0.05-0.051-0.036-0.174-0.038-0.263
		c-0.001-0.054,0.043-0.111,0.036-0.162c-0.035-0.23-0.098-0.458-0.118-0.69c-0.041-0.461-0.075-0.922-0.084-1.384
		c-0.013-0.558,0.006-1.116,0.001-1.673c-0.003-0.226-0.036-0.45-0.048-0.674c-0.007-0.089,0.006-0.18,0.008-0.27
		c0.01-0.502,0.018-1.005,0.033-1.509c0.003-0.112,0.036-0.224,0.046-0.336C7.529,8.322,7.54,8.069,7.572,7.82
		C7.585,7.714,7.64,7.614,7.673,7.511C7.691,7.456,7.712,7.4,7.719,7.343C7.73,7.232,7.732,7.121,7.74,6.97z"/>
	<path fill-rule="evenodd" clip-rule="evenodd" fill="#FFFFFF" stroke="#000000" stroke-width="0.5" stroke-miterlimit="10" d="
		M8.476,18.093c0.293,0.202,0.554,0.362,0.791,0.55c0.362,0.287,0.749,0.399,1.192,0.232c0.184-0.069,0.361-0.159,0.548-0.216
		c0.242-0.073,0.492-0.121,0.78-0.19c0.008,0.245,0.014,0.488,0.024,0.729c0.02,0.462,0.053,0.925,0.061,1.387
		c0.011,0.634,0.078,1.28-0.017,1.899c-0.141,0.928-0.07,1.844-0.036,2.766c0.017,0.461,0.072,0.921,0.088,1.383
		c0.013,0.35-0.018,0.7-0.014,1.05c0.003,0.343,0.033,0.686,0.038,1.03c0,0.051-0.063,0.14-0.11,0.149
		c-0.322,0.064-0.646,0.121-0.972,0.163c-0.137,0.018-0.259,0.081-0.418,0.047c-0.408-0.086-0.675-0.342-0.855-0.682
		c-0.136-0.258-0.217-0.541-0.423-0.767c-0.067-0.074-0.066-0.218-0.08-0.331c-0.049-0.406-0.105-0.811-0.133-1.218
		c-0.02-0.296,0.006-0.596,0-0.894c-0.004-0.229-0.024-0.458-0.04-0.688c-0.019-0.259-0.042-0.519-0.061-0.778
		c-0.037-0.547-0.078-1.094-0.106-1.642c-0.017-0.331-0.003-0.664-0.023-0.994c-0.024-0.39-0.072-0.778-0.105-1.167
		c-0.026-0.298-0.047-0.595-0.068-0.893C8.518,18.735,8.5,18.448,8.476,18.093z"/>
	<path fill-rule="evenodd" clip-rule="evenodd" fill="#FFFFFF" stroke="#000000" stroke-width="0.5" stroke-miterlimit="10" d="
		M13.643,48.101c0.086,0.923,0.171,1.845,0.261,2.767c0.042,0.446,0.141,0.894,0.127,1.338c-0.009,0.308-0.145,0.618-0.262,0.912
		c-0.059,0.149-0.216,0.214-0.401,0.204c-0.264-0.014-0.535,0.041-0.79-0.006c-0.239-0.043-0.461-0.176-0.689-0.275
		c-0.285-0.122-0.488-0.34-0.705-0.557c-0.208-0.208-0.301-0.451-0.422-0.697c-0.215-0.434-0.215-0.907-0.268-1.368
		c-0.055-0.485-0.04-0.979-0.083-1.467c-0.059-0.666-0.146-1.329-0.216-1.993c-0.019-0.176-0.011-0.356-0.033-0.534
		c-0.038-0.312-0.089-0.621-0.134-0.932c-0.007-0.045-0.008-0.093-0.014-0.139c-0.044-0.363-0.079-0.727-0.139-1.087
		c-0.025-0.157,0.023-0.235,0.166-0.211c0.143,0.023,0.278,0.094,0.417,0.144c0.105,0.038,0.207,0.095,0.314,0.109
		c0.264,0.035,0.531,0.079,0.796,0.068c0.602-0.023,1.06-0.334,1.429-0.792c0.037-0.046,0.093-0.079,0.139-0.117
		c0.023,0.055,0.062,0.109,0.068,0.166c0.147,1.368,0.292,2.738,0.437,4.106c0.012,0.119,0.014,0.24,0.021,0.36
		C13.657,48.099,13.65,48.101,13.643,48.101z"/>
	<path fill-rule="evenodd" clip-rule="evenodd" fill="#FFFFFF" stroke="#000000" stroke-width="0.5" stroke-miterlimit="10" d="
		M13.045,42.16c0.05,0.36,0.093,0.679,0.14,1.021c-0.229-0.156-0.293,0.067-0.402,0.146c-0.166,0.119-0.3,0.278-0.46,0.402
		c-0.412,0.318-0.873,0.306-1.35,0.184c-0.18-0.046-0.37-0.094-0.554-0.086c-0.3,0.011-0.468-0.175-0.646-0.362
		c-0.187-0.196-0.224-0.439-0.194-0.693c0.012-0.103,0.065-0.201,0.085-0.259c0.265,0.07,0.481,0.127,0.698,0.186
		c0.349,0.096,0.693,0.222,1.048,0.278c0.201,0.032,0.444,0.002,0.627-0.086c0.267-0.131,0.498-0.337,0.741-0.514
		C12.861,42.314,12.94,42.245,13.045,42.16z"/>
	<path fill-rule="evenodd" clip-rule="evenodd" fill="#FFFFFF" stroke="#000000" stroke-width="0.5" stroke-miterlimit="10" d="
		M8.278,17.228c0.005-0.111,0.014-0.262,0.022-0.42c0.454,0.047,0.853,0.188,1.252,0.365c0.287,0.126,0.611,0.156,0.92,0.006
		c0.071-0.035,0.145-0.08,0.22-0.084c0.354-0.021,0.663-0.141,0.911-0.409c0.017,0.006,0.034,0.012,0.051,0.019
		c0.025,0.417,0.055,0.832,0.075,1.249c0.006,0.126-0.056,0.186-0.196,0.189c-0.143,0.003-0.283,0.062-0.426,0.076
		c-0.247,0.023-0.496,0.044-0.745,0.043c-0.323-0.002-0.652,0.053-0.97-0.041c-0.099-0.029-0.204-0.091-0.27-0.168
		C8.95,17.85,8.808,17.62,8.632,17.422C8.558,17.34,8.428,17.307,8.278,17.228z"/>
	<path fill-rule="evenodd" clip-rule="evenodd" fill="#FFFFFF" stroke="#000000" stroke-width="0.5" stroke-miterlimit="10" d="
		M11.96,29.457c0.063,0.073,0.117,0.143,0.179,0.204c0.196,0.193,0.152,0.505-0.106,0.58c-0.368,0.106-0.748,0.244-1.122,0.243
		c-0.325-0.002-0.654-0.164-0.972-0.281c-0.229-0.084-0.442-0.214-0.665-0.317c-0.029-0.014-0.076,0.016-0.116,0.012
		c-0.035-0.003-0.1-0.031-0.098-0.037c0.042-0.193-0.125-0.303-0.177-0.456c-0.082-0.241-0.141-0.492-0.193-0.742
		c-0.03-0.143-0.042-0.292-0.036-0.438c0.004-0.091,0.059-0.178,0.105-0.307c0.102,0.099,0.208,0.178,0.287,0.278
		c0.259,0.323,0.491,0.669,0.769,0.975c0.109,0.119,0.311,0.154,0.471,0.225c0.019,0.009,0.047,0,0.062,0.01
		c0.382,0.283,0.823,0.283,1.262,0.242C11.735,29.636,11.851,29.52,11.96,29.457z"/>
	<path fill-rule="evenodd" clip-rule="evenodd" fill="#FFFFFF" stroke="#000000" stroke-width="0.5" stroke-miterlimit="10" d="
		M8.996,5.875c0.127,0.213,0.042,0.497,0.326,0.574C9.078,6.803,8.664,6.723,8.408,6.51C8.381,6.488,8.383,6.429,8.374,6.387
		C8.362,6.335,8.369,6.263,8.337,6.235C8.19,6.105,8.259,6.019,8.398,5.983C8.594,5.932,8.797,5.911,8.996,5.875z"/>
	<path fill-rule="evenodd" clip-rule="evenodd" fill="#FFFFFF" stroke="#000000" stroke-width="0.5" stroke-miterlimit="10" d="
		M14.811,5.137c-0.429,0.064-0.859,0.129-1.289,0.192c-0.206,0.03-0.413,0.054-0.643,0.084c0.128-0.122,1.944-0.418,2.19-0.342
		c-0.087,0.022-0.176,0.045-0.265,0.067L14.811,5.137z"/>
	<path fill-rule="evenodd" clip-rule="evenodd" fill="#FFFFFF" stroke="#000000" stroke-width="0.5" stroke-miterlimit="10" d="
		M10.04,6.959c0.145-0.131,0.257-0.231,0.37-0.333c0.053,0.036,0.109,0.065,0.155,0.104c0.051,0.045,0.095,0.101,0.142,0.151
		c-0.063,0.049-0.125,0.138-0.189,0.141C10.371,7.026,10.225,6.987,10.04,6.959z"/>
	<path fill-rule="evenodd" clip-rule="evenodd" fill="#FFFFFF" stroke="#000000" stroke-width="0.5" stroke-miterlimit="10" d="
		M9.538,6.7C9.6,6.459,9.714,6.36,9.872,6.409c0.039,0.013,0.07,0.051,0.106,0.079C9.949,6.52,9.926,6.562,9.892,6.58
		c-0.09,0.047-0.185,0.085-0.279,0.123C9.597,6.711,9.575,6.703,9.538,6.7z"/>
	<path fill-rule="evenodd" clip-rule="evenodd" fill="#FFFFFF" stroke="#000000" stroke-width="0.5" stroke-miterlimit="10" d="
		M10.915,29.346c0.058-0.023,0.08-0.038,0.103-0.041c0.196-0.023,0.392-0.043,0.597-0.065
		C11.504,29.395,11.255,29.437,10.915,29.346z"/>
	<path fill-rule="evenodd" clip-rule="evenodd" fill="#FFFFFF" stroke="#000000" stroke-width="0.5" stroke-miterlimit="10" d="
		M11.115,6.925c-0.182,0.103-0.26,0.069-0.36-0.159C10.972,6.719,11.025,6.743,11.115,6.925z"/>
	<path fill-rule="evenodd" clip-rule="evenodd" fill="#FFFFFF" stroke="#000000" stroke-width="0.5" stroke-miterlimit="10" d="
		M7.918,6.121c0.011,0.172,0.02,0.33,0.031,0.511C7.756,6.526,7.753,6.276,7.918,6.121z"/>
	<path fill-rule="evenodd" clip-rule="evenodd" fill="#FFFFFF" stroke="#000000" stroke-width="0.5" stroke-miterlimit="10" d="
		M9.753,18.532c0.176,0.01,0.338,0.021,0.546,0.034C10.066,18.716,9.844,18.697,9.753,18.532z"/>
	<path fill-rule="evenodd" clip-rule="evenodd" fill="#FFFFFF" stroke="#000000" stroke-width="0.5" stroke-miterlimit="10" d="
		M10.672,30.865c-0.19-0.065-0.381-0.13-0.571-0.195c0.008-0.024,0.016-0.048,0.024-0.072c0.191,0.062,0.382,0.124,0.574,0.186
		C10.691,30.81,10.682,30.838,10.672,30.865z"/>
	<path fill-rule="evenodd" clip-rule="evenodd" fill="#FFFFFF" stroke="#000000" stroke-width="0.5" stroke-miterlimit="10" d="
		M9.118,5.864c0.083-0.021,0.166-0.041,0.278-0.068c0.011,0.067,0.021,0.129,0.03,0.192C9.372,5.995,9.314,6.014,9.264,6.001
		c-0.06-0.014-0.114-0.054-0.17-0.084C9.102,5.9,9.11,5.881,9.118,5.864z"/>
	<path fill-rule="evenodd" clip-rule="evenodd" fill="#FFFFFF" stroke="#000000" stroke-width="0.5" stroke-miterlimit="10" d="
		M9.448,40.011c-0.032-0.219-0.065-0.439-0.097-0.659c0.024-0.004,0.049-0.009,0.074-0.012c0.03,0.218,0.061,0.437,0.091,0.654
		C9.494,40,9.471,40.005,9.448,40.011z"/>
	<path fill-rule="evenodd" clip-rule="evenodd" fill="#FFFFFF" stroke="#000000" stroke-width="0.5" stroke-miterlimit="10" d="
		M44.503,17.041c0-0.157,0-0.315,0-0.472c0.021,0,0.041,0,0.06,0.001c-0.007,0.156-0.015,0.312-0.022,0.469
		C44.529,17.04,44.515,17.041,44.503,17.041z"/>
	<path fill-rule="evenodd" clip-rule="evenodd" d="M18.936,21.799c-0.028,0.02-0.061,0.062-0.091,0.061
		c-0.342-0.021-0.637-0.158-0.899-0.374c-0.368-0.303-0.732-0.611-1.107-0.904c-0.107-0.086-0.251-0.123-0.372-0.193
		c-0.047-0.028-0.102-0.085-0.108-0.135c-0.024-0.206-0.148-0.245-0.312-0.221c0.008,0.055,0.039,0.12,0.02,0.157
		c-0.184,0.346-0.355,0.717-0.674,0.951c-0.25,0.186-0.562,0.289-0.848,0.428c-0.011,0.005-0.033,0.011-0.036,0.006
		c-0.136-0.198-0.402-0.081-0.593-0.25c0.084-0.105,0.17-0.203,0.245-0.311c0.175-0.25,0.342-0.506,0.517-0.755
		c0.113-0.162,0.245-0.31,0.354-0.475c0.128-0.197,0.241-0.403,0.36-0.605c0.162-0.279,0.324-0.558,0.487-0.836
		c0.242-0.412,0.489-0.821,0.728-1.234c0.194-0.334,0.378-0.352,0.624-0.046c0.081,0.102,0.189,0.199,0.222,0.315
		c0.026,0.093-0.03,0.22-0.077,0.319c-0.117,0.257-0.268,0.499-0.368,0.762c-0.039,0.102,0.025,0.243,0.045,0.38
		c0.027-0.003,0,0-0.079,0.007c0.167,0.245,0.31,0.477,0.477,0.689c0.127,0.162,0.28,0.306,0.436,0.442
		c0.077,0.066,0.184,0.101,0.28,0.142c0.125,0.052,0.252,0.107,0.383,0.142c0.054,0.015,0.124-0.009,0.182-0.027
		c0.265-0.083,0.549-0.237,0.634-0.462c0.141-0.374,0.287-0.778,0.195-1.197c-0.023-0.111-0.12-0.205-0.163-0.313
		c-0.275-0.702-0.617-1.367-1.079-1.967c-0.17-0.221-0.317-0.462-0.48-0.689c-0.041-0.056-0.107-0.094-0.117-0.104
		c-0.074-0.111-0.121-0.182-0.166-0.253c-0.049-0.078-0.1-0.154-0.146-0.236c-0.056-0.098-0.176-0.23-0.146-0.293
		c0.08-0.174-0.072-0.288-0.058-0.441c0.028-0.315,0.016-0.633,0.034-0.95c0.014-0.244,0.017-0.496,0.079-0.731
		c0.137-0.517,0.425-0.925,0.897-1.218c0.3-0.186,0.614-0.205,0.928-0.173c0.417,0.042,0.835,0.128,1.24,0.243
		c0.201,0.057,0.361,0.245,0.558,0.332c0.303,0.135,0.329,0.494,0.58,0.667c0.046,0.031,0.045,0.129,0.061,0.177
		c0.284-0.188,0.568-0.38,0.859-0.563c0.269-0.17,0.563-0.194,0.87-0.143c0.053,0.009,0.115-0.012,0.158,0.009
		c0.085,0.041,0.199,0.085,0.229,0.158c0.033,0.079,0.019,0.219-0.035,0.284c-0.278,0.335-0.582,0.649-0.861,0.982
		c-0.288,0.341-0.566,0.692-0.831,1.052c-0.181,0.247-0.307,0.537-0.506,0.763c-0.095,0.108-0.306,0.154-0.464,0.153
		c-0.194-0.001-0.332-0.105-0.416-0.33c-0.088-0.235-0.012-0.398,0.055-0.599c0.033-0.099,0-0.24-0.047-0.342
		c-0.129-0.278-0.265-0.557-0.43-0.814c-0.089-0.141-0.228-0.27-0.374-0.352c-0.161-0.089-0.345-0.125-0.508,0.055
		c-0.099,0.109-0.247,0.173-0.364,0.268c-0.332,0.268-0.423,0.652-0.306,1.057c0.138,0.478,0.371,0.891,0.725,1.237
		c0.023,0.023,0.061,0.052,0.06,0.076c-0.028,0.31,0.248,0.433,0.396,0.626c0.288,0.375,0.61,0.723,0.912,1.086
		c0.286,0.344,0.487,0.742,0.582,1.172c0.063,0.288,0.046,0.595,0.038,0.893c-0.007,0.249-0.038,0.5-0.087,0.746
		c-0.039,0.186-0.12,0.363-0.188,0.542c-0.018,0.046-0.051,0.09-0.086,0.126c-0.228,0.231-0.444,0.476-0.69,0.684
		c-0.146,0.125-0.333,0.212-0.515,0.281c-0.182,0.069-0.379,0.106-0.573,0.133C19.103,21.879,19.015,21.824,18.936,21.799z"/>
	<path fill-rule="evenodd" clip-rule="evenodd" stroke="#000000" stroke-width="0.25" stroke-miterlimit="10" d="M26.599,16.389
		c0.182-0.22,0.347-0.428,0.521-0.628c0.122-0.139,0.304-0.246,0.374-0.404c0.079-0.179,0.213-0.295,0.314-0.445
		c0.16-0.239,0.295-0.495,0.429-0.75c0.073-0.14,0.188-0.093,0.29-0.08c0.015,0.001,0.035,0.141,0.014,0.205
		c-0.078,0.241-0.154,0.486-0.267,0.712c-0.11,0.222-0.255,0.431-0.401,0.633c-0.248,0.345-0.508,0.68-0.802,1.07
		c0.356-0.078,0.6,0.042,0.801,0.312c0.013-0.153,0.018-0.26,0.029-0.366c0.034-0.363,0.296-0.619,0.447-0.927
		c0.088-0.179,0.631-0.333,0.782-0.224c0.143,0.103,0.341,0.166,0.389,0.381c0.042,0.186,0.021,0.345-0.102,0.498
		c-0.045,0.057-0.046,0.146-0.076,0.216c-0.096,0.223-0.269,0.367-0.486,0.465c-0.161,0.071-0.26,0.186-0.249,0.332
		c0.078,0.068,0.152,0.109,0.191,0.171c0.11,0.176,0.282,0.127,0.431,0.118c0.041-0.002,0.084-0.123,0.108-0.195
		c0.021-0.068,0.018-0.143,0.025-0.228c0.146,0,0.283,0,0.422,0c0,0.203,0,0.375,0,0.562c-0.013-0.001,0.02-0.004,0.048,0.006
		c0.263,0.089,0.391,0.041,0.52-0.198c0.209-0.388,0.15-0.58-0.206-0.853c-0.108-0.083-0.155-0.247-0.226-0.375
		c-0.011-0.019-0.001-0.05-0.01-0.07c-0.159-0.335-0.084-0.562,0.251-0.713c0.148-0.067,0.305-0.124,0.464-0.157
		c0.102-0.021,0.217-0.004,0.322,0.017c0.095,0.021,0.184,0.069,0.276,0.105c0.041,0.288-0.088,0.403-0.381,0.349
		c-0.147-0.028-0.294-0.055-0.443-0.065c-0.042-0.003-0.131,0.056-0.127,0.074c0.027,0.158-0.025,0.333,0.121,0.469
		c0.164,0.153,0.306,0.328,0.454,0.497c0.081,0.093,0.032,0.477-0.075,0.606c-0.101,0.123-0.208,0.242-0.309,0.364
		c-0.28,0.339-0.538,0.371-0.918,0.121c-0.04-0.026-0.117-0.011-0.168,0.008c-0.296,0.116-0.562,0.1-0.808-0.128
		c-0.098-0.09-0.233-0.142-0.361-0.216c0.049,0.151,0.09,0.286,0.139,0.418c0.108,0.283,0.093,0.32-0.182,0.424
		c-0.017,0.006-0.03,0.021-0.081,0.06c-0.08-0.163-0.167-0.309-0.226-0.465c-0.056-0.146-0.07-0.308-0.127-0.453
		c-0.064-0.16-0.138-0.325-0.248-0.454c-0.064-0.075-0.207-0.111-0.314-0.114c-0.159-0.003-0.321,0.029-0.477,0.067
		c-0.043,0.011-0.1,0.093-0.101,0.143c-0.006,0.317,0.013,0.635-0.002,0.951c-0.006,0.108-0.065,0.23-0.137,0.311
		c-0.038,0.042-0.213,0.035-0.232,0c-0.068-0.125-0.126-0.27-0.131-0.41c-0.007-0.221,0.039-0.442,0.046-0.665
		c0.002-0.057-0.05-0.159-0.091-0.167c-0.233-0.044-0.119-0.213-0.056-0.248c0.22-0.122,0.157-0.345,0.167-0.5
		c0.028-0.428-0.003-0.862-0.03-1.292c-0.016-0.253,0.017-0.514-0.128-0.754c-0.064-0.106,0.203-0.512,0.328-0.506
		c0.066,0.003,0.177,0.092,0.18,0.148c0.027,0.383,0.035,0.768,0.042,1.151c0.008,0.324,0.006,0.65,0.012,0.975
		C26.555,16.309,26.578,16.337,26.599,16.389z M28.421,16.628c0.034,0.011,0.042,0.015,0.047,0.015
		c0.312,0.021,0.415-0.276,0.619-0.418c0.089-0.062-0.007-0.253-0.125-0.257c-0.069-0.002-0.153,0.008-0.207,0.046
		C28.546,16.161,28.466,16.381,28.421,16.628z"/>
	<path fill-rule="evenodd" clip-rule="evenodd" stroke="#000000" stroke-width="0.25" stroke-miterlimit="10" d="M31.842,17.073
		c-0.053-0.085-0.092-0.149-0.16-0.26c0,0.255,0,0.465,0,0.675c0.001,0.382-0.023,0.767,0.013,1.146
		c0.021,0.225-0.028,0.48,0.167,0.68c0.05,0.052,0.05,0.201,0.013,0.275c-0.025,0.053-0.154,0.08-0.234,0.076
		c-0.339-0.017-0.326-0.024-0.321-0.362c0.005-0.331-0.03-0.661-0.036-0.992c-0.004-0.241,0.013-0.481,0.018-0.723
		c0.007-0.43,0.006-0.86,0.02-1.29c0.004-0.159,0.007-0.333,0.073-0.471c0.084-0.174,0.217-0.34,0.428-0.384
		c0.175-0.036,0.358-0.083,0.531-0.065c0.214,0.022,0.431,0.085,0.629,0.169c0.16,0.067,0.297,0.192,0.455,0.3
		c0.108-0.37,0.425-0.448,0.75-0.513c0.165-0.034,0.3,0.053,0.383,0.159c0.154,0.197,0.319,0.425,0.159,0.689
		c-0.167,0.277-0.358,0.542-0.704,0.63c-0.052,0.012-0.095,0.057-0.143,0.086c0.04,0.057,0.066,0.144,0.12,0.163
		c0.172,0.064,0.353,0.119,0.534,0.146c0.069,0.009,0.156-0.057,0.222-0.106c0.062-0.047,0.104-0.119,0.16-0.174
		c0.138-0.137,0.177-0.279,0.131-0.482c-0.071-0.315-0.109-0.638,0.11-0.936c0.226-0.307,0.529-0.413,0.883-0.387
		c0.544,0.041,0.641,0.14,0.76,0.696c0.094,0.433,0.279,0.816,0.58,1.149c0.059,0.066,0.081,0.19,0.075,0.285
		c-0.01,0.132-0.097,0.168-0.232,0.118c-0.206-0.076-0.311-0.24-0.413-0.414c-0.069-0.118-0.139-0.235-0.217-0.367
		c-0.1,0.595-0.747,0.901-1.309,0.387c-0.243,0.308-0.507,0.671-0.936,0.585c-0.359-0.071-0.795-0.133-0.941-0.57
		c-0.207,0.209-0.366,0.47-0.691,0.506c-0.167,0.019-0.343,0.055-0.501,0.021c-0.135-0.028-0.265-0.132-0.37-0.231
		C31.807,17.249,31.842,17.131,31.842,17.073z M33.13,16.455c0-0.124,0.018-0.197-0.003-0.255c-0.088-0.246-0.58-0.513-0.844-0.457
		c-0.048,0.011-0.111,0.07-0.123,0.118c-0.052,0.199-0.095,0.401-0.125,0.604c-0.037,0.248-0.051,0.509,0.174,0.677
		c0.095,0.072,0.257,0.046,0.37,0.102c0.099,0.048,0.131,0.009,0.197-0.045C33.037,16.991,33.062,16.688,33.13,16.455z
		 M36.344,15.512c-0.196-0.023-0.341-0.081-0.459-0.046c-0.391,0.114-0.423,0.178-0.436,0.581c-0.008,0.248,0.012,0.481,0.193,0.68
		c0.231,0.255,0.52,0.241,0.67-0.058c0.038-0.078,0.031-0.183,0.03-0.274c0-0.152,0.046-0.354-0.032-0.444
		C36.186,15.806,36.206,15.707,36.344,15.512z M33.773,16.574c0.285-0.156,0.56-0.204,0.667-0.486
		c0.043-0.113-0.013-0.376-0.111-0.428c-0.13-0.068-0.388,0.029-0.427,0.186C33.845,16.069,33.82,16.299,33.773,16.574z"/>
	<path fill-rule="evenodd" clip-rule="evenodd" stroke="#000000" stroke-width="0.25" stroke-miterlimit="10" d="M24.704,23.649
		c0.045-0.067,0.091-0.156,0.154-0.229c0.066-0.077,0.148-0.142,0.225-0.212c-0.431-0.289-0.442-0.672-0.137-1.118
		c0.273-0.402,0.686-0.541,1.148-0.554c0.084-0.002,0.171,0.06,0.314,0.114c-0.032-0.256-0.068-0.48-0.082-0.704
		c-0.004-0.07,0.038-0.164,0.09-0.208c0.032-0.027,0.126,0.021,0.174,0.03c0.101-0.021,0.237-0.092,0.298-0.053
		c0.13,0.086,0.195,0.266,0.121,0.405c-0.144,0.267-0.029,0.524,0,0.776c0.042,0.369,0.051,0.471-0.157,0.74
		c-0.055-0.117-0.083-0.24-0.156-0.322c-0.09-0.102-0.206-0.207-0.33-0.243c-0.222-0.063-0.445-0.155-0.691-0.082
		c-0.376,0.113-0.515,0.531-0.344,0.884c0.14,0.288,0.412,0.26,0.626,0.371c0.04,0.021,0.081,0.037,0.109,0.012
		c0.111-0.034,0.222-0.069,0.36-0.113c-0.174,0.359-0.485,0.536-0.827,0.493c-0.049-0.006-0.095-0.034-0.142-0.051
		c-0.136-0.049-0.265-0.086-0.35,0.087c-0.021,0.043-0.079,0.069-0.129,0.109c-0.025,0.365,0.139,0.666,0.4,0.926
		c0.022,0.022,0.048,0.048,0.076,0.054c0.326,0.07,0.662-0.107,0.803-0.416c0.068-0.148,0.144-0.293,0.211-0.43
		c0.285,0.027,0.324,0.071,0.29,0.327c-0.059,0.432-0.126,0.863-0.18,1.297c-0.016,0.123-0.017,0.253,0.005,0.375
		c0.033,0.177-0.022,0.316-0.137,0.455c-0.039-0.005-0.084-0.017-0.129-0.015c-0.222,0.011-0.301-0.037-0.28-0.245
		c0.037-0.349,0.108-0.694,0.169-1.041c0.012-0.069,0.044-0.134,0.066-0.199c-0.208,0.059-0.396,0.127-0.591,0.167
		c-0.449,0.093-0.775-0.112-0.936-0.539c-0.076-0.199-0.177-0.385-0.124-0.609c0.006-0.023-0.033-0.053-0.04-0.081
		c-0.009-0.038-0.023-0.096-0.006-0.112C24.609,23.666,24.664,23.662,24.704,23.649z"/>
	<path fill-rule="evenodd" clip-rule="evenodd" stroke="#000000" stroke-width="0.25" stroke-miterlimit="10" d="M39.259,16.002
		c0.341,0.548,0.65,0.675,1.153,0.488c0.236-0.088,0.469-0.768,0.356-1.085c0.09-0.031,0.182-0.063,0.274-0.095
		c0.037,0.123,0.117,0.252,0.103,0.369c-0.025,0.208-0.075,0.425-0.172,0.608c-0.083,0.155-0.227,0.3-0.378,0.396
		c-0.48,0.306-1,0.281-1.458-0.127c-0.353-0.313-0.459-0.706-0.403-1.163c0.011-0.094-0.025-0.272-0.067-0.281
		c-0.126-0.026-0.267,0.001-0.397,0.029c-0.066,0.015-0.13,0.068-0.181,0.118c-0.059,0.06-0.142,0.131-0.147,0.203
		c-0.021,0.366-0.064,0.739,0.104,1.087c0.037,0.076,0.098,0.14,0.151,0.213c-0.113,0.285-0.118,0.292-0.371,0.236
		c-0.051-0.011-0.102-0.074-0.132-0.126c-0.254-0.436-0.173-0.929-0.236-1.398c-0.013-0.084-0.031-0.167-0.057-0.249
		c-0.057-0.187,0.08-0.372,0.247-0.296c0.194,0.088,0.351-0.028,0.432-0.105c0.274-0.256,0.528-0.116,0.804-0.044
		c0.381-0.467,1.082-0.55,1.582-0.179c0.093,0.07,0.127,0.498,0.033,0.612c-0.281,0.345-0.613,0.621-1.065,0.713
		c-0.033,0.007-0.066,0.014-0.097,0.026C39.312,15.961,39.292,15.979,39.259,16.002z M40.18,14.891
		c-0.033-0.028-0.065-0.062-0.102-0.087c-0.317-0.215-0.685-0.158-0.822,0.157c-0.083,0.193-0.098,0.418-0.144,0.629
		C39.477,15.651,40.014,15.29,40.18,14.891z"/>
	<path fill-rule="evenodd" clip-rule="evenodd" stroke="#000000" stroke-width="0.25" stroke-miterlimit="10" d="M30.306,20.855
		c0.059,0.014,0.133,0.007,0.172,0.043c0.16,0.141,0.3,0.296,0.527,0.345c0.056,0.013,0.123,0.143,0.124,0.221
		c0.006,0.323-0.192,0.546-0.421,0.732c-0.118,0.097-0.288,0.061-0.379-0.057c-0.044-0.059-0.01-0.188,0.008-0.281
		c0.021-0.12,0.065-0.236,0.094-0.355c0.039-0.159-0.072-0.253-0.187-0.288c-0.23-0.069-0.462-0.076-0.681,0.086
		c-0.474,0.351-0.742,0.799-0.696,1.397c0.021,0.285,0.068,0.573,0.146,0.848c0.088,0.318,0.651,0.684,0.981,0.656
		c0.107-0.01,0.248-0.059,0.303-0.14c0.136-0.194,0.345-0.363,0.292-0.652c-0.025-0.136-0.001-0.272,0.193-0.273
		c0.257-0.002,0.358,0.059,0.349,0.264c-0.01,0.214-0.051,0.427-0.093,0.638c-0.048,0.242-0.226,0.399-0.443,0.451
		c-0.441,0.104-0.886,0.224-1.336-0.028c-0.218-0.122-0.479-0.179-0.605-0.416c-0.131-0.248-0.297-0.504-0.33-0.771
		c-0.053-0.426,0.013-0.856,0.239-1.245c0.145-0.25,0.259-0.517,0.41-0.762c0.056-0.09,0.176-0.141,0.27-0.205
		c0.266-0.185,0.559-0.287,0.884-0.261c0.053,0.004,0.102,0.059,0.153,0.09C30.289,20.88,30.297,20.867,30.306,20.855z"/>
	<path fill-rule="evenodd" clip-rule="evenodd" stroke="#000000" stroke-width="0.25" stroke-miterlimit="10" d="M22.437,16.405
		c0.165-0.095,0.296-0.193,0.445-0.25c0.175-0.068,0.729,0.104,0.809,0.255c0.119,0.227,0.181,0.477,0.175,0.735
		c-0.008,0.309-0.023,0.617-0.054,0.925c-0.017,0.179-0.064,0.357-0.11,0.532c-0.032,0.123-0.132,0.178-0.248,0.132
		c-0.128-0.052-0.276-0.092-0.258-0.294c0.037-0.392,0.08-0.786,0.072-1.178c-0.003-0.216-0.138-0.413-0.348-0.512
		c-0.134-0.062-0.269-0.021-0.342,0.116c-0.122,0.223-0.238,0.443-0.22,0.718c0.014,0.199-0.032,0.401-0.052,0.603
		c-0.002,0.026-0.013,0.066,0,0.078c0.196,0.183,0.023,0.347-0.037,0.502c-0.055,0.143-0.433,0.176-0.58,0.073
		c-0.127-0.088-0.11-0.226,0.021-0.418c0.081-0.12,0.16-0.255,0.185-0.395c0.058-0.327,0.082-0.66,0.119-0.991
		c0.068-0.617,0.128-1.235,0.209-1.851c0.023-0.178,0.09-0.356,0.168-0.519c0.039-0.082,0.141-0.151,0.23-0.184
		c0.108-0.042,0.205,0.074,0.175,0.195c-0.082,0.333-0.178,0.663-0.25,0.998C22.493,15.919,22.47,16.17,22.437,16.405z"/>
	<path fill-rule="evenodd" clip-rule="evenodd" stroke="#000000" stroke-width="0.25" stroke-miterlimit="10" d="M23.951,17.306
		c0.046-0.043,0.089-0.083,0.148-0.138c-0.055-0.017-0.095-0.028-0.155-0.047c0.141-0.168,0.217-0.354,0.378-0.52
		c0.275-0.28,0.588-0.292,0.913-0.344c0.048-0.008,0.107,0.05,0.161,0.078c-0.001,0.021-0.003,0.043-0.004,0.065
		c0.026-0.032,0.052-0.064,0.085-0.104c0.266,0.25,0.259,0.572,0.255,0.897c-0.001,0.137,0.024,0.275,0.045,0.411
		c0.026,0.162,0.068,0.321,0.091,0.482c0.017,0.125-0.022,0.244-0.165,0.249c-0.128,0.006-0.32,0.131-0.359-0.133
		c-0.011-0.069-0.048-0.135-0.079-0.222c-0.027,0.034-0.055,0.059-0.071,0.089c-0.252,0.458-0.74,0.323-0.973,0.006
		c-0.112-0.152-0.146-0.364-0.211-0.549C23.986,17.458,23.972,17.387,23.951,17.306z M25.15,17.267
		c-0.038-0.166-0.075-0.354-0.13-0.54c-0.009-0.03-0.096-0.059-0.14-0.052c-0.225,0.041-0.373,0.188-0.414,0.403
		c-0.044,0.239-0.07,0.496,0.132,0.69c0.169,0.163,0.426,0.088,0.493-0.141C25.123,17.52,25.128,17.406,25.15,17.267z"/>
	<path fill-rule="evenodd" clip-rule="evenodd" stroke="#000000" stroke-width="0.25" stroke-miterlimit="10" d="M32.469,21.747
		c0.072,0.167,0.174,0.296,0.17,0.421c-0.008,0.229,0.068,0.462-0.056,0.694c-0.141,0.264-0.356,0.293-0.612,0.292
		c-0.338-0.004-0.523-0.216-0.577-0.544c-0.05-0.31,0.042-0.529,0.223-0.764c0.151-0.194,0.363-0.211,0.557-0.282
		c0.045-0.017,0.127,0.05,0.185,0.089C32.415,21.69,32.462,21.74,32.469,21.747z M32.193,22.826c0.229-0.58,0.147-0.732-0.293-0.715
		c-0.008,0.146-0.037,0.295-0.021,0.438C31.896,22.712,32.006,22.813,32.193,22.826z"/>
	<path fill-rule="evenodd" clip-rule="evenodd" stroke="#000000" stroke-width="0.25" stroke-miterlimit="10" d="M33.231,23.439
		c0.038-0.196,0.071-0.335,0.092-0.476c0.025-0.181,0.194-0.157,0.287-0.159c0.099-0.001,0.14,0.119,0.093,0.235
		c-0.061,0.153,0,0.381-0.251,0.412C33.377,23.461,33.299,23.444,33.231,23.439z"/>
	<path fill-rule="evenodd" clip-rule="evenodd" stroke="#000000" stroke-width="0.5" stroke-miterlimit="10" d="M22.488,5.514
		c-0.27,0.043-0.539,0.096-0.81,0.125c-0.175,0.02-0.355-0.008-0.53,0.011c-0.107,0.012-0.21,0.072-0.314,0.109
		c-0.031,0.011-0.066,0.033-0.094,0.027c-0.244-0.046-0.47,0.068-0.708,0.08c-0.245,0.013-0.488,0.045-0.733,0.068
		c-0.819,0.079-1.64,0.157-2.458,0.235c-0.026,0.003-0.052,0.003-0.084-0.021c0.107-0.038,0.214-0.075,0.369-0.129
		c-0.092-0.027-0.137-0.04-0.183-0.054c0.003-0.007,0.006-0.019,0.013-0.023c0.148-0.085,0.299-0.068,0.466-0.054
		c0.229,0.019,0.465-0.055,0.695-0.041c0.265,0.017,0.491-0.115,0.736-0.143c0.168-0.02,0.344,0.043,0.517,0.069
		c-0.004-0.02-0.008-0.039-0.011-0.06c0.23-0.04,0.461-0.08,0.708-0.122c-0.003,0.055-0.005,0.096-0.008,0.145
		c0.025-0.003,0.047,0,0.062-0.009c0.339-0.219,0.726-0.241,1.11-0.278c0.22-0.021,0.437-0.073,0.655-0.114
		c0.335-0.062,0.668-0.137,1.005-0.187c0.638-0.094,1.279-0.174,1.918-0.26c0.108-0.015,0.216-0.033,0.32-0.049
		c0.152-0.04,0.298-0.09,0.448-0.116c0.361-0.061,0.725-0.109,1.086-0.162c0.247-0.037,0.494-0.075,0.741-0.107
		c0.555-0.074,1.109-0.149,1.665-0.216c0.423-0.05,0.847-0.08,1.27-0.132c0.516-0.063,1.03-0.142,1.546-0.209
		c0.586-0.077,1.173-0.148,1.76-0.223c0.585-0.074,1.171-0.142,1.754-0.226c0.349-0.05,0.694-0.131,1.042-0.19
		c0.699-0.119,1.399-0.234,2.1-0.35c0.092-0.015,0.187-0.014,0.278-0.032c0.261-0.049,0.26-0.052,0.251,0.213
		c-0.697,0.133-1.4,0.273-2.104,0.4c-0.619,0.112-1.239,0.224-1.861,0.311c-0.71,0.099-1.424,0.178-2.136,0.254
		c-0.461,0.05-0.926,0.068-1.386,0.121c-0.512,0.06-1.02,0.143-1.53,0.214c-0.445,0.062-0.889,0.127-1.334,0.178
		c-0.197,0.023-0.402-0.007-0.599,0.02c-0.351,0.048-0.697,0.126-1.047,0.182c-0.383,0.062-0.768,0.111-1.151,0.167
		c-0.125,0.02-0.251,0.042-0.376,0.065c-0.452,0.084-0.903,0.173-1.357,0.252c-0.503,0.088-1.008,0.168-1.513,0.246
		c-0.063,0.01-0.134-0.014-0.2-0.022C22.48,5.49,22.484,5.501,22.488,5.514z"/>
	<path fill-rule="evenodd" clip-rule="evenodd" stroke="#000000" stroke-width="0.5" stroke-miterlimit="10" d="M35.086,2.624
		c-0.325,0.045-0.632,0.088-0.939,0.13c0.01,0.023,0.021,0.047,0.034,0.08c-0.44,0.1-0.874,0.202-1.31,0.296
		C32.828,3.14,32.773,3.101,32.68,3.07c-0.412,0.322-0.968,0.311-1.492,0.411c-0.452,0.086-0.907,0.155-1.362,0.227
		c-0.103,0.016-0.209,0.009-0.314,0.011c-0.019,0-0.042-0.022-0.054-0.016c-0.329,0.167-0.694,0.159-1.045,0.226
		c-0.073,0.014-0.157-0.033-0.237-0.044c-0.03-0.004-0.062,0.01-0.092,0.015c0.012,0.036,0.025,0.072,0.035,0.102
		c-0.398,0.05-0.799,0.099-1.198,0.147c-0.01-0.024-0.019-0.048-0.028-0.073c0.072-0.041,0.138-0.109,0.213-0.119
		c0.266-0.04,0.535-0.048,0.8-0.089c0.181-0.028,0.356-0.095,0.537-0.132c0.325-0.066,0.652-0.127,0.979-0.185
		c0.735-0.13,1.471-0.25,2.204-0.389c0.625-0.12,1.247-0.257,1.87-0.392c0.36-0.079,0.717-0.178,1.079-0.249
		c0.124-0.024,0.261,0,0.391,0.017C35.011,2.545,35.05,2.597,35.086,2.624z"/>
	<path fill-rule="evenodd" clip-rule="evenodd" stroke="#000000" stroke-width="0.5" stroke-miterlimit="10" d="M25.581,4.359
		c-0.451,0.086-0.9,0.173-1.351,0.26c-0.005-0.021-0.01-0.042-0.015-0.063c0.05-0.016,0.101-0.032,0.188-0.059
		c-0.074-0.029-0.117-0.045-0.175-0.068c0.03-0.021,0.053-0.051,0.077-0.052c0.423-0.022,0.83-0.257,1.263-0.145
		C25.571,4.274,25.576,4.316,25.581,4.359z"/>
	<path fill-rule="evenodd" clip-rule="evenodd" stroke="#000000" stroke-width="0.5" stroke-miterlimit="10" d="M26.256,4.252
		c-0.05,0.019-0.099,0.047-0.151,0.055c-0.145,0.021-0.289,0.032-0.473,0.051c0.098-0.061,0.162-0.101,0.226-0.141
		c-0.007-0.015-0.015-0.029-0.021-0.044c-0.052,0.006-0.104,0.012-0.155,0.018c-0.004-0.013-0.008-0.026-0.012-0.039
		c0.08-0.025,0.159-0.048,0.257-0.079c0,0.061,0,0.105,0,0.153c0.113,0.01,0.224,0.021,0.335,0.031L26.256,4.252z"/>
	<path fill-rule="evenodd" clip-rule="evenodd" stroke="#000000" stroke-width="0.5" stroke-miterlimit="10" d="M26.261,4.258
		c0.043-0.037,0.088-0.073,0.131-0.11c0.179-0.154,0.179-0.154,0.283,0.048c-0.139,0.019-0.279,0.037-0.419,0.056L26.261,4.258z"/>
	<path fill-rule="evenodd" clip-rule="evenodd" fill="#FFFFFF" stroke="#000000" stroke-width="0.25" stroke-miterlimit="10" d="
		M28.421,16.628c0.045-0.247,0.125-0.467,0.334-0.614c0.054-0.038,0.138-0.049,0.207-0.046c0.118,0.004,0.215,0.195,0.125,0.257
		c-0.204,0.142-0.307,0.438-0.619,0.418C28.463,16.643,28.456,16.639,28.421,16.628z"/>
	<path fill-rule="evenodd" clip-rule="evenodd" fill="#FFFFFF" d="M33.13,16.455c-0.068,0.232-0.093,0.536-0.353,0.744
		c-0.066,0.054-0.099,0.093-0.197,0.045c-0.113-0.055-0.275-0.03-0.37-0.102c-0.225-0.168-0.211-0.429-0.174-0.677
		c0.03-0.203,0.073-0.405,0.125-0.604c0.012-0.048,0.075-0.107,0.123-0.118c0.264-0.056,0.756,0.211,0.844,0.457
		C33.148,16.258,33.13,16.331,33.13,16.455z"/>
	<path fill-rule="evenodd" clip-rule="evenodd" fill="#FFFFFF" d="M36.344,15.512c-0.138,0.195-0.158,0.293-0.033,0.438
		c0.078,0.09,0.031,0.292,0.032,0.444c0.001,0.092,0.008,0.196-0.03,0.274c-0.15,0.299-0.439,0.312-0.67,0.058
		c-0.182-0.199-0.201-0.432-0.193-0.68c0.012-0.402,0.044-0.466,0.436-0.581C36.003,15.431,36.148,15.489,36.344,15.512z"/>
	<path fill-rule="evenodd" clip-rule="evenodd" fill="#FFFFFF" d="M33.773,16.574c0.047-0.274,0.072-0.505,0.129-0.728
		c0.039-0.157,0.297-0.254,0.427-0.186c0.098,0.052,0.154,0.315,0.111,0.428C34.333,16.37,34.058,16.417,33.773,16.574z"/>
	<path fill-rule="evenodd" clip-rule="evenodd" fill="#FFFFFF" stroke="#000000" stroke-width="0.5" stroke-miterlimit="10" d="
		M40.18,14.891c-0.167,0.398-0.704,0.76-1.068,0.699c0.046-0.211,0.061-0.436,0.144-0.629c0.137-0.315,0.505-0.373,0.822-0.157
		C40.115,14.829,40.147,14.863,40.18,14.891z"/>
	<path fill-rule="evenodd" clip-rule="evenodd" fill="#FFFFFF" stroke="#000000" stroke-width="0.25" stroke-miterlimit="10" d="
		M25.15,17.267c-0.021,0.139-0.027,0.253-0.059,0.361c-0.066,0.229-0.324,0.304-0.493,0.141c-0.202-0.194-0.177-0.451-0.132-0.69
		c0.041-0.215,0.188-0.362,0.414-0.403c0.044-0.007,0.131,0.022,0.14,0.052C25.075,16.913,25.112,17.102,25.15,17.267z"/>
	<path fill-rule="evenodd" clip-rule="evenodd" fill="#FFFFFF" stroke="#000000" stroke-width="0.25" stroke-miterlimit="10" d="
		M32.193,22.826c-0.187-0.013-0.296-0.114-0.314-0.277c-0.016-0.144,0.013-0.293,0.021-0.438
		C32.34,22.094,32.422,22.246,32.193,22.826z"/>
</g>
</svg>
