<svg xmlns="http://www.w3.org/2000/svg" xmlns:xlink="http://www.w3.org/1999/xlink" version="1.1" x="0px" y="0px" viewBox="0 0 100 100" enable-background="new 0 0 100 100" xml:space="preserve"><g display="none"><path display="inline" d="M23.149,44.264c-0.439,2.133-3.202,3.074-2.894,5.533c0.312,2.49,3.489,3.824,5.807,4.464   c4.224,1.166,8.411,0.132,12.745-0.163C55,53,44.176,96.346,41.234,100H66.46C58.171,95.335,51,78,64.486,50.611   C67,48,74.984,45.95,76.166,45.246c2.911-1.739,6.123-4.222,6.701-7.541c0.719-4.113-2.672-5.996-6.521-6.777   c5.146-1.379,12.381-8.365,7.661-12.841c-1.739-1.651-7.475-2.66-11.589-2.002c0.805-4.627-1.927-11.575-4.604-13.271   C64.811,0.908,60.331,2.115,57.45,3.72c-3.706,2.066-5.144,5.845-5.392,9.562C52.57,9.284,50.751,3.818,45.62,2.98   c-5.511-0.9-11.061,3.552-12.169,7.886c-1.297-3.929-6.846-5.675-10.784-3.659c-6.393,3.274-3.427,12.015-3.552,17.142   c-3.907-0.362-10.248,1.413-10.882,5.328C7.13,36.5,18.957,40.523,23.149,44.264z"></path></g><g display="none"><path display="inline" d="M90,30c0-5.416-3.59-9.99-8.518-11.482C79.989,13.589,75.415,10,70,10c-0.562,0-1.109,0.052-1.65,0.127   C66.736,5.402,62.27,2,57,2c-3.939,0-7.425,1.907-9.613,4.839C46.027,6.304,44.55,6,43,6c-4.638,0-8.653,2.635-10.651,6.486   C30.149,9.753,26.781,8,23,8c-6.627,0-12,5.373-12,12c0,4.747,2.763,8.838,6.763,10.784C13.229,32.498,10,36.866,10,42   c0,6.627,5.373,12,12,12c1.566,0,3.059-0.311,4.431-0.855C27.814,58.244,32.463,62,38,62c2.188,0,4.233-0.596,6-1.618V100h11   V63.926C57.124,65.831,59.922,67,63,67c5.251,0,9.704-3.38,11.331-8.078C80.331,58.26,85,53.177,85,47   c0-2.281-0.648-4.405-1.753-6.221C87.241,38.831,90,34.743,90,30z"></path></g><path fill="#000000" d="M17.122,3.5V47h-0.001v23.312v26.063h0.001V96.5h65.757V50V3.5H17.122z M20.122,6.5h59.757V47H20.122V6.5z   M48.625,70.312H35.75H20.122V50h28.502V70.312z M20.122,73.312H32.75v20.063H20.122V73.312z M48.625,93.376H35.75V73.312h12.875  V93.376z M79.879,93.5H51.625V70.312V50h28.254V93.5z"></path><g><path fill="#000000" d="M131.938,49.25v23.7h-15v-23.7H131.938 M134.938,46.25h-21v29.7h21V46.25L134.938,46.25z"></path></g></svg>