<svg xmlns="http://www.w3.org/2000/svg" xmlns:xlink="http://www.w3.org/1999/xlink" version="1.1" x="0px" y="0px" viewBox="0 0 100 100" style="enable-background:new 0 0 100 100;" xml:space="preserve"><path d="M91.144,17.777l-20-10.295c-0.708-0.366-1.549-0.37-2.262-0.013l-11.25,5.625c-0.847,0.423-1.382,1.289-1.382,2.236v4.705  l-8.618,4.309c-0.847,0.423-1.382,1.289-1.382,2.236v4.705l-8.618,4.309c-0.847,0.423-1.382,1.289-1.382,2.236v4.705l-8.618,4.309  c-0.847,0.423-1.382,1.289-1.382,2.236v4.705l-8.618,4.309c-0.847,0.423-1.382,1.289-1.382,2.236v4.705l-8.618,4.309  C6.785,69.768,6.25,70.633,6.25,71.58v9.045c0,0.99,0.584,1.888,1.491,2.287l21.25,9.375C29.313,92.429,29.657,92.5,30,92.5  c0.383,0,0.767-0.088,1.118-0.264l60-30C91.965,61.813,92.5,60.947,92.5,60V20C92.5,19.063,91.977,18.206,91.144,17.777z M80,24.852  L62.795,16.25L70,12.647l17.205,8.603L80,24.852z M70,36.103L52.795,27.5L60,23.898L77.205,32.5L70,36.103z M60,47.353L42.795,38.75  L50,35.148l17.205,8.603L60,47.353z M50,58.603L32.795,50L40,46.398L57.205,55L50,58.603z M40,69.853L22.795,61.25L30,57.648  l17.205,8.603L40,69.853z M30,81.103L12.795,72.5L20,68.898L37.205,77.5L30,81.103z M78.75,30.478l-17.5-8.75V21.58v-3.308  l17.5,8.75V30.478z M68.75,41.728l-17.5-8.75V32.83v-3.307l17.5,8.75V41.728z M58.75,52.978l-17.5-8.75V44.08v-3.307l17.5,8.75  V52.978z M48.75,64.228l-17.5-8.75V55.33v-3.307l17.5,8.75V64.228z M38.75,75.478l-17.5-8.75V66.58v-3.307l17.5,8.75V75.478z   M11.25,78.996v-4.473l17.5,8.75v3.443L11.25,78.996z M31.25,86.58v-3.307l9.309-4.655c0.017-0.009,0.03-0.023,0.046-0.032  c0.017-0.009,0.035-0.013,0.052-0.023c0.039-0.024,0.07-0.058,0.106-0.086c0.037-0.029,0.075-0.055,0.108-0.088  c0.048-0.047,0.087-0.1,0.126-0.153c0.026-0.035,0.055-0.067,0.077-0.104c0.037-0.063,0.063-0.131,0.088-0.199  c0.013-0.035,0.031-0.067,0.041-0.103c0.029-0.107,0.046-0.217,0.046-0.331v-5.477l9.309-4.655c0.017-0.009,0.03-0.023,0.046-0.032  c0.017-0.009,0.035-0.013,0.052-0.023c0.039-0.024,0.07-0.058,0.106-0.086c0.037-0.029,0.075-0.055,0.108-0.088  c0.048-0.047,0.087-0.1,0.126-0.153c0.026-0.035,0.055-0.067,0.077-0.104c0.037-0.063,0.063-0.131,0.088-0.199  c0.013-0.035,0.031-0.067,0.041-0.103c0.029-0.107,0.046-0.217,0.046-0.331v-5.477l9.309-4.655c0.017-0.009,0.03-0.023,0.046-0.032  c0.017-0.009,0.035-0.013,0.052-0.023c0.039-0.024,0.07-0.058,0.106-0.086c0.037-0.029,0.075-0.055,0.108-0.088  c0.048-0.047,0.087-0.1,0.126-0.153c0.026-0.035,0.055-0.067,0.077-0.104c0.037-0.063,0.063-0.131,0.088-0.199  c0.013-0.035,0.031-0.067,0.041-0.103c0.029-0.107,0.046-0.217,0.046-0.331v-5.477l9.309-4.655c0.017-0.009,0.03-0.023,0.046-0.032  c0.017-0.009,0.035-0.013,0.052-0.023c0.039-0.024,0.07-0.058,0.106-0.086c0.037-0.029,0.075-0.055,0.108-0.088  c0.048-0.047,0.087-0.1,0.126-0.153c0.026-0.035,0.055-0.067,0.077-0.104c0.037-0.063,0.063-0.131,0.088-0.199  c0.013-0.035,0.031-0.067,0.041-0.103c0.029-0.107,0.046-0.217,0.046-0.331v-5.477l9.309-4.655c0.017-0.009,0.03-0.023,0.046-0.032  c0.017-0.009,0.035-0.013,0.052-0.023c0.039-0.024,0.07-0.058,0.106-0.086c0.037-0.029,0.075-0.055,0.108-0.088  c0.048-0.047,0.087-0.1,0.126-0.153c0.026-0.035,0.055-0.067,0.077-0.104c0.037-0.063,0.063-0.131,0.088-0.199  c0.013-0.035,0.031-0.067,0.041-0.103c0.029-0.107,0.046-0.217,0.046-0.331v-5.477l6.25-3.125v34.557L31.25,86.58z"></path></svg>