<?xml version="1.0" encoding="utf-8"?>
<!-- Generator: Adobe Illustrator 16.0.4, SVG Export Plug-In . SVG Version: 6.00 Build 0)  -->
<!DOCTYPE svg PUBLIC "-//W3C//DTD SVG 1.1//EN" "http://www.w3.org/Graphics/SVG/1.1/DTD/svg11.dtd">
<svg version="1.1" id="Layer_1" xmlns="http://www.w3.org/2000/svg" xmlns:xlink="http://www.w3.org/1999/xlink" x="0px" y="0px"
	 width="20.25px" height="18px" viewBox="0 0 20.25 18" enable-background="new 0 0 20.25 18" xml:space="preserve">
<polygon fill="#669933" points="-37.542,-53.347 -34.721,-47.631 -28.415,-46.715 -32.979,-42.266 -31.901,-35.987 -37.542,-38.955 
	-43.183,-35.987 -42.105,-42.266 -46.668,-46.715 -40.361,-47.631 "/>
<polygon fill="#2E67B2" points="10.623,0 13.443,5.715 19.75,6.631 15.186,11.08 16.264,17.359 10.623,14.393 4.982,17.359 
	6.06,11.08 1.496,6.631 7.804,5.715 "/>
<polygon fill="#E98800" points="-4.21,-68.905 -1.39,-63.19 4.917,-62.274 0.352,-57.825 1.43,-51.546 -4.21,-54.513 
	-9.852,-51.546 -8.774,-57.825 -13.337,-62.274 -7.03,-63.19 "/>
<polygon fill="#9F1D20" points="65.458,-77.585 68.278,-71.87 74.585,-70.954 70.021,-66.504 71.099,-60.225 65.458,-63.193 
	59.817,-60.225 60.894,-66.504 56.331,-70.954 62.638,-71.87 "/>
</svg>
