<?xml version="1.0" encoding="utf-8"?>
<!-- Generator: Adobe Illustrator 19.2.1, SVG Export Plug-In . SVG Version: 6.00 Build 0)  -->
<svg version="1.1" id="Layer_1" xmlns="http://www.w3.org/2000/svg" xmlns:xlink="http://www.w3.org/1999/xlink" x="0px" y="0px"
	 viewBox="0 0 20.2 18" style="enable-background:new 0 0 20.2 18;" xml:space="preserve">
<style type="text/css">
	.st0{fill:#669933;}
	.st1{fill:#2E67B2;}
	.st2{fill:#E98800;}
	.st3{fill:#FFFF55;}
</style>
<polygon class="st0" points="-37.5,-53.3 -34.7,-47.6 -28.4,-46.7 -33,-42.3 -31.9,-36 -37.5,-39 -43.2,-36 -42.1,-42.3 
	-46.7,-46.7 -40.4,-47.6 "/>
<polygon class="st1" points="25.1,-60.2 27.9,-54.5 34.3,-53.6 29.7,-49.1 30.8,-42.9 25.1,-45.8 19.5,-42.9 20.6,-49.1 16,-53.6 
	22.3,-54.5 "/>
<polygon class="st2" points="-4.2,-68.9 -1.4,-63.2 4.9,-62.3 0.4,-57.8 1.4,-51.5 -4.2,-54.5 -9.9,-51.5 -8.8,-57.8 -13.3,-62.3 
	-7,-63.2 "/>
<polygon class="st3" points="10.1,0 12.9,5.7 19.3,6.6 14.7,11.1 15.8,17.4 10.1,14.4 4.5,17.4 5.6,11.1 1,6.6 7.3,5.7 "/>
</svg>
