<?xml version="1.0" encoding="utf-8"?>
<!-- Generator: Adobe Illustrator 16.0.4, SVG Export Plug-In . SVG Version: 6.00 Build 0)  -->
<!DOCTYPE svg PUBLIC "-//W3C//DTD SVG 1.1//EN" "http://www.w3.org/Graphics/SVG/1.1/DTD/svg11.dtd">
<svg version="1.1" id="Layer_1" xmlns="http://www.w3.org/2000/svg" xmlns:xlink="http://www.w3.org/1999/xlink" x="0px" y="0px"
	 width="20.25px" height="18px" viewBox="0 0 20.25 18" enable-background="new 0 0 20.25 18" xml:space="preserve">
<polygon fill="#669933" points="-37.542,-53.347 -34.721,-47.631 -28.415,-46.715 -32.979,-42.266 -31.901,-35.987 -37.542,-38.955 
	-43.183,-35.987 -42.105,-42.266 -46.668,-46.715 -40.361,-47.631 "/>
<polygon fill="#2E67B2" points="25.125,-60.226 27.945,-54.51 34.252,-53.594 29.688,-49.145 30.766,-42.866 25.125,-45.833 
	19.484,-42.866 20.562,-49.145 15.998,-53.594 22.306,-54.51 "/>
<polygon fill="#E98800" points="11.123,0 13.943,5.715 20.25,6.631 15.686,11.08 16.764,17.359 11.123,14.393 5.482,17.359 
	6.559,11.08 1.996,6.631 8.303,5.715 "/>
<polygon fill="#9F1D20" points="27.379,-33.68 30.199,-27.965 36.506,-27.049 31.941,-22.6 33.02,-16.32 27.379,-19.288 
	21.738,-16.32 22.814,-22.6 18.252,-27.049 24.559,-27.965 "/>
</svg>
