<svg xmlns="http://www.w3.org/2000/svg" xmlns:xlink="http://www.w3.org/1999/xlink" version="1.1" x="0px" y="0px" viewBox="0 0 57 47" style="enable-background:new 0 0 57 47;" xml:space="preserve"><g><g><path d="M27.7,10C17.4,10,9,18.3,9,28.5S17.4,47,27.7,47c10.3,0,18.7-8.3,18.7-18.5S38,10,27.7,10z M27.7,45    C18.5,45,11,37.6,11,28.5C11,19.4,18.5,12,27.7,12c9.2,0,16.7,7.4,16.7,16.5C44.3,37.6,36.8,45,27.7,45z M27.7,14.9    C20.1,14.9,14,21,14,28.5c0,7.5,6.1,13.6,13.7,13.6c7.5,0,13.7-6.1,13.7-13.6C41.3,21,35.2,14.9,27.7,14.9z M27.7,40.1    c-6.4,0-11.7-5.2-11.7-11.6c0-6.4,5.2-11.6,11.7-11.6c6.4,0,11.7,5.2,11.7,11.6C39.3,34.9,34.1,40.1,27.7,40.1z M6,20.8    c0,0.7-0.4,1.3-1,1.7v-8.7H3v8.7c-0.6-0.3-1-1-1-1.7v-7H0v7c0,1.8,1.3,3.4,3,3.8v19.9h2V24.6c1.7-0.4,3-1.9,3-3.8v-7H6V20.8z     M52,13.8L52,13.8l-2,0L50,44.2l2,0L52,15.3c2,0.3,3.2,3.5,3.2,8.5c0,5.1-1.2,8.3-3.2,8.5v1.5c4-0.2,5-5.3,5-10.1    C57,19.1,56,14,52,13.8z M13.9,9.2c3.3,0,6.1-1.3,7-3.2H46V4H21.2c-0.5-2.3-3.5-4-7.3-4C9.8,0,6.6,2,6.6,4.6    C6.6,7.2,9.8,9.2,13.9,9.2z M13.9,2c3.1,0,5.3,1.4,5.3,2.6s-2.2,2.6-5.3,2.6c-3.1,0-5.3-1.4-5.3-2.6S10.8,2,13.9,2z"></path></g></g></svg>