<svg xmlns="http://www.w3.org/2000/svg" xmlns:xlink="http://www.w3.org/1999/xlink" version="1.1" x="0px" y="0px" viewBox="0 0 100 100" enable-background="new 0 0 100 100" xml:space="preserve"><path d="M92.5,12.5h-5.2C86.4,8.1,83.6,5,80,5H20c-3.6,0-6.4,3.1-7.3,7.5H7.5C6.1,12.5,5,13.6,5,15s1.1,2.5,2.5,2.5h5v75  c0,1.4,1.1,2.5,2.5,2.5h60c1.4,0,2.5-1.1,2.5-2.5v-15H85c1.4,0,2.5-1.1,2.5-2.5V17.5h5c1.4,0,2.5-1.1,2.5-2.5S93.9,12.5,92.5,12.5z   M72.5,15v75h-55V15c0-3.1,1.5-5,2.5-5h53.5C72.9,11.5,72.5,13.2,72.5,15z M80,10c0.7,0,1.6,0.9,2.1,2.5h-4.2  C78.4,10.9,79.3,10,80,10z M82.5,72.5h-5v-55h5V72.5z"></path></svg>