<?xml version="1.0" encoding="utf-8"?>
<!-- Generator: Adobe Illustrator 19.2.1, SVG Export Plug-In . SVG Version: 6.00 Build 0)  -->
<svg version="1.1" id="Layer_1" xmlns="http://www.w3.org/2000/svg" xmlns:xlink="http://www.w3.org/1999/xlink" x="0px" y="0px"
	 viewBox="0 0 94 94" style="enable-background:new 0 0 94 94;" xml:space="preserve">
<path d="M89.5,24.7H62c0-1.4-1.1-2.5-2.5-2.5H49l23.8-19C73.3,2.7,73.4,2,73,1.4c-0.4-0.5-1.2-0.6-1.8-0.2L47,20.6L22.8,1.2
	c-0.5-0.4-1.3-0.3-1.8,0.2c-0.4,0.5-0.3,1.3,0.2,1.8l23.8,19H34.5c-1.4,0-2.5,1.1-2.5,2.5H4.5c-1.4,0-2.5,1.1-2.5,2.5v60
	c0,1.4,1.1,2.5,2.5,2.5h85c1.4,0,2.5-1.1,2.5-2.5v-60C92,25.8,90.9,24.7,89.5,24.7z M87,84.7H7v-55h27.5h25H87V84.7z"/>
<path d="M10.8,39.7v35c0,3.4,2.8,6.3,6.3,6.3h45c3.4,0,6.3-2.8,6.3-6.3v-35c0-3.4-2.8-6.3-6.3-6.3H17C13.6,33.5,10.8,36.3,10.8,39.7
	z M65.8,39.7v35c0,2.1-1.7,3.8-3.8,3.8H17c-2.1,0-3.8-1.7-3.8-3.8v-35c0-2.1,1.7-3.8,3.8-3.8h45C64.1,36,65.8,37.6,65.8,39.7z"/>
<path d="M77,46c3.4,0,6.3-2.8,6.3-6.3s-2.8-6.3-6.3-6.3s-6.3,2.8-6.3,6.3S73.6,46,77,46z M77,36c2.1,0,3.8,1.7,3.8,3.8
	s-1.7,3.8-3.8,3.8s-3.8-1.7-3.8-3.8S74.9,36,77,36z"/>
<path d="M77,61c3.4,0,6.3-2.8,6.3-6.3s-2.8-6.3-6.3-6.3s-6.3,2.8-6.3,6.3S73.6,61,77,61z M77,51c2.1,0,3.8,1.7,3.8,3.8
	s-1.7,3.8-3.8,3.8s-3.8-1.7-3.8-3.8S74.9,51,77,51z"/>
<path d="M72,81h10c0.7,0,1.3-0.6,1.3-1.3s-0.6-1.3-1.3-1.3H72c-0.7,0-1.3,0.6-1.3,1.3S71.3,81,72,81z"/>
<path d="M72,76h10c0.7,0,1.3-0.6,1.3-1.3s-0.6-1.3-1.3-1.3H72c-0.7,0-1.3,0.6-1.3,1.3S71.3,76,72,76z"/>
<path d="M72,71h10c0.7,0,1.3-0.6,1.3-1.3s-0.6-1.3-1.3-1.3H72c-0.7,0-1.3,0.6-1.3,1.3S71.3,71,72,71z"/>
</svg>
