<svg xmlns="http://www.w3.org/2000/svg" xmlns:xlink="http://www.w3.org/1999/xlink" version="1.1" x="0px" y="0px" viewBox="0 0 100 100" enable-background="new 0 0 100 100" xml:space="preserve"><g display="none"><g display="inline"><path d="M54.479,5l-9.22,16.134l-5.309,63.71l-0.004,0.102c0,5.543,4.51,10.054,10.053,10.054H50    c5.544,0,10.055-4.511,10.055-10.054L54.479,5z M52.57,13.353l1.163,16.678l-7.868,13.767l1.826-21.908L52.57,13.353z     M49.999,92.513c-4.156,0-7.54-3.367-7.566-7.517l2.944-35.332l8.668-15.167l3.523,50.491    C57.545,89.142,54.158,92.513,49.999,92.513z"></path><path d="M52.643,58.307h-5.286c-0.687,0-1.243,0.557-1.243,1.243s0.557,1.243,1.243,1.243h5.286c0.688,0,1.244-0.557,1.244-1.243    S53.33,58.307,52.643,58.307z"></path><path d="M52.643,53.882h-5.286c-0.687,0-1.243,0.557-1.243,1.243s0.557,1.243,1.243,1.243h5.286c0.688,0,1.244-0.557,1.244-1.243    S53.33,53.882,52.643,53.882z"></path><path d="M52.643,62.73h-5.286c-0.687,0-1.243,0.558-1.243,1.244s0.557,1.243,1.243,1.243h5.286c0.688,0,1.244-0.557,1.244-1.243    S53.33,62.73,52.643,62.73z"></path><path d="M50.621,30.738c0.343,0,0.622-0.278,0.622-0.622V24.83c0-0.343-0.278-0.621-0.622-0.621s-0.622,0.278-0.622,0.621v5.286    C49.999,30.46,50.277,30.738,50.621,30.738z"></path><circle cx="50" cy="84.945" r="3.524"></circle></g></g><g display="none"><g display="inline"><path d="M50.271,35.377h-7.616c-0.989,0-1.792,0.803-1.792,1.792c0,0.989,0.802,1.791,1.792,1.791h7.616    c0.989,0,1.791-0.802,1.791-1.791C52.062,36.18,51.261,35.377,50.271,35.377z"></path><path d="M49.999,5c-7.987,0-14.485,6.498-14.485,14.487V95h28.973V19.486C64.486,11.498,57.987,5,49.999,5z M50,8.583    c6.012,0,10.905,4.891,10.905,10.903v0.658H39.096v-0.657C39.096,13.474,43.988,8.583,50,8.583z M39.096,31.343h14.191V83.8    H39.096V31.343z M39.096,91.417v-4.034h15.982c0.99,0,1.792-0.802,1.792-1.791v-56.04c0-0.989-0.802-1.792-1.792-1.792H39.096    v-4.033h21.808v67.69H39.096z"></path></g></g><g display="none"><path display="inline" d="M63.223,24.428L53.967,5.916C53.686,5.355,53.111,5,52.484,5h-4.968c-0.627,0-1.201,0.355-1.482,0.916   l-9.256,18.512c-0.115,0.23-0.175,0.484-0.175,0.741v68.175c0,0.915,0.742,1.656,1.657,1.656H61.74   c0.915,0,1.656-0.741,1.656-1.656V25.169C63.396,24.912,63.337,24.658,63.223,24.428z M48.541,8.313h2.92l7.489,14.98H41.051   L48.541,8.313z M39.917,75.434V42.64h20.167v32.794H39.917z M60.084,78.746v3.328H39.917v-3.328H60.084z M39.917,39.327V36h20.167   v3.327H39.917z M39.917,32.687v-6.081h20.167v6.081H39.917z M39.917,91.688v-6.3h20.167v6.3H39.917z"></path></g><g display="none"><g display="inline"><path d="M46.478,40.693h7.043c0.915,0,1.656-0.742,1.656-1.657c0-0.915-0.741-1.656-1.656-1.656h-7.043    c-0.915,0-1.657,0.741-1.657,1.656C44.821,39.951,45.563,40.693,46.478,40.693z"></path><path d="M53.521,44.424h-7.043c-0.915,0-1.657,0.741-1.657,1.656c0,0.915,0.742,1.656,1.657,1.656h7.043    c0.915,0,1.656-0.741,1.656-1.656C55.178,45.165,54.437,44.424,53.521,44.424z"></path><path d="M63.221,24.428L53.965,5.916C53.685,5.355,53.11,5,52.483,5h-4.968c-0.627,0-1.201,0.355-1.482,0.916l-9.256,18.512    c-0.115,0.23-0.175,0.484-0.175,0.741v68.175c0,0.915,0.742,1.656,1.657,1.656h23.479c0.915,0,1.657-0.741,1.657-1.656V25.169    C63.396,24.912,63.336,24.658,63.221,24.428z M48.54,8.313h2.919l7.49,14.979H41.05L48.54,8.313z M60.082,26.605v55.553H39.917    V26.605H60.082z M39.917,91.688v-6.216h20.166v6.216H39.917z"></path></g></g><g display="none"><g display="inline"><path d="M49.111,47.906h-5.334c-0.693,0-1.255,0.562-1.255,1.254c0,0.693,0.562,1.255,1.255,1.255h5.334    c0.693,0,1.255-0.562,1.255-1.255C50.366,48.468,49.804,47.906,49.111,47.906z"></path><path d="M43.777,45.08h5.334c0.693,0,1.255-0.562,1.255-1.255c0-0.692-0.562-1.254-1.255-1.254h-5.334    c-0.693,0-1.255,0.562-1.255,1.254C42.522,44.519,43.084,45.08,43.777,45.08z"></path><path d="M62.449,58.388c-0.693,0-1.256,0.562-1.256,1.255v2.727h-1.412c-0.693,0-1.254,0.562-1.254,1.255    c0,0.692,0.561,1.255,1.254,1.255h1.412v16.94h-4.603V31.44c0-3.482-1.765-6.559-4.446-8.387v-6.355    c0-0.693-0.562-1.255-1.255-1.255h-0.523v-4.168c0-0.693-0.562-1.254-1.255-1.254h-1.726V5.94c0-0.52-0.421-0.941-0.941-0.941    c-0.52,0-0.941,0.421-0.941,0.941v4.08h-1.726c-0.693,0-1.255,0.561-1.255,1.254v4.168h-0.524c-0.693,0-1.254,0.561-1.254,1.255    v6.355c-2.681,1.828-4.446,4.905-4.446,8.388V84.33h5.019h0.316v9.415c0,0.692,0.562,1.255,1.255,1.255H50    c0.693,0,1.255-0.562,1.255-1.255V84.33h5.335h5.858c0.692,0,1.254-0.562,1.254-1.255V59.643    C63.703,58.949,63.142,58.388,62.449,58.388z M45.031,12.53h2.826v2.38h-2.826V12.53z M54.081,37.236H38.807V34.41h15.274V37.236z     M54.081,39.745v36.74H38.807v-36.74H54.081z M43.253,21.815v-3.861h6.382v3.861c-0.01-0.003-0.021-0.006-0.032-0.009    c-0.164-0.054-0.331-0.099-0.499-0.145c-0.132-0.036-0.265-0.072-0.398-0.103c-0.148-0.034-0.297-0.064-0.447-0.092    c-0.175-0.032-0.352-0.058-0.528-0.081c-0.12-0.015-0.239-0.032-0.36-0.044c-0.308-0.028-0.617-0.047-0.927-0.047l0,0h0    c-0.001,0-0.002,0-0.003,0c-0.309,0.001-0.616,0.019-0.922,0.047c-0.124,0.012-0.245,0.029-0.367,0.045    c-0.174,0.023-0.348,0.048-0.521,0.08c-0.152,0.027-0.303,0.058-0.452,0.092c-0.132,0.031-0.263,0.065-0.394,0.102    c-0.168,0.046-0.336,0.091-0.501,0.145C43.274,21.809,43.263,21.81,43.253,21.815z M42.645,24.826    c2.32-1.335,5.282-1.334,7.6,0.001c2.289,1.32,3.837,3.786,3.837,6.613v0.461H38.807v-0.46    C38.807,28.613,40.355,26.146,42.645,24.826z M44.143,92.49v-1.738h4.603v1.738H44.143z M48.746,89.497h-4.603V84.33h4.603V89.497    z M50,81.82h-7.113h-1.571h-2.509v-2.825h15.274v2.825H50z"></path></g></g><g display="none"><path display="inline" d="M61.152,25.576L51.25,5.772C51.014,5.299,50.529,5,50,5s-1.013,0.299-1.25,0.772l-9.902,19.804   c-0.097,0.194-0.147,0.408-0.147,0.625v57.501C38.701,89.932,43.769,95,49.999,95H50c6.231,0,11.299-5.068,11.299-11.298V26.201   C61.299,25.984,61.248,25.77,61.152,25.576z M43.975,27.598v46.855h-2.479V27.598H43.975z M50.699,74.453V27.598h3.929v46.855   H50.699z M49.301,74.453h-3.929V27.598h3.929V74.453z M58.504,77.248v3.146H41.496v-3.146H58.504z M56.025,74.453V27.598h2.479   v46.855H56.025z M42.359,24.803l4.538-9.079h6.204l4.539,9.079H42.359z M49.999,92.205c-4.688,0-8.503-3.814-8.503-8.503v-0.514   h17.008v0.514C58.504,88.391,54.689,92.205,49.999,92.205z"></path></g><g display="none"><g display="inline"><path d="M49.253,41.2H42.38c-0.893,0-1.617,0.724-1.617,1.617c0,0.892,0.724,1.616,1.617,1.616h6.872    c0.892,0,1.616-0.724,1.616-1.616C50.869,41.924,50.145,41.2,49.253,41.2z"></path><path d="M61.205,20.979c-4.472-1.042-7.595-4.982-7.595-9.582h-0.003V6.212c0-0.67-0.543-1.212-1.213-1.212h-2.556    c-0.322,0-0.63,0.128-0.857,0.355l-3.973,3.974c-0.227,0.227-0.355,0.535-0.355,0.857v1.212h-0.004    c0,4.599-3.123,8.539-7.595,9.582l-1.296,0.302L38.407,95h21.448l2.647-73.719L61.205,20.979z M47.078,10.688l3.263-3.263h0.842    v3.562h-4.105V10.688z M47.727,13.411h2.806c0.731,4.783,4.036,8.766,8.645,10.346l-0.221,6.123H39.302l-0.22-6.123    C43.692,22.177,46.996,18.194,47.727,13.411z M41.215,83.144h15.83l-0.062,1.75H41.278L41.215,83.144z M41.157,81.526    l-1.58-43.966h19.104l-1.578,43.966H41.157z M39.461,34.328l-0.101-2.832H58.9l-0.102,2.832H39.461z M41.525,91.767l-0.13-3.64    h15.471l-0.131,3.64H41.525z"></path></g></g><g display="none"><g display="inline"><path d="M50.128,38.17h-7.25c-0.942,0-1.705,0.764-1.705,1.705c0,0.942,0.763,1.706,1.705,1.706h7.25    c0.943,0,1.706-0.763,1.706-1.706C51.834,38.934,51.071,38.17,50.128,38.17z"></path><path d="M58.729,4.835H41.272l-5.071,20.586l2.485,69.509h22.628l2.476-69.271l0.009-0.237L58.729,4.835z M43.945,8.246h12.111    l4.317,17.529l-0.017,0.45H39.643l-0.017-0.45L43.945,8.246z M41.651,82.421h16.698l-0.066,1.847H41.718L41.651,82.421z     M41.591,80.717L39.933,34.33h20.134l-1.658,46.387H41.591z M39.811,30.918l-0.106-2.987h20.591l-0.107,2.987H39.811z     M41.977,91.519l-0.138-3.839h16.322l-0.138,3.839H41.977z"></path><path d="M53.437,20.288c0.191,0.777,0.888,1.297,1.654,1.297c0.136,0,0.272-0.016,0.409-0.049    c0.915-0.225,1.475-1.149,1.248-2.064l-1.337-5.433c-0.226-0.915-1.151-1.47-2.064-1.248c-0.914,0.226-1.474,1.149-1.248,2.064    L53.437,20.288z"></path></g></g><g display="none"><g display="inline"><path d="M5,6.3v87.234h90V6.299L5,6.3z M9.043,29.708L9.043,29.708c0.001-4.414,3.593-8.006,8.007-8.006    c4.415,0,8.006,3.592,8.006,8.006v51.188H9.043V29.708z M33.652,89.491H9.043v-4.553h18.035c1.116,0,2.021-0.905,2.021-2.021    V29.708c0-6.644-5.405-12.049-12.049-12.049c-3.075,0-5.875,1.168-8.007,3.07V10.343l24.609-0.001V89.491z M37.695,36.871h0.001    c0-8.364,6.805-15.169,15.169-15.169c8.365,0,15.17,6.805,15.17,15.169v44.025h-30.34V36.871z M90.957,89.491H37.695v-4.553    h32.362c1.116,0,2.021-0.905,2.021-2.021V36.871c0-10.594-8.619-19.212-19.213-19.212c-6.168,0-11.652,2.934-15.17,7.466V10.342    h53.262V89.491z"></path><circle cx="16.04" cy="40.479" r="4.298"></circle><circle cx="44.769" cy="40.479" r="4.298"></circle></g></g><g display="none"><g display="inline"><circle cx="41.594" cy="50.643" r="6.307"></circle><path d="M50.001,5C25.187,5,5,25.186,5,49.999C5,74.812,25.187,95,50.001,95C74.812,95,95,74.812,95,49.999    C95,25.186,74.812,5,50.001,5z M50.001,10.931c16.906,0,31.336,10.798,36.764,25.857H13.236    C18.665,21.729,33.094,10.931,50.001,10.931z M89.068,49.999c0,3.955-0.595,7.774-1.694,11.375H12.625    c-1.098-3.601-1.694-7.42-1.694-11.375c0-2.488,0.244-4.919,0.691-7.28h76.756C88.826,45.08,89.068,47.511,89.068,49.999z     M50.001,89.068c-15.33,0-28.62-8.881-35.014-21.763h70.026C78.619,80.188,65.331,89.068,50.001,89.068z"></path></g></g><g display="none"><g display="inline"><path d="M51.232,36.916h-7.396c-0.961,0-1.74,0.779-1.74,1.74c0,0.96,0.779,1.739,1.74,1.739h7.396c0.961,0,1.74-0.779,1.74-1.739    C52.973,37.695,52.193,36.916,51.232,36.916z"></path><path d="M50,79.393c-0.48,0-0.87,0.389-0.87,0.869v8.697c0,0.481,0.389,0.87,0.87,0.87s0.87-0.389,0.87-0.87v-8.697    C50.87,79.781,50.48,79.393,50,79.393z"></path><path d="M43.836,79.393c-0.48,0-0.87,0.389-0.87,0.869v8.697c0,0.481,0.39,0.87,0.87,0.87c0.48,0,0.87-0.389,0.87-0.87v-8.697    C44.706,79.781,44.316,79.393,43.836,79.393z"></path><path d="M56.164,79.393c-0.48,0-0.87,0.389-0.87,0.869v8.697c0,0.481,0.39,0.87,0.87,0.87c0.48,0,0.869-0.389,0.869-0.87v-8.697    C57.033,79.781,56.645,79.393,56.164,79.393z"></path><path d="M62.328,5H37.673c-0.96,0-1.74,0.779-1.74,1.739v86.521c0,0.96,0.779,1.739,1.74,1.739h24.655    c0.96,0,1.739-0.779,1.739-1.739V6.739C64.067,5.779,63.288,5,62.328,5z M39.413,13.485h21.175v1.958H39.413V13.485z     M39.413,33.048h21.175v41.406H39.413V33.048z M39.413,29.568V17.183h21.175v12.385H39.413z M60.588,8.479v3.267H39.413V8.479    H60.588z M39.413,91.521V77.933h21.175v13.589H39.413z"></path></g></g><g display="none"><g display="inline"><path d="M90.441,47.758H71.15V25.648C71.15,14.263,61.887,5,50.5,5C39.113,5,29.85,14.264,29.85,25.651v22.107H10.559    c-1.41,0-2.554,1.144-2.554,2.554v31.92c0,1.411,1.144,2.554,2.554,2.554h2.276v7.661c0,1.41,1.143,2.554,2.553,2.554h70.225    c1.41,0,2.553-1.144,2.553-2.554v-7.661h2.275c1.41,0,2.553-1.143,2.553-2.554v-31.92C92.994,48.901,91.852,47.758,90.441,47.758z     M34.958,25.651c0-8.571,6.973-15.543,15.542-15.543c8.102,0,14.766,6.232,15.473,14.152L55.027,35.207    c-0.5,0.498-0.5,1.307,0,1.806c0.248,0.249,0.576,0.374,0.902,0.374c0.326,0,0.652-0.125,0.902-0.374l9.211-9.212v4.614    L55.027,43.432c-0.5,0.498-0.5,1.307,0,1.805c0.248,0.25,0.576,0.375,0.902,0.375c0.326,0,0.652-0.125,0.902-0.375l9.211-9.211    v11.732H34.958V25.651z M13.113,52.865H29.85h41.3h16.736v26.814h-2.273H15.388h-2.275V52.865z M83.059,89.893H17.942v-5.107    h65.117V89.893z"></path><path d="M21.547,62.422h10.855c1.41,0,2.555-1.144,2.555-2.554c0-1.41-1.145-2.554-2.555-2.554H21.547    c-1.411,0-2.555,1.144-2.555,2.554C18.993,61.278,20.136,62.422,21.547,62.422z"></path><circle cx="50.5" cy="23.469" r="5.429"></circle></g></g><g display="none"><g display="inline"><circle cx="48.12" cy="39.63" r="2.494"></circle><path d="M35.339,74.181c-4.365,0-7.917,3.552-7.917,7.917c0,4.365,3.552,7.917,7.917,7.917c4.365,0,7.917-3.552,7.917-7.917    C43.256,77.732,39.704,74.181,35.339,74.181z M35.339,88.842c-3.719,0-6.744-3.025-6.744-6.744c0-3.719,3.025-6.744,6.744-6.744    c3.719,0,6.744,3.025,6.744,6.744C42.083,85.816,39.058,88.842,35.339,88.842z"></path><path d="M64.661,74.181c-4.365,0-7.917,3.552-7.917,7.917c0,4.365,3.552,7.917,7.917,7.917c4.365,0,7.917-3.552,7.917-7.917    C72.578,77.732,69.026,74.181,64.661,74.181z M64.661,88.842c-3.719,0-6.744-3.025-6.744-6.744c0-3.719,3.025-6.744,6.744-6.744    c3.719,0,6.744,3.025,6.744,6.744C71.405,85.816,68.38,88.842,64.661,88.842z"></path><path d="M71.188,70.967c-0.014-0.009-0.03-0.013-0.046-0.021c-0.011-0.006-0.019-0.015-0.028-0.021    c-3.258-1.885-5.279-5.388-5.279-9.143c0-0.648-0.525-1.173-1.172-1.173c-0.001,0-0.001,0-0.001,0    c-0.012,0-0.022,0.003-0.034,0.003c-0.012,0-0.023-0.003-0.035-0.003c0,0,0,0-0.001,0c-1.768,0-3.493,0.33-5.106,0.934V14.484    C59.484,9.254,55.229,5,50,5c0,0,0,0,0,0c-2.533,0-4.915,0.986-6.706,2.778c-1.792,1.791-2.778,4.173-2.778,6.707v47.057    c-1.613-0.603-3.338-0.933-5.106-0.933h-0.001c-0.012,0-0.023,0.003-0.035,0.003c-0.012,0-0.022-0.003-0.034-0.003    c-0.648,0-1.173,0.524-1.173,1.173c0,3.756-2.022,7.26-5.278,9.143c-0.01,0.006-0.018,0.014-0.028,0.021    c-0.016,0.008-0.032,0.013-0.048,0.021c-3.932,2.311-6.375,6.575-6.375,11.131C22.437,89.212,28.225,95,35.339,95    c7.114,0,12.902-5.788,12.902-12.902V69.044l1.648-2.122l1.871,2.407v12.769C51.76,89.212,57.547,95,64.661,95    c7.114,0,12.901-5.788,12.901-12.902C77.562,77.543,75.12,73.277,71.188,70.967z M50,7.346c3.936,0,7.139,3.202,7.139,7.139    v29.543L48.794,7.454C49.188,7.387,49.59,7.346,50,7.346L50,7.346z M44.952,9.436c0.485-0.485,1.028-0.888,1.613-1.209    l10.574,46.345v8.091c-1.727,1.021-3.241,2.399-4.436,4.06L42.861,54.05V14.484C42.861,12.578,43.603,10.785,44.952,9.436z     M35.339,92.654c-5.821,0-10.556-4.736-10.556-10.557c0-3.728,1.999-7.217,5.217-9.108c0.01-0.006,0.018-0.015,0.027-0.019    c0.011-0.007,0.024-0.009,0.036-0.016c3.622-2.096,5.988-5.834,6.384-9.951c3.874,0.331,7.404,2.499,9.449,5.843v13.251    C45.895,87.918,41.16,92.654,35.339,92.654z M47.189,66.573c-1.177-1.595-2.654-2.92-4.329-3.912v-4.787l5.543,7.136    L47.189,66.573z M64.661,92.654c-5.821,0-10.556-4.736-10.556-10.557V68.846c2.043-3.343,5.574-5.511,9.448-5.842    c0.396,4.116,2.761,7.854,6.384,9.951c0.011,0.007,0.023,0.009,0.034,0.015c0.01,0.006,0.017,0.015,0.027,0.02    c3.219,1.891,5.218,5.381,5.218,9.108C75.217,87.918,70.481,92.654,64.661,92.654z"></path></g></g><g display="none"><path display="inline" d="M63.727,55.545c-0.734,0-1.33,0.595-1.33,1.329v2.89H60.9c-0.734,0-1.329,0.595-1.329,1.329   c0,0.734,0.595,1.329,1.329,1.329h1.496v17.946h-4.955v-53.37c0-0.206-0.048-0.409-0.14-0.594l-7.427-14.854   c-0.225-0.45-0.686-0.735-1.189-0.735H47.69V5.997C47.69,5.446,47.244,5,46.693,5c-0.55,0-0.997,0.446-0.997,0.997v4.819h-0.996   c-0.503,0-0.964,0.285-1.189,0.735l-7.427,14.854c-0.092,0.185-0.14,0.388-0.14,0.594v54.699c0,0.734,0.595,1.329,1.329,1.329   h4.066h0.258v10.645c0,0.734,0.595,1.329,1.329,1.329h7.535c0.734,0,1.329-0.595,1.329-1.329V83.026h4.323h7.613   c0.733,0,1.328-0.595,1.328-1.329V56.874C65.055,56.14,64.46,55.545,63.727,55.545z M49.132,89.171h-4.876v-5.474h4.876V89.171z    M44.255,92.342V90.5h4.876v1.842H44.255z M43.136,18.247h7.115l3.623,7.245H39.513L43.136,18.247z M45.522,13.475h2.343   l1.389,2.778h-5.121L45.522,13.475z M41.339,80.368h-2.736v-4.731h4.322c0.734,0,1.329-0.595,1.329-1.329   c0-0.733-0.595-1.329-1.329-1.329h-4.322v-2.993h4.322c0.734,0,1.329-0.595,1.329-1.329c0-0.734-0.595-1.329-1.329-1.329h-4.322   V28.151h16.18v52.217H41.339z"></path></g><g display="none"><path display="inline" d="M62.21,6.164C62.197,6.1,62.175,6.04,62.154,5.979c-0.01-0.028-0.016-0.058-0.027-0.086   c-0.027-0.066-0.064-0.127-0.1-0.188c-0.013-0.02-0.021-0.042-0.034-0.062c-0.105-0.157-0.241-0.292-0.397-0.398   c-0.025-0.017-0.053-0.027-0.077-0.042c-0.057-0.033-0.112-0.066-0.173-0.092c-0.033-0.014-0.068-0.021-0.102-0.032   c-0.057-0.019-0.111-0.04-0.17-0.051C60.98,5.009,60.885,5,60.787,5h-6.17c-0.002,0-0.002,0-0.004,0L40.212,5   c-0.801,0-1.451,0.65-1.451,1.452v87.096c0,0.385,0.153,0.754,0.425,1.026C39.458,94.847,39.828,95,40.212,95l20.575-0.002   c0.802,0,1.451-0.65,1.451-1.451V6.451C62.238,6.354,62.229,6.258,62.21,6.164z M41.664,92.097V7.904l17.672-0.001v5.806h-4.719   c-0.803,0-1.452,0.65-1.452,1.452c0,0.802,0.649,1.452,1.452,1.452h4.719v5.807h-4.719c-0.803,0-1.452,0.649-1.452,1.451   c0,0.802,0.649,1.452,1.452,1.452h4.719v5.806h-4.719c-0.803,0-1.452,0.649-1.452,1.451c0,0.802,0.649,1.452,1.452,1.452h4.719   v5.806h-4.719c-0.803,0-1.452,0.65-1.452,1.452c0,0.802,0.649,1.451,1.452,1.451h4.719v5.808H49.9   c-0.802,0-1.452,0.649-1.452,1.451c0,0.802,0.65,1.452,1.452,1.452h9.436v5.326h-4.719c-0.803,0-1.452,0.65-1.452,1.451   c0,0.802,0.649,1.452,1.452,1.452h4.719v5.807h-4.719c-0.803,0-1.452,0.649-1.452,1.451c0,0.802,0.649,1.451,1.452,1.451h4.719   v5.807h-4.719c-0.803,0-1.452,0.65-1.452,1.452c0,0.802,0.649,1.451,1.452,1.451h4.719v5.806h-4.719   c-0.803,0-1.452,0.65-1.452,1.452c0,0.801,0.649,1.451,1.452,1.451h4.719v6.286L41.664,92.097z"></path></g><g display="none"><path display="inline" d="M63.378,15.07h-1.856V6.973c0-1.151-0.933-2.083-2.083-2.083H39.559c-1.147,0-2.08,0.932-2.08,2.083   v8.096h-0.485c-4.55,0-8.253,3.602-8.253,8.035v63.88c0,4.431,3.703,8.039,8.253,8.039h26.385c4.55,0,8.251-3.608,8.251-8.039   v-63.88C71.629,18.672,67.928,15.07,63.378,15.07 M41.642,9.055h15.715v6.015H41.642V9.055z M67.466,86.985   c0,2.139-1.835,3.876-4.088,3.876H36.993c-2.255,0-4.088-1.737-4.088-3.876v-63.88c0-2.134,1.833-3.873,4.088-3.873h26.385   c2.253,0,4.088,1.739,4.088,3.873V86.985z M59.066,69.139H41.303c-1.526,0-2.776,1.248-2.776,2.774v6.253   c0,1.526,1.251,2.778,2.776,2.778h17.762c1.526,0,2.776-1.253,2.776-2.778v-6.253C61.842,70.387,60.591,69.139,59.066,69.139"></path></g><g display="none"><path display="inline" d="M63.38,15.069h-1.858V6.976c0-1.149-0.933-2.086-2.083-2.086H39.56c-1.151,0-2.083,0.936-2.083,2.086   v8.092h-0.487c-4.549,0-8.251,3.605-8.251,8.041v63.873c0,4.433,3.702,8.041,8.251,8.041H63.38c4.549,0,8.249-3.608,8.249-8.041   V23.11C71.629,18.674,67.929,15.069,63.38,15.069 M41.643,9.058h15.715v6.011H41.643V9.058z M67.463,86.983   c0,2.139-1.831,3.877-4.084,3.877H36.991c-2.255,0-4.085-1.738-4.085-3.877V23.11c0-2.139,1.831-3.877,4.085-3.877H63.38   c2.253,0,4.084,1.738,4.084,3.877V86.983z M59.065,69.136H41.301c-1.525,0-2.775,1.25-2.775,2.773v6.258   c0,1.525,1.25,2.775,2.775,2.775h17.764c1.527,0,2.777-1.25,2.777-2.775v-6.258C61.842,70.386,60.592,69.136,59.065,69.136    M59.065,50.383H41.301c-1.525,0-2.775,1.254-2.775,2.777v6.258c0,1.523,1.25,2.777,2.775,2.777h17.764   c1.527,0,2.777-1.254,2.777-2.777V53.16C61.842,51.637,60.592,50.383,59.065,50.383"></path></g><g display="none"><path display="inline" d="M63.378,15.071h-1.856V6.974c0-1.15-0.933-2.084-2.083-2.084H39.559c-1.147,0-2.081,0.934-2.081,2.084   v8.096h-0.485c-4.55,0-8.253,3.604-8.253,8.037v63.877c0,4.43,3.703,8.04,8.253,8.04h26.385c4.55,0,8.251-3.61,8.251-8.04V23.108   C71.629,18.675,67.928,15.071,63.378,15.071 M41.641,9.055h15.715v6.016H41.641V9.055z M67.465,86.985   c0,2.138-1.835,3.875-4.087,3.875H36.993c-2.255,0-4.088-1.737-4.088-3.875V23.108c0-2.137,1.833-3.876,4.088-3.876h26.385   c2.253,0,4.087,1.739,4.087,3.876V86.985z M59.065,69.139H41.303c-1.526,0-2.776,1.247-2.776,2.773v6.254   c0,1.528,1.25,2.778,2.776,2.778h17.762c1.526,0,2.776-1.25,2.776-2.778v-6.254C61.841,70.386,60.591,69.139,59.065,69.139    M59.065,50.384H41.303c-1.526,0-2.776,1.253-2.776,2.774v6.258c0,1.521,1.25,2.773,2.776,2.773h17.762   c1.526,0,2.776-1.252,2.776-2.773v-6.258C61.841,51.636,60.591,50.384,59.065,50.384 M59.065,31.726H41.303   c-1.526,0-2.776,1.248-2.776,2.774v6.255c0,1.526,1.25,2.776,2.776,2.776h17.762c1.53,0,2.776-1.25,2.776-2.776V34.5   C61.841,32.975,60.595,31.726,59.065,31.726"></path></g><g display="none"><path display="inline" d="M91.085,37.394L54.54,6.795c-2.453-2.055-6.635-2.053-9.088-0.004L9.002,37.259   c-2.232,1.867-3.98,5.606-3.98,8.513v36.246c0,2.392,0.055,5.891,0.122,7.789c0.101,2.94,2.963,5.332,6.371,5.332h77.267   c3.447,0,6.252-2.829,6.252-6.303V52.959c0-2.204,0.007-4.142,0.028-4.614V45.91C95.06,42.999,93.315,39.259,91.085,37.394    M11.565,40.327l36.45-30.467c0.501-0.42,1.222-0.658,1.98-0.658c0.756,0,1.477,0.238,1.978,0.66l36.547,30.598   c0.574,0.482,1.118,1.244,1.562,2.085l-32.142,19l-3.39-2.756c-5.602-3.702-10.96-0.115-11.353,0.169l-3.011,2.641L9.877,42.656   C10.338,41.714,10.935,40.854,11.565,40.327 M9.114,88.871C9.062,86.93,9.02,84.066,9.02,82.017V46.282l28.398,17.746L9.114,88.871   z M11.87,91.14l33.486-29.402c0.037-0.021,3.61-2.408,7.108-0.11L88.703,91.14H11.87z M91.036,52.959v35.533L60.854,63.921   l30.21-17.86l0.012,2.067C91.062,48.257,91.036,48.493,91.036,52.959"></path></g><g display="none"><path display="inline" d="M87.323,14.563H12.76c-4.267,0-7.738,3.781-7.738,8.429v49.383c0,4.649,3.471,8.429,7.738,8.429h74.562   c4.272,0,7.738-3.781,7.738-8.429V22.993C95.061,18.344,91.594,14.563,87.323,14.563 M12.76,18.785h74.562   c0.033,0,0.061,0.009,0.093,0.009L61.6,47.165H38.49l-25.825-28.37C12.7,18.794,12.73,18.785,12.76,18.785 M9.91,74.789   c-0.412-0.689-0.668-1.523-0.668-2.414V22.993c0-0.5,0.091-0.984,0.233-1.432l24.88,27.334L9.91,74.789z M87.323,76.586H14.021   l23.782-25.202h24.725l24.818,25.199C87.341,76.583,87.327,76.586,87.323,76.586 M90.84,72.376c0,0.523-0.093,1.027-0.247,1.491   L65.857,48.751l24.75-27.191c0.144,0.448,0.233,0.932,0.233,1.432V72.376z"></path></g><g display="none"><g display="inline"><path d="M50,61.138c-14.311,0-25.953-11.643-25.953-25.955C24.047,20.873,35.689,9.231,50,9.231    c14.311,0,25.954,11.642,25.954,25.953C75.954,49.495,64.311,61.138,50,61.138z M50,11.299c-13.17,0-23.884,10.714-23.884,23.884    C26.116,48.355,36.83,59.07,50,59.07s23.885-10.715,23.885-23.886C73.885,22.013,63.17,11.299,50,11.299z"></path></g><g display="inline"><path d="M20.684,94.853c-0.572,0-1.034-0.462-1.034-1.034c0-12.204,7.258-23.174,18.491-27.947    c0.519-0.224,1.132,0.021,1.355,0.547c0.224,0.525-0.021,1.132-0.547,1.355c-10.467,4.448-17.231,14.671-17.231,26.044    C21.718,94.391,21.256,94.853,20.684,94.853z"></path></g><g display="inline"><path d="M79.317,94.853c-0.572,0-1.034-0.462-1.034-1.034c0-13.377-9.497-25.031-22.581-27.709c-0.56-0.114-0.921-0.66-0.806-1.22    c0.114-0.559,0.666-0.916,1.22-0.806c14.043,2.873,24.236,15.379,24.236,29.735C80.351,94.391,79.889,94.853,79.317,94.853z"></path></g><path display="inline" d="M78.881,25.887C74.944,13.688,63.492,4.833,50,4.833c-13.492,0-24.943,8.854-28.88,21.053   c-5.089,0.052-9.215,4.198-9.215,9.299c0,5.101,4.126,9.248,9.215,9.299c3.703,11.473,14.059,19.961,26.503,20.932   c0.395,0.924,1.31,1.572,2.377,1.572c1.428,0,2.586-1.158,2.586-2.586c0-1.428-1.158-2.586-2.586-2.586   c-1.05,0-1.946,0.632-2.351,1.532c-14.496-1.201-25.932-13.363-25.932-28.165C21.718,19.589,34.406,6.901,50,6.901   c12.42,0,22.972,8.058,26.764,19.213c0.22,0.648,0.409,1.308,0.582,1.976c0.59,2.272,0.937,4.64,0.937,7.094   c0,2.454-0.347,4.822-0.937,7.094c-0.175,0.672-0.365,1.337-0.587,1.989c0.008,0.002,0.016,0.006,0.025,0.008   c0.646,0.142,1.316,0.217,2.004,0.217c5.132,0,9.307-4.175,9.307-9.307C88.095,30.085,83.969,25.938,78.881,25.887z M13.973,35.184   c0-3.761,2.895-6.826,6.567-7.172c-0.561,2.304-0.891,4.697-0.891,7.171c0,2.475,0.33,4.868,0.892,7.173   C16.868,42.011,13.973,38.946,13.973,35.184z M79.46,42.355c0.561-2.304,0.892-4.697,0.892-7.172c0-2.474-0.33-4.866-0.891-7.17   c3.672,0.345,6.566,3.409,6.566,7.171C86.027,38.946,83.133,42.01,79.46,42.355z"></path></g><g><path d="M20.985,10.446c-1.455,0-2.642,1.185-2.642,2.64c0,1.458,1.188,2.641,2.642,2.641c1.455,0,2.642-1.183,2.642-2.641   C23.627,11.632,22.44,10.446,20.985,10.446 M20.985,14.111c-0.569,0-1.025-0.459-1.025-1.024c0-0.564,0.457-1.023,1.025-1.023   c0.566,0,1.025,0.459,1.025,1.023C22.01,13.652,21.551,14.111,20.985,14.111 M85.478,4.75H14.603c-0.893,0-1.617,0.724-1.617,1.617   V93.26c0,0.893,0.724,1.617,1.617,1.617h70.875c0.893,0,1.617-0.724,1.617-1.617V6.367C87.095,5.474,86.371,4.75,85.478,4.75    M16.22,7.984h27.316v11.971H16.22V7.984z M83.861,91.643H16.22V37.665h1.065c0.716,0,1.293-0.578,1.293-1.294   c0-0.714-0.577-1.294-1.293-1.294H16.22v-2.3h2.931c0.716,0,1.295-0.578,1.295-1.294c0-0.714-0.579-1.294-1.295-1.294H16.22v-2.57   h6.666c0.716,0,1.295-0.58,1.295-1.294c0-0.716-0.579-1.296-1.295-1.296H16.22v-1.841h67.641V91.643z M83.861,19.955H46.77V7.984   h37.091V19.955z M29.88,10.446c-1.457,0-2.642,1.185-2.642,2.64c0,1.458,1.185,2.641,2.642,2.641c1.455,0,2.64-1.183,2.64-2.641   C32.52,11.632,31.335,10.446,29.88,10.446 M29.88,14.111c-0.569,0-1.025-0.459-1.025-1.024c0-0.564,0.457-1.023,1.025-1.023   c0.564,0,1.023,0.459,1.023,1.023C30.903,13.652,30.444,14.111,29.88,14.111 M50.042,82.485c13.433,0,24.36-10.926,24.36-24.358   s-10.927-24.358-24.36-24.358c-13.433,0-24.36,10.926-24.36,24.358S36.609,82.485,50.042,82.485 M50.042,37.003   c11.649,0,21.126,9.475,21.126,21.124c0,11.649-9.477,21.124-21.126,21.124c-11.647,0-21.126-9.474-21.126-21.124   C28.916,46.478,38.395,37.003,50.042,37.003 M50.174,75.204c9.613,0,17.435-7.822,17.435-17.435   c0-9.611-7.822-17.429-17.435-17.429c-9.613,0-17.435,7.818-17.435,17.429C32.739,67.382,40.561,75.204,50.174,75.204    M50.174,43.574c7.548,0,13.719,5.92,14.159,13.359c-1.109,0.426-1.823,1.245-2.335,1.856c-0.657,0.786-0.878,0.987-1.375,0.987   c-0.497,0-0.718-0.201-1.375-0.987c-0.714-0.856-1.794-2.15-3.859-2.15c-2.065,0-3.143,1.296-3.857,2.152   c-0.657,0.784-0.876,0.985-1.371,0.985s-0.714-0.201-1.371-0.987c-0.711-0.854-1.789-2.15-3.855-2.15   c-2.063,0-3.141,1.296-3.855,2.15c-0.655,0.786-0.876,0.987-1.369,0.987s-0.712-0.201-1.366-0.985   c-0.509-0.613-1.223-1.432-2.331-1.858C36.453,49.495,42.626,43.574,50.174,43.574 M39.712,63.01c2.063,0,3.141-1.294,3.853-2.152   c0.655-0.784,0.876-0.985,1.371-0.985c0.495,0,0.714,0.201,1.371,0.987c0.712,0.856,1.79,2.15,3.855,2.15   c2.063,0,3.141-1.294,3.855-2.15c0.657-0.786,0.876-0.987,1.373-0.987s0.718,0.201,1.375,0.987c0.714,0.858,1.794,2.15,3.859,2.15   c1.531,0,2.516-0.712,3.217-1.427c-1.672,5.98-7.158,10.387-13.666,10.387c-6.504,0-11.99-4.402-13.662-10.379   C37.209,62.303,38.19,63.01,39.712,63.01 M51.806,13.092h26.749c0.714,0,1.293-0.58,1.293-1.294c0-0.716-0.579-1.294-1.293-1.294   H51.806c-0.714,0-1.293,0.578-1.293,1.294C50.513,12.512,51.092,13.092,51.806,13.092 M72.785,15.392H57.781   c-0.716,0-1.293,0.578-1.293,1.294c0,0.713,0.577,1.293,1.293,1.293h15.003c0.714,0,1.293-0.58,1.293-1.293   C74.077,15.97,73.498,15.392,72.785,15.392 M38.786,10.446c-1.455,0-2.64,1.185-2.64,2.64c0,1.458,1.185,2.641,2.64,2.641   c1.457,0,2.642-1.183,2.642-2.641C41.428,11.632,40.243,10.446,38.786,10.446 M38.786,14.111c-0.564,0-1.023-0.459-1.023-1.024   c0-0.564,0.459-1.023,1.023-1.023c0.566,0,1.025,0.459,1.025,1.023C39.811,13.652,39.352,14.111,38.786,14.111"></path></g></svg>