<svg xmlns="http://www.w3.org/2000/svg" xmlns:xlink="http://www.w3.org/1999/xlink" version="1.1" x="0px" y="0px" viewBox="0 0 100 100" enable-background="new 0 0 100 100" xml:space="preserve"><g><path fill="#000000" d="M9.566,43.902c-1.173,0-2.344-0.446-3.238-1.34c-1.784-1.788-1.784-4.686,0.003-6.47   c11.665-11.665,27.176-18.09,43.671-18.09c16.497,0,32.004,6.422,43.667,18.085c1.787,1.787,1.787,4.683,0,6.47   c-1.786,1.787-4.687,1.787-6.469,0c-9.937-9.934-23.146-15.405-37.198-15.405c-14.051,0-27.263,5.474-37.201,15.41   C11.906,43.456,10.736,43.902,9.566,43.902z"></path><path fill="#000000" d="M21.619,55.955c-1.17,0-2.341-0.446-3.235-1.34c-1.787-1.785-1.787-4.682-0.002-6.47   c8.445-8.445,19.676-13.099,31.62-13.099c11.942,0,23.17,4.649,31.613,13.089c1.787,1.786,1.787,4.685,0.003,6.472   c-1.786,1.786-4.684,1.784-6.469,0.002c-6.717-6.716-15.648-10.412-25.147-10.412c-9.5,0-18.431,3.698-25.148,10.418   C23.96,55.509,22.79,55.955,21.619,55.955z"></path><path fill="#000000" d="M33.865,68.201c-1.17,0-2.341-0.446-3.235-1.34c-1.787-1.787-1.787-4.683,0-6.469   c5.174-5.174,12.055-8.024,19.372-8.024c7.316,0,14.193,2.849,19.363,8.02c1.787,1.787,1.787,4.683,0,6.469   c-1.783,1.787-4.682,1.787-6.469,0c-3.443-3.442-8.022-5.339-12.895-5.339c-4.874,0-9.454,1.898-12.902,5.344   C36.209,67.755,35.036,68.201,33.865,68.201z"></path><path fill="#000000" d="M56.811,75.189c0,3.757-3.049,6.809-6.809,6.809c-3.759,0-6.809-3.052-6.809-6.809   c0-3.763,3.05-6.809,6.809-6.809C53.762,68.381,56.811,71.427,56.811,75.189z"></path></g></svg>